<svg width="31" height="30" viewBox="0 0 31 30" fill="none" xmlns="http://www.w3.org/2000/svg">
<path d="M23.25 10C23.25 8.01088 22.4335 6.10322 20.9801 4.6967C19.5267 3.29018 17.5554 2.5 15.5 2.5C13.4446 2.5 11.4733 3.29018 10.0199 4.6967C8.56652 6.10322 7.75 8.01088 7.75 10C7.75 18.75 3.875 21.25 3.875 21.25H27.125C27.125 21.25 23.25 18.75 23.25 10Z" stroke="black" stroke-width="2" stroke-linecap="round" stroke-linejoin="round"/>
<path d="M17.7345 26.25C17.5075 26.6288 17.1815 26.9433 16.7893 27.1619C16.3972 27.3805 15.9525 27.4956 15.5 27.4956C15.0474 27.4956 14.6028 27.3805 14.2106 27.1619C13.8184 26.9433 13.4925 26.6288 13.2654 26.25" stroke="black" stroke-width="2" stroke-linecap="round" stroke-linejoin="round"/>
<path d="M26.875 7.5C26.875 9.42533 25.2598 11 23.25 11C21.2402 11 19.625 9.42533 19.625 7.5C19.625 5.57467 21.2402 4 23.25 4C25.2598 4 26.875 5.57467 26.875 7.5Z" fill="#FF0000" stroke="black" stroke-width="0.5"/>
</svg>
