<svg width="185" height="126" viewBox="0 0 185 126" fill="none" xmlns="http://www.w3.org/2000/svg">
<path d="M22.6668 21H113.334C119.567 21 124.667 25.725 124.667 31.5V94.5C124.667 100.275 119.567 105 113.334 105H22.6668C16.4335 105 11.3335 100.275 11.3335 94.5V31.5C11.3335 25.725 16.4335 21 22.6668 21Z" stroke="black" stroke-width="5" stroke-linecap="round" stroke-linejoin="round"/>
<path d="M124.667 31.5L68.0002 68.25L11.3335 31.5" stroke="black" stroke-width="5" stroke-linecap="round" stroke-linejoin="round"/>
<ellipse cx="128.5" cy="24" rx="24.5" ry="24" fill="#2CAB00"/>
<path d="M120.452 22.7543C119.467 21.7866 117.868 21.7841 116.88 22.7488C115.893 23.7134 115.89 25.2799 116.875 26.2477L120.452 22.7543ZM116.875 26.2477L125.076 34.3061L128.653 30.8127L120.452 22.7543L116.875 26.2477Z" fill="white"/>
<path d="M142.6 18.5673C143.587 17.6011 143.587 16.0346 142.6 15.0684C141.614 14.1022 140.015 14.1022 139.029 15.0684L142.6 18.5673ZM124.032 29.7588L122.246 31.5083L125.818 35.0072L127.604 33.2577L124.032 29.7588ZM139.029 15.0684L124.032 29.7588L127.604 33.2577L142.6 18.5673L139.029 15.0684Z" fill="white"/>
</svg>
