<svg width="18" height="19" viewBox="0 0 18 19" fill="none" xmlns="http://www.w3.org/2000/svg">
<path d="M15 5.54163H3C2.17157 5.54163 1.5 6.25051 1.5 7.12496V15.0416C1.5 15.9161 2.17157 16.625 3 16.625H15C15.8284 16.625 16.5 15.9161 16.5 15.0416V7.12496C16.5 6.25051 15.8284 5.54163 15 5.54163Z" stroke="#4F4F4F" stroke-linecap="round" stroke-linejoin="round"/>
<path d="M12 16.625V3.95833C12 3.53841 11.842 3.13568 11.5607 2.83875C11.2794 2.54181 10.8978 2.375 10.5 2.375H7.5C7.10218 2.375 6.72064 2.54181 6.43934 2.83875C6.15804 3.13568 6 3.53841 6 3.95833V16.625" stroke="#4F4F4F" stroke-linecap="round" stroke-linejoin="round"/>
</svg>
