<svg xmlns="http://www.w3.org/2000/svg" width="26" height="24" fill="none" xmlns:v="https://vecta.io/nano"><path d="M23.689 12.233c0-.863-.074-1.493-.236-2.147H12.974v3.897h6.151c-.124.968-.794 2.427-2.282 3.407l-.021.13 3.313 2.415.23.022c2.108-1.832 3.323-4.527 3.323-7.723z" fill="#4285f4"/><path d="M12.974 22.5c3.013 0 5.543-.933 7.391-2.543l-3.522-2.567c-.942.618-2.207 1.05-3.869 1.05-2.951 0-5.456-1.832-6.349-4.363l-.131.01-3.445 2.508-.045.118c1.835 3.43 5.605 5.787 9.97 5.787z" fill="#34a853"/><path d="M6.625 14.077A6.12 6.12 0 0 1 6.253 12c0-.723.136-1.423.36-2.077l-.006-.139-3.488-2.549-.114.051C2.248 8.71 1.813 10.308 1.813 12s.434 3.29 1.19 4.713l3.621-2.637z" fill="#fbbc05"/><path d="M12.974 5.56c2.096 0 3.509.852 4.316 1.563l3.15-2.893c-1.934-1.692-4.452-2.73-7.465-2.73-4.365 0-8.135 2.357-9.97 5.787l3.609 2.637c.905-2.532 3.41-4.363 6.362-4.363z" fill="#eb4335"/></svg>