<svg width="8" height="12" viewBox="0 0 8 12" fill="none" xmlns="http://www.w3.org/2000/svg">
<path d="M7.86364 3.16477L7.5625 4.16477H0.414773L0.710227 3.16477H7.86364ZM4.97159 12L0.505682 6.75568L0.494318 6.02273H2.44886C3.03977 6.02273 3.54356 5.9375 3.96023 5.76705C4.37689 5.5928 4.69508 5.33523 4.91477 4.99432C5.13826 4.65341 5.25 4.23106 5.25 3.72727C5.25 2.98485 5.01705 2.40151 4.55114 1.97727C4.08902 1.54924 3.42614 1.33523 2.5625 1.33523H0.414773L0.710227 0.363636H2.5625C3.39583 0.363636 4.0928 0.507575 4.65341 0.795454C5.2178 1.08333 5.64205 1.48106 5.92614 1.98864C6.21402 2.49242 6.35795 3.07197 6.35795 3.72727C6.35795 4.34091 6.2197 4.89394 5.94318 5.38636C5.67045 5.875 5.24811 6.26326 4.67614 6.55114C4.10795 6.83523 3.38258 6.97727 2.5 6.97727H2.09091L6.29545 11.9148V12H4.97159ZM7.90341 0.363636L7.60795 1.36364L1.58523 1.33523L1.85795 0.363636H7.90341Z" fill="#4F4F4F"/>
</svg>
