<svg width="126" height="102" viewBox="0 0 126 102" fill="none" xmlns="http://www.w3.org/2000/svg">
<path d="M104.58 98.5093H102.72L99.3945 67.0095H102.495L104.58 98.5093Z" fill="#1E1C1B"/>
<path d="M73.4671 98.5093H71.6172L74.3971 67.0095H77.498L73.4671 98.5093Z" fill="#1E1C1B"/>
<path d="M73.2844 49.7095C71.3279 55.3977 66.7516 62.5617 77.0481 68.6777C78.9406 69.811 93.3753 69.1803 95.9309 67.5444C98.4328 65.9299 100.625 60.9045 98.1441 55.0984C97.1176 52.7139 95.8024 49.7949 95.8024 49.7949L73.2844 49.7095Z" fill="#100F0D"/>
<path d="M77.8073 3.1969C74.6636 7.45246 75.562 20.016 75.6581 23.8971C75.7648 27.7679 83.4955 24.3676 83.4955 24.3676L84.0087 3.14356L77.8073 3.1969Z" fill="#2A1412"/>
<path d="M90.3303 3.35787C92.6508 7.02499 92.5863 19.6099 92.4902 23.4913C92.3835 27.3724 84.1929 24.368 84.1929 24.368L83.6797 3.1439L90.3303 3.35787Z" fill="#581C19"/>
<path d="M84.2784 32.1094L87.636 20.2196C87.636 20.2196 86.866 14.2423 86.866 13.4511L83.7011 13.2909V13.2803L83.6797 13.2909L83.669 13.2803V13.2909L80.4934 13.4511C80.4934 14.0284 80.2047 16.9799 79.9481 18.8725C79.8627 19.5885 77.6602 20.3264 77.6602 20.3264L80.7393 25.5765L84.2784 32.1094Z" fill="#DCA296"/>
<path d="M86.9295 13.4519L83.8184 14.0829L84.3637 31.6182L89.3566 20.2524C89.3566 20.2524 87.5281 19.2899 87.4428 18.67C87.2289 16.9588 86.9295 14.0291 86.9295 13.4519Z" fill="#E9C3B5"/>
<path d="M79.1495 19.6675C79.1188 19.6034 79.0821 19.538 79.0371 19.4717C79.0627 19.4763 79.0882 19.48 79.1128 19.48C79.6678 19.4786 80.0006 18.1861 80.1978 16.7879C80.118 17.5161 80.0303 18.2516 79.9458 18.873C79.9128 19.1496 79.5648 19.4289 79.1495 19.6675Z" fill="url(#paint0_linear_663_4092)"/>
<path d="M83.9252 13.3032L83.7656 13.2948L83.7684 13.1905L83.9229 13.2002L83.9252 13.3032Z" fill="url(#paint1_linear_663_4092)"/>
<path d="M80.4082 14.7046C80.4574 13.9704 80.4722 13.4274 80.4722 13.355L83.6266 13.1838H83.6479H83.6692L83.7686 13.1898L83.7658 13.2941L83.7013 13.2909V13.2802L83.6799 13.2909L83.6692 13.2802V13.2909L80.4936 13.4511C80.4936 13.6451 80.4611 14.1058 80.4082 14.7046Z" fill="url(#paint2_linear_663_4092)"/>
<path d="M87.2289 16.8218C87.0711 15.3594 86.929 13.848 86.929 13.4512L86.865 13.4641C86.865 13.4595 86.865 13.4549 86.865 13.4512L83.9241 13.3027L83.9219 13.1997L87.0897 13.3978C87.0897 13.653 87.1208 15.4852 87.2289 16.8218Z" fill="url(#paint3_linear_663_4092)"/>
<path d="M79.7223 21.3423C78.2906 21.3423 79.6541 20.7245 79.1506 19.6669C79.5659 19.4284 79.9139 19.149 79.9469 18.8725C80.0314 18.251 80.1191 17.5155 80.1989 16.7873C80.3 16.0661 80.3655 15.3189 80.4068 14.7046C80.4597 14.1058 80.4922 13.6451 80.4922 13.4511L83.6679 13.2909V13.2803L83.6786 13.2909L83.7 13.2803V13.2909L83.7645 13.2942L83.924 13.3026L86.8649 13.4511C86.8649 13.4548 86.8649 13.4594 86.8649 13.464L83.8178 14.0822L83.9881 19.5602C82.2654 20.4878 80.398 21.3423 79.7223 21.3423Z" fill="url(#paint4_linear_663_4092)"/>
<path d="M83.9867 19.5601L83.8164 14.082L86.8635 13.4639L86.9275 13.4509C86.9275 13.8477 87.0696 15.3592 87.2274 16.8215C87.2464 17.0531 87.2678 17.2693 87.2914 17.4606C86.915 17.8625 85.507 18.74 83.9867 19.5601Z" fill="url(#paint5_linear_663_4092)"/>
<path d="M89.9907 8.85098C89.4357 13.1539 85.9444 16.8262 83.8682 16.8262C81.5525 16.8238 78.5721 14.4681 77.6797 8.96741C76.9547 4.44454 78.0913 0.589476 83.7526 0.589476C89.0639 0.589476 90.5722 4.34107 89.9907 8.85098Z" fill="#DCA296"/>
<path d="M89.9892 8.84903C90.3855 4.3308 89.0717 0.609861 83.7793 0.589903V16.8136L83.8666 16.8242C85.9428 16.8242 89.4926 14.5173 89.9892 8.84903Z" fill="#E9C3B5"/>
<path d="M83.8913 3.16773C85.5894 4.83467 88.2871 5.15865 88.9493 8.06697C89.2398 9.35992 89.7804 10.8352 88.0485 14.3019C87.3069 15.7846 88.9544 15.9995 88.9544 15.9995L91.5922 7.13472C91.5922 7.13472 91.1676 2.89069 88.2053 0.953234C86.2998 -0.296583 83.7794 -0.0222664 83.6774 0.242665C83.579 0.506291 83.8913 3.16773 83.8913 3.16773Z" fill="#581C19"/>
<path d="M83.8489 3.14246C82.5226 4.60529 79.501 5.15987 78.8662 8.06677C78.6351 9.10404 78.1765 10.19 79.5043 13.8288C80.5674 16.7418 78.8476 16.4073 78.8476 16.4073L76.2891 8.30948C76.2891 8.30948 76.3523 3.43852 79.4639 1.22865C81.4005 -0.148285 83.8123 -0.165873 83.8289 0.205746C83.8415 0.492182 83.8489 3.14246 83.8489 3.14246Z" fill="#2A1412"/>
<path d="M77.1342 62.5185C76.7169 59.1076 83.293 53.9967 87.0027 60.4761C88.6711 63.3846 88.7992 86.993 89.0879 88.6076C89.5798 91.3025 91.6436 98.3699 90.5637 99.9631C89.0131 102.251 86.1368 101.813 85.5488 92.671C84.8216 81.4228 77.9681 69.2547 77.1342 62.5185Z" fill="#DCA296"/>
<path d="M85.6527 94.1319C85.779 95.862 86.1688 98.1155 88.9872 97.6236C90.1853 97.4148 90.6536 96.424 90.2373 93.4539C90.9144 95.0707 91.3168 96.4286 91.384 97.3614C91.5571 99.6386 91.0188 101.27 89.8211 101.323C89.2599 101.349 86.243 101.057 85.6527 98.3007C85.3399 96.8421 85.6527 94.1319 85.6527 94.1319Z" fill="#100F0D"/>
<path d="M96.5839 60.0809C95.2474 56.8946 89.3879 52.6817 87.6347 59.931C86.8647 63.192 92.8629 86.3412 92.7562 87.9984C92.6495 89.645 93.5155 98.4448 95.0014 99.6746C97.1293 101.428 101.834 100.316 98.2843 91.8693C93.6648 80.8669 99.2037 66.3357 96.5839 60.0809Z" fill="#E9C3B5"/>
<path d="M98.4703 92.3601C99.5126 96.5303 98.4234 96.295 96.7249 96.6727C95.1062 97.0301 94.4579 97.2584 93.2077 93.7676C93.1943 95.6843 93.39 96.2142 93.5845 97.1243C94.0578 99.3611 96.588 101.54 98.2248 100.977C99.2555 100.618 99.9661 97.8974 99.6681 96.1117C99.2996 93.8976 98.4703 92.3601 98.4703 92.3601Z" fill="#211E1E"/>
<path d="M115.937 69.2444C115.937 69.7257 115.413 70.1104 114.76 70.1104H27.4148C26.7623 70.1104 26.2383 69.7257 26.2383 69.2444V52.5751C26.2383 52.1046 26.7623 51.7087 27.4148 51.7087H114.76C115.413 51.7087 115.937 52.1046 115.937 52.5751V69.2444Z" fill="#7FA6DB"/>
<path d="M87.9957 18.8676C92.8443 21.8177 93.4309 20.2992 95.4988 21.6807C97.5672 23.0605 100.212 29.1218 100.212 29.1218C100.212 29.1218 94.4017 31.2366 94.056 32.2724C93.7117 33.3045 92.7895 39.9626 92.7895 42.3754C92.7895 44.1955 93.5399 47.0078 93.5399 47.0078L81.6484 46.8769L83.9678 32.3624C83.9678 32.3624 86.4776 26.9392 88.2021 19.7409L87.9957 18.8676Z" fill="#1E1C1B"/>
<path d="M78.8765 18.5993C75.1802 21.4469 73.4622 20.0522 71.5849 21.6807C70.9055 22.2701 67.877 31.4157 67.877 31.4157C67.877 31.4157 73.0334 31.7522 73.3786 32.7903C73.7253 33.8201 75.7923 41.9192 75.7923 43.3007C75.7923 44.7622 74.9296 46.6188 74.9296 46.6188L84.8812 46.8115L84.5596 31.1094C84.5596 31.1094 80.8183 27.1081 79.0937 19.9122L78.8765 18.5993Z" fill="#100F0D"/>
<path d="M87.6068 17.9302C87.6068 17.7975 90.1073 19.4153 90.1073 19.4153L90.5765 22.8467L88.2042 22.5412L89.7583 24.3972L84.3652 31.3672C84.3652 31.3672 86.3975 23.4917 87.2156 21.6809C88.0366 19.8729 87.6068 17.9302 87.6068 17.9302Z" fill="white"/>
<path d="M79.7905 18.1642C79.7905 18.0323 77.2901 19.7276 77.2901 19.7276L75.9609 22.094L79.5065 22.5408L78.3579 24.1219L84.6809 31.563C84.6809 31.563 81.2348 23.339 80.4161 21.525C79.5966 19.7192 79.7905 18.1642 79.7905 18.1642Z" fill="white"/>
<path d="M71.3242 22.2806C67.9634 30.2451 65.6448 36.2179 65.1761 40.5954C64.5992 45.9713 67.9169 44.6018 69.1621 44.5814C73.8515 44.503 72.186 40.162 74.0859 33.9521C74.3783 32.8792 74.4465 31.0568 74.4465 31.0568L71.3242 22.2806Z" fill="#100F0D"/>
<path d="M71.7858 20.3414L71.7443 20.3189H71.7415L71.7858 20.3414ZM71.6953 20.3965L71.6962 20.3166H71.6953V20.3965Z" fill="#CF1E25"/>
<path d="M98.7553 25.1553C100.246 28.4308 101.811 37.6474 102.437 39.5283C103.312 42.1466 98.6374 43.3276 98.6374 43.3276C98.6374 43.3276 92.6967 41.5999 92.4021 41.574C92.1074 41.5456 93.3251 38.4461 92.3047 37.5741C94.7067 37.4645 97.3223 37.7736 97.3223 37.7736L93.8003 30.4634L98.7553 25.1553Z" fill="#1E1C1B"/>
<path d="M113.553 100.551H116.985V51.5697H113.553V100.551Z" fill="#7FA6DB"/>
<path d="M125.407 47.277C125.407 47.3945 125.18 47.4849 124.899 47.4849H18.9556C18.6757 47.4849 18.4492 47.3945 18.4492 47.277L23.7123 44.7603C24.2339 44.5858 24.4279 44.5478 24.7101 44.5478L117.094 44.5575C117.379 44.5575 117.774 44.6095 118.468 44.7798L125.407 47.277Z" fill="#AECCE5"/>
<path d="M25.9395 100.551H60.0162V60.8401H25.9395V100.551Z" fill="#7FA6DB"/>
<path d="M30.3965 35.1566V40.8271H52.7256V35.1566H30.3965Z" fill="#182242"/>
<path d="M50.6855 37.9395H52.7256V35.1568H30.3965V37.9395H47.6212H50.6855Z" fill="#273D7E"/>
<path d="M49.6676 39.4101L49.5566 39.4922H48.4502L48.3398 39.4101V36.3629L48.4502 36.2762H49.5566L49.6676 36.3629V39.4101Z" fill="#AECCE5"/>
<path d="M49.6674 39.4101V36.3629L49.5565 36.2762H49V39.4922H49.5565L49.6674 39.4101Z" fill="white"/>
<path d="M34.265 39.4101L34.0812 39.4922H32.2388L32.0547 39.4101V36.3629L32.2388 36.2762H34.0812L34.265 36.3629V39.4101Z" fill="#AECCE5"/>
<path d="M34.2661 39.4101V36.3629L34.0823 36.2762H33.1523V39.4922H34.0823L34.2661 39.4101Z" fill="white"/>
<path d="M30.3965 29.4974V35.1689H52.7256V29.4974H30.3965Z" fill="#226931"/>
<path d="M50.6855 32.2808H52.7256V29.4972H30.3965V32.2808H47.6212H50.6855Z" fill="#3E9F3B"/>
<path d="M49.6676 33.9894L49.5566 34.0762H48.4502L48.3398 33.9894V30.9469L48.4502 30.8565H49.5566L49.6676 30.9469V33.9894Z" fill="#AECCE5"/>
<path d="M49.6674 33.9894V30.9469L49.5565 30.8565H49V34.0762H49.5565L49.6674 33.9894Z" fill="white"/>
<path d="M34.265 33.9894L34.0812 34.0762H32.2388L32.0547 33.9894V30.9469L32.2388 30.8565H34.0812L34.265 30.9469V33.9894Z" fill="#AECCE5"/>
<path d="M34.2661 33.9894V30.9469L34.0823 30.8565H33.1523V34.0762H34.0823L34.2661 33.9894Z" fill="white"/>
<path d="M30.3965 40.5091V46.1787H52.7256V40.5091H30.3965Z" fill="#6A1317"/>
<path d="M50.6855 43.27H52.7256V40.4911H30.3965V43.27H47.6212H50.6855Z" fill="#A51C21"/>
<path d="M49.6676 44.8063L49.5566 44.8931H48.4502L48.3398 44.8063V41.7638L48.4502 41.677H49.5566L49.6676 41.7638V44.8063Z" fill="#AECCE5"/>
<path d="M49.6674 44.8063V41.7638L49.5565 41.677H49V44.8931H49.5565L49.6674 44.8063Z" fill="white"/>
<path d="M34.265 44.8063L34.0812 44.8931H32.2388L32.0547 44.8063V41.7638L32.2388 41.677H34.0812L34.265 41.7638V44.8063Z" fill="#AECCE5"/>
<path d="M34.2661 44.8063V41.7638L34.0823 41.677H33.1523V44.8931H34.0823L34.2661 44.8063Z" fill="white"/>
<path d="M71.4277 44.7373L73.1466 43.5649H94.4835L97.7664 44.3466L71.4277 44.7373Z" fill="white"/>
<path d="M96.4657 36.2249C97.4348 36.7476 100.637 43.2534 99.706 43.9518C98.537 44.8299 92.2367 43.6159 91.0333 42.5086C89.2067 40.8286 86.8886 37.0361 89.086 37.7587L96.4657 36.2249Z" fill="#100F0D"/>
<path d="M91.3849 39.7928C91.4713 40.1835 91.6262 40.2964 91.2091 40.9971C90.7928 41.6983 89.0753 42.7843 88.4886 42.8422C87.9016 42.9008 88.0533 42.5917 88.3596 42.2557C88.6655 41.9169 90.3269 40.5256 90.0187 40.5813C89.7124 40.6384 89.2107 41.2291 88.9341 41.5095C88.6543 41.7921 88.1263 42.5763 87.7925 42.8302C87.457 43.0836 86.8416 43.0571 87.0899 42.5527C87.3419 42.05 87.8974 41.2078 88.0905 40.8133C88.2853 40.4221 88.8404 39.7228 88.9234 39.5529C89.0088 39.384 88.2821 39.7236 88.0584 40.0313C87.8357 40.3405 87.748 40.5065 87.5809 40.843C87.4152 41.1781 86.482 42.6687 86.1186 42.84C85.7561 43.0075 85.4155 42.9802 85.719 42.2223C86.0244 41.4654 86.4114 40.5423 86.6067 40.1492C86.7994 39.7571 87.2993 39.029 87.2993 39.029C87.2993 39.029 86.4509 39.7571 86.0346 40.6694C85.7218 41.3535 85.4688 42.587 85.0776 42.5323C84.686 42.4789 84.9032 41.1911 85.126 40.6041C85.3468 40.016 85.8308 38.9658 86.1084 38.5453C86.3887 38.1236 86.9572 37.6043 87.6579 37.7421C88.3583 37.8785 88.8051 37.8892 89.8702 38.4869C90.5245 38.853 91.3849 39.7928 91.3849 39.7928Z" fill="#DCA296"/>
<path d="M0 69.9165V69.6789H0.118804V69.5601H0.237608V69.4413H0.356412V69.3225H0.475216V69.2037H0.594019V69.0849H0.712823V68.9661H0.950431V68.8473H1.06923V68.7285H1.18804V68.6097H1.30684V68.4909H1.42565V68.3721H1.54445V68.2532H1.66325V68.1344H1.78206V68.0156H1.90086V67.8968H2.01967V67.778H2.13847V67.6592H2.25727V67.5404H2.37608V67.4216H2.61369V67.3028H2.73249V67.184H2.85129V67.0652H2.9701V66.9464H3.0889V66.8276H3.20771V66.7088H3.32651V66.59H3.44531V66.4712H3.56412V66.3524H3.68292V66.2336H3.80172V66.1148H3.92053V65.996H4.15814V65.8772H4.27694V65.7584H4.39574V65.6396H4.51455V65.5208H4.63335V65.402H4.75216V65.2832H4.87096V65.1643H4.98976V65.0455H5.10857V64.9267H5.22737V64.8079H5.34618V64.6891H5.46498V64.5703H5.58378V64.4515H5.82139V64.3327H5.94019V64.2139H6.059V64.0951H6.1778V63.9763H6.29661V63.8575H6.41541V63.7387H6.53421V63.6199H6.65302V63.5011H6.77182V63.3823H6.89063V63.2635H7.00943V63.1447H7.12823V63.0259H7.24704V62.9071H7.48464V62.7883H7.60345V62.6695H7.72225V62.5507H7.84106V62.4319H7.95986V62.3131H8.07866V62.1943H8.19747V62.0754H8.31627V61.9566H8.43508V61.8378H8.55388V61.719H8.67268V61.6002H8.79149V61.4814H8.91029V61.3626H9.1479V61.2438H9.2667V61.125H9.38551V61.0062H9.50431V60.8874H9.62311V60.7686H9.74192V60.6498H9.86072V60.531H9.97953V60.4122H10.0983V60.2934H10.2171V60.1746H10.3359V60.0558H10.4547V59.937H10.5735V59.8182H10.8112V59.6994H10.93V59.5806H11.0488V59.4618H11.1676V59.343H11.2864V59.2242H11.4052V59.1053H11.524V58.9865H11.6428V58.8677H11.7616V58.7489H11.8804V58.6301H11.9992V58.5113H12.118V58.3925H12.3556V58.2737H12.4744V58.1549H12.5932V58.0361H12.712V57.9173H12.8308V57.7985H12.9496V57.6797H13.0684V57.5609H13.1872V57.4421H13.306V57.3233H13.4248V57.2045H13.5436V57.0857H13.6624V56.9669H13.7813V56.8481H14.0189V56.7293H14.1377V56.6105H14.2565V56.4917H14.3753V56.3729H14.4941V56.2541H14.6129V56.1353H14.7317V56.0164H14.8505V55.8976H14.9693V55.7788H15.0881V55.66H15.2069V55.5412H15.3257V55.4224H15.4445V55.3036H15.6821V55.1848H15.8009V55.066H15.9197V54.9472H16.0385V54.8284H16.1573V54.7096H16.2761V54.5908H16.3949V54.472H16.5137V54.3532H16.6325V54.2344H16.7513V54.1156H16.8702V53.9968H16.989V53.878H17.1078V53.7592H17.3454V53.6404H17.4642V53.5216H17.583V53.4028H17.7018V53.284H17.8206V53.1652H17.9394V53.0464H18.0582V52.9275H18.177V52.8087H18.2958V52.6899H18.4146V52.5711H18.5334V52.4523H18.6522V52.3335H18.771V52.2147H19.0086V52.0959H19.1274V51.9771H19.2462V51.8583H19.365V51.7395H19.4838V51.6207H19.6026V51.5019H19.7214V51.3831H19.8403V51.2643H19.9591V51.1455H20.0779V51.0267H20.1967V50.9079H20.3155V50.7891H20.4343V50.6703H20.6719V50.5515H20.7907V50.4327H20.9095V50.3139H21.0283V50.1951H32.4335V50.3139H59.7584V50.4327H73.0644V50.6703H72.9456V51.0267H72.8268V51.3831H72.708V51.6207H72.5892V51.7395H27.2061V51.8583H26.8497V51.9771H26.6121V52.0959H26.4933V52.2147H26.3745V52.4523H26.2557V60.8874H26.0181V69.7977H10.4547V69.9165H0ZM116.903 58.7489V51.6207H113.577V51.7395H96.5876V51.6207H96.4688V51.3831H96.35V51.0267H96.2311V50.7891H96.1123V50.5515H114.171V50.6703H124.269V50.7891H124.15V50.9079H124.031V51.0267H123.912V51.2643H123.794V51.3831H123.675V51.5019H123.556V51.6207H123.437V51.7395H123.318V51.8583H123.2V51.9771H123.081V52.0959H122.962V52.2147H122.843V52.3335H122.724V52.5711H122.606V52.6899H122.487V52.8087H122.368V52.9275H122.249V53.0464H122.13V53.1652H122.012V53.284H121.893V53.4028H121.774V53.5216H121.655V53.7592H121.536V53.878H121.418V53.9968H121.299V54.1156H121.18V54.2344H121.061V54.3532H120.942V54.472H120.824V54.5908H120.705V54.7096H120.586V54.8284H120.467V55.066H120.348V55.1848H120.23V55.3036H120.111V55.4224H119.992V55.5412H119.873V55.66H119.754V55.7788H119.636V55.8976H119.517V56.0164H119.398V56.1353H119.279V56.3729H119.16V56.4917H119.041V56.6105H118.923V56.7293H118.804V56.8481H118.685V56.9669H118.566V57.0857H118.447V57.2045H118.329V57.3233H118.21V57.5609H118.091V57.6797H117.972V57.7985H117.853V57.9173H117.735V58.0361H117.616V58.1549H117.497V58.2737H117.378V58.3925H117.259V58.5113H117.141V58.6301H117.022V58.7489" fill="url(#paint6_linear_663_4092)"/>
<path d="M96.6601 51.709H72.541C72.7007 51.297 72.8575 50.8917 73.0055 50.4912L96.1621 50.5925C96.2999 50.9015 96.4703 51.2825 96.6601 51.709Z" fill="url(#paint7_linear_663_4092)"/>
<path d="M60.0177 69.5312V60.841H26.2402V52.5757C26.2402 52.1051 26.7643 51.7092 27.4167 51.7092H72.5413H96.6604H113.554V62.4495L107.363 69.2769L60.0177 69.5312Z" fill="url(#paint8_linear_663_4092)"/>
<path d="M113.553 62.4487V51.5697H116.985V58.6623L113.553 62.4487Z" fill="url(#paint9_linear_663_4092)"/>
<path d="M25.9395 69.7148V60.8403H60.0162V69.5306L25.9395 69.7148Z" fill="url(#paint10_linear_663_4092)"/>
<path d="M125.562 51.6862C125.562 52.0198 125.341 52.2871 125.069 52.2871H18.6705C18.3985 52.2871 18.1758 52.0198 18.1758 51.6862V47.7772C18.1758 47.445 18.3985 47.1777 18.6705 47.1777H125.069C125.341 47.1777 125.562 47.445 125.562 47.7772V51.6862Z" fill="#7FA6DB"/>
<path d="M96.6184 46.2944H69.498V44.2098H96.6184V46.2944Z" fill="#7FA6DB"/>
<path d="M70.1127 37.547C69.1432 38.0687 64.6983 43.2464 65.7225 43.7996C68.7549 45.4429 72.2554 43.9137 75.8603 43.7202C78.339 43.587 79.8787 37.0589 77.68 37.781L70.1127 37.547Z" fill="#100F0D"/>
<path d="M75.9141 40.0385C75.8282 40.4269 75.5331 40.6882 75.9498 41.389C76.367 42.0902 78.1036 43.0118 78.6902 43.0703C79.2772 43.1284 78.8694 42.784 78.563 42.4466C78.2572 42.1092 76.9318 40.7726 77.24 40.8269C77.5463 40.8855 78.0483 41.4749 78.3254 41.7561C78.6048 42.0378 79.1608 42.7789 79.4934 43.0345C79.8295 43.2852 80.4448 43.2601 80.1962 42.7552C79.945 42.2526 79.022 41.5054 78.829 41.111C78.6331 40.7202 78.0794 40.0204 77.995 39.8496C77.911 39.6821 78.4665 40.1299 78.6902 40.44C78.9125 40.7476 79.1798 40.9435 79.3483 41.2799C79.5121 41.6159 80.4095 42.9005 80.772 43.0703C81.1359 43.2388 81.5034 43.2782 81.1999 42.519C80.895 41.7635 80.3469 41.1611 80.1516 40.7689C79.9586 40.3759 79.1951 39.3898 79.1951 39.3898C79.1951 39.3898 80.2096 40.1489 80.6268 41.0613C80.9391 41.7454 81.45 42.8847 81.8417 42.83C82.2334 42.7757 81.7991 41.7932 81.5768 41.2076C81.3549 40.6168 81.3183 40.2032 80.9916 39.8185C80.3706 39.0891 79.5372 37.9641 78.8363 38.1005C78.1371 38.2383 78.1147 38.1873 77.0492 38.785C76.3953 39.1498 75.9141 40.0385 75.9141 40.0385Z" fill="#DCA296"/>
<path d="M112.878 40.9216C112.878 41.499 112.389 41.9658 111.785 41.9658H86.2995C85.6971 41.9658 85.209 41.499 85.209 40.9216V21.9711C85.209 21.3937 85.6971 20.9255 86.2995 20.9255H111.785C112.389 20.9255 112.878 21.3937 112.878 21.9711V40.9216Z" fill="#AECCE5"/>
<path d="M97.6146 33.6448L95.5059 46.4575H103.336L100.625 33.6448H97.6146Z" fill="#7FA6DB"/>
<defs>
<linearGradient id="paint0_linear_663_4092" x1="84.2763" y1="21.319" x2="81.5645" y2="12.2286" gradientUnits="userSpaceOnUse">
<stop stop-color="#2A1513"/>
<stop offset="0.642857" stop-color="#231311"/>
<stop offset="1" stop-color="#231311"/>
</linearGradient>
<linearGradient id="paint1_linear_663_4092" x1="84.2785" y1="21.3188" x2="81.5669" y2="12.2287" gradientUnits="userSpaceOnUse">
<stop stop-color="white"/>
<stop offset="0.642857" stop-color="#C4BDB4"/>
<stop offset="1" stop-color="#C4BDB4"/>
</linearGradient>
<linearGradient id="paint2_linear_663_4092" x1="84.2787" y1="21.3184" x2="81.5669" y2="12.2281" gradientUnits="userSpaceOnUse">
<stop stop-color="#2A1513"/>
<stop offset="0.642857" stop-color="#231311"/>
<stop offset="1" stop-color="#231311"/>
</linearGradient>
<linearGradient id="paint3_linear_663_4092" x1="84.2775" y1="21.3185" x2="81.5657" y2="12.2281" gradientUnits="userSpaceOnUse">
<stop stop-color="#581C19"/>
<stop offset="0.642857" stop-color="#411816"/>
<stop offset="1" stop-color="#411816"/>
</linearGradient>
<linearGradient id="paint4_linear_663_4092" x1="84.2773" y1="21.3184" x2="81.5656" y2="12.2281" gradientUnits="userSpaceOnUse">
<stop stop-color="#DCA296"/>
<stop offset="0.642857" stop-color="#A8786B"/>
<stop offset="1" stop-color="#A8786B"/>
</linearGradient>
<linearGradient id="paint5_linear_663_4092" x1="84.2759" y1="21.3182" x2="81.5642" y2="12.2279" gradientUnits="userSpaceOnUse">
<stop stop-color="#E9C3B5"/>
<stop offset="0.642857" stop-color="#B0917F"/>
<stop offset="1" stop-color="#B0917F"/>
</linearGradient>
<linearGradient id="paint6_linear_663_4092" x1="62.0976" y1="93.2472" x2="62.0976" y2="53.4347" gradientUnits="userSpaceOnUse">
<stop stop-color="white"/>
<stop offset="0.697802" stop-color="white"/>
<stop offset="0.956044" stop-color="#C5C5C6"/>
<stop offset="1" stop-color="#C5C5C6"/>
</linearGradient>
<linearGradient id="paint7_linear_663_4092" x1="62.0986" y1="93.2478" x2="62.0986" y2="53.4353" gradientUnits="userSpaceOnUse">
<stop stop-color="#100F0D"/>
<stop offset="0.697802" stop-color="#100F0D"/>
<stop offset="0.956044" stop-color="#100F0D"/>
<stop offset="1" stop-color="#100F0D"/>
</linearGradient>
<linearGradient id="paint8_linear_663_4092" x1="62.0989" y1="93.2481" x2="62.0989" y2="53.4356" gradientUnits="userSpaceOnUse">
<stop stop-color="#7FA6DB"/>
<stop offset="0.697802" stop-color="#7FA6DB"/>
<stop offset="0.956044" stop-color="#5D7EAB"/>
<stop offset="1" stop-color="#5D7EAB"/>
</linearGradient>
<linearGradient id="paint9_linear_663_4092" x1="62.0975" y1="93.2473" x2="62.0975" y2="53.4348" gradientUnits="userSpaceOnUse">
<stop stop-color="#7FA6DB"/>
<stop offset="0.697802" stop-color="#7FA6DB"/>
<stop offset="0.956044" stop-color="#5D7EAB"/>
<stop offset="1" stop-color="#5D7EAB"/>
</linearGradient>
<linearGradient id="paint10_linear_663_4092" x1="62.0974" y1="93.2474" x2="62.0974" y2="53.4349" gradientUnits="userSpaceOnUse">
<stop stop-color="#7FA6DB"/>
<stop offset="0.697802" stop-color="#7FA6DB"/>
<stop offset="0.956044" stop-color="#5D7EAB"/>
<stop offset="1" stop-color="#5D7EAB"/>
</linearGradient>
</defs>
</svg>
