<svg width="123" height="106" viewBox="0 0 123 106" fill="none" xmlns="http://www.w3.org/2000/svg">
<g clip-path="url(#clip0_664_4074)">
<path d="M0 93.2231H123V93.152H0V93.2231Z" fill="#E7E8E5"/>
<path d="M102.527 97.7311H110.675V97.8022H102.527V97.7311Z" fill="#E7E8E5"/>
<path d="M79.3418 98.5737H81.4803V98.5026H79.3418V98.5737Z" fill="#E7E8E5"/>
<path d="M97.5605 95.0895H102.282V95.1606H97.5605V95.0895Z" fill="#E7E8E5"/>
<path d="M12.9043 95.5671H23.5298V95.6382H12.9043V95.5671Z" fill="#E7E8E5"/>
<path d="M25.7207 95.5671H27.2786V95.6382H25.7207V95.5671Z" fill="#E7E8E5"/>
<path d="M32.3418 96.7682H55.3861V96.8394H32.3418V96.7682Z" fill="#E7E8E5"/>
<path d="M10.8027 0.0712509C10.0622 0.0712509 9.45994 0.76767 9.45994 1.62367V78.8406C9.45994 79.6968 10.0622 80.3932 10.8027 80.3932H58.305C59.0452 80.3932 59.6474 79.6968 59.6474 78.8406V1.62367C59.6474 0.76767 59.0452 0.0712509 58.305 0.0712509H10.8027ZM58.305 80.4644H10.8027C10.0283 80.4644 9.39844 79.7361 9.39844 78.8406V1.62367C9.39844 0.728699 10.0283 0.000137329 10.8027 0.000137329H58.305C59.0789 0.000137329 59.7089 0.728699 59.7089 1.62367V78.8406C59.7089 79.7361 59.0789 80.4644 58.305 80.4644Z" fill="#E7E8E5"/>
<path d="M64.0113 0.0712509C63.2711 0.0712509 62.6689 0.76767 62.6689 1.62367V78.8406C62.6689 79.6968 63.2711 80.3932 64.0113 80.3932H111.513C112.254 80.3932 112.856 79.6968 112.856 78.8406V1.62367C112.856 0.76767 112.254 0.0712509 111.513 0.0712509H64.0113ZM111.513 80.4644H64.0113C63.2372 80.4644 62.6074 79.7361 62.6074 78.8406V1.62367C62.6074 0.728699 63.2372 0.000137329 64.0113 0.000137329H111.513C112.288 0.000137329 112.918 0.728699 112.918 1.62367V78.8406C112.918 79.7361 112.288 80.4644 111.513 80.4644Z" fill="#E7E8E5"/>
<path d="M81.4922 48.8071H101.797V13.6841H81.4922V48.8071Z" fill="#E2E2E0"/>
<path d="M80.877 48.8071H101.181V13.6841H80.877V48.8071Z" fill="#F3F2F1"/>
<path d="M83.4863 45.79H98.5718V16.7023H83.4863V45.79Z" fill="white"/>
<path d="M83.4863 45.79H83.829V16.7023H83.4863V45.79Z" fill="#E2E2E0"/>
<path d="M52.8467 93.1528L61.4569 93.1525L61.4559 61.0382L52.8457 61.0385L52.8467 93.1528Z" fill="#E2E2E0"/>
<path d="M54.4814 93.1528H52.8459L52.8457 88.5963H56.196L54.4814 93.1528Z" fill="#EDEDEB"/>
<path d="M98.8565 93.1514L107.467 93.151L107.466 61.037L98.8555 61.0372L98.8565 93.1514Z" fill="#E2E2E0"/>
<path d="M52.8467 92.4849L100.284 92.4838L100.283 61.0376L52.8457 61.0385L52.8467 92.4849Z" fill="#EDEDEB"/>
<path d="M54.1133 62.9519V70.1797L82.929 70.1791L82.9287 62.9516L54.1133 62.9519Z" fill="#E2E2E0"/>
<path d="M84.0273 62.9512L84.0276 70.1787L99.0139 70.1784L99.0137 62.9507L84.0273 62.9512Z" fill="#E2E2E0"/>
<path d="M90.0377 63.8252H93.0025C94.2903 63.8252 95.5215 63.4693 96.4074 62.8415L86.6328 62.8418C87.5187 63.4696 88.7499 63.8252 90.0377 63.8252Z" fill="#EDEDEB"/>
<path d="M59.9732 63.8257H76.7672C78.0552 63.8257 79.2862 63.4698 80.1721 62.842L56.5684 62.8422C57.4542 63.4701 58.6852 63.8257 59.9732 63.8257Z" fill="#EDEDEB"/>
<path d="M54.1152 72.2503L54.1155 79.478L82.9309 79.4775L82.9307 72.2497L54.1152 72.2503Z" fill="#E2E2E0"/>
<path d="M84.0273 72.2498L84.0276 79.4775L99.0139 79.477L99.0137 72.2492L84.0273 72.2498Z" fill="#E2E2E0"/>
<path d="M90.0377 73.1235L93.0025 73.1233C94.2906 73.1233 95.5215 72.7677 96.4074 72.1395L86.6328 72.1401C87.5187 72.7679 88.7499 73.1235 90.0377 73.1235Z" fill="#EDEDEB"/>
<path d="M59.9732 73.124H76.7674C78.0552 73.124 79.2862 72.7684 80.1721 72.1403L56.5684 72.1406C57.4542 72.7687 58.6854 73.1243 59.9732 73.124Z" fill="#EDEDEB"/>
<path d="M54.1152 81.5488L54.1155 88.7764L82.9309 88.776L82.9307 81.5482L54.1152 81.5488Z" fill="#E2E2E0"/>
<path d="M84.0273 81.5481V88.7759L99.0137 88.7753L99.0134 81.5475L84.0273 81.5481Z" fill="#E2E2E0"/>
<path d="M90.0394 82.4219H93.0044C94.2923 82.4219 95.5232 82.066 96.4091 81.4382L86.6348 81.4384C87.5204 82.0663 88.7516 82.4219 90.0394 82.4219Z" fill="#EDEDEB"/>
<path d="M59.9732 82.4224H76.7674C78.0552 82.4224 79.2865 82.0665 80.1721 81.4387L56.5684 81.4389C57.4542 82.0668 58.6854 82.4224 59.9732 82.4224Z" fill="#EDEDEB"/>
<path d="M98.6485 93.1519L100.284 93.1517L100.284 88.5951L96.9336 88.5954L98.6485 93.1519Z" fill="#EDEDEB"/>
<path d="M103.13 55.3212C103.13 55.3212 102.88 58.5839 93.3043 58.5845C83.7285 58.5848 83.4785 55.3218 83.4785 55.3218L103.13 55.3212Z" fill="#FAFAF9"/>
<path d="M103.13 57.7746C103.13 57.7746 102.88 61.0373 93.3043 61.0376C83.7285 61.0382 83.4785 57.7752 83.4785 57.7752L103.13 57.7746Z" fill="#E7E8E5"/>
<path d="M36.0625 93.1519H45.9059L42.9899 63.8707H36.0625V93.1519Z" fill="#E2E2E0"/>
<path d="M19.4453 93.1519H41.3404L43.6511 58.8803H21.7561L19.4453 93.1519Z" fill="#DADBD8"/>
<path d="M17.8711 93.1519H40.6548L42.9654 58.8803H20.1818L17.8711 93.1519Z" fill="#F3F2F1"/>
<path d="M38.5015 90.4512L40.4479 61.5813H22.3351L20.3887 90.4512H38.5015Z" fill="white"/>
<path d="M15.3066 52.9219H71.098V5.8988H15.3066V52.9219Z" fill="#E7E8E5"/>
<path d="M17.2168 50.4341H69.1885V8.38712H17.2168V50.4341Z" fill="#FAFAF9"/>
<path d="M28.4023 50.4341H22.9473L28.0837 8.38712H33.5388L28.4023 50.4341Z" fill="white"/>
<path d="M41.8789 50.4341H36.4238L41.5606 8.38712H47.0156L41.8789 50.4341Z" fill="white"/>
<path d="M59.253 50.4341H56.5254L61.6621 8.38712H64.3895L59.253 50.4341Z" fill="white"/>
<path d="M46.6769 50.4341H43.9492L49.0859 8.38712H51.8133L46.6769 50.4341Z" fill="white"/>
<path d="M34.6391 50.4341H32.0684V8.38712H34.6391V50.4341Z" fill="#E7E8E5"/>
<path d="M34.6406 50.4341H35.2136V8.38712H34.6406V50.4341Z" fill="#DADBD8"/>
<path d="M71.0996 52.9219H71.5109V5.8988H71.0996V52.9219Z" fill="#DADBD8"/>
<path d="M109.196 102.779C109.196 104.558 87.8416 106 61.4994 106C35.1573 106 13.8027 104.558 13.8027 102.779C13.8027 101 35.1573 99.5574 61.4994 99.5574C87.8416 99.5574 109.196 101 109.196 102.779Z" fill="#F3F2F1"/>
<path d="M72.959 94.5487L76.077 92.4664L77.9808 96.8744L75.3779 98.6191L72.959 94.5487Z" fill="#F9A8B3"/>
<path d="M77.1443 94.9365L76.7207 93.956L76.7224 93.9547L77.1455 94.9356L77.1443 94.9365Z" fill="#C3C5C2"/>
<path d="M74.3143 96.8296L73.7891 95.9452L76.7199 93.9556L77.1435 94.9361L74.3143 96.8296Z" fill="#D8898C"/>
<path d="M74.0805 80.3363C76.2895 74.4183 79.9281 67.5432 78.4371 61.1968L68.5095 59.3818C68.5095 59.3818 66.4567 73.5651 66.864 79.3827C67.2867 85.4316 73.4605 96.1685 73.4605 96.1685L77.0162 93.7546C77.0162 93.7546 75.4704 84.5768 74.0805 80.3363Z" fill="#406FBF"/>
<path d="M73.4607 96.1685C73.4607 96.1685 69.026 88.4565 67.4164 82.4221C67.3274 82.0887 67.2469 81.7598 67.1766 81.4384C67.0253 80.7485 66.9195 80.0899 66.8711 79.4775C66.8686 79.4458 66.8664 79.414 66.8642 79.3827C66.8273 78.857 66.8105 78.2632 66.8105 77.6178C66.8105 76.6927 66.845 75.6609 66.9043 74.5722L74.7094 73.2047C74.484 74.5363 74.4857 76.2566 74.8073 78.4647C74.5544 79.0977 74.3099 79.7221 74.0806 80.3363C75.4705 84.5768 77.0163 93.7546 77.0163 93.7546L76.7207 93.9555L73.7898 95.9451H73.7896L73.4607 96.1685Z" fill="#2251AA"/>
<path d="M77.3745 93.7074L73.3123 96.4805L72.0195 94.5371L76.8062 91.6064L77.3745 93.7074Z" fill="#406FBF"/>
<path d="M74.8069 78.4673C74.8066 78.4665 74.8066 78.4656 74.8066 78.4651C75.2802 77.2782 75.782 76.0618 76.2642 74.8251C76.2642 74.8257 76.2642 74.826 76.2642 74.8266C75.782 76.0635 75.2799 77.2805 74.8069 78.4673Z" fill="#ACAFAD"/>
<path d="M74.8065 78.4648C74.485 76.2567 74.4833 74.5365 74.7086 73.2048L76.0916 72.9627C76.1514 73.5937 76.2092 74.2173 76.2641 74.8249C75.7819 76.0616 75.2801 77.278 74.8065 78.4648Z" fill="#24427C"/>
<path d="M77.8798 95.8291C77.8188 95.7383 77.6899 95.7474 77.6412 95.8442C77.1293 96.8587 75.6545 97.8335 75.085 98.1831C74.9458 98.2682 74.8523 98.4098 74.8071 98.5712C74.5288 99.562 73.4277 101.04 73.4277 101.04C73.4277 101.04 73.4882 101.37 73.6285 101.7C73.7468 101.979 74.0555 102.064 74.2641 101.868L78.7955 97.6111C78.959 97.4572 78.9701 97.1729 78.8178 97.0046C78.5608 96.7197 78.1807 96.276 77.8798 95.8291Z" fill="#17282F"/>
<path d="M78.8145 96.5576L82.4149 96.5975L82.088 101.513L79.0794 101.485L78.8145 96.5576Z" fill="#F9A8B3"/>
<path d="M82.4031 100.757C82.4134 100.642 82.317 100.555 82.223 100.595C81.2422 101.011 79.5879 100.693 78.9655 100.549C78.8137 100.514 78.6607 100.556 78.531 100.648C77.7333 101.214 76.3222 101.56 76.3222 101.56C76.3222 101.56 76.178 101.839 76.0799 102.182C75.9911 102.492 76.1911 102.812 76.4732 102.812L82.0235 102.809C82.2228 102.809 82.3824 102.617 82.3738 102.388C82.3588 101.98 82.3497 101.34 82.4031 100.757Z" fill="#17282F"/>
<path d="M82.2339 99.3516H82.2324L82.305 98.2586H82.3067L82.2339 99.3516Z" fill="#C3C5C2"/>
<path d="M82.2322 99.3516L78.9636 99.3189L78.9062 98.2481L82.3047 98.2586L82.2322 99.3516Z" fill="#D8898C"/>
<path d="M84.6947 79.9984C85.8167 73.8156 87.8374 65.7788 86.4143 62.5886L74.791 60.5071C74.791 60.5071 76.2368 73.2967 76.6183 79.2549C77.0141 85.4497 78.5814 98.2473 78.5814 98.2473L82.4775 98.2593C82.4775 98.2593 85.1897 87.3722 84.6947 79.9984Z" fill="#406FBF"/>
<path d="M82.4772 98.2593L82.305 98.2587L78.9065 98.2482L78.5811 98.2473C78.5811 98.2473 78.5643 98.1099 78.5338 97.857C78.4969 97.5532 78.4406 97.0832 78.3695 96.4838C78.0136 93.4817 77.2925 87.2368 76.8657 82.4218C76.8362 82.0868 76.8079 81.7583 76.7813 81.4388C76.7157 80.6511 76.6601 79.9157 76.618 79.2549C76.5093 77.5597 76.3147 75.312 76.0918 72.963L76.9567 72.8114C77.722 72.6774 78.2258 71.8965 78.2258 70.9549C78.2258 70.77 78.2064 70.5791 78.1658 70.3854L76.6382 63.1098C78.5675 63.2876 80.5355 63.3425 82.2339 63.3425C84.2551 63.3425 85.8956 63.2645 86.6361 63.2222C86.8233 63.9106 86.9035 64.7487 86.9035 65.6943C86.904 69.5925 85.5424 75.3251 84.6944 79.9984C84.7357 80.6141 84.7547 81.2542 84.7549 81.9105C84.7552 85.6519 84.1407 89.9166 83.55 93.1523C83.5458 93.1759 83.5414 93.1997 83.5372 93.2234C82.9953 96.18 82.4772 98.2593 82.4772 98.2593Z" fill="#2251AA"/>
<path d="M82.9027 98.4287H78.2149L78.1426 96.1719L83.3046 96.2685L82.9027 98.4287Z" fill="#406FBF"/>
<path d="M77.8602 40.983L77.5635 41.2581L77.2878 41.5073C77.1045 41.6701 76.9185 41.8242 76.7333 41.9793C76.3638 42.2902 75.9827 42.579 75.6002 42.8671C74.829 43.4321 74.0379 43.9715 73.202 44.4497C72.37 44.9356 71.5006 45.3748 70.5712 45.7361C69.6453 46.1051 68.6519 46.3884 67.5575 46.5102L67.3565 46.5327C66.8281 46.5916 66.3243 46.4058 65.9336 46.0599C65.1199 45.3359 64.619 44.4503 64.2909 43.6406C64.1214 43.2327 63.9932 42.8256 63.8963 42.4291C63.7984 42.0322 63.715 41.6436 63.6606 41.2601C63.6075 40.8755 63.5688 40.4977 63.5425 40.1251C63.5189 39.7518 63.515 39.3823 63.5157 39.0173C63.5189 38.652 63.5396 38.289 63.5669 37.9286L63.623 37.3869L63.7049 36.8191C63.821 36.0132 64.4803 35.4687 65.1774 35.603C65.6229 35.6892 65.976 36.0317 66.1425 36.478L66.2443 36.7577C66.2827 36.8629 66.3272 37.0239 66.3708 37.1599L66.4994 37.5863C66.5831 37.8703 66.6756 38.1505 66.7659 38.4247C66.9491 38.9729 67.1415 39.4992 67.3548 39.9717C67.5577 40.4457 67.7959 40.865 68.016 41.1697C68.236 41.4866 68.462 41.6282 68.5646 41.6544L66.941 41.2044C67.526 41.0522 68.1698 40.7813 68.8256 40.4499C69.1528 40.2855 69.4832 40.0946 69.8126 39.8955C70.1444 39.7026 70.4765 39.4901 70.8069 39.2705C71.4662 38.8255 72.1292 38.3542 72.7801 37.8529C73.1077 37.6063 73.4288 37.3457 73.7513 37.0916L74.2283 36.7045L74.6691 36.3409L74.769 36.2587C75.9215 35.3091 77.5217 35.6195 78.3429 36.9525C79.1342 38.2367 78.9079 40.0061 77.8602 40.983Z" fill="#F9A8B3"/>
<path d="M66.1364 36.6952L64.8653 37.6539C63.3079 38.049 63.2149 35.6454 63.2149 35.6454L62.7667 34.5107C62.6146 34.1258 62.7615 33.6456 63.1135 33.3756L63.9977 32.6974C64.4006 32.3882 64.9241 32.4644 65.158 32.8661L65.684 33.7693C65.837 34.0322 65.9312 34.3346 65.9588 34.6498L66.1364 36.6952Z" fill="#F9A8B3"/>
<path d="M77.7757 35.0072C75.3403 34.8391 70.3352 38.4713 70.3352 38.4713C69.7585 40.5938 70.7632 44.6175 72.2299 45.6123C72.2299 45.6123 75.9565 43.7609 77.7102 41.961C79.8298 39.7856 82.7021 35.3466 77.7757 35.0072Z" fill="#17282F"/>
<path d="M78.0011 35.0117C80.9834 35.1836 84.8975 35.928 87.8728 36.9658C89.7299 37.6139 90.8873 39.22 90.0551 43.6753C88.3671 52.7124 88.5058 60.096 87.0628 63.1954C87.0628 63.1954 70.1658 64.4025 67.9062 59.8955C68.3641 48.7376 72.9893 40.2342 75.0518 36.7186C75.7113 35.5943 76.8277 34.9443 78.0011 35.0117Z" fill="#17282F"/>
<path d="M78.9589 36.2474C79.3953 35.8861 79.7567 36.2067 80.027 35.5939C80.1709 35.1436 80.1778 34.6466 80.0177 34.0705L84.8976 32.067C84.5525 33.9673 84.2831 35.4685 84.9151 36.3609C84.9374 37.8277 82.0081 39.1673 79.5321 38.6234C77.3528 38.1446 78.3311 36.7674 78.9589 36.2474Z" fill="#F9A8B3"/>
<path d="M80.1138 35.209H80.1133C80.131 35.0795 80.1384 34.9461 80.1344 34.8081C80.1347 34.8084 80.1344 34.8084 80.1347 34.8084C80.1386 34.9464 80.1315 35.0798 80.1138 35.209Z" fill="#C3C5C2"/>
<path d="M80.0842 35.3804C80.084 35.3804 80.084 35.3804 80.084 35.3804C80.096 35.324 80.1061 35.2669 80.114 35.2088H80.1145C80.1064 35.2669 80.0963 35.324 80.0842 35.3804Z" fill="#111D23"/>
<path d="M80.8306 35.5815C80.5411 35.5815 80.2847 35.5161 80.084 35.3804C80.096 35.3241 80.1061 35.2669 80.1142 35.2089C80.132 35.0797 80.1391 34.9463 80.1352 34.8083C80.4695 34.9861 80.8727 35.0834 81.3499 35.0834C81.7548 35.0834 82.2131 35.0134 82.7285 34.8635C82.0847 35.3318 81.3952 35.5815 80.8306 35.5815Z" fill="#D8898C"/>
<path d="M79.7037 28.8965C79.5089 26.7097 81.3521 23.942 82.8926 24.8961C84.433 25.8506 79.7037 28.8965 79.7037 28.8965Z" fill="#17282F"/>
<path d="M86.2005 30.1448C85.2242 32.6366 84.5147 34.3045 82.8793 34.8182C79.6299 35.8392 78.5605 33.7748 78.8747 30.9883C79.1571 28.4806 80.7064 24.827 83.1976 24.7866C85.652 24.7468 87.1769 27.6528 86.2005 30.1448Z" fill="#F9A8B3"/>
<path d="M85.6366 32.1416C84.5225 31.955 83.7075 29.6285 84.8733 28.4118C86.0389 27.1948 85.6366 26.0259 84.7907 25.6796C83.9447 25.3337 82.4076 25.5843 82.0568 24.7136C81.7061 23.8425 84.048 23.2104 85.4096 24.2123C86.7714 25.2145 86.6991 24.606 86.6991 24.606C86.6991 24.606 86.9832 25.1189 86.444 25.2265C87.5141 26.0498 88.7006 28.03 87.5968 28.8411C88.9894 29.7477 86.8332 31.8992 85.6366 32.1416Z" fill="#17282F"/>
<path d="M87.252 28.7038C87.9946 28.984 88.311 28.334 88.311 28.334C88.311 28.334 88.5449 29.3934 87.252 28.7038Z" fill="#17282F"/>
<path d="M81.7929 31.3434C81.8918 31.2942 81.9924 31.2325 82.0935 31.1554C82.1206 31.1346 82.1263 31.0925 82.1058 31.0615C82.0854 31.0308 82.0475 31.0222 82.0192 31.0433C81.2812 31.6074 80.5492 31.2862 80.542 31.2831C80.5098 31.2683 80.4744 31.2845 80.4628 31.3187C80.451 31.3531 80.4675 31.3929 80.4995 31.4071C80.5277 31.4199 81.1169 31.6791 81.7929 31.3434Z" fill="#17282F"/>
<path d="M83.8787 29.5537C83.4405 29.5537 83.1035 29.381 83.1035 29.381C83.1035 29.381 83.2029 29.3557 83.3412 29.3557C83.5075 29.3557 83.7298 29.3924 83.905 29.5534C83.8961 29.5537 83.8875 29.5537 83.8787 29.5537Z" fill="#D8898C"/>
<path d="M83.7497 29.9658C83.3509 29.8643 83.0801 29.6048 83.0801 29.6048C83.0801 29.6048 83.0803 29.6048 83.0808 29.6048C83.1012 29.6048 83.5342 29.6091 83.7497 29.9658Z" fill="#D8898C"/>
<path d="M86.0637 32.8426C85.5941 33.3385 84.9692 33.5345 84.4462 33.4938C83.6595 33.4324 83.7619 32.7163 84.1941 32.014C84.5833 31.3818 85.2214 30.4786 85.9082 30.886C86.5847 31.2877 86.6007 32.2757 86.0637 32.8426Z" fill="#F9A8B3"/>
<path d="M82.6476 29.3004C82.5792 29.508 82.4286 29.6338 82.3113 29.5806C82.1942 29.5277 82.1546 29.316 82.223 29.1081C82.2916 28.9004 82.4422 28.7749 82.5595 28.8278C82.6766 28.881 82.7162 29.0924 82.6476 29.3004Z" fill="#17282F"/>
<path d="M80.5677 28.3645C80.499 28.5725 80.3485 28.6982 80.2311 28.645C80.114 28.5918 80.0744 28.3805 80.1431 28.1725C80.2115 27.9645 80.362 27.8391 80.4794 27.8923C80.5964 27.9452 80.6361 28.1569 80.5677 28.3645Z" fill="#17282F"/>
<path d="M81.2172 28.704L80.6934 30.5241C80.6934 30.5241 80.1485 30.7428 79.6504 30.123C80.1714 29.1873 81.2172 28.704 81.2172 28.704Z" fill="#F46878"/>
<path d="M83.602 28.0902L83.6591 28.0947C83.7203 28.0814 83.7599 28.0128 83.7481 27.9417C83.6281 27.2288 83.1481 26.9918 83.1277 26.9821C83.0699 26.9545 83.0042 26.9867 82.9808 27.0535C82.9577 27.1204 82.9853 27.1966 83.0426 27.2245C83.0586 27.2322 83.4313 27.4216 83.527 27.9903C83.5351 28.0384 83.5648 28.0757 83.602 28.0902Z" fill="#17282F"/>
<path d="M79.7877 27.3926C79.8229 27.4034 79.862 27.3943 79.8913 27.3641C80.2623 26.9818 80.6569 27.0976 80.6733 27.1027C80.7336 27.1212 80.7951 27.0802 80.8109 27.0105C80.8266 26.9411 80.7912 26.8694 80.7314 26.8501C80.7095 26.8438 80.2052 26.6885 79.7408 27.1679C79.6943 27.2156 79.6903 27.2984 79.7319 27.3528L79.7877 27.3926Z" fill="#17282F"/>
<path d="M53.7369 43.8208L52.6683 47.1904C52.4742 47.8032 52.0427 48.2217 51.5092 48.315L37.3238 50.8002C36.4084 50.9603 35.867 52.0465 36.1147 53.2259L41.0815 76.8813C41.3292 78.0608 42.2719 78.8869 43.1875 78.7267L76.9569 72.8109C77.8722 72.6505 78.4137 71.5646 78.166 70.3849L72.1815 41.882C71.9338 40.7026 70.9909 39.8764 70.0755 40.0369L54.8958 42.6959C54.3625 42.7895 53.931 43.208 53.7369 43.8208Z" fill="#406FBF"/>
<path d="M42.9579 78.7471C42.1193 78.7467 41.3085 77.9628 41.0815 76.8817L39.8207 70.8775L37.8689 61.5816L36.1147 53.2264C36.0741 53.0329 36.0547 52.8421 36.0547 52.6571C36.0547 51.7155 36.5585 50.9346 37.3238 50.8006L47.3397 49.046V54.8545H64.7476V40.9707L70.0755 40.0373C70.152 40.024 70.2285 40.0174 70.305 40.0174C71.1436 40.0174 71.9544 40.8017 72.1815 41.8825L78.166 70.3854C78.2065 70.5791 78.226 70.77 78.226 70.9549C78.226 71.8965 77.7222 72.6774 76.9569 72.8114L76.0919 72.963L74.7089 73.2051L66.9038 74.5726L54.1145 76.8129L52.8459 77.0351L43.1875 78.7272C43.1109 78.7405 43.0342 78.7471 42.9579 78.7471Z" fill="#2D5BB2"/>
<path d="M46.4582 9.23473C46.7942 9.23473 47.1263 9.25549 47.4535 9.29503C49.6294 5.81783 53.1651 3.55395 57.1602 3.55395C62.2352 3.55395 66.5694 7.20582 68.3141 12.3595C72.1957 13.1247 75.1511 17.0309 75.1511 21.7379C75.1511 26.9939 71.4666 31.2549 66.9215 31.2549H46.4582C41.1999 31.2549 36.9375 26.3254 36.9375 20.2447C36.9375 14.1642 41.1999 9.23473 46.4582 9.23473Z" fill="#406FBF"/>
<path d="M47.3398 27.4048V54.854H64.7478V33.3798L59.581 27.4048H47.3398Z" fill="#406FBF"/>
<path d="M64.7478 54.854H47.3398V27.4048H59.581L64.7478 33.3798L59.581 27.4048V33.3798H64.7478V54.854Z" fill="#A4C3E9"/>
<path d="M64.7468 33.3799H59.5801V27.405L64.7468 33.3799Z" fill="#759ED9"/>
<path d="M46.7049 79.124L46.668 78.8409L47.9012 78.625L47.9381 78.908L46.7049 79.124Z" fill="#406FBF"/>
<path d="M49.3203 78.666L49.2832 78.383L53.5902 77.6285L53.6273 77.9116L49.3203 78.666Z" fill="#406FBF"/>
<path d="M59.9447 46.517L58.3388 49.6167C58.0468 50.1802 57.5575 50.5697 57.024 50.6633L42.8386 53.1482C41.9232 53.3086 41.2145 54.3106 41.2556 55.3862L42.0797 76.96C42.1208 78.0359 42.8962 78.7778 43.8115 78.6173L77.5812 72.7019C78.4966 72.5415 79.2053 71.5395 79.1642 70.4639L78.1711 44.4687C78.13 43.3931 77.3546 42.6512 76.4393 42.8113L61.2596 45.4706C60.7263 45.564 60.2367 45.9534 59.9447 46.517Z" fill="#406FBF"/>
<path d="M60.438 23.4238C60.3598 23.4238 60.2818 23.3894 60.222 23.3206C60.1027 23.1826 60.1027 22.959 60.222 22.821C62.5263 20.156 62.5263 15.82 60.222 13.155C59.1056 11.864 57.6215 11.1531 56.0427 11.1531C54.4641 11.1531 52.9798 11.864 51.8634 13.155C50.7471 14.4459 50.1323 16.1622 50.1323 17.988C50.1323 19.8135 50.7471 21.53 51.8634 22.821C51.9827 22.959 51.9827 23.1826 51.8634 23.3206C51.7443 23.4582 51.5507 23.4582 51.4317 23.3206C50.2 21.8962 49.5215 20.0024 49.5215 17.988C49.5215 15.9736 50.2 14.0798 51.4317 12.6554C52.6632 11.231 54.3008 10.4467 56.0427 10.4467C57.7846 10.4467 59.4222 11.231 60.654 12.6554C63.1964 15.5958 63.1964 20.3802 60.654 23.3206C60.5942 23.3894 60.5162 23.4238 60.438 23.4238Z" fill="white"/>
<path d="M58.6584 25.5385V17.6663C58.6584 16.9568 58.1613 16.3819 57.5478 16.3819H54.5377C53.9242 16.3819 53.427 16.9568 53.427 17.6663V25.5385H52.2949L56.0427 29.272L59.7908 25.5385H58.6584Z" fill="white"/>
<path d="M89.0024 45.0941L88.853 45.4847L88.7116 45.8415C88.6169 46.0765 88.516 46.3046 88.4166 46.5342C88.2186 46.9922 88.0021 47.4371 87.7844 47.882C87.3404 48.7662 86.8676 49.6376 86.3367 50.4805C86.071 50.9027 85.7992 51.322 85.5097 51.735C85.215 52.1441 84.9124 52.5495 84.5867 52.9466C83.9419 53.744 83.2123 54.5027 82.3498 55.1875L82.1803 55.322C82.0942 55.3906 81.997 55.4481 81.9038 55.4902C80.8809 55.9436 80.0295 56.0224 79.2123 56.0776C78.401 56.1206 77.6345 56.0563 76.8871 55.9698C76.1408 55.868 75.4136 55.7283 74.6987 55.5437C73.9787 55.3542 73.2931 55.146 72.571 54.8518C71.8973 54.5773 71.5435 53.7233 71.7809 52.9441C71.9548 52.3726 72.3988 52.0002 72.8891 51.951L72.942 51.9458L74.9366 51.7484C75.5995 51.6801 76.2539 51.6062 76.8891 51.5077C77.2062 51.4582 77.5181 51.411 77.8227 51.3501C78.1255 51.287 78.4199 51.2164 78.7009 51.1465C79.2509 51.0017 79.7739 50.7843 80.0216 50.5988L79.5756 50.9015C80.0221 50.4401 80.4662 49.8586 80.8994 49.2268C81.1154 48.911 81.324 48.5733 81.5289 48.2303C81.7382 47.89 81.9404 47.5344 82.1387 47.1743C82.5308 46.4483 82.9188 45.7021 83.2834 44.9354C83.4696 44.5545 83.6447 44.1656 83.8243 43.7816L84.3237 42.667L84.3837 42.533C85.0346 41.0799 86.581 40.5123 87.8376 41.265C89.0444 41.9882 89.5416 43.6752 89.0024 45.0941Z" fill="#F9A8B3"/>
<path d="M89.7859 40.0658C90.9689 44.9816 87.9653 49.8682 87.9653 49.8682C86.3724 50.3956 82.1791 48.5055 81.2891 46.6965C81.2891 46.6965 82.7508 42.0487 84.489 39.5777C86.0984 37.2899 89.0927 37.1852 89.7859 40.0658Z" fill="#17282F"/>
<path d="M73.3854 52.0628L73.6196 53.7967C73.2917 55.6012 71.3583 54.7122 71.3583 54.7122L70.2794 54.719C69.9136 54.7213 69.5953 54.3694 69.5269 53.8872L69.3552 52.6764C69.2767 52.1248 69.5517 51.6039 69.9648 51.5223L70.8927 51.3385C71.1628 51.285 71.44 51.3098 71.6998 51.4102L73.3854 52.0628Z" fill="#F9A8B3"/>
</g>
<defs>
<clipPath id="clip0_664_4074">
<rect width="123" height="106" fill="white"/>
</clipPath>
</defs>
</svg>
