<svg width="301" height="263" viewBox="0 0 301 263" fill="none" xmlns="http://www.w3.org/2000/svg">
<path d="M60.5003 82.389C60.5003 82.389 42.5342 29.0406 105.2 35.5517C167.867 42.0628 137.925 18.4499 161.606 3.79651C185.286 -10.8569 255.058 34.7311 225.867 78.7014C196.677 122.672 272.517 82.4493 288.337 148.572C298.099 189.377 273.878 219.411 253.896 236.436" stroke="#CCDDE2" stroke-width="1.5" stroke-miterlimit="10"/>
<path d="M260.031 184.445C255.316 157.075 238.618 132.581 211.491 123.815C204.551 121.585 197.455 119.878 190.262 118.707V118.744C189.887 121.016 188.998 123.172 187.665 125.048C184.838 128.93 180.941 132.119 176.429 133.781C171.823 135.489 166.118 135.71 161.844 133.024C159.271 131.409 156.774 128.565 156.323 125.497C155.808 122.04 157.566 118.767 160.039 116.483C139.078 116.654 119.359 120.11 103.558 124.046C104.105 126.345 104.864 128.587 105.824 130.746C107.167 133.755 109.065 136.483 111.418 138.785C114.353 135.871 116.924 132.609 119.072 129.071C121.127 129.745 122.938 131.01 124.282 132.708C125.625 134.406 126.441 136.462 126.628 138.621V138.732C127.457 146.573 119.924 152.466 113.594 156.09C106.282 160.304 98.1303 163.459 90.1226 166.082C86.8206 167.167 82.5294 168.092 79.0436 166.96C78.6679 166.84 78.3016 166.693 77.9474 166.521C74.4716 164.813 72.1455 161.232 70.3307 157.959C65.1605 148.664 61.7984 138.531 59.5191 128.13C43.7009 130.156 41.8895 119.42 40.9504 116.787L27.4183 154.703C26.7084 157.428 26.6315 160.281 27.1937 163.041C27.7558 165.8 28.9419 168.394 30.6604 170.623C32.3793 172.852 34.585 174.655 37.108 175.896C39.6309 177.137 42.4045 177.781 45.2149 177.779H101.235L126.682 243.2L133.894 261.767H175.089C171.747 261.767 169.918 260.95 168.592 259.617C167.221 258.243 166.45 256.381 166.446 254.438C166.446 250.418 169.738 247.122 175.089 247.122H175.466C175.062 247.122 174.674 247.085 174.27 247.049C174.52 247.021 174.769 246.98 175.015 246.925C174.75 246.918 174.486 246.898 174.223 246.864C176.636 246.579 178.873 245.452 180.541 243.681C182.21 241.91 183.204 239.608 183.35 237.177C183.357 237.051 183.357 236.924 183.35 236.798V236.604C183.292 234.112 182.342 231.723 180.672 229.875C179.003 228.026 176.725 226.842 174.256 226.538C174.537 226.515 174.805 226.491 175.075 226.491C174.831 226.431 174.561 226.394 174.307 226.357C174.708 226.32 175.112 226.294 175.5 226.294L205.639 226.454L211.183 226.478H217.764C218.068 226.478 218.375 226.478 218.666 226.515L228.442 226.565L234.972 226.602C237.701 226.625 240.311 227.73 242.229 229.676C244.147 231.622 245.219 234.25 245.209 236.986C245.205 238.533 244.848 240.058 244.163 241.444C246.965 241.085 249.563 239.786 251.536 237.76C256.238 232.946 258.263 225.741 259.664 219.336C262.14 207.927 261.993 195.905 260.031 184.445ZM183.885 185.216C178.207 193.975 168.538 193.188 168.538 193.188C168.538 193.188 167.736 193.972 165.864 190.636C163.993 187.299 158.662 185.018 158.662 185.018C158.238 188.368 157.359 193.46 148.636 186.861C139.913 180.262 142.543 170.641 143.289 165.56C144.034 160.478 147.005 158.793 147.005 158.793L150.514 156.937C150.514 156.937 140.364 154.321 139.876 154.224C139.388 154.127 130.348 146.54 139.522 144.537C148.696 142.534 162.997 150.499 165.761 152.074C168.525 153.648 184.677 167.342 184.677 167.342C184.677 167.342 189.593 176.47 183.885 185.216Z" fill="#353642"/>
<path d="M59.6035 128.079C59.6035 128.079 67.2828 127.152 70.1579 121.698L67.6518 135.686C67.6518 135.686 98.2012 125.339 103.804 124.004C103.804 124.004 105.609 135.582 112.795 138.689L120.209 129.311C120.209 129.311 129.505 131.647 126.962 144.25C124.419 156.852 89.2471 167.386 83.2822 167.142C77.3172 166.898 70.896 163.247 64.3205 143.626L59.6035 128.079Z" fill="#353642"/>
<path d="M71.7773 97.1114C73.6886 100.275 75.6099 103.432 77.5938 106.549C78.8164 108.47 81.0441 111.208 78.6747 113.215C77.9036 113.817 76.9723 114.167 76.0021 114.221C74.4796 114.358 72.8813 113.986 71.9552 112.656L67.3416 104.88C66.4218 103.329 64.9619 102.188 63.2522 101.682C61.5422 101.177 59.7079 101.345 58.1143 102.152" stroke="black" stroke-width="1.5" stroke-miterlimit="10"/>
<path d="M89.5704 107.1C90.7674 109.949 89.9563 111.786 88.5565 112.709C86.2672 114.212 83.2028 113.491 81.5806 111.298L72.2695 97.1114" stroke="black" stroke-width="1.5" stroke-miterlimit="10"/>
<path d="M80.1248 92.9273C83.5939 97.1408 87.9704 104.966 90.3913 108.233C92.8123 111.5 96.5559 109.53 96.5559 109.53C99.5964 107.895 99.0807 105.183 97.7513 101.889C94.4765 93.8035 89.802 88.4263 84.5884 84.9017C68.4319 73.9868 51.8568 82.0392 46.9244 100.879L27.4194 154.882C26.7082 157.603 26.6312 160.451 27.1944 163.206C27.7576 165.961 28.946 168.551 30.6678 170.775C32.3899 173 34.5999 174.801 37.1277 176.04C39.6555 177.278 42.4344 177.921 45.2502 177.919H101.378L134.109 261.767" stroke="black" stroke-width="1.5" stroke-miterlimit="10"/>
<path d="M100.091 97.8564C104.071 96.4965 103.889 90.2395 98.2401 88.1277C92.0007 85.7936 80.9218 82.4918 78.1388 81.668C78.1216 81.655 78.1007 81.6471 78.0791 81.6451C77.8834 81.5863 77.7474 81.5373 77.6413 81.5144L77.4854 81.4653" stroke="black" stroke-width="1.5" stroke-miterlimit="10"/>
<path d="M159.07 162.17C155.553 158.006 145.927 155.647 139.644 154.505C138.587 154.309 137.625 153.781 136.899 153C136.175 152.218 135.727 151.226 135.624 150.172C135.551 149.462 135.635 148.743 135.869 148.067C136.243 147.029 136.961 146.144 137.907 145.556C138.852 144.967 139.971 144.708 141.084 144.82C151.802 145.889 162.855 149.212 171.031 156.369C171.031 156.369 210.664 186.166 215.397 189.066C217.349 190.234 219.171 188.855 217.848 187.02L217.433 186.321C215.103 182.382 212.346 178.705 209.21 175.352" stroke="black" stroke-width="1.5" stroke-miterlimit="10"/>
<path d="M160.186 116.675C110.504 117.088 67.7998 135.854 67.7998 135.854L72.0629 112.012" stroke="black" stroke-width="1.5" stroke-miterlimit="10"/>
<path d="M237.208 247.026C237.208 247.026 231.894 245.805 230.481 250.123C229.068 254.441 227.592 261.31 237.753 261.716C247.913 262.122 241.946 260.096 241.359 256.759C240.772 253.423 237.208 247.026 237.208 247.026Z" fill="#353642"/>
<path d="M154.226 167.826C154.226 167.826 148.634 162.899 143.6 167.893C143.388 168.11 143.203 168.36 143.05 168.636" stroke="black" stroke-width="1.5" stroke-miterlimit="10"/>
<g opacity="0.77">
<path opacity="0.77" d="M81.4414 111.564C83.1136 113.808 86.244 114.541 88.5751 113.002C89.9898 112.066 90.8192 110.2 89.6252 107.317C89.8426 107.635 90.04 107.916 90.2339 108.173C92.6486 111.454 96.3911 109.477 96.3911 109.477C99.4278 107.842 98.9161 105.13 97.5884 101.832C96.289 98.5658 94.5844 95.4758 92.5148 92.6347C93.8693 91.3672 95.478 90.0863 97.1737 90.6481C99.0031 91.2568 99.5148 93.5511 99.7221 95.4641C99.8191 96.3538 99.9161 97.2333 100.013 98.123L101.478 111.22C101.966 115.568 102.455 119.979 103.515 124.223C104.063 126.518 104.822 128.757 105.782 130.912C107.126 133.916 109.026 136.64 111.381 138.939C114.318 136.029 116.89 132.772 119.04 129.24C121.096 129.913 122.909 131.175 124.253 132.871C125.598 134.566 126.414 136.619 126.601 138.775V138.885C127.431 146.714 119.892 152.597 113.558 156.216C106.24 160.423 98.0833 163.574 90.0701 166.192C86.7657 167.276 82.4715 168.199 78.9832 167.069C78.6073 166.949 78.2408 166.802 77.8862 166.631C74.408 164.925 72.0803 161.35 70.2643 158.082C61.5687 142.447 57.9567 124.494 56.0537 106.715C59.8597 106.19 63.6523 105.604 67.3981 104.798C67.3981 104.798 67.3981 104.825 67.4215 104.835L71.7392 111.996L72.0937 112.591C73.0301 113.929 74.6522 114.287 76.2006 114.153C77.1849 114.104 78.1307 113.754 78.9096 113.15C81.311 111.143 79.0568 108.421 77.8127 106.504" fill="white"/>
<path opacity="0.77" d="M81.4414 111.564C83.1136 113.808 86.244 114.541 88.5751 113.002C89.9898 112.066 90.8192 110.2 89.6252 107.317C89.8426 107.635 90.04 107.916 90.2339 108.173C92.6486 111.454 96.3911 109.477 96.3911 109.477C99.4278 107.842 98.9161 105.13 97.5884 101.832C96.289 98.5658 94.5844 95.4758 92.5148 92.6347C93.8693 91.3672 95.478 90.0863 97.1737 90.6481C99.0031 91.2568 99.5148 93.5511 99.7221 95.4641C99.8191 96.3538 99.9161 97.2333 100.013 98.123L101.478 111.22C101.966 115.568 102.455 119.979 103.515 124.223C104.063 126.518 104.822 128.757 105.782 130.912C107.126 133.916 109.026 136.64 111.381 138.939C114.318 136.029 116.89 132.772 119.04 129.24C121.096 129.913 122.909 131.175 124.253 132.871C125.598 134.566 126.414 136.619 126.601 138.775V138.885C127.431 146.714 119.892 152.597 113.558 156.216C106.24 160.423 98.0833 163.574 90.0701 166.192C86.7657 167.276 82.4715 168.199 78.9832 167.069C78.6073 166.949 78.2408 166.802 77.8862 166.631C74.408 164.925 72.0803 161.35 70.2643 158.082C61.5687 142.447 57.9567 124.494 56.0537 106.715C59.8597 106.19 63.6523 105.604 67.3981 104.798C67.3981 104.798 67.3981 104.825 67.4215 104.835L71.7392 111.996L72.0937 112.591C73.0301 113.929 74.6522 114.287 76.2006 114.153C77.1849 114.104 78.1307 113.754 78.9096 113.15C81.311 111.143 79.0568 108.421 77.8127 106.504" fill="#367CFF"/>
<path opacity="0.77" d="M82.4675 112.625C83.9491 114.631 86.4808 114.377 88.5745 113.002C89.8387 112.166 90.8754 112.41 89.8086 109.832C90.0059 110.113 90.0326 109.163 90.2066 109.374C92.3637 112.303 90.2333 108.163 90.2333 108.163C93.2433 111.966 99.7951 108.384 98.5944 105.444C97.3235 102.277 95.9858 97.5946 94.2901 95.2535C95.6279 93.9893 95.3704 94.1766 97.0727 95.1833C97.5302 95.4772 97.9128 95.8732 98.1911 96.3404C98.469 96.8076 98.6346 97.3331 98.6747 97.8755C98.8118 99.1498 98.9489 100.37 99.0861 101.615L100.39 113.32C100.829 117.21 101.263 121.139 102.21 124.925C102.699 126.973 103.378 128.97 104.236 130.892C105.434 133.537 109.28 137.942 111.38 139.959C113.992 137.367 117.123 132.601 119.039 129.434C122.718 130.564 122.557 134.082 122.818 137.925V138.026C123.561 145.012 116.832 150.26 111.193 153.494C104.658 157.249 97.377 160.059 90.2233 162.4C87.2735 163.37 83.4407 164.206 80.3271 163.182C79.9913 163.076 79.6639 162.946 79.3471 162.791C76.2435 161.266 74.1633 158.079 72.5412 155.159C65.4409 142.407 62.1467 127.929 60.334 113.414C60.2012 112.328 60.4948 111.233 61.1537 110.359C61.8126 109.485 62.7851 108.902 63.8657 108.732C65.9025 108.397 67.9326 108.063 69.9493 107.615L70.0061 107.641L73.8589 114.033C74.6984 115.22 74.8355 114.29 76.2167 114.17C77.0896 114.093 78.7819 113.922 79.4575 113.357C81.6013 111.571 80.3906 110.832 79.2803 109.123" fill="#367CFF"/>
</g>
<path d="M153.48 174.232C153.48 174.232 142.47 170.417 142.305 176.832" stroke="black" stroke-width="1.5" stroke-miterlimit="10"/>
<path opacity="0.54" d="M54.0995 236.589L32.2562 180.726C31.9855 179.645 31.9654 178.517 32.1972 177.427C32.4289 176.337 32.9062 175.314 33.5934 174.436C34.2802 173.557 35.1589 172.847 36.162 172.359C37.1655 171.87 38.2669 171.616 39.383 171.616H126.146C128.094 171.616 129.986 172.271 131.516 173.474C133.046 174.678 134.126 176.361 134.581 178.252L158.494 234.102C158.752 235.179 158.762 236.301 158.524 237.383C158.286 238.465 157.805 239.479 157.118 240.349C156.431 241.219 155.555 241.922 154.557 242.406C153.558 242.889 152.463 243.141 151.353 243.141H62.5142C60.5808 243.142 58.7023 242.498 57.1777 241.311C55.6527 240.124 54.5694 238.462 54.0995 236.589Z" fill="white"/>
<path d="M157.416 183.715C157.416 183.715 159.229 185.392 158.539 187.788C158.028 189.563 156.279 190.684 154.547 190.076C149.03 188.151 144.062 184.882 142.851 179.326C142.279 176.513 142.155 173.625 142.484 170.772C142.75 168.128 143.137 165.273 144.018 162.758C145.364 158.895 149.484 156.203 153.484 158.063" stroke="black" stroke-width="1.5" stroke-miterlimit="10"/>
<path d="M54.0995 236.589L32.2562 180.726C31.9855 179.645 31.9654 178.517 32.1972 177.427C32.4289 176.337 32.9062 175.314 33.5934 174.436C34.2802 173.557 35.1589 172.847 36.162 172.359C37.1655 171.87 38.2669 171.616 39.383 171.616H126.146C128.094 171.616 129.986 172.271 131.516 173.474C133.046 174.678 134.126 176.361 134.581 178.252L158.494 234.102C158.752 235.179 158.762 236.301 158.524 237.383C158.286 238.465 157.805 239.479 157.118 240.349C156.431 241.219 155.555 241.922 154.557 242.406C153.558 242.889 152.463 243.141 151.353 243.141H62.5142C60.5808 243.142 58.7023 242.498 57.1777 241.311C55.6527 240.124 54.5694 238.462 54.0995 236.589Z" fill="#367CFF"/>
<path d="M54.0995 236.589L32.2562 180.726C31.9855 179.645 31.9654 178.517 32.1972 177.427C32.4289 176.337 32.9062 175.314 33.5934 174.436C34.2802 173.557 35.1589 172.847 36.162 172.359C37.1655 171.87 38.2669 171.616 39.383 171.616H126.146C128.094 171.616 129.986 172.271 131.516 173.474C133.046 174.678 134.126 176.361 134.581 178.252L158.494 234.102C158.752 235.179 158.762 236.301 158.524 237.383C158.286 238.465 157.805 239.479 157.118 240.349C156.431 241.219 155.555 241.922 154.557 242.406C153.558 242.889 152.463 243.141 151.353 243.141H62.5142C60.5808 243.142 58.7023 242.498 57.1777 241.311C55.6527 240.124 54.5694 238.462 54.0995 236.589Z" stroke="black" stroke-width="1.5" stroke-linecap="square" stroke-linejoin="round"/>
<path d="M57.4985 234.173L37.4531 182.946C37.2056 181.955 37.1872 180.921 37.4001 179.922C37.6132 178.923 38.0516 177.985 38.6821 177.181C39.3125 176.376 40.1188 175.725 41.0395 175.277C41.9599 174.829 42.9707 174.597 43.9948 174.597H123.609C125.397 174.596 127.133 175.196 128.537 176.299C129.941 177.402 130.931 178.944 131.349 180.677L153.296 231.875C153.533 232.863 153.542 233.891 153.323 234.883C153.104 235.875 152.663 236.805 152.032 237.602C151.401 238.399 150.597 239.044 149.681 239.487C148.764 239.93 147.759 240.161 146.741 240.161H65.2178C63.4465 240.163 61.7251 239.574 60.3267 238.49C58.9286 237.405 57.9332 235.886 57.4985 234.173Z" fill="#367CFF"/>
<path d="M228.73 226.005L243.631 261.767" stroke="black" stroke-width="1.5" stroke-miterlimit="10"/>
<path d="M301 261.767H0" stroke="black" stroke-width="1.5" stroke-miterlimit="10"/>
<path d="M158.696 101.582C156.244 104.527 152.584 104.523 150.5 101.799" stroke="black" stroke-width="1.5" stroke-miterlimit="10"/>
<path d="M92.3857 92.5289C93.723 91.2611 95.3113 89.98 96.9853 90.5419C98.7915 91.1507 99.2967 93.4454 99.5014 95.3588C100.08 100.617 100.658 105.87 101.235 111.117C101.968 117.807 102.741 124.658 105.485 130.806C106.812 133.811 108.687 136.535 111.012 138.834" stroke="black" stroke-width="1.5" stroke-miterlimit="10"/>
<path d="M126.659 138.74V138.63C126.472 136.487 125.655 134.445 124.31 132.759C122.965 131.074 121.151 129.818 119.094 129.149C116.943 132.661 114.37 135.9 111.431 138.793C103.727 146.408 93.8293 151.451 83.1112 153.223C83.6265 155.262 84.6871 157.117 85.4199 159.08C86.1526 161.042 86.5174 163.313 85.6273 165.205C84.5031 167.62 81.2776 167.304 79.0358 166.768C79.0124 166.768 78.999 166.768 78.9756 166.768" stroke="black" stroke-width="1.5" stroke-miterlimit="10"/>
<path d="M67.2508 104.562C63.4959 105.375 59.6941 105.965 55.8789 106.495C57.7865 124.425 61.3939 142.531 70.124 158.3C71.9444 161.595 74.2778 165.201 77.7645 166.921C78.1202 167.095 78.4876 167.242 78.8641 167.363C82.3608 168.52 86.6655 167.572 89.9779 166.479C98.024 163.835 106.188 160.661 113.523 156.418C119.856 152.765 127.413 146.835 126.598 138.939C126.519 138.069 126.343 137.212 126.072 136.382" stroke="black" stroke-width="1.5" stroke-miterlimit="10"/>
<path d="M130.384 69.4071C130.942 71.7589 132.217 73.8741 134.029 75.455C135.84 77.0362 138.097 78.0027 140.482 78.2188C140.68 77.2486 141.11 76.3419 141.733 75.5773C144.395 72.4082 145.53 78.3532 154.044 74.0852C165.843 68.1569 170.321 71.5579 170.321 71.5579C170.714 71.8537 170.654 74.5825 170.721 75.0799C171.053 77.913 171.353 80.7326 171.682 83.5623C171.882 85.2897 172.078 87.0037 172.265 88.7176C172.425 88.4263 172.603 88.1443 172.797 87.8741C173.872 84.0328 175.792 79.4959 179.931 81.4485C180.769 81.8615 181.499 82.4681 182.06 83.2195C184.805 86.8625 182.726 90.3812 179.854 92.9857C179.135 93.794 178.33 94.5206 177.455 95.1534C177.928 96.1414 179.858 100.063 179.858 100.077C180.057 100.473 186.802 92.7639 187.304 91.9237C188.055 89.8657 188.458 87.6947 188.495 85.5015C188.605 76.4847 184.972 65.9892 177.741 60.8171C175.948 59.5367 176.52 58.3033 176.41 56.5625C176.403 56.4684 176.367 56.379 176.308 56.3057C176.249 56.2325 176.17 56.179 176.08 56.1525C175.99 56.1259 175.894 56.1276 175.806 56.1568C175.717 56.1864 175.639 56.2422 175.582 56.3171C173.316 58.9519 167.706 58.6898 167.706 58.6898C148.235 53.763 141.69 62.5076 137.76 64.0669C136.157 64.6806 134.392 64.7102 132.769 64.1509C132.674 64.6937 132.433 65.1995 132.074 65.6142C131.715 66.0289 131.25 66.3364 130.73 66.5034L130.83 67.4142C130.914 68.1108 130.757 68.8152 130.384 69.4071Z" fill="#367CFF"/>
<path d="M140.229 78.2191C137.826 78.0037 135.552 77.042 133.727 75.4691C131.901 73.8962 130.617 71.7913 130.054 69.4517C129.834 68.5542 129.695 67.6387 129.639 66.7165L129.793 66.6998C130.004 66.6841 130.211 66.6389 130.41 66.566C130.934 66.3995 131.402 66.0936 131.764 65.6809C132.126 65.2687 132.368 64.7651 132.465 64.2254C132.526 63.9261 132.538 63.6188 132.502 63.3159L133.113 63.9953L138.67 64.027C142.034 61.9729 149.213 53.7884 168.841 58.677C168.841 58.677 173.273 58.9378 175.546 56.3163C175.603 56.2414 175.681 56.1859 175.771 56.1568C175.86 56.1274 175.957 56.1261 176.047 56.1525C176.137 56.1789 176.218 56.2321 176.277 56.3046C176.337 56.3775 176.373 56.4668 176.38 56.5604C176.498 58.2958 176.216 59.5117 177.72 61.1639C182.977 66.9363 188.275 72.3374 188.161 81.3087C188.127 85.0303 189.32 88.7051 187.406 91.8583C186.9 92.6942 180.105 100.365 179.904 99.9702C179.904 99.9702 177.959 96.0547 177.483 95.0716L177.369 94.8543L177.587 94.7105C178.396 94.1624 179.169 93.5626 179.9 92.9149C182.79 90.3235 184.888 86.8226 182.123 83.1979C181.557 82.4503 180.822 81.8464 179.977 81.4358C175.794 79.493 173.873 84.0071 172.79 87.829C172.58 88.5593 172.45 89.3106 172.404 90.0693C172.354 89.6012 172.304 89.1498 172.254 88.6817C172.066 86.9764 171.868 85.2711 171.667 83.5524C171.332 80.7369 171.016 77.9315 170.698 75.1127C170.648 74.6312 170.698 71.9027 170.296 71.6084C170.296 71.6084 165.78 68.2245 153.896 74.1229C145.318 78.3695 144.174 72.4511 141.493 75.6076C140.864 76.3683 140.432 77.2704 140.232 78.2358C140.171 78.5457 140.131 78.8597 140.115 79.1754C140.108 79.2162 140.108 79.258 140.115 79.2991C140.074 79.9913 140.061 80.6801 140.044 81.3555C139.981 87.8725 140.698 94.6804 143.263 100.733C146.38 108.069 154.63 115.305 163.209 111.884C165.891 110.811 168.294 109.082 170.494 107.246" stroke="black" stroke-width="1.5" stroke-miterlimit="10"/>
<path d="M145.844 94.0633C146.607 93.7891 146.975 92.7633 146.666 91.7722C146.357 90.7809 145.489 90.1996 144.726 90.4738C143.963 90.7477 143.595 91.7735 143.904 92.7649C144.213 93.7562 145.081 94.3375 145.844 94.0633Z" fill="black"/>
<path d="M159.021 93.3182C159.975 93.0443 160.435 92.0186 160.049 91.0272C159.663 90.0358 158.577 89.4545 157.624 89.7288C156.67 90.003 156.211 91.0288 156.597 92.0198C156.982 93.0112 158.068 93.5925 159.021 93.3182Z" fill="black"/>
<path d="M154.225 96.0185C154.225 96.0185 149.805 98.5393 149.536 95.9239C149.452 95.1175 148.371 87.2185 148.371 87.2185C148.371 87.2185 144.798 83.4146 139.324 86.2264" stroke="black" stroke-width="1.5" stroke-miterlimit="10"/>
<path d="M152.735 85.4146C152.735 85.4146 159.909 82.5456 164.656 86.6807" stroke="black" stroke-width="1.5" stroke-miterlimit="10"/>
<path d="M159.435 112.757L160.209 116.751C157.769 119.013 156.044 122.255 156.548 125.669C156.995 128.695 159.458 131.513 161.984 133.099C166.205 135.749 171.819 135.54 176.362 133.854C180.804 132.199 184.647 129.056 187.432 125.222C188.744 123.368 189.618 121.238 189.987 118.993V118.953" stroke="black" stroke-width="1.5" stroke-miterlimit="10"/>
<path d="M160.186 116.483L161.676 123.933" stroke="black" stroke-width="1.5" stroke-miterlimit="10"/>
<path d="M181.631 97.8564L183.944 113.258C184.172 114.766 184.932 116.142 186.086 117.135C187.24 118.128 188.711 118.674 190.232 118.672C197.431 119.842 204.533 121.549 211.478 123.78C238.612 132.555 255.312 157.064 260.029 184.449C261.991 195.916 262.138 207.943 259.675 219.346C258.274 225.765 256.248 232.975 251.545 237.781C245.438 244.049 236.065 241.468 228.848 238.636C206.441 229.898 187.805 214.351 171.713 196.553C163.108 187.034 151.99 179.405 151.99 179.405" stroke="black" stroke-width="1.5" stroke-miterlimit="10"/>
<path d="M64.7378 222.822C62.2102 222.799 60.0087 220.752 59.4406 217.902C58.318 212.298 58.0222 203.631 66.2133 201.74C76.448 199.379 84.3197 210.561 88.1783 217.629C89.4757 219.99 88.0069 223.025 85.5902 223.025L64.7378 222.822Z" fill="#D7E8F0"/>
<path d="M68.3605 197.131C70.5635 195.693 70.5973 191.943 68.4358 188.756C66.2747 185.569 62.737 184.151 60.534 185.589C58.3309 187.028 58.2972 190.778 60.4586 193.964C62.6198 197.152 66.1575 198.569 68.3605 197.131Z" fill="#D7E8F0"/>
<path d="M235.708 246.783C235.551 246.806 235.373 246.83 235.219 246.866H235.159L211.317 246.743L175.542 246.559C175.404 246.559 175.27 246.559 175.136 246.559C174.871 246.553 174.606 246.533 174.342 246.499C176.766 246.219 179.013 245.097 180.687 243.331C182.361 241.565 183.356 239.267 183.496 236.843C183.503 236.717 183.503 236.591 183.496 236.466V236.272C183.486 233.9 182.656 231.604 181.144 229.77C179.632 227.936 177.532 226.675 175.197 226.202C174.952 226.142 174.684 226.105 174.426 226.068C174.831 226.032 175.233 226.005 175.626 226.005L205.85 226.165L211.414 226.188L218.919 226.225C221.489 226.459 223.878 227.637 225.621 229.531C227.363 231.425 228.333 233.898 228.341 236.466C228.341 236.95 228.304 237.434 228.23 237.913C227.873 240.358 226.646 242.594 224.772 244.214C222.899 245.835 220.503 246.732 218.02 246.743H236.181C235.135 246.743 235.427 246.743 235.708 246.783Z" fill="white"/>
<path d="M187.651 259.579C188.347 260.276 189.176 260.828 190.089 261.203C191.001 261.579 191.98 261.77 192.968 261.767H175.009C171.581 261.767 169.709 260.936 168.344 259.579C166.942 258.179 166.152 256.285 166.146 254.31C166.146 250.22 169.52 246.866 175.009 246.866H192.968C191.485 246.864 190.035 247.299 188.802 248.117C187.569 248.935 186.607 250.098 186.039 251.46C185.471 252.821 185.323 254.32 185.613 255.765C185.903 257.211 186.618 258.538 187.667 259.579H187.651Z" fill="#D7E8F0"/>
<path d="M245.121 236.909C245.117 238.411 244.757 239.891 244.067 241.236C243.576 242.253 242.9 243.176 242.073 243.963C240.711 245.271 238.999 246.187 237.129 246.606C236.358 246.779 235.57 246.866 234.779 246.866C234.94 246.831 235.115 246.808 235.269 246.785C234.987 246.759 234.695 246.749 235.746 246.749H217.555C220.042 246.74 222.444 245.866 224.322 244.286C226.2 242.706 227.429 240.525 227.786 238.141C227.861 237.674 227.898 237.203 227.897 236.73C227.89 234.227 226.918 231.817 225.172 229.971C223.426 228.125 221.032 226.977 218.458 226.75L228.277 226.799L234.836 226.835C237.577 226.857 240.198 227.929 242.125 229.817C244.052 231.705 245.13 234.254 245.121 236.909Z" fill="#367CFF"/>
<path d="M245.121 236.642C245.101 239.368 244.003 241.974 242.068 243.891C240.133 245.807 237.518 246.877 234.796 246.866L175.534 246.559C175.138 246.559 174.741 246.529 174.342 246.489C176.84 246.206 179.147 245.015 180.827 243.141C182.507 241.268 183.442 238.842 183.455 236.325C183.468 233.807 182.558 231.372 180.898 229.481C179.238 227.59 176.943 226.375 174.448 226.065C174.845 226.023 175.243 226.003 175.641 226.005L234.903 226.312C237.624 226.331 240.227 227.428 242.142 229.364C244.058 231.3 245.129 233.917 245.121 236.642Z" stroke="black" stroke-width="1.5" stroke-linecap="square" stroke-linejoin="round"/>
<path d="M227.985 236.805C227.98 239.472 226.896 242.028 224.972 243.914C223.047 245.799 220.438 246.861 217.716 246.866H175.535C175.136 246.864 174.738 246.842 174.342 246.801C176.839 246.51 179.141 245.333 180.811 243.491C182.481 241.649 183.404 239.27 183.404 236.807C183.404 234.343 182.481 231.965 180.811 230.122C179.141 228.28 176.839 227.103 174.342 226.812C174.738 226.776 175.138 226.75 175.535 226.75H217.716C220.436 226.756 223.044 227.817 224.968 229.701C226.893 231.585 227.977 234.139 227.985 236.805Z" stroke="black" stroke-width="1.5" stroke-linecap="square" stroke-linejoin="round"/>
<path d="M166.146 254.317C166.146 255.294 166.337 256.261 166.707 257.164C167.077 258.067 167.62 258.887 168.303 259.577C169.652 260.94 171.482 261.767 174.856 261.767H236.181C235.126 261.767 235.413 261.747 235.699 261.72C233.905 261.506 232.25 260.635 231.05 259.27C229.849 257.905 229.186 256.143 229.186 254.317C229.186 252.491 229.849 250.729 231.05 249.364C232.25 247.999 233.905 247.128 235.699 246.914C235.413 246.887 235.126 246.866 236.181 246.866H174.856C169.456 246.87 166.146 250.222 166.146 254.317Z" stroke="black" stroke-width="1.5" stroke-linecap="square" stroke-linejoin="round"/>
<path d="M185.518 254.317C185.522 256.291 186.29 258.184 187.654 259.58C189.017 260.977 190.865 261.763 192.794 261.767H234.591C234.87 261.767 235.153 261.747 235.436 261.72C233.665 261.506 232.032 260.635 230.847 259.27C229.662 257.905 229.007 256.143 229.007 254.317C229.007 252.491 229.662 250.729 230.847 249.364C232.032 247.999 233.665 247.128 235.436 246.914C235.153 246.887 234.87 246.866 234.591 246.866H192.794C190.866 246.872 189.018 247.658 187.655 249.054C186.291 250.451 185.523 252.343 185.518 254.317Z" stroke="black" stroke-width="1.5" stroke-linecap="square" stroke-linejoin="round"/>
<path d="M116.973 198.438H98.1139C97.2513 198.437 96.4075 198.191 95.6857 197.733C94.9636 197.274 94.3947 196.621 94.0479 195.853C93.9141 195.568 93.857 195.254 93.8815 194.941C93.9064 194.628 94.0122 194.326 94.189 194.064C94.3661 193.801 94.6087 193.587 94.8943 193.439C95.18 193.293 95.4992 193.218 95.8221 193.223H115.87C114.926 194.767 115.407 196.911 116.973 198.438Z" fill="#D7E8F0"/>
<path d="M129.638 196.557C129.637 197.056 129.427 197.534 129.054 197.886C128.681 198.239 128.174 198.437 127.646 198.438H117.11C115.502 196.916 115.008 194.774 115.978 193.223H125.282C126.167 193.223 127.033 193.466 127.775 193.922C128.517 194.378 129.104 195.027 129.462 195.791C129.574 196.033 129.634 196.294 129.638 196.557Z" fill="#367CFF"/>
<path d="M124.688 198.888C124.634 198.99 124.571 199.088 124.5 199.179C123.135 201.013 120.168 201.191 117.864 199.535C117.591 199.337 117.334 199.121 117.092 198.888C115.501 197.323 115.013 195.12 115.973 193.525C116.027 193.423 116.089 193.325 116.16 193.233C117.526 191.386 120.479 191.222 122.783 192.864C123.06 193.068 123.322 193.293 123.565 193.535C125.142 195.093 125.634 197.282 124.688 198.888Z" fill="white"/>
<path d="M134.109 208.481C134.105 208.98 133.896 209.458 133.527 209.81C133.157 210.161 132.658 210.359 132.137 210.359H112.118C113.083 208.801 112.6 206.676 111.013 205.144H129.819C130.692 205.144 131.546 205.388 132.278 205.845C133.008 206.303 133.585 206.955 133.936 207.722C134.048 207.961 134.107 208.219 134.109 208.481Z" fill="#367CFF"/>
<path d="M112.749 210.359H103.365C102.497 210.36 101.646 210.117 100.918 209.66C100.19 209.203 99.6157 208.552 99.2645 207.786C99.1538 207.546 99.0949 207.287 99.0918 207.025C99.0911 206.777 99.1416 206.533 99.2394 206.304C99.3373 206.076 99.4809 205.869 99.6621 205.694C99.8432 205.519 100.059 205.38 100.295 205.286C100.532 205.192 100.786 205.143 101.042 205.144H111.648C113.23 206.669 113.721 208.798 112.749 210.359Z" fill="#D7E8F0"/>
<path d="M112.744 210.058C112.7 210.163 112.641 210.262 112.57 210.353C111.205 212.193 108.249 212.361 105.948 210.717C105.669 210.514 105.407 210.29 105.163 210.048C103.582 208.485 103.098 206.303 104.043 204.694C104.098 204.591 104.16 204.492 104.231 204.399C105.596 202.569 108.563 202.391 110.863 204.048C111.137 204.243 111.395 204.459 111.635 204.694C113.229 206.277 113.724 208.459 112.744 210.058Z" fill="white"/>
<path d="M119.207 222.28H107.136C106.259 222.279 105.4 222.035 104.664 221.579C103.928 221.122 103.347 220.472 102.991 219.706C102.855 219.42 102.797 219.105 102.822 218.791C102.848 218.478 102.956 218.175 103.136 217.912C103.317 217.648 103.564 217.433 103.855 217.285C104.146 217.136 104.472 217.061 104.802 217.064H118.085C117.133 218.629 117.622 220.755 119.207 222.28Z" fill="#367CFF"/>
<path d="M137.834 220.415C137.832 220.911 137.633 221.386 137.282 221.735C136.93 222.085 136.455 222.28 135.96 222.28H119.245C117.739 220.757 117.274 218.632 118.178 217.064H133.729C134.564 217.064 135.382 217.309 136.081 217.766C136.781 218.224 137.332 218.876 137.668 219.643C137.776 219.886 137.832 220.149 137.834 220.415Z" fill="#D7E8F0"/>
<path d="M126.207 221.977C126.157 222.08 126.099 222.179 126.034 222.272C124.773 224.114 122.047 224.282 119.919 222.637C119.664 222.433 119.423 222.209 119.198 221.967C117.738 220.403 117.288 218.219 118.164 216.608C118.212 216.505 118.269 216.406 118.334 216.313C119.595 214.481 122.334 214.324 124.461 215.962C124.714 216.157 124.952 216.373 125.173 216.608C126.642 218.192 127.09 220.39 126.207 221.977Z" fill="white"/>
<path d="M89.6414 142.268C94.1038 140.947 96.4488 135.503 94.8788 130.109C93.3088 124.715 88.4185 121.413 83.9557 122.734C79.4933 124.056 77.1483 129.499 78.7183 134.894C80.2882 140.288 85.1789 143.59 89.6414 142.268Z" fill="#D7E8F0"/>
</svg>
