<svg width="314" height="311" viewBox="0 0 314 311" fill="none" xmlns="http://www.w3.org/2000/svg">
<path d="M14.1666 174.513C13.924 171.429 13.7369 168.341 13.5879 165.26" stroke="black" stroke-width="4.05" stroke-miterlimit="10"/>
<path d="M189.558 285.445H101.534" stroke="#CCDDE2" stroke-width="1.5" stroke-miterlimit="10"/>
<path d="M215.255 64.9354C215.255 64.9354 241.196 52.6859 263.203 76.5855C270.393 84.3961 275.3 94.7605 275.647 105.454C275.804 110.672 274.963 115.872 273.169 120.774C271.343 125.778 268.065 129.09 265.546 133.547C261.682 140.418 269.759 141.635 274.094 144.965C276.975 147.197 279.708 149.613 282.276 152.2C288.062 157.979 293.153 164.413 297.446 171.373C305.948 185.236 311.066 200.906 312.388 217.114C313.695 233.096 312.693 250.449 304.498 264.646C300.555 271.483 294.615 278.188 287.311 281.376C277.608 285.607 266.71 285.448 256.342 285.448H234.279" stroke="#CCDDE2" stroke-width="1.5" stroke-miterlimit="10"/>
<path d="M107.122 224.63C106.252 230.819 104.956 237.919 103.525 245.026L101.837 245.508C96.4366 247.025 90.701 246.857 85.3985 245.026L87.6093 237.514L74.1504 198.357C74.1504 198.357 84.4386 195.03 92.8868 192.56L93.8571 192.518C98.4728 193.492 107.985 197.147 108.283 210.839C108.304 211.497 108.283 212.19 108.283 212.945C109.624 217.364 109.09 221.258 107.122 224.63Z" fill="#367CFF"/>
<path d="M75.4437 75.5773C75.3109 75.2394 75.051 74.9674 74.7201 74.8191C74.3892 74.6705 74.0132 74.658 73.6729 74.7838C73.482 74.8413 73.306 74.9394 73.1566 75.0714C72.623 75.5045 72.5017 76.2634 72.4844 76.9842C72.4358 78.6302 72.3423 80.2796 72.221 81.9187C72.221 82.0295 72.2037 82.1543 72.2037 82.2652C72.1274 83.5854 72.1829 85.1864 71.6215 86.3368C71.5855 86.4245 71.5238 86.4993 71.4448 86.5517C71.2577 86.6383 71.0601 86.4512 70.9389 86.2814C70.5923 85.7755 70.2458 85.2799 69.8993 84.7636C69.6255 84.3512 69.3171 83.9042 68.8389 83.7725C68.1286 83.575 67.4529 84.2022 67.0613 84.8398C65.7965 86.919 65.6752 90.3253 67.633 92.0683C69.5909 93.8113 65.2074 97.2384 62.0679 98.6799C61.5422 98.9755 60.9913 99.2236 60.4219 99.4215C60.3942 99.4215 61.5551 99.6814 61.5273 99.6918C59.0843 100.542 56.5395 101.065 53.9593 101.248C50.896 101.452 47.909 101.067 45.7363 99.7368C45.8299 99.3903 46.5714 96.9646 46.6165 96.6181C46.7759 95.4088 46.8902 94.2098 46.963 92.9935C47.0947 90.7099 47.0843 88.4229 46.9977 86.1462C46.6823 77.9544 48.1412 71.0725 51.5232 70.0226C51.7901 69.9425 52.0461 69.8295 52.2856 69.6864C53.8103 68.8444 54.6246 67.0667 53.9246 65.3896C53.8761 65.2752 53.8207 65.1643 53.7722 65.043C53.7174 64.9235 53.6547 64.8078 53.585 64.6965C60.1898 62.6451 64.6737 64.0693 69.2063 66.5504C70.0687 67.2396 70.8793 67.9913 71.6319 68.7993C73.4058 70.7253 74.7104 73.0356 75.4437 75.5496V75.5773Z" fill="#367CFF"/>
<path d="M234.209 154.338H211.685V100.502C211.685 100.502 207.527 147.279 196.133 173.781H126.375C134.598 168.556 141.192 160.662 145.583 152.165C147.315 148.804 150.087 143.814 154.696 145.124C155.791 145.432 157.403 145.63 158.217 144.629C158.498 144.244 158.657 143.784 158.674 143.308C159.069 138.402 153.982 134.271 149.789 132.968C145.597 131.665 140.697 132.275 137.36 135.321C134.955 137.521 133.448 140.443 131.687 143.149C130.631 144.753 129.378 146.218 127.959 147.512C129.767 136.527 131.379 126.027 131.611 122.164C136.022 118.681 139.262 113.001 140.413 107.977C141.677 102.488 142.793 97.1204 144.758 91.9815L160.84 92.0369C161.445 92.0369 162.027 91.7964 162.455 91.3681C162.883 90.9398 163.124 90.3591 163.124 89.7533V63.0434C163.124 62.4432 162.888 61.8673 162.465 61.4411C162.042 61.0152 161.468 60.7741 160.868 60.7702L149.918 60.6767C153.897 59.845 157.932 59.3062 161.991 59.0654C162.074 59.0654 162.15 59.0654 162.223 59.0654C164.894 58.8886 169.576 58.8124 172.272 58.7847C169.06 60.5173 167.074 64.1973 167.421 67.4477C167.482 68.1401 167.658 68.8172 167.944 69.4506C170.688 75.4801 177.917 77.2612 183.884 75.5078C190.523 73.5708 195.402 67.465 195.111 60.441C199.269 61.0509 203.386 61.8247 207.461 62.7627C213.653 64.1869 219.693 66.1067 224.59 70.2927C228.859 73.9277 232.477 78.6092 234.15 83.9006C241.337 106.525 239.126 131.773 234.209 154.338Z" fill="#2E2E2E"/>
<path d="M131.792 122.163C131.286 130.431 129.983 138.693 128.569 146.933" stroke="black" stroke-width="1.5" stroke-miterlimit="10"/>
<path d="M144.939 91.9815C142.971 97.1204 141.858 102.488 140.593 107.977C139.433 112.984 136.2 118.681 131.792 122.164C128.091 125.085 123.558 126.46 118.707 124.617C112.199 122.136 109.916 114.963 109.119 108.639C108.083 100.764 108.02 92.792 108.932 84.902C109.85 86.9431 113.603 93.1527 125.243 91.5206C125.555 91.7542 125.931 91.8883 126.32 91.9052L144.939 91.9815Z" fill="#2E2E2E"/>
<path d="M138.404 74.2152C141.114 73.5221 142.763 76.128 142.361 78.1101C141.706 81.3431 137.056 82.6149 134.287 82.6738C132.07 82.7188 126.664 82.1332 124.46 81.8768" stroke="black" stroke-width="1.5" stroke-miterlimit="10"/>
<path d="M123.547 75.8161C126.9 76.7849 130.45 76.8435 133.832 75.9859C136.677 75.2547 140.038 73.9067 141.528 71.2004C142.398 69.6272 141.705 67.1184 139.889 66.5639C137.793 65.9298 135.852 68.0159 133.953 68.5426C132.728 68.8763 131.478 69.1081 130.214 69.2356C129.868 69.2737 129.542 69.3015 129.206 69.3292C127.438 69.4709 125.66 69.4581 123.894 69.2911C123.706 69.2911 123.523 69.2318 123.371 69.122C123.218 69.0118 123.104 68.8565 123.045 68.6781C122.986 68.4999 122.985 68.3073 123.041 68.1281C123.098 67.949 123.209 67.792 123.36 67.6797L123.679 67.4476" stroke="black" stroke-width="1.5" stroke-miterlimit="10"/>
<path d="M144.938 91.9814C142.97 97.1203 141.858 102.488 140.593 107.977C138.458 117.191 129.355 128.671 118.707 124.61C112.199 122.129 109.915 114.956 109.118 108.632C107.871 98.8391 107.975 88.7796 109.812 79.07C111.336 71.0723 114.043 62.6726 121.825 58.7396L125.478 56.9134C126.349 56.4733 127.357 56.3915 128.288 56.6854C129.218 56.9796 129.997 57.6262 130.457 58.4866C130.738 59.0216 130.886 59.6156 130.89 60.2192C130.894 60.3076 130.887 60.3959 130.87 60.4826" stroke="black" stroke-width="1.5" stroke-miterlimit="10"/>
<path d="M219.122 167.149C221.004 167.091 222.887 167.138 224.763 167.291C226.295 167.416 227.882 167.489 229.341 168.06C230.543 168.539 231.798 169.679 231.735 171.072C231.621 173.802 228.045 173.781 226.084 173.781" stroke="black" stroke-width="1.5" stroke-miterlimit="10"/>
<path opacity="0.54" d="M185.467 164.546L201.774 122.766C201.976 121.956 201.99 121.111 201.816 120.295C201.642 119.479 201.284 118.713 200.77 118.056C200.255 117.399 199.597 116.869 198.847 116.504C198.096 116.14 197.272 115.951 196.438 115.954H131.68C130.228 115.957 128.82 116.448 127.681 117.348C126.543 118.248 125.739 119.505 125.401 120.916L107.527 162.686C107.333 163.492 107.325 164.332 107.502 165.142C107.68 165.952 108.039 166.712 108.552 167.363C109.065 168.014 109.72 168.541 110.466 168.903C111.212 169.265 112.031 169.453 112.86 169.453H179.184C180.628 169.452 182.031 168.969 183.169 168.08C184.308 167.191 185.116 165.947 185.467 164.546Z" fill="white"/>
<path d="M185.467 164.546L201.774 122.766C201.976 121.956 201.99 121.111 201.816 120.295C201.642 119.479 201.284 118.713 200.77 118.056C200.255 117.399 199.597 116.869 198.847 116.504C198.096 116.14 197.272 115.951 196.438 115.954H131.68C130.228 115.957 128.82 116.448 127.681 117.348C126.543 118.248 125.739 119.505 125.401 120.916L107.527 162.686C107.333 163.492 107.325 164.332 107.502 165.142C107.68 165.952 108.039 166.712 108.552 167.363C109.065 168.014 109.72 168.541 110.466 168.903C111.212 169.265 112.031 169.453 112.86 169.453H179.184C180.628 169.452 182.031 168.969 183.169 168.08C184.308 167.191 185.116 165.947 185.467 164.546Z" fill="#367CFF"/>
<path d="M185.467 164.546L201.774 122.766C201.976 121.956 201.99 121.111 201.816 120.295C201.642 119.479 201.284 118.713 200.77 118.056C200.255 117.399 199.597 116.869 198.847 116.504C198.096 116.14 197.272 115.951 196.438 115.954H131.68C130.228 115.957 128.82 116.448 127.681 117.348C126.543 118.248 125.739 119.505 125.401 120.916L107.527 162.686C107.333 163.492 107.325 164.332 107.502 165.142C107.68 165.952 108.039 166.712 108.552 167.363C109.065 168.014 109.72 168.541 110.466 168.903C111.212 169.265 112.031 169.453 112.86 169.453H179.184C180.628 169.452 182.031 168.969 183.169 168.08C184.308 167.191 185.116 165.947 185.467 164.546Z" stroke="black" stroke-width="1.5" stroke-linecap="square" stroke-linejoin="round"/>
<path d="M183.08 162.856L198.126 124.312C198.312 123.566 198.326 122.787 198.167 122.035C198.007 121.283 197.678 120.577 197.205 119.971C196.731 119.365 196.126 118.875 195.435 118.538C194.744 118.201 193.984 118.026 193.216 118.026H133.458C132.116 118.026 130.814 118.477 129.76 119.307C128.706 120.138 127.963 121.299 127.65 122.604L111.194 161.14C111.016 161.884 111.01 162.658 111.174 163.404C111.339 164.151 111.67 164.85 112.144 165.451C112.617 166.051 113.22 166.536 113.908 166.87C114.596 167.203 115.35 167.377 116.114 167.378H177.286C178.618 167.379 179.912 166.934 180.962 166.115C182.012 165.295 182.757 164.148 183.08 162.856Z" fill="#367CFF"/>
<path d="M137.768 125.13C138.561 123.941 139.847 123.397 140.665 123.948C141.482 124.499 141.482 125.885 140.692 127.067C140.567 127.249 140.429 127.42 140.276 127.58L146.146 139.975C147.082 139.351 148.111 139.195 148.853 139.687C149.091 139.861 149.287 140.084 149.43 140.341C149.573 140.599 149.657 140.884 149.678 141.177L153.69 139.826L157.197 138.644L158.341 138.27C158.485 137.839 158.686 137.429 158.937 137.05C160.049 135.377 161.868 134.625 163.001 135.387C164.134 136.149 164.148 138.073 163.067 139.732L169.755 148.863C171.214 147.668 172.929 147.297 174.118 148.087C175.736 149.165 175.76 151.975 174.173 154.359C174.107 154.456 174.035 154.532 173.969 154.622L178.418 160.707L178.46 160.766C178.687 161.11 178.769 161.529 178.687 161.933C178.605 162.336 178.366 162.691 178.023 162.918C177.68 163.146 177.26 163.228 176.857 163.145C176.453 163.064 176.099 162.825 175.871 162.482L171.921 156.518C170.67 157.242 169.339 157.381 168.365 156.733C166.82 155.693 166.744 153.101 168.123 150.79L161.723 141.129C160.777 141.77 159.734 141.933 158.985 141.437C158.569 141.142 158.286 140.695 158.195 140.193L157.717 140.325L154.151 141.299L149.584 142.532C149.442 143.079 149.207 143.599 148.891 144.067C147.779 145.738 145.959 146.493 144.826 145.731C143.693 144.968 143.676 143.01 144.788 141.337C144.951 141.091 145.134 140.859 145.336 140.644L139.746 128.016C139.074 128.477 138.329 128.595 137.795 128.238C136.991 127.705 136.978 126.305 137.768 125.13Z" fill="#D7E8F0"/>
<path d="M180.29 125.795H188.953C189.349 125.794 189.737 125.679 190.068 125.462C190.4 125.246 190.661 124.938 190.821 124.575C190.868 124.466 190.894 124.348 190.897 124.229C190.896 123.992 190.802 123.766 190.634 123.599C190.467 123.432 190.24 123.338 190.003 123.338H180.796C181.229 124.062 181.011 125.078 180.29 125.795Z" fill="#D7E8F0"/>
<path d="M174.69 124.908C174.691 125.143 174.786 125.369 174.953 125.535C175.119 125.701 175.345 125.795 175.581 125.795H180.29C181.011 125.078 181.229 124.062 180.796 123.331H176.638C176.242 123.331 175.855 123.446 175.523 123.662C175.192 123.878 174.93 124.185 174.77 124.548C174.719 124.661 174.692 124.784 174.69 124.908Z" fill="#367CFF"/>
<path d="M176.856 125.795C176.882 125.843 176.911 125.888 176.943 125.93C177.56 126.776 178.901 126.855 179.941 126.097C180.064 126.005 180.18 125.905 180.287 125.795C181.008 125.078 181.226 124.062 180.793 123.331C180.77 123.283 180.742 123.238 180.71 123.196C180.096 122.347 178.755 122.274 177.716 123.026C177.593 123.119 177.477 123.221 177.369 123.331C176.649 124.052 176.43 125.06 176.856 125.795Z" fill="white"/>
<path d="M172.529 130.345C172.531 130.581 172.626 130.806 172.794 130.972C172.961 131.139 173.188 131.232 173.424 131.232H182.513C182.073 130.497 182.291 129.499 183.012 128.768H174.463C174.066 128.769 173.679 128.884 173.346 129.101C173.014 129.317 172.752 129.625 172.592 129.988C172.548 130.102 172.527 130.223 172.529 130.345Z" fill="#367CFF"/>
<path d="M182.499 131.232H186.775C187.17 131.232 187.557 131.118 187.889 130.902C188.22 130.687 188.482 130.38 188.643 130.019C188.692 129.91 188.719 129.792 188.723 129.673C188.723 129.556 188.7 129.439 188.656 129.331C188.611 129.223 188.546 129.125 188.463 129.042C188.38 128.959 188.282 128.894 188.174 128.849C188.065 128.804 187.949 128.782 187.832 128.782H182.998C182.278 129.489 182.059 130.497 182.499 131.232Z" fill="#D7E8F0"/>
<path d="M182.499 131.232C182.519 131.28 182.544 131.325 182.575 131.367C183.188 132.216 184.529 132.293 185.569 131.537C185.691 131.444 185.808 131.342 185.915 131.232C186.629 130.511 186.847 129.5 186.421 128.768C186.396 128.722 186.368 128.677 186.338 128.633C185.718 127.788 184.377 127.712 183.337 128.47C183.214 128.56 183.098 128.66 182.991 128.768C182.277 129.489 182.059 130.498 182.499 131.232Z" fill="white"/>
<path d="M179.459 136.631H184.899C185.295 136.63 185.683 136.515 186.015 136.299C186.347 136.084 186.609 135.776 186.771 135.414C186.818 135.305 186.844 135.187 186.847 135.068C186.847 134.831 186.753 134.603 186.585 134.435C186.417 134.266 186.19 134.171 185.953 134.17H179.975C180.405 134.902 180.183 135.91 179.459 136.631Z" fill="#367CFF"/>
<path d="M170.649 135.747C170.65 135.864 170.673 135.979 170.718 136.087C170.763 136.194 170.829 136.292 170.912 136.374C170.995 136.456 171.093 136.521 171.2 136.565C171.308 136.609 171.424 136.632 171.54 136.631H179.458C180.172 135.91 180.394 134.898 179.964 134.164H172.597C172.2 134.163 171.812 134.279 171.48 134.496C171.148 134.714 170.887 135.023 170.729 135.387C170.678 135.5 170.651 135.623 170.649 135.747Z" fill="#D7E8F0"/>
<path d="M176.035 136.631C176.06 136.678 176.089 136.723 176.121 136.766C176.735 137.615 178.072 137.688 179.115 136.932C179.238 136.841 179.354 136.74 179.462 136.631C180.176 135.91 180.397 134.898 179.968 134.164C179.945 134.116 179.917 134.07 179.884 134.028C179.264 133.186 177.927 133.114 176.884 133.866C176.761 133.957 176.645 134.056 176.537 134.164C175.823 134.884 175.601 135.9 176.035 136.631Z" fill="white"/>
<path d="M144.291 162.093H149.735C150.13 162.093 150.517 161.977 150.849 161.762C151.18 161.546 151.442 161.238 151.603 160.877C151.65 160.768 151.676 160.65 151.679 160.531C151.679 160.294 151.585 160.066 151.417 159.898C151.249 159.731 151.022 159.637 150.785 159.637H144.807C145.227 160.364 145.005 161.373 144.291 162.093Z" fill="#367CFF"/>
<path d="M122.689 161.21C122.69 161.326 122.713 161.441 122.758 161.549C122.803 161.656 122.869 161.754 122.952 161.836C123.034 161.918 123.132 161.983 123.24 162.027C123.348 162.071 123.464 162.094 123.58 162.093H144.292C145.005 161.372 145.227 160.361 144.798 159.629H124.637C124.24 159.629 123.853 159.744 123.521 159.961C123.189 160.178 122.928 160.486 122.769 160.849C122.72 160.963 122.693 161.085 122.689 161.21Z" fill="#D7E8F0"/>
<path d="M140.857 162.093C140.882 162.14 140.911 162.186 140.944 162.228C141.557 163.077 142.895 163.15 143.938 162.398C144.06 162.304 144.176 162.203 144.284 162.093C144.998 161.372 145.22 160.36 144.79 159.629C144.767 159.581 144.739 159.536 144.707 159.494C144.087 158.649 142.749 158.576 141.706 159.328C141.583 159.419 141.467 159.52 141.36 159.629C140.649 160.347 140.424 161.362 140.857 162.093Z" fill="white"/>
<path d="M7.30012 175.438C7.30012 175.438 -4.1351 227.094 25.2812 237.885C54.6974 248.675 134.158 238.54 101.135 201.268C68.1113 163.996 7.30012 175.438 7.30012 175.438Z" fill="#2E2E2E"/>
<path d="M150.031 60.6765C154.029 59.8425 158.083 59.3019 162.16 59.0583C162.246 59.0583 162.319 59.0583 162.395 59.0583C165.074 58.8816 169.766 58.8053 172.444 58.7776" stroke="black" stroke-width="1.5" stroke-miterlimit="10"/>
<path d="M130.217 69.2255C130.188 69.2431 130.171 69.2643 130.143 69.2819" stroke="black" stroke-width="1.5" stroke-miterlimit="10"/>
<path d="M175.805 47.509C173.76 48.5832 171.411 47.8555 170.51 46.0258" stroke="black" stroke-width="1.5" stroke-miterlimit="10"/>
<path d="M163.934 21.3984C163.842 22.9883 164.249 24.567 165.1 25.9129C165.951 27.2591 167.202 28.305 168.678 28.9041C168.99 28.3313 169.437 27.8437 169.98 27.4834C172.278 25.9968 171.869 29.9679 178.106 28.9214C186.752 27.4626 188.956 30.4738 188.956 30.4738C189.147 30.7372 188.61 32.4559 188.533 32.7713C188.187 34.6182 187.84 36.4548 187.525 38.3156C187.321 39.4429 187.116 40.5632 186.908 41.6769C187.065 41.5244 187.232 41.382 187.407 41.2507C188.828 39.0329 190.91 36.5449 193.18 38.5755C193.636 38.9983 193.985 39.5233 194.199 40.1071C195.238 42.9313 193.249 44.7471 190.924 45.8351C190.311 46.2063 189.659 46.5095 188.98 46.7396C189.095 47.4534 189.569 50.2984 189.569 50.3053C189.618 50.5964 195.391 47.0376 195.873 46.6044C196.743 45.4536 197.414 44.1653 197.858 42.7927C199.653 37.1305 199.348 29.812 195.734 25.1547C194.837 24.0008 195.436 23.3355 195.696 22.2128C195.708 22.1521 195.702 22.0894 195.679 22.0326C195.655 21.9754 195.615 21.9269 195.564 21.8929C195.512 21.859 195.452 21.8413 195.39 21.842C195.328 21.843 195.268 21.8621 195.218 21.8974C193.27 23.1206 189.746 21.8697 189.746 21.8697C178.311 15.0015 172.451 19.25 169.648 19.4648C168.511 19.5428 167.382 19.2216 166.456 18.5569C166.294 18.8785 166.046 19.1495 165.741 19.3411C165.436 19.5327 165.084 19.6377 164.724 19.645L164.613 20.241C164.528 20.6939 164.288 21.1032 163.934 21.3984Z" fill="#367CFF"/>
<path d="M168.685 28.918C167.21 28.3193 165.959 27.2734 165.108 25.9272C164.257 24.581 163.849 23.0022 163.942 21.4124C163.975 20.8018 164.063 20.1954 164.205 19.6001L164.305 19.6209C164.442 19.6517 164.582 19.6621 164.721 19.652C165.081 19.6451 165.433 19.5401 165.738 19.3485C166.044 19.1569 166.291 18.8855 166.454 18.564C166.549 18.3852 166.616 18.1921 166.651 17.9922L167.185 15.0919C167.185 15.0919 168.918 17.4378 171.69 17.2195C174.462 17.0012 180.322 12.7529 191.788 19.6243C191.788 19.6243 194.539 20.6396 196.487 19.4164C196.538 19.3814 196.597 19.362 196.659 19.3613C196.721 19.3606 196.781 19.3783 196.833 19.4123C196.884 19.4462 196.924 19.4947 196.948 19.5516C196.971 19.6087 196.977 19.6715 196.965 19.7317C196.705 20.851 196.878 21.7554 197.776 22.9094C201.39 27.5666 201.695 34.8851 199.9 40.5473C199.114 42.894 197.718 44.989 195.856 46.6184C195.375 47.0515 189.602 50.6103 189.553 50.3192C189.553 50.3192 189.078 47.4674 188.964 46.7535L188.936 46.5907L189.099 46.5421C189.717 46.3512 190.321 46.1197 190.908 45.8491C193.233 44.761 195.233 42.9452 194.183 40.1211C193.968 39.5375 193.619 39.0126 193.164 38.5895C190.894 36.5588 188.811 39.0469 187.391 41.2646C187.116 41.6856 186.89 42.1368 186.718 42.6091C186.774 42.3042 186.829 42.0062 186.888 41.7012C187.096 40.5854 187.302 39.4651 187.505 38.34C187.852 36.4895 188.174 34.653 188.513 32.7956C188.576 32.4803 189.127 30.7615 188.936 30.4982C188.936 30.4982 186.732 27.4869 178.087 28.9458C171.849 29.9853 172.258 26.0211 169.961 27.5077C169.417 27.8681 168.97 28.356 168.658 28.9284C168.561 29.1152 168.475 29.3072 168.401 29.5037C168.389 29.5283 168.378 29.5539 168.37 29.5799C168.214 30.0096 168.072 30.4427 167.934 30.8655C166.638 34.9856 165.782 39.435 166.239 43.763C166.797 49.0094 170.619 55.1775 176.701 54.6542C178.614 54.43 180.48 53.9061 182.231 53.1018" stroke="black" stroke-width="1.5" stroke-miterlimit="10"/>
<path d="M169.348 40.0999C169.943 40.0829 170.409 39.4862 170.389 38.7668C170.368 38.0474 169.87 37.4781 169.275 37.4951C168.68 37.5117 168.214 38.1084 168.234 38.8278C168.254 39.5472 168.753 40.1165 169.348 40.0999Z" fill="black"/>
<path d="M177.492 42.2873C178.087 42.2704 178.552 41.6736 178.532 40.9546C178.512 40.2352 178.013 39.6655 177.418 39.6825C176.823 39.6995 176.357 40.2962 176.378 41.0153C176.398 41.7346 176.897 42.3043 177.492 42.2873Z" fill="black"/>
<path d="M173.975 42.7684C173.975 42.7684 170.825 43.4614 171.144 41.8466C171.241 41.3407 172.031 36.3716 172.031 36.3716C172.031 36.3716 170.562 33.4123 166.719 34.1018" stroke="black" stroke-width="1.5" stroke-miterlimit="10"/>
<path d="M175.392 35.928C175.392 35.928 180.385 35.079 182.298 39.0674" stroke="black" stroke-width="1.5" stroke-miterlimit="10"/>
<path d="M172.5 58.7362C168.567 60.8154 166.468 65.8191 168.113 69.4403C170.858 75.4732 178.083 77.2474 184.053 75.5044C190.693 73.5639 195.572 67.4443 195.281 60.4273" stroke="black" stroke-width="1.5" stroke-miterlimit="10"/>
<path d="M196.314 173.778C207.718 147.276 211.859 100.499 211.859 100.499V165.763C211.858 166.816 212.065 167.858 212.468 168.831C212.87 169.803 213.461 170.687 214.205 171.431C214.95 172.176 215.833 172.766 216.806 173.169C217.779 173.571 218.821 173.778 219.874 173.778H245.17C246.118 173.793 247.039 173.457 247.754 172.834C248.47 172.212 248.931 171.347 249.047 170.406C249.098 169.888 249.04 169.364 248.876 168.87C248.712 168.375 248.446 167.921 248.096 167.535C247.746 167.15 247.319 166.842 246.842 166.631C246.366 166.421 245.85 166.313 245.329 166.314H234.968C234.555 166.312 234.148 166.217 233.777 166.034C233.406 165.852 233.082 165.587 232.83 165.26C232.577 164.933 232.402 164.553 232.319 164.148C232.235 163.743 232.246 163.325 232.348 162.925C238.586 138.322 242.443 109.443 234.324 83.8867C232.646 78.6126 229.032 73.9138 224.763 70.2822C219.863 66.0962 213.823 64.1765 207.635 62.7558C203.552 61.8202 199.435 61.046 195.281 60.4341C195.269 60.4382 195.255 60.4382 195.243 60.4341C195.215 60.4341 195.187 60.4341 195.17 60.4341H195.142H195.104H195.049" stroke="black" stroke-width="1.5" stroke-miterlimit="10"/>
<path d="M192.667 48.6591L192.21 56.9375C192.166 57.7466 192.42 58.5436 192.924 59.1781C193.428 59.8126 194.146 60.2409 194.944 60.3819H195.048C195.066 60.3771 195.085 60.3771 195.103 60.3819H195.121H195.169" stroke="black" stroke-width="1.5" stroke-miterlimit="10"/>
<path d="M195.242 60.4201H195.169H195.141H195.121H195.103H195.048H194.944C194.146 60.2791 193.428 59.8508 192.924 59.2163C192.42 58.5815 192.166 57.7845 192.21 56.9757L192.667 48.6973" stroke="black" stroke-width="1.5" stroke-miterlimit="10"/>
<path d="M173.155 54.1378C172.929 54.0477 173.155 63.383 167.586 67.4373" stroke="black" stroke-width="1.5" stroke-miterlimit="10"/>
<path d="M98.6007 173.781H80.7617" stroke="black" stroke-width="1.5" stroke-miterlimit="10"/>
<path d="M272.878 173.781H126.375" stroke="black" stroke-width="1.5" stroke-miterlimit="10"/>
<path d="M46.9999 86.1356C47.1718 89.6306 47.0467 93.134 46.6257 96.6075C46.0851 100.69 42.3115 105.877 41.4937 109.914C40.3259 115.722 42.0932 121.723 44.5188 127.115C47.4504 133.633 52.0695 140.19 51.6191 147.654C51.3883 150.904 50.4208 154.06 48.7904 156.882C47.1597 159.703 44.9087 162.117 42.2075 163.94C38.5074 166.415 34.2812 167.994 29.8644 168.549C29.2476 168.622 28.6204 168.681 27.9932 168.698C27.6467 168.698 27.3002 168.66 26.9536 168.632C15.2064 167.638 3.15787 158.676 3.18559 146.202C3.18559 138.232 9.2428 131.994 10.265 124.26C10.8922 119.53 9.50615 114.616 10.7883 110.025C12.8674 102.692 20.9034 98.6936 24.424 91.9433C27.016 86.9604 27.4388 81.1457 29.4902 75.9202C32.3455 68.6432 36.9057 60.3267 43.1431 59.6336C44.953 59.8388 46.7026 60.4095 48.2855 61.3108C52.1527 63.3899 53.1368 63.5216 53.9234 65.3755C54.7274 67.3126 53.5284 69.3813 51.5255 70.0016C48.1434 71.0723 46.6846 77.9438 46.9999 86.1356Z" fill="#367CFF"/>
<path d="M50.3994 62.4369C60.5525 59.4949 67.0047 63.823 71.6204 68.8129C76.2361 73.8028 76.0212 79.4685 76.0212 79.4685" stroke="black" stroke-width="1.5" stroke-miterlimit="10"/>
<path d="M81.891 160.031C81.7378 167.964 80.7329 175.856 78.8936 183.574" stroke="black" stroke-width="1.5" stroke-miterlimit="10"/>
<path d="M107.123 224.63C103.404 231.027 94.5854 235.57 83.7947 238.397C64.6459 243.415 39.2944 243.023 25.288 237.881C-4.14554 227.094 7.29662 175.438 7.29662 175.438C7.29662 175.438 58.2041 165.856 92.1494 192.764C95.3925 195.327 98.4027 198.172 101.145 201.264C104.898 205.509 107.202 209.393 108.29 212.942C109.624 217.364 109.091 221.258 107.123 224.63Z" stroke="black" stroke-width="1.5" stroke-miterlimit="10"/>
<path d="M87.6093 237.524C87.6093 237.524 69.7738 287.032 99.7376 299.676C129.701 312.321 -10.297 314.005 20.6059 299.676C51.5087 285.347 33.746 240.549 33.746 240.549" stroke="black" stroke-width="1.5" stroke-miterlimit="10"/>
<path d="M123.891 69.2807C123.52 68.1476 123.673 64.2076 123.794 61.983C123.817 61.563 124.003 61.1683 124.312 60.8831C124.621 60.5979 125.03 60.4441 125.45 60.4548L161.048 60.7667C161.649 60.7722 162.222 61.0144 162.645 61.4407C163.067 61.8672 163.304 62.4431 163.304 63.0433V89.7567C163.304 90.0564 163.245 90.3534 163.13 90.6303C163.015 90.9071 162.846 91.1587 162.634 91.3701C162.421 91.5818 162.169 91.7492 161.891 91.8628C161.614 91.9768 161.317 92.0347 161.017 92.0333L126.327 91.9051C125.824 91.8843 125.349 91.6702 125.001 91.3074C124.653 90.9442 124.459 90.4605 124.459 89.9577V87.9201C126.926 89.0706 131.591 89.424 131.591 89.424C133.25 89.379 135.874 89.178 137.312 88.3533C138.628 87.5979 140.292 86.5132 140.517 84.8707C140.604 84.2356 140.436 83.5917 140.049 83.0799C139.663 82.5681 139.09 82.2302 138.455 82.1401C138.074 82.0639 137.679 82.0916 137.312 82.2198" stroke="black" stroke-width="1.5" stroke-miterlimit="10"/>
<path d="M158.633 143.308C158.616 143.785 158.456 144.245 158.172 144.629C157.357 145.63 155.746 145.432 154.651 145.124C150.046 143.814 147.281 148.804 145.541 152.165C141.147 160.662 134.556 168.556 126.333 173.781C125.8 174.128 125.256 174.454 124.705 174.772C116.669 179.409 106.256 178.546 98.4834 173.733L108.422 149.32L109.406 150.107C115.408 154.844 122.795 152.186 127.91 147.512C129.33 146.218 130.582 144.753 131.639 143.149C133.399 140.443 134.906 137.521 137.315 135.321C140.648 132.275 145.527 131.679 149.741 132.968C153.955 134.257 159.014 138.402 158.633 143.308Z" fill="white"/>
<path d="M158.591 141.579C158.591 141.579 157.462 135.598 147.277 140.266" stroke="black" stroke-width="1.5" stroke-miterlimit="10"/>
<path d="M152.927 134.399C152.927 134.399 146.578 132.369 143.044 137.22" stroke="black" stroke-width="1.5" stroke-miterlimit="10"/>
<path d="M24.7783 168.643C26.4735 168.794 28.1795 168.766 29.8687 168.559C34.2845 167.997 38.5089 166.415 42.2084 163.94C44.9095 162.117 47.1609 159.703 48.7913 156.882C50.422 154.06 51.3891 150.904 51.6199 147.654C52.0704 140.186 47.4617 133.63 44.5197 127.112C42.094 121.717 40.3268 115.715 41.498 109.914C42.3123 105.874 46.079 100.69 46.6231 96.6041C47.0462 93.1306 47.1737 89.6272 47.0043 86.1322C46.6889 77.937 48.1443 71.0585 51.5264 70.012C53.5293 69.3917 54.7317 67.3195 53.9243 65.3859C53.1516 63.5286 52.157 63.4177 48.2864 61.3143C38.1957 55.8254 31.1786 66.0582 27.3045 75.9237C25.2496 81.1527 24.8338 86.9604 22.2383 91.9434C18.7177 98.6971 10.6645 102.686 8.6062 110.032C7.32061 114.62 8.70669 119.537 8.08296 124.26C7.06418 131.991 1.01737 138.225 1.00005 146.202C0.972326 158.673 13.0348 167.641 24.7783 168.643Z" stroke="black" stroke-width="1.5" stroke-miterlimit="10"/>
<path d="M107.122 224.63C106.252 230.819 104.956 237.919 103.529 245.026C99.4813 265.17 94.332 285.434 94.332 285.434" stroke="black" stroke-width="1.5" stroke-miterlimit="10"/>
<path d="M108.276 212.942C108.294 212.187 108.304 211.494 108.276 210.835C107.968 196.628 97.7525 193.232 93.3586 192.418C92.703 192.289 92.0398 192.205 91.373 192.165" stroke="black" stroke-width="1.5" stroke-miterlimit="10"/>
<path d="M95.8562 279.29C96.4217 278.944 97.0694 278.755 97.7326 278.742C98.3955 278.729 99.0498 278.894 99.6281 279.218C100.206 279.543 100.688 280.016 101.023 280.588C101.357 281.161 101.533 281.812 101.532 282.475C101.532 282.523 101.532 282.582 101.532 282.652C101.477 284.363 101.026 286.038 100.215 287.546C99.4043 289.054 98.2552 290.353 96.8577 291.342L92.041 294.769" stroke="black" stroke-width="1.5" stroke-miterlimit="10"/>
<path d="M41.1416 114.495C41.8139 114.221 42.5 113.979 43.193 113.753C44.6519 111.057 44.4266 105.156 44.288 103.011L45.7469 99.7227C49.7735 102.197 55.103 101.268 60.0478 99.546C60.7423 99.3034 61.4176 99.0092 62.0681 98.6658C65.2075 97.2243 69.6084 93.8145 67.6332 92.0542C65.658 90.2939 65.7966 86.9049 67.0614 84.8257C67.4461 84.1881 68.1287 83.5609 68.8391 83.7584C69.3173 83.8901 69.6257 84.3371 69.8995 84.7495C70.246 85.2658 70.5925 85.7614 70.939 86.2673C71.0603 86.4371 71.2578 86.6138 71.4449 86.5376C71.5239 86.4856 71.5856 86.4107 71.6217 86.3227C72.2315 85.0683 72.1172 83.2699 72.2212 81.8942C72.3424 80.2551 72.436 78.6057 72.4845 76.9597C72.5122 76.0518 72.6994 75.0781 73.6731 74.7593C73.8696 74.6837 74.0809 74.6536 74.2906 74.6716C74.5006 74.6896 74.7036 74.7551 74.8842 74.8632C75.0651 74.9717 75.2186 75.1197 75.3336 75.296C75.4487 75.4728 75.5218 75.6731 75.5478 75.882C76.2564 79.8646 76.3604 83.931 75.8562 87.9444C75.378 92.1477 74.5151 96.6075 71.8192 99.9965C70.2831 101.952 68.2251 103.432 65.8833 104.266C63.617 105.052 63.6898 107.786 63.6898 110.184V114.166C70.6583 115.58 77.2041 117.284 82.6168 122.136C86.1964 125.408 89.5646 128.905 92.7006 132.604C102.573 144.188 104.708 146.361 109.462 150.107C115.464 154.844 122.855 152.186 127.966 147.512C129.383 146.218 130.633 144.752 131.688 143.149C133.448 140.443 134.955 137.521 137.36 135.321C140.697 132.275 145.576 131.679 149.79 132.968C154.004 134.257 159.07 138.401 158.668 143.308C158.651 143.784 158.492 144.244 158.211 144.628C157.396 145.63 155.785 145.432 154.69 145.124C150.081 143.814 147.319 148.804 145.576 152.165C141.186 160.662 134.592 168.556 126.369 173.781C125.835 174.128 125.294 174.454 124.74 174.772C115.554 180.074 103.238 178.182 95.3376 171.428L76.2789 155.249" stroke="black" stroke-width="1.5" stroke-miterlimit="10"/>
<path d="M43.1934 113.754C43.1934 113.754 52.2965 110.94 63.6901 114.176" stroke="black" stroke-width="1.5" stroke-miterlimit="10"/>
<path d="M124.46 87.9203C124.46 87.9203 124.529 99.7021 127.34 104.238" stroke="black" stroke-width="1.5" stroke-miterlimit="10"/>
<path d="M133.694 33.9947C131.532 37.6851 131.633 40.3048 132.194 44.5567C132.24 44.9188 132.184 45.2864 132.03 45.6177C131.876 45.949 131.632 46.23 131.326 46.4286C131.019 46.6271 130.663 46.7349 130.298 46.7398C129.933 46.7443 129.574 46.6458 129.262 46.4556C116.788 39.2757 105.113 44.9552 90.2197 41.438C84.7516 40.1524 77.9355 37.4945 73.2609 33.215C71.7103 30.9117 70.8824 28.1981 70.8838 25.4217C70.8838 13.782 86.7857 4.3427 106.392 4.3427C118.96 4.3427 130 8.22028 136.314 14.0626C136.314 14.0626 136.314 14.0626 136.331 14.0834C137.915 16.3608 138.78 19.0613 138.812 21.8352C138.812 26.0247 135.708 30.5295 133.694 33.9947Z" fill="#D7E8F0"/>
<path d="M138.757 21.842V22.1365C138.684 26.2151 136.643 30.0061 134.221 33.2876C132.599 35.4846 130.676 37.9206 131.134 40.6131C131.335 41.7982 131.997 42.8759 132.173 44.0783C132.35 45.2807 131.705 46.7535 130.503 46.8158C129.741 46.8539 129.089 46.3099 128.486 45.8421C124.907 43.0699 120.256 42.0304 115.734 41.8502C111.212 41.67 106.697 42.2625 102.171 42.3907C95.6499 42.5779 89.0244 41.7635 82.9983 39.272C77.5822 37.0127 72.6443 33.3396 69.3939 28.4502C66.2024 23.6301 68.091 16.6372 71.4938 12.4477C74.6888 8.51816 79.3114 6.00242 84.0552 4.23169C96.8107 -0.532986 111.372 -0.418635 123.954 4.79652C127.689 6.32815 131.293 8.35183 134.1 11.2695C136.837 14.1145 138.733 17.9055 138.757 21.842Z" stroke="black" stroke-width="1.5" stroke-miterlimit="10"/>
<path d="M86.4106 26.4783C89.1166 26.4783 91.3104 24.2849 91.3104 21.5785C91.3104 18.8725 89.1166 16.6787 86.4106 16.6787C83.7046 16.6787 81.5107 18.8725 81.5107 21.5785C81.5107 24.2849 83.7046 26.4783 86.4106 26.4783Z" fill="white"/>
<path d="M102.253 26.4783C104.959 26.4783 107.153 24.2849 107.153 21.5785C107.153 18.8725 104.959 16.6787 102.253 16.6787C99.547 16.6787 97.3535 18.8725 97.3535 21.5785C97.3535 24.2849 99.547 26.4783 102.253 26.4783Z" fill="white"/>
<path d="M118.405 26.4783C121.111 26.4783 123.305 24.2849 123.305 21.5785C123.305 18.8725 121.111 16.6787 118.405 16.6787C115.699 16.6787 113.505 18.8725 113.505 21.5785C113.505 24.2849 115.699 26.4783 118.405 26.4783Z" fill="white"/>
<g opacity="0.54">
<path opacity="0.54" d="M212.558 227.007L210.566 255.769C209.655 257.505 208.516 259.112 207.18 260.547C207.034 260.495 206.889 260.44 206.747 260.374C206.48 260.284 206.217 260.176 205.967 260.072C201.93 258.302 198.864 255.003 197.969 251.264C197.162 247.989 197.89 244.451 196.33 241.374C194.428 237.583 189.254 235.206 188.62 230.93C188.024 226.928 191.628 223.258 191.046 219.335C190.353 214.9 184.93 212.27 183.915 207.938C183.28 205.246 183.849 202.155 183.61 199.383C183.346 196.282 182.826 193.208 182.054 190.193C190.083 189.611 198.254 194.036 200.856 200.374C202.98 205.571 201.702 211.625 205.014 216.352C206.823 218.913 209.834 220.829 211.394 223.507C211.875 224.343 212.225 225.248 212.433 226.189C212.433 226.255 212.433 226.321 212.458 226.373C212.458 226.481 212.485 226.557 212.499 226.637C212.534 226.876 212.558 227.007 212.558 227.007Z" fill="#367CFF"/>
<path opacity="0.54" d="M212.572 226.983C212.572 226.983 212.548 226.865 212.521 226.637C212.544 226.728 212.562 226.82 212.572 226.914C212.578 226.925 212.58 226.936 212.58 226.949C212.58 226.96 212.578 226.972 212.572 226.983Z" fill="#367CFF"/>
</g>
<path d="M239.098 215.759C238.059 219.494 232.365 221.764 231.679 225.593C231.073 228.989 234.822 232.156 234.202 235.604C233.54 239.302 228.152 241.346 226.173 244.614C224.562 247.268 225.314 250.321 224.482 253.145C223.519 256.354 220.324 259.22 216.11 260.737C215.847 260.831 215.597 260.921 215.33 261.001C215.185 261.042 215.026 261.094 214.88 261.133C213.494 259.986 211.883 257.965 210.576 255.786L212.558 227.007C214.104 225.697 215.871 224.498 217.101 223.043C218.435 221.473 219.056 219.758 219.451 217.959H219.492V217.762C220.071 214.924 220.123 211.951 221.457 209.258C224.163 203.78 232.657 199.961 241.015 200.463C240.226 203.051 239.686 205.708 239.403 208.399C239.164 210.779 239.753 213.448 239.098 215.759Z" fill="#367CFF"/>
<path d="M219.507 217.738V217.935H219.466L219.507 217.738Z" fill="#367CFF"/>
<path d="M219.506 217.738L219.464 217.935C219.069 219.734 218.449 221.449 217.115 223.019C215.885 224.474 214.117 225.673 212.572 226.983C212.578 226.965 212.578 226.946 212.572 226.928C212.561 226.834 212.544 226.741 212.52 226.65C212.52 226.571 212.492 226.494 212.478 226.387C212.478 226.335 212.478 226.269 212.454 226.203C212.246 225.261 211.896 224.357 211.415 223.521C209.855 220.843 206.844 218.926 205.035 216.366C205.035 216.366 205.853 202.869 212.759 198.762C219.308 194.881 219.506 215.492 219.506 217.738Z" fill="#367CFF"/>
<path d="M219.507 217.738V217.935H219.466L219.507 217.738Z" fill="#367CFF"/>
<path d="M212.56 226.927V227.007C212.56 227.007 212.536 226.889 212.508 226.661C212.531 226.748 212.548 226.837 212.56 226.927Z" fill="#367CFF"/>
<path d="M211.941 227.007C213.479 225.697 215.267 224.481 216.501 223.029C219.966 218.944 218.629 213.721 220.85 209.241C223.553 203.769 232.053 199.954 240.408 200.453C239.614 203.04 239.074 205.697 238.793 208.388C238.543 210.786 239.139 213.451 238.484 215.773C237.421 219.508 231.748 221.775 231.058 225.604C230.445 228.996 234.205 232.163 233.585 235.608C232.923 239.309 227.538 241.353 225.556 244.617C223.937 247.275 224.696 250.321 223.858 253.152C222.842 256.565 219.308 259.58 214.703 261.004C214.557 261.053 214.398 261.105 214.249 261.143C212.863 259.996 211.251 257.976 209.941 255.793" stroke="black" stroke-width="1.5" stroke-miterlimit="10"/>
<path d="M235.307 204.74C222.85 218.147 216.99 246.412 214.71 261.008C214.523 262.238 214.363 263.364 214.211 264.38" stroke="black" stroke-width="1.5" stroke-miterlimit="10"/>
<path d="M236.458 272.599L230.744 306.416C230.608 307.342 230.149 308.19 229.447 308.81C228.746 309.43 227.847 309.781 226.911 309.802H196.944C195.999 309.78 195.093 309.422 194.389 308.791C193.684 308.16 193.229 307.298 193.105 306.361L187.82 272.596L236.458 272.599Z" stroke="black" stroke-width="1.5" stroke-miterlimit="10"/>
<path d="M241.901 268.822C241.85 269.825 241.421 270.772 240.702 271.472C239.982 272.173 239.024 272.575 238.02 272.599H186.35C185.357 272.575 184.409 272.181 183.692 271.494C182.975 270.806 182.542 269.876 182.476 268.885C182.258 266.459 184.053 264.38 186.35 264.38H238.02C240.297 264.383 242.085 266.431 241.901 268.822Z" stroke="black" stroke-width="1.5" stroke-miterlimit="10"/>
<path d="M206.568 260.54C208.785 258.34 211.502 253.433 212.705 249.427C213.696 246.125 211.953 242.726 211.551 239.337C210.927 234.031 213.561 228.328 210.785 223.518C209.236 220.836 206.225 218.93 204.416 216.362C201.086 211.632 202.364 205.582 200.237 200.394C197.634 194.05 189.467 189.625 181.441 190.214C182.208 193.229 182.728 196.303 182.997 199.403C183.236 202.176 182.651 205.267 183.295 207.956C184.311 212.287 189.758 214.91 190.427 219.349C191.016 223.272 187.409 226.945 188.001 230.94C188.639 235.223 193.805 237.59 195.715 241.388C197.267 244.469 196.539 248.003 197.343 251.274C198.352 255.363 201.924 258.957 206.568 260.54Z" stroke="black" stroke-width="1.5" stroke-miterlimit="10"/>
<path d="M186.342 195.183C198.3 210.721 203.928 243.464 206.142 260.367C206.329 261.833 206.489 263.177 206.631 264.38" stroke="black" stroke-width="1.5" stroke-miterlimit="10"/>
<path d="M204.407 216.362C204.407 216.362 205.228 202.865 212.131 198.762C219.034 194.659 218.888 217.651 218.888 217.651" stroke="black" stroke-width="1.5" stroke-miterlimit="10"/>
<path d="M211.941 227.007C211.941 227.007 210.531 219.287 213.005 211.694" stroke="black" stroke-width="1.5" stroke-miterlimit="10"/>
</svg>
