<svg width="352" height="232" viewBox="0 0 352 232" fill="none" xmlns="http://www.w3.org/2000/svg">
<path d="M280.551 139.202L279.863 145.777C278.071 150.06 276.28 154.339 274.49 158.616C273.865 160.117 273.237 161.617 272.607 163.113C272.321 163.813 271.916 164.458 271.409 165.019C271.384 165.057 271.35 165.089 271.311 165.112C271.272 165.135 271.228 165.148 271.183 165.152C271.031 165.152 270.977 164.949 270.965 164.798C270.879 163.176 270.685 161.562 270.386 159.966C268.709 152.259 259.761 149.434 252.742 149.609C249.935 149.652 247.168 150.293 244.627 151.488C240.962 153.263 239.534 158.196 239.34 158.378L239.184 159.013L236.671 169.482C236.142 171.816 235.737 173.049 233.582 173.672C233.512 173.695 231.364 174.839 231.294 174.839C230.462 175.072 232.742 174.57 231.839 174.419L228.98 173.971L227.762 173.691L209.994 169.486C210.683 169.602 211.387 169.731 212.103 169.875L216.227 170.859L215.137 165.63C212.301 149.353 217.001 134.584 225.007 126.566C227.116 124.458 228.163 123.917 230.621 122.512L232.002 125.784C232.002 125.784 246.132 129.998 249.463 117.07C250.809 117.186 253.396 117.167 254.73 117.459C261.686 118.917 267.969 122.625 272.607 128.01C273.015 128.476 273.416 128.959 273.813 129.449L274.023 129.706C274.268 130.013 274.529 130.328 274.774 130.643L274.949 130.892C276.983 133.547 278.853 136.322 280.551 139.202Z" fill="#353642"/>
<path d="M112.656 71.1508C114.897 59.9463 124.413 49.092 151.592 46.606C212.003 41.0854 179.346 24.4305 199.016 6.20372C218.686 -12.023 293.06 17.9645 273.604 64.7977C254.148 111.631 318.375 59.6507 345.577 118.972C349.518 127.581 351.415 136.983 351.121 146.446C350.778 156.445 348.203 166.24 343.585 175.115C334.898 192.085 318.76 207.204 295.422 216.572C291.977 217.975 288.372 219.237 284.606 220.357" stroke="#CCDDE2" stroke-width="1.5" stroke-miterlimit="10"/>
<path d="M304.019 163.3C303.548 168.797 299.821 169.692 299.821 169.692C296.67 171.555 291.83 169.552 290.854 166.058C290.839 166.021 290.831 165.981 290.83 165.941C290.052 162.95 288.535 159.106 286.497 154.9C282.567 145.392 277.459 135.806 270.908 128.223C266.269 122.839 259.987 119.131 253.031 117.673C253.008 117.673 252.996 117.649 252.973 117.649C243.748 114.871 239.259 109.199 237.314 103.76C237.314 103.76 237.314 103.76 237.314 103.737C236.481 100.302 235.633 96.9521 236.088 94.9252C236.866 91.3732 237.255 87.5333 236.286 86.7552C235.069 85.7359 232.867 86.4907 227.265 87.6189C222.413 88.6148 219.826 88.0508 219.242 85.0862C219.15 84.6264 219.103 84.1584 219.102 83.6896C219.079 83.9852 217.935 82.8103 217.881 83.0904C217.515 84.6038 216.784 85.2107 215.189 85.876C212.819 86.8603 211.851 90.6612 211.5 93.1939C211.135 95.89 212.349 99.6092 213.309 102.142C212.08 100.737 210.672 100.901 208.47 101.753C207.917 101.963 206.525 101.905 205.424 101.519C205.579 101.386 205.762 101.289 205.96 101.235C206.314 101.119 203.747 99.8427 204.12 99.761C207.859 98.9168 209.956 95.8005 209.512 93.0578C208.411 86.1522 209.878 78.029 214.543 72.6485C219.686 66.7311 228.078 65.5017 235.182 68.2095C240.76 70.3298 246.036 74.6793 247.969 80.4799C247.969 80.5033 247.969 80.5266 247.993 80.55C248.239 81.2876 248.427 82.0435 248.557 82.8103C249.269 87.1248 247.748 91.4977 246.903 95.7616C246.6 97.2983 247.37 98.9751 247.534 100.193C248.471 107.507 256.914 109.573 263.593 112.677C277.634 119.217 289.099 130.398 296.81 143.995C301.93 152.998 303.758 159.137 304.019 163.3Z" fill="#367CFF"/>
<path d="M229.999 121.061C229.847 121.143 229.695 121.225 229.555 121.318C227.034 122.763 224.715 124.537 222.661 126.593C214.659 134.612 209.959 149.38 212.795 165.657L213.884 170.859" stroke="black" stroke-width="1.5" stroke-miterlimit="10"/>
<path d="M300.805 230.282C300.807 218.13 299.756 206.001 297.666 194.03C296.267 185.908 294.341 177.886 291.9 170.015C290.433 165.233 288.64 160.075 286.508 154.896C284.528 150.051 282.241 145.336 279.661 140.782C277.159 136.322 274.231 132.115 270.919 128.22C266.28 122.835 259.998 119.127 253.042 117.669C251.708 117.386 250.358 117.183 249 117.062" stroke="black" stroke-width="1.5" stroke-miterlimit="10"/>
<path d="M157.008 124.528L156.809 124.493C154.434 124.095 151.995 124.299 149.719 125.087C147.443 125.876 145.401 127.223 143.78 129.005L130.475 143.501L128.919 145.213C128.822 145.318 128.731 145.429 128.646 145.544" stroke="black" stroke-width="1.5" stroke-miterlimit="10"/>
<path d="M137.792 149.329L145.094 141.229L145.106 141.218" stroke="black" stroke-width="1.5" stroke-miterlimit="10"/>
<path d="M201.315 191.167L235.664 203.27C238.972 204.436 242.492 204.876 245.985 204.56C249.478 204.243 252.862 203.179 255.907 201.438C258.952 199.697 261.586 197.321 263.631 194.471C265.675 191.622 267.083 188.365 267.756 184.923L275.884 143.435C276.299 141.305 276.28 139.113 275.826 136.99C275.373 134.867 274.495 132.858 273.246 131.083C272.897 130.583 272.517 130.105 272.11 129.651" stroke="black" stroke-width="1.5" stroke-miterlimit="10"/>
<path d="M178.583 189.494C174.21 192.447 170.996 201.415 169.288 207.301C168.996 208.288 168.391 209.154 167.564 209.768C166.739 210.382 165.735 210.713 164.705 210.709C164.008 210.709 163.32 210.558 162.686 210.265C161.715 209.81 160.926 209.04 160.446 208.081C159.966 207.122 159.823 206.029 160.041 204.978C162.9 190.996 172.992 163.393 207.66 169.478C208.352 169.595 209.056 169.723 209.768 169.867L213.885 170.859L225.427 173.672L228.54 174.423C229.721 174.709 230.958 174.665 232.115 174.294C232.187 174.28 232.257 174.261 232.325 174.236C233.392 173.87 234.348 173.242 235.106 172.407C235.864 171.574 236.4 170.562 236.663 169.466L239.289 158.542L239.441 157.908L242.88 143.626" stroke="black" stroke-width="1.5" stroke-miterlimit="10"/>
<path d="M161.676 144.727H149.911C148.57 144.727 147.283 144.194 146.335 143.245C145.386 142.297 144.854 141.011 144.854 139.669C144.854 138.328 145.386 137.042 146.335 136.093C147.283 135.145 148.57 134.612 149.911 134.612H166.578" stroke="black" stroke-width="1.5" stroke-miterlimit="10"/>
<path d="M152.646 144.723C152.478 146.785 151.693 148.31 150.533 149.364C147.545 152.088 142.071 151.776 138.263 149.913" stroke="black" stroke-width="1.5" stroke-miterlimit="10"/>
<path d="M130.49 143.497C127.117 139.42 127.806 133.892 130.424 129.62C137.851 117.498 154.821 119.824 165.827 124.862C174.744 128.932 182.556 135.047 190.162 141.148C193.877 144.128 197.526 147.232 201.055 150.485C201.703 151.071 202.475 151.502 203.314 151.747C204.152 151.992 205.036 152.043 205.897 151.897C206.758 151.751 207.575 151.411 208.287 150.904C208.998 150.397 209.585 149.735 210.003 148.967C211.948 145.377 214.053 141.459 214.45 140.373" stroke="black" stroke-width="1.5" stroke-miterlimit="10"/>
<path d="M150.537 149.364C150.537 149.364 168.087 158.884 181.124 172.563" stroke="black" stroke-width="1.5" stroke-miterlimit="10"/>
<path d="M174.299 194.657C172.354 197.979 174.027 202.858 177.704 204.025C182.399 205.54 187.363 206.038 192.265 205.484C197.615 204.861 201.171 200.446 203.513 195.388C203.682 195.012 203.771 194.604 203.772 194.192C203.774 193.779 203.689 193.37 203.522 192.993C203.356 192.615 203.111 192.277 202.805 192C202.499 191.723 202.139 191.513 201.747 191.385C201.039 191.152 200.269 191.194 199.591 191.504C198.913 191.813 198.377 192.367 198.089 193.054C197.311 194.851 196.109 197.1 194.514 198.112" stroke="black" stroke-width="1.5" stroke-miterlimit="10"/>
<path d="M183.463 194.034C183.463 194.034 178.658 199.201 182.447 204.671C182.614 204.901 182.81 205.107 183.031 205.286" stroke="black" stroke-width="1.5" stroke-miterlimit="10"/>
<path d="M189.799 194.886C189.799 194.886 185.357 204.885 191.056 205.616" stroke="black" stroke-width="1.5" stroke-miterlimit="10"/>
<path d="M347.537 230.289H72.3896" stroke="black" stroke-width="1.5" stroke-miterlimit="10"/>
<path d="M180.634 211.448H153.195C152.916 214.038 151.689 216.434 149.75 218.174C147.81 219.914 145.296 220.874 142.691 220.871H50.4639C50.4689 223.365 51.4622 225.756 53.2257 227.52C54.9896 229.283 57.3803 230.277 59.8748 230.282H180.634C183.133 230.281 185.529 229.29 187.299 227.526C189.068 225.762 190.067 223.369 190.076 220.871V214.545C190.076 213.719 189.748 212.928 189.164 212.344C188.581 211.761 187.789 211.433 186.964 211.433L180.634 211.448Z" stroke="black" stroke-width="1.5" stroke-miterlimit="10"/>
<path d="M138.263 149.913C139.071 151.031 139.653 152.298 139.975 153.64L152.973 207.849C153.26 209.026 153.335 210.245 153.194 211.448C152.916 214.038 151.689 216.434 149.749 218.174C147.81 219.913 145.296 220.874 142.69 220.871H48.7515C46.3791 220.87 44.076 220.071 42.2132 218.601C40.3505 217.132 39.0371 215.078 38.4846 212.771L25.51 158.565C25.1369 157.013 25.1209 155.397 25.4629 153.838C25.8049 152.278 26.4958 150.817 27.4844 149.564C28.4726 148.31 29.7323 147.297 31.1686 146.601C32.605 145.905 34.1806 145.543 35.7769 145.544H129.708C131.251 145.541 132.776 145.879 134.173 146.533C135.571 147.187 136.806 148.142 137.792 149.329L138.263 149.913Z" stroke="black" stroke-width="1.5" stroke-miterlimit="10"/>
<path d="M123.549 82.4488C122.949 81.7447 122.319 81.0677 121.662 80.4102C117.972 76.7081 113.588 73.7712 108.76 71.768C103.933 69.7652 98.7567 68.7358 93.5299 68.7389H44.2846C39.0594 68.737 33.8847 69.7644 29.0567 71.7633C24.229 73.7622 19.8421 76.6929 16.1474 80.3881C12.4527 84.0832 9.52239 88.4701 7.52407 93.2981C5.5257 98.1265 4.49843 103.301 4.501 108.526V108.81C4.49598 112.518 5.44019 116.165 7.24376 119.404C9.27049 121.468 11.6896 123.106 14.3588 124.221C17.028 125.336 19.8933 125.906 22.786 125.897H71.0665C72.5398 125.897 73.9532 126.482 74.995 127.524C76.0369 128.566 76.622 129.98 76.622 131.453C76.624 132.928 77.2114 134.342 78.2552 135.385C79.299 136.427 80.714 137.012 82.1892 137.012H82.3098L94.2302 136.709C94.2302 136.592 94.2068 136.487 94.2068 136.382C93.1762 136.028 92.2822 135.36 91.6496 134.473C91.017 133.586 90.6774 132.523 90.6782 131.433V131.177C90.6794 129.703 91.2649 128.291 92.3063 127.249C93.3482 126.208 94.7608 125.622 96.2337 125.621H107.987C113.765 125.621 119.306 123.326 123.392 119.24C127.478 115.154 129.773 109.613 129.773 103.835C129.793 96.2564 127.633 88.8323 123.549 82.4488ZM38.27 105.5C36.3859 105.5 34.5438 104.942 32.9771 103.896C31.41 102.85 30.1888 101.362 29.4675 99.6212C28.7466 97.8807 28.5579 95.9654 28.9256 94.1174C29.2932 92.2695 30.2005 90.5721 31.5333 89.24C32.8658 87.9079 34.5636 87.0014 36.4115 86.6342C38.2595 86.2673 40.1748 86.4568 41.9154 87.1788C43.6556 87.9009 45.1429 89.1225 46.1882 90.6899C47.234 92.2574 47.7915 94.0995 47.7899 95.9837C47.7868 98.507 46.7827 100.926 44.9981 102.71C43.2132 104.494 40.7937 105.497 38.27 105.5ZM69.343 105.5C67.4592 105.499 65.6179 104.939 64.052 103.892C62.4865 102.845 61.266 101.357 60.5463 99.6158C59.8262 97.8752 59.6387 95.9599 60.0071 94.1124C60.3755 92.2652 61.2839 90.5686 62.6168 89.2372C63.9497 87.9059 65.6471 86.9999 67.495 86.6338C69.343 86.2673 71.2579 86.4575 72.9977 87.1796C74.7379 87.9017 76.2244 89.1237 77.2698 90.6907C78.3151 92.2578 78.8723 94.0999 78.8707 95.9837C78.8707 97.2341 78.624 98.4728 78.1451 99.6278C77.6662 100.783 76.9644 101.833 76.0793 102.716C75.1946 103.6 74.1442 104.301 72.9883 104.778C71.8325 105.256 70.5938 105.501 69.343 105.5ZM98.9376 105.5C97.0538 105.498 95.2133 104.938 93.6478 103.89C92.0826 102.843 90.863 101.354 90.1436 99.6131C89.4243 97.8725 89.2372 95.9572 89.606 94.11C89.9752 92.2632 90.8836 90.5666 92.2165 89.2361C93.5497 87.9052 95.2471 86.9995 97.0951 86.6334C98.9427 86.2677 100.858 86.4575 102.597 87.18C104.337 87.9021 105.823 89.124 106.869 90.6911C107.914 92.2582 108.471 94.0999 108.469 95.9837C108.469 97.2344 108.223 98.4732 107.743 99.6286C107.264 100.784 106.562 101.834 105.677 102.718C104.791 103.602 103.74 104.302 102.584 104.78C101.428 105.257 100.189 105.502 98.9376 105.5Z" fill="#D7E8F0"/>
<path d="M129.774 103.838C129.774 109.616 127.478 115.158 123.393 119.244C119.307 123.329 113.765 125.625 107.987 125.625H96.242C94.7694 125.626 93.3576 126.211 92.3161 127.252C91.2746 128.292 90.6884 129.704 90.6864 131.176V131.433C90.6856 132.523 91.0253 133.585 91.6579 134.473C92.2904 135.36 93.1845 136.027 94.215 136.382C94.7578 136.571 95.3289 136.665 95.9035 136.662L94.2384 136.709L82.3103 137.012H82.1819C80.7074 137.012 79.2932 136.427 78.2494 135.386C77.2056 134.344 76.6178 132.931 76.6147 131.457C76.6147 129.983 76.0296 128.57 74.9873 127.528C73.9454 126.486 72.5324 125.901 71.0591 125.901H22.7865C17.0084 125.901 11.4669 123.606 7.38111 119.52C3.29536 115.434 1 109.893 1 104.115V103.831C1.00051 98.6084 2.02957 93.438 4.02836 88.6134C6.02715 83.7893 8.95662 79.4059 12.6494 75.7139C16.3422 72.0219 20.7261 69.0935 25.5507 67.0954C30.3752 65.0977 35.5464 64.0694 40.7681 64.0702H89.9978C100.545 64.071 110.661 68.261 118.12 75.7186C125.579 83.1762 129.771 93.2905 129.774 103.838Z" stroke="black" stroke-width="1.5" stroke-miterlimit="10"/>
<path d="M253.031 117.657C253.008 117.657 252.996 117.634 252.973 117.634C243.749 114.856 239.259 109.184 237.314 103.745C237.314 103.745 237.314 103.745 237.314 103.722C235.793 99.481 235.828 95.3765 236.376 92.9256C236.705 91.6273 236.913 90.3018 236.999 88.9651C237.127 85.1797 234.35 86.1056 226.405 87.689C222.756 88.4282 220.422 87.0432 219.255 85.0746C219.141 84.9031 219.042 84.7222 218.959 84.5339C218.415 83.3881 218.189 82.1167 218.305 80.8535" stroke="black" stroke-width="1.5" stroke-miterlimit="10"/>
<path d="M213.733 102.656C213.593 102.457 213.449 102.267 213.309 102.115C212.08 100.71 210.672 100.874 208.47 101.726C207.917 101.936 206.524 101.878 205.423 101.492C204.498 101.162 203.805 100.59 204.12 99.7339C204.201 99.5577 204.321 99.4028 204.472 99.2807C204.622 99.1585 204.799 99.0725 204.988 99.0297C205.355 98.9371 205.726 98.8628 206.1 98.808C209.878 97.9637 209.034 93.5909 208.575 90.8481C207.462 83.9465 208.94 75.8232 213.652 70.4428C218.842 64.5254 227.331 63.2921 234.501 65.9999C240.807 68.3808 246.74 73.5473 247.969 80.4529C247.969 80.4762 247.969 80.4995 247.993 80.5229C248.016 80.5462 247.993 80.5813 247.993 80.6046C248.72 84.9191 247.993 89.5954 247.148 93.8632C246.643 96.392 246.833 98.4578 247.537 100.166C249.743 105.756 257.186 107.705 263.185 110.472C277.381 117.011 288.947 128.193 296.744 141.79C302.899 152.574 304.357 159.207 304.019 163.3C303.548 168.797 299.821 169.692 299.821 169.692C296.67 171.555 291.826 169.552 290.854 166.058C290.839 166.021 290.831 165.981 290.83 165.941C290.052 162.95 288.535 159.106 286.496 154.9" stroke="black" stroke-width="1.5" stroke-miterlimit="10"/>
<path d="M218.289 80.8535C218.289 82.9349 217.308 84.9891 215.176 85.8644C212.78 86.8526 211.807 89.4553 211.457 91.988C210.967 95.6967 211.765 99.4607 213.717 102.652C215.526 105.655 218.471 108.966 222.642 108.966C230.283 108.966 233.559 105.282 233.559 105.282" stroke="black" stroke-width="1.5" stroke-miterlimit="10"/>
<path d="M226.221 93.1823C226.939 93.1823 227.521 92.6007 227.521 91.8829C227.521 91.1655 226.939 90.5835 226.221 90.5835C225.504 90.5835 224.922 91.1655 224.922 91.8829C224.922 92.6007 225.504 93.1823 226.221 93.1823Z" fill="black"/>
<path d="M214.793 93.941C215.51 93.941 216.092 93.3594 216.092 92.6416C216.092 91.9242 215.51 91.3422 214.793 91.3422C214.075 91.3422 213.493 91.9242 213.493 92.6416C213.493 93.3594 214.075 93.941 214.793 93.941Z" fill="black"/>
<path d="M220.397 90.6613C220.397 90.6613 219.747 95.7928 220.008 96.497C220.269 97.2012 221.895 96.3958 221.895 96.3958" stroke="black" stroke-width="1.5" stroke-miterlimit="10"/>
<path d="M222.806 100.886C225.587 101.909 228.458 100.605 229.299 98.1039" stroke="black" stroke-width="1.5" stroke-miterlimit="10"/>
<path d="M232.947 93.761C234.834 91.0898 234.146 87.3581 231.41 85.4249C228.675 83.4921 224.927 84.0905 223.04 86.7617C221.153 89.4324 221.841 93.1646 224.577 95.0973C227.313 97.0301 231.061 96.4318 232.947 93.761Z" stroke="black" stroke-width="1.5" stroke-miterlimit="10"/>
<path d="M217.751 94.5246C219.638 91.8534 218.95 88.1213 216.214 86.1885C213.478 84.2557 209.731 84.8541 207.844 87.5253C205.957 90.1961 206.645 93.9282 209.381 95.8609C212.117 97.7937 215.864 97.1954 217.751 94.5246Z" stroke="black" stroke-width="1.5" stroke-miterlimit="10"/>
<path d="M212.691 86.8994C213.772 86.8963 214.814 87.302 215.607 88.035C216.401 88.7683 216.888 89.7744 216.971 90.8521C217.014 91.3874 216.949 91.9258 216.779 92.4351C216.609 92.9447 216.338 93.4143 215.983 93.8166C215.623 94.2243 215.185 94.555 214.694 94.7888C214.203 95.023 213.67 95.1553 213.127 95.1782H212.909C211.828 95.1813 210.786 94.7752 209.992 94.0411C209.198 93.3069 208.711 92.2997 208.63 91.2217C208.587 90.6863 208.653 90.1475 208.824 89.6382C208.994 89.129 209.265 88.659 209.622 88.2571C209.982 87.8506 210.419 87.5207 210.909 87.2865C211.399 87.0527 211.931 86.9196 212.473 86.8955H212.691V86.8994ZM212.691 86.0162H212.431C211.775 86.0454 211.132 86.2065 210.539 86.4889C209.947 86.7718 209.417 87.1705 208.981 87.6619C208.546 88.1533 208.214 88.7271 208.004 89.3492C207.795 89.9713 207.712 90.6292 207.762 91.2839C207.868 92.581 208.456 93.7909 209.412 94.6744C210.367 95.5579 211.62 96.0501 212.921 96.0536H213.182C213.837 96.024 214.481 95.8634 215.073 95.5805C215.666 95.2981 216.195 94.8993 216.631 94.4079C217.066 93.9166 217.398 93.3427 217.608 92.7207C217.817 92.0986 217.899 91.4407 217.85 90.7859C217.745 89.4888 217.156 88.2789 216.201 87.3954C215.245 86.5119 213.993 86.0197 212.691 86.0162Z" fill="white"/>
<path d="M221.993 90.5798L218.803 90.7432" stroke="black" stroke-width="1.5" stroke-miterlimit="10"/>
<path opacity="0.53" d="M232.188 93.2244C233.786 90.9625 233.203 87.8019 230.887 86.1656C228.571 84.5293 225.397 85.0362 223.799 87.2981C222.201 89.5604 222.783 92.7206 225.1 94.3573C227.416 95.9936 230.59 95.4867 232.188 93.2244Z" fill="white"/>
<path opacity="0.53" d="M216.993 93.9882C218.591 91.7263 218.008 88.5657 215.692 86.9294C213.375 85.2927 210.202 85.8 208.604 88.0619C207.006 90.3242 207.588 93.4844 209.905 95.1207C212.221 96.7574 215.394 96.2501 216.993 93.9882Z" fill="white"/>
<path d="M224.919 108.966L232.003 125.796C232.003 125.796 245.671 129.472 248.993 116.541" stroke="black" stroke-width="1.5" stroke-miterlimit="10"/>
<path d="M90.5002 196.193C95.8507 194.506 98.6511 188.264 96.7556 182.252C94.8598 176.24 88.9856 172.733 83.6351 174.42C78.285 176.107 75.4842 182.349 77.3801 188.361C79.2755 194.373 85.1497 197.88 90.5002 196.193Z" fill="#D7E8F0"/>
<path d="M223.026 230.282C222.874 216.583 220.458 203.049 219.346 197.524" stroke="black" stroke-width="1.5" stroke-miterlimit="10"/>
</svg>
