<svg width="35" height="35" viewBox="0 0 35 35" fill="none" xmlns="http://www.w3.org/2000/svg">
<path fill-rule="evenodd" clip-rule="evenodd" d="M35 17.5C35 27.1649 27.1648 35 17.4998 35C7.83503 35 0 27.1649 0 17.5C0 7.8349 7.83503 0 17.4998 0C27.1648 0 35 7.8349 35 17.5Z" fill="#0088CC"/>
<path fill-rule="evenodd" clip-rule="evenodd" d="M7.08877 17.0665C11.903 15.0481 17.7263 12.1752 22.7728 10.2342C27.4318 8.52603 27.3539 8.99184 26.655 13.6505C26.1118 17.3778 25.4907 21.1043 24.8696 24.8315C24.6361 26.6169 23.7045 27.5486 21.7634 26.4621L15.7074 22.1915C14.8528 21.4926 15.0863 20.9494 15.7852 20.2505L21.375 14.9704C22.8507 13.4952 22.1518 12.9517 20.4434 14.1163L12.7569 19.3188C11.6696 20.0948 10.5052 20.0948 9.26281 19.7064L6.62289 18.7748C4.91474 18.1537 6.23466 17.4548 7.08877 17.0665Z" fill="white"/>
</svg>
