<svg width="45" height="45" viewBox="0 0 45 45" fill="none" xmlns="http://www.w3.org/2000/svg">
<path fill-rule="evenodd" clip-rule="evenodd" d="M45 22.4999C45 34.9263 34.9262 45 22.4998 45C10.0736 45 0 34.9263 0 22.4999C0 10.0734 10.0736 -1.56203e-06 22.4998 -1.56203e-06C34.9262 -1.56203e-06 45 10.0734 45 22.4999Z" fill="#0088CC"/>

<path fill-rule="evenodd" clip-rule="evenodd" d="M2.11424 10.9426C8.30402 8.34758 15.7911 4.6539 22.2795 2.15824C28.2695 -0.0379338 28.1694 0.56097 27.2708 6.55068C26.5724 11.3429 25.7738 16.1341 24.9753 20.9263C24.6751 23.2218 23.4773 24.4196 20.9816 23.0227L13.1953 17.532C12.0966 16.6334 12.3968 15.935 13.2954 15.0363L20.4823 8.24771C22.3795 6.35104 21.4809 5.65227 19.2844 7.14957L9.40177 13.8385C8.00383 14.8362 6.50681 14.8362 4.90943 14.3369L1.51524 13.1391C-0.68094 12.3405 1.0161 11.4419 2.11424 10.9426" fill="white"/>
</svg>


