<svg width="292" height="227" viewBox="0 0 292 227" fill="none" xmlns="http://www.w3.org/2000/svg">
<path d="M243.209 220.692H238.882L231.149 150.123H238.36L243.209 220.692Z" fill="#1E1C1B"/>
<path d="M170.851 220.692H166.549L173.014 150.123H180.225L170.851 220.692Z" fill="#1E1C1B"/>
<path d="M170.427 111.365C165.877 124.108 155.235 140.158 179.18 153.859C183.581 156.398 217.149 154.986 223.092 151.321C228.911 147.703 234.008 136.445 228.239 123.438C225.852 118.095 222.793 111.556 222.793 111.556L170.427 111.365Z" fill="#100F0D"/>
<path d="M180.946 7.16286C173.635 16.6967 175.724 44.8429 175.948 53.5378C176.196 62.2097 194.174 54.592 194.174 54.592L195.367 7.04337L180.946 7.16286Z" fill="#2A1412"/>
<path d="M210.063 7.52367C215.459 15.7392 215.309 43.9333 215.086 52.629C214.838 61.3238 195.79 54.593 195.79 54.593L194.597 7.04431L210.063 7.52367Z" fill="#581C19"/>
<path d="M195.989 71.9359L203.797 45.299C203.797 45.299 202.006 31.9081 202.006 30.1355L194.646 29.7767V29.7527L194.596 29.7767L194.571 29.7527V29.7767L187.186 30.1355C187.186 31.4287 186.515 38.0412 185.918 42.2811C185.72 43.8852 180.598 45.5383 180.598 45.5383L187.758 57.3001L195.989 71.9359Z" fill="#DCA296"/>
<path d="M202.156 30.1364L194.921 31.5503L196.189 70.8347L207.8 45.3719C207.8 45.3719 203.548 43.2155 203.35 41.8266C202.852 37.9932 202.156 31.4297 202.156 30.1364Z" fill="#E9C3B5"/>
<path d="M184.067 44.0613C183.996 43.9178 183.91 43.7712 183.806 43.6226C183.865 43.633 183.924 43.6413 183.982 43.6413C185.272 43.6381 186.046 40.7426 186.505 37.6101C186.319 39.2414 186.115 40.8892 185.919 42.2815C185.842 42.9011 185.033 43.5268 184.067 44.0613Z" fill="url(#paint0_linear_134_2920)"/>
<path d="M195.167 29.8035L194.796 29.7846L194.802 29.5509L195.162 29.5727L195.167 29.8035Z" fill="url(#paint1_linear_134_2920)"/>
<path d="M186.988 32.944C187.103 31.2991 187.137 30.0828 187.137 29.9204L194.473 29.5369H194.522H194.572L194.803 29.5505L194.797 29.7841L194.647 29.7769V29.753L194.597 29.7769L194.572 29.753V29.7769L187.187 30.1357C187.187 30.5704 187.111 31.6025 186.988 32.944Z" fill="url(#paint2_linear_134_2920)"/>
<path d="M202.853 37.6869C202.486 34.4107 202.155 31.0247 202.155 30.1357L202.006 30.1647C202.006 30.1543 202.006 30.144 202.006 30.1357L195.167 29.803L195.162 29.5722L202.529 30.0162C202.529 30.5879 202.601 34.6926 202.853 37.6869Z" fill="url(#paint3_linear_134_2920)"/>
<path d="M185.396 47.8138C182.067 47.8138 185.238 46.4298 184.067 44.0605C185.033 43.526 185.842 42.9003 185.919 42.2807C186.115 40.8884 186.319 39.2406 186.505 37.6093C186.74 35.9935 186.892 34.3196 186.988 32.9433C187.111 31.6019 187.187 30.5697 187.187 30.1351L194.572 29.7763V29.7523L194.597 29.7763L194.647 29.7523V29.7763L194.797 29.7835L195.168 29.8024L202.007 30.1351C202.007 30.1433 202.007 30.1537 202.007 30.1641L194.921 31.5489L195.317 43.8215C191.311 45.8996 186.968 47.8138 185.396 47.8138Z" fill="url(#paint4_linear_134_2920)"/>
<path d="M195.317 43.8218L194.921 31.5492L202.007 30.1644L202.156 30.1354C202.156 31.0244 202.486 34.4104 202.853 37.6866C202.897 38.2053 202.947 38.6897 203.002 39.1182C202.127 40.0186 198.852 41.9845 195.317 43.8218Z" fill="url(#paint5_linear_134_2920)"/>
<path d="M209.274 19.8297C207.984 29.4697 199.864 37.6967 195.036 37.6967C189.651 37.6913 182.72 32.4139 180.645 20.0905C178.959 9.95788 181.602 1.32131 194.767 1.32131C207.119 1.32131 210.627 9.72606 209.274 19.8297Z" fill="#DCA296"/>
<path d="M209.274 19.8248C210.196 9.70255 207.141 1.36647 194.833 1.32176V37.6681L195.036 37.6918C199.864 37.6918 208.119 32.5235 209.274 19.8248Z" fill="#E9C3B5"/>
<path d="M195.093 7.09723C199.042 10.8317 205.315 11.5575 206.855 18.0731C207.531 20.9697 208.788 24.2748 204.761 32.0413C203.036 35.363 206.867 35.8445 206.867 35.8445L213.002 15.9845C213.002 15.9845 212.014 6.47656 205.125 2.13605C200.694 -0.663937 194.833 -0.0493813 194.595 0.544151C194.367 1.13476 195.093 7.09723 195.093 7.09723Z" fill="#581C19"/>
<path d="M194.995 7.04064C191.91 10.3179 184.884 11.5603 183.407 18.0727C182.87 20.3965 181.803 22.8294 184.891 30.9813C187.364 37.5075 183.364 36.758 183.364 36.758L177.414 18.6164C177.414 18.6164 177.561 7.70392 184.797 2.75311C189.301 -0.331661 194.91 -0.371067 194.948 0.461475C194.978 1.10318 194.995 7.04064 194.995 7.04064Z" fill="#2A1412"/>
<path d="M179.379 140.062C178.409 132.42 193.701 120.97 202.329 135.486C206.209 142.002 206.506 194.893 207.178 198.51C208.322 204.547 213.121 220.381 210.61 223.95C207.004 229.075 200.315 228.094 198.948 207.613C197.256 182.414 181.318 155.153 179.379 140.062Z" fill="#DCA296"/>
<path d="M199.187 210.886C199.48 214.762 200.387 219.81 206.941 218.708C209.727 218.241 210.816 216.021 209.848 209.367C211.423 212.989 212.359 216.031 212.515 218.121C212.918 223.223 211.666 226.877 208.88 226.997C207.575 227.055 200.559 226.401 199.187 220.225C198.459 216.958 199.187 210.886 199.187 210.886Z" fill="#100F0D"/>
<path d="M224.608 134.6C221.5 127.462 207.874 118.024 203.796 134.265C202.006 141.57 215.955 193.432 215.707 197.144C215.459 200.833 217.472 220.548 220.928 223.303C225.876 227.231 236.817 224.74 228.562 205.816C217.82 181.168 230.701 148.613 224.608 134.6Z" fill="#E9C3B5"/>
<path d="M228.994 206.916C231.418 216.258 228.885 215.731 224.935 216.577C221.17 217.378 219.663 217.89 216.755 210.069C216.724 214.363 217.18 215.55 217.632 217.589C218.733 222.6 224.616 227.482 228.423 226.221C230.82 225.416 232.472 219.321 231.779 215.32C230.922 210.36 228.994 206.916 228.994 206.916Z" fill="#211E1E"/>
<path d="M269.616 155.129C269.616 156.208 268.398 157.069 266.88 157.069H63.7556C62.2382 157.069 61.0195 156.208 61.0195 155.129V117.785C61.0195 116.731 62.2382 115.844 63.7556 115.844H266.88C268.398 115.844 269.616 116.731 269.616 117.785V155.129Z" fill="#7FA6DB"/>
<path d="M204.639 42.2694C215.914 48.8787 217.278 45.4766 222.087 48.5718C226.898 51.663 233.047 65.2421 233.047 65.2421C233.047 65.2421 219.536 69.98 218.732 72.3006C217.931 74.6127 215.787 89.529 215.787 94.9345C215.787 99.012 217.532 105.312 217.532 105.312L189.878 105.019L195.272 72.5021C195.272 72.5021 201.108 60.3525 205.119 44.226L204.639 42.2694Z" fill="#1E1C1B"/>
<path d="M183.427 41.6688C174.831 48.0484 170.835 44.9239 166.47 48.5721C164.89 49.8926 157.847 70.3817 157.847 70.3817C157.847 70.3817 169.838 71.1355 170.641 73.4612C171.447 75.7682 176.254 93.9128 176.254 97.0079C176.254 100.282 174.248 104.441 174.248 104.441L197.391 104.873L196.643 69.6955C196.643 69.6955 187.942 60.7313 183.932 44.6101L183.427 41.6688Z" fill="#100F0D"/>
<path d="M203.73 40.1699C203.73 39.8726 209.545 43.4969 209.545 43.4969L210.636 51.1843L205.119 50.5L208.733 54.658L196.191 70.2729C196.191 70.2729 200.917 52.6293 202.82 48.5725C204.729 44.5221 203.73 40.1699 203.73 40.1699Z" fill="white"/>
<path d="M185.554 40.6942C185.554 40.3987 179.739 44.1968 179.739 44.1968L176.648 49.4982L184.894 50.4992L182.223 54.0415L196.927 70.7118C196.927 70.7118 188.913 52.2875 187.009 48.2235C185.103 44.1779 185.554 40.6942 185.554 40.6942Z" fill="white"/>
<path d="M165.864 49.916C158.048 67.759 152.656 81.1398 151.566 90.947C150.225 102.991 157.94 99.9226 160.836 99.8768C171.741 99.7012 167.868 89.976 172.286 76.0639C172.966 73.6602 173.125 69.5774 173.125 69.5774L165.864 49.916Z" fill="#100F0D"/>
<path d="M166.94 45.5722L166.844 45.5222H166.837L166.94 45.5722ZM166.73 45.6949L166.732 45.5172H166.73V45.6949Z" fill="#CF1E25"/>
<path d="M229.655 56.3558C233.123 63.694 236.762 84.3421 238.218 88.5559C240.251 94.4217 229.381 97.0676 229.381 97.0676C229.381 97.0676 215.566 93.1969 214.881 93.1389C214.195 93.0752 217.027 86.1314 214.654 84.1778C220.24 83.9324 226.323 84.6247 226.323 84.6247L218.132 68.2477L229.655 56.3558Z" fill="#1E1C1B"/>
<path d="M264.071 225.267H272.053V115.533H264.071V225.267Z" fill="#7FA6DB"/>
<path d="M291.638 105.916C291.638 106.179 291.11 106.382 290.455 106.382H44.0808C43.4299 106.382 42.9033 106.179 42.9033 105.916L55.1429 100.278C56.3558 99.8869 56.807 99.8017 57.4631 99.8017L272.305 99.8236C272.968 99.8236 273.886 99.9399 275.501 100.322L291.638 105.916Z" fill="#AECCE5"/>
<path d="M60.3232 225.267H139.57V136.302H60.3232V225.267Z" fill="#7FA6DB"/>
<path d="M70.6855 78.7623V91.4661H122.613V78.7623H70.6855Z" fill="#182242"/>
<path d="M117.868 84.9968H122.613V78.7629H70.6855V84.9968H110.742H117.868Z" fill="#273D7E"/>
<path d="M115.503 88.2907L115.245 88.4746H112.672L112.415 88.2907V81.464L112.672 81.2697H115.245L115.503 81.464V88.2907Z" fill="#AECCE5"/>
<path d="M115.503 88.2907V81.464L115.245 81.2697H113.951V88.4746H115.245L115.503 88.2907Z" fill="white"/>
<path d="M79.6852 88.2907L79.2577 88.4746H74.9732L74.5449 88.2907V81.464L74.9732 81.2697H79.2577L79.6852 81.464V88.2907Z" fill="#AECCE5"/>
<path d="M79.6849 88.2907V81.464L79.2575 81.2697H77.0947V88.4746H79.2575L79.6849 88.2907Z" fill="white"/>
<path d="M70.6855 66.0837V78.7898H122.613V66.0837H70.6855Z" fill="#226931"/>
<path d="M117.868 72.3201H122.613V66.084H70.6855V72.3201H110.742H117.868Z" fill="#3E9F3B"/>
<path d="M115.503 76.1473L115.245 76.3416H112.672L112.415 76.1473V69.3309L112.672 69.1284H115.245L115.503 69.3309V76.1473Z" fill="#AECCE5"/>
<path d="M115.503 76.1473V69.3309L115.245 69.1284H113.951V76.3416H115.245L115.503 76.1473Z" fill="white"/>
<path d="M79.6852 76.1473L79.2577 76.3416H74.9732L74.5449 76.1473V69.3309L74.9732 69.1284H79.2577L79.6852 69.3309V76.1473Z" fill="#AECCE5"/>
<path d="M79.6849 76.1473V69.3309L79.2575 69.1284H77.0947V76.3416H79.2575L79.6849 76.1473Z" fill="white"/>
<path d="M70.6855 90.7533V103.455H122.613V90.7533H70.6855Z" fill="#6A1317"/>
<path d="M117.868 96.939H122.613V90.7133H70.6855V96.939H110.742H117.868Z" fill="#A51C21"/>
<path d="M115.503 100.38L115.245 100.574H112.672L112.415 100.38V93.5636L112.672 93.3693H115.245L115.503 93.5636V100.38Z" fill="#AECCE5"/>
<path d="M115.503 100.38V93.5636L115.245 93.3693H113.951V100.574H115.245L115.503 100.38Z" fill="white"/>
<path d="M79.6852 100.38L79.2577 100.574H74.9732L74.5449 100.38V93.5636L74.9732 93.3693H79.2577L79.6852 93.5636V100.38Z" fill="#AECCE5"/>
<path d="M79.6849 100.38V93.5636L79.2575 93.3693H77.0947V100.574H79.2575L79.6849 100.38Z" fill="white"/>
<path d="M166.107 100.225L170.105 97.599H219.724L227.359 99.3501L166.107 100.225Z" fill="white"/>
<path d="M224.336 81.1554C226.59 82.3262 234.036 96.9013 231.871 98.4661C229.153 100.433 214.501 97.7134 211.703 95.2328C207.455 91.469 202.064 82.9727 207.174 84.5915L224.336 81.1554Z" fill="#100F0D"/>
<path d="M212.516 89.1484C212.716 90.0238 213.077 90.2767 212.107 91.8465C211.139 93.4173 207.144 95.8503 205.78 95.9802C204.415 96.1114 204.768 95.4188 205.48 94.6661C206.191 93.9071 210.055 90.7901 209.338 90.9149C208.626 91.0429 207.459 92.3663 206.816 92.9944C206.165 93.6276 204.937 95.3845 204.161 95.9533C203.381 96.521 201.95 96.4616 202.527 95.3315C203.113 94.2054 204.405 92.3186 204.854 91.4347C205.307 90.5583 206.598 88.9916 206.791 88.611C206.99 88.2326 205.3 88.9935 204.78 89.6829C204.262 90.3754 204.058 90.7475 203.669 91.5013C203.284 92.2521 201.114 95.5913 200.269 95.9751C199.426 96.3504 198.633 96.2892 199.339 94.5913C200.049 92.8957 200.95 90.8276 201.404 89.9469C201.852 89.0686 203.014 87.4373 203.014 87.4373C203.014 87.4373 201.041 89.0686 200.073 91.1124C199.346 92.6449 198.758 95.4085 197.848 95.2858C196.937 95.1663 197.442 92.2811 197.96 90.966C198.474 89.6485 199.599 87.2957 200.245 86.3537C200.897 85.4089 202.219 84.2455 203.848 84.5543C205.477 84.8598 206.516 84.8838 208.993 86.2228C210.515 87.0431 212.516 89.1484 212.516 89.1484Z" fill="#DCA296"/>
<path d="M0 156.635V156.103H0.276282V155.837H0.552565V155.571H0.828847V155.305H1.10513V155.038H1.38141V154.772H1.65769V154.506H2.21026V154.24H2.48654V153.974H2.76282V153.708H3.03911V153.441H3.31539V153.175H3.59167V152.909H3.86795V152.643H4.14423V152.377H4.42052V152.111H4.6968V151.845H4.97308V151.578H5.24936V151.312H5.52565V151.046H6.07821V150.78H6.35449V150.514H6.63077V150.248H6.90706V149.981H7.18334V149.715H7.45962V149.449H7.7359V149.183H8.01219V148.917H8.28847V148.651H8.56475V148.384H8.84103V148.118H9.11732V147.852H9.66988V147.586H9.94616V147.32H10.2224V147.054H10.4987V146.788H10.775V146.521H11.0513V146.255H11.3276V145.989H11.6039V145.723H11.8801V145.457H12.1564V145.191H12.4327V144.924H12.709V144.658H12.9853V144.392H13.5378V144.126H13.8141V143.86H14.0904V143.594H14.3667V143.327H14.643V143.061H14.9192V142.795H15.1955V142.529H15.4718V142.263H15.7481V141.997H16.0244V141.731H16.3007V141.464H16.5769V141.198H16.8532V140.932H17.4058V140.666H17.6821V140.4H17.9583V140.134H18.2346V139.867H18.5109V139.601H18.7872V139.335H19.0635V139.069H19.3398V138.803H19.616V138.537H19.8923V138.27H20.1686V138.004H20.4449V137.738H20.7212V137.472H21.2737V137.206H21.55V136.94H21.8263V136.673H22.1026V136.407H22.3789V136.141H22.6551V135.875H22.9314V135.609H23.2077V135.343H23.484V135.077H23.7603V134.81H24.0366V134.544H24.3128V134.278H24.5891V134.012H25.1417V133.746H25.418V133.48H25.6943V133.213H25.9705V132.947H26.2468V132.681H26.5231V132.415H26.7994V132.149H27.0757V131.883H27.3519V131.616H27.6282V131.35H27.9045V131.084H28.1808V130.818H28.7334V130.552H29.0096V130.286H29.2859V130.02H29.5622V129.753H29.8385V129.487H30.1148V129.221H30.3911V128.955H30.6673V128.689H30.9436V128.423H31.2199V128.156H31.4962V127.89H31.7725V127.624H32.0487V127.358H32.6013V127.092H32.8776V126.826H33.1539V126.559H33.4302V126.293H33.7064V126.027H33.9827V125.761H34.259V125.495H34.5353V125.229H34.8116V124.963H35.0878V124.696H35.3641V124.43H35.6404V124.164H35.9167V123.898H36.4693V123.632H36.7455V123.366H37.0218V123.099H37.2981V122.833H37.5744V122.567H37.8507V122.301H38.127V122.035H38.4032V121.769H38.6795V121.502H38.9558V121.236H39.2321V120.97H39.5084V120.704H39.7846V120.438H40.3372V120.172H40.6135V119.906H40.8898V119.639H41.1661V119.373H41.4423V119.107H41.7186V118.841H41.9949V118.575H42.2712V118.309H42.5475V118.042H42.8238V117.776H43.1V117.51H43.3763V117.244H43.6526V116.978H44.2052V116.712H44.4814V116.445H44.7577V116.179H45.034V115.913H45.3103V115.647H45.5866V115.381H45.8629V115.115H46.1391V114.849H46.4154V114.582H46.6917V114.316H46.968V114.05H47.2443V113.784H47.5206V113.518H48.0731V113.252H48.3494V112.985H48.6257V112.719H48.902V112.453H75.4251V112.719H138.97V112.985H169.914V113.518H169.637V114.316H169.361V115.115H169.085V115.647H168.808V115.913H63.2686V116.179H62.4398V116.445H61.8872V116.712H61.611V116.978H61.3347V117.51H61.0584V136.407H60.5058V156.369H24.3128V156.635H0ZM271.862 131.616V115.647H264.126V115.913H224.617V115.647H224.341V115.115H224.065V114.316H223.789V113.784H223.512V113.252H265.507V113.518H288.991V113.784H288.715V114.05H288.439V114.316H288.162V114.849H287.886V115.115H287.61V115.381H287.334V115.647H287.057V115.913H286.781V116.179H286.505V116.445H286.228V116.712H285.952V116.978H285.676V117.244H285.4V117.776H285.123V118.042H284.847V118.309H284.571V118.575H284.294V118.841H284.018V119.107H283.742V119.373H283.466V119.639H283.189V119.906H282.913V120.438H282.637V120.704H282.361V120.97H282.084V121.236H281.808V121.502H281.532V121.769H281.255V122.035H280.979V122.301H280.703V122.567H280.427V122.833H280.15V123.366H279.874V123.632H279.598V123.898H279.321V124.164H279.045V124.43H278.769V124.696H278.493V124.963H278.216V125.229H277.94V125.495H277.664V125.761H277.387V126.293H277.111V126.559H276.835V126.826H276.559V127.092H276.282V127.358H276.006V127.624H275.73V127.89H275.453V128.156H275.177V128.423H274.901V128.955H274.625V129.221H274.348V129.487H274.072V129.753H273.796V130.02H273.519V130.286H273.243V130.552H272.967V130.818H272.691V131.084H272.414V131.35H272.138V131.616" fill="url(#paint6_linear_134_2920)"/>
<path d="M224.784 115.844H168.694C169.066 114.921 169.43 114.013 169.775 113.116L223.626 113.342C223.946 114.035 224.343 114.888 224.784 115.844Z" fill="url(#paint7_linear_134_2920)"/>
<path d="M139.57 155.771V136.302H61.0195V117.785C61.0195 116.73 62.2382 115.844 63.7556 115.844H168.694H224.784H264.071V139.905L249.674 155.201L139.57 155.771Z" fill="url(#paint8_linear_134_2920)"/>
<path d="M264.071 139.905V115.533H272.053V131.423L264.071 139.905Z" fill="url(#paint9_linear_134_2920)"/>
<path d="M60.3232 156.183V136.301H139.57V155.77L60.3232 156.183Z" fill="url(#paint10_linear_134_2920)"/>
<path d="M292 115.794C292 116.541 291.486 117.14 290.853 117.14H43.419C42.7866 117.14 42.2686 116.541 42.2686 115.794V107.036C42.2686 106.292 42.7866 105.693 43.419 105.693H290.853C291.486 105.693 292 106.292 292 107.036V115.794Z" fill="#7FA6DB"/>
<path d="M224.69 103.715H161.621V99.0447H224.69V103.715Z" fill="#7FA6DB"/>
<path d="M163.049 84.1174C160.794 85.2861 150.457 96.8858 152.839 98.125C159.891 101.807 168.032 98.3808 176.415 97.9472C182.179 97.6489 185.76 83.0237 180.647 84.6414L163.049 84.1174Z" fill="#100F0D"/>
<path d="M176.539 89.6995C176.339 90.5696 175.653 91.1549 176.622 92.7249C177.592 94.2958 181.63 96.3606 182.995 96.4916C184.36 96.6218 183.411 95.8502 182.699 95.0943C181.988 94.3384 178.905 91.3441 179.622 91.4657C180.334 91.5969 181.502 92.9174 182.146 93.5474C182.796 94.1784 184.089 95.8387 184.863 96.4115C185.644 96.9731 187.075 96.9169 186.497 95.7857C185.913 94.6596 183.766 92.9858 183.317 92.1021C182.862 91.2267 181.574 89.6588 181.378 89.2763C181.183 88.901 182.474 89.9042 182.995 90.5988C183.512 91.2879 184.133 91.7268 184.525 92.4806C184.906 93.2333 186.993 96.1113 187.836 96.4916C188.682 96.869 189.537 96.9574 188.831 95.2566C188.122 93.5639 186.847 92.2144 186.393 91.3358C185.944 90.4554 184.169 88.246 184.169 88.246C184.169 88.246 186.528 89.9468 187.498 91.9909C188.224 93.5234 189.413 96.0759 190.324 95.9532C191.234 95.8315 190.224 93.6304 189.707 92.3185C189.191 90.9949 189.106 90.0684 188.347 89.2066C186.902 87.5724 184.964 85.0521 183.334 85.3577C181.708 85.6664 181.656 85.5522 179.178 86.8913C177.658 87.7084 176.539 89.6995 176.539 89.6995Z" fill="#DCA296"/>
<path d="M262.501 91.6773C262.501 92.9709 261.363 94.0166 259.96 94.0166H200.692C199.291 94.0166 198.156 92.9709 198.156 91.6773V49.2221C198.156 47.9286 199.291 46.8797 200.692 46.8797H259.96C261.363 46.8797 262.501 47.9286 262.501 49.2221V91.6773Z" fill="#AECCE5"/>
<path d="M227.009 75.3748L222.104 104.079H240.313L234.009 75.3748H227.009Z" fill="#7FA6DB"/>
<defs>
<linearGradient id="paint0_linear_134_2920" x1="195.989" y1="47.7611" x2="190.102" y2="27.2754" gradientUnits="userSpaceOnUse">
<stop stop-color="#2A1513"/>
<stop offset="0.642857" stop-color="#231311"/>
<stop offset="1" stop-color="#231311"/>
</linearGradient>
<linearGradient id="paint1_linear_134_2920" x1="195.989" y1="47.761" x2="190.102" y2="27.2757" gradientUnits="userSpaceOnUse">
<stop stop-color="white"/>
<stop offset="0.642857" stop-color="#C4BDB4"/>
<stop offset="1" stop-color="#C4BDB4"/>
</linearGradient>
<linearGradient id="paint2_linear_134_2920" x1="195.989" y1="47.761" x2="190.102" y2="27.2753" gradientUnits="userSpaceOnUse">
<stop stop-color="#2A1513"/>
<stop offset="0.642857" stop-color="#231311"/>
<stop offset="1" stop-color="#231311"/>
</linearGradient>
<linearGradient id="paint3_linear_134_2920" x1="195.989" y1="47.761" x2="190.102" y2="27.2753" gradientUnits="userSpaceOnUse">
<stop stop-color="#581C19"/>
<stop offset="0.642857" stop-color="#411816"/>
<stop offset="1" stop-color="#411816"/>
</linearGradient>
<linearGradient id="paint4_linear_134_2920" x1="195.989" y1="47.7603" x2="190.102" y2="27.2746" gradientUnits="userSpaceOnUse">
<stop stop-color="#DCA296"/>
<stop offset="0.642857" stop-color="#A8786B"/>
<stop offset="1" stop-color="#A8786B"/>
</linearGradient>
<linearGradient id="paint5_linear_134_2920" x1="195.99" y1="47.7607" x2="190.102" y2="27.2749" gradientUnits="userSpaceOnUse">
<stop stop-color="#E9C3B5"/>
<stop offset="0.642857" stop-color="#B0917F"/>
<stop offset="1" stop-color="#B0917F"/>
</linearGradient>
<linearGradient id="paint6_linear_134_2920" x1="144.41" y1="208.904" x2="144.41" y2="119.711" gradientUnits="userSpaceOnUse">
<stop stop-color="white"/>
<stop offset="0.697802" stop-color="white"/>
<stop offset="0.956044" stop-color="#C5C5C6"/>
<stop offset="1" stop-color="#C5C5C6"/>
</linearGradient>
<linearGradient id="paint7_linear_134_2920" x1="144.41" y1="208.904" x2="144.41" y2="119.711" gradientUnits="userSpaceOnUse">
<stop stop-color="#100F0D"/>
<stop offset="0.697802" stop-color="#100F0D"/>
<stop offset="0.956044" stop-color="#100F0D"/>
<stop offset="1" stop-color="#100F0D"/>
</linearGradient>
<linearGradient id="paint8_linear_134_2920" x1="144.41" y1="208.904" x2="144.41" y2="119.711" gradientUnits="userSpaceOnUse">
<stop stop-color="#7FA6DB"/>
<stop offset="0.697802" stop-color="#7FA6DB"/>
<stop offset="0.956044" stop-color="#5D7EAB"/>
<stop offset="1" stop-color="#5D7EAB"/>
</linearGradient>
<linearGradient id="paint9_linear_134_2920" x1="144.411" y1="208.904" x2="144.411" y2="119.711" gradientUnits="userSpaceOnUse">
<stop stop-color="#7FA6DB"/>
<stop offset="0.697802" stop-color="#7FA6DB"/>
<stop offset="0.956044" stop-color="#5D7EAB"/>
<stop offset="1" stop-color="#5D7EAB"/>
</linearGradient>
<linearGradient id="paint10_linear_134_2920" x1="144.41" y1="208.903" x2="144.41" y2="119.711" gradientUnits="userSpaceOnUse">
<stop stop-color="#7FA6DB"/>
<stop offset="0.697802" stop-color="#7FA6DB"/>
<stop offset="0.956044" stop-color="#5D7EAB"/>
<stop offset="1" stop-color="#5D7EAB"/>
</linearGradient>
</defs>
</svg>
