<svg width="294" height="173" viewBox="0 0 294 173" fill="none" xmlns="http://www.w3.org/2000/svg">
<path d="M45.6086 171.924C45.6086 171.924 13.6535 178.475 3.48117 153.694C-9.71609 121.544 17.3973 97.1687 38.1922 101.71C59.7281 106.413 68.5637 84.2188 79.7141 62.0245C92.0239 37.5217 107.156 13.0186 145.313 24.7103C151.647 26.6511 161.321 24.4195 172.114 22.1879C196.166 17.215 225.782 12.2423 236.418 53.4346C240.082 67.6256 253.062 69.1883 271.909 78.1929C308.789 95.8156 291.926 172.222 265.573 172.521C239.22 172.822 45.6086 171.924 45.6086 171.924Z" fill="#EBF2F9"/>
<path d="M204.078 172.351H222.899V94.075H204.078V172.351Z" fill="#82B479"/>
<path d="M195.29 172.351H209.12V94.0748H195.29V172.351Z" fill="#A8D29F"/>
<path d="M205.524 164.059C205.524 165.961 204.141 167.505 202.437 167.505C200.733 167.505 199.35 165.961 199.35 164.059C199.35 162.155 200.733 160.613 202.437 160.613C204.141 160.613 205.524 162.155 205.524 164.059Z" fill="#82B479"/>
<path d="M231.684 172.351H250.505V94.0753H231.684V172.351Z" fill="#699DEE"/>
<path d="M222.897 172.351H236.726V94.0751H222.897V172.351Z" fill="#AFCDFB"/>
<path d="M233.13 164.059C233.13 165.961 231.749 167.505 230.044 167.505C228.339 167.505 226.957 165.961 226.957 164.059C226.957 162.155 228.339 160.613 230.044 160.613C231.749 160.613 233.13 162.155 233.13 164.059Z" fill="#699DEE"/>
<path d="M233.13 143.126H226.957V102.041H233.13V143.126Z" fill="white"/>
<path d="M258.969 172.351H277.789V94.075H258.969V172.351Z" fill="#D86713"/>
<path d="M250.183 172.351H264.011V94.0745H250.183V172.351Z" fill="#F1A34F"/>
<path d="M260.416 164.059C260.416 165.961 259.034 167.504 257.329 167.504C255.623 167.504 254.242 165.961 254.242 164.059C254.242 162.155 255.623 160.613 257.329 160.613C259.034 160.613 260.416 162.155 260.416 164.059Z" fill="#D86713"/>
<path d="M260.416 143.126H254.242V102.041H260.416V143.126Z" fill="white"/>
<path d="M205.291 143.652H199.116V102.567H205.291V143.652Z" fill="white"/>
<path d="M158.898 78.9063L165.534 166.97C165.534 166.97 166.23 172.308 162.672 172.318C156.822 172.332 133.558 172.318 133.558 172.318C133.558 172.318 137.961 171.206 137.907 168.705C137.844 165.759 130.151 78.0731 130.151 78.0731L158.898 78.9063Z" fill="#D86713"/>
<path d="M131.67 170.72C132.821 170.723 155.041 170.802 160.737 170.72C163.22 170.685 163.655 168.256 163.676 166.684C163.686 165.931 163.6 165.373 163.6 165.373L163.429 163.084L162.988 157.251L162.6 152.097L162.1 145.474L161.68 139.883L156.965 77.3083L128.218 76.4754C128.218 76.4754 131.458 113.171 133.751 139.883C134.006 142.859 134.249 145.713 134.474 148.376C134.548 149.227 134.617 150.058 134.686 150.868C134.898 153.396 135.092 155.716 135.262 157.766C135.35 158.846 135.433 159.85 135.507 160.769C135.799 164.371 135.971 166.671 135.973 167.108C135.975 167.363 135.955 167.601 135.917 167.822C135.445 170.628 132.103 170.72 131.67 170.72Z" fill="#EE9849"/>
<path d="M90.6975 30.9861H228.712L212.548 103.451L210.336 113.376L202.808 147.127H62.9507L90.6975 30.9861Z" fill="#F1A34F"/>
<path d="M228.711 30.9865L230.951 31.8205L205.784 149.649L202.806 147.129L228.711 30.9865Z" fill="#EE9849"/>
<path d="M205.785 149.649H66.7889L62.9507 147.129H202.807L205.785 149.649Z" fill="#D86713"/>
<path d="M126.88 172.351H156.975V170.755H126.88V172.351Z" fill="#F1A34F"/>
<path d="M134.531 149.648L134.686 150.868L162.988 157.251L162.6 152.096L162.415 149.648H134.531Z" fill="#D86713"/>
<path d="M153.76 170.755H147.022C139.699 170.748 132.32 170.722 131.669 170.72C132.102 170.72 135.444 170.628 135.917 167.822C135.952 167.607 135.972 167.378 135.972 167.133C135.972 167.125 135.972 167.117 135.972 167.109C135.97 166.671 135.799 164.371 135.507 160.769L163.676 166.685C163.654 168.256 163.219 170.685 160.737 170.72C159.28 170.741 156.747 170.752 153.76 170.755Z" fill="#E58433"/>
<path d="M150.625 170.756C149.445 170.756 148.234 170.756 147.022 170.755H153.76C152.758 170.756 151.704 170.756 150.625 170.756Z" fill="#E78B37"/>
<path d="M202.809 147.127L202.807 147.129L202.809 147.127Z" fill="#BBA767"/>
<path d="M202.808 147.127L143.189 124.311L207.9 124.298L203.74 142.95L202.807 147.129" fill="#E78B37"/>
<path d="M202.808 147.128L202.807 147.129L203.739 142.95L202.808 147.128Z" fill="#E58433"/>
<path d="M90.6981 30.9861H228.713L207.912 124.297L68.3049 124.328L90.6981 30.9861Z" fill="#F1A34F"/>
<path d="M129.172 136.127C129.571 133.838 131.556 131.982 133.608 131.982C135.658 131.982 136.998 133.838 136.599 136.127C136.201 138.416 134.215 140.272 132.164 140.272C130.112 140.272 128.773 138.416 129.172 136.127Z" fill="#D86713"/>
<path d="M74.8135 120.283H204.037L218.671 55.2132L219.792 50.2232L220.751 45.9668L222.995 35.9861H95.6334L93.169 45.9668L92.118 50.2232L90.8855 55.2132L74.8135 120.283Z" fill="#E9F3FE"/>
<path d="M95.6336 35.986H222.995L220.751 45.9667H93.1692L95.6336 35.986Z" fill="#A8D29F"/>
<path d="M216.888 39.2492C217.506 39.2492 217.881 39.8068 217.727 40.4968C217.574 41.1852 216.947 41.7444 216.33 41.7444C215.713 41.7444 215.337 41.1852 215.492 40.4968C215.645 39.8068 216.271 39.2492 216.888 39.2492Z" fill="#E9F3FE"/>
<path d="M213.173 39.2484C213.79 39.2484 214.166 39.8067 214.013 40.497C213.859 41.1857 213.234 41.744 212.617 41.744C211.999 41.744 211.623 41.1857 211.777 40.497C211.932 39.8067 212.556 39.2484 213.173 39.2484Z" fill="#E9F3FE"/>
<path d="M207.778 40.4967C207.932 39.8073 208.557 39.2492 209.174 39.2492C209.792 39.2492 210.167 39.8073 210.012 40.4967C209.859 41.1861 209.233 41.7441 208.617 41.7441C207.999 41.7441 207.624 41.1861 207.778 40.4967Z" fill="#E9F3FE"/>
<path d="M28.1639 163.38C28.1639 163.38 26.5189 165.081 26.8399 166.29C27.1608 167.5 28.6453 168.305 28.846 169.783C29.0465 171.261 29.8488 172.067 30.5711 172.067C31.2932 172.067 34.0141 172.067 34.0141 172.067C34.0141 172.067 34.5456 171.027 33.2617 170.714C31.9779 170.4 31.4938 168.664 31.5741 167.051C31.6543 165.439 31.4538 163.29 31.4538 163.29L28.7255 162.573L28.1639 163.38Z" fill="#233862"/>
<path d="M57.9861 172.064H48.8434C48.764 172.046 48.7036 172.026 48.6652 172.004C48.0558 171.665 48.2458 169.063 48.3195 168.256C48.3338 168.106 48.3438 168.018 48.3438 168.018C48.3438 168.018 51.554 165.154 51.9951 167.348C52.0086 167.416 52.0253 167.484 52.0428 167.55C52.5979 169.602 55.0898 170.536 56.5288 170.796C57.6261 170.994 57.9115 171.707 57.9861 172.064Z" fill="#233862"/>
<path d="M56.1471 113.315C56.1471 113.315 55.6596 120.103 55.0867 128.263C54.3081 139.347 53.3716 152.963 53.2789 155.542C53.1188 160.021 52.476 167.186 52.476 167.186C52.476 167.186 50.9523 168.888 47.9024 168.17C47.9024 168.17 45.1846 157.943 44.4083 147.122C44.3962 146.945 44.3843 146.766 44.3721 146.587C43.65 135.571 42.5271 112.374 42.5271 112.374L56.1471 113.315Z" fill="#699DEE"/>
<path d="M56.1471 113.315C56.1471 113.315 55.6596 120.103 55.0867 128.263L44.4083 147.122C44.3962 146.945 44.3843 146.766 44.3721 146.587C43.65 135.571 42.5271 112.374 42.5271 112.374L56.1471 113.315Z" fill="#4A75CB"/>
<path d="M53.9207 114.121C53.9207 114.121 45.1343 138.705 39.3569 150.259C33.5795 161.812 31.7742 165.037 31.7742 165.037C31.7742 165.037 28.4642 163.559 28.1633 162.551C28.1633 162.551 30.3726 140.247 34.2416 134.81C36.4279 131.737 38.9958 122.518 39.1161 119.293C39.2366 116.069 39.8986 109.688 39.8986 109.688L53.9207 114.121Z" fill="#699DEE"/>
<path d="M62.8062 107.334L63.3084 108.451C63.3084 108.451 65.8621 108.849 65.1592 111.82C65.1592 111.82 64.7805 113.044 64.0762 112.656C63.372 112.27 63.7189 112.302 62.7095 111.782C61.7003 111.261 61.1161 110.261 61.3418 109.343L61.1802 108.371L62.8062 107.334Z" fill="#FFB27D"/>
<path d="M49.4147 76.1714C49.8054 73.5973 49.8173 72.0713 49.8173 72.0713L45.3593 68.0618C45.5249 73.5753 42.3594 76.2266 42.3594 76.2266C42.3594 76.2266 48.3 79.4908 51.7338 78.2822C51.7338 78.2822 50.8883 77.0761 49.4147 76.1714Z" fill="#FFB27D"/>
<path d="M50.8675 71.9806C50.8675 71.9806 45.1962 73.0323 44.6639 69.0805C44.1316 65.1274 43.041 62.6023 46.6396 61.7639C50.2379 60.9255 51.1463 62.3143 51.6114 63.5854C52.0766 64.8565 52.3291 71.6056 50.8675 71.9806Z" fill="#FFB27D"/>
<path d="M44.7012 69.3525C44.7012 69.3525 44.8157 64.0585 49.9832 63.209C53.5227 62.6268 51.3791 59.3258 50.9745 58.8036C50.9745 58.8036 48.2687 59.3797 45.4994 60.0576C39.687 61.4819 44.0869 68.5656 44.7012 69.3525Z" fill="#163560"/>
<path d="M62.2116 108.887C62.9697 108.018 63.5326 106.888 63.5326 106.888C63.5326 106.888 57.0889 97.9521 56.5651 97.0254C56.0414 96.0988 52.1279 81.2364 52.1279 81.2364L42.2317 78.9981C42.2317 78.9981 50.492 98.0195 51.8605 100.339C54.1219 104.17 60.8871 109.874 60.8871 109.874C60.8871 109.874 61.6162 109.569 62.2116 108.887Z" fill="#82B479"/>
<path d="M56.526 113.88C56.4226 113.977 56.3026 114.033 56.1651 114.033C54.8758 114.015 51.1159 114.814 47.9345 114.448C45.2525 114.162 42.8787 113.274 40.3295 111.999C39.9909 111.83 39.2118 111.366 39.2293 110.943C39.2408 110.481 39.2819 109.81 39.3336 108.966C39.5141 106.029 39.8285 100.977 39.5219 95.1488C39.4667 94.064 39.4377 92.9878 39.4343 91.9275C39.408 84.0299 40.7871 77.043 43.6066 74.692C43.8476 74.4996 45.3502 75.3453 46.7087 76.0931C47.964 76.7844 48.8417 76.7685 50.0277 76.5L51.5911 77.7626C53.0354 79.2592 54.6174 81.294 55.305 84.3829C55.8901 87.0122 56.2334 91.7534 56.4226 96.6651C56.5085 98.8911 56.5777 101.137 56.5952 103.267V103.344C56.6119 103.555 56.6119 103.786 56.6119 103.998C56.681 109.466 56.6119 113.802 56.526 113.88Z" fill="#A8D29F"/>
<path d="M39.3335 108.966C39.5139 106.029 39.8283 100.977 39.5217 95.1487C39.4666 94.0639 39.4376 92.9877 39.4342 91.9274C40.6087 88.7478 41.5688 86.4409 41.5688 86.4409H44.5294C44.5294 86.4409 46.6999 102.989 39.3335 108.966Z" fill="#82B479"/>
<path d="M33.5736 109.994L33.0117 111.075C33.0117 111.075 34.1127 113.677 31.5006 114.651C31.5006 114.651 30.3767 114.967 30.2808 114.097C30.1846 113.228 30.3503 113.57 30.1873 112.341C30.0242 111.114 30.4537 110.021 31.2651 109.728L31.9053 109.044L33.5736 109.994Z" fill="#FFB27D"/>
<path d="M32.0835 110.289C33.1496 110.521 34.3054 110.428 34.3054 110.428C34.3054 110.428 37.4704 99.5149 37.8777 98.5171C38.2851 97.5206 47.279 85.7214 47.279 85.7214L43.5322 75.2558C43.5322 75.2558 33.8044 93.3922 32.8166 95.9406C31.1844 100.152 30.6179 109.594 30.6179 109.594C30.6179 109.594 31.2461 110.108 32.0835 110.289Z" fill="#A8D29F"/>
<path d="M145.649 105.577H85.322L105.945 12.4496H166.273L145.649 105.577Z" fill="#AFCDFB"/>
<path d="M136.639 99.7672H76.311L96.9351 6.63948H157.263L136.639 99.7672Z" fill="#C0D8F9"/>
<path d="M126.874 93.1265H66.5461L87.1694 1.52588e-05H147.497L126.874 93.1265Z" fill="#D4E3F4"/>
<path d="M156.032 12.4515L136.945 99.2102L86.7917 99.7679L138.459 101.036L156.032 12.4515Z" fill="#699DEE"/>
<path d="M146.013 6.63949L127.88 92.5694L77.7258 93.126L128.73 94.5331L146.013 6.63949Z" fill="#699DEE"/>
<path d="M101.739 32.2736H84.8687L90.1503 8.61746H107.022L101.739 32.2736Z" fill="#E9F3FE"/>
<path d="M140.257 11.8861H110.029L110.772 8.61732H141L140.257 11.8861Z" fill="#AFCDFB"/>
<path d="M138.894 18.5948H108.665L109.408 15.327H139.637L138.894 18.5948Z" fill="#AFCDFB"/>
<path d="M137.469 25.3047H107.24L107.984 22.0368H138.212L137.469 25.3047Z" fill="#AFCDFB"/>
<path d="M135.795 32.0145H105.567L106.311 28.7466H136.539L135.795 32.0145Z" fill="#AFCDFB"/>
<path d="M135.795 39.0015H80.4592L81.2029 35.7323H136.538L135.795 39.0015Z" fill="#AFCDFB"/>
<path d="M134.318 45.9871H78.9817L79.7254 42.7192H135.061L134.318 45.9871Z" fill="#AFCDFB"/>
<path d="M132.273 53.8551H76.937L77.6807 50.5872H133.017L132.273 53.8551Z" fill="#AFCDFB"/>
<path d="M130.413 60.6484H75.0774L75.8211 57.3805H131.157L130.413 60.6484Z" fill="#AFCDFB"/>
<path d="M103.507 36.0127C103.49 36.074 103.466 36.1341 103.437 36.188C103.104 36.7862 97.6197 36.8156 96.9937 36.3143C96.7137 36.0887 96.628 32.9924 96.6192 29.6363C96.6082 25.4883 96.7137 20.9444 96.7137 20.9444C96.7137 20.9444 98.8595 22.0562 98.965 23.4241C99.0693 24.7921 98.1666 33.0133 98.7936 33.5158C99.4207 34.0184 102.311 34.0834 103.275 34.3996C103.275 34.3996 103.685 35.3839 103.507 36.0127Z" fill="#A8D2A0"/>
<path d="M97.959 11.5119C97.5834 11.0765 96.9708 11.0353 96.575 11.0041C96.6891 10.903 96.8925 10.8893 96.8925 10.8893C96.6555 10.8132 96.0821 11.0041 96.0821 11.0041C96.0821 11.0041 94.166 9.53427 92.8662 12.4041C92.8662 12.4041 93.0562 12.2019 93.311 11.9761C92.561 13.6269 92.8113 16.3245 94.4879 17.0407C95.5779 17.5061 101.805 15.9814 97.959 11.5119Z" fill="#163560"/>
<path d="M96.7979 21.631C96.8077 21.6371 95.6382 22.1139 94.8431 21.7437C94.0941 21.3944 93.7185 20.1993 93.7295 20.1981C94.0655 20.1723 94.2193 19.6832 94.4642 17.5173L94.608 17.5712L97.0406 18.4844C97.0406 18.4844 96.8824 19.3523 96.7847 20.1784C96.7023 20.8722 96.6639 21.5354 96.7979 21.631Z" fill="#E49963"/>
<path d="M97.0402 18.4843C97.0402 18.4843 96.882 19.3522 96.7843 20.1783C95.3918 19.9332 94.8185 18.4034 94.6077 17.5712L97.0402 18.4843Z" fill="#D68D5D"/>
<path d="M94.3866 17.2296C94.3866 17.2296 93.8029 15.8325 93.7563 14.7029C93.7219 13.8966 94.421 11.0268 97.0033 11.8282C97.0033 11.8282 97.7579 12.0226 98.4126 12.6679C98.9341 13.1819 99.6499 14.2298 98.4326 16.6463L98.093 17.4736L94.3866 17.2296Z" fill="#163560"/>
<path d="M97.4159 19.3335C97.4159 19.3335 94.1037 18.9159 94.3689 16.6179C94.633 14.3187 94.3843 12.7171 96.5103 12.8866C98.6362 13.0561 98.9454 13.992 99.0247 14.783C99.1028 15.5739 98.2852 19.3826 97.4159 19.3335Z" fill="#E49963"/>
<path d="M97.6344 24.5396C97.6069 24.2687 98.1241 24.1437 98.2186 24.395C98.3943 24.8644 98.3756 25.4222 98.4152 25.8732C98.5294 27.1652 98.0703 28.8433 98.0703 28.8433L97.6344 24.5396Z" fill="#82B479"/>
<path d="M99.0744 13.4909C98.6453 12.7268 98.2416 12.8206 98.0005 12.9971C97.4254 11.7022 94.9668 13.0983 94.9668 13.0983C94.5543 14.7154 93.3787 15.5055 93.3787 15.5055C93.3787 15.5055 93.9339 16.0091 95.3694 15.8104C96.4975 15.6549 97.4929 14.034 97.8667 13.3502C98.0404 13.5736 98.402 14.0834 98.4761 14.5426C98.5723 15.1524 98.5071 16.3684 98.8267 16.3721C98.8267 16.3721 99.7203 14.6389 99.0744 13.4909Z" fill="#163560"/>
<path d="M96.8442 17.8348C96.8442 17.8348 96.8717 18.1351 97.5273 18.1842C97.5273 18.1842 98.0786 18.2258 98.0984 17.9022C98.0984 17.9022 97.5954 17.5982 96.8442 17.8348Z" fill="white"/>
<path d="M103.507 36.0127C103.489 36.074 103.466 36.1341 103.436 36.188C103.104 36.7862 97.6192 36.8156 96.9932 36.3143C96.7132 36.0887 96.622 32.2411 97.3941 28.9217C97.5775 30.9099 97.2414 34.8863 98.1749 35.2099C99.2314 35.5788 102.119 35.5862 103.507 36.0127Z" fill="#82B479"/>
<path d="M98.2551 29.0272C96.0784 36.0411 97.0701 37.311 96.2926 37.9177L95.6347 38.1322C94.8276 38.7292 94.9088 37.876 92.5005 38.6483C91.3527 39.0172 89.8794 39.5124 88.6153 39.7478C88.1392 39.836 87.693 39.8887 87.3048 39.8838C86.5608 39.8728 86.0305 39.6522 85.9164 39.0736C85.5847 37.3931 88.5675 33.4903 88.2834 30.4908C88.2811 30.4663 88.2789 30.4393 88.2771 30.4136C88.2615 30.1525 88.2872 29.8595 88.3477 29.5421C88.6524 27.9363 89.8446 25.7103 91.0301 23.8337C92.339 21.7633 93.6382 20.1196 93.7283 20.1981C96.286 22.4338 96.7132 20.9445 96.7132 20.9445C96.7132 20.9445 98.9974 26.6345 98.2551 29.0272Z" fill="#A8D2A0"/>
<path d="M95.8665 38.0623C95.0604 38.6592 94.9088 37.876 92.5005 38.6482C91.3527 39.0172 89.8794 39.5124 88.6153 39.7477C87.9797 39.7796 87.5046 39.8188 87.3048 39.8838C86.5608 39.8728 86.0305 39.6521 85.9164 39.0736C85.5847 37.393 88.5675 33.4902 88.2834 30.4908C88.2811 30.4662 88.2789 30.4393 88.2771 30.4135C88.257 30.1193 88.2832 29.8313 88.3477 29.542C88.6221 28.3285 89.5901 27.1076 90.7368 25.2923C91.2682 26.1074 95.9895 25.9346 94.0632 32.9496C93.4724 35.0996 95.7775 36.3144 95.8665 38.0623Z" fill="#82B479"/>
<path d="M93.7293 20.198C93.7293 20.198 89.9629 19.7102 89.054 21.6371C88.145 23.564 87.5261 30.709 88.2621 32.9926C88.9982 35.275 94.2597 38.9768 94.8681 39.1827C95.4765 39.3886 95.9894 38.3749 95.9773 38.2548C95.9641 38.1359 90.7229 31.9948 90.8126 31.4493C90.9024 30.9039 93.7293 20.198 93.7293 20.198Z" fill="#A8D2A0"/>
<path d="M219.533 161.028L218.189 167.351L216.174 167.338L216.1 161.028H219.533Z" fill="#E49963"/>
<path d="M202.585 161.297L198.757 167.351L197.266 165.214L199.569 160.465L202.585 161.297Z" fill="#E49963"/>
<path d="M212.535 77.9342C213.232 77.493 214.064 77.4448 214.647 77.4833C214.498 77.3103 214.202 77.2474 214.202 77.2474C214.563 77.1874 215.37 77.5875 215.37 77.5875C220.401 75.4246 221.19 83.6894 221.085 85.6097C220.979 87.5297 222.774 88.1566 225.39 89.6695C230.383 92.5565 230.821 96.4213 230.821 96.4213C230.783 96.447 230.742 96.4765 230.699 96.5096C230.451 96.0413 229.941 95.1612 229.511 95.0287C229.527 95.0717 230.019 96.2399 230.203 96.9091C228.73 98.1593 225.975 100.93 224.055 102.894C224.065 102.511 224.049 101.965 223.924 101.677L223.687 103.272C222.659 104.326 221.951 105.068 221.951 105.068C222.078 103.516 215.663 95.3279 212.317 92.8763C211.503 91.5378 211.213 89.1724 211.191 88.9864C211.332 90.8612 211.619 91.913 211.876 92.5048C209.042 89.5943 210.692 79.1036 212.535 77.9342Z" fill="#163560"/>
<path d="M212.516 92.9975C212.499 93.006 214.131 93.9524 215.36 93.5773C216.515 93.2254 217.269 91.5547 217.253 91.5499C216.763 91.4421 216.623 90.6917 216.633 87.4676L216.412 87.5163L212.694 88.338C212.694 88.338 212.778 89.6442 212.782 90.8744C212.783 91.9077 212.727 92.8872 212.516 92.9975Z" fill="#E49963"/>
<path d="M212.693 88.3384C212.693 88.3384 212.776 89.6445 212.781 90.8749C214.86 90.81 215.96 88.6908 216.411 87.5166L212.693 88.3384Z" fill="#D68D5D"/>
<path d="M216.796 87.0641C216.796 87.0641 217.887 85.1412 218.148 83.4968C218.336 82.3227 217.8 77.9714 213.882 78.598C213.882 78.598 212.745 78.7232 211.676 79.5295C210.824 80.1707 209.597 81.5549 210.971 85.3522L211.326 86.6349L216.796 87.0641Z" fill="#163560"/>
<path d="M197.875 163.554L199.844 163.621L201.978 163.693C201.978 163.693 206.906 157.57 209.67 147.754C209.736 147.526 209.802 147.294 209.874 147.061C211.388 142.137 214.523 135.957 216.177 130.364C216.44 129.473 216.675 128.634 216.888 127.84C216.956 127.586 217.022 127.336 217.084 127.091C218.302 122.367 218.655 119.266 218.98 115.952L207.046 116.059C207.046 116.059 205.119 138.684 197.875 163.554Z" fill="#2B478B"/>
<path d="M208.717 108.405C208.746 114.744 207.883 117.464 207.883 117.464C207.883 117.464 212.994 120.361 219.066 118.229C219.139 118.203 223.634 117.197 223.634 117.197C223.532 116.939 222.292 112.555 222.194 112.319C220.911 109.246 220.735 107.756 220.582 106.811C220.3 105.047 220.294 103.222 220.435 101.501C220.806 96.9444 221.908 93.1617 221.908 93.1617C220.253 92.7412 218.703 92.0034 216.981 91.2826C216.585 91.8329 215.373 92.4091 214.323 92.382C213.113 92.3527 212.721 91.7741 212.783 91.1441C211.495 91.9445 210.467 92.7008 210.467 92.7008C209.371 94.8251 207.149 96.8867 206.987 100.146C206.949 100.947 208.717 108.228 208.717 108.405Z" fill="#E7F1FD"/>
<path d="M201.788 98.9889C203.541 96.7053 208.079 91.7507 212.763 91.144L208.722 99.9315C208.722 99.9315 208.494 101.438 207.297 102.316C204.366 104.467 200.638 105.417 200.638 105.417C200.638 105.417 198.114 104.187 194.664 101.366C193.58 100.479 191.676 97.1012 191.676 97.1012L192.19 95.1828C192.19 95.1828 195.421 97.2005 196.576 97.7815C197.233 98.1137 198.747 98.9043 199.815 99.4632C200.494 99.8199 201.301 99.6251 201.788 98.9889Z" fill="#699DEE"/>
<path d="M211.999 89.5033C211.999 89.5033 216.921 89.594 216.924 86.1715C216.928 82.7487 217.566 80.4553 214.422 80.2527C211.28 80.0502 210.667 81.3553 210.417 82.4975C210.168 83.6396 210.718 89.3916 211.999 89.5033Z" fill="#E49963"/>
<path d="M212.181 80.1688C212.181 80.1688 213.529 84.1843 215.597 84.778C217.666 85.3716 218.563 84.7532 218.563 84.7532C218.563 84.7532 216.976 83.3462 216.648 80.8904C216.648 80.8904 213.198 78.2577 212.181 80.1688Z" fill="#163560"/>
<path d="M212.516 80.4944C212.516 80.4944 211.508 81.3909 211.263 82.2624C211.017 83.134 210.908 84.9282 210.438 84.8671C210.438 84.8671 209.423 82.1379 210.566 80.5939C211.776 78.9568 212.516 80.4944 212.516 80.4944Z" fill="#163560"/>
<path d="M192.19 95.1831C192.19 95.1831 191.496 92.3921 188.746 92.7868C188.43 92.8971 187.509 93.3077 188.098 94.4085C188.532 95.2211 188.72 94.8019 189.404 95.8941C190.087 96.985 190.829 97.2314 191.676 97.1015L192.19 95.1831Z" fill="#E49963"/>
<path d="M218.256 166.997C218.256 166.997 218.093 168.25 218.512 169.59C218.512 169.59 218.842 171.266 217.362 171.298C215.882 171.329 215.52 171.173 215.687 170.145C215.854 169.116 216.173 167.338 216.173 167.338L218.256 166.997Z" fill="#E49963"/>
<path d="M215.548 172.014C215.548 172.014 215.58 172.036 215.641 172.069H218.536C218.593 172.036 218.619 172.014 218.619 172.014C218.786 171.173 218.513 169.589 218.513 169.589C216.837 171.303 215.788 169.547 215.788 169.547C215.516 170.28 215.548 172.014 215.548 172.014Z" fill="#D86713"/>
<path d="M193.7 170.313C193.7 170.313 196.428 166.933 197.266 165.214L199.294 166.373L194.759 171.127L193.699 170.971L193.7 170.313Z" fill="#E49963"/>
<path d="M192.007 172.069H195.74C196.1 171.769 196.436 171.075 196.854 170.144C197.075 169.647 197.575 169.373 198.088 169.222V172.038H198.863L199.597 169.045C200.079 168.054 199.636 167.155 199.294 166.373C198.899 166.372 197.836 166.674 195.82 169.208C195.158 170.041 194.427 170.339 193.7 170.313C193.689 170.32 193.68 170.326 193.671 170.33C192.454 170.94 192.107 171.699 192.007 172.069Z" fill="#D86713"/>
<path d="M212.782 91.1445C212.782 91.1445 209.935 98.998 209.85 100.587C209.767 102.176 209.516 126.578 209.516 126.578C209.516 126.578 209.683 127.699 207.756 127.232C205.83 126.765 205.328 126.297 205.328 126.297C205.328 126.297 207.17 111.245 206.667 106.009C206.164 100.774 210.522 92.2355 210.522 92.2355L212.782 91.1445Z" fill="#699DEE"/>
<path d="M199.844 163.621L201.978 163.693C201.978 163.693 206.905 157.57 209.669 147.754C209.734 147.526 209.802 147.294 209.874 147.061C211.387 142.137 214.522 135.957 216.176 130.364C216.438 129.472 216.675 128.634 216.887 127.84C216.955 127.586 217.021 127.336 217.083 127.091L215.326 125.602C215.326 125.602 210.049 135.138 208.417 144.113C206.997 151.908 201.316 161.289 199.844 163.621Z" fill="#233862"/>
<path d="M215.144 144.948C215.113 149.313 215.311 159.347 215.821 163.5H217.711C218.755 163.5 219.276 163.484 219.276 163.484C220.555 156.262 221.462 150.285 222.125 145.135C222.666 140.91 223.15 137.287 223.52 134.169C223.893 131.029 224.153 128.401 224.246 126.181C224.261 125.831 224.271 125.491 224.278 125.16C224.283 124.829 224.286 124.506 224.283 124.193L213.971 123.072C214.1 130.718 215.161 142.412 215.144 144.948Z" fill="#2B478B"/>
<path d="M217.709 163.5C218.753 163.5 219.274 163.484 219.274 163.484C220.552 156.262 221.461 150.285 222.123 145.136C222.665 140.911 223.147 137.287 223.519 134.169C223.892 131.03 224.152 128.402 224.244 126.182L220.462 128.665C220.462 128.665 222.876 129.616 221.955 136.815C221.033 144.014 218.991 162.481 217.709 163.5Z" fill="#233862"/>
<path d="M217.222 126.11C217.222 126.11 217.948 129.039 220.461 128.665C222.974 128.291 226.548 126.608 226.548 126.608C226.548 126.608 225.473 122.82 224.138 117.845C222.522 111.822 220.521 104.056 219.577 99.1582C219.313 97.7852 219.133 96.6392 219.065 95.818L216.98 91.3035C216.98 91.3035 213.873 99.0907 213.705 101.054C213.537 103.017 217.222 126.11 217.222 126.11Z" fill="#699DEE"/>
<path d="M217.334 105.168C217.446 108.346 218.116 114.517 224.091 117.82C224.107 117.828 224.124 117.838 224.138 117.845C222.521 111.822 220.521 104.056 219.577 99.1582C218.48 100.988 217.272 103.418 217.334 105.168Z" fill="#4A75CB"/>
<path d="M191.227 87.6188L189.344 89.722L181.85 81.3582L183.734 79.2549L191.227 87.6188Z" fill="#2B478B"/>
<path d="M230.63 132.969L229.974 133.703C228.679 135.147 226.584 135.147 225.289 133.703L188.62 92.7733C187.325 91.3294 187.325 88.989 188.62 87.5454L189.277 86.8117C190.57 85.3682 192.667 85.3682 193.96 86.8117L230.63 127.742C231.924 129.185 231.924 131.526 230.63 132.969Z" fill="#C65447"/>
<path d="M180.296 77.5197C169.405 89.676 151.747 89.676 140.857 77.5197C129.966 65.3638 129.966 45.6544 140.857 33.4993C151.747 21.3427 169.405 21.3427 180.296 33.4993C191.187 45.6544 191.187 65.3638 180.296 77.5197ZM138.415 30.7735C126.176 44.4345 126.176 66.5837 138.415 80.2446C150.654 93.9055 170.498 93.9055 182.738 80.2446C194.977 66.5837 194.977 44.4345 182.738 30.7735C170.498 17.1124 150.654 17.1124 138.415 30.7735Z" fill="#C65447"/>
<path d="M219.731 100.762L216.979 91.3036C216.988 91.3075 220.455 92.456 222.2 93.4391C222.2 93.4391 223.289 95.008 223.966 98.6276C223.966 98.6276 224.678 107.318 223.087 110.497C223.087 110.497 218.059 111.618 210.019 108.533V106.476C210.019 106.476 218.815 106.991 220.616 107.225L219.731 100.762Z" fill="#E49963"/>
<path d="M216.981 91.3031C216.981 91.3031 222.081 91.7041 223.311 94.7587C224.539 97.8121 224.93 107.972 223.366 110.963C223.366 110.963 221.214 111.648 217.406 110.853C217.36 110.844 217.312 110.833 217.266 110.824C217.266 110.824 216.051 107.504 217.139 106.851C217.139 106.851 220.351 107.037 220.015 105.853C219.681 104.669 216.981 91.3031 216.981 91.3031Z" fill="#699DEE"/>
<path d="M210.921 107.024C210.921 107.024 210.221 106.076 210.071 105.108C209.922 104.141 209.458 103.422 208.248 103.246C207.039 103.068 206.519 103.048 206.523 103.43C206.524 103.81 207.51 106.466 209.245 108.052C210.981 109.639 210.921 107.024 210.921 107.024Z" fill="#E49963"/>
<path d="M144.172 65.7463L146.018 57.4087L146.182 57.2273L144.352 65.5453L144.172 65.7463Z" fill="#CFE1FD"/>
<path d="M175.314 30.9874H169.69L172.796 27.5212C174.017 28.187 175.206 28.9567 176.347 29.8329L175.314 30.9874Z" fill="#F3F7FB"/>
<path d="M170.835 35.9869H165.211L169.691 30.9867H175.315L170.835 35.9869Z" fill="#F7C895"/>
<path d="M157.852 50.4771L158.85 45.9655H161.894L157.852 50.4771Z" fill="#F2F8FE"/>
<path d="M161.895 45.9656H158.852L159.698 42.1408L165.212 35.9858H170.836L161.895 45.9656Z" fill="#CBE4C5"/>
<path d="M145.827 63.899L147.426 55.8384L159.697 42.1405L158.85 45.9661L157.851 50.4781L145.827 63.899Z" fill="#CFE1FD"/>
<path d="M137.66 73.0151C136.882 71.7612 136.185 70.4423 135.575 69.0657L146.018 57.4087L144.172 65.7463L137.66 73.0151Z" fill="#D9E8FB"/>
<path d="M144.352 65.5453L146.182 57.2272L147.426 55.8384L145.827 63.8991L144.352 65.5453Z" fill="#A5C4F5"/>
<path d="M176.348 29.8328C175.206 28.956 174.017 28.1859 172.796 27.521L172.925 27.3771C174.158 28.058 175.34 28.8361 176.462 29.7049L176.348 29.8328Z" fill="#DD9891"/>
<path d="M147.224 51.9675L153.08 25.5216C153.107 25.5131 153.135 25.5045 153.163 25.4959L147.376 51.7971L147.224 51.9675Z" fill="#CFE1FD"/>
<path d="M166.021 30.9862H162.169L163.59 24.5635C165.845 24.8356 168.071 25.4121 170.224 26.2956L166.021 30.9862Z" fill="#F3F7FB"/>
<path d="M161.542 35.9868H161.06L162.169 30.986H166.021L161.542 35.9868Z" fill="#F7C895"/>
<path d="M160.904 36.6991L161.062 35.9856H161.542L160.904 36.6991Z" fill="#CBE4C5"/>
<path d="M148.469 50.5774L153.462 25.407C155.791 24.7239 158.182 24.3829 160.574 24.3829C161.581 24.3829 162.589 24.4439 163.59 24.5646L162.167 30.9875L161.059 35.987L160.902 36.7L148.469 50.5774Z" fill="#CFE1FD"/>
<path d="M134.466 66.2061C134.431 66.1019 134.397 65.9952 134.362 65.8898L140.696 33.6791C140.748 33.6191 140.802 33.559 140.855 33.499C144.375 29.5704 148.602 26.9105 153.081 25.5217L147.224 51.9676L134.466 66.2061ZM133.864 64.2044C133.754 63.7913 133.651 63.3745 133.556 62.9541L139.804 34.737C139.929 34.5838 140.053 34.4318 140.18 34.2798L133.864 64.2044Z" fill="#D9E8FB"/>
<path d="M133.555 62.954C133.001 60.5061 132.705 57.943 132.705 55.3028C132.705 54.3467 132.744 53.4016 132.82 52.4676C133.011 50.2759 133.41 48.1026 134.018 45.9869H134.317L134.951 43.2008C136.119 40.1731 137.736 37.3085 139.804 34.7369L133.555 62.954Z" fill="#E5EEF8"/>
<path d="M147.376 51.7971L153.163 25.4959C153.263 25.4652 153.363 25.4358 153.463 25.4064L148.469 50.5763L147.376 51.7971Z" fill="#A5C4F5"/>
<path d="M134.361 65.8898C134.182 65.3357 134.017 64.7731 133.864 64.2043L140.18 34.2797C140.349 34.0775 140.52 33.8777 140.696 33.6791L134.361 65.8898Z" fill="#A5C4F5"/>
<path d="M134.318 45.9871H134.018C134.288 45.0457 134.599 44.1153 134.952 43.2009L134.318 45.9871Z" fill="#CFE1FD"/>
<path d="M132.82 52.4673C134.103 36.6051 146.048 24.1748 160.593 24.1748C164.031 24.1748 167.322 24.8704 170.363 26.1405L170.223 26.2966C168.071 25.4125 165.844 24.8356 163.591 24.5633C162.589 24.442 161.582 24.3826 160.575 24.3826C158.183 24.3826 155.791 24.7233 153.463 25.4061C153.363 25.4358 153.263 25.4654 153.163 25.4964C153.136 25.5042 153.107 25.5132 153.081 25.5209C148.602 26.911 144.376 29.5697 140.856 33.4985C140.801 33.5579 140.748 33.6185 140.696 33.6779C140.52 33.8766 140.349 34.0767 140.18 34.2793C140.053 34.4316 139.928 34.5826 139.805 34.7362C137.737 37.3085 136.119 40.1725 134.951 43.2004C134.599 44.1154 134.289 45.046 134.018 45.9869C133.411 48.1023 133.011 50.2757 132.82 52.4673Z" fill="#DD9891"/>
<path d="M160.594 86.4294C156.984 86.4294 153.535 85.6625 150.368 84.2683L151.378 79.7136L181.612 45.9662H187.126C188.317 50.1046 188.713 54.4683 188.312 58.7554C186.773 74.3208 174.951 86.4294 160.594 86.4294Z" fill="#F2F8FE"/>
<path d="M187.126 45.9675H181.612L185.529 41.5938C186.165 43.0133 186.697 44.4764 187.126 45.9675Z" fill="#CBE4C5"/>
<path d="M150.368 84.2689C149.643 83.949 148.934 83.5972 148.241 83.2148L151.377 79.714L150.368 84.2689Z" fill="#CFE1FD"/>
<path d="M188.312 58.7555C188.713 54.4683 188.317 50.1047 187.126 45.9662C186.698 44.4748 186.165 43.0132 185.53 41.5941L185.602 41.5133C187.444 45.6702 188.482 50.3497 188.482 55.3025C188.482 56.4696 188.424 57.621 188.312 58.7555Z" fill="#DD9891"/>
</svg>
