<svg xmlns="http://www.w3.org/2000/svg" width="33" height="32" fill="none" xmlns:v="https://vecta.io/nano"><path d="M18.232 8.465c-.771-.618-1.12-1.076-1.693-1.881-.467-.657-1.035-1.787-1.035-1.787s.165 1.163.376 1.881c.2.681.325 1.067.658 1.693.444.833.855 1.202 1.458 1.928 1.244 1.499 2.197 2.104 3.527 3.527.693.741 1.13 1.118 1.74 1.928.511.68.846 1.05 1.176 1.834.293.698.47 1.881.47 1.881s.042 1.487-.188 2.398c-.263 1.044-1.176 2.493-1.176 2.493s-1.032 1.358-1.881 2.022c-.829.649-2.352 1.317-2.352 1.317s-1.703.758-2.869.894c-.73.085-1.881 0-1.881 0s-1.509-.064-2.446-.282c-.99-.231-1.529-.454-2.446-.894-1.268-.608-1.958-1.042-3.01-1.975-1.122-.996-1.661-1.684-2.446-2.963-.666-1.086-.955-1.757-1.364-2.963-.22-.65-.341-1.019-.47-1.693s-.141-1.058-.188-1.74c-.082-1.191-.167-1.875 0-3.057a10.36 10.36 0 0 1 .282-1.364c.277-1.063.504-1.648.988-2.634.465-.947.754-1.479 1.411-2.304.671-.844 1.116-1.277 1.975-1.928a9.8 9.8 0 0 1 1.74-1.082l.611-.329.799-.423s-.378.066-.611.141c-.447.145-.704.285-1.112.508l-.017.009a15.59 15.59 0 0 0-1.928 1.223c-.75.541-1.787 1.552-1.787 1.552s-1.075 1.298-1.646 2.21c-.623.996-.962 1.577-1.364 2.681-.443 1.219-.545 1.958-.705 3.245-.098.786-.149 1.231-.141 2.022.011 1.166.107 1.828.376 2.963.35 1.477.695 2.283 1.411 3.621.812 1.52 1.365 2.359 2.587 3.574 1.174 1.169 1.979 1.699 3.433 2.493 1.171.639 1.865.964 3.151 1.317.9.247 1.423.333 2.352.423 1.115.109 1.755.118 2.869 0l.988-.141 2.163-.658c.813-.312 1.272-.499 2.022-.941.915-.539 1.397-.912 2.163-1.646.744-.712 1.119-1.167 1.693-2.022.49-.73.759-1.157 1.082-1.975.333-.846.427-1.359.564-2.258.131-.855.175-1.346.141-2.21-.032-.815-.091-1.276-.282-2.069-.163-.678-.564-1.693-.564-1.693l-1.693.941.282-5.879 5.361 2.634-.988.564s.709 1.863.988 3.104c.207.925.3 1.454.376 2.399.081 1.007.127 1.585 0 2.587-.088.69-.376 1.74-.376 1.74s.631-1.023.893-1.74c.31-.846.35-1.365.47-2.258.125-.93.148-1.46.141-2.399-.01-1.403-.099-2.198-.376-3.574-.227-1.123-.386-1.753-.799-2.822-.477-1.233-.849-1.89-1.552-3.01-.993-1.581-1.632-2.455-3.01-3.715-.93-.85-1.502-1.287-2.587-1.928-1.061-.628-1.694-.942-2.869-1.317-1.053-.337-1.676-.443-2.775-.564-.695-.077-1.088-.095-1.787-.094-.958.002-2.446.188-2.446.188l2.822.47c1.088.255 2.022.511 3.245 1.035.755.323 1.199.483 1.881.941.713.479 1.111.787 1.646 1.458.426.534.721.844.894 1.505.158.604.131.989 0 1.599s-.274.965-.658 1.458c-.436.559-.787.852-1.458 1.082-.592.203-.984.209-1.599.094-.382-.072-.583-.175-.941-.329a6.37 6.37 0 0 1-1.693-1.035z" fill="#05acf0"/></svg>