<svg width="27" height="27" viewBox="0 0 27 27" fill="none" xmlns="http://www.w3.org/2000/svg">
<path d="M4.5 4.5H22.5C23.7375 4.5 24.75 5.5125 24.75 6.75V20.25C24.75 21.4875 23.7375 22.5 22.5 22.5H4.5C3.2625 22.5 2.25 21.4875 2.25 20.25V6.75C2.25 5.5125 3.2625 4.5 4.5 4.5Z" stroke="#4F4F4F" stroke-width="2" stroke-linecap="round" stroke-linejoin="round"/>
<path d="M23.625 5.625L13.5 10.125L3.375 5.625" stroke="#4F4F4F" stroke-width="2" stroke-linecap="round" stroke-linejoin="round"/>
<path d="M16.7662 14.0156L16.4292 15.299H10.2385L10.5708 14.0156H16.7662ZM13.5485 21.125L10.3908 17.3672L10.3954 16.2131H11.9558C12.3036 16.2131 12.5944 16.1484 12.8283 16.0192C13.0622 15.8899 13.2376 15.7145 13.3546 15.4929C13.4715 15.2713 13.5315 15.0189 13.5346 14.7358C13.5315 14.3111 13.4069 13.9648 13.1607 13.6971C12.9176 13.4263 12.5159 13.2908 11.9558 13.2908H10.2385L10.617 11.6705H11.9558C12.7406 11.6705 13.3946 11.7889 13.9178 12.0259C14.4441 12.2598 14.838 12.5937 15.0996 13.0277C15.3643 13.4616 15.4982 13.9787 15.5012 14.5788C15.4982 15.1113 15.4089 15.576 15.2335 15.973C15.0611 16.37 14.7888 16.7009 14.4164 16.9656C14.0471 17.2302 13.5654 17.4272 12.9714 17.5565L12.8975 17.5842L15.7228 21.0419V21.125H13.5485ZM16.7754 11.6705L16.4292 12.9723H11.3326L11.6788 11.6705H16.7754Z" fill="#4F4F4F"/>
</svg>
