<svg width="270" height="233" viewBox="0 0 270 233" fill="none" xmlns="http://www.w3.org/2000/svg">
<path d="M169.55 222.625C169.55 222.625 167.457 226.626 169.133 228.909C170.457 230.717 171.394 231.591 176.42 231.173C180.666 230.819 181.955 228.078 182.286 226.398C183.376 220.867 182.571 221.191 182.571 221.191L169.55 222.625Z" fill="#1E1C1B"/>
<path d="M172.419 210.055C172.735 220.449 167.261 223.77 168.817 226.74C169.999 228.995 170.274 228.817 173.236 229.219C176.925 229.72 180.985 227.955 182.399 224.412C183.825 220.864 182.623 218.798 182.455 212.406C182.286 205.999 172.419 210.055 172.419 210.055Z" fill="#100F0D"/>
<path d="M167.095 113.716C162.189 135.449 165.559 136.389 164.848 169.331C165.834 185.653 165.284 199.155 167.026 218.779C178.717 222.951 185.939 217.38 185.939 217.38C185.939 217.38 186.833 180.335 186.649 173.687C186.443 167.061 191.555 125.913 191.555 125.913L167.095 113.716Z" fill="#100F0D"/>
<path d="M217.712 139.69C215.145 162.247 212.669 170.454 212.669 170.454C212.669 170.454 213.036 203.488 209.436 220.613C199.487 222.056 191.67 220.613 191.67 220.613C191.67 220.613 191.464 220.063 192.014 206.537C192.518 193.86 192.381 176.162 192.335 163.645C192.312 148.653 192.312 125.431 191.303 113.878C190.295 102.324 220.165 118.324 217.712 139.69Z" fill="#100F0D"/>
<path d="M210.605 223.127C206.873 220.931 206.562 214.3 207.612 208.21L197.319 208.505C197.319 208.505 197.413 209.257 197.512 210.477L196.364 211.735C195.314 217.211 193.682 223.297 195.857 225.141C197.255 226.322 198.913 225.847 200.049 227.485C200.026 227.604 202.897 231.674 211.275 232.011C217.352 232.252 216.303 226.481 210.605 223.127Z" fill="#100F0D"/>
<path d="M209.551 220.384C213.15 203.259 213.356 164.861 213.356 164.861C213.356 164.861 215.374 162.476 216.153 139.782C217.093 113.625 208.68 134.578 207.098 158.603C205.699 179.647 202.788 209.059 201.917 221.14C207.075 220.681 206.8 221.117 209.551 220.384Z" fill="#1E1C1B"/>
<path d="M214.35 54.3378C218.227 53.9249 219.607 59.1825 222.931 80.7874C224.06 88.0974 229.034 100.384 227.195 103.877C223.606 110.705 208.876 110.578 208.876 110.578L207.427 74.1388L212.271 58.3547C212.271 58.3547 213.66 54.4114 214.35 54.3378Z" fill="#100F0D"/>
<path d="M177.618 33.3209L176.792 44.7145L171.841 49.2764C171.841 49.2764 179.383 69.8168 184.426 71.6505C189.447 73.4842 194.398 60.3942 194.284 56.91C194.169 53.4484 193.092 34.3298 193.092 34.3298L177.618 33.3209Z" fill="#DCA296"/>
<path d="M201.115 51.7973C201.069 50.285 193.825 48.9317 193.573 44.3469C193.229 38.4329 193.114 35.819 193.114 35.819L186.374 35.3842L183.601 73.5527C188.621 75.2032 201.229 55.2359 201.115 51.7973Z" fill="#E9C3B5"/>
<path d="M176.629 44.8647C177.306 40.8739 177.426 34.2452 175.898 30.4097C175.709 29.9311 175.923 29.722 176.433 29.722C178.03 29.722 182.528 31.7727 186.58 33.9039L177.617 33.3208L176.792 44.7145L176.629 44.8647Z" fill="url(#paint0_linear_134_2199)"/>
<path d="M178.007 57.437C175.577 56.6122 176.609 48.8863 175.761 47.8544C176.087 47.3381 176.392 46.2624 176.629 44.8646L176.792 44.7143L177.618 33.3207L186.581 33.9037C187.666 34.4768 188.718 35.053 189.673 35.5983L186.375 35.3844L185.486 47.6257L178.007 57.437Z" fill="url(#paint1_linear_134_2199)"/>
<path d="M185.485 47.626L186.374 35.3847L189.673 35.5986C191.084 36.4005 192.284 37.1338 193.068 37.6771L185.485 47.626Z" fill="url(#paint2_linear_134_2199)"/>
<path d="M197.411 21.5484C197.493 14.452 196.253 8.45835 186.105 8.21357C173.433 7.90816 174.327 15.6999 173.94 24.3403C173.555 32.9776 178.606 42.4678 185.058 42.7602C189.974 42.9742 194.261 37.7912 196.194 31.4901C197.554 30.8146 198.624 29.0464 198.815 26.8943C199.059 24.0874 199.245 21.8158 197.411 21.5484Z" fill="#E9C3B5"/>
<path d="M173.995 20.7661L173.432 20.7045C171.441 20.7661 171.517 23.1013 171.611 25.9878C171.688 28.4842 172.966 30.5349 174.612 30.9926C176.211 37.2181 180.218 42.4856 184.989 42.6914L185.628 42.6667L185.931 8.15293C175.124 7.93591 174.276 13.6721 173.995 20.7661Z" fill="#DCA296"/>
<path d="M182.553 7.65709L182.788 7.00936C182.788 7.00936 186.754 2.695 186.257 2.695C185.964 2.695 181.305 3.4133 180.714 4.84708L183.763 3.15578L178.18 5.57836C178.18 5.57836 176.81 5.37638 175.824 6.20242C174.833 7.02209 174.077 7.66397 174.077 7.66397C174.077 7.66397 174.275 8.71364 174.436 7.24114C173.075 7.69479 172.217 11.1006 172.253 13.6039C172.133 14.3581 172.039 15.1829 171.98 16.0904C171.731 19.8296 172.505 20.7996 172.505 20.7996L174.003 21.2145L175.154 22.0225L175.615 18.958C175.615 18.958 174.721 16.1281 177.872 13.5402C181.025 10.9554 185.574 12.4556 185.574 12.4556L182.553 7.65709Z" fill="#100F0D"/>
<path d="M198.336 11.772C197.279 9.59499 196.492 7.63878 194.933 6.89756C194.133 5.15532 190.29 2.95153 190.014 3.22408C189.854 3.39525 191.915 5.14743 191.792 6.22207C190.906 4.52847 188.889 1.68103 188.491 1.84125C188.491 1.84125 188.537 4.46684 188.619 5.82702L188.58 5.81708C188.361 3.62909 188.01 0.281889 188.01 1.04119C188.01 1.68791 186.953 3.75643 186.438 5.39705C186.627 3.7842 188.282 2.68383 187.271 0.941586C187.783 3.09468 183.927 3.58628 182.386 6.00607C182.187 6.17138 182.009 6.34433 181.879 6.57917C181.746 6.80001 181.68 7.11357 181.622 7.44979L181.558 7.57715C181.558 7.57715 179.525 10.5471 181.476 12.2715C182.376 13.0795 187.039 12.8803 190.078 12.9949C192.299 13.8813 194.052 15.7868 194.64 16.8694C195.43 18.334 195.544 21.8162 195.544 21.8162L197.709 21.5816L198.942 22.292C198.942 22.292 200.448 16.1608 198.336 11.772Z" fill="#211E1E"/>
<path d="M193.828 45.5245C192.954 46.6279 187.101 52.3528 184.462 52.0752C181.823 51.7976 177.47 46.3013 176.602 44.4139C175.878 45.201 173.143 47.3154 173.143 47.3154L185.613 78.4819L198.718 50.1419L193.828 45.5245Z" fill="#DAD9D8"/>
<path d="M176.652 44.4518C177.521 46.3342 181.889 51.0922 184.518 51.3727L184.963 81.2529L173.19 47.3561C173.19 47.3561 175.934 45.2318 176.652 44.4518Z" fill="white"/>
<path d="M182.862 55.4756H184.795V50.435H180.979L180.946 52.607L182.862 55.4756Z" fill="#182242"/>
<path d="M182.618 54.7088L179.266 86.5152L184.582 90.6772L184.696 90.5598L184.89 54.7297L182.618 54.7088Z" fill="#182242"/>
<path d="M186.257 55.4756H184.66V50.435H188.56L188.537 52.607L186.257 55.4756Z" fill="#273D7E"/>
<path d="M186.532 54.7088L189.897 86.5152L184.581 90.6772L184.66 54.7088H186.532Z" fill="#273D7E"/>
<path d="M182.549 55.4224H186.576V55.0581H182.595L182.549 55.4224Z" fill="#273D7E"/>
<path d="M179.039 141.57C179.039 141.57 157.674 138.91 157.674 137.856C157.674 121.259 162.396 106.289 162.511 102.324C162.671 97.0277 159.576 82.1269 158.82 79.8574C158.063 77.5877 153.089 64.475 154.143 59.4095C154.602 57.2087 155.129 53.5859 157.261 53.1741C163.359 51.982 163.817 51.363 174.569 46.824C174.569 46.824 176.632 58.7908 178.466 62.4581C180.323 66.1714 181.606 73.8059 183.44 75.8457C185.228 78.6883 185.802 83.5943 185.802 83.5943L187.636 86.7347L186.077 116.743L180.025 141.18L179.039 141.57Z" fill="#100F0D"/>
<path d="M187.382 139.874L183.164 112.525L184.815 80.1558C184.815 80.1558 192.54 67.3875 196.323 51.6151L196.735 47.7406C206.157 52.2796 207.372 51.8209 213.585 53.9304C215.602 54.6179 214.066 59.3171 214.066 59.3171C214.066 59.3171 208.839 77.5192 208.106 79.7888C207.349 82.0583 206.432 95.9501 206.57 101.223C206.661 104.341 211.819 128.71 211.819 139.438L187.382 139.874Z" fill="#1E1C1B"/>
<path d="M183.564 50.4176L178.661 55.7847L175.587 49.2179L174.733 46.3243L176.435 44.4519L183.564 50.4176Z" fill="#DAD9D8"/>
<path d="M186.309 50.5465L190.713 55.6538L196.342 46.1428L193.963 43.5857L186.309 50.5465Z" fill="white"/>
<path d="M175.363 45.5244C175.363 45.2496 169.362 49.2178 169.362 49.2178L169.385 58.061L174.578 57.3995L169.222 62.4349L185.103 80.835C185.103 80.835 177.227 57.0829 175.768 52.9827C173.98 47.957 175.363 45.5244 175.363 45.5244Z" fill="#1E1C1B"/>
<path d="M195.682 45.4833C194.933 45.5243 200.506 49.735 200.506 49.735L201.344 58.611L196.153 57.9516L198.672 61.4081L183.438 81.9434C183.438 81.9434 192.949 56.7188 194.729 52.7557C196.53 48.8027 195.682 45.4833 195.682 45.4833Z" fill="#100F0D"/>
<path d="M224.199 226.985H220.233L213.081 159.45H219.729L224.199 226.985Z" fill="#1E1C1B"/>
<path d="M157.513 226.985H153.547L159.507 159.45H166.155L157.513 226.985Z" fill="#1E1C1B"/>
<path d="M248.545 164.242C248.545 165.273 247.421 166.099 246.023 166.099H58.7776C57.3792 166.099 56.2559 165.273 56.2559 164.242V128.502C56.2559 127.493 57.3792 126.646 58.7776 126.646H246.023C247.421 126.646 248.545 127.493 248.545 128.502V164.242Z" fill="#7FA6DB"/>
<path d="M243.456 231.364H250.792V126.347H243.456V231.364Z" fill="#7FA6DB"/>
<path d="M268.861 117.143C268.861 117.395 268.372 117.588 267.771 117.588H40.632C40.0308 117.588 39.5469 117.395 39.5469 117.143L51.8113 112.963C52.927 112.593 53.3447 112.509 53.9484 112.509L252.019 112.532C252.631 112.532 253.476 112.642 254.966 113.004L268.861 117.143Z" fill="#AECCE5"/>
<path d="M55.6143 231.364H128.674V146.223H55.6143V231.364Z" fill="#7FA6DB"/>
<path d="M153.129 111.696L156.815 109.183H202.561L209.599 110.859L153.129 111.696Z" fill="white"/>
<path d="M0 165.548L45.2525 123.552L158.638 124.045C158.526 124.899 158.419 125.767 158.323 126.646H58.7778C57.3795 126.646 56.2561 127.494 56.2561 128.502V146.223H55.6143V165.25L0 165.548ZM250.792 141.579V126.347H243.456V126.646H215.33C214.941 125.838 214.51 125.051 214.052 124.287L266.265 124.514L250.792 141.579Z" fill="url(#paint3_linear_134_2199)"/>
<path d="M185.342 126.646H183.623L184.239 124.157L184.96 124.159L185.342 126.646Z" fill="url(#paint4_linear_134_2199)"/>
<path d="M215.33 126.646H210.649C210.539 125.859 210.424 125.067 210.305 124.269L214.052 124.287C214.51 125.051 214.94 125.838 215.33 126.646Z" fill="url(#paint5_linear_134_2199)"/>
<path d="M183.623 126.646H158.322C158.419 125.767 158.526 124.898 158.638 124.045L184.239 124.157L183.623 126.646Z" fill="url(#paint6_linear_134_2199)"/>
<path d="M210.649 126.646H185.343L184.961 124.159L210.305 124.269C210.425 125.067 210.539 125.859 210.649 126.646Z" fill="url(#paint7_linear_134_2199)"/>
<path d="M128.675 164.856V146.223H56.2568V128.502C56.2568 127.493 57.3802 126.646 58.7785 126.646H158.323H183.624H185.343H210.649H215.331H243.456V149.671L230.183 164.311L128.675 164.856Z" fill="url(#paint8_linear_134_2199)"/>
<path d="M243.456 149.671V126.347H250.792V141.579L243.456 149.671Z" fill="url(#paint9_linear_134_2199)"/>
<path d="M55.6133 165.25V146.223H128.673V164.856L55.6133 165.25Z" fill="url(#paint10_linear_134_2199)"/>
<path d="M269.195 126.595C269.195 127.31 268.726 127.883 268.137 127.883H40.0205C39.4372 127.883 38.9609 127.31 38.9609 126.595V118.214C38.9609 117.502 39.4372 116.929 40.0205 116.929H268.137C268.726 116.929 269.195 117.502 269.195 118.214V126.595Z" fill="#7FA6DB"/>
<path d="M207.139 115.035H148.993V110.566H207.139V115.035Z" fill="#7FA6DB"/>
<path d="M110.834 67.2105V115.082H122.991V67.2105H110.834Z" fill="#182242"/>
<path d="M117.028 110.708V115.082H122.991V67.2105H117.028V104.139V110.708Z" fill="#273D7E"/>
<path d="M113.876 108.528L113.697 108.289V105.917L113.876 105.681H120.406L120.595 105.917V108.289L120.406 108.528H113.876Z" fill="#AECCE5"/>
<path d="M113.876 108.528H120.406L120.595 108.289V107.097H113.697V108.289L113.876 108.528Z" fill="white"/>
<path d="M113.876 75.5039L113.697 75.1099V71.1608L113.876 70.7667H120.406L120.595 71.1608V75.1099L120.406 75.5039H113.876Z" fill="#AECCE5"/>
<path d="M113.876 75.5039H120.406L120.595 75.1099V73.118H113.697V75.1099L113.876 75.5039Z" fill="white"/>
<path d="M99.3633 67.2105V115.082H111.518V67.2105H99.3633Z" fill="#6A1317"/>
<path d="M105.6 110.708V115.082H111.557V67.2105H105.6V104.139V110.708Z" fill="#A51C21"/>
<path d="M102.306 108.528L102.12 108.289V105.917L102.306 105.681H108.827L109.015 105.917V108.289L108.827 108.528H102.306Z" fill="#AECCE5"/>
<path d="M102.306 108.528H108.827L109.015 108.289V107.097H102.12V108.289L102.306 108.528Z" fill="white"/>
<path d="M102.306 75.5039L102.12 75.1099V71.1608L102.306 70.7667H108.827L109.015 71.1608V75.1099L108.827 75.5039H102.306Z" fill="#AECCE5"/>
<path d="M102.306 75.5039H108.827L109.015 75.1099V73.118H102.12V75.1099L102.306 75.5039Z" fill="white"/>
<path d="M88.276 65.9678L67.8633 107.988L78.7396 115.082L99.1473 73.059L88.276 65.9678Z" fill="#1E1C1B"/>
<path d="M75.2715 107.759L73.4121 111.6L78.7407 115.082L99.1484 73.059L93.8172 69.5745L78.0759 101.992L75.2715 107.759Z" fill="#100F0D"/>
<path d="M73.3862 104.004L73.3174 103.694L74.326 101.605L74.6012 101.506L80.4392 105.319L80.5003 105.632L79.4917 107.718L79.2293 107.815L73.3862 104.004Z" fill="#AECCE5"/>
<path d="M73.3862 104.004L79.2293 107.815L79.4917 107.718L79.9985 106.671L73.8345 102.642L73.3174 103.694L73.3862 104.004Z" fill="white"/>
<path d="M87.4609 75.0201L87.4762 74.5716L89.1472 71.11L89.4808 70.8663L95.3265 74.674L95.3214 75.1218L93.6378 78.5861L93.3092 78.8281L87.4609 75.0201Z" fill="#AECCE5"/>
<path d="M87.4609 75.0201L93.3092 78.8281L93.6378 78.5861L94.4834 76.8439L88.3194 72.8194L87.4762 74.5716L87.4609 75.0201Z" fill="white"/>
<path d="M74.9394 66.0748L54.1572 107.848L64.9749 115.064L85.7596 73.2783L74.9394 66.0748Z" fill="#273D7E"/>
<path d="M61.6029 107.723L59.7002 111.546L65.0059 115.082L85.788 73.3107L80.4798 69.7707L64.4531 101.994L61.6029 107.723Z" fill="#182242"/>
<path d="M59.5246 103.808L59.4609 103.487L60.4874 101.411L60.765 101.312L66.5598 105.183L66.6235 105.51L65.5894 107.578L65.3245 107.675L59.5246 103.808Z" fill="#AECCE5"/>
<path d="M59.5246 103.808L65.3245 107.675L65.5894 107.578L66.1115 106.539L59.9755 102.44L59.4609 103.487L59.5246 103.808Z" fill="white"/>
<path d="M73.8545 74.9844L73.857 74.5336L75.5738 71.0949L75.9151 70.8581L81.7098 74.7297L81.7074 75.1783L79.9982 78.6268L79.6569 78.8589L73.8545 74.9844Z" fill="#AECCE5"/>
<path d="M73.8545 74.9844L79.6569 78.8589L79.9982 78.6268L80.8566 76.8866L74.7179 72.7995L73.857 74.5336L73.8545 74.9844Z" fill="white"/>
<path d="M157.487 53.8338C147.879 53.385 138.022 104.69 139.614 106.56C143.467 111.083 153.307 112.983 154.39 111.776C156.654 109.247 160.88 103.377 164.02 95.1102L157.711 92.9294L163.297 76.175L157.487 53.8338Z" fill="#100F0D"/>
<path d="M163.201 96.1973C163.201 96.1973 170.04 96.0949 171.306 96.3983C172.569 96.6989 174.546 97.9982 176.441 100C177.857 101.493 176.293 102.283 174.541 101.274C173.081 100.418 171.395 99.3604 171.395 99.3604L169.253 99.6131L168.781 99.6688C168.781 99.6688 173.545 102.652 174.067 102.98C174.597 103.308 176.81 105.69 177.475 106.215C178.422 106.954 178.328 108.579 176.647 107.774C174.971 106.971 171.95 104.776 170.906 104.129C169.859 103.477 169.53 103.517 169.53 103.517C172.431 105.369 175.918 107.702 176.464 108.765C177.011 109.829 176.117 110.491 174.377 109.404C172.63 108.316 167.987 105.222 167.987 105.222L173.038 109.758C173.038 109.758 173.774 112.145 171.163 110.52C165.865 107.219 162.126 106.696 161.306 106.085C159.477 104.725 158.18 99.5973 163.201 96.1973Z" fill="#DCA296"/>
<path d="M155.571 106.011C155.788 104.086 156.985 96.7654 162.428 94.7735C164.853 95.5784 165.854 95.9496 165.854 95.9496C165.854 95.9496 161.865 97.8222 159.8 108.798L155.571 106.011Z" fill="white"/>
<path d="M202.847 95.3063C202.847 95.3063 196.005 95.2039 194.739 95.5042C193.481 95.8057 191.499 97.1071 189.604 99.1061C188.188 100.598 189.757 101.392 191.499 100.38C192.967 99.5241 194.65 98.4673 194.65 98.4673L196.792 98.722L197.264 98.7747C197.264 98.7747 192.5 101.758 191.976 102.086C191.448 102.42 189.232 104.796 188.57 105.322C187.625 106.063 187.714 107.685 189.395 106.883C191.069 106.078 194.092 103.882 195.134 103.235C196.184 102.583 196.515 102.626 196.515 102.626C193.611 104.476 190.124 106.809 189.579 107.871C189.034 108.936 189.925 109.598 191.668 108.511C193.415 107.425 198.061 104.331 198.061 104.331L193.005 108.865C193.005 108.865 192.269 111.254 194.885 109.626C200.18 106.325 203.917 105.805 204.739 105.194C206.566 103.834 207.862 98.7062 202.847 95.3063Z" fill="#DCA296"/>
<path d="M210.473 105.117C210.259 103.194 209.062 95.8739 203.611 93.879C201.189 94.6869 200.19 95.056 200.19 95.056C200.19 95.056 204.177 96.9307 206.242 107.904L210.473 105.117Z" fill="white"/>
<path d="M241.999 103.515C241.999 104.753 240.95 105.754 239.658 105.754H185.017C183.726 105.754 182.679 104.753 182.679 103.515V62.8855C182.679 61.6476 183.726 60.6438 185.017 60.6438H239.658C240.95 60.6438 241.999 61.6476 241.999 62.8855V103.515Z" fill="#AECCE5"/>
<path d="M209.279 87.9143L204.758 115.385H221.544L215.731 87.9143H209.279Z" fill="#7FA6DB"/>
<defs>
<linearGradient id="paint0_linear_134_2199" x1="175.625" y1="43.6268" x2="193.228" y2="43.0721" gradientUnits="userSpaceOnUse">
<stop stop-color="white"/>
<stop offset="0.642857" stop-color="#C4BDB4"/>
<stop offset="1" stop-color="#C4BDB4"/>
</linearGradient>
<linearGradient id="paint1_linear_134_2199" x1="175.626" y1="43.6267" x2="193.228" y2="43.0719" gradientUnits="userSpaceOnUse">
<stop stop-color="#DCA296"/>
<stop offset="0.642857" stop-color="#A8786B"/>
<stop offset="1" stop-color="#A8786B"/>
</linearGradient>
<linearGradient id="paint2_linear_134_2199" x1="175.625" y1="43.627" x2="193.228" y2="43.0722" gradientUnits="userSpaceOnUse">
<stop stop-color="#E9C3B5"/>
<stop offset="0.642857" stop-color="#B0917F"/>
<stop offset="1" stop-color="#B0917F"/>
</linearGradient>
<linearGradient id="paint3_linear_134_2199" x1="133.124" y1="215.702" x2="133.124" y2="130.344" gradientUnits="userSpaceOnUse">
<stop stop-color="white"/>
<stop offset="0.697802" stop-color="white"/>
<stop offset="0.956044" stop-color="#C5C5C6"/>
<stop offset="1" stop-color="#C5C5C6"/>
</linearGradient>
<linearGradient id="paint4_linear_134_2199" x1="133.123" y1="215.702" x2="133.123" y2="130.344" gradientUnits="userSpaceOnUse">
<stop stop-color="#100F0D"/>
<stop offset="0.697802" stop-color="#100F0D"/>
<stop offset="0.956044" stop-color="#100F0D"/>
<stop offset="1" stop-color="#100F0D"/>
</linearGradient>
<linearGradient id="paint5_linear_134_2199" x1="133.124" y1="215.702" x2="133.124" y2="130.344" gradientUnits="userSpaceOnUse">
<stop stop-color="#100F0D"/>
<stop offset="0.697802" stop-color="#100F0D"/>
<stop offset="0.956044" stop-color="#100F0D"/>
<stop offset="1" stop-color="#100F0D"/>
</linearGradient>
<linearGradient id="paint6_linear_134_2199" x1="133.123" y1="215.701" x2="133.123" y2="130.344" gradientUnits="userSpaceOnUse">
<stop stop-color="#100F0D"/>
<stop offset="0.697802" stop-color="#100F0D"/>
<stop offset="0.956044" stop-color="#100F0D"/>
<stop offset="1" stop-color="#100F0D"/>
</linearGradient>
<linearGradient id="paint7_linear_134_2199" x1="133.124" y1="215.702" x2="133.124" y2="130.344" gradientUnits="userSpaceOnUse">
<stop stop-color="#1E1C1B"/>
<stop offset="0.697802" stop-color="#1E1C1B"/>
<stop offset="0.956044" stop-color="#1A1818"/>
<stop offset="1" stop-color="#1A1818"/>
</linearGradient>
<linearGradient id="paint8_linear_134_2199" x1="133.124" y1="215.701" x2="133.124" y2="130.344" gradientUnits="userSpaceOnUse">
<stop stop-color="#7FA6DB"/>
<stop offset="0.697802" stop-color="#7FA6DB"/>
<stop offset="0.956044" stop-color="#5D7EAB"/>
<stop offset="1" stop-color="#5D7EAB"/>
</linearGradient>
<linearGradient id="paint9_linear_134_2199" x1="133.124" y1="215.701" x2="133.124" y2="130.344" gradientUnits="userSpaceOnUse">
<stop stop-color="#7FA6DB"/>
<stop offset="0.697802" stop-color="#7FA6DB"/>
<stop offset="0.956044" stop-color="#5D7EAB"/>
<stop offset="1" stop-color="#5D7EAB"/>
</linearGradient>
<linearGradient id="paint10_linear_134_2199" x1="133.123" y1="215.701" x2="133.123" y2="130.344" gradientUnits="userSpaceOnUse">
<stop stop-color="#7FA6DB"/>
<stop offset="0.697802" stop-color="#7FA6DB"/>
<stop offset="0.956044" stop-color="#5D7EAB"/>
<stop offset="1" stop-color="#5D7EAB"/>
</linearGradient>
</defs>
</svg>
