<svg width="65" height="65" viewBox="0 0 65 65" fill="none" xmlns="http://www.w3.org/2000/svg">
<path d="M32.5 0C41.4766 0 49.6016 3.63932 55.4785 9.52148C61.3607 15.4036 65 23.5286 65 32.5C65 41.4766 61.3607 49.6016 55.4785 55.4785C49.5964 61.3607 41.4714 65 32.5 65C23.5286 65 15.3984 61.3607 9.52148 55.4785C3.63932 49.6016 0 41.4766 0 32.5C0 23.5234 3.63932 15.3984 9.52148 9.52148C15.3984 3.63932 23.5234 0 32.5 0ZM24.5919 46.0364C27.7657 52.6538 37.3877 52.8866 40.4293 46.0734C39.5988 45.2323 38.9852 44.3384 38.3769 43.4444C38.2764 43.2963 38.1759 43.1535 38.0754 43.0054C36.6101 44.1691 34.8275 44.9097 32.5053 44.9044C30.0033 44.8991 28.1201 43.9417 26.5755 42.5293C26.4856 42.4447 26.3904 42.36 26.3005 42.2701C26.0783 42.8837 25.7979 43.619 25.4964 44.3066C25.2055 44.9679 24.8934 45.5868 24.5919 46.0364ZM49.0145 57.039L49.7339 49.3795C47.0732 48.8611 44.222 48.3004 41.2756 46.6024C39.0698 53.9498 27.2156 54.8226 23.8778 46.7928C21.2329 48.1258 18.5404 48.8875 15.4724 49.3583L16.5145 57.3828C21.1218 60.3503 26.6126 62.0748 32.5053 62.0748C38.6149 62.0748 44.2961 60.2181 49.0145 57.039ZM8.75977 50.1412L8.88672 50.0671C12.0394 48.311 20.2437 47.7291 23.6503 45.354C23.8989 44.9784 24.1687 44.4336 24.4279 43.8411C24.8193 42.9472 25.1737 41.9739 25.4012 41.3074C24.4491 40.186 23.6344 38.9217 22.8516 37.6733L20.2702 33.5685C19.3286 32.1615 18.8367 30.8761 18.8049 29.8181C18.7891 29.3209 18.8737 28.8713 19.0588 28.4745C19.2493 28.0566 19.5455 27.7128 19.9475 27.443C20.1327 27.3161 20.3442 27.2103 20.5717 27.1257C20.4024 24.8987 20.3442 22.0951 20.45 19.7465C20.5029 19.1911 20.614 18.6304 20.7674 18.075C21.4286 15.721 23.079 13.822 25.1261 12.5208C26.2528 11.8014 27.4906 11.2618 28.7813 10.8968C29.6012 10.6641 28.0831 8.04565 28.9294 7.95573C33.029 7.53255 39.657 11.2777 42.5187 14.3722C43.9522 15.922 44.8515 17.9797 45.0472 20.6987L44.8885 27.3954C45.6026 27.6123 46.0628 28.0672 46.248 28.8025C46.4543 29.6171 46.2321 30.765 45.5391 32.3254C45.5286 32.3519 45.5127 32.3836 45.4968 32.4101L42.5557 37.2555C41.4766 39.0328 40.3764 40.8207 38.9482 42.2278C39.0751 42.4129 39.2074 42.5981 39.3343 42.7885C39.9162 43.6401 40.5033 44.4971 41.2545 45.2588C41.2809 45.2852 41.3021 45.3117 41.318 45.3381C44.7034 47.7291 52.9447 48.311 56.108 50.0724L56.2349 50.1465C59.9007 45.2218 62.0695 39.1174 62.0695 32.5053C62.0695 24.338 58.7581 16.943 53.4049 11.5951C48.0623 6.23657 40.6673 2.92521 32.5 2.92521C24.3327 2.92521 16.9377 6.23657 11.5898 11.5898C6.23657 16.9377 2.92521 24.3327 2.92521 32.5C2.92521 39.1121 5.09399 45.2165 8.75977 50.1412ZM22.0634 28.3211C21.4921 28.3423 21.0583 28.4639 20.7621 28.6597C20.5929 28.7708 20.4712 28.9189 20.3918 29.0881C20.3019 29.2786 20.2649 29.5113 20.2702 29.7811C20.2913 30.564 20.7039 31.5902 21.4974 32.7751L21.508 32.7909L24.0894 36.8958C25.1261 38.5409 26.2105 40.2177 27.5594 41.4502C28.8554 42.6351 30.4264 43.4391 32.5106 43.4444C34.764 43.4497 36.4091 42.6139 37.7474 41.3656C39.1386 40.0643 40.2336 38.2817 41.318 36.499L44.2273 31.7118C44.7668 30.474 44.9679 29.6488 44.8409 29.1622C44.7668 28.8713 44.4495 28.7337 43.9046 28.702C43.7882 28.6967 43.6719 28.6967 43.5502 28.6967C43.4233 28.702 43.2857 28.7073 43.1429 28.7231C43.0636 28.7284 42.9895 28.7231 42.9207 28.7073C42.6615 28.7231 42.3971 28.702 42.122 28.665L43.1165 24.2586C35.732 25.4224 30.2043 19.9369 22.3966 23.1637L22.9574 28.3582C22.6347 28.374 22.3385 28.3634 22.0634 28.3211Z" fill="black"/>
</svg>
