<svg width="750" height="600" viewBox="0 0 750 600" fill="none" xmlns="http://www.w3.org/2000/svg">
<path d="M48 504.924H713V504.578H48V504.924Z" fill="#E7E8E5"/>
<path d="M602.316 526.825H646.369V527.17H602.316V526.825Z" fill="#E7E8E5"/>
<path d="M476.961 530.921H488.523V530.575H476.961V530.921Z" fill="#E7E8E5"/>
<path d="M575.459 513.99H600.984V514.336H575.459V513.99" fill="#E7E8E5"/>
<path d="M117.771 516.313H175.218V516.658H117.771V516.313Z" fill="#E7E8E5"/>
<path d="M187.06 516.313H195.482V516.658H187.06V516.313Z" fill="#E7E8E5"/>
<path d="M222.856 522.148H347.446V522.493H222.856V522.148" fill="#E7E8E5"/>
<path d="M106.407 52.347C102.404 52.347 99.1479 55.7305 99.1479 59.8893V435.047C99.1479 439.207 102.404 442.59 106.407 442.59H363.229C367.231 442.59 370.487 439.207 370.487 435.047V59.8893C370.487 55.7305 367.231 52.347 363.229 52.347H106.407ZM363.229 442.936H106.407C102.221 442.936 98.8154 439.398 98.8154 435.047V59.8893C98.8154 55.5411 102.221 52.0014 106.407 52.0014H363.229C367.413 52.0014 370.819 55.5411 370.819 59.8893V435.047C370.819 439.398 367.413 442.936 363.229 442.936Z" fill="#E7E8E5"/>
<path d="M394.082 52.347C390.08 52.347 386.824 55.7305 386.824 59.8893V435.047C386.824 439.207 390.08 442.59 394.082 442.59H650.902C654.905 442.59 658.162 439.207 658.162 435.047V59.8893C658.162 55.7305 654.905 52.347 650.902 52.347H394.082ZM650.902 442.936H394.082C389.896 442.936 386.491 439.398 386.491 435.047V59.8893C386.491 55.5411 389.896 52.0014 394.082 52.0014H650.902C655.089 52.0014 658.495 55.5411 658.495 59.8893V435.047C658.495 439.398 655.089 442.936 650.902 442.936Z" fill="#E7E8E5"/>
<path d="M488.589 289.13H598.365V118.485H488.589V289.13Z" fill="#E2E2E0"/>
<path d="M485.258 289.13H595.034V118.485H485.258V289.13Z" fill="#F3F2F1"/>
<path d="M499.366 274.47H580.926V133.147H499.366V274.47Z" fill="white"/>
<path d="M499.366 274.47H501.219V133.147H499.366V274.47Z" fill="#E2E2E0"/>
<path d="M333.713 504.581L380.265 504.579L380.259 348.552L333.708 348.554L333.713 504.581" fill="#E2E2E0"/>
<path d="M342.555 504.581H333.713L333.712 482.443H351.825L342.555 504.581" fill="#EDEDEB"/>
<path d="M582.464 504.576L629.016 504.574L629.01 348.548L582.459 348.55L582.464 504.576" fill="#E2E2E0"/>
<path d="M333.713 501.336L590.181 501.331L590.176 348.55L333.708 348.554L333.713 501.336" fill="#EDEDEB"/>
<path d="M340.568 357.85V392.966L496.361 392.964L496.359 357.849L340.568 357.85Z" fill="#E2E2E0"/>
<path d="M502.293 357.849L502.294 392.963L583.318 392.962L583.317 357.846L502.293 357.849Z" fill="#E2E2E0"/>
<path d="M534.79 362.093H550.82C557.782 362.093 564.439 360.364 569.228 357.314L516.382 357.315C521.171 360.366 527.828 362.093 534.79 362.093" fill="#EDEDEB"/>
<path d="M372.246 362.096H463.043C470.007 362.096 476.662 360.367 481.451 357.317L353.838 357.318C358.627 360.369 365.283 362.096 372.246 362.096" fill="#EDEDEB"/>
<path d="M340.569 403.027L340.571 438.143L496.362 438.14L496.36 403.024L340.569 403.027" fill="#E2E2E0"/>
<path d="M502.295 403.024L502.296 438.14L583.32 438.137L583.319 403.021L502.295 403.024Z" fill="#E2E2E0"/>
<path d="M534.792 407.27L550.821 407.269C557.785 407.269 564.441 405.541 569.23 402.489L516.384 402.492C521.173 405.542 527.83 407.27 534.792 407.27" fill="#EDEDEB"/>
<path d="M372.247 407.271H463.045C470.008 407.271 476.663 405.544 481.452 402.492L353.839 402.493C358.628 405.545 365.285 407.273 372.247 407.271Z" fill="#EDEDEB"/>
<path d="M340.57 448.203L340.572 483.318L496.362 483.317L496.361 448.201L340.57 448.203" fill="#E2E2E0"/>
<path d="M502.297 448.201V483.317L583.32 483.314L583.319 448.198L502.297 448.201" fill="#E2E2E0"/>
<path d="M534.793 452.445H550.823C557.786 452.445 564.441 450.717 569.231 447.666L516.386 447.667C521.174 450.718 527.83 452.445 534.793 452.445" fill="#EDEDEB"/>
<path d="M372.248 452.448H463.046C470.009 452.448 476.665 450.719 481.453 447.669L353.84 447.67C358.629 450.72 365.286 452.448 372.248 452.448" fill="#EDEDEB"/>
<path d="M581.34 504.577L590.182 504.576L590.18 482.438L572.068 482.439L581.34 504.577" fill="#EDEDEB"/>
<path d="M605.57 320.777C605.57 320.777 604.22 336.629 552.448 336.631C500.676 336.633 499.325 320.78 499.325 320.78L605.57 320.777Z" fill="#FAFAF9"/>
<path d="M605.57 332.697C605.57 332.697 604.22 348.548 552.448 348.55C500.676 348.553 499.325 332.699 499.325 332.699L605.57 332.697Z" fill="#E7E8E5"/>
<path d="M242.972 504.577H296.19L280.424 362.314H242.972V504.577" fill="#E2E2E0"/>
<path d="M153.131 504.579H271.507L283.999 338.07H165.624L153.131 504.579Z" fill="#DADBD8"/>
<path d="M144.617 504.579H267.797L280.29 338.07H157.11L144.617 504.579Z" fill="#F3F2F1"/>
<path d="M256.156 491.456L266.679 351.192H168.752L158.229 491.456H256.156Z" fill="white"/>
<path d="M130.76 309.121H432.396V80.6599H130.76V309.121Z" fill="#E7E8E5"/>
<path d="M141.085 297.033H422.07V92.7484H141.085V297.033Z" fill="#FAFAF9"/>
<path d="M201.552 297.033H172.06L199.83 92.7484H229.323L201.552 297.033" fill="white"/>
<path d="M274.418 297.033H244.925L272.697 92.7484H302.189L274.418 297.033Z" fill="white"/>
<path d="M368.354 297.033H353.607L381.379 92.7484H396.125L368.354 297.033" fill="white"/>
<path d="M300.354 297.033H285.607L313.379 92.7484H328.125L300.354 297.033Z" fill="white"/>
<path d="M235.28 297.033H221.382V92.7484H235.28V297.033Z" fill="#E7E8E5"/>
<path d="M235.28 297.033H238.378V92.7484H235.28V297.033Z" fill="#DADBD8"/>
<path d="M432.396 309.121H434.619V80.6599H432.396V309.121Z" fill="#DADBD8"/>
<path d="M638.373 551.349C638.373 559.993 522.919 567 380.5 567C238.081 567 122.628 559.993 122.628 551.349C122.628 542.706 238.081 535.699 380.5 535.699C522.919 535.699 638.373 542.706 638.373 551.349Z" fill="#F3F2F1"/>
<path d="M442.453 511.365L459.311 501.248L469.604 522.664L455.531 531.141L442.453 511.365Z" fill="#F9A8B3"/>
<path d="M465.077 513.247L462.787 508.483L462.796 508.477L465.084 513.243L465.077 513.247Z" fill="#C3C5C2"/>
<path d="M449.781 522.446L446.941 518.149L462.787 508.483L465.077 513.247L449.781 522.446" fill="#D8898C"/>
<path d="M448.514 442.314C460.457 413.561 480.129 380.159 472.068 349.325L418.395 340.507C418.395 340.507 407.296 409.416 409.498 437.681C411.783 467.069 445.162 519.234 445.162 519.234L464.386 507.507C464.386 507.507 456.028 462.916 448.514 442.314" fill="#406FBF"/>
<path d="M445.162 519.234C445.162 519.234 421.186 481.766 412.484 452.448C412.002 450.828 411.567 449.23 411.187 447.669C410.369 444.317 409.797 441.117 409.535 438.141C409.522 437.988 409.51 437.833 409.498 437.681C409.298 435.127 409.208 432.242 409.208 429.106C409.208 424.612 409.394 419.599 409.715 414.309L451.913 407.665C450.695 414.135 450.704 422.493 452.442 433.221C451.075 436.296 449.753 439.33 448.513 442.314C456.028 462.916 464.386 507.507 464.386 507.507L462.787 508.483L446.941 518.149H446.94L445.162 519.234Z" fill="#2251AA"/>
<path d="M466.324 507.276L444.362 520.75L437.373 511.308L463.252 497.069L466.324 507.276" fill="#406FBF"/>
<path d="M452.444 433.232C452.442 433.228 452.442 433.224 452.442 433.221C455.003 427.455 457.716 421.545 460.323 415.537C460.323 415.539 460.323 415.541 460.323 415.544C457.716 421.553 455.001 427.466 452.444 433.232Z" fill="#ACAFAD"/>
<path d="M452.442 433.221C450.704 422.493 450.695 414.135 451.913 407.665L459.39 406.489C459.713 409.555 460.026 412.584 460.322 415.537C457.716 421.545 455.002 427.455 452.442 433.221" fill="#24427C"/>
<path d="M469.056 517.586C468.726 517.145 468.029 517.189 467.766 517.659C464.998 522.588 457.024 527.325 453.946 529.023C453.193 529.436 452.687 530.124 452.443 530.908C450.938 535.722 444.985 542.905 444.985 542.905C444.985 542.905 445.313 544.504 446.071 546.11C446.71 547.467 448.38 547.878 449.507 546.926L474.006 526.244C474.89 525.496 474.95 524.115 474.127 523.297C472.737 521.913 470.682 519.757 469.056 517.586" fill="#17282F"/>
<path d="M474.114 521.124L493.58 521.317L491.813 545.198L475.547 545.063L474.114 521.124Z" fill="#F9A8B3"/>
<path d="M493.515 541.529C493.571 540.969 493.05 540.547 492.542 540.74C487.239 542.761 478.295 541.216 474.93 540.517C474.109 540.345 473.282 540.549 472.581 540.998C468.268 543.75 460.639 545.429 460.639 545.429C460.639 545.429 459.86 546.786 459.329 548.45C458.849 549.955 459.93 551.513 461.456 551.512L491.463 551.496C492.54 551.495 493.404 550.566 493.357 549.449C493.276 547.469 493.227 544.358 493.515 541.529" fill="#17282F"/>
<path d="M492.598 534.698H492.59L492.982 529.388H492.992L492.598 534.698Z" fill="#C3C5C2"/>
<path d="M492.59 534.698L474.918 534.539L474.608 529.337L492.982 529.388L492.59 534.698" fill="#D8898C"/>
<path d="M505.9 440.671C511.966 410.631 522.891 371.584 515.197 356.085L452.355 345.972C452.355 345.972 460.172 408.11 462.235 437.058C464.375 467.155 472.848 529.332 472.848 529.332L493.913 529.391C493.913 529.391 508.576 476.496 505.9 440.671" fill="#406FBF"/>
<path d="M493.913 529.391L492.982 529.388L474.609 529.337L472.849 529.332C472.849 529.332 472.758 528.665 472.594 527.436C472.394 525.96 472.089 523.677 471.705 520.765C469.781 506.179 465.882 475.838 463.575 452.444C463.415 450.817 463.262 449.221 463.119 447.669C462.764 443.841 462.463 440.268 462.236 437.058C461.648 428.822 460.596 417.901 459.391 406.489L464.067 405.752C468.205 405.101 470.928 401.307 470.928 396.732C470.928 395.834 470.823 394.907 470.604 393.965L462.345 358.617C472.776 359.481 483.416 359.748 492.598 359.748C503.525 359.748 512.395 359.369 516.398 359.163C517.411 362.508 517.844 366.58 517.844 371.174C517.847 390.113 510.485 417.965 505.901 440.671C506.124 443.662 506.227 446.771 506.228 449.96C506.229 468.138 502.907 488.858 499.714 504.578C499.691 504.693 499.667 504.809 499.644 504.924C496.714 519.289 493.913 529.391 493.913 529.391" fill="#2251AA"/>
<path d="M496.213 530.214H470.869L470.478 519.25L498.386 519.719L496.213 530.214Z" fill="#406FBF"/>
<path d="M468.951 251.116L467.347 252.452L465.856 253.663C464.865 254.453 463.859 255.203 462.858 255.956C460.86 257.467 458.8 258.869 456.732 260.27C452.562 263.014 448.285 265.635 443.766 267.958C439.268 270.319 434.567 272.453 429.543 274.208C424.537 276.001 419.166 277.378 413.249 277.969L412.162 278.078C409.305 278.365 406.582 277.462 404.469 275.781C400.07 272.264 397.362 267.961 395.588 264.028C394.671 262.046 393.978 260.068 393.454 258.141C392.925 256.213 392.474 254.325 392.18 252.462C391.893 250.593 391.684 248.758 391.542 246.947C391.414 245.134 391.393 243.338 391.397 241.565C391.414 239.79 391.526 238.027 391.674 236.276L391.977 233.644L392.42 230.885C393.047 226.97 396.612 224.324 400.381 224.977C402.79 225.395 404.698 227.059 405.599 229.228L406.149 230.587C406.357 231.098 406.597 231.88 406.833 232.541L407.528 234.613C407.981 235.992 408.481 237.354 408.969 238.686C409.96 241.349 411 243.906 412.153 246.202C413.25 248.505 414.538 250.542 415.728 252.022C416.917 253.562 418.139 254.25 418.694 254.377L409.916 252.191C413.079 251.451 416.559 250.136 420.105 248.525C421.874 247.727 423.66 246.799 425.441 245.832C427.235 244.895 429.031 243.862 430.817 242.795C434.381 240.633 437.966 238.343 441.485 235.908C443.256 234.71 444.992 233.444 446.736 232.209L449.314 230.328L451.698 228.562L452.238 228.162C458.469 223.549 467.12 225.057 471.56 231.533C475.839 237.772 474.615 246.369 468.951 251.116" fill="#F9A8B3"/>
<path d="M405.568 230.282L398.696 234.94C390.276 236.86 389.773 225.182 389.773 225.182L387.35 219.669C386.528 217.799 387.322 215.466 389.225 214.154L394.005 210.859C396.184 209.357 399.014 209.727 400.279 211.679L403.122 216.067C403.95 217.344 404.459 218.813 404.608 220.345L405.568 230.282" fill="#F9A8B3"/>
<path d="M468.494 222.082C455.327 221.265 428.266 238.912 428.266 238.912C425.149 249.225 430.581 268.774 438.51 273.607C438.51 273.607 458.658 264.612 468.14 255.867C479.599 245.298 495.128 223.731 468.494 222.082Z" fill="#17282F"/>
<path d="M469.714 222.104C485.837 222.939 506.999 226.556 523.085 231.598C533.125 234.747 539.383 242.55 534.884 264.196C525.757 308.103 526.507 343.976 518.705 359.035C518.705 359.035 427.352 364.899 415.136 343.002C417.611 288.791 442.618 247.478 453.768 230.397C457.334 224.935 463.37 221.777 469.714 222.104Z" fill="#17282F"/>
<path d="M474.888 228.107C477.248 226.352 479.202 227.91 480.663 224.932C481.441 222.745 481.479 220.33 480.613 217.531L506.996 207.797C505.13 217.029 503.674 224.323 507.09 228.659C507.211 235.785 491.374 242.294 477.987 239.651C466.205 237.325 471.494 230.634 474.888 228.107" fill="#F9A8B3"/>
<path d="M481.135 223.062H481.133C481.229 222.433 481.268 221.785 481.247 221.115C481.249 221.116 481.247 221.116 481.249 221.116C481.27 221.786 481.231 222.435 481.135 223.062" fill="#C3C5C2"/>
<path d="M480.972 223.896C480.971 223.896 480.971 223.896 480.971 223.896C481.036 223.622 481.09 223.344 481.133 223.062H481.136C481.092 223.344 481.037 223.622 480.972 223.896" fill="#111D23"/>
<path d="M485.009 224.873C483.444 224.873 482.058 224.555 480.973 223.896C481.038 223.622 481.092 223.344 481.136 223.062C481.232 222.435 481.271 221.787 481.249 221.116C483.057 221.98 485.237 222.453 487.817 222.453C490.006 222.453 492.484 222.113 495.27 221.385C491.79 223.66 488.062 224.873 485.009 224.873" fill="#D8898C"/>
<path d="M478.918 192.393C477.864 181.768 487.83 168.321 496.159 172.957C504.487 177.594 478.918 192.393 478.918 192.393Z" fill="#17282F"/>
<path d="M514.039 198.457C508.76 210.563 504.925 218.667 496.083 221.163C478.515 226.123 472.733 216.093 474.432 202.555C475.958 190.371 484.335 172.621 497.804 172.424C511.073 172.231 519.318 186.349 514.039 198.457Z" fill="#F9A8B3"/>
<path d="M510.995 208.159C504.971 207.252 500.565 195.949 506.868 190.037C513.169 184.125 510.995 178.445 506.421 176.763C501.847 175.083 493.537 176.3 491.64 172.07C489.744 167.837 502.405 164.766 509.767 169.634C517.13 174.504 516.739 171.547 516.739 171.547C516.739 171.547 518.275 174.039 515.36 174.562C521.145 178.561 527.56 188.183 521.592 192.123C529.121 196.528 517.464 206.981 510.995 208.159Z" fill="#17282F"/>
<path d="M519.732 191.457C523.748 192.818 525.458 189.66 525.458 189.66C525.458 189.66 526.723 194.807 519.732 191.457Z" fill="#17282F"/>
<path d="M490.217 204.281C490.751 204.042 491.295 203.742 491.842 203.368C491.988 203.267 492.019 203.062 491.909 202.912C491.798 202.762 491.593 202.721 491.44 202.823C487.45 205.564 483.492 204.004 483.454 203.988C483.28 203.917 483.088 203.995 483.026 204.161C482.962 204.328 483.051 204.522 483.224 204.591C483.377 204.653 486.562 205.912 490.217 204.281" fill="#17282F"/>
<path d="M501.49 195.586C499.121 195.586 497.299 194.747 497.299 194.747C497.299 194.747 497.836 194.624 498.584 194.624C499.483 194.624 500.685 194.803 501.632 195.585C501.584 195.586 501.538 195.586 501.49 195.586" fill="#D8898C"/>
<path d="M500.797 197.588C498.641 197.094 497.177 195.834 497.177 195.834C497.177 195.834 497.178 195.834 497.181 195.834C497.291 195.834 499.632 195.855 500.797 197.588" fill="#D8898C"/>
<path d="M513.307 211.565C510.769 213.974 507.39 214.927 504.563 214.729C500.309 214.431 500.863 210.952 503.199 207.539C505.304 204.468 508.754 200.08 512.467 202.059C516.124 204.011 516.211 208.811 513.307 211.565Z" fill="#F9A8B3"/>
<path d="M494.833 194.355C494.464 195.364 493.65 195.975 493.015 195.717C492.382 195.46 492.168 194.431 492.538 193.421C492.909 192.412 493.723 191.802 494.357 192.059C494.99 192.318 495.204 193.345 494.833 194.355" fill="#17282F"/>
<path d="M483.594 189.808C483.223 190.818 482.409 191.429 481.775 191.171C481.141 190.912 480.927 189.885 481.298 188.875C481.668 187.865 482.482 187.255 483.117 187.514C483.75 187.771 483.964 188.799 483.594 189.808" fill="#17282F"/>
<path d="M487.104 191.456L484.272 200.299C484.272 200.299 481.326 201.362 478.633 198.351C481.45 193.805 487.104 191.456 487.104 191.456Z" fill="#F46878"/>
<path d="M499.996 188.475L500.305 188.498C500.636 188.433 500.85 188.1 500.786 187.754C500.137 184.29 497.542 183.139 497.432 183.092C497.119 182.958 496.764 183.114 496.638 183.439C496.513 183.764 496.662 184.134 496.972 184.27C497.058 184.307 499.073 185.227 499.591 187.99C499.634 188.224 499.795 188.405 499.996 188.475" fill="#17282F"/>
<path d="M479.374 185.087C479.565 185.139 479.776 185.095 479.934 184.948C481.94 183.091 484.073 183.653 484.162 183.678C484.488 183.768 484.821 183.569 484.906 183.23C484.991 182.893 484.8 182.545 484.476 182.451C484.358 182.42 481.631 181.666 479.12 183.995C478.869 184.227 478.848 184.629 479.073 184.893L479.374 185.087" fill="#17282F"/>
<path d="M338.528 264.904L332.75 281.275C331.701 284.253 329.368 286.286 326.483 286.739L249.79 298.813C244.841 299.592 241.914 304.869 243.253 310.599L270.106 425.528C271.445 431.259 276.542 435.272 281.492 434.494L464.067 405.753C469.015 404.973 471.943 399.697 470.603 393.966L438.249 255.485C436.909 249.754 431.811 245.741 426.862 246.52L344.793 259.439C341.91 259.894 339.577 261.927 338.528 264.904" fill="#406FBF"/>
<path d="M280.251 434.591C275.717 434.589 271.334 430.78 270.106 425.528L263.29 396.357L252.737 351.192L243.253 310.599C243.034 309.659 242.929 308.732 242.929 307.833C242.929 303.258 245.653 299.464 249.79 298.813L303.941 290.288V318.509H398.057V251.055L426.862 246.52C427.276 246.455 427.69 246.423 428.103 246.423C432.637 246.423 437.021 250.234 438.248 255.485L470.603 393.966C470.823 394.907 470.928 395.834 470.928 396.733C470.928 401.307 468.204 405.101 464.066 405.752L459.39 406.489L451.913 407.665L409.715 414.309L340.569 425.194L333.711 426.273L281.492 434.494C281.078 434.559 280.663 434.591 280.251 434.591" fill="#2D5BB2"/>
<path d="M299.172 96.8673C300.989 96.8673 302.784 96.9682 304.553 97.1603C316.317 80.2664 335.433 69.2673 357.032 69.2673C384.47 69.2673 407.903 87.0099 417.336 112.049C438.322 115.767 454.3 134.745 454.3 157.614C454.3 183.15 434.38 203.852 409.807 203.852H299.172C270.743 203.852 247.698 179.902 247.698 150.359C247.698 120.817 270.743 96.8673 299.172 96.8673" fill="#406FBF"/>
<path d="M303.941 185.147V318.509H398.058V214.176L370.124 185.147H303.941" fill="#406FBF"/>
<path d="M398.058 318.509H303.941V185.147H370.124L398.058 214.176L370.124 185.147V214.176H398.058V318.509" fill="#A4C3E9"/>
<path d="M398.057 214.176H370.123V185.147L398.057 214.176Z" fill="#759ED9"/>
<path d="M300.507 436.424L300.308 435.048L306.975 433.999L307.174 435.374L300.507 436.424Z" fill="#406FBF"/>
<path d="M314.646 434.198L314.445 432.823L337.731 429.158L337.932 430.533L314.646 434.198" fill="#406FBF"/>
<path d="M372.09 278.002L363.408 293.062C361.829 295.8 359.184 297.692 356.299 298.147L279.606 310.22C274.657 311 270.825 315.868 271.047 321.093L275.503 425.91C275.725 431.137 279.917 434.742 284.866 433.962L467.442 405.222C472.391 404.442 476.222 399.574 476 394.348L470.631 268.051C470.409 262.825 466.217 259.221 461.268 259.999L379.199 272.919C376.315 273.372 373.669 275.264 372.09 278.002Z" fill="#406FBF"/>
<path d="M374.762 165.806C374.339 165.806 373.918 165.638 373.595 165.304C372.949 164.634 372.949 163.547 373.595 162.877C386.053 149.929 386.053 128.862 373.595 115.914C367.559 109.642 359.535 106.188 350.999 106.188C342.465 106.188 334.439 109.642 328.404 115.914C322.368 122.187 319.045 130.525 319.045 139.396C319.045 148.265 322.368 156.605 328.404 162.877C329.049 163.547 329.049 164.634 328.404 165.304C327.76 165.973 326.713 165.973 326.07 165.304C319.41 158.384 315.742 149.183 315.742 139.396C315.742 129.609 319.41 120.408 326.07 113.487C332.728 106.567 341.581 102.756 350.999 102.756C360.417 102.756 369.271 106.567 375.93 113.487C389.676 127.773 389.676 151.018 375.93 165.304C375.607 165.638 375.185 165.806 374.762 165.806" fill="white"/>
<path d="M365.141 176.078V137.831C365.141 134.384 362.453 131.591 359.136 131.591H342.862C339.545 131.591 336.857 134.384 336.857 137.831V176.078H330.736L350.999 194.217L371.263 176.078H365.141" fill="white"/>
<path d="M529.194 271.089L528.387 272.987L527.622 274.72C527.11 275.861 526.564 276.97 526.027 278.085C524.956 280.311 523.786 282.472 522.609 284.634C520.208 288.93 517.652 293.163 514.782 297.258C513.346 299.31 511.876 301.347 510.31 303.354C508.717 305.341 507.081 307.311 505.32 309.24C501.834 313.114 497.89 316.801 493.227 320.127L492.31 320.781C491.845 321.114 491.319 321.393 490.815 321.598C485.285 323.801 480.682 324.184 476.264 324.452C471.877 324.661 467.733 324.348 463.693 323.928C459.657 323.433 455.726 322.755 451.861 321.858C447.968 320.937 444.261 319.926 440.358 318.496C436.715 317.163 434.802 313.013 436.086 309.228C437.026 306.451 439.427 304.642 442.078 304.403L442.363 304.378L453.147 303.419C456.731 303.087 460.269 302.728 463.703 302.249C465.418 302.009 467.104 301.779 468.751 301.484C470.388 301.177 471.98 300.834 473.499 300.494C476.473 299.791 479.3 298.735 480.64 297.833L478.228 299.304C480.642 297.062 483.043 294.237 485.385 291.167C486.553 289.633 487.681 287.993 488.788 286.326C489.92 284.673 491.014 282.945 492.086 281.195C494.206 277.668 496.303 274.043 498.274 270.318C499.281 268.467 500.228 266.578 501.199 264.712L503.899 259.297L504.223 258.646C507.742 251.586 516.103 248.828 522.896 252.485C529.421 255.999 532.109 264.195 529.194 271.089" fill="#F9A8B3"/>
<path d="M533.428 246.66C539.824 270.543 523.585 294.284 523.585 294.284C514.973 296.847 492.302 287.664 487.49 278.875C487.49 278.875 495.393 256.293 504.791 244.288C513.492 233.173 529.681 232.664 533.428 246.66Z" fill="#17282F"/>
<path d="M444.757 304.947L446.023 313.371C444.25 322.138 433.798 317.819 433.798 317.819L427.965 317.852C425.987 317.863 424.266 316.153 423.896 313.811L422.968 307.928C422.544 305.248 424.03 302.718 426.264 302.321L431.28 301.428C432.741 301.168 434.24 301.288 435.644 301.776L444.757 304.947" fill="#F9A8B3"/>
</svg>
