<svg width="284" height="228" viewBox="0 0 284 228" fill="none" xmlns="http://www.w3.org/2000/svg">
<path d="M81.667 159.491L97.0196 149.512L96.559 137.434L78.6221 145.776L81.667 159.491Z" fill="#100F0D"/>
<path d="M101.78 211.127H103.98L96.867 147.337L93.0032 138.202L41.1882 138.841V152.121H41.3161L33.998 211.485H36.2242L48.9413 152.121H90.0094L101.78 211.127Z" fill="#100F0D"/>
<path d="M30.3902 59.4429C26.4753 47.3656 23.635 47.1865 12.2997 47.3144C2.78108 47.4168 -0.263833 52.3808 0.0176308 60.5432L14.9352 134.645C15.2167 142.808 21.7928 148.283 29.5458 146.799C37.2733 145.315 48.0969 140.249 47.5851 132.086L30.3902 59.4429Z" fill="#1E1C1B"/>
<path d="M87.9113 224.509H90.3165L83.3822 160.361L83.4846 144.087L21.1275 145.929V160.361H21.281L13.3232 224.893H15.7029L29.5458 160.361H75.1175L87.9113 224.509Z" fill="#100F0D"/>
<path d="M26.0662 145.954C23.354 145.954 23.1492 145.008 25.6056 143.856L40.7279 136.871C43.2099 135.745 47.4575 134.824 50.1698 134.824L92.85 135.08C95.5623 135.105 97.9164 136.692 95.7926 138.38L87.4766 143.191C85.3272 144.88 81.3355 146.236 78.6232 146.236L26.0662 145.954Z" fill="#100F0D"/>
<path d="M96.0222 189.036C97.2845 192.576 96.3719 196.368 95.8743 201.136C95.3882 205.907 94.2737 209.5 99.0643 210.589C103.852 211.678 127.435 211.169 127.435 211.169C127.435 211.169 131.669 205.52 120.933 204.164C112.597 203.115 108.264 195.717 108.509 188.766C108.566 186.98 96.0222 189.036 96.0222 189.036Z" fill="#100F0D"/>
<path d="M89.7422 199.951C89.2986 203.931 88.622 211.189 89.8303 216.654C90.1971 218.303 93.8362 218.206 93.8362 218.206C93.8362 218.206 92.1929 213.933 97.8278 218.994C103.696 224.268 112.888 222.246 114.289 221.396C115.719 220.546 117.38 219.252 114.008 216.06C111.116 213.322 106.252 210.678 105.123 208.102C104 205.537 103.659 197.42 103.659 197.42L89.7422 199.951Z" fill="#100F0D"/>
<path d="M72.9936 125.92C126.267 126.79 120.612 137.486 120.535 140.019C119.87 162.843 117.439 201.353 117.439 201.353L94.8454 202.99C94.8454 202.99 90.1117 165.786 95.3572 148.898C96.9436 143.755 47.0732 136.078 47.0732 136.078L72.9936 125.92Z" fill="#182242"/>
<path d="M77.6252 129.22C117.005 133.417 115.06 135.054 114.804 142.219C114.241 156.548 110.377 208.389 110.377 208.389L87.323 206.956C87.323 206.956 87.323 178.016 88.3209 150.612C88.3465 149.486 83.1266 149.716 76.0132 149.921C61.4282 150.356 38.9623 150.791 38.2458 139.814C37.3502 126.38 43.7728 112.23 43.7728 112.23L77.6252 129.22Z" fill="#273D7E"/>
<path d="M50.0678 82.856C53.4197 67.1196 54.1106 63.4093 58.2047 57.038C62.0684 51.0249 66.5206 46.1377 70.0261 43.8092C70.0261 43.8092 75.6042 49.6688 78.7771 54.2234C79.6727 55.4772 84.4064 61.1832 85.2508 62.872C87.5281 67.2475 89.2681 82.2674 88.9866 93.7563C88.5516 109.646 82.6664 142.143 82.6664 142.143C54.7503 140.966 36.7366 135.183 36.711 133.238C36.6854 128.837 44.0291 111.207 50.0678 82.856Z" fill="#182242"/>
<path d="M73.3117 34.3642C72.4019 37.7816 71.6116 41.8017 68.2823 46.0521C65.7378 49.2989 67.8075 49.751 67.8075 49.751L79.9844 59.335C79.9844 59.335 81.8409 51.5393 85.2015 49.2449C88.5534 46.9562 73.3117 34.3642 73.3117 34.3642Z" fill="#DCA296"/>
<path d="M102.652 18.4997C99.6841 9.00952 77.5309 1.59479 73.3061 16.1542C65.5872 42.6601 81.9746 48.5908 81.9746 48.5908C87.6778 49.2561 89.0141 50.0834 93.364 49.0286C95.4849 48.5197 97.1766 45.8416 98.9336 42.137C100.779 41.992 102.831 42.2195 102.8 40.9145C102.115 39.0608 102.243 35.7941 101.967 34.4863C103.627 28.5215 104.08 22.9633 102.652 18.4997Z" fill="#DCA296"/>
<path d="M86.7593 49.3899C91.2314 50.0068 89.3749 50.1603 93.3069 49.2107C95.4193 48.7075 97.1052 46.018 98.8651 42.3191C100.719 42.177 102.769 42.3987 102.737 41.0966C102.052 39.2316 102.166 35.9734 101.901 34.6656C103.565 28.7037 105.95 24.2742 104.523 19.8134C104.372 19.3415 102.24 17.7436 101.992 17.2887L100.463 18.6363C99.4422 29.1756 92.5506 47.2348 85.6646 47.9314L76.3252 57.0463L79.9842 59.335C79.9842 59.335 84.7265 52.7589 86.7593 49.3899Z" fill="#E9C3B5"/>
<path d="M76.2807 8.60877C78.666 6.30304 81.7848 3.88927 88.793 5.55531C95.5965 7.1787 99.8782 9.18024 103.253 14.8778C104.984 17.7606 102.903 20.2853 102.903 20.2853C102.903 20.2853 99.1447 17.0271 97.4132 17.0925C95.679 17.1664 93.5296 19.9669 90.6666 22.52C88.2585 24.658 89.2707 27.9218 89.2707 27.9218C89.2707 27.9218 81.7195 28.8771 81.0684 31.1203C80.4145 33.372 69.5198 42.103 69.5198 42.103C69.5198 42.103 67.9362 27.882 67.8964 22.4404C67.7969 9.74035 75.7177 9.1717 76.2807 8.60877Z" fill="#211311"/>
<path d="M93.0351 22.9355C95.8867 20.3937 95.7588 20.0412 97.4902 19.9701C99.2103 19.9048 105.391 24.0357 105.391 24.0357C105.391 24.0357 108.74 20.5672 106.995 17.6502C103.611 11.964 97.9849 7.24165 91.1672 5.6211C88.4151 4.9672 85.9303 4.92461 83.7695 5.2601C86.7775 7.21329 92.2192 12.2597 88.0427 28.0615C90.1124 27.5043 89.4244 27.9308 89.4244 27.9308C89.4244 27.9308 90.6128 25.0791 93.0351 22.9355Z" fill="#3A1A14"/>
<path d="M86.2962 29.2122C86.0119 27.6201 84.8662 24.5723 81.9122 26.1957C80.1751 27.1481 79.5781 32.8456 82.1965 35.1286C84.778 37.4002 86.2962 29.2122 86.2962 29.2122Z" fill="#DCA296"/>
<path d="M83.9052 58.4846L83.5697 74.6445L71.5293 50.9873L83.9052 58.4846Z" fill="#AECCE5"/>
<path d="M83.8313 53.4526L85.5485 55.2694L85.2613 62.8774L81.1133 58.3797L83.8313 53.4526Z" fill="#AECCE5"/>
<path d="M81.6961 58.7975L78.998 62.448L82.9215 68.8677L84.1497 68.8079L83.9905 61.9732L81.6961 58.7975Z" fill="#6A1317"/>
<path d="M84.0961 66.5307L85.0628 78.8071L81.2246 67.5428L84.0961 66.5307Z" fill="#A51C21"/>
<path d="M67.8649 45.0574L62.3379 50.7009L72.8544 59.7248L77.0053 65.681L76.1524 68.8852L88.0165 93.0854C88.0165 93.0854 86.7485 72.5954 84.0959 66.5311C81.4348 60.4697 67.8649 45.0574 67.8649 45.0574Z" fill="#273D7E"/>
<path d="M69.0813 42.9933L83.436 56.2249L79.4642 61.9878L66.46 46.1007L69.0813 42.9933Z" fill="white"/>
<path d="M70.691 114.329C66.3923 114.994 56.4643 115.992 56.4643 115.992C56.4643 115.992 52.1656 120.956 55.1337 122.593C58.1019 124.257 72.9939 123.924 72.9939 123.924L70.691 114.329Z" fill="#273D7E"/>
<path d="M152.523 86.3072C151.23 86.5034 148.333 86.3442 145.851 85.8722C143.372 85.4003 135.9 86.7394 136.869 87.4957C137.847 88.2491 137.415 88.2718 141.029 88.2548C144.651 88.2434 144.443 90.1312 145.106 90.4638C145.771 90.7965 143.528 99.0698 143.528 99.0698C143.528 99.0698 153.263 95.0241 155.082 93.4291C156.893 91.8342 152.523 86.3072 152.523 86.3072Z" fill="#E9C3B5"/>
<path d="M122.512 85.656C125.915 86.3753 135.473 87.7741 136.448 87.7314C137.424 87.6859 146.342 88.1636 147.116 88.4593C147.892 88.7493 153.248 94.6998 153.723 95.4447C154.184 96.1782 153.814 97.6083 151.625 97.1591C151.625 97.1591 151.053 99.0326 148.964 98.2536C148.58 99.57 147.084 100.076 146.757 99.9822C146.445 100.426 144.736 101.043 144.179 100.744C143.627 100.443 140.798 97.8556 139.926 97.6708C139.047 97.4945 133.765 97.5713 131.777 96.6842C129.784 95.7887 123.626 96.2152 123.177 96.0219C122.739 95.82 122.512 85.656 122.512 85.656Z" fill="#DCA296"/>
<path d="M143.573 100.011C142.646 100.415 140.713 100.858 140.48 100.582C140.252 100.298 137.944 100.4 137.682 99.5418C135.57 99.1324 135.206 99.1494 135.189 98.6434C134.083 98.1089 132.855 98.2368 133.182 97.4237C133.506 96.6191 134.799 96.3376 135.678 96.6674C136.886 96.1784 137.975 96.2012 138.237 97.2048C139.38 96.7954 140.969 96.7243 141.233 97.8701C142.331 98.1089 143.542 97.6284 143.513 98.7088C143.488 99.792 143.573 100.011 143.573 100.011Z" fill="#E9C3B5"/>
<path d="M154.866 83.9502L150.968 84.8828L153.618 97.8955L161.337 95.911L154.866 83.9502Z" fill="#AECCE5"/>
<path d="M210.3 46.5011C209.328 49.1337 203.428 47.4962 201.259 52.2384C198.612 58.0298 186.728 71.7504 182.953 74.0732C180.556 75.5487 152.29 83.7766 152.29 83.7766C152.29 83.7766 157.206 96.4937 159.574 99.2202C162.377 98.1143 185.346 92.6129 188.022 91.7173C195.962 89.0732 216.481 74.2949 216.481 74.2949L210.3 46.5011Z" fill="#100F0D"/>
<path d="M206.624 38.518L200.198 47.775L203.766 54.2544L208.821 40.8152L206.624 38.518Z" fill="#AECCE5"/>
<path d="M205.498 18.3974C206.342 21.8517 213.785 33.4259 217.524 37.3351C221.254 41.2443 221.692 39.9763 221.692 39.9763L206.027 49.1992C206.027 49.1992 200.977 42.7227 197.66 40.3828C194.325 38.0402 205.498 18.3974 205.498 18.3974Z" fill="#DCA296"/>
<path d="M183.092 25.1331C185.986 36.4116 190.834 45.4071 195.909 44.3523C200.978 43.3089 210.673 32.1697 208.592 22.1308C206.513 12.1033 199.846 3.88967 190.638 7.33263C180.593 11.0741 180.55 15.2108 183.092 25.1331Z" fill="#E9C3B5"/>
<path d="M180.417 8.52655C179.211 13.4053 180.337 16.2597 182.765 16.1062C185.17 15.9555 187.462 15.2646 189.335 16.3592C191.095 17.3827 193.736 17.2064 195.039 17.8831C196.335 18.5484 193.444 14.0592 193.444 14.0592L196.011 17.4794L195.087 13.88L196.142 15.6257L200.372 17.7466L201.256 20.6977L204.35 22.4605L205.129 20.2115L208.219 26.1052L213.277 31.9478C213.277 31.9478 216.194 25.3746 216.265 21.9601C216.367 17.9002 215.804 17.0984 215.338 14.8893C214.744 12.0974 214.582 11.4464 213.84 8.87055C213.015 6.07582 209.82 2.37128 207.852 2.10687C205.891 1.851 204.682 1.60932 203.804 2.22911C202.911 2.85743 202.522 0.702354 199.673 0.429419C196.833 0.145111 196.841 -0.281303 192.878 0.261723C188.923 0.818964 186.481 2.46511 183.581 4.53202C181.668 5.90523 180.417 8.52655 180.417 8.52655Z" fill="#211311"/>
<path d="M192.61 24.7005C192.47 24.1688 192.075 23.8646 191.745 23.9073H191.731L191.683 23.9158L187.87 25.0388C187.529 25.1383 187.333 25.5677 187.427 26.0794L187.472 26.2556L188.018 28.078C188.172 28.567 188.57 28.8542 188.899 28.803L189.039 28.7775L192.627 27.7312C192.954 27.6431 193.175 27.2194 193.11 26.7276L193.104 26.6878L192.757 25.3345L192.61 24.7005ZM189.354 30.0483L189.147 30.0824C188.24 30.2047 187.316 29.4712 186.966 28.388L187.486 28.2287L186.966 28.3851L186.383 26.5343L186.307 26.23C186.068 25.0843 186.528 23.9471 187.455 23.6571L191.276 22.5227L191.507 22.4743C192.487 22.3464 193.411 23.1908 193.687 24.382L193.852 25.0217L194.148 26.2898L194.207 26.5826C194.361 27.6886 193.846 28.7433 192.945 29.0163L189.354 30.0483Z" fill="#3A1A14"/>
<path d="M184.547 26.7932C184.414 26.1677 184.152 25.963 184.149 25.963V25.9487L182.585 26.506C182.58 26.506 182.463 26.6737 182.56 27.2395L182.605 27.4954L183.003 29.2325C183.14 29.8551 183.399 30.0599 183.399 30.0513L183.444 30.0428L184.959 29.5168C184.959 29.5196 185.076 29.3264 184.991 28.7833L184.954 28.6156L184.547 26.7932ZM183.686 31.2966L183.603 31.3193C183.026 31.3023 182.585 30.4266 182.347 29.4571L181.943 27.6887L181.869 27.2992C181.73 26.4264 181.792 25.4626 182.301 25.238L183.865 24.6978L183.925 24.6779L183.947 24.6722C184.533 24.6893 184.971 25.5906 185.195 26.5657L185.593 28.3426L185.662 28.7151C185.798 29.5879 185.73 30.5375 185.229 30.7621L183.686 31.2966Z" fill="#3A1A14"/>
<path d="M193.485 23.7737C193.485 23.7737 208.289 17.3427 208.741 17.6754C209.267 18.2667 210.001 18.7813 210.001 18.7813L208.195 18.6477L193.747 26.0767L193.485 23.7737Z" fill="#3A1A14"/>
<path d="M190.71 34.4239C191.873 34.2875 194.082 35.0522 194.725 35.4901C195.356 35.9336 199.083 37.6934 199.399 39.4561C199.711 41.2274 198.546 44.4941 195.984 45.3243C195.134 45.5972 191.836 45.8985 190.705 43.8658C190.21 42.9702 188.217 39.5415 189.249 39.2941C190.261 39.0496 191.521 38.8477 191.848 38.5321C192.752 37.6735 192.146 37.0794 191.683 37.1334C191.216 37.1846 191.359 37.5826 191.015 37.6224C190.662 37.6679 188.294 39.4278 187.916 39.0781C186.281 37.557 186.659 36.252 186.659 36.252L190.71 34.4239Z" fill="#211311"/>
<path d="M203.255 19.0031C203.787 16.5666 206.59 15.8303 207.775 17.411C208.955 19.0231 209.913 25.6844 206.831 27.2765C203.75 28.8601 203.255 19.0031 203.255 19.0031Z" fill="#E9C3B5"/>
<path d="M186.876 26.2218L184.843 26.5715L185.087 28.2148L187.217 27.6206L186.876 26.2218Z" fill="#3A1A14"/>
<path d="M216.801 34.114L214.271 32.4422L202.443 46.6348L206.722 55.5649L216.801 34.114Z" fill="white"/>
<path d="M201.418 157.904L186.065 147.9L186.526 135.848L204.463 144.189L201.418 157.904Z" fill="#100F0D"/>
<path d="M182.381 208.465H180.181L187.294 144.675L191.158 135.566L242.973 136.18V149.46H242.819L250.163 208.849H247.937L235.22 149.46H194.152L182.381 208.465Z" fill="#100F0D"/>
<path d="M253.617 57.9585C257.685 45.9067 260.525 45.7788 271.861 46.0347C281.379 46.265 284.373 51.2546 283.964 59.4171L268.125 133.34C267.741 141.502 261.088 146.876 253.387 145.289C245.659 143.728 234.912 138.508 235.501 130.372L253.617 57.9585Z" fill="#1E1C1B"/>
<path d="M193.025 221.848H190.62L197.529 157.725L197.426 141.426L263.033 143.294V157.725H262.88L270.837 222.257H268.432L254.615 157.725H205.819L193.025 221.848Z" fill="#100F0D"/>
<path d="M258.095 143.319C260.807 143.294 261.012 142.347 258.53 141.221L243.408 134.236C240.951 133.084 236.704 132.163 233.991 132.189L191.311 132.445C188.573 132.445 186.219 134.031 188.368 135.72L196.684 140.556C198.834 142.219 202.8 143.601 205.538 143.575L258.095 143.319Z" fill="#100F0D"/>
<path d="M181.383 192.485C180.084 196.121 181.022 200.022 181.531 204.932C182.034 209.827 183.18 213.526 178.25 214.646C173.335 215.758 149.092 215.238 149.092 215.238C149.092 215.238 144.733 209.435 155.773 208.039C164.342 206.967 168.8 199.351 168.547 192.212C168.487 190.378 181.383 192.485 181.383 192.485Z" fill="#100F0D"/>
<path d="M188.778 222.039L185.232 220.293C185.232 220.293 188.138 217.052 188.704 217.185C189.261 217.302 188.778 222.039 188.778 222.039Z" fill="#100F0D"/>
<path d="M193.162 202.04C193.645 206.381 194.387 214.311 193.06 220.281C192.665 222.078 188.696 221.964 188.696 221.964C188.696 221.964 190.487 217.302 184.34 222.829C177.935 228.591 167.899 226.377 166.358 225.458C164.803 224.52 162.994 223.107 166.673 219.627C169.826 216.636 175.14 213.753 176.382 210.942C177.596 208.136 177.974 199.274 177.974 199.274L193.162 202.04Z" fill="#100F0D"/>
<path d="M222.323 116.197C185.937 123.489 166.875 122.542 164.751 137.716C162.806 151.661 160.35 200.482 160.35 200.482L186.04 199.792C186.04 199.792 196.505 163.585 188.752 144.599C186.398 138.842 246.759 128.53 246.759 128.53L222.323 116.197Z" fill="#100F0D"/>
<path d="M214.212 123.028C210.016 125.638 175.447 124.512 173.553 137.844C170.969 156.241 174.065 176.635 171.097 203.732L193.767 207.033C193.767 207.033 195.251 191.68 196.659 152.48C196.761 149.537 245.813 153.068 248.934 145.469C252.491 136.743 247.629 126.432 247.629 126.432L214.212 123.028Z" fill="#100F0D"/>
<path d="M198.168 152.71C198.296 149.767 217.615 148.437 216.361 144.829C210.092 144.982 194.151 145.315 190.185 149.946C186.858 153.836 184.837 191.347 184.939 205.958L194.944 207.314C194.944 207.314 196.556 191.936 198.168 152.71Z" fill="#1E1C1B"/>
<path d="M212.165 135.669L202.16 124.922C202.16 124.922 197.504 97.3386 196.736 79.4273C196.199 66.4799 202.033 63.3839 204.515 58.4199C205.461 56.5264 207.662 50.59 208.634 49.1571C212.165 43.9628 216.899 35.2374 216.899 35.2374C224.191 43.5278 232.252 47.3148 236.115 67.3499C239.953 87.3595 239.058 88.9971 241.207 96.699C244.815 109.518 251.673 124.385 254.001 134.927C254.001 134.927 212.984 142.04 212.165 135.669Z" fill="#100F0D"/>
<path d="M228.643 117.911L211.807 115.147L212.753 123.591L230.409 127.097L228.643 117.911Z" fill="#1E1C1B"/>
<path d="M221.015 38.1339L214.931 31.6148C210.451 45.8728 208.674 45.4407 205.89 52.2328C201.404 66.5021 198.328 83.1227 198.058 85.2124C199.118 83.6516 210.138 57.1512 210.138 57.1512L208.577 52.1702L212.267 49.9469L221.015 38.1339Z" fill="#1E1C1B"/>
<path d="M248.067 117.18H59.0059L90.9876 102.726H202.968L248.067 117.18Z" fill="#7FA6DB"/>
<path d="M133.617 112.182L185.62 112.33L179.01 103.289L142.837 102.942L133.617 112.182Z" fill="white"/>
<path d="M79.1855 227.4H90.2658V123.719H79.1855V227.4Z" fill="#7FA6DB"/>
<path d="M216.617 227.4H227.672V123.719H216.617V227.4Z" fill="#7FA6DB"/>
<path d="M17.8516 165.325L21.0415 162.297L20.6691 165.313L17.8516 165.325ZM28.4904 165.282L29.5452 160.361H40.3005L39.6978 165.239L28.4904 165.282ZM46.1344 165.214L47.1751 160.361H75.1168L76.0606 165.1L46.1344 165.214ZM119.494 164.929C119.929 156.204 120.322 147.311 120.535 140.019C120.603 137.801 124.95 129.326 90.2647 126.667V123.719H85.6901C85.7271 123.477 85.764 123.236 85.7982 122.994L182.707 123.489C171.852 126.107 165.885 129.613 164.75 137.716C163.997 143.117 163.167 153.759 162.433 164.765L119.494 164.929Z" fill="url(#paint0_linear_131_2082)"/>
<path d="M39.6982 165.239L40.3009 160.361H47.1755L46.1349 165.214L39.6982 165.239Z" fill="url(#paint1_linear_131_2082)"/>
<path d="M20.6699 165.313L21.0423 162.297L38.1917 146.02L42.3313 146.043C47.7189 149.398 57.5787 150.092 66.7902 150.092C70.0171 150.092 73.1672 150.006 76.0131 149.921C77.1219 149.89 78.1824 149.856 79.186 149.83V165.086L76.0615 165.1L75.1176 160.361H47.1759H40.3013H29.546L28.4912 165.282L20.6699 165.313Z" fill="url(#paint2_linear_131_2082)"/>
<path d="M42.3309 146.043L38.1914 146.02L40.1019 144.209C40.716 144.894 41.4638 145.503 42.3309 146.043Z" fill="url(#paint3_linear_131_2082)"/>
<path d="M113.459 164.956C114.091 155.463 114.622 146.868 114.804 142.22C115.029 135.928 116.556 133.898 90.2656 130.657V126.668C124.951 129.326 120.604 137.801 120.536 140.019C120.323 147.311 119.93 156.205 119.495 164.93L113.459 164.956Z" fill="url(#paint4_linear_131_2082)"/>
<path d="M90.2648 165.043V130.656C116.555 133.897 115.028 135.927 114.803 142.219C114.621 146.867 114.09 155.462 113.459 164.955L90.2648 165.043ZM66.7895 150.091C57.578 150.091 47.7182 149.398 42.3306 146.043C41.4634 145.503 40.7157 144.894 40.1016 144.209L47.1837 137.488C54.5842 139.339 65.5925 141.19 79.1853 141.969V149.83C78.1817 149.855 77.1212 149.889 76.0124 149.921C73.1665 150.006 70.0164 150.091 66.7895 150.091Z" fill="url(#paint5_linear_131_2082)"/>
<path d="M79.1861 141.969C65.5934 141.19 54.5851 139.339 47.1846 137.488L61.6899 123.719C64.5614 123.91 67.7229 123.952 69.9718 123.952C71.78 123.952 72.994 123.924 72.994 123.924L72.7552 122.926L85.7991 122.994C85.765 123.236 85.7281 123.477 85.6911 123.719H79.1861V141.969Z" fill="url(#paint6_linear_131_2082)"/>
<path d="M69.9713 123.952C67.7224 123.952 64.561 123.909 61.6895 123.719L62.5793 122.875L72.7547 122.926L72.9935 123.924C72.9935 123.924 71.7795 123.952 69.9713 123.952Z" fill="url(#paint7_linear_131_2082)"/>
<path d="M204.446 164.6L205.82 157.725H216.618V163.582L215.722 164.557L204.446 164.6Z" fill="url(#paint8_linear_131_2082)"/>
<path d="M197.646 164.628C197.819 160.927 197.995 156.961 198.169 152.71C198.186 152.312 198.555 151.943 199.175 151.596C202.638 151.147 209.282 151.058 216.617 150.871V157.725H205.819L204.446 164.6L197.646 164.628Z" fill="url(#paint9_linear_131_2082)"/>
<path d="M162.435 164.765C163.168 153.759 163.998 143.118 164.752 137.716C165.886 129.613 171.854 126.107 182.709 123.489L201.939 123.586C202.081 124.447 202.161 124.922 202.161 124.922L202.289 125.058C190.658 126.486 174.819 128.939 173.554 137.844C172.374 146.239 172.377 155.05 172.448 164.725L162.435 164.765Z" fill="url(#paint10_linear_131_2082)"/>
<path d="M172.446 164.725C172.375 155.05 172.373 146.239 173.552 137.844C174.818 128.939 190.656 126.486 202.287 125.059L212.164 135.669C212.323 136.908 214.007 137.639 216.616 138.009V150.871C209.281 151.058 202.637 151.147 199.174 151.596C203.146 149.367 217.444 147.948 216.361 144.829C210.092 144.983 194.15 145.315 190.184 149.947C188.982 151.351 187.95 157.148 187.128 164.668L172.446 164.725Z" fill="url(#paint11_linear_131_2082)"/>
<path d="M187.129 164.668C187.951 157.148 188.983 151.351 190.185 149.947C194.151 145.315 210.092 144.983 216.361 144.829C217.445 147.948 203.147 149.367 199.175 151.596C198.555 151.942 198.186 152.312 198.169 152.71C197.995 156.96 197.819 160.926 197.645 164.628L187.129 164.668Z" fill="url(#paint12_linear_131_2082)"/>
<path d="M227.671 151.544V150.461C228.021 150.441 228.373 150.421 228.72 150.402L227.671 151.544Z" fill="url(#paint13_linear_131_2082)"/>
<path d="M227.671 150.461V138.133C232.123 137.869 236.928 137.354 241.198 136.814L228.72 150.401C228.373 150.421 228.021 150.441 227.671 150.461Z" fill="url(#paint14_linear_131_2082)"/>
<path d="M251.345 125.766C251.129 125.126 250.907 124.484 250.68 123.836L253.105 123.847L251.345 125.766Z" fill="url(#paint15_linear_131_2082)"/>
<path d="M227.671 138.134V126.554L230.409 127.097L229.761 123.728L250.68 123.836C250.908 124.484 251.129 125.127 251.345 125.766L241.198 136.815C236.928 137.355 232.123 137.869 227.671 138.134ZM216.617 138.009C214.007 137.639 212.324 136.908 212.165 135.669L202.288 125.059L202.16 124.922C202.16 124.922 202.081 124.447 201.938 123.586L213.012 123.643L216.617 124.359V138.009Z" fill="url(#paint16_linear_131_2082)"/>
<path d="M230.408 127.097L227.671 126.554V123.719H216.617V124.359L213.012 123.642L229.76 123.728L230.408 127.097Z" fill="url(#paint17_linear_131_2082)"/>
<path d="M79.1855 165.086V123.719H90.2651V165.043L79.1855 165.086Z" fill="url(#paint18_linear_131_2082)"/>
<path d="M216.617 163.582V123.719H227.671V151.544L216.617 163.582Z" fill="url(#paint19_linear_131_2082)"/>
<path d="M248.183 127.566H59.1133V116.961H248.183V127.566Z" fill="#AECCE5"/>
<path d="M192.465 100.506C188.806 101.41 186.094 101.737 185.036 101.725C183.976 101.714 174.352 104.236 173.519 104.58C172.692 104.924 167.065 109.888 166.582 110.71C166.107 111.526 165.783 113.12 168.143 112.555C168.143 112.555 167.933 114.593 170.184 113.675C170.636 115.091 171.543 115.031 171.899 114.923C172.243 115.398 172.936 115.975 174.912 115.665C177.201 115.307 180.411 114.269 181.352 114.044C182.293 113.82 187.058 111.275 189.185 110.238C191.308 109.206 195.536 110.275 196.011 110.044C196.486 109.811 192.465 100.506 192.465 100.506Z" fill="#E9C3B5"/>
<path d="M219.619 48.577C212.711 51.5168 213.768 86.1511 212.529 88.6473C211.477 90.7511 195.985 96.0336 183.541 101.688C180.678 102.991 189.739 116.418 189.739 116.418C189.739 116.418 221.45 106.667 226.053 101.936C231.236 96.605 232.217 87.1035 232.442 82.4295C233.445 62.4285 233.59 42.6322 219.619 48.577Z" fill="#1E1C1B"/>
<path d="M62.7418 58.7463C69.0705 55.9601 94.3795 76.9818 99.4658 79.2591C101.43 80.1433 121.181 85.9375 131.556 85.9887C134.464 86.0001 130.995 102.942 130.995 102.942C130.995 102.942 101.049 101.594 95.4969 99.1094C87.8774 95.6949 68.0413 84.6666 64.7263 81.9032C52.8167 71.978 54.4713 62.3826 62.7418 58.7463Z" fill="#273D7E"/>
<defs>
<linearGradient id="paint0_linear_131_2082" x1="135.47" y1="216.048" x2="135.47" y2="129.74" gradientUnits="userSpaceOnUse">
<stop stop-color="white"/>
<stop offset="0.659341" stop-color="white"/>
<stop offset="1" stop-color="#C5C5C6"/>
</linearGradient>
<linearGradient id="paint1_linear_131_2082" x1="135.47" y1="216.048" x2="135.47" y2="129.74" gradientUnits="userSpaceOnUse">
<stop stop-color="#100F0D"/>
<stop offset="0.659341" stop-color="#100F0D"/>
<stop offset="1" stop-color="#100F0D"/>
</linearGradient>
<linearGradient id="paint2_linear_131_2082" x1="135.47" y1="216.048" x2="135.47" y2="129.741" gradientUnits="userSpaceOnUse">
<stop stop-color="#100F0D"/>
<stop offset="0.659341" stop-color="#100F0D"/>
<stop offset="1" stop-color="#100F0D"/>
</linearGradient>
<linearGradient id="paint3_linear_131_2082" x1="135.47" y1="216.047" x2="135.47" y2="129.741" gradientUnits="userSpaceOnUse">
<stop stop-color="#100F0D"/>
<stop offset="0.659341" stop-color="#100F0D"/>
<stop offset="1" stop-color="#100F0D"/>
</linearGradient>
<linearGradient id="paint4_linear_131_2082" x1="135.47" y1="216.048" x2="135.47" y2="129.741" gradientUnits="userSpaceOnUse">
<stop stop-color="#182242"/>
<stop offset="0.659341" stop-color="#182242"/>
<stop offset="1" stop-color="#131D32"/>
</linearGradient>
<linearGradient id="paint5_linear_131_2082" x1="135.47" y1="216.048" x2="135.47" y2="129.74" gradientUnits="userSpaceOnUse">
<stop stop-color="#273D7E"/>
<stop offset="0.659341" stop-color="#273D7E"/>
<stop offset="1" stop-color="#223160"/>
</linearGradient>
<linearGradient id="paint6_linear_131_2082" x1="135.47" y1="216.048" x2="135.47" y2="129.74" gradientUnits="userSpaceOnUse">
<stop stop-color="#182242"/>
<stop offset="0.659341" stop-color="#182242"/>
<stop offset="1" stop-color="#131D32"/>
</linearGradient>
<linearGradient id="paint7_linear_131_2082" x1="135.47" y1="216.049" x2="135.47" y2="129.74" gradientUnits="userSpaceOnUse">
<stop stop-color="#273D7E"/>
<stop offset="0.659341" stop-color="#273D7E"/>
<stop offset="1" stop-color="#223160"/>
</linearGradient>
<linearGradient id="paint8_linear_131_2082" x1="135.47" y1="216.048" x2="135.47" y2="129.74" gradientUnits="userSpaceOnUse">
<stop stop-color="white"/>
<stop offset="0.659341" stop-color="white"/>
<stop offset="1" stop-color="#C5C5C6"/>
</linearGradient>
<linearGradient id="paint9_linear_131_2082" x1="135.47" y1="216.048" x2="135.47" y2="129.741" gradientUnits="userSpaceOnUse">
<stop stop-color="#100F0D"/>
<stop offset="0.659341" stop-color="#100F0D"/>
<stop offset="1" stop-color="#100F0D"/>
</linearGradient>
<linearGradient id="paint10_linear_131_2082" x1="135.471" y1="216.048" x2="135.471" y2="129.741" gradientUnits="userSpaceOnUse">
<stop stop-color="#100F0D"/>
<stop offset="0.659341" stop-color="#100F0D"/>
<stop offset="1" stop-color="#100F0D"/>
</linearGradient>
<linearGradient id="paint11_linear_131_2082" x1="135.469" y1="216.048" x2="135.469" y2="129.741" gradientUnits="userSpaceOnUse">
<stop stop-color="#100F0D"/>
<stop offset="0.659341" stop-color="#100F0D"/>
<stop offset="1" stop-color="#100F0D"/>
</linearGradient>
<linearGradient id="paint12_linear_131_2082" x1="135.47" y1="216.048" x2="135.47" y2="129.741" gradientUnits="userSpaceOnUse">
<stop stop-color="#1E1C1B"/>
<stop offset="0.659341" stop-color="#1E1C1B"/>
<stop offset="1" stop-color="#1A1818"/>
</linearGradient>
<linearGradient id="paint13_linear_131_2082" x1="135.465" y1="216.048" x2="135.465" y2="129.741" gradientUnits="userSpaceOnUse">
<stop stop-color="#100F0D"/>
<stop offset="0.659341" stop-color="#100F0D"/>
<stop offset="1" stop-color="#100F0D"/>
</linearGradient>
<linearGradient id="paint14_linear_131_2082" x1="135.47" y1="216.048" x2="135.47" y2="129.74" gradientUnits="userSpaceOnUse">
<stop stop-color="#100F0D"/>
<stop offset="0.659341" stop-color="#100F0D"/>
<stop offset="1" stop-color="#100F0D"/>
</linearGradient>
<linearGradient id="paint15_linear_131_2082" x1="135.473" y1="216.048" x2="135.473" y2="129.74" gradientUnits="userSpaceOnUse">
<stop stop-color="#1E1C1B"/>
<stop offset="0.659341" stop-color="#1E1C1B"/>
<stop offset="1" stop-color="#1A1818"/>
</linearGradient>
<linearGradient id="paint16_linear_131_2082" x1="135.47" y1="216.048" x2="135.47" y2="129.741" gradientUnits="userSpaceOnUse">
<stop stop-color="#100F0D"/>
<stop offset="0.659341" stop-color="#100F0D"/>
<stop offset="1" stop-color="#100F0D"/>
</linearGradient>
<linearGradient id="paint17_linear_131_2082" x1="135.47" y1="216.047" x2="135.47" y2="129.74" gradientUnits="userSpaceOnUse">
<stop stop-color="#1E1C1B"/>
<stop offset="0.659341" stop-color="#1E1C1B"/>
<stop offset="1" stop-color="#1A1818"/>
</linearGradient>
<linearGradient id="paint18_linear_131_2082" x1="135.47" y1="216.048" x2="135.47" y2="129.741" gradientUnits="userSpaceOnUse">
<stop stop-color="#7FA6DB"/>
<stop offset="0.659341" stop-color="#7FA6DB"/>
<stop offset="1" stop-color="#5D7EAB"/>
</linearGradient>
<linearGradient id="paint19_linear_131_2082" x1="135.47" y1="216.048" x2="135.47" y2="129.741" gradientUnits="userSpaceOnUse">
<stop stop-color="#7FA6DB"/>
<stop offset="0.659341" stop-color="#7FA6DB"/>
<stop offset="1" stop-color="#5D7EAB"/>
</linearGradient>
</defs>
</svg>
