<svg width="309" height="249" viewBox="0 0 309 249" fill="none" xmlns="http://www.w3.org/2000/svg">
<path d="M257.004 242.081H252.432L244.261 164.672H251.88L257.004 242.081Z" fill="#1E1C1B"/>
<path d="M180.541 242.081H175.995L182.827 164.672H190.447L180.541 242.081Z" fill="#1E1C1B"/>
<path d="M180.094 122.158C175.286 136.136 164.04 153.741 189.343 168.771C193.994 171.556 229.467 170.006 235.747 165.986C241.895 162.018 247.281 149.669 241.186 135.401C238.663 129.541 235.431 122.368 235.431 122.368L180.094 122.158Z" fill="#100F0D"/>
<path d="M191.209 7.85707C183.483 18.3148 185.691 49.1889 185.927 58.7265C186.189 68.2389 205.187 59.8829 205.187 59.8829L206.448 7.72599L191.209 7.85707Z" fill="#2A1412"/>
<path d="M221.978 8.25282C227.681 17.2645 227.522 48.1912 227.286 57.7296C227.024 67.2671 206.896 59.8839 206.896 59.8839L205.635 7.727L221.978 8.25282Z" fill="#581C19"/>
<path d="M207.106 78.9077L215.357 49.6893C215.357 49.6893 213.465 35.0005 213.465 33.0561L205.687 32.6626V32.6363L205.635 32.6626L205.608 32.6363V32.6626L197.804 33.0561C197.804 34.4747 197.095 41.728 196.464 46.3788C196.254 48.1384 190.842 49.9518 190.842 49.9518L198.409 62.8535L207.106 78.9077Z" fill="#DCA296"/>
<path d="M213.622 33.0571L205.977 34.608L207.317 77.6997L219.587 49.7691C219.587 49.7691 215.093 47.4037 214.883 45.8803C214.358 41.6753 213.622 34.4757 213.622 33.0571Z" fill="#E9C3B5"/>
<path d="M194.508 48.3315C194.432 48.1742 194.342 48.0133 194.231 47.8504C194.294 47.8618 194.357 47.8708 194.417 47.8708C195.781 47.8673 196.599 44.6912 197.084 41.2552C196.888 43.0446 196.672 44.852 196.465 46.3792C196.383 47.0589 195.528 47.7453 194.508 48.3315Z" fill="url(#paint0_linear_131_1227)"/>
<path d="M206.238 32.6919L205.846 32.6712L205.852 32.4148L206.232 32.4388L206.238 32.6919Z" fill="url(#paint1_linear_131_1227)"/>
<path d="M197.595 36.1367C197.716 34.3324 197.752 32.9982 197.752 32.8201L205.504 32.3994H205.556H205.609L205.853 32.4143L205.846 32.6706L205.687 32.6628V32.6365L205.635 32.6628L205.609 32.6365V32.6628L197.805 33.0563C197.805 33.5331 197.725 34.6653 197.595 36.1367Z" fill="url(#paint2_linear_131_1227)"/>
<path d="M214.359 41.3394C213.972 37.7457 213.622 34.0315 213.622 33.0563L213.465 33.0882C213.465 33.0768 213.465 33.0654 213.465 33.0563L206.238 32.6914L206.232 32.4383L214.017 32.9253C214.017 33.5524 214.094 38.0549 214.359 41.3394Z" fill="url(#paint3_linear_131_1227)"/>
<path d="M195.913 52.4478C192.394 52.4478 195.745 50.9296 194.508 48.3306C195.528 47.7444 196.384 47.058 196.465 46.3783C196.672 44.8511 196.888 43.0437 197.084 41.2543C197.332 39.4818 197.493 37.6457 197.595 36.136C197.725 34.6646 197.805 33.5324 197.805 33.0556L205.609 32.6621V32.6358L205.635 32.6621L205.688 32.6358V32.6621L205.846 32.67L206.238 32.6907L213.465 33.0556C213.465 33.0647 213.465 33.0761 213.465 33.0874L205.977 34.6065L206.395 48.0685C202.162 50.348 197.573 52.4478 195.913 52.4478Z" fill="url(#paint4_linear_131_1227)"/>
<path d="M206.395 48.0688L205.977 34.6069L213.465 33.0878L213.622 33.056C213.622 34.0311 213.971 37.7454 214.359 41.339C214.406 41.9081 214.458 42.4394 214.516 42.9094C213.591 43.8971 210.131 46.0535 206.395 48.0688Z" fill="url(#paint5_linear_131_1227)"/>
<path d="M221.145 21.7515C219.781 32.3258 211.201 41.3501 206.099 41.3501C200.408 41.3443 193.084 35.5554 190.891 22.0377C189.11 10.923 191.903 1.44939 205.815 1.44939C218.867 1.44939 222.574 10.6687 221.145 21.7515Z" fill="#DCA296"/>
<path d="M221.144 21.7462C222.118 10.6429 218.889 1.49891 205.884 1.44986V41.3187L206.098 41.3447C211.201 41.3447 219.924 35.6756 221.144 21.7462Z" fill="#E9C3B5"/>
<path d="M206.159 7.78503C210.332 11.8814 216.961 12.6776 218.588 19.8246C219.302 23.0019 220.631 26.6274 216.375 35.1466C214.553 38.7902 218.601 39.3184 218.601 39.3184L225.083 17.5337C225.083 17.5337 224.04 7.10421 216.76 2.34303C212.078 -0.728321 205.884 -0.0542068 205.633 0.596851C205.391 1.24469 206.159 7.78503 206.159 7.78503Z" fill="#581C19"/>
<path d="M206.055 7.72295C202.796 11.3178 195.371 12.6806 193.811 19.8241C193.243 22.3732 192.116 25.0419 195.379 33.9839C197.991 41.1426 193.765 40.3204 193.765 40.3204L187.478 20.4206C187.478 20.4206 187.633 8.45051 195.279 3.01989C200.039 -0.363853 205.965 -0.407078 206.006 0.506153C206.037 1.21005 206.055 7.72295 206.055 7.72295Z" fill="#2A1412"/>
<path d="M189.554 153.636C188.529 145.254 204.689 132.694 213.806 148.617C217.906 155.764 218.22 213.781 218.93 217.749C220.139 224.371 225.21 241.739 222.556 245.654C218.746 251.276 211.678 250.2 210.233 227.734C208.446 200.092 191.604 170.19 189.554 153.636Z" fill="#DCA296"/>
<path d="M210.485 231.324C210.796 235.576 211.753 241.114 218.679 239.905C221.624 239.392 222.775 236.957 221.752 229.658C223.416 233.631 224.404 236.968 224.57 239.26C224.995 244.857 223.672 248.865 220.729 248.996C219.35 249.06 211.936 248.343 210.485 241.569C209.716 237.984 210.485 231.324 210.485 231.324Z" fill="#100F0D"/>
<path d="M237.349 147.645C234.064 139.815 219.665 129.462 215.356 147.277C213.464 155.291 228.204 212.179 227.942 216.251C227.68 220.298 229.808 241.922 233.459 244.945C238.689 249.253 250.25 246.521 241.527 225.764C230.175 198.726 243.786 163.016 237.349 147.645Z" fill="#E9C3B5"/>
<path d="M241.983 226.969C244.544 237.217 241.868 236.639 237.694 237.567C233.716 238.445 232.123 239.007 229.05 230.428C229.017 235.138 229.499 236.441 229.977 238.677C231.14 244.174 237.357 249.528 241.38 248.145C243.913 247.262 245.659 240.577 244.927 236.189C244.021 230.748 241.983 226.969 241.983 226.969Z" fill="#211E1E"/>
<path d="M284.909 170.164C284.909 171.347 283.621 172.292 282.018 172.292H67.3717C65.7683 172.292 64.4805 171.347 64.4805 170.164V129.2C64.4805 128.044 65.7683 127.071 67.3717 127.071H282.018C283.621 127.071 284.909 128.044 284.909 129.2V170.164Z" fill="#7FA6DB"/>
<path d="M216.246 46.3661C228.162 53.6159 229.603 49.8841 234.685 53.2792C239.768 56.67 246.266 71.5651 246.266 71.5651C246.266 71.5651 231.989 76.7622 231.139 79.3078C230.293 81.844 228.027 98.2059 228.027 104.135C228.027 108.608 229.871 115.519 229.871 115.519L200.648 115.197L206.348 79.5288C206.348 79.5288 212.516 66.2017 216.754 48.5122L216.246 46.3661Z" fill="#1E1C1B"/>
<path d="M193.831 45.7072C184.747 52.705 180.525 49.2778 175.912 53.2796C174.242 54.728 166.8 77.2029 166.8 77.2029C166.8 77.2029 179.471 78.0297 180.32 80.5808C181.172 83.1114 186.251 103.014 186.251 106.41C186.251 110.001 184.131 114.564 184.131 114.564L208.587 115.037L207.796 76.4502C207.796 76.4502 198.602 66.6172 194.364 48.9336L193.831 45.7072Z" fill="#100F0D"/>
<path d="M215.285 44.063C215.285 43.7369 221.43 47.7124 221.43 47.7124L222.583 56.1449L216.753 55.3943L220.573 59.9552L207.319 77.0835C207.319 77.0835 212.313 57.7299 214.324 53.2799C216.342 48.837 215.285 44.063 215.285 44.063Z" fill="white"/>
<path d="M196.079 44.6381C196.079 44.3141 189.934 48.4803 189.934 48.4803L186.668 54.2954L195.381 55.3934L192.558 59.279L208.097 77.5649C208.097 77.5649 199.628 57.355 197.616 52.8972C195.602 48.4595 196.079 44.6381 196.079 44.6381Z" fill="white"/>
<path d="M175.273 54.7536C167.014 74.3259 161.316 89.0035 160.164 99.7611C158.746 112.972 166.899 109.607 169.959 109.556C181.483 109.364 177.39 98.6961 182.059 83.4357C182.778 80.7991 182.945 76.3205 182.945 76.3205L175.273 54.7536Z" fill="#100F0D"/>
<path d="M176.409 49.9889L176.307 49.9341H176.3L176.409 49.9889ZM176.188 50.1235L176.19 49.9285H176.188V50.1235Z" fill="#CF1E25"/>
<path d="M242.682 61.8176C246.346 69.867 250.192 92.5162 251.731 97.1384C253.879 103.573 242.392 106.475 242.392 106.475C242.392 106.475 227.794 102.229 227.069 102.166C226.345 102.096 229.338 94.479 226.83 92.3361C232.733 92.0669 239.16 92.8263 239.16 92.8263L230.505 74.8621L242.682 61.8176Z" fill="#1E1C1B"/>
<path d="M279.05 247.099H287.485V126.73H279.05V247.099Z" fill="#7FA6DB"/>
<path d="M308.18 116.181C308.18 116.47 307.622 116.692 306.93 116.692H46.5812C45.8934 116.692 45.3369 116.47 45.3369 116.181L58.2707 109.997C59.5524 109.568 60.0292 109.474 60.7226 109.474L287.751 109.498C288.451 109.498 289.421 109.626 291.128 110.044L308.18 116.181Z" fill="#AECCE5"/>
<path d="M63.7451 247.099H147.487V149.511H63.7451V247.099Z" fill="#7FA6DB"/>
<path d="M74.6943 86.3956V100.331H129.567V86.3956H74.6943Z" fill="#182242"/>
<path d="M124.553 93.2344H129.567V86.3962H74.6943V93.2344H117.023H124.553Z" fill="#273D7E"/>
<path d="M122.055 96.8476L121.782 97.0493H119.063L118.792 96.8476V89.3593L119.063 89.1462H121.782L122.055 89.3593V96.8476Z" fill="#AECCE5"/>
<path d="M122.055 96.8476V89.3593L121.783 89.1462H120.415V97.0493H121.783L122.055 96.8476Z" fill="white"/>
<path d="M84.2043 96.8476L83.7526 97.0493H79.225L78.7725 96.8476V89.3593L79.225 89.1462H83.7526L84.2043 89.3593V96.8476Z" fill="#AECCE5"/>
<path d="M84.2039 96.8476V89.3593L83.7522 89.1462H81.4668V97.0493H83.7522L84.2039 96.8476Z" fill="white"/>
<path d="M74.6943 72.4882V86.4258H129.567V72.4882H74.6943Z" fill="#226931"/>
<path d="M124.553 79.3291H129.567V72.4886H74.6943V79.3291H117.023H124.553Z" fill="#3E9F3B"/>
<path d="M122.055 83.5271L121.782 83.7402H119.063L118.792 83.5271V76.0502L119.063 75.828H121.782L122.055 76.0502V83.5271Z" fill="#AECCE5"/>
<path d="M122.055 83.5271V76.0502L121.783 75.828H120.415V83.7402H121.783L122.055 83.5271Z" fill="white"/>
<path d="M84.2043 83.5271L83.7526 83.7402H79.225L78.7725 83.5271V76.0502L79.225 75.828H83.7526L84.2043 76.0502V83.5271Z" fill="#AECCE5"/>
<path d="M84.2039 83.5271V76.0502L83.7522 75.828H81.4668V83.7402H83.7522L84.2039 83.5271Z" fill="white"/>
<path d="M74.6943 99.5488V113.481H129.567V99.5488H74.6943Z" fill="#6A1317"/>
<path d="M124.553 106.334H129.567V99.5049H74.6943V106.334H117.023H124.553Z" fill="#A51C21"/>
<path d="M122.055 110.109L121.782 110.322H119.063L118.792 110.109V102.632L119.063 102.419H121.782L122.055 102.632V110.109Z" fill="#AECCE5"/>
<path d="M122.055 110.109V102.632L121.783 102.419H120.415V110.322H121.783L122.055 110.109Z" fill="white"/>
<path d="M84.2043 110.109L83.7526 110.322H79.225L78.7725 110.109V102.632L79.225 102.419H83.7526L84.2043 102.632V110.109Z" fill="#AECCE5"/>
<path d="M84.2039 110.109V102.632L83.7522 102.419H81.4668V110.322H83.7522L84.2039 110.109Z" fill="white"/>
<path d="M175.529 109.939L179.753 107.058H232.188L240.255 108.979L175.529 109.939Z" fill="white"/>
<path d="M237.06 89.0207C239.442 90.305 247.311 106.293 245.023 108.009C242.15 110.167 226.668 107.183 223.71 104.462C219.222 100.334 213.525 91.0142 218.925 92.7899L237.06 89.0207Z" fill="#100F0D"/>
<path d="M224.57 97.7883C224.783 98.7485 225.163 99.0259 224.138 100.748C223.115 102.471 218.895 105.14 217.453 105.282C216.01 105.426 216.383 104.666 217.136 103.841C217.888 103.008 221.97 99.5891 221.213 99.726C220.46 99.8664 219.227 101.318 218.548 102.007C217.86 102.702 216.562 104.629 215.742 105.253C214.918 105.875 213.406 105.81 214.016 104.571C214.635 103.335 216 101.266 216.475 100.296C216.953 99.3348 218.317 97.6163 218.521 97.1988C218.731 96.7837 216.945 97.6184 216.396 98.3745C215.848 99.1342 215.633 99.5424 215.222 100.369C214.815 101.193 212.522 104.856 211.629 105.277C210.738 105.688 209.901 105.621 210.647 103.759C211.397 101.899 212.348 99.6302 212.828 98.6642C213.302 97.7007 214.53 95.9113 214.53 95.9113C214.53 95.9113 212.445 97.7007 211.422 99.9426C210.654 101.624 210.032 104.655 209.071 104.52C208.108 104.389 208.642 101.225 209.189 99.7821C209.732 98.3369 210.922 95.756 211.604 94.7228C212.293 93.6863 213.69 92.4102 215.412 92.7489C217.133 93.0841 218.231 93.1103 220.848 94.5791C222.456 95.4789 224.57 97.7883 224.57 97.7883Z" fill="#DCA296"/>
<path d="M0 171.816V171.232H0.291953V170.94H0.583907V170.648H0.87586V170.356H1.16781V170.064H1.45977V169.772H1.75172V169.48H2.33563V169.188H2.62758V168.896H2.91953V168.604H3.21149V168.312H3.50344V168.021H3.7954V167.729H4.08735V167.437H4.3793V167.145H4.67126V166.853H4.96321V166.561H5.25516V166.269H5.54712V165.977H5.83907V165.685H6.42298V165.393H6.71493V165.101H7.00688V164.809H7.29884V164.517H7.59079V164.225H7.88274V163.933H8.1747V163.641H8.46665V163.349H8.7586V163.057H9.05056V162.765H9.34251V162.473H9.63446V162.181H10.2184V161.889H10.5103V161.598H10.8023V161.306H11.0942V161.014H11.3862V160.722H11.6781V160.43H11.9701V160.138H12.262V159.846H12.554V159.554H12.846V159.262H13.1379V158.97H13.4299V158.678H13.7218V158.386H14.3057V158.094H14.5977V157.802H14.8896V157.51H15.1816V157.218H15.4735V156.926H15.7655V156.634H16.0574V156.342H16.3494V156.05H16.6413V155.758H16.9333V155.467H17.2253V155.175H17.5172V154.883H17.8092V154.591H18.3931V154.299H18.685V154.007H18.977V153.715H19.2689V153.423H19.5609V153.131H19.8528V152.839H20.1448V152.547H20.4367V152.255H20.7287V151.963H21.0207V151.671H21.3126V151.379H21.6046V151.087H21.8965V150.795H22.4804V150.503H22.7724V150.211H23.0643V149.919H23.3563V149.627H23.6482V149.336H23.9402V149.044H24.2321V148.752H24.5241V148.46H24.816V148.168H25.108V147.876H25.4V147.584H25.6919V147.292H25.9839V147H26.5678V146.708H26.8597V146.416H27.1517V146.124H27.4436V145.832H27.7356V145.54H28.0275V145.248H28.3195V144.956H28.6114V144.664H28.9034V144.372H29.1953V144.08H29.4873V143.788H29.7793V143.496H30.3632V143.204H30.6551V142.913H30.9471V142.621H31.239V142.329H31.531V142.037H31.8229V141.745H32.1149V141.453H32.4068V141.161H32.6988V140.869H32.9907V140.577H33.2827V140.285H33.5746V139.993H33.8666V139.701H34.4505V139.409H34.7425V139.117H35.0344V138.825H35.3264V138.533H35.6183V138.241H35.9103V137.949H36.2022V137.657H36.4942V137.365H36.7861V137.073H37.0781V136.782H37.37V136.49H37.662V136.198H37.954V135.906H38.5379V135.614H38.8298V135.322H39.1218V135.03H39.4137V134.738H39.7057V134.446H39.9976V134.154H40.2896V133.862H40.5815V133.57H40.8735V133.278H41.1654V132.986H41.4574V132.694H41.7493V132.402H42.0413V132.11H42.6252V131.818H42.9172V131.526H43.2091V131.234H43.5011V130.942H43.793V130.65H44.085V130.359H44.3769V130.067H44.6689V129.775H44.9608V129.483H45.2528V129.191H45.5447V128.899H45.8367V128.607H46.1287V128.315H46.7126V128.023H47.0045V127.731H47.2965V127.439H47.5884V127.147H47.8804V126.855H48.1723V126.563H48.4643V126.271H48.7562V125.979H49.0482V125.687H49.3401V125.395H49.6321V125.103H49.924V124.811H50.216V124.519H50.7999V124.228H51.0919V123.936H51.3838V123.644H51.6758V123.352H79.7033V123.644H146.853V123.936H179.551V124.519H179.259V125.395H178.967V126.271H178.676V126.855H178.384V127.147H66.8573V127.439H65.9815V127.731H65.3976V128.023H65.1056V128.315H64.8137V128.899H64.5217V149.627H63.9378V171.524H25.6919V171.816H0ZM287.282 144.372V126.855H279.108V127.147H237.358V126.855H237.066V126.271H236.774V125.395H236.482V124.811H236.19V124.228H280.567V124.519H305.383V124.811H305.091V125.103H304.799V125.395H304.507V125.979H304.216V126.271H303.924V126.563H303.632V126.855H303.34V127.147H303.048V127.439H302.756V127.731H302.464V128.023H302.172V128.315H301.88V128.607H301.588V129.191H301.296V129.483H301.004V129.775H300.712V130.067H300.42V130.359H300.128V130.65H299.836V130.942H299.544V131.234H299.252V131.526H298.96V132.11H298.668V132.402H298.376V132.694H298.085V132.986H297.793V133.278H297.501V133.57H297.209V133.862H296.917V134.154H296.625V134.446H296.333V134.738H296.041V135.322H295.749V135.614H295.457V135.906H295.165V136.198H294.873V136.49H294.581V136.782H294.289V137.073H293.997V137.365H293.705V137.657H293.413V137.949H293.121V138.533H292.829V138.825H292.537V139.117H292.245V139.409H291.953V139.701H291.662V139.993H291.37V140.285H291.078V140.577H290.786V140.869H290.494V141.453H290.202V141.745H289.91V142.037H289.618V142.329H289.326V142.621H289.034V142.913H288.742V143.204H288.45V143.496H288.158V143.788H287.866V144.08H287.574V144.372" fill="url(#paint6_linear_131_1227)"/>
<path d="M237.534 127.071H178.263C178.655 126.058 179.04 125.062 179.404 124.078L236.31 124.327C236.649 125.086 237.067 126.023 237.534 127.071Z" fill="url(#paint7_linear_131_1227)"/>
<path d="M147.487 170.867V149.511H64.4805V129.2C64.4805 128.043 65.7683 127.071 67.3717 127.071H178.263H237.534H279.049V153.464L263.836 170.242L147.487 170.867Z" fill="url(#paint8_linear_131_1227)"/>
<path d="M279.05 153.464V126.73H287.484V144.16L279.05 153.464Z" fill="url(#paint9_linear_131_1227)"/>
<path d="M63.7451 171.32V149.511H147.487V170.867L63.7451 171.32Z" fill="url(#paint10_linear_131_1227)"/>
<path d="M308.563 127.016C308.563 127.836 308.02 128.493 307.352 128.493H45.8827C45.2144 128.493 44.667 127.836 44.667 127.016V117.41C44.667 116.594 45.2144 115.937 45.8827 115.937H307.352C308.02 115.937 308.563 116.594 308.563 117.41V127.016Z" fill="#7FA6DB"/>
<path d="M237.435 113.767H170.788V108.644H237.435V113.767Z" fill="#7FA6DB"/>
<path d="M172.297 92.2697C169.915 93.5517 158.992 106.276 161.509 107.635C168.961 111.673 177.563 107.916 186.422 107.44C192.513 107.113 196.297 91.0701 190.894 92.8446L172.297 92.2697Z" fill="#100F0D"/>
<path d="M186.552 98.3928C186.341 99.3472 185.616 99.9892 186.64 101.711C187.665 103.435 191.932 105.7 193.374 105.843C194.817 105.986 193.814 105.14 193.061 104.31C192.31 103.481 189.053 100.197 189.81 100.33C190.563 100.474 191.797 101.923 192.477 102.614C193.164 103.306 194.53 105.127 195.348 105.755C196.174 106.371 197.686 106.31 197.075 105.069C196.458 103.834 194.189 101.998 193.715 101.028C193.234 100.068 191.873 98.3482 191.666 97.9286C191.459 97.517 192.824 98.6173 193.374 99.3793C193.92 100.135 194.577 100.617 194.991 101.443C195.394 102.269 197.599 105.426 198.49 105.843C199.384 106.257 200.287 106.354 199.542 104.489C198.792 102.632 197.445 101.151 196.965 100.188C196.491 99.222 194.615 96.7985 194.615 96.7985C194.615 96.7985 197.108 98.664 198.133 100.906C198.9 102.587 200.156 105.387 201.119 105.253C202.081 105.119 201.014 102.705 200.468 101.266C199.922 99.8138 199.832 98.7975 199.029 97.8521C197.503 96.0595 195.455 93.295 193.733 93.6302C192.015 93.9688 191.96 93.8436 189.341 95.3124C187.734 96.2087 186.552 98.3928 186.552 98.3928Z" fill="#DCA296"/>
<path d="M277.391 100.562C277.391 101.981 276.189 103.128 274.706 103.128H212.076C210.596 103.128 209.396 101.981 209.396 100.562V53.9926C209.396 52.5737 210.596 51.4232 212.076 51.4232H274.706C276.189 51.4232 277.391 52.5737 277.391 53.9926V100.562Z" fill="#AECCE5"/>
<path d="M239.885 82.6799L234.703 114.167H253.945L247.283 82.6799H239.885Z" fill="#7FA6DB"/>
<defs>
<linearGradient id="paint0_linear_131_1227" x1="207.106" y1="52.39" x2="200.442" y2="30.051" gradientUnits="userSpaceOnUse">
<stop stop-color="#2A1513"/>
<stop offset="0.642857" stop-color="#231311"/>
<stop offset="1" stop-color="#231311"/>
</linearGradient>
<linearGradient id="paint1_linear_131_1227" x1="207.106" y1="52.3898" x2="200.442" y2="30.0512" gradientUnits="userSpaceOnUse">
<stop stop-color="white"/>
<stop offset="0.642857" stop-color="#C4BDB4"/>
<stop offset="1" stop-color="#C4BDB4"/>
</linearGradient>
<linearGradient id="paint2_linear_131_1227" x1="207.106" y1="52.3898" x2="200.442" y2="30.0508" gradientUnits="userSpaceOnUse">
<stop stop-color="#2A1513"/>
<stop offset="0.642857" stop-color="#231311"/>
<stop offset="1" stop-color="#231311"/>
</linearGradient>
<linearGradient id="paint3_linear_131_1227" x1="207.106" y1="52.3898" x2="200.442" y2="30.0508" gradientUnits="userSpaceOnUse">
<stop stop-color="#581C19"/>
<stop offset="0.642857" stop-color="#411816"/>
<stop offset="1" stop-color="#411816"/>
</linearGradient>
<linearGradient id="paint4_linear_131_1227" x1="207.106" y1="52.3891" x2="200.442" y2="30.0501" gradientUnits="userSpaceOnUse">
<stop stop-color="#DCA296"/>
<stop offset="0.642857" stop-color="#A8786B"/>
<stop offset="1" stop-color="#A8786B"/>
</linearGradient>
<linearGradient id="paint5_linear_131_1227" x1="207.106" y1="52.3895" x2="200.442" y2="30.0505" gradientUnits="userSpaceOnUse">
<stop stop-color="#E9C3B5"/>
<stop offset="0.642857" stop-color="#B0917F"/>
<stop offset="1" stop-color="#B0917F"/>
</linearGradient>
<linearGradient id="paint6_linear_131_1227" x1="152.601" y1="229.15" x2="152.601" y2="131.313" gradientUnits="userSpaceOnUse">
<stop stop-color="white"/>
<stop offset="0.697802" stop-color="white"/>
<stop offset="0.956044" stop-color="#C5C5C6"/>
<stop offset="1" stop-color="#C5C5C6"/>
</linearGradient>
<linearGradient id="paint7_linear_131_1227" x1="152.601" y1="229.15" x2="152.601" y2="131.313" gradientUnits="userSpaceOnUse">
<stop stop-color="#100F0D"/>
<stop offset="0.697802" stop-color="#100F0D"/>
<stop offset="0.956044" stop-color="#100F0D"/>
<stop offset="1" stop-color="#100F0D"/>
</linearGradient>
<linearGradient id="paint8_linear_131_1227" x1="152.601" y1="229.15" x2="152.601" y2="131.313" gradientUnits="userSpaceOnUse">
<stop stop-color="#7FA6DB"/>
<stop offset="0.697802" stop-color="#7FA6DB"/>
<stop offset="0.956044" stop-color="#5D7EAB"/>
<stop offset="1" stop-color="#5D7EAB"/>
</linearGradient>
<linearGradient id="paint9_linear_131_1227" x1="152.602" y1="229.15" x2="152.602" y2="131.313" gradientUnits="userSpaceOnUse">
<stop stop-color="#7FA6DB"/>
<stop offset="0.697802" stop-color="#7FA6DB"/>
<stop offset="0.956044" stop-color="#5D7EAB"/>
<stop offset="1" stop-color="#5D7EAB"/>
</linearGradient>
<linearGradient id="paint10_linear_131_1227" x1="152.601" y1="229.15" x2="152.601" y2="131.313" gradientUnits="userSpaceOnUse">
<stop stop-color="#7FA6DB"/>
<stop offset="0.697802" stop-color="#7FA6DB"/>
<stop offset="0.956044" stop-color="#5D7EAB"/>
<stop offset="1" stop-color="#5D7EAB"/>
</linearGradient>
</defs>
</svg>
