<svg width="340" height="244" viewBox="0 0 340 244" fill="none" xmlns="http://www.w3.org/2000/svg">
<path d="M111.973 122.527H216.615V121.122H111.973V122.527Z" fill="#121429"/>
<path d="M140.899 71.7769C140.899 72.2 140.795 72.5646 140.587 72.8706C140.382 73.1766 140.086 73.411 139.698 73.5737C139.314 73.7365 138.855 73.8179 138.321 73.8179C138.061 73.8179 137.812 73.8032 137.574 73.7739C137.337 73.7446 137.112 73.7023 136.9 73.647C136.692 73.5884 136.502 73.5184 136.329 73.437V72.3335C136.619 72.4604 136.943 72.576 137.301 72.6802C137.659 72.7811 138.023 72.8315 138.395 72.8315C138.697 72.8315 138.948 72.7925 139.146 72.7144C139.348 72.633 139.498 72.519 139.596 72.3726C139.693 72.2228 139.742 72.0487 139.742 71.8501C139.742 71.6385 139.685 71.4595 139.571 71.313C139.457 71.1665 139.285 71.033 139.054 70.9126C138.826 70.7889 138.539 70.6571 138.194 70.5171C137.96 70.4227 137.735 70.3153 137.521 70.1948C137.309 70.0744 137.12 69.9328 136.954 69.77C136.788 69.6073 136.656 69.4152 136.559 69.1938C136.464 68.9692 136.417 68.7056 136.417 68.4028C136.417 67.9992 136.513 67.6541 136.705 67.3677C136.9 67.0812 137.174 66.8615 137.525 66.7085C137.88 66.5555 138.294 66.479 138.766 66.479C139.14 66.479 139.492 66.5181 139.82 66.5962C140.152 66.6743 140.478 66.785 140.797 66.9282L140.426 67.8706C140.133 67.7502 139.848 67.6541 139.571 67.5825C139.298 67.5109 139.018 67.4751 138.731 67.4751C138.484 67.4751 138.274 67.5125 138.102 67.5874C137.929 67.6623 137.797 67.7681 137.706 67.9048C137.618 68.0382 137.574 68.1978 137.574 68.3833C137.574 68.5916 137.625 68.7674 137.726 68.9106C137.83 69.0506 137.989 69.1792 138.204 69.2964C138.422 69.4136 138.702 69.5438 139.044 69.687C139.438 69.8498 139.771 70.0207 140.045 70.1997C140.322 70.3787 140.533 70.5936 140.68 70.8442C140.826 71.0916 140.899 71.4025 140.899 71.7769ZM144.337 73.8179C143.826 73.8179 143.383 73.7186 143.009 73.52C142.634 73.3215 142.346 73.0171 142.145 72.6069C141.943 72.1968 141.842 71.6759 141.842 71.0444C141.842 70.3869 141.952 69.8498 142.174 69.4331C142.395 69.0164 142.701 68.7088 143.092 68.5103C143.486 68.3117 143.937 68.2124 144.444 68.2124C144.767 68.2124 145.058 68.245 145.318 68.3101C145.582 68.3719 145.805 68.4484 145.987 68.5396L145.646 69.4575C145.447 69.3761 145.243 69.3078 145.035 69.2524C144.827 69.1971 144.627 69.1694 144.435 69.1694C144.119 69.1694 143.855 69.2394 143.644 69.3794C143.435 69.5194 143.279 69.7277 143.175 70.0044C143.074 70.2811 143.023 70.6245 143.023 71.0347C143.023 71.4318 143.076 71.7671 143.18 72.0405C143.284 72.3107 143.438 72.5158 143.644 72.6558C143.849 72.7925 144.101 72.8608 144.4 72.8608C144.697 72.8608 144.962 72.825 145.196 72.7534C145.431 72.6818 145.652 72.589 145.86 72.4751V73.4712C145.655 73.5884 145.436 73.6746 145.201 73.73C144.967 73.7886 144.679 73.8179 144.337 73.8179ZM149.869 68.2124C149.96 68.2124 150.06 68.2173 150.167 68.2271C150.274 68.2368 150.367 68.2498 150.445 68.2661L150.338 69.3403C150.27 69.3208 150.185 69.3062 150.084 69.2964C149.986 69.2866 149.898 69.2817 149.82 69.2817C149.615 69.2817 149.42 69.3159 149.234 69.3843C149.049 69.4494 148.884 69.5503 148.741 69.687C148.598 69.8205 148.486 69.9881 148.404 70.1899C148.323 70.3918 148.282 70.6261 148.282 70.8931V73.7202H147.13V68.3149H148.028L148.185 69.2671H148.238C148.346 69.075 148.479 68.8993 148.639 68.7397C148.798 68.5802 148.98 68.4533 149.186 68.3589C149.394 68.2612 149.622 68.2124 149.869 68.2124ZM153.6 68.2124C154.081 68.2124 154.495 68.3117 154.84 68.5103C155.185 68.7088 155.45 68.9904 155.636 69.355C155.821 69.7196 155.914 70.1558 155.914 70.6636V71.2788H152.306C152.319 71.8029 152.459 72.2065 152.726 72.4897C152.996 72.7729 153.373 72.9146 153.858 72.9146C154.203 72.9146 154.513 72.882 154.786 72.8169C155.063 72.7485 155.348 72.6493 155.641 72.519V73.4517C155.37 73.5786 155.095 73.6714 154.815 73.73C154.535 73.7886 154.2 73.8179 153.81 73.8179C153.279 73.8179 152.812 73.7153 152.408 73.5103C152.008 73.3019 151.694 72.9927 151.466 72.5825C151.241 72.1724 151.129 71.6629 151.129 71.0542C151.129 70.4487 151.231 69.9344 151.437 69.5112C151.642 69.0881 151.93 68.7658 152.301 68.5444C152.672 68.3231 153.105 68.2124 153.6 68.2124ZM153.6 69.0767C153.238 69.0767 152.945 69.1938 152.721 69.4282C152.499 69.6626 152.369 70.006 152.33 70.4585H154.791C154.788 70.1883 154.742 69.9491 154.654 69.7407C154.57 69.5324 154.439 69.3696 154.264 69.2524C154.091 69.1353 153.87 69.0767 153.6 69.0767ZM159.361 68.2124C159.843 68.2124 160.257 68.3117 160.602 68.5103C160.947 68.7088 161.212 68.9904 161.397 69.355C161.583 69.7196 161.676 70.1558 161.676 70.6636V71.2788H158.067C158.08 71.8029 158.22 72.2065 158.487 72.4897C158.757 72.7729 159.135 72.9146 159.62 72.9146C159.965 72.9146 160.274 72.882 160.548 72.8169C160.825 72.7485 161.109 72.6493 161.402 72.519V73.4517C161.132 73.5786 160.857 73.6714 160.577 73.73C160.297 73.7886 159.962 73.8179 159.571 73.8179C159.041 73.8179 158.574 73.7153 158.17 73.5103C157.77 73.3019 157.455 72.9927 157.228 72.5825C157.003 72.1724 156.891 71.6629 156.891 71.0542C156.891 70.4487 156.993 69.9344 157.198 69.5112C157.403 69.0881 157.691 68.7658 158.062 68.5444C158.434 68.3231 158.867 68.2124 159.361 68.2124ZM159.361 69.0767C159 69.0767 158.707 69.1938 158.482 69.4282C158.261 69.6626 158.131 70.006 158.092 70.4585H160.553C160.549 70.1883 160.504 69.9491 160.416 69.7407C160.331 69.5324 160.201 69.3696 160.025 69.2524C159.853 69.1353 159.632 69.0767 159.361 69.0767ZM165.787 68.2124C166.396 68.2124 166.869 68.3703 167.208 68.686C167.55 68.9985 167.721 69.5015 167.721 70.1948V73.7202H166.573V70.4097C166.573 69.9897 166.487 69.6756 166.314 69.4673C166.142 69.2557 165.875 69.1499 165.514 69.1499C164.99 69.1499 164.625 69.311 164.42 69.6333C164.218 69.9556 164.117 70.4227 164.117 71.0347V73.7202H162.97V68.3149H163.863L164.024 69.0474H164.088C164.205 68.8586 164.35 68.7039 164.522 68.5835C164.698 68.4598 164.894 68.367 165.108 68.3052C165.326 68.2433 165.553 68.2124 165.787 68.2124ZM172.145 68.2124C172.753 68.2124 173.227 68.3703 173.565 68.686C173.907 68.9985 174.078 69.5015 174.078 70.1948V73.7202H172.931V70.4097C172.931 69.9897 172.844 69.6756 172.672 69.4673C172.499 69.2557 172.232 69.1499 171.871 69.1499C171.347 69.1499 170.982 69.311 170.777 69.6333C170.576 69.9556 170.475 70.4227 170.475 71.0347V73.7202H169.327V68.3149H170.221L170.382 69.0474H170.445C170.562 68.8586 170.707 68.7039 170.88 68.5835C171.056 68.4598 171.251 68.367 171.466 68.3052C171.684 68.2433 171.91 68.2124 172.145 68.2124ZM176.832 68.3149V73.7202H175.685V68.3149H176.832ZM176.266 66.2446C176.441 66.2446 176.593 66.2918 176.72 66.3862C176.85 66.4806 176.915 66.6434 176.915 66.8745C176.915 67.1024 176.85 67.2651 176.72 67.3628C176.593 67.4572 176.441 67.5044 176.266 67.5044C176.083 67.5044 175.929 67.4572 175.802 67.3628C175.678 67.2651 175.616 67.1024 175.616 66.8745C175.616 66.6434 175.678 66.4806 175.802 66.3862C175.929 66.2918 176.083 66.2446 176.266 66.2446ZM181.295 68.2124C181.904 68.2124 182.377 68.3703 182.716 68.686C183.058 68.9985 183.229 69.5015 183.229 70.1948V73.7202H182.081V70.4097C182.081 69.9897 181.995 69.6756 181.822 69.4673C181.65 69.2557 181.383 69.1499 181.021 69.1499C180.497 69.1499 180.133 69.311 179.928 69.6333C179.726 69.9556 179.625 70.4227 179.625 71.0347V73.7202H178.478V68.3149H179.371L179.532 69.0474H179.596C179.713 68.8586 179.858 68.7039 180.03 68.5835C180.206 68.4598 180.401 68.367 180.616 68.3052C180.834 68.2433 181.061 68.2124 181.295 68.2124ZM186.378 76.1226C185.646 76.1226 185.084 75.9907 184.693 75.7271C184.303 75.4634 184.107 75.0939 184.107 74.6187C184.107 74.2866 184.212 74.005 184.42 73.7739C184.628 73.5461 184.926 73.3882 185.313 73.3003C185.167 73.2352 185.04 73.1343 184.933 72.9976C184.828 72.8576 184.776 72.703 184.776 72.5337C184.776 72.3319 184.833 72.1593 184.947 72.0161C185.061 71.8729 185.232 71.7345 185.46 71.6011C185.177 71.4806 184.949 71.2853 184.776 71.0151C184.607 70.7417 184.522 70.4211 184.522 70.0532C184.522 69.6626 184.605 69.3306 184.771 69.0571C184.938 68.7804 185.18 68.5705 185.499 68.4272C185.818 68.2808 186.204 68.2075 186.656 68.2075C186.754 68.2075 186.86 68.214 186.974 68.2271C187.091 68.2368 187.198 68.2498 187.296 68.2661C187.397 68.2791 187.473 68.2938 187.525 68.3101H189.396V68.9497L188.478 69.1206C188.565 69.2443 188.635 69.3859 188.688 69.5454C188.74 69.7017 188.766 69.8726 188.766 70.0581C188.766 70.618 188.572 71.0591 188.185 71.3813C187.8 71.7004 187.27 71.8599 186.593 71.8599C186.43 71.8534 186.272 71.8403 186.119 71.8208C186.002 71.8924 185.912 71.9722 185.851 72.0601C185.789 72.1447 185.758 72.2407 185.758 72.3481C185.758 72.436 185.789 72.5076 185.851 72.563C185.912 72.6151 186.004 72.6541 186.124 72.6802C186.248 72.7062 186.397 72.7192 186.573 72.7192H187.506C188.098 72.7192 188.551 72.8446 188.863 73.0952C189.176 73.3459 189.332 73.7137 189.332 74.1987C189.332 74.814 189.078 75.2876 188.57 75.6196C188.062 75.9549 187.332 76.1226 186.378 76.1226ZM186.422 75.3169C186.822 75.3169 187.159 75.2778 187.433 75.1997C187.706 75.1216 187.913 75.0093 188.053 74.8628C188.193 74.7196 188.263 74.5487 188.263 74.3501C188.263 74.1743 188.219 74.0392 188.131 73.9448C188.043 73.8504 187.911 73.7853 187.735 73.7495C187.56 73.7137 187.341 73.6958 187.081 73.6958H186.231C186.02 73.6958 185.833 73.7284 185.67 73.7935C185.507 73.8618 185.38 73.9595 185.289 74.0864C185.201 74.2134 185.157 74.3664 185.157 74.5454C185.157 74.7928 185.266 74.9832 185.484 75.1167C185.706 75.2502 186.018 75.3169 186.422 75.3169ZM186.646 71.1079C186.982 71.1079 187.231 71.0168 187.394 70.8345C187.556 70.6489 187.638 70.3885 187.638 70.0532C187.638 69.6886 187.553 69.4152 187.384 69.2329C187.218 69.0506 186.97 68.9595 186.642 68.9595C186.319 68.9595 186.074 69.0522 185.904 69.2378C185.738 69.4233 185.655 69.6984 185.655 70.063C185.655 70.3918 185.738 70.6489 185.904 70.8345C186.074 71.0168 186.321 71.1079 186.646 71.1079Z" fill="black"/>
<path d="M153.239 43.1895C153.239 43.834 153.109 44.3939 152.849 44.8691C152.588 45.3444 152.23 45.735 151.774 46.041C151.325 46.3405 150.804 46.5553 150.212 46.6855V46.7539C151.351 46.8971 152.211 47.2552 152.79 47.8281C153.376 48.401 153.669 49.1595 153.669 50.1035C153.669 50.9303 153.47 51.6693 153.073 52.3203C152.676 52.9648 152.067 53.4727 151.247 53.8438C150.427 54.2148 149.372 54.4004 148.083 54.4004C147.308 54.4004 146.589 54.3385 145.925 54.2148C145.267 54.0911 144.642 53.8926 144.05 53.6191V51.5781C144.655 51.8776 145.3 52.1087 145.983 52.2715C146.667 52.4342 147.315 52.5156 147.927 52.5156C149.118 52.5156 149.968 52.2943 150.476 51.8516C150.983 51.4023 151.237 50.7839 151.237 49.9961C151.237 49.4883 151.104 49.0716 150.837 48.7461C150.576 48.4206 150.17 48.1764 149.616 48.0137C149.069 47.8509 148.363 47.7695 147.497 47.7695H146.237V45.9238H147.507C148.334 45.9238 148.998 45.8262 149.499 45.6309C150 45.429 150.362 45.1523 150.583 44.8008C150.811 44.4492 150.925 44.0391 150.925 43.5703C150.925 42.9583 150.726 42.4831 150.329 42.1445C149.932 41.7995 149.343 41.627 148.562 41.627C148.08 41.627 147.64 41.6823 147.243 41.793C146.853 41.9036 146.491 42.0436 146.159 42.2129C145.827 42.3822 145.511 42.5645 145.212 42.7598L144.108 41.168C144.649 40.7643 145.293 40.4225 146.042 40.1426C146.791 39.8626 147.663 39.7227 148.659 39.7227C150.124 39.7227 151.254 40.0384 152.048 40.6699C152.842 41.2949 153.239 42.1348 153.239 43.1895ZM165.231 47.0566C165.231 48.209 165.14 49.2409 164.958 50.1523C164.782 51.0573 164.502 51.8255 164.118 52.457C163.734 53.0885 163.233 53.5703 162.614 53.9023C161.996 54.2344 161.247 54.4004 160.368 54.4004C159.268 54.4004 158.36 54.1107 157.644 53.5312C156.927 52.9453 156.397 52.1055 156.052 51.0117C155.707 49.9115 155.534 48.5931 155.534 47.0566C155.534 45.5202 155.69 44.2051 156.003 43.1113C156.322 42.0111 156.836 41.168 157.546 40.582C158.256 39.9961 159.196 39.7031 160.368 39.7031C161.475 39.7031 162.386 39.9961 163.103 40.582C163.825 41.1615 164.359 42.0013 164.704 43.1016C165.056 44.1953 165.231 45.5137 165.231 47.0566ZM157.849 47.0566C157.849 48.2611 157.927 49.2669 158.083 50.0742C158.246 50.8815 158.513 51.487 158.884 51.8906C159.255 52.2878 159.75 52.4863 160.368 52.4863C160.987 52.4863 161.481 52.2878 161.853 51.8906C162.224 51.4935 162.491 50.8913 162.653 50.084C162.823 49.2767 162.907 48.2676 162.907 47.0566C162.907 45.8587 162.826 44.8561 162.663 44.0488C162.5 43.2415 162.233 42.6361 161.862 42.2324C161.491 41.8223 160.993 41.6172 160.368 41.6172C159.743 41.6172 159.245 41.8223 158.874 42.2324C158.509 42.6361 158.246 43.2415 158.083 44.0488C157.927 44.8561 157.849 45.8587 157.849 47.0566ZM170.056 39.7227C171.104 39.7227 171.898 40.1133 172.438 40.8945C172.979 41.6693 173.249 42.7663 173.249 44.1855C173.249 45.5983 172.989 46.7018 172.468 47.4961C171.953 48.2904 171.149 48.6875 170.056 48.6875C169.034 48.6875 168.256 48.2904 167.722 47.4961C167.188 46.7018 166.921 45.5983 166.921 44.1855C166.921 42.7663 167.172 41.6693 167.673 40.8945C168.181 40.1133 168.975 39.7227 170.056 39.7227ZM170.065 41.3242C169.642 41.3242 169.33 41.5618 169.128 42.0371C168.933 42.5124 168.835 43.2318 168.835 44.1953C168.835 45.1523 168.933 45.875 169.128 46.3633C169.33 46.8451 169.642 47.0859 170.065 47.0859C170.495 47.0859 170.814 46.8451 171.022 46.3633C171.237 45.8815 171.345 45.1589 171.345 44.1953C171.345 43.2383 171.241 42.5221 171.032 42.0469C170.824 41.5651 170.502 41.3242 170.065 41.3242ZM179.646 39.9277L171.726 54.2051H169.841L177.761 39.9277H179.646ZM179.382 45.4355C180.43 45.4355 181.224 45.8262 181.765 46.6074C182.312 47.3822 182.585 48.4792 182.585 49.8984C182.585 51.3047 182.325 52.4049 181.804 53.1992C181.289 53.9935 180.482 54.3906 179.382 54.3906C178.36 54.3906 177.582 53.9935 177.048 53.1992C176.514 52.4049 176.247 51.3047 176.247 49.8984C176.247 48.4792 176.498 47.3822 176.999 46.6074C177.507 45.8262 178.301 45.4355 179.382 45.4355ZM179.392 47.0371C178.968 47.0371 178.656 47.2747 178.454 47.75C178.259 48.2253 178.161 48.9447 178.161 49.9082C178.161 50.8652 178.259 51.5879 178.454 52.0762C178.656 52.5579 178.968 52.7988 179.392 52.7988C179.828 52.7988 180.15 52.5612 180.358 52.0859C180.567 51.6042 180.671 50.8783 180.671 49.9082C180.671 48.9512 180.567 48.235 180.358 47.7598C180.15 47.278 179.828 47.0371 179.392 47.0371Z" fill="#F358B0"/>
<path d="M165.827 111.054C146.4 111.054 129.418 100.579 120.223 84.9709C120.47 85.0173 120.726 85.0412 120.987 85.0412C121.325 85.0412 121.654 85.0011 121.968 84.9245C124.67 88.9232 127.902 92.5311 131.567 95.6492C140.6 103.909 152.621 108.946 165.827 108.946V111.054ZM116.997 78.5274C114.38 72.2588 112.935 65.3796 112.935 58.1624C112.935 57.6915 112.941 57.2249 112.953 56.7569C113.15 64.2904 114.921 71.4324 117.952 77.8647L116.997 78.5274ZM115.062 56.7569C115.049 56.2903 115.043 55.8215 115.043 55.3514C115.044 41.3245 120.725 28.6356 129.917 19.4422C130.455 18.9039 131.005 18.3782 131.567 17.8645C140.796 10.0106 152.757 5.27055 165.827 5.27055V7.37879C151.8 7.37879 139.111 13.0612 129.917 22.2532C121.033 31.1381 115.428 43.2894 115.062 56.7569Z" fill="#C3CFD3"/>
<path d="M165.827 106.135C151.8 106.135 139.111 100.452 129.917 91.2612C120.725 82.0678 115.044 69.3783 115.043 55.3513C115.044 41.3244 120.725 28.6356 129.917 19.4422C139.111 10.2502 151.8 4.56846 165.827 4.56776V2.45951C136.614 2.46021 112.935 26.1394 112.935 55.3513C112.935 84.5633 136.614 108.242 165.827 108.243V106.135Z" fill="#121429"/>
<path d="M165.834 110.703C165.832 110.703 165.83 110.703 165.828 110.703V103.676C179.183 103.674 191.242 98.2722 199.998 89.5222C204.664 84.8532 208.377 79.2466 210.827 73.0041C212.813 74.2037 215.059 75.016 217.46 75.3365C214.652 82.5854 210.362 89.0985 204.967 94.4914C194.963 104.501 181.105 110.703 165.834 110.703ZM212.417 42.471C210.165 34.305 205.824 27.0119 199.998 21.1811C191.242 12.4312 179.183 7.02914 165.828 7.02773V0.000228882C181.102 -0.00188446 194.961 6.20129 204.967 16.2127C211.69 22.931 216.695 31.3879 219.257 40.8441C216.818 40.9151 214.503 41.4913 212.417 42.471Z" fill="url(#paint0_linear_131_1764)"/>
<path d="M219.773 75.4888C218.988 75.4888 218.216 75.4368 217.459 75.3363C219.861 69.1338 221.179 62.3937 221.178 55.3515C221.179 50.3345 220.51 45.4694 219.256 40.8439C219.428 40.8382 219.6 40.8361 219.773 40.8361C229.342 40.8361 237.1 48.5931 237.1 58.1625C237.1 67.7318 229.342 75.4888 219.773 75.4888ZM210.827 73.0039C205.805 69.9694 202.446 64.4584 202.446 58.1625C202.446 51.2235 206.525 45.2375 212.416 42.4707C213.546 46.5692 214.15 50.8883 214.151 55.3515C214.15 61.5856 212.972 67.5386 210.827 73.0039Z" fill="#B9BCBD"/>
<path d="M217.46 75.3364C215.058 75.016 212.813 74.2036 210.827 73.004C212.973 67.5387 214.15 61.5857 214.151 55.3516C214.15 50.8884 213.547 46.5693 212.417 42.4709C214.503 41.4913 216.817 40.915 219.257 40.844C220.51 45.4695 221.179 50.3347 221.179 55.3516C221.179 62.3939 219.862 69.1339 217.46 75.3364Z" fill="url(#paint1_linear_131_1764)"/>
<path d="M200.338 55.3514C200.338 45.7821 208.096 38.0251 217.664 38.0251C227.234 38.0251 234.991 45.7821 234.991 55.3514C234.991 64.9208 227.234 72.6777 217.664 72.6777C208.096 72.6777 200.338 64.9208 200.338 55.3514Z" fill="white"/>
<path d="M204.972 55.3514C204.972 48.3414 210.654 42.6583 217.664 42.6583C224.675 42.6583 230.358 48.3414 230.358 55.3514C230.358 62.3613 224.675 68.0444 217.664 68.0444C210.654 68.0444 204.972 62.3613 204.972 55.3514Z" fill="url(#paint2_linear_131_1764)"/>
<path d="M223.043 58.7934H212.287C211.931 58.7934 211.642 58.5039 211.642 58.1476V57.0724H223.688V58.1476C223.688 58.5039 223.398 58.7934 223.043 58.7934ZM219.505 60.5137H215.824L216.308 59.2235H219.022L219.505 60.5137ZM220.676 61.1589V61.3739H214.653V61.1589C214.653 61.0401 214.75 60.9438 214.868 60.9438H220.461C220.58 60.9438 220.676 61.0401 220.676 61.1589ZM212.287 49.3288H223.043C223.398 49.3288 223.688 49.6169 223.688 49.9739V56.6423H211.642V49.9739C211.642 49.6169 211.931 49.3288 212.287 49.3288ZM223.043 48.8987H212.287C211.693 48.8994 211.213 49.3801 211.212 49.9739V58.1476C211.213 58.7414 211.693 59.2221 212.287 59.2235H215.849L215.365 60.5137H214.868C214.512 60.5137 214.223 60.8026 214.223 61.1589V61.5897C214.223 61.7084 214.319 61.8047 214.438 61.8047H220.892C221.01 61.8047 221.107 61.7084 221.107 61.5897V61.1589C221.107 60.8026 220.818 60.5137 220.461 60.5137H219.965L219.48 59.2235H223.043C223.636 59.2221 224.117 58.7414 224.118 58.1476V49.9739C224.117 49.3801 223.636 48.8994 223.043 48.8987Z" fill="white"/>
<path d="M217.665 58.1475C217.546 58.1475 217.45 58.0513 217.45 57.9325C217.45 57.8138 217.546 57.7175 217.665 57.7175C217.783 57.7175 217.88 57.8138 217.88 57.9325C217.88 58.0513 217.783 58.1475 217.665 58.1475ZM217.665 57.2874C217.308 57.2874 217.02 57.5762 217.02 57.9325C217.02 58.2888 217.308 58.5776 217.665 58.5776C218.021 58.5776 218.31 58.2888 218.31 57.9325C218.31 57.5762 218.021 57.2874 217.665 57.2874Z" fill="white"/>
<path d="M165.827 244C136.614 244 112.935 220.321 112.935 191.109C112.935 190.638 112.941 190.171 112.953 189.703C113.36 205.277 120.499 219.177 131.567 228.595C140.6 236.855 152.621 241.892 165.827 241.892V244ZM115.062 189.703C115.049 189.236 115.043 188.768 115.043 188.298C115.043 182.315 116.077 176.575 117.976 171.247C118.219 171.503 118.494 171.727 118.795 171.915C116.543 177.426 115.233 183.421 115.062 189.703ZM122.544 164.531C122.095 164.35 121.607 164.245 121.096 164.231C123.453 159.86 126.433 155.873 129.917 152.389C130.455 151.85 131.006 151.324 131.567 150.811C140.797 142.956 152.757 138.218 165.827 138.217V140.325C151.8 140.326 139.111 146.008 129.917 155.2C127.112 158.005 124.634 161.136 122.544 164.531Z" fill="#C3CFD3"/>
<path d="M165.827 239.081C151.8 239.081 139.111 233.399 129.917 224.207C120.725 215.013 115.044 202.325 115.043 188.298C115.044 174.271 120.725 161.582 129.917 152.389C139.111 143.197 151.8 137.515 165.827 137.514V135.406C136.614 135.407 112.935 159.086 112.935 188.298C112.935 217.51 136.614 241.188 165.827 241.189V239.081Z" fill="#121429"/>
<path d="M165.834 243.649C165.832 243.649 165.83 243.649 165.828 243.649V236.622C179.183 236.62 191.242 231.218 199.998 222.468C204.664 217.8 208.377 212.193 210.827 205.95C212.813 207.15 215.059 207.962 217.46 208.282C214.652 215.532 210.363 222.044 204.967 227.437C194.963 237.447 181.106 243.649 165.834 243.649ZM212.417 175.417C210.165 167.251 205.824 159.958 199.998 154.128C191.242 145.378 179.183 139.976 165.828 139.974V132.947C181.102 132.945 194.961 139.148 204.967 149.159C211.69 155.877 216.695 164.334 219.257 173.79C216.818 173.861 214.503 174.438 212.417 175.417Z" fill="url(#paint3_linear_131_1764)"/>
<path d="M219.773 208.435C218.988 208.435 218.216 208.383 217.459 208.282C219.861 202.081 221.179 195.339 221.178 188.298C221.179 183.28 220.51 178.416 219.256 173.789C219.428 173.785 219.6 173.782 219.773 173.782C229.342 173.782 237.1 181.54 237.1 191.109C237.1 200.678 229.342 208.435 219.773 208.435ZM210.827 205.95C205.805 202.916 202.446 197.404 202.446 191.109C202.446 184.17 206.525 178.184 212.416 175.417C213.546 179.515 214.15 183.835 214.151 188.298C214.15 194.532 212.972 200.485 210.827 205.95Z" fill="#B9BCBD"/>
<path d="M217.46 208.282C215.058 207.962 212.813 207.15 210.827 205.95C212.973 200.485 214.15 194.532 214.151 188.298C214.15 183.835 213.547 179.516 212.417 175.417C214.503 174.438 216.817 173.861 219.257 173.79C220.51 178.416 221.179 183.28 221.179 188.298C221.179 195.339 219.862 202.081 217.46 208.282Z" fill="url(#paint4_linear_131_1764)"/>
<path d="M200.338 188.298C200.338 178.729 208.096 170.971 217.664 170.971C227.234 170.971 234.991 178.729 234.991 188.298C234.991 197.867 227.234 205.624 217.664 205.624C208.096 205.624 200.338 197.867 200.338 188.298Z" fill="white"/>
<path d="M204.972 188.298C204.972 181.287 210.654 175.605 217.664 175.605C224.675 175.605 230.358 181.287 230.358 188.298C230.358 195.308 224.675 200.991 217.664 200.991C210.654 200.991 204.972 195.308 204.972 188.298Z" fill="url(#paint5_linear_131_1764)"/>
<path d="M135.013 199.861C135.934 199.861 136.606 200.05 137.029 200.428C137.452 200.805 137.664 201.334 137.664 202.015C137.664 202.324 137.615 202.618 137.518 202.898C137.423 203.175 137.267 203.421 137.049 203.636C136.831 203.847 136.543 204.015 136.185 204.139C135.83 204.262 135.392 204.324 134.871 204.324H134.109V207H132.938V199.861H135.013ZM134.935 200.833H134.109V203.348H134.749C135.117 203.348 135.429 203.305 135.687 203.221C135.944 203.133 136.139 202.994 136.272 202.806C136.406 202.617 136.473 202.368 136.473 202.059C136.473 201.645 136.347 201.338 136.097 201.136C135.849 200.934 135.462 200.833 134.935 200.833ZM141.712 201.492C141.803 201.492 141.902 201.497 142.01 201.507C142.117 201.517 142.21 201.53 142.288 201.546L142.181 202.62C142.112 202.601 142.028 202.586 141.927 202.576C141.829 202.566 141.741 202.562 141.663 202.562C141.458 202.562 141.263 202.596 141.077 202.664C140.892 202.729 140.727 202.83 140.584 202.967C140.441 203.1 140.328 203.268 140.247 203.47C140.166 203.672 140.125 203.906 140.125 204.173V207H138.973V201.595H139.871L140.027 202.547H140.081C140.188 202.355 140.322 202.179 140.481 202.02C140.641 201.86 140.823 201.733 141.028 201.639C141.237 201.541 141.465 201.492 141.712 201.492ZM148.074 204.285C148.074 204.734 148.016 205.133 147.898 205.481C147.781 205.83 147.61 206.124 147.386 206.365C147.161 206.603 146.891 206.785 146.575 206.912C146.259 207.036 145.903 207.098 145.506 207.098C145.135 207.098 144.795 207.036 144.485 206.912C144.176 206.785 143.908 206.603 143.68 206.365C143.455 206.124 143.281 205.83 143.157 205.481C143.034 205.133 142.972 204.734 142.972 204.285C142.972 203.689 143.074 203.185 143.279 202.771C143.488 202.355 143.784 202.037 144.168 201.819C144.552 201.601 145.009 201.492 145.54 201.492C146.038 201.492 146.478 201.601 146.858 201.819C147.239 202.037 147.537 202.355 147.752 202.771C147.967 203.188 148.074 203.693 148.074 204.285ZM144.153 204.285C144.153 204.679 144.201 205.016 144.295 205.296C144.393 205.576 144.542 205.791 144.744 205.94C144.946 206.087 145.206 206.16 145.525 206.16C145.844 206.16 146.105 206.087 146.307 205.94C146.508 205.791 146.657 205.576 146.751 205.296C146.845 205.016 146.893 204.679 146.893 204.285C146.893 203.891 146.845 203.558 146.751 203.284C146.657 203.007 146.508 202.798 146.307 202.654C146.105 202.508 145.843 202.435 145.521 202.435C145.045 202.435 144.699 202.594 144.48 202.913C144.262 203.232 144.153 203.689 144.153 204.285ZM152.093 202.469H150.779V207H149.632V202.469H148.748V201.917L149.632 201.58V201.204C149.632 200.745 149.703 200.381 149.847 200.11C149.993 199.84 150.201 199.646 150.472 199.529C150.745 199.409 151.071 199.349 151.448 199.349C151.696 199.349 151.922 199.37 152.127 199.412C152.332 199.451 152.505 199.497 152.645 199.549L152.347 200.418C152.236 200.382 152.112 200.35 151.976 200.32C151.839 200.288 151.692 200.271 151.536 200.271C151.276 200.271 151.084 200.353 150.96 200.516C150.84 200.678 150.779 200.916 150.779 201.229V201.595H152.093V202.469ZM154.158 201.595V207H153.011V201.595H154.158ZM153.592 199.524C153.768 199.524 153.919 199.572 154.046 199.666C154.176 199.76 154.241 199.923 154.241 200.154C154.241 200.382 154.176 200.545 154.046 200.643C153.919 200.737 153.768 200.784 153.592 200.784C153.41 200.784 153.255 200.737 153.128 200.643C153.004 200.545 152.942 200.382 152.942 200.154C152.942 199.923 153.004 199.76 153.128 199.666C153.255 199.572 153.41 199.524 153.592 199.524ZM156.951 207H155.799V199.402H156.951V207ZM160.745 201.492C161.227 201.492 161.64 201.591 161.985 201.79C162.33 201.989 162.596 202.27 162.781 202.635C162.967 202.999 163.06 203.436 163.06 203.943V204.559H159.451C159.464 205.083 159.604 205.486 159.871 205.77C160.141 206.053 160.519 206.194 161.004 206.194C161.349 206.194 161.658 206.162 161.932 206.097C162.208 206.028 162.493 205.929 162.786 205.799V206.731C162.516 206.858 162.241 206.951 161.961 207.01C161.681 207.068 161.346 207.098 160.955 207.098C160.424 207.098 159.957 206.995 159.554 206.79C159.153 206.582 158.839 206.272 158.611 205.862C158.387 205.452 158.274 204.943 158.274 204.334C158.274 203.729 158.377 203.214 158.582 202.791C158.787 202.368 159.075 202.046 159.446 201.824C159.817 201.603 160.25 201.492 160.745 201.492ZM160.745 202.356C160.384 202.356 160.091 202.474 159.866 202.708C159.645 202.942 159.515 203.286 159.476 203.738H161.937C161.933 203.468 161.888 203.229 161.8 203.021C161.715 202.812 161.585 202.649 161.409 202.532C161.237 202.415 161.015 202.356 160.745 202.356ZM173.06 201.492C173.665 201.492 174.121 201.648 174.427 201.961C174.736 202.273 174.891 202.775 174.891 203.465V207H173.743V203.67C173.743 203.26 173.663 202.951 173.504 202.742C173.344 202.534 173.102 202.43 172.776 202.43C172.321 202.43 171.992 202.576 171.79 202.869C171.591 203.159 171.492 203.58 171.492 204.134V207H170.345V203.67C170.345 203.396 170.309 203.169 170.237 202.986C170.169 202.801 170.063 202.662 169.92 202.571C169.777 202.477 169.596 202.43 169.378 202.43C169.062 202.43 168.81 202.501 168.621 202.645C168.436 202.788 168.302 202.999 168.221 203.279C168.139 203.556 168.099 203.896 168.099 204.3V207H166.951V201.595H167.845L168.006 202.322H168.069C168.18 202.133 168.317 201.979 168.479 201.858C168.646 201.735 168.829 201.644 169.031 201.585C169.233 201.523 169.443 201.492 169.661 201.492C170.065 201.492 170.405 201.564 170.682 201.707C170.958 201.847 171.165 202.062 171.302 202.352H171.39C171.559 202.059 171.795 201.842 172.098 201.702C172.4 201.562 172.721 201.492 173.06 201.492ZM178.611 201.492C179.295 201.492 179.811 201.644 180.159 201.946C180.511 202.249 180.687 202.721 180.687 203.362V207H179.871L179.651 206.233H179.612C179.459 206.429 179.301 206.59 179.139 206.717C178.976 206.844 178.787 206.938 178.572 207C178.361 207.065 178.102 207.098 177.796 207.098C177.474 207.098 177.186 207.039 176.932 206.922C176.678 206.801 176.478 206.619 176.331 206.375C176.185 206.131 176.111 205.822 176.111 205.447C176.111 204.891 176.318 204.472 176.731 204.192C177.148 203.912 177.776 203.758 178.616 203.729L179.554 203.694V203.411C179.554 203.037 179.466 202.77 179.29 202.61C179.118 202.451 178.873 202.371 178.558 202.371C178.287 202.371 178.025 202.41 177.771 202.488C177.518 202.566 177.27 202.662 177.029 202.776L176.658 201.966C176.922 201.826 177.221 201.712 177.557 201.624C177.895 201.536 178.247 201.492 178.611 201.492ZM179.549 204.417L178.851 204.441C178.278 204.461 177.876 204.559 177.645 204.734C177.413 204.91 177.298 205.151 177.298 205.457C177.298 205.724 177.378 205.919 177.537 206.043C177.697 206.163 177.907 206.224 178.167 206.224C178.564 206.224 178.893 206.111 179.153 205.887C179.417 205.659 179.549 205.325 179.549 204.886V204.417ZM184.305 206.17C184.454 206.17 184.603 206.157 184.749 206.131C184.896 206.102 185.029 206.067 185.149 206.028V206.897C185.022 206.953 184.858 207 184.656 207.039C184.454 207.078 184.244 207.098 184.026 207.098C183.72 207.098 183.445 207.047 183.201 206.946C182.957 206.842 182.763 206.665 182.62 206.414C182.477 206.163 182.405 205.817 182.405 205.374V202.469H181.668V201.956L182.459 201.551L182.835 200.394H183.558V201.595H185.105V202.469H183.558V205.359C183.558 205.633 183.626 205.836 183.763 205.97C183.899 206.103 184.08 206.17 184.305 206.17ZM188.426 207.098C187.915 207.098 187.472 206.998 187.098 206.8C186.723 206.601 186.435 206.297 186.233 205.887C186.032 205.477 185.931 204.956 185.931 204.324C185.931 203.667 186.041 203.13 186.263 202.713C186.484 202.296 186.79 201.989 187.181 201.79C187.575 201.591 188.025 201.492 188.533 201.492C188.855 201.492 189.147 201.525 189.407 201.59C189.671 201.652 189.894 201.728 190.076 201.819L189.734 202.737C189.536 202.656 189.332 202.588 189.124 202.532C188.916 202.477 188.715 202.449 188.523 202.449C188.208 202.449 187.944 202.519 187.732 202.659C187.524 202.799 187.368 203.007 187.264 203.284C187.163 203.561 187.112 203.904 187.112 204.314C187.112 204.712 187.164 205.047 187.269 205.32C187.373 205.59 187.527 205.796 187.732 205.936C187.938 206.072 188.19 206.141 188.489 206.141C188.785 206.141 189.051 206.105 189.285 206.033C189.52 205.962 189.741 205.869 189.949 205.755V206.751C189.744 206.868 189.524 206.954 189.29 207.01C189.056 207.068 188.768 207.098 188.426 207.098ZM192.366 199.402V201.312C192.366 201.51 192.36 201.704 192.347 201.893C192.337 202.081 192.326 202.228 192.312 202.332H192.376C192.49 202.143 192.63 201.989 192.796 201.868C192.962 201.744 193.147 201.652 193.353 201.59C193.561 201.528 193.782 201.497 194.017 201.497C194.43 201.497 194.782 201.567 195.071 201.707C195.361 201.844 195.582 202.057 195.735 202.347C195.892 202.636 195.97 203.012 195.97 203.475V207H194.822V203.689C194.822 203.27 194.736 202.955 194.563 202.747C194.391 202.535 194.124 202.43 193.763 202.43C193.414 202.43 193.138 202.503 192.933 202.649C192.731 202.793 192.586 203.006 192.498 203.289C192.41 203.569 192.366 203.911 192.366 204.314V207H191.219V199.402H192.366Z" fill="black"/>
<path d="M144.138 179.887C144.138 179.047 144.196 178.22 144.313 177.406C144.437 176.592 144.646 175.831 144.938 175.121C145.231 174.411 145.635 173.786 146.149 173.246C146.67 172.706 147.325 172.283 148.112 171.977C148.9 171.664 149.847 171.508 150.954 171.508C151.241 171.508 151.563 171.521 151.921 171.547C152.279 171.573 152.575 171.615 152.81 171.674V173.578C152.556 173.507 152.276 173.451 151.97 173.412C151.67 173.373 151.371 173.354 151.071 173.354C149.873 173.354 148.939 173.581 148.269 174.037C147.598 174.486 147.119 175.105 146.833 175.893C146.547 176.674 146.381 177.569 146.335 178.578H146.452C146.647 178.253 146.892 177.963 147.185 177.709C147.478 177.455 147.836 177.253 148.259 177.104C148.682 176.947 149.174 176.869 149.733 176.869C150.567 176.869 151.293 177.045 151.911 177.396C152.53 177.742 153.005 178.243 153.337 178.9C153.675 179.558 153.845 180.355 153.845 181.293C153.845 182.302 153.653 183.171 153.269 183.9C152.891 184.63 152.351 185.189 151.647 185.58C150.951 185.971 150.121 186.166 149.157 186.166C148.448 186.166 147.787 186.036 147.175 185.775C146.569 185.515 146.039 185.124 145.583 184.604C145.127 184.083 144.772 183.432 144.519 182.65C144.265 181.863 144.138 180.941 144.138 179.887ZM149.118 184.271C149.86 184.271 150.456 184.031 150.905 183.549C151.361 183.061 151.589 182.315 151.589 181.312C151.589 180.499 151.387 179.854 150.983 179.379C150.586 178.904 149.987 178.666 149.187 178.666C148.64 178.666 148.161 178.783 147.751 179.018C147.341 179.252 147.022 179.548 146.794 179.906C146.573 180.264 146.462 180.629 146.462 181C146.462 181.378 146.517 181.758 146.628 182.143C146.739 182.527 146.905 182.882 147.126 183.207C147.347 183.526 147.624 183.783 147.956 183.979C148.288 184.174 148.675 184.271 149.118 184.271ZM165.231 178.822C165.231 179.975 165.14 181.007 164.958 181.918C164.782 182.823 164.502 183.591 164.118 184.223C163.734 184.854 163.233 185.336 162.614 185.668C161.996 186 161.247 186.166 160.368 186.166C159.268 186.166 158.36 185.876 157.644 185.297C156.927 184.711 156.397 183.871 156.052 182.777C155.707 181.677 155.534 180.359 155.534 178.822C155.534 177.286 155.69 175.971 156.003 174.877C156.322 173.777 156.836 172.934 157.546 172.348C158.256 171.762 159.196 171.469 160.368 171.469C161.475 171.469 162.386 171.762 163.103 172.348C163.825 172.927 164.359 173.767 164.704 174.867C165.056 175.961 165.231 177.279 165.231 178.822ZM157.849 178.822C157.849 180.027 157.927 181.033 158.083 181.84C158.246 182.647 158.513 183.253 158.884 183.656C159.255 184.053 159.75 184.252 160.368 184.252C160.987 184.252 161.481 184.053 161.853 183.656C162.224 183.259 162.491 182.657 162.653 181.85C162.823 181.042 162.907 180.033 162.907 178.822C162.907 177.624 162.826 176.622 162.663 175.814C162.5 175.007 162.233 174.402 161.862 173.998C161.491 173.588 160.993 173.383 160.368 173.383C159.743 173.383 159.245 173.588 158.874 173.998C158.509 174.402 158.246 175.007 158.083 175.814C157.927 176.622 157.849 177.624 157.849 178.822ZM170.056 171.488C171.104 171.488 171.898 171.879 172.438 172.66C172.979 173.435 173.249 174.532 173.249 175.951C173.249 177.364 172.989 178.467 172.468 179.262C171.953 180.056 171.149 180.453 170.056 180.453C169.034 180.453 168.256 180.056 167.722 179.262C167.188 178.467 166.921 177.364 166.921 175.951C166.921 174.532 167.172 173.435 167.673 172.66C168.181 171.879 168.975 171.488 170.056 171.488ZM170.065 173.09C169.642 173.09 169.33 173.327 169.128 173.803C168.933 174.278 168.835 174.997 168.835 175.961C168.835 176.918 168.933 177.641 169.128 178.129C169.33 178.611 169.642 178.852 170.065 178.852C170.495 178.852 170.814 178.611 171.022 178.129C171.237 177.647 171.345 176.924 171.345 175.961C171.345 175.004 171.241 174.288 171.032 173.812C170.824 173.331 170.502 173.09 170.065 173.09ZM179.646 171.693L171.726 185.971H169.841L177.761 171.693H179.646ZM179.382 177.201C180.43 177.201 181.224 177.592 181.765 178.373C182.312 179.148 182.585 180.245 182.585 181.664C182.585 183.07 182.325 184.171 181.804 184.965C181.289 185.759 180.482 186.156 179.382 186.156C178.36 186.156 177.582 185.759 177.048 184.965C176.514 184.171 176.247 183.07 176.247 181.664C176.247 180.245 176.498 179.148 176.999 178.373C177.507 177.592 178.301 177.201 179.382 177.201ZM179.392 178.803C178.968 178.803 178.656 179.04 178.454 179.516C178.259 179.991 178.161 180.71 178.161 181.674C178.161 182.631 178.259 183.354 178.454 183.842C178.656 184.324 178.968 184.564 179.392 184.564C179.828 184.564 180.15 184.327 180.358 183.852C180.567 183.37 180.671 182.644 180.671 181.674C180.671 180.717 180.567 180.001 180.358 179.525C180.15 179.044 179.828 178.803 179.392 178.803Z" fill="#3583CD"/>
<path d="M221.592 186.663H221.241C221.241 187.822 220.772 188.869 220.011 189.63C219.251 190.39 218.205 190.859 217.044 190.859C215.885 190.859 214.838 190.39 214.077 189.63C213.317 188.869 212.848 187.822 212.848 186.663C212.848 185.503 213.317 184.456 214.077 183.696C214.838 182.936 215.885 182.467 217.044 182.467C218.205 182.467 219.251 182.936 220.011 183.696C220.772 184.456 221.241 185.503 221.241 186.663H221.592H221.943C221.943 183.957 219.75 181.764 217.044 181.764C214.339 181.764 212.146 183.957 212.146 186.663C212.146 189.368 214.339 191.562 217.044 191.562C219.75 191.562 221.943 189.368 221.943 186.663H221.592Z" fill="white"/>
<path d="M218.883 190.886L221.41 196.045L222.041 195.736L219.514 190.577" fill="white"/>
<path d="M215.928 183.97C215.912 183.983 215.571 184.251 215.221 184.711C214.873 185.171 214.508 185.832 214.506 186.634C214.502 187.439 214.897 188.337 215.921 189.176C216.07 189.299 216.292 189.278 216.415 189.129C216.539 188.98 216.518 188.757 216.368 188.634C215.46 187.878 215.212 187.21 215.209 186.634C215.207 186.057 215.484 185.525 215.781 185.135C215.928 184.942 216.077 184.786 216.187 184.679L216.318 184.56L216.352 184.531L216.36 184.524C216.514 184.405 216.54 184.184 216.421 184.031C216.301 183.878 216.081 183.851 215.928 183.97Z" fill="white"/>
<path d="M267.987 177.527C239.371 177.527 216.064 154.805 215.125 126.416C215.185 126.544 215.252 126.668 215.325 126.788C216.641 140.913 223.508 153.426 233.726 162.121C242.76 170.382 254.781 175.418 267.987 175.419V177.527ZM217.214 120.828C217.476 107.197 223.104 94.8902 232.077 85.9154C232.616 85.3771 233.165 84.8514 233.727 84.3384C242.956 76.4837 254.918 71.7437 267.987 71.7437V73.8519C253.96 73.8527 241.271 79.5344 232.077 88.7257C223.738 97.0673 218.287 108.286 217.349 120.772C217.303 120.79 217.258 120.809 217.214 120.828Z" fill="#C3CFD3"/>
<path d="M267.988 172.608C253.961 172.607 241.271 166.926 232.078 157.734C222.886 148.541 217.205 135.851 217.204 121.824C217.205 107.798 222.886 95.108 232.078 85.9153C241.271 76.7234 253.96 71.0416 267.988 71.0409V68.9327C238.775 68.9334 215.096 92.6125 215.096 121.824C215.096 151.036 238.775 174.716 267.988 174.716V172.608Z" fill="#121429"/>
<path d="M267.994 177.176C267.992 177.176 267.989 177.176 267.987 177.176V170.149C281.342 170.147 293.401 164.745 302.157 155.995C306.823 151.326 310.536 145.72 312.987 139.477C314.973 140.677 317.218 141.489 319.619 141.809C316.812 149.06 312.522 155.572 307.126 160.965C297.122 170.974 283.265 177.176 267.994 177.176ZM314.576 108.944C312.325 100.778 307.983 93.485 302.157 87.6543C293.401 78.9043 281.342 73.5023 267.987 73.5009V66.4734C283.261 66.4713 297.121 72.6744 307.126 82.6851C313.849 89.4041 318.854 97.861 321.416 107.317C318.977 107.388 316.663 107.964 314.576 108.944Z" fill="url(#paint6_linear_131_1764)"/>
<path d="M321.933 141.962C321.148 141.962 320.376 141.91 319.619 141.809C322.021 135.608 323.339 128.866 323.338 121.825C323.339 116.807 322.67 111.943 321.416 107.316C321.588 107.311 321.76 107.309 321.933 107.309C331.503 107.309 339.26 115.066 339.26 124.636C339.26 134.205 331.503 141.962 321.933 141.962ZM312.987 139.477C307.965 136.443 304.606 130.932 304.606 124.636C304.606 117.697 308.685 111.711 314.576 108.944C315.706 113.042 316.31 117.361 316.311 121.825C316.31 128.059 315.132 134.012 312.987 139.477Z" fill="#B9BCBD"/>
<path d="M319.619 141.809C317.218 141.489 314.972 140.676 312.986 139.477C315.132 134.012 316.31 128.059 316.31 121.824C316.31 117.361 315.706 113.042 314.576 108.944C316.662 107.964 318.977 107.388 321.416 107.316C322.67 111.942 323.339 116.807 323.338 121.824C323.339 128.866 322.021 135.608 319.619 141.809Z" fill="url(#paint7_linear_131_1764)"/>
<path d="M302.497 121.825C302.497 112.255 310.255 104.498 319.823 104.498C329.393 104.498 337.15 112.255 337.15 121.825C337.15 131.394 329.393 139.151 319.823 139.151C310.255 139.151 302.497 131.394 302.497 121.825Z" fill="white"/>
<path d="M307.132 121.825C307.132 114.814 312.814 109.132 319.824 109.132C326.835 109.132 332.518 114.814 332.518 121.825C332.518 128.835 326.835 134.519 319.824 134.519C312.814 134.519 307.132 128.835 307.132 121.825Z" fill="url(#paint8_linear_131_1764)"/>
<path d="M243.677 136.079C243.677 136.502 243.573 136.867 243.364 137.173C243.159 137.479 242.863 137.713 242.476 137.876C242.091 138.039 241.632 138.12 241.099 138.12C240.838 138.12 240.589 138.105 240.352 138.076C240.114 138.047 239.889 138.005 239.678 137.949C239.469 137.891 239.279 137.821 239.106 137.739V136.636C239.396 136.763 239.72 136.878 240.078 136.982C240.436 137.083 240.801 137.134 241.172 137.134C241.475 137.134 241.725 137.095 241.924 137.017C242.126 136.935 242.275 136.821 242.373 136.675C242.471 136.525 242.52 136.351 242.52 136.152C242.52 135.941 242.463 135.762 242.349 135.615C242.235 135.469 242.062 135.335 241.831 135.215C241.603 135.091 241.317 134.959 240.972 134.819C240.737 134.725 240.513 134.618 240.298 134.497C240.086 134.377 239.897 134.235 239.731 134.072C239.565 133.91 239.434 133.717 239.336 133.496C239.242 133.271 239.194 133.008 239.194 132.705C239.194 132.301 239.29 131.956 239.482 131.67C239.678 131.383 239.951 131.164 240.303 131.011C240.658 130.858 241.071 130.781 241.543 130.781C241.917 130.781 242.269 130.82 242.598 130.898C242.93 130.977 243.255 131.087 243.574 131.23L243.203 132.173C242.91 132.052 242.625 131.956 242.349 131.885C242.075 131.813 241.795 131.777 241.509 131.777C241.261 131.777 241.051 131.815 240.879 131.89C240.706 131.965 240.575 132.07 240.483 132.207C240.396 132.34 240.352 132.5 240.352 132.686C240.352 132.894 240.402 133.07 240.503 133.213C240.607 133.353 240.767 133.481 240.981 133.599C241.2 133.716 241.479 133.846 241.821 133.989C242.215 134.152 242.549 134.323 242.822 134.502C243.099 134.681 243.311 134.896 243.457 135.146C243.604 135.394 243.677 135.705 243.677 136.079ZM246.084 130.425V134.097C246.084 134.263 246.077 134.445 246.064 134.644C246.051 134.839 246.038 135.023 246.025 135.195H246.05C246.134 135.081 246.235 134.948 246.353 134.795C246.473 134.642 246.587 134.508 246.694 134.395L248.345 132.617H249.663L247.5 134.941L249.805 138.022H248.457L246.729 135.649L246.084 136.201V138.022H244.937V130.425H246.084ZM251.816 132.617V138.022H250.669V132.617H251.816ZM251.25 130.547C251.426 130.547 251.577 130.594 251.704 130.688C251.834 130.783 251.899 130.946 251.899 131.177C251.899 131.405 251.834 131.567 251.704 131.665C251.577 131.759 251.426 131.807 251.25 131.807C251.068 131.807 250.913 131.759 250.786 131.665C250.662 131.567 250.601 131.405 250.601 131.177C250.601 130.946 250.662 130.783 250.786 130.688C250.913 130.594 251.068 130.547 251.25 130.547ZM254.614 138.022H253.462V130.425H254.614V138.022ZM257.407 138.022H256.255V130.425H257.407V138.022ZM267.754 132.515C268.359 132.515 268.815 132.671 269.121 132.983C269.43 133.296 269.585 133.797 269.585 134.487V138.022H268.438V134.692C268.438 134.282 268.358 133.973 268.198 133.765C268.039 133.556 267.796 133.452 267.471 133.452C267.015 133.452 266.686 133.599 266.484 133.892C266.286 134.181 266.187 134.603 266.187 135.156V138.022H265.039V134.692C265.039 134.419 265.003 134.191 264.932 134.009C264.863 133.823 264.757 133.685 264.614 133.594C264.471 133.499 264.29 133.452 264.072 133.452C263.757 133.452 263.504 133.524 263.315 133.667C263.13 133.81 262.996 134.022 262.915 134.302C262.834 134.578 262.793 134.919 262.793 135.322V138.022H261.646V132.617H262.539L262.7 133.345H262.764C262.874 133.156 263.011 133.001 263.174 132.881C263.34 132.757 263.524 132.666 263.726 132.607C263.927 132.546 264.137 132.515 264.355 132.515C264.759 132.515 265.099 132.586 265.376 132.729C265.653 132.869 265.859 133.084 265.996 133.374H266.084C266.253 133.081 266.489 132.865 266.792 132.725C267.095 132.585 267.415 132.515 267.754 132.515ZM273.306 132.515C273.989 132.515 274.505 132.666 274.854 132.969C275.205 133.271 275.381 133.743 275.381 134.385V138.022H274.565L274.346 137.256H274.307C274.154 137.451 273.996 137.612 273.833 137.739C273.67 137.866 273.481 137.961 273.267 138.022C273.055 138.088 272.796 138.12 272.49 138.12C272.168 138.12 271.88 138.062 271.626 137.944C271.372 137.824 271.172 137.642 271.025 137.397C270.879 137.153 270.806 136.844 270.806 136.47C270.806 135.913 271.012 135.495 271.426 135.215C271.842 134.935 272.471 134.78 273.311 134.751L274.248 134.717V134.434C274.248 134.059 274.16 133.792 273.984 133.633C273.812 133.473 273.568 133.394 273.252 133.394C272.982 133.394 272.72 133.433 272.466 133.511C272.212 133.589 271.965 133.685 271.724 133.799L271.353 132.988C271.616 132.848 271.916 132.734 272.251 132.646C272.59 132.559 272.941 132.515 273.306 132.515ZM274.243 135.439L273.545 135.464C272.972 135.483 272.57 135.581 272.339 135.757C272.108 135.933 271.992 136.174 271.992 136.479C271.992 136.746 272.072 136.942 272.231 137.065C272.391 137.186 272.601 137.246 272.861 137.246C273.258 137.246 273.587 137.134 273.848 136.909C274.111 136.681 274.243 136.348 274.243 135.908V135.439ZM278.999 137.192C279.149 137.192 279.297 137.179 279.443 137.153C279.59 137.124 279.723 137.09 279.844 137.051V137.92C279.717 137.975 279.552 138.022 279.351 138.062C279.149 138.101 278.939 138.12 278.721 138.12C278.415 138.12 278.14 138.07 277.896 137.969C277.651 137.865 277.458 137.687 277.314 137.437C277.171 137.186 277.1 136.839 277.1 136.396V133.491H276.362V132.979L277.153 132.573L277.529 131.416H278.252V132.617H279.8V133.491H278.252V136.382C278.252 136.655 278.32 136.859 278.457 136.992C278.594 137.126 278.774 137.192 278.999 137.192ZM283.12 138.12C282.609 138.12 282.166 138.021 281.792 137.822C281.418 137.624 281.13 137.319 280.928 136.909C280.726 136.499 280.625 135.978 280.625 135.347C280.625 134.689 280.736 134.152 280.957 133.735C281.178 133.319 281.484 133.011 281.875 132.812C282.269 132.614 282.72 132.515 283.228 132.515C283.55 132.515 283.841 132.547 284.102 132.612C284.365 132.674 284.588 132.751 284.771 132.842L284.429 133.76C284.23 133.678 284.027 133.61 283.818 133.555C283.61 133.499 283.41 133.472 283.218 133.472C282.902 133.472 282.638 133.542 282.427 133.682C282.218 133.822 282.062 134.03 281.958 134.307C281.857 134.583 281.807 134.927 281.807 135.337C281.807 135.734 281.859 136.069 281.963 136.343C282.067 136.613 282.222 136.818 282.427 136.958C282.632 137.095 282.884 137.163 283.184 137.163C283.48 137.163 283.745 137.127 283.979 137.056C284.214 136.984 284.435 136.891 284.644 136.777V137.773C284.438 137.891 284.219 137.977 283.984 138.032C283.75 138.091 283.462 138.12 283.12 138.12ZM287.061 130.425V132.334C287.061 132.533 287.054 132.726 287.041 132.915C287.031 133.104 287.02 133.25 287.007 133.354H287.07C287.184 133.166 287.324 133.011 287.49 132.891C287.656 132.767 287.842 132.674 288.047 132.612C288.255 132.55 288.477 132.52 288.711 132.52C289.124 132.52 289.476 132.59 289.766 132.729C290.055 132.866 290.277 133.079 290.43 133.369C290.586 133.659 290.664 134.035 290.664 134.497V138.022H289.517V134.712C289.517 134.292 289.43 133.978 289.258 133.77C289.085 133.558 288.818 133.452 288.457 133.452C288.109 133.452 287.832 133.525 287.627 133.672C287.425 133.815 287.28 134.028 287.192 134.312C287.104 134.591 287.061 134.933 287.061 135.337V138.022H285.913V130.425H287.061Z" fill="black"/>
<path d="M247.473 121.669L253.078 109.403H245.666V107.392H255.549V108.964L249.943 121.669H247.473ZM266.955 114.521C266.955 115.673 266.864 116.705 266.682 117.616C266.506 118.521 266.226 119.289 265.842 119.921C265.458 120.552 264.956 121.034 264.338 121.366C263.719 121.698 262.971 121.864 262.092 121.864C260.992 121.864 260.083 121.575 259.367 120.995C258.651 120.409 258.12 119.569 257.775 118.476C257.43 117.375 257.258 116.057 257.258 114.521C257.258 112.984 257.414 111.669 257.727 110.575C258.046 109.475 258.56 108.632 259.27 108.046C259.979 107.46 260.92 107.167 262.092 107.167C263.199 107.167 264.11 107.46 264.826 108.046C265.549 108.625 266.083 109.465 266.428 110.565C266.779 111.659 266.955 112.978 266.955 114.521ZM259.572 114.521C259.572 115.725 259.65 116.731 259.807 117.538C259.969 118.345 260.236 118.951 260.607 119.354C260.979 119.752 261.473 119.95 262.092 119.95C262.71 119.95 263.205 119.752 263.576 119.354C263.947 118.957 264.214 118.355 264.377 117.548C264.546 116.741 264.631 115.731 264.631 114.521C264.631 113.323 264.549 112.32 264.387 111.513C264.224 110.705 263.957 110.1 263.586 109.696C263.215 109.286 262.717 109.081 262.092 109.081C261.467 109.081 260.969 109.286 260.598 109.696C260.233 110.1 259.969 110.705 259.807 111.513C259.65 112.32 259.572 113.323 259.572 114.521ZM271.779 107.187C272.827 107.187 273.622 107.577 274.162 108.358C274.702 109.133 274.973 110.23 274.973 111.649C274.973 113.062 274.712 114.166 274.191 114.96C273.677 115.754 272.873 116.151 271.779 116.151C270.757 116.151 269.979 115.754 269.445 114.96C268.911 114.166 268.645 113.062 268.645 111.649C268.645 110.23 268.895 109.133 269.396 108.358C269.904 107.577 270.699 107.187 271.779 107.187ZM271.789 108.788C271.366 108.788 271.053 109.026 270.852 109.501C270.656 109.976 270.559 110.696 270.559 111.659C270.559 112.616 270.656 113.339 270.852 113.827C271.053 114.309 271.366 114.55 271.789 114.55C272.219 114.55 272.538 114.309 272.746 113.827C272.961 113.345 273.068 112.623 273.068 111.659C273.068 110.702 272.964 109.986 272.756 109.511C272.548 109.029 272.225 108.788 271.789 108.788ZM281.369 107.392L273.449 121.669H271.564L279.484 107.392H281.369ZM281.105 112.899C282.154 112.899 282.948 113.29 283.488 114.071C284.035 114.846 284.309 115.943 284.309 117.362C284.309 118.769 284.048 119.869 283.527 120.663C283.013 121.457 282.206 121.854 281.105 121.854C280.083 121.854 279.305 121.457 278.771 120.663C278.238 119.869 277.971 118.769 277.971 117.362C277.971 115.943 278.221 114.846 278.723 114.071C279.23 113.29 280.025 112.899 281.105 112.899ZM281.115 114.501C280.692 114.501 280.38 114.739 280.178 115.214C279.982 115.689 279.885 116.409 279.885 117.372C279.885 118.329 279.982 119.052 280.178 119.54C280.38 120.022 280.692 120.263 281.115 120.263C281.551 120.263 281.874 120.025 282.082 119.55C282.29 119.068 282.395 118.342 282.395 117.372C282.395 116.415 282.29 115.699 282.082 115.224C281.874 114.742 281.551 114.501 281.115 114.501Z" fill="#F79019"/>
<path d="M96.9969 94.1377L119.28 78.6526L118.479 77.4987L96.1943 92.9838L96.9969 94.1377Z" fill="#121429"/>
<path d="M120.223 84.9712C118.293 84.6121 116.833 82.9199 116.833 80.8868C116.833 80.6971 116.846 80.5108 116.87 80.3281L117.568 79.8425C118.361 81.6064 119.248 83.3169 120.223 84.9712ZM123.832 83.9157C122.318 81.695 120.977 79.3506 119.826 76.8966C120.195 76.7898 120.584 76.7321 120.988 76.7321C123.282 76.7321 125.142 78.5923 125.142 80.8868C125.142 82.0808 124.638 83.1574 123.832 83.9157Z" fill="#B9BCBD"/>
<path d="M120.988 85.0415C120.727 85.0415 120.471 85.0176 120.223 84.9712C119.248 83.317 118.362 81.6065 117.568 79.8426L118.575 79.1433C119.587 81.1476 120.721 83.0773 121.969 84.9248C121.654 85.0014 121.326 85.0415 120.988 85.0415Z" fill="#949EA3"/>
<path d="M121.969 84.9248C120.721 83.0773 119.587 81.1475 118.576 79.1433L119.28 78.6528L118.514 77.5487C118.904 77.2592 119.348 77.0357 119.826 76.8966C120.977 79.3506 122.318 81.695 123.832 83.9157C123.317 84.3992 122.679 84.7533 121.969 84.9248Z" fill="#0C0F1D"/>
<path d="M116.87 80.3281C117.023 79.1918 117.635 78.2009 118.513 77.5487L119.28 78.6528L118.575 79.1433L117.568 79.8425L116.87 80.3281Z" fill="#0C0F1D"/>
<path d="M114.725 78.0758C114.725 80.3703 116.584 82.2305 118.879 82.2305C121.174 82.2305 123.033 80.3703 123.033 78.0758C123.033 75.7813 121.174 73.9211 118.879 73.9211C116.584 73.9211 114.725 75.7813 114.725 78.0758Z" fill="url(#paint9_linear_131_1764)"/>
<path d="M96.1943 150.665L118.479 166.15L119.28 164.996L96.9969 149.511L96.1943 150.665Z" fill="#121429"/>
<path d="M120.988 172.54C120.183 172.54 119.432 172.311 118.795 171.915C119.846 169.341 121.103 166.874 122.544 164.532C124.067 165.148 125.142 166.641 125.142 168.385C125.142 170.679 123.282 172.54 120.988 172.54ZM116.833 168.332C116.846 167.327 117.215 166.407 117.822 165.695L117.952 165.785C117.557 166.623 117.184 167.471 116.833 168.332Z" fill="#B9BCBD"/>
<path d="M118.795 171.915C118.494 171.727 118.219 171.503 117.977 171.247C118.842 168.818 119.887 166.474 121.097 164.231C121.608 164.245 122.095 164.35 122.544 164.531C121.103 166.874 119.847 169.341 118.795 171.915Z" fill="#949EA3"/>
<path d="M117.976 171.247C117.267 170.501 116.833 169.494 116.833 168.385C116.833 168.367 116.833 168.35 116.833 168.332C117.184 167.47 117.557 166.623 117.952 165.785L118.478 166.151L119.28 164.997L118.947 164.765C119.55 164.424 120.246 164.23 120.988 164.23C121.024 164.23 121.06 164.23 121.097 164.232C119.887 166.474 118.841 168.818 117.976 171.247Z" fill="#0C0F1D"/>
<path d="M118.479 166.15L117.952 165.784L117.822 165.694C118.139 165.322 118.519 165.006 118.947 164.765L119.28 164.996L118.479 166.15Z" fill="#0C0F1D"/>
<path d="M114.725 165.574C114.725 163.279 116.584 161.419 118.879 161.419C121.174 161.419 123.033 163.279 123.033 165.574C123.033 167.868 121.174 169.729 118.879 169.729C116.584 169.729 114.725 167.868 114.725 165.574Z" fill="url(#paint10_linear_131_1764)"/>
<path d="M218.879 128.79C218.451 128.79 218.039 128.725 217.652 128.606C217.417 126.841 217.271 125.047 217.222 123.23C217.245 122.406 217.287 121.585 217.348 120.772C217.822 120.584 218.338 120.481 218.879 120.481C221.173 120.481 223.033 122.341 223.033 124.635C223.033 126.93 221.173 128.79 218.879 128.79ZM215.124 126.416C214.868 125.876 214.725 125.273 214.725 124.635C214.725 124.013 214.861 123.424 215.105 122.895C215.108 123.006 215.11 123.118 215.113 123.23C215.101 123.698 215.095 124.165 215.095 124.635C215.095 125.231 215.105 125.826 215.124 126.416Z" fill="#B9BCBD"/>
<path d="M215.326 126.788C215.252 126.668 215.186 126.544 215.125 126.416C215.106 125.826 215.096 125.231 215.096 124.636C215.096 124.165 215.102 123.698 215.114 123.23C215.146 124.426 215.217 125.613 215.326 126.788ZM217.223 123.23C217.21 122.763 217.204 122.295 217.204 121.825C217.204 121.491 217.207 121.16 217.214 120.828C217.258 120.809 217.303 120.79 217.349 120.772C217.288 121.586 217.245 122.406 217.223 123.23Z" fill="#949EA3"/>
<path d="M217.652 128.606C216.672 128.304 215.847 127.649 215.325 126.788C215.216 125.613 215.145 124.426 215.113 123.23C215.11 123.119 215.108 123.007 215.105 122.895C215.531 121.975 216.283 121.236 217.213 120.828C217.206 121.16 217.203 121.492 217.203 121.825C217.203 122.295 217.21 122.764 217.222 123.23C217.271 125.048 217.417 126.842 217.652 128.606Z" fill="#0C0F1D"/>
<path d="M212.617 121.825C212.617 124.119 214.477 125.979 216.771 125.979C219.066 125.979 220.926 124.119 220.926 121.825C220.926 119.53 219.066 117.67 216.771 117.67C214.477 117.67 212.617 119.53 212.617 121.825Z" fill="url(#paint11_linear_131_1764)"/>
<path d="M119.579 123.404C118.707 156.419 91.2362 182.476 58.2209 181.604C25.2064 180.732 -0.850176 153.26 0.021235 120.247C0.893349 87.2313 28.3639 61.1741 61.3791 62.0469C94.3936 62.9183 120.45 90.3895 119.579 123.404Z" fill="white"/>
<path d="M326.097 119.164H325.746C325.746 120.723 325.115 122.13 324.093 123.152C323.072 124.173 321.664 124.804 320.106 124.804C318.547 124.804 317.14 124.173 316.119 123.152C315.097 122.13 314.467 120.723 314.466 119.164C314.467 117.605 315.097 116.198 316.119 115.176C317.14 114.155 318.547 113.524 320.106 113.524C321.664 113.524 323.072 114.155 324.093 115.176C325.115 116.198 325.746 117.605 325.746 119.164H326.097H326.448C326.448 115.661 323.609 112.822 320.106 112.822C316.603 112.822 313.764 115.662 313.764 119.164C313.764 122.667 316.603 125.506 320.106 125.506C323.609 125.506 326.448 122.667 326.448 119.164H326.097Z" fill="white"/>
<path d="M322.538 124.392L322.069 128.398H318.278L317.672 124.38L316.977 124.485L317.673 129.101H322.695L323.236 124.473L322.538 124.392Z" fill="white"/>
<path d="M318.129 116.555C318.114 116.568 317.772 116.836 317.422 117.296C317.075 117.756 316.709 118.417 316.707 119.219C316.704 120.024 317.099 120.922 318.122 121.761C318.271 121.885 318.493 121.864 318.616 121.714C318.74 121.564 318.719 121.343 318.569 121.219C317.661 120.463 317.414 119.795 317.41 119.219C317.408 118.642 317.686 118.11 317.982 117.72C318.129 117.526 318.278 117.37 318.388 117.264L318.519 117.145L318.554 117.116L318.562 117.109C318.715 116.99 318.742 116.768 318.623 116.616C318.503 116.462 318.282 116.436 318.129 116.555Z" fill="white"/>
<path d="M318.069 131.541H322.477V130.838H318.069V131.541Z" fill="white"/>
<path d="M59.8011 179.442C29.9194 179.442 5.69629 155.219 5.69629 125.339C5.69629 124.751 5.70612 124.164 5.72439 123.582C6.65062 152.65 30.5069 175.928 59.8011 175.928C89.0938 175.928 112.95 152.65 113.876 123.582C113.895 124.164 113.904 124.751 113.904 125.339C113.904 155.219 89.6813 179.442 59.8011 179.442Z" fill="#CAD5D7"/>
<path d="M113.904 121.825C113.904 151.705 89.6813 175.928 59.8011 175.928C29.9194 175.928 5.69629 151.705 5.69629 121.825C5.69629 91.9439 29.9194 67.7208 59.8011 67.7208C89.6813 67.7208 113.904 91.9439 113.904 121.825Z" fill="white"/>
<path d="M108.617 121.825C108.617 148.785 86.7613 170.641 59.8009 170.641C32.8399 170.641 10.9844 148.785 10.9844 121.825C10.9844 94.8642 32.8399 73.0087 59.8009 73.0087C86.7613 73.0087 108.617 94.8642 108.617 121.825Z" fill="url(#paint12_radial_131_1764)"/>
<path d="M60.2078 101.196C66.3948 101.196 71.9949 103.705 76.0454 107.759C80.0996 111.813 82.608 117.413 82.608 123.596C82.608 129.783 80.0996 135.384 76.0454 139.434C71.9912 143.488 66.3912 145.997 60.2078 145.997C54.0244 145.997 48.4207 143.488 44.3702 139.434C40.316 135.384 37.8076 129.783 37.8076 123.596C37.8076 117.409 40.316 111.809 44.3702 107.759C48.4207 103.705 54.0208 101.196 60.2078 101.196ZM54.7572 132.926C56.9447 137.487 63.5766 137.648 65.6729 132.952C65.1005 132.372 64.6776 131.756 64.2584 131.14C64.1891 131.038 64.1198 130.939 64.0505 130.837C63.0406 131.639 61.812 132.15 60.2114 132.146C58.4869 132.142 57.189 131.482 56.1244 130.509C56.0625 130.451 55.9968 130.392 55.9348 130.33C55.7817 130.753 55.5885 131.26 55.3807 131.734C55.1802 132.19 54.965 132.616 54.7572 132.926ZM71.5902 140.51L72.086 135.23C70.2521 134.873 68.287 134.487 66.2563 133.316C64.736 138.38 56.5656 138.982 54.265 133.448C52.4421 134.366 50.5864 134.891 48.4718 135.216L49.19 140.747C52.3655 142.792 56.15 143.98 60.2114 143.98C64.4224 143.98 68.3381 142.701 71.5902 140.51ZM43.8452 135.755L43.9327 135.704C46.1056 134.494 51.7603 134.093 54.1083 132.456C54.2796 132.197 54.4656 131.822 54.6442 131.413C54.914 130.797 55.1583 130.126 55.315 129.667C54.6588 128.894 54.0973 128.023 53.5577 127.162L51.7786 124.333C51.1296 123.363 50.7905 122.477 50.7687 121.748C50.7577 121.405 50.8161 121.095 50.9437 120.822C51.0749 120.534 51.2791 120.297 51.5562 120.111C51.6838 120.024 51.8296 119.951 51.9864 119.892C51.8697 118.357 51.8296 116.425 51.9025 114.806C51.939 114.423 52.0155 114.037 52.1213 113.654C52.577 112.032 53.7145 110.723 55.1255 109.826C55.902 109.33 56.7552 108.958 57.6448 108.707C58.2099 108.546 57.1635 106.742 57.7468 106.68C60.5724 106.388 65.1406 108.969 67.1131 111.102C68.1011 112.17 68.7209 113.589 68.8558 115.463L68.7464 120.078C69.2386 120.228 69.5558 120.541 69.6834 121.048C69.8256 121.609 69.6725 122.401 69.1948 123.476C69.1876 123.494 69.1766 123.516 69.1657 123.534L67.1386 126.874C66.3948 128.099 65.6365 129.331 64.6521 130.301C64.7396 130.429 64.8308 130.556 64.9183 130.688C65.3193 131.275 65.724 131.865 66.2417 132.39C66.2599 132.409 66.2745 132.427 66.2854 132.445C68.6188 134.093 74.2991 134.494 76.4793 135.708L76.5668 135.759C79.0934 132.365 80.5882 128.157 80.5882 123.6C80.5882 117.971 78.3059 112.874 74.6162 109.188C70.9339 105.495 65.837 103.212 60.2078 103.212C54.5786 103.212 49.4817 105.495 45.7957 109.184C42.1061 112.87 39.8238 117.967 39.8238 123.596C39.8238 128.154 41.3186 132.361 43.8452 135.755ZM53.0145 120.716C52.6208 120.731 52.3218 120.815 52.1176 120.95C52.001 121.026 51.9171 121.128 51.8624 121.245C51.8004 121.376 51.7749 121.537 51.7786 121.722C51.7931 122.262 52.0775 122.969 52.6244 123.786L52.6317 123.797L54.4109 126.626C55.1255 127.76 55.8729 128.916 56.8026 129.765C57.6958 130.582 58.7786 131.136 60.2151 131.14C61.7682 131.143 62.9021 130.567 63.8245 129.707C64.7834 128.81 65.538 127.581 66.2854 126.353L68.2907 123.053C68.6626 122.2 68.8011 121.631 68.7136 121.296C68.6625 121.095 68.4438 121.001 68.0683 120.979C67.9881 120.975 67.9079 120.975 67.824 120.975C67.7365 120.979 67.6417 120.982 67.5433 120.993C67.4886 120.997 67.4375 120.993 67.3901 120.982C67.2115 120.993 67.0292 120.979 66.8396 120.953L67.525 117.916C62.4354 118.718 58.6255 114.938 53.2442 117.162L53.6307 120.742C53.4083 120.753 53.2041 120.745 53.0145 120.716Z" fill="white"/>
<defs>
<linearGradient id="paint0_linear_131_1764" x1="165.827" y1="55.3517" x2="221.179" y2="55.3517" gradientUnits="userSpaceOnUse">
<stop stop-color="#EE2646"/>
<stop offset="0.00372263" stop-color="#EE2646"/>
<stop offset="0.992551" stop-color="#EA0986"/>
<stop offset="1" stop-color="#EA0986"/>
</linearGradient>
<linearGradient id="paint1_linear_131_1764" x1="165.827" y1="55.3516" x2="221.179" y2="55.3516" gradientUnits="userSpaceOnUse">
<stop stop-color="#ED1C2F"/>
<stop offset="0.00372263" stop-color="#ED1C2F"/>
<stop offset="0.992551" stop-color="#B10F66"/>
<stop offset="1" stop-color="#B10F66"/>
</linearGradient>
<linearGradient id="paint2_linear_131_1764" x1="204.971" y1="55.3514" x2="230.357" y2="55.3514" gradientUnits="userSpaceOnUse">
<stop stop-color="#EE2646"/>
<stop offset="0.00372263" stop-color="#EE2646"/>
<stop offset="0.992551" stop-color="#EA0986"/>
<stop offset="1" stop-color="#EA0986"/>
</linearGradient>
<linearGradient id="paint3_linear_131_1764" x1="165.827" y1="188.298" x2="221.179" y2="188.298" gradientUnits="userSpaceOnUse">
<stop stop-color="#43C0F2"/>
<stop offset="0.011172" stop-color="#43C0F2"/>
<stop offset="0.992551" stop-color="#3058AF"/>
<stop offset="1" stop-color="#3058AF"/>
</linearGradient>
<linearGradient id="paint4_linear_131_1764" x1="165.827" y1="188.298" x2="221.179" y2="188.298" gradientUnits="userSpaceOnUse">
<stop stop-color="#3693BF"/>
<stop offset="0.011172" stop-color="#3693BF"/>
<stop offset="0.992551" stop-color="#234889"/>
<stop offset="1" stop-color="#234889"/>
</linearGradient>
<linearGradient id="paint5_linear_131_1764" x1="204.971" y1="188.298" x2="230.357" y2="188.298" gradientUnits="userSpaceOnUse">
<stop stop-color="#43C0F2"/>
<stop offset="0.011172" stop-color="#43C0F2"/>
<stop offset="0.992551" stop-color="#3058AF"/>
<stop offset="1" stop-color="#3058AF"/>
</linearGradient>
<linearGradient id="paint6_linear_131_1764" x1="267.987" y1="121.825" x2="323.339" y2="121.825" gradientUnits="userSpaceOnUse">
<stop stop-color="#F25132"/>
<stop offset="0.245091" stop-color="#F25132"/>
<stop offset="1" stop-color="#F6881F"/>
</linearGradient>
<linearGradient id="paint7_linear_131_1764" x1="267.987" y1="121.824" x2="323.339" y2="121.824" gradientUnits="userSpaceOnUse">
<stop stop-color="#DF421F"/>
<stop offset="0.245091" stop-color="#DF421F"/>
<stop offset="1" stop-color="#D5701A"/>
</linearGradient>
<linearGradient id="paint8_linear_131_1764" x1="307.132" y1="121.825" x2="332.518" y2="121.825" gradientUnits="userSpaceOnUse">
<stop stop-color="#F25132"/>
<stop offset="0.245091" stop-color="#F25132"/>
<stop offset="1" stop-color="#F6881F"/>
</linearGradient>
<linearGradient id="paint9_linear_131_1764" x1="114.725" y1="78.0758" x2="123.034" y2="78.0758" gradientUnits="userSpaceOnUse">
<stop stop-color="#EE2646"/>
<stop offset="0.00372263" stop-color="#EE2646"/>
<stop offset="0.992551" stop-color="#EA0986"/>
<stop offset="1" stop-color="#EA0986"/>
</linearGradient>
<linearGradient id="paint10_linear_131_1764" x1="114.725" y1="165.574" x2="123.034" y2="165.574" gradientUnits="userSpaceOnUse">
<stop stop-color="#43C0F2"/>
<stop offset="0.011172" stop-color="#43C0F2"/>
<stop offset="0.992551" stop-color="#3058AF"/>
<stop offset="1" stop-color="#3058AF"/>
</linearGradient>
<linearGradient id="paint11_linear_131_1764" x1="212.616" y1="121.825" x2="220.926" y2="121.825" gradientUnits="userSpaceOnUse">
<stop stop-color="#F25132"/>
<stop offset="0.245091" stop-color="#F25132"/>
<stop offset="1" stop-color="#F6881F"/>
</linearGradient>
<radialGradient id="paint12_radial_131_1764" cx="0" cy="0" r="1" gradientUnits="userSpaceOnUse" gradientTransform="translate(59.8006 121.825) rotate(-90) scale(48.8162 48.8162)">
<stop stop-color="#0013DE" stop-opacity="0"/>
<stop offset="1" stop-color="#000965"/>
</radialGradient>
</defs>
</svg>
