<svg width="750" height="600" viewBox="0 0 750 600" fill="none" xmlns="http://www.w3.org/2000/svg">
<path d="M256.695 308.534H473.222V305.626H256.695V308.534Z" fill="#121429"/>
<path d="M326.117 205.113C326.117 205.96 325.909 206.689 325.492 207.301C325.082 207.913 324.49 208.382 323.715 208.707C322.947 209.033 322.029 209.195 320.961 209.195C320.44 209.195 319.942 209.166 319.467 209.107C318.992 209.049 318.542 208.964 318.119 208.854C317.702 208.736 317.322 208.596 316.977 208.434V206.227C317.556 206.48 318.204 206.712 318.92 206.92C319.636 207.122 320.365 207.223 321.107 207.223C321.713 207.223 322.214 207.145 322.611 206.988C323.015 206.826 323.314 206.598 323.51 206.305C323.705 206.005 323.803 205.657 323.803 205.26C323.803 204.837 323.689 204.479 323.461 204.186C323.233 203.893 322.888 203.626 322.426 203.385C321.97 203.137 321.397 202.874 320.707 202.594C320.238 202.405 319.789 202.19 319.359 201.949C318.936 201.708 318.559 201.425 318.227 201.1C317.895 200.774 317.631 200.39 317.436 199.947C317.247 199.498 317.152 198.971 317.152 198.365C317.152 197.558 317.344 196.868 317.729 196.295C318.119 195.722 318.666 195.283 319.369 194.977C320.079 194.671 320.906 194.518 321.85 194.518C322.598 194.518 323.301 194.596 323.959 194.752C324.623 194.908 325.274 195.13 325.912 195.416L325.17 197.301C324.584 197.06 324.014 196.868 323.461 196.725C322.914 196.581 322.354 196.51 321.781 196.51C321.286 196.51 320.867 196.585 320.521 196.734C320.176 196.884 319.913 197.096 319.73 197.369C319.555 197.636 319.467 197.955 319.467 198.326C319.467 198.743 319.568 199.094 319.77 199.381C319.978 199.661 320.297 199.918 320.727 200.152C321.163 200.387 321.723 200.647 322.406 200.934C323.194 201.259 323.861 201.601 324.408 201.959C324.962 202.317 325.385 202.747 325.678 203.248C325.971 203.743 326.117 204.365 326.117 205.113ZM332.992 209.195C331.97 209.195 331.085 208.997 330.336 208.6C329.587 208.202 329.011 207.594 328.607 206.773C328.204 205.953 328.002 204.911 328.002 203.648C328.002 202.333 328.223 201.259 328.666 200.426C329.109 199.592 329.721 198.977 330.502 198.58C331.29 198.183 332.191 197.984 333.207 197.984C333.852 197.984 334.434 198.049 334.955 198.18C335.482 198.303 335.928 198.456 336.293 198.639L335.609 200.475C335.212 200.312 334.805 200.175 334.389 200.064C333.972 199.954 333.572 199.898 333.188 199.898C332.556 199.898 332.029 200.038 331.605 200.318C331.189 200.598 330.876 201.015 330.668 201.568C330.466 202.122 330.365 202.809 330.365 203.629C330.365 204.423 330.469 205.094 330.678 205.641C330.886 206.181 331.195 206.591 331.605 206.871C332.016 207.145 332.52 207.281 333.119 207.281C333.712 207.281 334.242 207.21 334.711 207.066C335.18 206.923 335.622 206.738 336.039 206.51V208.502C335.629 208.736 335.189 208.909 334.721 209.02C334.252 209.137 333.676 209.195 332.992 209.195ZM344.057 197.984C344.239 197.984 344.438 197.994 344.652 198.014C344.867 198.033 345.053 198.059 345.209 198.092L344.994 200.24C344.857 200.201 344.688 200.172 344.486 200.152C344.291 200.133 344.115 200.123 343.959 200.123C343.549 200.123 343.158 200.191 342.787 200.328C342.416 200.458 342.087 200.66 341.801 200.934C341.514 201.201 341.29 201.536 341.127 201.939C340.964 202.343 340.883 202.812 340.883 203.346V209H338.578V198.189H340.375L340.688 200.094H340.795C341.01 199.71 341.277 199.358 341.596 199.039C341.915 198.72 342.279 198.466 342.689 198.277C343.106 198.082 343.562 197.984 344.057 197.984ZM351.518 197.984C352.481 197.984 353.308 198.183 353.998 198.58C354.688 198.977 355.219 199.54 355.59 200.27C355.961 200.999 356.146 201.871 356.146 202.887V204.117H348.93C348.956 205.165 349.236 205.973 349.77 206.539C350.31 207.105 351.065 207.389 352.035 207.389C352.725 207.389 353.344 207.324 353.891 207.193C354.444 207.057 355.014 206.858 355.6 206.598V208.463C355.059 208.717 354.509 208.902 353.949 209.02C353.389 209.137 352.719 209.195 351.938 209.195C350.876 209.195 349.942 208.99 349.135 208.58C348.334 208.163 347.706 207.545 347.25 206.725C346.801 205.904 346.576 204.885 346.576 203.668C346.576 202.457 346.781 201.428 347.191 200.582C347.602 199.736 348.178 199.091 348.92 198.648C349.662 198.206 350.528 197.984 351.518 197.984ZM351.518 199.713C350.795 199.713 350.209 199.947 349.76 200.416C349.317 200.885 349.057 201.572 348.979 202.477H353.9C353.894 201.936 353.803 201.458 353.627 201.041C353.458 200.624 353.197 200.299 352.846 200.064C352.501 199.83 352.058 199.713 351.518 199.713ZM363.041 197.984C364.005 197.984 364.831 198.183 365.521 198.58C366.212 198.977 366.742 199.54 367.113 200.27C367.484 200.999 367.67 201.871 367.67 202.887V204.117H360.453C360.479 205.165 360.759 205.973 361.293 206.539C361.833 207.105 362.589 207.389 363.559 207.389C364.249 207.389 364.867 207.324 365.414 207.193C365.967 207.057 366.537 206.858 367.123 206.598V208.463C366.583 208.717 366.033 208.902 365.473 209.02C364.913 209.137 364.242 209.195 363.461 209.195C362.4 209.195 361.465 208.99 360.658 208.58C359.857 208.163 359.229 207.545 358.773 206.725C358.324 205.904 358.1 204.885 358.1 203.668C358.1 202.457 358.305 201.428 358.715 200.582C359.125 199.736 359.701 199.091 360.443 198.648C361.186 198.206 362.051 197.984 363.041 197.984ZM363.041 199.713C362.318 199.713 361.732 199.947 361.283 200.416C360.84 200.885 360.58 201.572 360.502 202.477H365.424C365.417 201.936 365.326 201.458 365.15 201.041C364.981 200.624 364.721 200.299 364.369 200.064C364.024 199.83 363.581 199.713 363.041 199.713ZM375.893 197.984C377.11 197.984 378.057 198.3 378.734 198.932C379.418 199.557 379.76 200.562 379.76 201.949V209H377.465V202.379C377.465 201.539 377.292 200.911 376.947 200.494C376.602 200.071 376.068 199.859 375.346 199.859C374.298 199.859 373.568 200.182 373.158 200.826C372.755 201.471 372.553 202.405 372.553 203.629V209H370.258V198.189H372.045L372.367 199.654H372.494C372.729 199.277 373.018 198.967 373.363 198.727C373.715 198.479 374.105 198.294 374.535 198.17C374.971 198.046 375.424 197.984 375.893 197.984ZM385.268 198.189V209H382.973V198.189H385.268ZM384.135 194.049C384.486 194.049 384.789 194.143 385.043 194.332C385.303 194.521 385.434 194.846 385.434 195.309C385.434 195.764 385.303 196.09 385.043 196.285C384.789 196.474 384.486 196.568 384.135 196.568C383.77 196.568 383.461 196.474 383.207 196.285C382.96 196.09 382.836 195.764 382.836 195.309C382.836 194.846 382.96 194.521 383.207 194.332C383.461 194.143 383.77 194.049 384.135 194.049ZM394.193 197.984C395.411 197.984 396.358 198.3 397.035 198.932C397.719 199.557 398.061 200.562 398.061 201.949V209H395.766V202.379C395.766 201.539 395.593 200.911 395.248 200.494C394.903 200.071 394.369 199.859 393.646 199.859C392.598 199.859 391.869 200.182 391.459 200.826C391.055 201.471 390.854 202.405 390.854 203.629V209H388.559V198.189H390.346L390.668 199.654H390.795C391.029 199.277 391.319 198.967 391.664 198.727C392.016 198.479 392.406 198.294 392.836 198.17C393.272 198.046 393.725 197.984 394.193 197.984ZM404.359 213.805C402.895 213.805 401.771 213.541 400.99 213.014C400.209 212.486 399.818 211.747 399.818 210.797C399.818 210.133 400.027 209.57 400.443 209.107C400.86 208.652 401.456 208.336 402.23 208.16C401.938 208.03 401.684 207.828 401.469 207.555C401.26 207.275 401.156 206.965 401.156 206.627C401.156 206.223 401.27 205.878 401.498 205.592C401.726 205.305 402.068 205.029 402.523 204.762C401.957 204.521 401.501 204.13 401.156 203.59C400.818 203.043 400.648 202.402 400.648 201.666C400.648 200.885 400.814 200.221 401.146 199.674C401.479 199.12 401.964 198.701 402.602 198.414C403.24 198.121 404.011 197.975 404.916 197.975C405.111 197.975 405.323 197.988 405.551 198.014C405.785 198.033 406 198.059 406.195 198.092C406.397 198.118 406.55 198.147 406.654 198.18H410.395V199.459L408.559 199.801C408.734 200.048 408.874 200.331 408.979 200.65C409.083 200.963 409.135 201.305 409.135 201.676C409.135 202.796 408.747 203.678 407.973 204.322C407.204 204.96 406.143 205.279 404.789 205.279C404.464 205.266 404.148 205.24 403.842 205.201C403.607 205.344 403.428 205.504 403.305 205.68C403.181 205.849 403.119 206.041 403.119 206.256C403.119 206.432 403.181 206.575 403.305 206.686C403.428 206.79 403.611 206.868 403.852 206.92C404.099 206.972 404.398 206.998 404.75 206.998H406.615C407.8 206.998 408.705 207.249 409.33 207.75C409.955 208.251 410.268 208.987 410.268 209.957C410.268 211.188 409.76 212.135 408.744 212.799C407.729 213.469 406.267 213.805 404.359 213.805ZM404.447 212.193C405.248 212.193 405.922 212.115 406.469 211.959C407.016 211.803 407.429 211.578 407.709 211.285C407.989 210.999 408.129 210.657 408.129 210.26C408.129 209.908 408.041 209.638 407.865 209.449C407.689 209.26 407.426 209.13 407.074 209.059C406.723 208.987 406.286 208.951 405.766 208.951H404.066C403.643 208.951 403.269 209.016 402.943 209.146C402.618 209.283 402.364 209.479 402.182 209.732C402.006 209.986 401.918 210.292 401.918 210.65C401.918 211.145 402.136 211.526 402.572 211.793C403.015 212.06 403.64 212.193 404.447 212.193ZM404.896 203.775C405.567 203.775 406.065 203.593 406.391 203.229C406.716 202.857 406.879 202.337 406.879 201.666C406.879 200.937 406.71 200.39 406.371 200.025C406.039 199.661 405.544 199.479 404.887 199.479C404.242 199.479 403.751 199.664 403.412 200.035C403.08 200.406 402.914 200.956 402.914 201.686C402.914 202.343 403.08 202.857 403.412 203.229C403.751 203.593 404.245 203.775 404.896 203.775Z" fill="black"/>
<path d="M346.049 149.461C346.049 151.072 345.723 152.472 345.072 153.66C344.421 154.848 343.526 155.825 342.387 156.59C341.264 157.339 339.962 157.876 338.48 158.201V158.372C341.329 158.73 343.477 159.625 344.926 161.058C346.391 162.49 347.123 164.386 347.123 166.746C347.123 168.813 346.627 170.66 345.634 172.288C344.641 173.899 343.119 175.169 341.068 176.097C339.018 177.024 336.381 177.488 333.158 177.488C331.221 177.488 329.423 177.334 327.763 177.024C326.119 176.715 324.556 176.219 323.075 175.535V170.433C324.589 171.181 326.2 171.759 327.909 172.166C329.618 172.573 331.238 172.776 332.768 172.776C335.746 172.776 337.87 172.223 339.14 171.116C340.409 169.993 341.044 168.447 341.044 166.478C341.044 165.208 340.71 164.166 340.043 163.353C339.392 162.539 338.375 161.928 336.991 161.521C335.624 161.115 333.858 160.911 331.693 160.911H328.544V156.297H331.718C333.785 156.297 335.445 156.053 336.698 155.564C337.951 155.06 338.855 154.368 339.408 153.489C339.978 152.61 340.263 151.585 340.263 150.413C340.263 148.883 339.766 147.695 338.773 146.849C337.781 145.986 336.308 145.555 334.354 145.555C333.15 145.555 332.051 145.693 331.059 145.97C330.082 146.246 329.179 146.596 328.349 147.02C327.519 147.443 326.729 147.898 325.98 148.387L323.222 144.407C324.573 143.398 326.184 142.544 328.056 141.844C329.927 141.144 332.108 140.794 334.599 140.794C338.261 140.794 341.085 141.583 343.07 143.162C345.056 144.725 346.049 146.824 346.049 149.461ZM376.029 159.129C376.029 162.01 375.801 164.59 375.346 166.868C374.906 169.131 374.206 171.051 373.246 172.63C372.286 174.209 371.033 175.413 369.486 176.243C367.94 177.073 366.068 177.488 363.871 177.488C361.12 177.488 358.85 176.764 357.06 175.315C355.269 173.851 353.943 171.751 353.08 169.017C352.217 166.266 351.786 162.97 351.786 159.129C351.786 155.288 352.177 152 352.958 149.266C353.756 146.515 355.041 144.407 356.815 142.942C358.59 141.478 360.941 140.745 363.871 140.745C366.638 140.745 368.917 141.478 370.707 142.942C372.514 144.391 373.848 146.491 374.711 149.241C375.59 151.976 376.029 155.271 376.029 159.129ZM357.572 159.129C357.572 162.14 357.768 164.655 358.158 166.673C358.565 168.691 359.232 170.205 360.16 171.214C361.088 172.207 362.325 172.703 363.871 172.703C365.417 172.703 366.654 172.207 367.582 171.214C368.51 170.221 369.177 168.715 369.584 166.697C370.007 164.679 370.219 162.156 370.219 159.129C370.219 156.134 370.015 153.628 369.608 151.609C369.201 149.591 368.534 148.077 367.606 147.068C366.679 146.043 365.434 145.53 363.871 145.53C362.309 145.53 361.063 146.043 360.136 147.068C359.224 148.077 358.565 149.591 358.158 151.609C357.768 153.628 357.572 156.134 357.572 159.129ZM388.09 140.794C390.71 140.794 392.696 141.771 394.047 143.724C395.398 145.66 396.073 148.403 396.073 151.951C396.073 155.483 395.422 158.242 394.12 160.228C392.834 162.213 390.824 163.206 388.09 163.206C385.535 163.206 383.59 162.213 382.255 160.228C380.92 158.242 380.253 155.483 380.253 151.951C380.253 148.403 380.88 145.66 382.133 143.724C383.402 141.771 385.388 140.794 388.09 140.794ZM388.114 144.798C387.056 144.798 386.275 145.392 385.771 146.58C385.282 147.768 385.038 149.567 385.038 151.976C385.038 154.368 385.282 156.175 385.771 157.396C386.275 158.6 387.056 159.202 388.114 159.202C389.188 159.202 389.986 158.6 390.507 157.396C391.044 156.191 391.312 154.384 391.312 151.976C391.312 149.583 391.052 147.793 390.531 146.604C390.01 145.4 389.205 144.798 388.114 144.798ZM412.064 141.307L392.265 177H387.553L407.353 141.307H412.064ZM411.405 155.076C414.026 155.076 416.011 156.053 417.362 158.006C418.729 159.943 419.413 162.685 419.413 166.233C419.413 169.749 418.762 172.5 417.46 174.485C416.174 176.471 414.156 177.464 411.405 177.464C408.85 177.464 406.905 176.471 405.57 174.485C404.236 172.5 403.568 169.749 403.568 166.233C403.568 162.685 404.195 159.943 405.448 158.006C406.718 156.053 408.703 155.076 411.405 155.076ZM411.43 159.08C410.372 159.08 409.59 159.674 409.086 160.862C408.598 162.05 408.354 163.849 408.354 166.258C408.354 168.65 408.598 170.457 409.086 171.678C409.59 172.882 410.372 173.484 411.43 173.484C412.52 173.484 413.326 172.89 413.847 171.702C414.368 170.498 414.628 168.683 414.628 166.258C414.628 163.865 414.368 162.075 413.847 160.887C413.326 159.682 412.52 159.08 411.43 159.08Z" fill="#F358B0"/>
<path d="M368.13 284.794C327.931 284.794 292.793 263.119 273.766 230.822C274.277 230.918 274.807 230.968 275.348 230.968C276.047 230.968 276.726 230.885 277.378 230.726C282.967 239 289.656 246.466 297.238 252.918C315.931 270.01 340.804 280.432 368.13 280.432V284.794M267.091 217.489C261.676 204.518 258.685 190.284 258.685 175.35C258.685 174.375 258.698 173.41 258.722 172.441C259.13 188.03 262.795 202.808 269.066 216.118L267.091 217.489ZM263.086 172.441C263.06 171.476 263.047 170.506 263.047 169.533C263.048 140.508 274.805 114.253 293.825 95.2294C294.938 94.1156 296.076 93.0279 297.238 91.9649C316.335 75.7134 341.086 65.9053 368.13 65.9053V70.2677C339.104 70.2677 312.848 82.0259 293.825 101.046C275.442 119.431 263.844 144.574 263.086 172.441" fill="#C3CFD3"/>
<path d="M368.13 274.615C339.104 274.615 312.848 262.856 293.825 243.838C274.805 224.815 263.048 198.557 263.047 169.533C263.048 140.508 274.805 114.252 293.825 95.2291C312.848 76.209 339.104 64.4522 368.13 64.4508V60.0884C307.683 60.0898 258.686 109.087 258.685 169.533C258.686 229.978 307.683 278.976 368.13 278.977V274.615" fill="#121429"/>
<path d="M368.145 284.068C368.143 284.068 368.137 284.068 368.134 284.068V269.526C395.768 269.524 420.72 258.346 438.838 240.24C448.492 230.579 456.176 218.978 461.247 206.061C465.356 208.543 470.002 210.224 474.971 210.887C469.162 225.886 460.284 239.363 449.121 250.522C428.419 271.235 399.745 284.068 368.145 284.068ZM464.536 142.881C459.877 125.984 450.893 110.893 438.838 98.828C420.72 80.7225 395.768 69.5445 368.134 69.5416V55.0002C399.738 54.9958 428.417 67.8315 449.121 88.5472C463.031 102.449 473.387 119.948 478.689 139.515C473.642 139.662 468.853 140.854 464.536 142.881" fill="url(#paint0_linear_1286_5698)"/>
<path d="M479.755 211.202C478.132 211.202 476.534 211.094 474.968 210.886C479.938 198.052 482.665 184.105 482.663 169.533C482.665 159.152 481.28 149.085 478.686 139.514C479.043 139.502 479.397 139.498 479.755 139.498C499.556 139.498 515.608 155.549 515.608 175.35C515.608 195.151 499.556 211.202 479.755 211.202ZM461.244 206.06C450.853 199.781 443.903 188.378 443.903 175.35C443.903 160.992 452.343 148.605 464.533 142.88C466.871 151.361 468.121 160.298 468.122 169.533C468.121 182.433 465.683 194.751 461.244 206.06Z" fill="#B9BCBD"/>
<path d="M474.971 210.887C470.002 210.224 465.356 208.543 461.247 206.06C465.687 194.752 468.124 182.434 468.125 169.534C468.124 160.299 466.875 151.362 464.536 142.881C468.854 140.854 473.642 139.662 478.689 139.515C481.284 149.086 482.668 159.153 482.667 169.534C482.668 184.106 479.941 198.052 474.971 210.887Z" fill="url(#paint1_linear_1286_5698)"/>
<path d="M439.541 169.533C439.541 149.732 455.593 133.681 475.393 133.681C495.194 133.681 511.246 149.732 511.246 169.533C511.246 189.334 495.194 205.385 475.393 205.385C455.593 205.385 439.541 189.334 439.541 169.533Z" fill="white"/>
<path d="M449.131 169.533C449.131 155.028 460.889 143.269 475.394 143.269C489.901 143.269 501.66 155.028 501.66 169.533C501.66 184.038 489.901 195.798 475.394 195.798C460.889 195.798 449.131 184.038 449.131 169.533Z" fill="url(#paint2_linear_1286_5698)"/>
<path d="M486.522 176.655H464.267C463.53 176.655 462.932 176.056 462.932 175.319V173.094H487.857V175.319C487.857 176.056 487.258 176.655 486.522 176.655V176.655ZM479.202 180.215H471.585L472.587 177.545H478.202L479.202 180.215ZM481.625 181.55V181.995H469.163V181.55C469.163 181.304 469.362 181.105 469.608 181.105H481.181C481.427 181.105 481.625 181.304 481.625 181.55V181.55ZM464.267 157.071H486.522C487.258 157.071 487.857 157.667 487.857 158.406V172.204H462.932V158.406C462.932 157.667 463.53 157.071 464.267 157.071V157.071ZM486.522 156.181H464.267C463.038 156.182 462.043 157.177 462.042 158.406V175.319C462.043 176.548 463.038 177.542 464.267 177.545H471.636L470.636 180.215H469.608C468.871 180.215 468.273 180.813 468.273 181.55V182.441C468.273 182.687 468.472 182.886 468.718 182.886H482.071C482.317 182.886 482.516 182.687 482.516 182.441V181.55C482.516 180.813 481.919 180.215 481.181 180.215H480.155L479.151 177.545H486.522C487.75 177.542 488.746 176.548 488.747 175.319V158.406C488.746 157.177 487.75 156.182 486.522 156.181Z" fill="white"/>
<path d="M475.394 175.319C475.148 175.319 474.95 175.12 474.95 174.874C474.95 174.628 475.148 174.429 475.394 174.429C475.639 174.429 475.84 174.628 475.84 174.874C475.84 175.12 475.639 175.319 475.394 175.319ZM475.394 173.539C474.656 173.539 474.059 174.137 474.059 174.874C474.059 175.611 474.656 176.209 475.394 176.209C476.131 176.209 476.728 175.611 476.728 174.874C476.728 174.137 476.131 173.539 475.394 173.539Z" fill="white"/>
<path d="M368.13 559.887C307.683 559.887 258.686 510.89 258.685 450.444C258.685 449.47 258.698 448.503 258.722 447.536C259.566 479.761 274.337 508.524 297.238 528.012C315.931 545.102 340.804 555.525 368.13 555.525V559.887M263.086 447.536C263.06 446.569 263.047 445.6 263.047 444.627C263.047 432.248 265.188 420.371 269.117 409.346C269.618 409.875 270.188 410.339 270.811 410.727C266.152 422.13 263.44 434.537 263.086 447.536M278.569 395.45C277.639 395.075 276.63 394.857 275.573 394.829C280.45 385.783 286.616 377.533 293.825 370.324C294.938 369.21 296.078 368.121 297.24 367.059C316.337 350.806 341.086 341.001 368.13 341V345.362C339.104 345.363 312.848 357.12 293.825 376.14C288.02 381.945 282.893 388.423 278.569 395.45" fill="#C3CFD3"/>
<path d="M368.13 549.709C339.104 549.708 312.848 537.951 293.825 518.931C274.805 499.908 263.048 473.652 263.047 444.627C263.048 415.603 274.805 389.347 293.825 370.324C312.848 351.304 339.104 339.547 368.13 339.545V335.183C307.683 335.184 258.686 384.182 258.685 444.627C258.686 505.073 307.683 554.069 368.13 554.072V549.709" fill="#121429"/>
<path d="M368.147 559.162C368.142 559.162 368.137 559.162 368.134 559.162V544.62C395.768 544.616 420.72 533.439 438.838 515.333C448.492 505.673 456.176 494.072 461.247 481.154C465.356 483.637 470.002 485.316 474.971 485.979C469.162 500.982 460.285 514.456 449.121 525.615C428.419 546.328 399.747 559.162 368.147 559.162ZM464.536 417.975C459.877 401.078 450.893 385.987 438.838 373.923C420.72 355.816 395.768 344.64 368.134 344.635V330.094C399.738 330.091 428.417 342.925 449.121 363.641C463.031 377.543 473.387 395.042 478.689 414.607C473.642 414.756 468.852 415.948 464.536 417.975" fill="url(#paint3_linear_1286_5698)"/>
<path d="M479.755 486.296C478.132 486.296 476.534 486.188 474.968 485.979C479.938 473.147 482.665 459.196 482.663 444.627C482.665 434.245 481.28 424.179 478.686 414.607C479.043 414.596 479.397 414.592 479.755 414.592C499.556 414.592 515.608 430.644 515.608 450.444C515.608 470.245 499.556 486.296 479.755 486.296ZM461.244 481.154C450.853 474.875 443.903 463.47 443.903 450.444C443.903 436.086 452.343 423.699 464.533 417.974C466.871 426.455 468.121 435.392 468.122 444.627C468.121 457.527 465.683 469.845 461.244 481.154Z" fill="#B9BCBD"/>
<path d="M474.971 485.979C470.002 485.316 465.356 483.637 461.247 481.154C465.687 469.846 468.124 457.528 468.125 444.628C468.124 435.393 466.875 426.456 464.536 417.975C468.852 415.948 473.642 414.755 478.689 414.607C481.284 424.18 482.668 434.245 482.667 444.628C482.668 459.197 479.941 473.148 474.971 485.979Z" fill="url(#paint4_linear_1286_5698)"/>
<path d="M439.541 444.627C439.541 424.828 455.593 408.775 475.393 408.775C495.194 408.775 511.246 424.828 511.246 444.627C511.246 464.428 495.194 480.479 475.393 480.479C455.593 480.479 439.541 464.428 439.541 444.627Z" fill="white"/>
<path d="M449.129 444.628C449.129 430.121 460.887 418.363 475.392 418.363C489.899 418.363 501.658 430.121 501.658 444.628C501.658 459.133 489.899 470.893 475.392 470.893C460.887 470.893 449.129 459.133 449.129 444.628Z" fill="url(#paint5_linear_1286_5698)"/>
<path d="M311.025 470.723C312.868 470.723 314.212 471.1 315.059 471.855C315.905 472.611 316.328 473.669 316.328 475.029C316.328 475.648 316.23 476.237 316.035 476.797C315.846 477.35 315.534 477.842 315.098 478.271C314.661 478.695 314.085 479.03 313.369 479.277C312.66 479.525 311.784 479.648 310.742 479.648H309.219V485H306.875V470.723H311.025ZM310.869 472.666H309.219V477.695H310.498C311.234 477.695 311.859 477.611 312.373 477.441C312.887 477.266 313.278 476.989 313.545 476.611C313.812 476.234 313.945 475.736 313.945 475.117C313.945 474.29 313.695 473.675 313.193 473.271C312.699 472.868 311.924 472.666 310.869 472.666ZM324.424 473.984C324.606 473.984 324.805 473.994 325.02 474.014C325.234 474.033 325.42 474.059 325.576 474.092L325.361 476.24C325.225 476.201 325.055 476.172 324.854 476.152C324.658 476.133 324.482 476.123 324.326 476.123C323.916 476.123 323.525 476.191 323.154 476.328C322.783 476.458 322.454 476.66 322.168 476.934C321.882 477.201 321.657 477.536 321.494 477.939C321.331 478.343 321.25 478.812 321.25 479.346V485H318.945V474.189H320.742L321.055 476.094H321.162C321.377 475.71 321.644 475.358 321.963 475.039C322.282 474.72 322.646 474.466 323.057 474.277C323.473 474.082 323.929 473.984 324.424 473.984ZM337.148 479.57C337.148 480.469 337.031 481.266 336.797 481.963C336.562 482.66 336.221 483.249 335.771 483.73C335.322 484.206 334.782 484.57 334.15 484.824C333.519 485.072 332.806 485.195 332.012 485.195C331.27 485.195 330.589 485.072 329.971 484.824C329.352 484.57 328.815 484.206 328.359 483.73C327.91 483.249 327.562 482.66 327.314 481.963C327.067 481.266 326.943 480.469 326.943 479.57C326.943 478.379 327.148 477.37 327.559 476.543C327.975 475.71 328.568 475.075 329.336 474.639C330.104 474.202 331.019 473.984 332.08 473.984C333.076 473.984 333.955 474.202 334.717 474.639C335.479 475.075 336.074 475.71 336.504 476.543C336.934 477.376 337.148 478.385 337.148 479.57ZM329.307 479.57C329.307 480.358 329.401 481.032 329.59 481.592C329.785 482.152 330.085 482.581 330.488 482.881C330.892 483.174 331.413 483.32 332.051 483.32C332.689 483.32 333.21 483.174 333.613 482.881C334.017 482.581 334.313 482.152 334.502 481.592C334.691 481.032 334.785 480.358 334.785 479.57C334.785 478.783 334.691 478.115 334.502 477.568C334.313 477.015 334.017 476.595 333.613 476.309C333.21 476.016 332.686 475.869 332.041 475.869C331.09 475.869 330.397 476.188 329.961 476.826C329.525 477.464 329.307 478.379 329.307 479.57ZM345.186 475.938H342.559V485H340.264V475.938H338.496V474.834L340.264 474.16V473.408C340.264 472.49 340.407 471.761 340.693 471.221C340.986 470.68 341.403 470.293 341.943 470.059C342.49 469.818 343.141 469.697 343.896 469.697C344.391 469.697 344.844 469.74 345.254 469.824C345.664 469.902 346.009 469.993 346.289 470.098L345.693 471.836C345.472 471.764 345.225 471.699 344.951 471.641C344.678 471.576 344.385 471.543 344.072 471.543C343.551 471.543 343.167 471.706 342.92 472.031C342.679 472.357 342.559 472.832 342.559 473.457V474.189H345.186V475.938ZM349.316 474.189V485H347.021V474.189H349.316ZM348.184 470.049C348.535 470.049 348.838 470.143 349.092 470.332C349.352 470.521 349.482 470.846 349.482 471.309C349.482 471.764 349.352 472.09 349.092 472.285C348.838 472.474 348.535 472.568 348.184 472.568C347.819 472.568 347.51 472.474 347.256 472.285C347.008 472.09 346.885 471.764 346.885 471.309C346.885 470.846 347.008 470.521 347.256 470.332C347.51 470.143 347.819 470.049 348.184 470.049ZM354.902 485H352.598V469.805H354.902V485ZM362.49 473.984C363.454 473.984 364.281 474.183 364.971 474.58C365.661 474.977 366.191 475.54 366.562 476.27C366.934 476.999 367.119 477.871 367.119 478.887V480.117H359.902C359.928 481.165 360.208 481.973 360.742 482.539C361.283 483.105 362.038 483.389 363.008 483.389C363.698 483.389 364.316 483.324 364.863 483.193C365.417 483.057 365.986 482.858 366.572 482.598V484.463C366.032 484.717 365.482 484.902 364.922 485.02C364.362 485.137 363.691 485.195 362.91 485.195C361.849 485.195 360.915 484.99 360.107 484.58C359.307 484.163 358.678 483.545 358.223 482.725C357.773 481.904 357.549 480.885 357.549 479.668C357.549 478.457 357.754 477.428 358.164 476.582C358.574 475.736 359.15 475.091 359.893 474.648C360.635 474.206 361.501 473.984 362.49 473.984ZM362.49 475.713C361.768 475.713 361.182 475.947 360.732 476.416C360.29 476.885 360.029 477.572 359.951 478.477H364.873C364.867 477.936 364.775 477.458 364.6 477.041C364.43 476.624 364.17 476.299 363.818 476.064C363.473 475.83 363.031 475.713 362.49 475.713ZM387.119 473.984C388.33 473.984 389.242 474.297 389.854 474.922C390.472 475.547 390.781 476.549 390.781 477.93V485H388.486V478.34C388.486 477.52 388.327 476.901 388.008 476.484C387.689 476.068 387.204 475.859 386.553 475.859C385.641 475.859 384.984 476.152 384.58 476.738C384.183 477.318 383.984 478.161 383.984 479.268V485H381.689V478.34C381.689 477.793 381.618 477.337 381.475 476.973C381.338 476.602 381.126 476.325 380.84 476.143C380.553 475.954 380.192 475.859 379.756 475.859C379.124 475.859 378.62 476.003 378.242 476.289C377.871 476.576 377.604 476.999 377.441 477.559C377.279 478.112 377.197 478.792 377.197 479.6V485H374.902V474.189H376.689L377.012 475.645H377.139C377.36 475.267 377.633 474.958 377.959 474.717C378.291 474.469 378.659 474.287 379.062 474.17C379.466 474.046 379.886 473.984 380.322 473.984C381.13 473.984 381.81 474.128 382.363 474.414C382.917 474.694 383.33 475.124 383.604 475.703H383.779C384.118 475.117 384.59 474.684 385.195 474.404C385.801 474.124 386.442 473.984 387.119 473.984ZM398.223 473.984C399.59 473.984 400.622 474.287 401.318 474.893C402.021 475.498 402.373 476.442 402.373 477.725V485H400.742L400.303 483.467H400.225C399.919 483.857 399.603 484.18 399.277 484.434C398.952 484.688 398.574 484.876 398.145 485C397.721 485.13 397.204 485.195 396.592 485.195C395.947 485.195 395.371 485.078 394.863 484.844C394.355 484.603 393.955 484.238 393.662 483.75C393.369 483.262 393.223 482.643 393.223 481.895C393.223 480.781 393.636 479.945 394.463 479.385C395.296 478.825 396.553 478.516 398.232 478.457L400.107 478.389V477.822C400.107 477.074 399.932 476.54 399.58 476.221C399.235 475.902 398.747 475.742 398.115 475.742C397.575 475.742 397.051 475.82 396.543 475.977C396.035 476.133 395.54 476.325 395.059 476.553L394.316 474.932C394.844 474.652 395.443 474.424 396.113 474.248C396.79 474.072 397.493 473.984 398.223 473.984ZM400.098 479.834L398.701 479.883C397.555 479.922 396.751 480.117 396.289 480.469C395.827 480.82 395.596 481.302 395.596 481.914C395.596 482.448 395.755 482.839 396.074 483.086C396.393 483.327 396.813 483.447 397.334 483.447C398.128 483.447 398.786 483.223 399.307 482.773C399.834 482.318 400.098 481.65 400.098 480.771V479.834ZM409.609 483.34C409.909 483.34 410.205 483.314 410.498 483.262C410.791 483.203 411.058 483.135 411.299 483.057V484.795C411.045 484.906 410.716 485 410.312 485.078C409.909 485.156 409.489 485.195 409.053 485.195C408.441 485.195 407.891 485.094 407.402 484.893C406.914 484.684 406.527 484.329 406.24 483.828C405.954 483.327 405.811 482.633 405.811 481.748V475.938H404.336V474.912L405.918 474.102L406.67 471.787H408.115V474.189H411.211V475.938H408.115V481.719C408.115 482.266 408.252 482.673 408.525 482.939C408.799 483.206 409.16 483.34 409.609 483.34ZM417.852 485.195C416.829 485.195 415.944 484.997 415.195 484.6C414.447 484.202 413.87 483.594 413.467 482.773C413.063 481.953 412.861 480.911 412.861 479.648C412.861 478.333 413.083 477.259 413.525 476.426C413.968 475.592 414.58 474.977 415.361 474.58C416.149 474.183 417.051 473.984 418.066 473.984C418.711 473.984 419.294 474.049 419.814 474.18C420.342 474.303 420.788 474.456 421.152 474.639L420.469 476.475C420.072 476.312 419.665 476.175 419.248 476.064C418.831 475.954 418.431 475.898 418.047 475.898C417.415 475.898 416.888 476.038 416.465 476.318C416.048 476.598 415.736 477.015 415.527 477.568C415.326 478.122 415.225 478.809 415.225 479.629C415.225 480.423 415.329 481.094 415.537 481.641C415.745 482.181 416.055 482.591 416.465 482.871C416.875 483.145 417.38 483.281 417.979 483.281C418.571 483.281 419.102 483.21 419.57 483.066C420.039 482.923 420.482 482.738 420.898 482.51V484.502C420.488 484.736 420.049 484.909 419.58 485.02C419.111 485.137 418.535 485.195 417.852 485.195ZM425.732 469.805V473.623C425.732 474.02 425.719 474.408 425.693 474.785C425.674 475.163 425.651 475.456 425.625 475.664H425.752C425.98 475.286 426.26 474.977 426.592 474.736C426.924 474.489 427.295 474.303 427.705 474.18C428.122 474.056 428.564 473.994 429.033 473.994C429.86 473.994 430.563 474.134 431.143 474.414C431.722 474.688 432.165 475.114 432.471 475.693C432.783 476.273 432.939 477.025 432.939 477.949V485H430.645V478.379C430.645 477.539 430.472 476.911 430.127 476.494C429.782 476.071 429.248 475.859 428.525 475.859C427.829 475.859 427.275 476.006 426.865 476.299C426.462 476.585 426.172 477.012 425.996 477.578C425.82 478.138 425.732 478.822 425.732 479.629V485H423.438V469.805H425.732Z" fill="black"/>
<path d="M323.295 433.79C323.295 431.69 323.441 429.623 323.734 427.589C324.044 425.554 324.564 423.65 325.297 421.876C326.029 420.102 327.038 418.539 328.324 417.188C329.626 415.838 331.262 414.78 333.231 414.015C335.201 413.233 337.569 412.843 340.336 412.843C341.052 412.843 341.858 412.875 342.753 412.94C343.648 413.006 344.389 413.111 344.975 413.258V418.019C344.34 417.84 343.64 417.701 342.875 417.604C342.126 417.506 341.378 417.457 340.629 417.457C337.634 417.457 335.299 418.027 333.622 419.166C331.946 420.289 330.749 421.835 330.033 423.805C329.317 425.758 328.902 427.996 328.788 430.519H329.081C329.569 429.705 330.18 428.98 330.912 428.346C331.645 427.711 332.54 427.206 333.598 426.832C334.656 426.441 335.884 426.246 337.284 426.246C339.368 426.246 341.182 426.686 342.729 427.564C344.275 428.427 345.463 429.68 346.293 431.324C347.139 432.968 347.562 434.962 347.562 437.306C347.562 439.828 347.082 442.001 346.122 443.824C345.178 445.647 343.827 447.047 342.069 448.023C340.328 449 338.253 449.488 335.844 449.488C334.07 449.488 332.418 449.163 330.888 448.512C329.374 447.861 328.048 446.884 326.908 445.582C325.769 444.28 324.882 442.652 324.247 440.699C323.612 438.73 323.295 436.427 323.295 433.79ZM335.746 444.752C337.602 444.752 339.091 444.15 340.214 442.945C341.353 441.725 341.923 439.861 341.923 437.354C341.923 435.32 341.418 433.709 340.409 432.521C339.416 431.332 337.919 430.738 335.917 430.738C334.55 430.738 333.354 431.031 332.328 431.617C331.303 432.203 330.505 432.944 329.936 433.839C329.382 434.734 329.105 435.646 329.105 436.573C329.105 437.517 329.244 438.469 329.521 439.43C329.797 440.39 330.212 441.277 330.766 442.091C331.319 442.888 332.011 443.531 332.841 444.02C333.671 444.508 334.639 444.752 335.746 444.752ZM376.029 431.129C376.029 434.01 375.801 436.59 375.346 438.868C374.906 441.131 374.206 443.051 373.246 444.63C372.286 446.209 371.033 447.413 369.486 448.243C367.94 449.073 366.068 449.488 363.871 449.488C361.12 449.488 358.85 448.764 357.06 447.315C355.269 445.851 353.943 443.751 353.08 441.017C352.217 438.266 351.786 434.97 351.786 431.129C351.786 427.288 352.177 424 352.958 421.266C353.756 418.515 355.041 416.407 356.815 414.942C358.59 413.478 360.941 412.745 363.871 412.745C366.638 412.745 368.917 413.478 370.707 414.942C372.514 416.391 373.848 418.491 374.711 421.241C375.59 423.976 376.029 427.271 376.029 431.129ZM357.572 431.129C357.572 434.14 357.768 436.655 358.158 438.673C358.565 440.691 359.232 442.205 360.16 443.214C361.088 444.207 362.325 444.703 363.871 444.703C365.417 444.703 366.654 444.207 367.582 443.214C368.51 442.221 369.177 440.715 369.584 438.697C370.007 436.679 370.219 434.156 370.219 431.129C370.219 428.134 370.015 425.628 369.608 423.609C369.201 421.591 368.534 420.077 367.606 419.068C366.679 418.043 365.434 417.53 363.871 417.53C362.309 417.53 361.063 418.043 360.136 419.068C359.224 420.077 358.565 421.591 358.158 423.609C357.768 425.628 357.572 428.134 357.572 431.129ZM388.09 412.794C390.71 412.794 392.696 413.771 394.047 415.724C395.398 417.66 396.073 420.403 396.073 423.951C396.073 427.483 395.422 430.242 394.12 432.228C392.834 434.213 390.824 435.206 388.09 435.206C385.535 435.206 383.59 434.213 382.255 432.228C380.92 430.242 380.253 427.483 380.253 423.951C380.253 420.403 380.88 417.66 382.133 415.724C383.402 413.771 385.388 412.794 388.09 412.794ZM388.114 416.798C387.056 416.798 386.275 417.392 385.771 418.58C385.282 419.768 385.038 421.567 385.038 423.976C385.038 426.368 385.282 428.175 385.771 429.396C386.275 430.6 387.056 431.202 388.114 431.202C389.188 431.202 389.986 430.6 390.507 429.396C391.044 428.191 391.312 426.384 391.312 423.976C391.312 421.583 391.052 419.793 390.531 418.604C390.01 417.4 389.205 416.798 388.114 416.798ZM412.064 413.307L392.265 449H387.553L407.353 413.307H412.064ZM411.405 427.076C414.026 427.076 416.011 428.053 417.362 430.006C418.729 431.943 419.413 434.685 419.413 438.233C419.413 441.749 418.762 444.5 417.46 446.485C416.174 448.471 414.156 449.464 411.405 449.464C408.85 449.464 406.905 448.471 405.57 446.485C404.236 444.5 403.568 441.749 403.568 438.233C403.568 434.685 404.195 431.943 405.448 430.006C406.718 428.053 408.703 427.076 411.405 427.076ZM411.43 431.08C410.372 431.08 409.59 431.674 409.086 432.862C408.598 434.05 408.354 435.849 408.354 438.258C408.354 440.65 408.598 442.457 409.086 443.678C409.59 444.882 410.372 445.484 411.43 445.484C412.52 445.484 413.326 444.89 413.847 443.702C414.368 442.498 414.628 440.683 414.628 438.258C414.628 435.865 414.368 434.075 413.847 432.887C413.326 431.682 412.52 431.08 411.43 431.08Z" fill="#3583CD"/>
<path d="M483.52 441.244H482.793C482.793 443.643 481.823 445.81 480.25 447.383C478.676 448.956 476.511 449.926 474.111 449.926C471.711 449.926 469.544 448.956 467.971 447.383C466.398 445.81 465.428 443.643 465.428 441.244C465.428 438.844 466.398 436.678 467.971 435.104C469.544 433.532 471.711 432.561 474.111 432.561C476.511 432.561 478.676 433.532 480.25 435.104C481.823 436.678 482.793 438.844 482.793 441.244H483.52H484.247C484.247 435.645 479.709 431.107 474.111 431.107C468.512 431.107 463.974 435.645 463.974 441.244C463.974 446.842 468.512 451.38 474.111 451.38C479.709 451.38 484.247 446.842 484.247 441.244H483.52Z" fill="white"/>
<path d="M477.915 449.983L483.144 460.658L484.45 460.02L479.221 449.343" fill="white"/>
<path d="M471.8 435.673C471.768 435.699 471.061 436.253 470.337 437.206C469.619 438.157 468.863 439.525 468.858 441.186C468.851 442.851 469.668 444.709 471.786 446.445C472.095 446.7 472.553 446.656 472.809 446.348C473.065 446.038 473.022 445.579 472.712 445.324C470.833 443.759 470.32 442.377 470.313 441.186C470.308 439.992 470.883 438.89 471.496 438.084C471.8 437.683 472.108 437.36 472.337 437.14L472.607 436.893L472.678 436.833L472.696 436.819C473.013 436.572 473.068 436.115 472.821 435.798C472.574 435.482 472.117 435.426 471.8 435.673" fill="white"/>
<path d="M579.522 422.341C520.308 422.34 472.081 375.323 470.139 316.582C470.264 316.846 470.402 317.102 470.553 317.351C473.275 346.579 487.485 372.47 508.628 390.462C527.321 407.556 552.194 417.977 579.522 417.979V422.341ZM474.46 305.018C475.003 276.814 486.649 251.348 505.217 232.777C506.331 231.663 507.468 230.575 508.63 229.514C527.727 213.261 552.479 203.453 579.522 203.453V207.815C550.496 207.817 524.24 219.573 505.217 238.592C487.961 255.853 476.682 279.066 474.74 304.902C474.645 304.94 474.552 304.979 474.46 305.018" fill="#C3CFD3"/>
<path d="M579.522 412.162C550.498 412.161 524.24 400.404 505.217 381.384C486.199 362.362 474.442 336.105 474.441 307.08C474.442 278.055 486.199 251.798 505.217 232.776C524.24 213.756 550.496 202 579.522 201.998V197.636C519.075 197.637 470.08 246.634 470.078 307.08C470.08 367.526 519.075 416.523 579.522 416.524V412.162" fill="#121429"/>
<path d="M579.536 421.614C579.531 421.614 579.525 421.614 579.522 421.614V407.073C607.157 407.069 632.108 395.892 650.227 377.786C659.881 368.125 667.565 356.524 672.635 343.607C676.745 346.089 681.391 347.77 686.36 348.432C680.55 363.436 671.674 376.91 660.509 388.069C639.808 408.78 611.135 421.614 579.536 421.614M675.925 280.428C671.266 263.53 662.282 248.439 650.227 236.374C632.108 218.269 607.157 207.091 579.522 207.088V192.547C611.127 192.542 639.805 205.378 660.509 226.092C674.42 239.995 684.776 257.494 690.078 277.06C685.03 277.208 680.242 278.4 675.925 280.428Z" fill="url(#paint6_linear_1286_5698)"/>
<path d="M691.147 348.749C689.524 348.749 687.926 348.641 686.36 348.432C691.33 335.601 694.056 321.651 694.055 307.081C694.056 296.698 692.672 286.633 690.078 277.06C690.434 277.05 690.789 277.045 691.147 277.045C710.949 277.045 727 293.096 727 312.897C727 332.698 710.949 348.749 691.147 348.749M672.636 343.607C662.244 337.33 655.295 325.925 655.295 312.897C655.295 298.539 663.735 286.153 675.925 280.428C678.263 288.908 679.512 297.845 679.514 307.081C679.512 319.98 677.075 332.298 672.636 343.607Z" fill="#B9BCBD"/>
<path d="M686.359 348.431C681.39 347.77 676.744 346.089 672.635 343.606C677.074 332.297 679.511 319.979 679.513 307.08C679.511 297.845 678.262 288.907 675.924 280.427C680.241 278.4 685.03 277.207 690.077 277.059C692.671 286.632 694.056 296.697 694.054 307.08C694.056 321.65 691.329 335.6 686.359 348.431Z" fill="url(#paint7_linear_1286_5698)"/>
<path d="M650.931 307.08C650.931 287.279 666.983 271.228 686.782 271.228C706.585 271.228 722.636 287.279 722.636 307.08C722.636 326.881 706.585 342.932 686.782 342.932C666.983 342.932 650.931 326.881 650.931 307.08" fill="white"/>
<path d="M660.521 307.081C660.521 292.575 672.279 280.816 686.784 280.816C701.29 280.816 713.05 292.575 713.05 307.081C713.05 321.588 701.29 333.347 686.784 333.347C672.279 333.347 660.521 321.588 660.521 307.081" fill="url(#paint8_linear_1286_5698)"/>
<path d="M538.117 347.113C538.117 347.96 537.909 348.689 537.492 349.301C537.082 349.913 536.49 350.382 535.715 350.707C534.947 351.033 534.029 351.195 532.961 351.195C532.44 351.195 531.942 351.166 531.467 351.107C530.992 351.049 530.542 350.964 530.119 350.854C529.702 350.736 529.322 350.596 528.977 350.434V348.227C529.556 348.48 530.204 348.712 530.92 348.92C531.636 349.122 532.365 349.223 533.107 349.223C533.713 349.223 534.214 349.145 534.611 348.988C535.015 348.826 535.314 348.598 535.51 348.305C535.705 348.005 535.803 347.657 535.803 347.26C535.803 346.837 535.689 346.479 535.461 346.186C535.233 345.893 534.888 345.626 534.426 345.385C533.97 345.137 533.397 344.874 532.707 344.594C532.238 344.405 531.789 344.19 531.359 343.949C530.936 343.708 530.559 343.425 530.227 343.1C529.895 342.774 529.631 342.39 529.436 341.947C529.247 341.498 529.152 340.971 529.152 340.365C529.152 339.558 529.344 338.868 529.729 338.295C530.119 337.722 530.666 337.283 531.369 336.977C532.079 336.671 532.906 336.518 533.85 336.518C534.598 336.518 535.301 336.596 535.959 336.752C536.623 336.908 537.274 337.13 537.912 337.416L537.17 339.301C536.584 339.06 536.014 338.868 535.461 338.725C534.914 338.581 534.354 338.51 533.781 338.51C533.286 338.51 532.867 338.585 532.521 338.734C532.176 338.884 531.913 339.096 531.73 339.369C531.555 339.636 531.467 339.955 531.467 340.326C531.467 340.743 531.568 341.094 531.77 341.381C531.978 341.661 532.297 341.918 532.727 342.152C533.163 342.387 533.723 342.647 534.406 342.934C535.194 343.259 535.861 343.601 536.408 343.959C536.962 344.317 537.385 344.747 537.678 345.248C537.971 345.743 538.117 346.365 538.117 347.113ZM542.932 335.805V343.148C542.932 343.48 542.919 343.845 542.893 344.242C542.867 344.633 542.84 345.001 542.814 345.346H542.863C543.033 345.118 543.234 344.851 543.469 344.545C543.71 344.239 543.938 343.972 544.152 343.744L547.453 340.189H550.09L545.764 344.838L550.373 351H547.678L544.221 346.254L542.932 347.357V351H540.637V335.805H542.932ZM554.396 340.189V351H552.102V340.189H554.396ZM553.264 336.049C553.615 336.049 553.918 336.143 554.172 336.332C554.432 336.521 554.562 336.846 554.562 337.309C554.562 337.764 554.432 338.09 554.172 338.285C553.918 338.474 553.615 338.568 553.264 338.568C552.899 338.568 552.59 338.474 552.336 338.285C552.089 338.09 551.965 337.764 551.965 337.309C551.965 336.846 552.089 336.521 552.336 336.332C552.59 336.143 552.899 336.049 553.264 336.049ZM559.992 351H557.688V335.805H559.992V351ZM565.578 351H563.273V335.805H565.578V351ZM586.271 339.984C587.482 339.984 588.394 340.297 589.006 340.922C589.624 341.547 589.934 342.549 589.934 343.93V351H587.639V344.34C587.639 343.52 587.479 342.901 587.16 342.484C586.841 342.068 586.356 341.859 585.705 341.859C584.794 341.859 584.136 342.152 583.732 342.738C583.335 343.318 583.137 344.161 583.137 345.268V351H580.842V344.34C580.842 343.793 580.77 343.337 580.627 342.973C580.49 342.602 580.279 342.325 579.992 342.143C579.706 341.954 579.344 341.859 578.908 341.859C578.277 341.859 577.772 342.003 577.395 342.289C577.023 342.576 576.757 342.999 576.594 343.559C576.431 344.112 576.35 344.792 576.35 345.6V351H574.055V340.189H575.842L576.164 341.645H576.291C576.512 341.267 576.786 340.958 577.111 340.717C577.443 340.469 577.811 340.287 578.215 340.17C578.618 340.046 579.038 339.984 579.475 339.984C580.282 339.984 580.962 340.128 581.516 340.414C582.069 340.694 582.482 341.124 582.756 341.703H582.932C583.27 341.117 583.742 340.684 584.348 340.404C584.953 340.124 585.594 339.984 586.271 339.984ZM597.375 339.984C598.742 339.984 599.774 340.287 600.471 340.893C601.174 341.498 601.525 342.442 601.525 343.725V351H599.895L599.455 349.467H599.377C599.071 349.857 598.755 350.18 598.43 350.434C598.104 350.688 597.727 350.876 597.297 351C596.874 351.13 596.356 351.195 595.744 351.195C595.1 351.195 594.523 351.078 594.016 350.844C593.508 350.603 593.107 350.238 592.814 349.75C592.521 349.262 592.375 348.643 592.375 347.895C592.375 346.781 592.788 345.945 593.615 345.385C594.449 344.825 595.705 344.516 597.385 344.457L599.26 344.389V343.822C599.26 343.074 599.084 342.54 598.732 342.221C598.387 341.902 597.899 341.742 597.268 341.742C596.727 341.742 596.203 341.82 595.695 341.977C595.188 342.133 594.693 342.325 594.211 342.553L593.469 340.932C593.996 340.652 594.595 340.424 595.266 340.248C595.943 340.072 596.646 339.984 597.375 339.984ZM599.25 345.834L597.854 345.883C596.708 345.922 595.904 346.117 595.441 346.469C594.979 346.82 594.748 347.302 594.748 347.914C594.748 348.448 594.908 348.839 595.227 349.086C595.546 349.327 595.965 349.447 596.486 349.447C597.281 349.447 597.938 349.223 598.459 348.773C598.986 348.318 599.25 347.65 599.25 346.771V345.834ZM608.762 349.34C609.061 349.34 609.357 349.314 609.65 349.262C609.943 349.203 610.21 349.135 610.451 349.057V350.795C610.197 350.906 609.868 351 609.465 351.078C609.061 351.156 608.641 351.195 608.205 351.195C607.593 351.195 607.043 351.094 606.555 350.893C606.066 350.684 605.679 350.329 605.393 349.828C605.106 349.327 604.963 348.633 604.963 347.748V341.938H603.488V340.912L605.07 340.102L605.822 337.787H607.268V340.189H610.363V341.938H607.268V347.719C607.268 348.266 607.404 348.673 607.678 348.939C607.951 349.206 608.312 349.34 608.762 349.34ZM617.004 351.195C615.982 351.195 615.096 350.997 614.348 350.6C613.599 350.202 613.023 349.594 612.619 348.773C612.215 347.953 612.014 346.911 612.014 345.648C612.014 344.333 612.235 343.259 612.678 342.426C613.12 341.592 613.732 340.977 614.514 340.58C615.301 340.183 616.203 339.984 617.219 339.984C617.863 339.984 618.446 340.049 618.967 340.18C619.494 340.303 619.94 340.456 620.305 340.639L619.621 342.475C619.224 342.312 618.817 342.175 618.4 342.064C617.984 341.954 617.583 341.898 617.199 341.898C616.568 341.898 616.04 342.038 615.617 342.318C615.201 342.598 614.888 343.015 614.68 343.568C614.478 344.122 614.377 344.809 614.377 345.629C614.377 346.423 614.481 347.094 614.689 347.641C614.898 348.181 615.207 348.591 615.617 348.871C616.027 349.145 616.532 349.281 617.131 349.281C617.723 349.281 618.254 349.21 618.723 349.066C619.191 348.923 619.634 348.738 620.051 348.51V350.502C619.641 350.736 619.201 350.909 618.732 351.02C618.264 351.137 617.688 351.195 617.004 351.195ZM624.885 335.805V339.623C624.885 340.02 624.872 340.408 624.846 340.785C624.826 341.163 624.803 341.456 624.777 341.664H624.904C625.132 341.286 625.412 340.977 625.744 340.736C626.076 340.489 626.447 340.303 626.857 340.18C627.274 340.056 627.717 339.994 628.186 339.994C629.012 339.994 629.715 340.134 630.295 340.414C630.874 340.688 631.317 341.114 631.623 341.693C631.936 342.273 632.092 343.025 632.092 343.949V351H629.797V344.379C629.797 343.539 629.624 342.911 629.279 342.494C628.934 342.071 628.4 341.859 627.678 341.859C626.981 341.859 626.428 342.006 626.018 342.299C625.614 342.585 625.324 343.012 625.148 343.578C624.973 344.138 624.885 344.822 624.885 345.629V351H622.59V335.805H624.885Z" fill="black"/>
<path d="M538.323 316L552.337 285.336H533.807V280.307H558.514V284.237L544.5 316H538.323ZM587.029 298.129C587.029 301.01 586.801 303.59 586.346 305.868C585.906 308.131 585.206 310.051 584.246 311.63C583.286 313.209 582.033 314.413 580.486 315.243C578.94 316.073 577.068 316.488 574.871 316.488C572.12 316.488 569.85 315.764 568.06 314.315C566.269 312.851 564.943 310.751 564.08 308.017C563.217 305.266 562.786 301.97 562.786 298.129C562.786 294.288 563.177 291 563.958 288.266C564.756 285.515 566.041 283.407 567.815 281.942C569.59 280.478 571.941 279.745 574.871 279.745C577.638 279.745 579.917 280.478 581.707 281.942C583.514 283.391 584.848 285.491 585.711 288.241C586.59 290.976 587.029 294.271 587.029 298.129ZM568.572 298.129C568.572 301.14 568.768 303.655 569.158 305.673C569.565 307.691 570.232 309.205 571.16 310.214C572.088 311.207 573.325 311.703 574.871 311.703C576.417 311.703 577.654 311.207 578.582 310.214C579.51 309.221 580.177 307.715 580.584 305.697C581.007 303.679 581.219 301.156 581.219 298.129C581.219 295.134 581.015 292.628 580.608 290.609C580.201 288.591 579.534 287.077 578.606 286.068C577.679 285.043 576.434 284.53 574.871 284.53C573.309 284.53 572.063 285.043 571.136 286.068C570.224 287.077 569.565 288.591 569.158 290.609C568.768 292.628 568.572 295.134 568.572 298.129ZM599.09 279.794C601.71 279.794 603.696 280.771 605.047 282.724C606.398 284.66 607.073 287.403 607.073 290.951C607.073 294.483 606.422 297.242 605.12 299.228C603.834 301.213 601.824 302.206 599.09 302.206C596.535 302.206 594.59 301.213 593.255 299.228C591.92 297.242 591.253 294.483 591.253 290.951C591.253 287.403 591.88 284.66 593.133 282.724C594.402 280.771 596.388 279.794 599.09 279.794ZM599.114 283.798C598.056 283.798 597.275 284.392 596.771 285.58C596.282 286.768 596.038 288.567 596.038 290.976C596.038 293.368 596.282 295.175 596.771 296.396C597.275 297.6 598.056 298.202 599.114 298.202C600.188 298.202 600.986 297.6 601.507 296.396C602.044 295.191 602.312 293.384 602.312 290.976C602.312 288.583 602.052 286.793 601.531 285.604C601.01 284.4 600.205 283.798 599.114 283.798ZM623.064 280.307L603.265 316H598.553L618.353 280.307H623.064ZM622.405 294.076C625.026 294.076 627.011 295.053 628.362 297.006C629.729 298.943 630.413 301.685 630.413 305.233C630.413 308.749 629.762 311.5 628.46 313.485C627.174 315.471 625.156 316.464 622.405 316.464C619.85 316.464 617.905 315.471 616.57 313.485C615.236 311.5 614.568 308.749 614.568 305.233C614.568 301.685 615.195 298.943 616.448 297.006C617.718 295.053 619.703 294.076 622.405 294.076ZM622.43 298.08C621.372 298.08 620.59 298.674 620.086 299.862C619.598 301.05 619.354 302.849 619.354 305.258C619.354 307.65 619.598 309.457 620.086 310.678C620.59 311.882 621.372 312.484 622.43 312.484C623.52 312.484 624.326 311.89 624.847 310.702C625.368 309.498 625.628 307.683 625.628 305.258C625.628 302.865 625.368 301.075 624.847 299.887C624.326 298.682 623.52 298.08 622.43 298.08Z" fill="#F79019"/>
<path d="M225.707 249.791L271.816 217.749L270.157 215.361L224.046 247.403L225.707 249.791Z" fill="#121429"/>
<path d="M273.767 230.823C269.774 230.08 266.752 226.578 266.752 222.371C266.752 221.979 266.778 221.593 266.829 221.215L268.273 220.21C269.915 223.86 271.748 227.4 273.767 230.823M281.234 228.639C278.101 224.044 275.327 219.193 272.945 214.115C273.709 213.894 274.514 213.774 275.349 213.774C280.097 213.774 283.944 217.624 283.944 222.371C283.944 224.842 282.902 227.07 281.234 228.639" fill="#B9BCBD"/>
<path d="M275.349 230.968C274.808 230.968 274.279 230.919 273.767 230.823C271.749 227.4 269.915 223.86 268.273 220.211L270.357 218.764C272.45 222.911 274.797 226.904 277.379 230.727C276.728 230.885 276.049 230.968 275.349 230.968Z" fill="#949EA3"/>
<path d="M277.379 230.727C274.797 226.904 272.45 222.911 270.357 218.764L271.816 217.749L270.229 215.464C271.038 214.865 271.956 214.403 272.946 214.115C275.328 219.193 278.102 224.044 281.234 228.639C280.168 229.639 278.848 230.372 277.379 230.727Z" fill="#0C0F1D"/>
<path d="M266.829 221.215C267.145 218.864 268.411 216.814 270.229 215.464L271.815 217.749L270.357 218.764L268.273 220.211L266.829 221.215" fill="#0C0F1D"/>
<path d="M262.389 216.555C262.389 221.303 266.236 225.152 270.986 225.152C275.733 225.152 279.581 221.303 279.581 216.555C279.581 211.807 275.733 207.958 270.986 207.958C266.236 207.958 262.389 211.807 262.389 216.555Z" fill="url(#paint9_linear_1286_5698)"/>
<path d="M224.046 366.758L270.157 398.8L271.816 396.412L225.707 364.37L224.046 366.758Z" fill="#121429"/>
<path d="M275.349 412.02C273.684 412.02 272.129 411.547 270.812 410.727C272.987 405.402 275.587 400.297 278.57 395.45C281.721 396.725 283.944 399.815 283.944 403.423C283.944 408.171 280.097 412.02 275.349 412.02M266.752 403.314C266.778 401.233 267.543 399.331 268.798 397.857L269.067 398.043C268.25 399.778 267.479 401.531 266.752 403.314Z" fill="#B9BCBD"/>
<path d="M270.812 410.727C270.19 410.338 269.62 409.874 269.118 409.345C270.908 404.318 273.072 399.469 275.575 394.828C276.632 394.856 277.641 395.074 278.57 395.449C275.588 400.296 272.988 405.402 270.812 410.727Z" fill="#949EA3"/>
<path d="M269.118 409.346C267.651 407.803 266.752 405.718 266.752 403.423C266.752 403.387 266.752 403.35 266.752 403.314C267.479 401.531 268.25 399.777 269.067 398.043L270.156 398.8L271.815 396.413L271.126 395.933C272.374 395.227 273.813 394.826 275.349 394.826C275.424 394.826 275.499 394.826 275.574 394.829C273.072 399.469 270.908 404.319 269.118 409.346Z" fill="#0C0F1D"/>
<path d="M270.158 398.8L269.069 398.042L268.8 397.856C269.454 397.085 270.242 396.432 271.128 395.932L271.817 396.412L270.158 398.8Z" fill="#0C0F1D"/>
<path d="M262.389 397.607C262.389 392.859 266.236 389.01 270.986 389.01C275.733 389.01 279.581 392.859 279.581 397.607C279.581 402.355 275.733 406.204 270.986 406.204C266.236 406.204 262.389 402.355 262.389 397.607Z" fill="url(#paint10_linear_1286_5698)"/>
<path d="M477.906 321.493C477.022 321.493 476.17 321.359 475.369 321.112C474.881 317.461 474.58 313.748 474.479 309.988C474.525 308.282 474.612 306.585 474.739 304.901C475.719 304.513 476.788 304.299 477.906 304.299C482.654 304.299 486.503 308.149 486.503 312.896C486.503 317.644 482.654 321.493 477.906 321.493ZM470.138 316.581C469.607 315.464 469.311 314.215 469.311 312.896C469.311 311.609 469.593 310.389 470.099 309.294C470.103 309.526 470.109 309.757 470.115 309.988C470.09 310.956 470.077 311.922 470.077 312.896C470.077 314.128 470.097 315.36 470.138 316.581Z" fill="#B9BCBD"/>
<path d="M470.554 317.351C470.402 317.102 470.264 316.846 470.139 316.581C470.098 315.36 470.078 314.128 470.078 312.897C470.078 311.922 470.091 310.957 470.116 309.988C470.181 312.463 470.328 314.919 470.554 317.351ZM474.48 309.988C474.454 309.023 474.441 308.053 474.441 307.08C474.441 306.391 474.446 305.704 474.461 305.018C474.553 304.979 474.646 304.94 474.74 304.902C474.614 306.586 474.526 308.283 474.48 309.988Z" fill="#949EA3"/>
<path d="M475.368 321.113C473.34 320.488 471.633 319.131 470.552 317.351C470.327 314.92 470.18 312.464 470.115 309.989C470.109 309.758 470.103 309.527 470.099 309.295C470.978 307.391 472.534 305.862 474.46 305.019C474.445 305.705 474.439 306.392 474.439 307.081C474.439 308.054 474.452 309.024 474.479 309.989C474.58 313.75 474.881 317.462 475.368 321.113Z" fill="#0C0F1D"/>
<path d="M464.949 307.08C464.949 311.828 468.797 315.677 473.545 315.677C478.292 315.677 482.142 311.828 482.142 307.08C482.142 302.333 478.292 298.483 473.545 298.483C468.797 298.483 464.949 302.333 464.949 307.08Z" fill="url(#paint11_linear_1286_5698)"/>
<path d="M272.434 310.349C270.629 378.663 213.787 432.581 145.471 430.776C77.1574 428.972 23.2408 372.128 25.0439 303.815C26.8485 235.5 83.6908 181.582 152.006 183.388C220.32 185.191 274.237 242.035 272.434 310.349Z" fill="white"/>
<path d="M699.763 301.575H699.036C699.036 304.8 697.732 307.713 695.618 309.827C693.503 311.94 690.591 313.245 687.367 313.245C684.141 313.245 681.229 311.94 679.116 309.827C677.003 307.713 675.699 304.8 675.697 301.575C675.699 298.35 677.003 295.437 679.116 293.323C681.229 291.21 684.141 289.906 687.367 289.906C690.591 289.906 693.503 291.21 695.618 293.323C697.732 295.437 699.036 298.35 699.036 301.575H699.763H700.49C700.49 294.326 694.614 288.452 687.367 288.452C680.118 288.452 674.245 294.328 674.243 301.575C674.245 308.824 680.118 314.699 687.367 314.699C694.614 314.699 700.49 308.824 700.49 301.575H699.763Z" fill="white"/>
<path d="M692.4 312.393L691.43 320.683H683.585L682.33 312.368L680.892 312.586L682.333 322.137H692.724L693.844 312.561L692.4 312.393" fill="white"/>
<path d="M683.277 296.177C683.245 296.203 682.537 296.757 681.814 297.709C681.096 298.66 680.338 300.029 680.334 301.689C680.327 303.354 681.145 305.213 683.261 306.949C683.571 307.205 684.029 307.161 684.285 306.852C684.541 306.542 684.497 306.084 684.188 305.828C682.309 304.263 681.797 302.88 681.788 301.689C681.784 300.494 682.36 299.393 682.972 298.588C683.277 298.186 683.584 297.864 683.812 297.644L684.084 297.397L684.156 297.337L684.173 297.323C684.488 297.075 684.545 296.617 684.298 296.302C684.049 295.985 683.593 295.93 683.277 296.177" fill="white"/>
<path d="M683.152 327.186H692.273V325.731H683.152V327.186Z" fill="white"/>
<path d="M148.741 426.303C86.9098 426.303 36.7871 376.181 36.7871 314.351C36.7871 313.136 36.8075 311.922 36.8453 310.716C38.7618 370.865 88.1255 419.032 148.741 419.032C209.354 419.032 258.718 370.865 260.634 310.716C260.672 311.922 260.693 313.136 260.693 314.351C260.693 376.181 210.57 426.303 148.741 426.303" fill="#CAD5D7"/>
<path d="M260.693 307.081C260.693 368.909 210.57 419.032 148.741 419.032C86.9098 419.032 36.7871 368.909 36.7871 307.081C36.7871 245.251 86.9098 195.128 148.741 195.128C210.57 195.128 260.693 245.251 260.693 307.081Z" fill="white"/>
<path d="M249.751 307.08C249.751 362.867 204.527 408.092 148.74 408.092C92.9522 408.092 47.7285 362.867 47.7285 307.08C47.7285 251.293 92.9522 206.07 148.74 206.07C204.527 206.07 249.751 251.293 249.751 307.08Z" fill="url(#paint12_radial_1286_5698)"/>
<path d="M149.582 264.396C162.384 264.396 173.972 269.586 182.354 277.975C190.743 286.364 195.933 297.952 195.933 310.747C195.933 323.549 190.743 335.137 182.354 343.518C173.965 351.907 162.377 357.097 149.582 357.097C136.787 357.097 125.192 351.907 116.811 343.518C108.422 335.137 103.231 323.549 103.231 310.747C103.231 297.944 108.422 286.357 116.811 277.975C125.192 269.586 136.78 264.396 149.582 264.396ZM138.304 330.052C142.83 339.49 156.553 339.821 160.891 330.105C159.706 328.905 158.831 327.63 157.964 326.355C157.82 326.144 157.677 325.94 157.534 325.729C155.444 327.389 152.902 328.445 149.59 328.437C146.021 328.43 143.336 327.064 141.133 325.05C141.005 324.93 140.869 324.809 140.741 324.681C140.424 325.556 140.024 326.604 139.594 327.585C139.179 328.528 138.734 329.411 138.304 330.052ZM173.135 345.744L174.161 334.82C170.366 334.08 166.3 333.281 162.098 330.859C158.952 341.338 142.046 342.583 137.285 331.131C133.513 333.032 129.673 334.118 125.298 334.79L126.784 346.234C133.355 350.466 141.186 352.926 149.59 352.926C158.303 352.926 166.405 350.278 173.135 345.744ZM115.724 335.906L115.905 335.801C120.402 333.296 132.103 332.466 136.961 329.079C137.315 328.543 137.7 327.766 138.07 326.921C138.628 325.646 139.134 324.258 139.458 323.308C138.1 321.708 136.938 319.905 135.822 318.125L132.14 312.271C130.797 310.264 130.096 308.431 130.051 306.922C130.028 306.213 130.149 305.571 130.413 305.006C130.684 304.41 131.107 303.919 131.68 303.535C131.944 303.354 132.246 303.203 132.57 303.082C132.329 299.906 132.246 295.908 132.397 292.558C132.472 291.766 132.631 290.966 132.849 290.174C133.792 286.817 136.146 284.109 139.066 282.253C140.673 281.227 142.438 280.457 144.279 279.937C145.448 279.605 143.283 275.871 144.49 275.742C150.337 275.139 159.789 280.48 163.871 284.893C165.915 287.104 167.198 290.038 167.477 293.916L167.25 303.467C168.269 303.776 168.925 304.425 169.189 305.473C169.483 306.635 169.167 308.272 168.178 310.498C168.163 310.535 168.141 310.581 168.118 310.618L163.923 317.529C162.384 320.064 160.815 322.613 158.778 324.62C158.959 324.884 159.148 325.148 159.329 325.42C160.159 326.634 160.996 327.857 162.068 328.943C162.105 328.981 162.135 329.018 162.158 329.056C166.986 332.466 178.74 333.296 183.251 335.808L183.432 335.914C188.66 328.89 191.753 320.184 191.753 310.754C191.753 299.106 187.031 288.56 179.396 280.933C171.777 273.29 161.23 268.568 149.582 268.568C137.934 268.568 127.388 273.29 119.76 280.925C112.126 288.552 107.403 299.099 107.403 310.747C107.403 320.177 110.496 328.883 115.724 335.906ZM134.698 304.787C133.883 304.817 133.264 304.991 132.842 305.27C132.6 305.428 132.427 305.639 132.314 305.881C132.186 306.152 132.133 306.484 132.14 306.869C132.17 307.986 132.759 309.449 133.89 311.139L133.906 311.162L137.587 317.016C139.066 319.362 140.612 321.753 142.536 323.511C144.384 325.201 146.625 326.348 149.597 326.355C152.811 326.363 155.157 325.171 157.066 323.391C159.05 321.535 160.612 318.992 162.158 316.45L166.307 309.623C167.077 307.857 167.363 306.68 167.182 305.986C167.077 305.571 166.624 305.375 165.847 305.33C165.681 305.323 165.515 305.323 165.342 305.323C165.161 305.33 164.964 305.338 164.761 305.36C164.648 305.368 164.542 305.36 164.444 305.338C164.074 305.36 163.697 305.33 163.305 305.277L164.723 298.993C154.192 300.653 146.308 292.83 135.173 297.431L135.973 304.84C135.512 304.862 135.09 304.847 134.698 304.787Z" fill="white"/>
<defs>
<linearGradient id="paint0_linear_1286_5698" x1="368.132" y1="169.534" x2="482.666" y2="169.534" gradientUnits="userSpaceOnUse">
<stop stop-color="#EE2646"/>
<stop offset="0.00372263" stop-color="#EE2646"/>
<stop offset="0.992551" stop-color="#EA0986"/>
<stop offset="1" stop-color="#EA0986"/>
</linearGradient>
<linearGradient id="paint1_linear_1286_5698" x1="368.133" y1="169.534" x2="482.667" y2="169.534" gradientUnits="userSpaceOnUse">
<stop stop-color="#ED1C2F"/>
<stop offset="0.00372263" stop-color="#ED1C2F"/>
<stop offset="0.992551" stop-color="#B10F66"/>
<stop offset="1" stop-color="#B10F66"/>
</linearGradient>
<linearGradient id="paint2_linear_1286_5698" x1="449.129" y1="169.533" x2="501.659" y2="169.533" gradientUnits="userSpaceOnUse">
<stop stop-color="#EE2646"/>
<stop offset="0.00372263" stop-color="#EE2646"/>
<stop offset="0.992551" stop-color="#EA0986"/>
<stop offset="1" stop-color="#EA0986"/>
</linearGradient>
<linearGradient id="paint3_linear_1286_5698" x1="368.132" y1="444.628" x2="482.666" y2="444.628" gradientUnits="userSpaceOnUse">
<stop stop-color="#43C0F2"/>
<stop offset="0.011172" stop-color="#43C0F2"/>
<stop offset="0.992551" stop-color="#3058AF"/>
<stop offset="1" stop-color="#3058AF"/>
</linearGradient>
<linearGradient id="paint4_linear_1286_5698" x1="368.133" y1="444.628" x2="482.667" y2="444.628" gradientUnits="userSpaceOnUse">
<stop stop-color="#3693BF"/>
<stop offset="0.011172" stop-color="#3693BF"/>
<stop offset="0.992551" stop-color="#234889"/>
<stop offset="1" stop-color="#234889"/>
</linearGradient>
<linearGradient id="paint5_linear_1286_5698" x1="449.127" y1="444.628" x2="501.657" y2="444.628" gradientUnits="userSpaceOnUse">
<stop stop-color="#43C0F2"/>
<stop offset="0.011172" stop-color="#43C0F2"/>
<stop offset="0.992551" stop-color="#3058AF"/>
<stop offset="1" stop-color="#3058AF"/>
</linearGradient>
<linearGradient id="paint6_linear_1286_5698" x1="579.522" y1="307.08" x2="694.056" y2="307.08" gradientUnits="userSpaceOnUse">
<stop stop-color="#F25132"/>
<stop offset="0.245091" stop-color="#F25132"/>
<stop offset="1" stop-color="#F6881F"/>
</linearGradient>
<linearGradient id="paint7_linear_1286_5698" x1="579.522" y1="307.08" x2="694.056" y2="307.08" gradientUnits="userSpaceOnUse">
<stop stop-color="#DF421F"/>
<stop offset="0.245091" stop-color="#DF421F"/>
<stop offset="1" stop-color="#D5701A"/>
</linearGradient>
<linearGradient id="paint8_linear_1286_5698" x1="660.521" y1="307.081" x2="713.05" y2="307.081" gradientUnits="userSpaceOnUse">
<stop stop-color="#F25132"/>
<stop offset="0.245091" stop-color="#F25132"/>
<stop offset="1" stop-color="#F6881F"/>
</linearGradient>
<linearGradient id="paint9_linear_1286_5698" x1="262.389" y1="216.555" x2="279.582" y2="216.555" gradientUnits="userSpaceOnUse">
<stop stop-color="#EE2646"/>
<stop offset="0.00372263" stop-color="#EE2646"/>
<stop offset="0.992551" stop-color="#EA0986"/>
<stop offset="1" stop-color="#EA0986"/>
</linearGradient>
<linearGradient id="paint10_linear_1286_5698" x1="262.389" y1="397.607" x2="279.582" y2="397.607" gradientUnits="userSpaceOnUse">
<stop stop-color="#43C0F2"/>
<stop offset="0.011172" stop-color="#43C0F2"/>
<stop offset="0.992551" stop-color="#3058AF"/>
<stop offset="1" stop-color="#3058AF"/>
</linearGradient>
<linearGradient id="paint11_linear_1286_5698" x1="464.948" y1="307.08" x2="482.141" y2="307.08" gradientUnits="userSpaceOnUse">
<stop stop-color="#F25132"/>
<stop offset="0.245091" stop-color="#F25132"/>
<stop offset="1" stop-color="#F6881F"/>
</linearGradient>
<radialGradient id="paint12_radial_1286_5698" cx="0" cy="0" r="1" gradientUnits="userSpaceOnUse" gradientTransform="translate(148.74 307.081) rotate(-90) scale(101.011 101.011)">
<stop stop-color="#0013DE" stop-opacity="0"/>
<stop offset="1" stop-color="#000965"/>
</radialGradient>
</defs>
</svg>
