<svg width="750" height="600" viewBox="0 0 750 600" fill="none" xmlns="http://www.w3.org/2000/svg">
<path d="M249.725 400.992L283.512 379.031L282.498 352.452L243.024 370.81L249.725 400.992Z" fill="#100F0D"/>
<path d="M293.987 514.627H298.83L283.175 374.244L274.672 354.141L160.643 355.549V384.774H160.924L144.819 515.416H149.718L177.705 384.774H268.084L293.987 514.627" fill="#100F0D"/>
<path d="M136.88 180.816C128.264 154.238 122.014 153.844 97.068 154.125C76.1203 154.35 69.4194 165.275 70.0388 183.238L102.868 346.314C103.487 364.277 117.959 376.328 135.022 373.062C152.028 369.796 175.847 358.646 174.721 340.683L136.88 180.816" fill="#1E1C1B"/>
<path d="M263.467 544.078H268.76L253.499 402.907L253.725 367.093L116.495 371.147V402.907H116.833L99.3203 544.923H104.557L135.021 402.907H235.311L263.467 544.078" fill="#100F0D"/>
<path d="M127.364 371.203C121.395 371.203 120.945 369.119 126.351 366.585L159.63 351.212C165.092 348.735 174.44 346.707 180.409 346.707L274.336 347.27C280.305 347.327 285.485 350.818 280.811 354.535L262.51 365.121C257.78 368.838 248.996 371.822 243.027 371.822L127.364 371.203" fill="#100F0D"/>
<path d="M281.316 466.013C284.094 473.802 282.086 482.149 280.991 492.641C279.921 503.14 277.468 511.049 288.011 513.445C298.548 515.841 350.447 514.722 350.447 514.722C350.447 514.722 359.764 502.289 336.138 499.305C317.793 496.996 308.258 480.716 308.796 465.418C308.921 461.489 281.316 466.013 281.316 466.013Z" fill="#100F0D"/>
<path d="M267.496 490.033C266.52 498.792 265.031 514.766 267.69 526.791C268.497 530.42 276.506 530.208 276.506 530.208C276.506 530.208 272.889 520.804 285.29 531.941C298.204 543.547 318.432 539.099 321.517 537.228C324.664 535.357 328.318 532.51 320.897 525.484C314.534 519.459 303.829 513.64 301.345 507.971C298.874 502.328 298.123 484.464 298.123 484.464L267.496 490.033" fill="#100F0D"/>
<path d="M230.638 327.113C347.877 329.027 335.432 352.565 335.263 358.14C333.799 408.369 328.45 493.117 328.45 493.117L278.727 496.721C278.727 496.721 268.31 414.845 279.853 377.68C283.345 366.361 173.595 349.468 173.595 349.468L230.638 327.113" fill="#182242"/>
<path d="M240.83 334.377C327.493 343.612 323.213 347.216 322.65 362.983C321.411 394.517 312.908 508.603 312.908 508.603L262.172 505.449C262.172 505.449 262.172 441.762 264.368 381.453C264.425 378.975 252.937 379.482 237.283 379.932C205.186 380.889 155.745 381.847 154.168 357.689C152.197 328.126 166.331 296.986 166.331 296.986L240.83 334.377" fill="#273D7E"/>
<path d="M180.184 232.341C187.561 197.71 189.082 189.545 198.091 175.523C206.594 162.29 216.392 151.535 224.107 146.411C224.107 146.411 236.383 159.306 243.365 169.329C245.336 172.089 255.754 184.646 257.612 188.362C262.624 197.991 266.453 231.046 265.833 256.329C264.876 291.299 251.924 362.813 251.924 362.813C190.489 360.223 150.846 347.497 150.79 343.217C150.734 333.532 166.895 294.734 180.184 232.341Z" fill="#182242"/>
<path d="M231.338 125.626C229.335 133.146 227.596 141.993 220.269 151.347C214.67 158.492 219.224 159.487 219.224 159.487L246.022 180.579C246.022 180.579 250.108 163.423 257.503 158.374C264.88 153.337 231.338 125.626 231.338 125.626" fill="#DCA296"/>
<path d="M295.907 90.7124C289.375 69.8273 240.622 53.5097 231.325 85.5506C214.338 143.882 250.402 156.934 250.402 156.934C262.953 158.398 265.894 160.219 275.466 157.898C280.134 156.778 283.857 150.884 287.723 142.731C291.784 142.412 296.301 142.913 296.233 140.041C294.725 135.961 295.006 128.772 294.399 125.894C298.053 112.767 299.048 100.536 295.907 90.7124Z" fill="#DCA296"/>
<path d="M260.932 158.693C270.774 160.05 266.688 160.388 275.341 158.298C279.99 157.191 283.7 151.272 287.573 143.132C291.653 142.819 296.164 143.307 296.095 140.442C294.587 136.337 294.837 129.167 294.256 126.289C297.916 113.168 303.165 103.42 300.024 93.6036C299.693 92.5649 295 89.0486 294.456 88.0475L291.09 91.0132C288.843 114.207 273.677 153.95 258.523 155.483L237.97 175.542L246.022 180.579C246.022 180.579 256.458 166.107 260.932 158.693" fill="#E9C3B5"/>
<path d="M237.871 68.9453C243.121 63.871 249.984 58.559 265.407 62.2255C280.38 65.7981 289.802 70.2029 297.229 82.7415C301.04 89.0858 296.46 94.6418 296.46 94.6418C296.46 94.6418 288.188 87.4716 284.378 87.6155C280.561 87.7782 275.831 93.9412 269.53 99.5597C264.231 104.265 266.458 111.448 266.458 111.448C266.458 111.448 249.84 113.55 248.408 118.486C246.969 123.442 222.993 142.656 222.993 142.656C222.993 142.656 219.508 111.36 219.42 99.3845C219.201 71.4355 236.632 70.1841 237.871 68.9453" fill="#211311"/>
<path d="M274.742 100.474C281.018 94.8806 280.736 94.1048 284.547 93.9484C288.332 93.8045 301.934 102.895 301.934 102.895C301.934 102.895 309.305 95.2622 305.463 88.8428C298.017 76.3293 285.635 65.9367 270.632 62.3704C264.575 60.9313 259.107 60.8376 254.352 61.5759C260.971 65.8743 272.947 76.98 263.755 111.755C268.31 110.529 266.796 111.467 266.796 111.467C266.796 111.467 269.412 105.192 274.742 100.474Z" fill="#3A1A14"/>
<path d="M259.913 114.288C259.287 110.784 256.766 104.077 250.265 107.649C246.442 109.745 245.128 122.284 250.89 127.308C256.572 132.307 259.913 114.288 259.913 114.288Z" fill="#DCA296"/>
<path d="M254.651 178.708L253.912 214.271L227.415 162.209L254.651 178.708Z" fill="#AECCE5"/>
<path d="M254.488 167.633L258.267 171.632L257.636 188.375L248.507 178.477L254.488 167.633" fill="#AECCE5"/>
<path d="M249.789 179.396L243.852 187.43L252.486 201.557L255.189 201.426L254.838 186.385L249.789 179.396" fill="#6A1317"/>
<path d="M255.07 196.414L257.198 223.431L248.751 198.642L255.07 196.414Z" fill="#A51C21"/>
<path d="M219.351 149.158L207.188 161.577L230.331 181.436L239.466 194.544L237.589 201.595L263.699 254.853C263.699 254.853 260.908 209.76 255.071 196.415C249.214 183.075 219.351 149.158 219.351 149.158" fill="#273D7E"/>
<path d="M222.028 144.615L253.618 173.734L244.877 186.416L216.259 151.454L222.028 144.615Z" fill="white"/>
<path d="M225.57 301.603C216.109 303.067 194.261 305.263 194.261 305.263C194.261 305.263 184.801 316.188 191.333 319.792C197.865 323.452 230.638 322.72 230.638 322.72L225.57 301.603" fill="#273D7E"/>
<path d="M405.659 239.937C402.812 240.368 396.437 240.018 390.974 238.979C385.518 237.941 369.076 240.888 371.209 242.552C373.362 244.21 372.411 244.26 380.363 244.223C388.334 244.198 387.877 248.352 389.335 249.084C390.799 249.816 385.863 268.023 385.863 268.023C385.863 268.023 407.286 259.12 411.29 255.61C415.276 252.1 405.659 239.937 405.659 239.937" fill="#E9C3B5"/>
<path d="M339.612 238.503C347.102 240.086 368.137 243.165 370.283 243.071C372.429 242.971 392.057 244.022 393.758 244.673C395.466 245.311 407.254 258.406 408.299 260.046C409.313 261.66 408.499 264.807 403.682 263.818C403.682 263.818 402.424 267.942 397.825 266.227C396.981 269.124 393.69 270.238 392.97 270.031C392.282 271.007 388.521 272.365 387.295 271.708C386.081 271.045 379.856 265.351 377.935 264.945C376.002 264.557 364.376 264.726 360.003 262.773C355.617 260.803 342.065 261.741 341.076 261.316C340.113 260.872 339.612 238.503 339.612 238.503" fill="#DCA296"/>
<path d="M385.962 270.094C383.923 270.983 379.668 271.959 379.155 271.352C378.654 270.726 373.574 270.952 372.998 269.062C368.349 268.161 367.548 268.199 367.511 267.085C365.077 265.909 362.374 266.19 363.094 264.401C363.807 262.63 366.654 262.011 368.587 262.736C371.246 261.66 373.643 261.71 374.218 263.919C376.734 263.018 380.231 262.862 380.813 265.383C383.228 265.909 385.893 264.851 385.831 267.229C385.774 269.613 385.962 270.094 385.962 270.094" fill="#E9C3B5"/>
<path d="M410.814 234.75L402.235 236.802L408.067 265.439L425.054 261.072L410.814 234.75Z" fill="#AECCE5"/>
<path d="M532.809 152.335C530.669 158.129 517.686 154.525 512.912 164.961C507.087 177.706 480.934 207.902 472.625 213.013C467.35 216.261 405.146 234.368 405.146 234.368C405.146 234.368 415.963 262.354 421.175 268.354C427.344 265.921 477.893 253.814 483.78 251.843C501.256 246.024 546.411 213.501 546.411 213.501L532.809 152.335Z" fill="#100F0D"/>
<path d="M524.717 134.767L510.577 155.139L518.429 169.398L529.554 139.822L524.717 134.767" fill="#AECCE5"/>
<path d="M522.241 90.4877C524.099 98.0897 540.479 123.561 548.707 132.164C556.916 140.767 557.879 137.977 557.879 137.977L523.404 158.273C523.404 158.273 512.292 144.021 504.991 138.871C497.652 133.716 522.241 90.4877 522.241 90.4877" fill="#DCA296"/>
<path d="M472.932 105.31C479.301 130.131 489.969 149.927 501.137 147.606C512.293 145.31 533.629 120.796 529.049 98.703C524.475 76.6354 509.803 58.5596 489.537 66.1365C467.432 74.3704 467.339 83.4741 472.932 105.31Z" fill="#E9C3B5"/>
<path d="M467.044 68.764C464.392 79.5006 466.869 85.7823 472.212 85.4444C477.506 85.1128 482.549 83.5924 486.672 86.0012C490.545 88.2537 496.357 87.8658 499.223 89.3549C502.076 90.819 495.713 80.9396 495.713 80.9396L501.363 88.4665L499.329 80.5454L501.651 84.3871L510.961 89.0546L512.907 95.5491L519.714 99.4284L521.428 94.4792L528.229 107.449L539.36 120.307C539.36 120.307 545.78 105.842 545.936 98.3272C546.161 89.3925 544.922 87.628 543.896 82.7665C542.589 76.6224 542.232 75.1896 540.599 69.521C538.784 63.3706 531.752 55.218 527.422 54.6361C523.105 54.073 520.446 53.5412 518.513 54.9051C516.548 56.2879 515.691 51.5452 509.421 50.9446C503.171 50.3189 503.19 49.3805 494.468 50.5755C485.765 51.8018 480.39 55.4245 474.008 59.9732C469.797 62.9952 467.044 68.764 467.044 68.764" fill="#211311"/>
<path d="M493.877 104.359C493.57 103.189 492.7 102.52 491.975 102.614H491.943L491.837 102.632L483.447 105.104C482.696 105.323 482.264 106.268 482.471 107.394L482.571 107.782L483.772 111.792C484.11 112.868 484.986 113.5 485.712 113.388L486.018 113.331L493.914 111.029C494.634 110.835 495.122 109.903 494.978 108.82L494.965 108.733L494.202 105.754L493.877 104.359ZM486.713 116.128L486.256 116.203C484.26 116.472 482.227 114.858 481.457 112.474L482.602 112.124L481.457 112.468L480.174 108.395L480.005 107.725C479.48 105.204 480.493 102.701 482.533 102.063L490.942 99.5665L491.449 99.4601C493.608 99.1785 495.641 101.037 496.248 103.658L496.611 105.066L497.262 107.857L497.393 108.501C497.731 110.935 496.598 113.256 494.615 113.857L486.713 116.128" fill="#3A1A14"/>
<path d="M476.134 108.964C475.84 107.587 475.264 107.137 475.258 107.137V107.105L471.817 108.332C471.804 108.332 471.548 108.701 471.761 109.946L471.861 110.509L472.737 114.332C473.037 115.702 473.606 116.153 473.606 116.134L473.706 116.115L477.041 114.958C477.041 114.964 477.298 114.539 477.11 113.344L477.029 112.974L476.134 108.964ZM474.238 118.874L474.057 118.925C472.787 118.887 471.817 116.96 471.291 114.826L470.403 110.935L470.24 110.077C469.934 108.157 470.071 106.036 471.191 105.541L474.632 104.353L474.764 104.309L474.814 104.296C476.103 104.334 477.066 106.317 477.561 108.463L478.436 112.374L478.587 113.193C478.887 115.114 478.737 117.204 477.636 117.698L474.238 118.874" fill="#3A1A14"/>
<path d="M495.805 102.32C495.805 102.32 528.384 88.1669 529.379 88.8989C530.536 90.2003 532.15 91.3327 532.15 91.3327L528.177 91.0387L496.38 107.388L495.805 102.32" fill="#3A1A14"/>
<path d="M489.697 125.757C492.256 125.456 497.118 127.14 498.532 128.103C499.921 129.079 508.124 132.952 508.818 136.831C509.506 140.729 506.941 147.918 501.304 149.745C499.433 150.346 492.175 151.009 489.685 146.535C488.596 144.565 484.21 137.019 486.481 136.475C488.709 135.937 491.481 135.492 492.2 134.798C494.19 132.908 492.857 131.601 491.837 131.719C490.811 131.832 491.124 132.708 490.367 132.796C489.591 132.896 484.379 136.769 483.547 135.999C479.949 132.652 480.781 129.78 480.781 129.78L489.697 125.757" fill="#211311"/>
<path d="M517.304 91.8197C518.474 86.4576 524.643 84.8372 527.252 88.316C529.848 91.8636 531.957 106.523 525.175 110.027C518.392 113.512 517.304 91.8197 517.304 91.8197Z" fill="#E9C3B5"/>
<path d="M481.258 107.707L476.784 108.476L477.322 112.093L482.008 110.785L481.258 107.707Z" fill="#3A1A14"/>
<path d="M547.115 125.075L541.547 121.396L515.519 152.63L524.935 172.283L547.115 125.075Z" fill="white"/>
<path d="M513.262 397.501L479.476 375.483L480.489 348.961L519.963 367.318L513.262 397.501Z" fill="#100F0D"/>
<path d="M471.367 508.771H466.524L482.179 368.388L490.682 348.341L604.711 349.692V378.918H604.374L620.535 509.615H615.636L587.649 378.918H497.27L471.367 508.771" fill="#100F0D"/>
<path d="M628.136 177.55C637.089 151.028 643.34 150.746 668.286 151.309C689.233 151.816 695.822 162.797 694.921 180.76L660.064 343.442C659.22 361.405 644.579 373.23 627.629 369.739C610.623 366.304 586.973 354.817 588.268 336.91L628.136 177.55" fill="#1E1C1B"/>
<path d="M494.792 538.221H489.499L504.703 397.106L504.478 361.236L648.859 365.347V397.106H648.521L666.034 539.122H660.74L630.332 397.106H522.948L494.792 538.221" fill="#100F0D"/>
<path d="M637.991 365.404C643.96 365.347 644.41 363.264 638.948 360.786L605.668 345.413C600.263 342.879 590.915 340.852 584.946 340.909L491.019 341.472C484.994 341.472 479.814 344.963 484.544 348.679L502.845 359.322C507.575 362.982 516.303 366.023 522.328 365.967L637.991 365.404" fill="#100F0D"/>
<path d="M469.171 473.603C466.312 481.605 468.376 490.189 469.496 500.995C470.604 511.769 473.125 519.909 462.276 522.374C451.458 524.821 398.106 523.675 398.106 523.675C398.106 523.675 388.515 510.905 412.81 507.833C431.668 505.475 441.478 488.713 440.921 473.002C440.79 468.966 469.171 473.603 469.171 473.603Z" fill="#100F0D"/>
<path d="M485.444 538.642L477.642 534.8C477.642 534.8 484.036 527.668 485.281 527.962C486.508 528.218 485.444 538.642 485.444 538.642" fill="#100F0D"/>
<path d="M495.093 494.631C496.156 504.185 497.789 521.635 494.867 534.774C493.998 538.729 485.263 538.479 485.263 538.479C485.263 538.479 489.205 528.217 475.678 540.381C461.581 553.063 439.495 548.189 436.104 546.168C432.681 544.103 428.702 540.994 436.798 533.336C443.737 526.753 455.431 520.409 458.165 514.221C460.837 508.046 461.669 488.543 461.669 488.543L495.093 494.631" fill="#100F0D"/>
<path d="M559.267 305.714C479.193 321.763 437.241 319.679 432.567 353.072C428.288 383.761 422.882 491.202 422.882 491.202L479.418 489.682C479.418 489.682 502.449 410.002 485.387 368.219C480.206 355.549 613.044 332.856 613.044 332.856L559.267 305.714" fill="#100F0D"/>
<path d="M541.417 320.749C532.182 326.493 456.106 324.015 451.939 353.353C446.252 393.841 453.065 438.721 446.533 498.354L496.425 505.618C496.425 505.618 499.691 471.831 502.788 385.563C503.013 379.087 610.961 386.858 617.831 370.134C625.658 350.932 614.959 328.239 614.959 328.239L541.417 320.749" fill="#100F0D"/>
<path d="M506.109 386.069C506.391 379.594 548.905 376.665 546.146 368.726C532.35 369.063 497.268 369.796 488.54 379.988C481.22 388.547 476.771 471.099 476.996 503.252L499.014 506.237C499.014 506.237 502.561 472.394 506.109 386.069Z" fill="#1E1C1B"/>
<path d="M536.913 348.568L514.895 324.917C514.895 324.917 504.647 264.214 502.957 224.796C501.775 196.303 514.614 189.489 520.076 178.565C522.159 174.398 527.002 161.334 529.142 158.18C536.913 146.749 547.33 127.547 547.33 127.547C563.379 145.792 581.117 154.126 589.62 198.217C598.066 242.253 596.095 245.856 600.826 262.806C608.765 291.018 623.857 323.734 628.981 346.934C628.981 346.934 538.715 362.589 536.913 348.568Z" fill="#100F0D"/>
<path d="M573.177 309.487L536.124 303.406L538.207 321.988L577.062 329.703L573.177 309.487Z" fill="#1E1C1B"/>
<path d="M556.39 133.922L543 119.575C533.14 150.953 529.229 150.002 523.104 164.949C513.23 196.352 506.461 232.929 505.866 237.528C508.2 234.093 532.451 175.773 532.451 175.773L529.016 164.812L537.138 159.919L556.39 133.922" fill="#1E1C1B"/>
<path d="M615.923 307.88H199.854L270.237 276.07H516.672L615.923 307.88Z" fill="#7FA6DB"/>
<path d="M364.052 296.879L478.494 297.204L463.947 277.308L384.342 276.544L364.052 296.879Z" fill="white"/>
<path d="M244.264 550.442H268.648V322.27H244.264V550.442Z" fill="#7FA6DB"/>
<path d="M546.711 550.442H571.039V322.27H546.711V550.442Z" fill="#7FA6DB"/>
<path d="M109.286 413.831L116.306 407.168L115.487 413.806L109.286 413.831ZM132.699 413.737L135.02 402.907H158.69L157.363 413.643L132.699 413.737ZM171.528 413.587L173.818 402.907H235.31L237.387 413.337L171.528 413.587ZM332.972 412.961C333.929 393.759 334.793 374.188 335.262 358.14C335.412 353.259 344.979 334.608 268.646 328.758V322.27H258.579C258.66 321.738 258.741 321.206 258.817 320.674L472.085 321.763C448.196 327.525 435.063 335.24 432.567 353.072C430.909 364.959 429.082 388.378 427.468 412.598L332.972 412.961" fill="url(#paint0_linear_1286_5700)"/>
<path d="M157.364 413.644L158.691 402.907H173.82L171.53 413.587L157.364 413.644" fill="url(#paint1_linear_1286_5700)"/>
<path d="M115.488 413.806L116.308 407.167L154.049 371.347L163.159 371.397C175.015 378.78 196.714 380.307 216.986 380.307C224.087 380.307 231.019 380.119 237.282 379.931C239.723 379.863 242.056 379.788 244.265 379.731V413.305L237.389 413.336L235.312 402.906H173.82H158.691H135.022L132.701 413.737L115.488 413.806" fill="url(#paint2_linear_1286_5700)"/>
<path d="M163.158 371.397L154.048 371.347L158.252 367.362C159.604 368.87 161.249 370.209 163.158 371.397Z" fill="url(#paint3_linear_1286_5700)"/>
<path d="M319.69 413.018C321.079 392.127 322.249 373.213 322.649 362.983C323.144 349.137 326.504 344.669 268.647 337.536V328.758C344.98 334.608 335.413 353.26 335.263 358.14C334.794 374.189 333.93 393.76 332.973 412.962L319.69 413.018Z" fill="url(#paint4_linear_1286_5700)"/>
<path d="M268.646 413.211V337.536C326.503 344.669 323.143 349.136 322.648 362.982C322.248 373.212 321.078 392.126 319.689 413.018L268.646 413.211ZM216.984 380.307C196.712 380.307 175.014 378.781 163.157 371.398C161.249 370.209 159.603 368.87 158.252 367.362L173.838 352.571C190.124 356.644 214.35 360.717 244.264 362.432V379.732C242.055 379.788 239.721 379.863 237.281 379.932C231.018 380.119 224.086 380.307 216.984 380.307" fill="url(#paint5_linear_1286_5700)"/>
<path d="M244.266 362.432C214.352 360.718 190.126 356.644 173.84 352.571L205.762 322.27C212.081 322.689 219.039 322.783 223.988 322.783C227.967 322.783 230.639 322.72 230.639 322.72L230.113 320.524L258.819 320.674C258.744 321.206 258.663 321.738 258.581 322.27H244.266V362.432Z" fill="url(#paint6_linear_1286_5700)"/>
<path d="M223.986 322.782C219.037 322.782 212.079 322.688 205.76 322.269L207.718 320.411L230.111 320.523L230.637 322.719C230.637 322.719 227.965 322.782 223.986 322.782Z" fill="url(#paint7_linear_1286_5700)"/>
<path d="M519.926 412.235L522.948 397.106H546.711V409.995L544.74 412.141L519.926 412.235Z" fill="url(#paint8_linear_1286_5700)"/>
<path d="M504.959 412.299C505.341 404.152 505.728 395.424 506.11 386.07C506.148 385.194 506.961 384.381 508.325 383.618C515.946 382.629 530.568 382.435 546.71 382.022V397.107H522.947L519.925 412.236L504.959 412.299" fill="url(#paint9_linear_1286_5700)"/>
<path d="M427.471 412.598C429.085 388.378 430.912 364.959 432.57 353.072C435.067 335.24 448.199 327.525 472.088 321.763L514.408 321.976C514.721 323.871 514.896 324.916 514.896 324.916L515.178 325.216C489.582 328.357 454.725 333.757 451.941 353.353C449.344 371.829 449.351 391.219 449.507 412.511L427.471 412.598Z" fill="url(#paint10_linear_1286_5700)"/>
<path d="M449.504 412.511C449.348 391.219 449.342 371.83 451.938 353.353C454.723 333.757 489.579 328.358 515.175 325.217L536.911 348.567C537.262 351.295 540.966 352.903 546.71 353.716V382.022C530.567 382.435 515.945 382.629 508.324 383.618C517.065 378.712 548.53 375.59 546.146 368.726C532.35 369.064 497.269 369.796 488.54 379.989C485.894 383.079 483.623 395.837 481.814 412.386L449.504 412.511" fill="url(#paint11_linear_1286_5700)"/>
<path d="M481.815 412.386C483.624 395.837 485.895 383.079 488.541 379.988C497.27 369.796 532.351 369.064 546.147 368.726C548.531 375.59 517.066 378.712 508.325 383.617C506.961 384.38 506.148 385.194 506.11 386.07C505.729 395.424 505.341 404.152 504.959 412.298L481.815 412.386" fill="url(#paint12_linear_1286_5700)"/>
<path d="M571.037 383.505V381.121C571.807 381.077 572.583 381.033 573.346 380.989L571.037 383.505Z" fill="url(#paint13_linear_1286_5700)"/>
<path d="M571.037 381.121V353.991C580.835 353.41 591.409 352.277 600.807 351.088L573.346 380.989C572.583 381.033 571.807 381.077 571.037 381.121Z" fill="url(#paint14_linear_1286_5700)"/>
<path d="M623.136 326.775C622.66 325.367 622.172 323.953 621.672 322.526L627.009 322.551L623.136 326.775Z" fill="url(#paint15_linear_1286_5700)"/>
<path d="M571.037 353.991V328.507L577.063 329.702L575.636 322.288L621.673 322.526C622.174 323.952 622.662 325.367 623.137 326.774L600.807 351.088C591.409 352.277 580.835 353.409 571.037 353.991ZM546.711 353.716C540.967 352.903 537.263 351.295 536.913 348.567L515.177 325.216L514.895 324.916C514.895 324.916 514.72 323.871 514.407 321.975L538.777 322.101L546.711 323.677V353.716Z" fill="url(#paint16_linear_1286_5700)"/>
<path d="M577.061 329.703L571.035 328.508V322.27H546.709V323.678L538.775 322.101L575.634 322.289L577.061 329.703" fill="url(#paint17_linear_1286_5700)"/>
<path d="M244.265 413.306V322.27H268.647V413.212L244.265 413.306Z" fill="url(#paint18_linear_1286_5700)"/>
<path d="M546.71 409.995V322.269H571.036V383.504L546.71 409.995Z" fill="url(#paint19_linear_1286_5700)"/>
<path d="M616.178 330.735H200.091V307.397H616.178V330.735Z" fill="#AECCE5"/>
<path d="M493.56 271.183C485.507 273.173 479.538 273.892 477.211 273.867C474.877 273.842 453.698 279.392 451.865 280.149C450.044 280.906 437.662 291.83 436.598 293.639C435.553 295.434 434.84 298.944 440.033 297.699C440.033 297.699 439.57 302.185 444.525 300.164C445.52 303.28 447.516 303.149 448.298 302.911C449.055 303.956 450.582 305.226 454.93 304.544C459.967 303.756 467.031 301.472 469.102 300.978C471.173 300.484 481.659 294.884 486.339 292.6C491.013 290.329 500.317 292.681 501.362 292.174C502.407 291.661 493.56 271.183 493.56 271.183Z" fill="#E9C3B5"/>
<path d="M553.318 156.903C538.114 163.373 540.441 239.593 537.713 245.086C535.398 249.716 501.305 261.341 473.919 273.786C467.619 276.651 487.559 306.202 487.559 306.202C487.559 306.202 557.347 284.741 567.477 274.33C578.883 262.599 581.041 241.689 581.536 231.402C583.744 187.386 584.063 143.82 553.318 156.903" fill="#1E1C1B"/>
<path d="M208.076 179.283C222.004 173.152 277.701 219.414 288.895 224.426C293.218 226.372 336.684 239.123 359.515 239.236C365.915 239.261 358.282 276.545 358.282 276.545C358.282 276.545 292.38 273.579 280.16 268.111C263.392 260.596 219.739 236.326 212.443 230.245C186.234 208.402 189.875 187.286 208.076 179.283" fill="#273D7E"/>
<defs>
<linearGradient id="paint0_linear_1286_5700" x1="368.129" y1="525.458" x2="368.129" y2="335.521" gradientUnits="userSpaceOnUse">
<stop stop-color="white"/>
<stop offset="0.659341" stop-color="white"/>
<stop offset="1" stop-color="#C5C5C6"/>
</linearGradient>
<linearGradient id="paint1_linear_1286_5700" x1="368.13" y1="525.459" x2="368.13" y2="335.52" gradientUnits="userSpaceOnUse">
<stop stop-color="#100F0D"/>
<stop offset="0.659341" stop-color="#100F0D"/>
<stop offset="1" stop-color="#100F0D"/>
</linearGradient>
<linearGradient id="paint2_linear_1286_5700" x1="368.13" y1="525.458" x2="368.13" y2="335.52" gradientUnits="userSpaceOnUse">
<stop stop-color="#100F0D"/>
<stop offset="0.659341" stop-color="#100F0D"/>
<stop offset="1" stop-color="#100F0D"/>
</linearGradient>
<linearGradient id="paint3_linear_1286_5700" x1="368.13" y1="525.457" x2="368.13" y2="335.521" gradientUnits="userSpaceOnUse">
<stop stop-color="#100F0D"/>
<stop offset="0.659341" stop-color="#100F0D"/>
<stop offset="1" stop-color="#100F0D"/>
</linearGradient>
<linearGradient id="paint4_linear_1286_5700" x1="368.13" y1="525.459" x2="368.13" y2="335.521" gradientUnits="userSpaceOnUse">
<stop stop-color="#182242"/>
<stop offset="0.659341" stop-color="#182242"/>
<stop offset="1" stop-color="#131D32"/>
</linearGradient>
<linearGradient id="paint5_linear_1286_5700" x1="368.129" y1="525.458" x2="368.129" y2="335.521" gradientUnits="userSpaceOnUse">
<stop stop-color="#273D7E"/>
<stop offset="0.659341" stop-color="#273D7E"/>
<stop offset="1" stop-color="#223160"/>
</linearGradient>
<linearGradient id="paint6_linear_1286_5700" x1="368.131" y1="525.458" x2="368.131" y2="335.521" gradientUnits="userSpaceOnUse">
<stop stop-color="#182242"/>
<stop offset="0.659341" stop-color="#182242"/>
<stop offset="1" stop-color="#131D32"/>
</linearGradient>
<linearGradient id="paint7_linear_1286_5700" x1="368.129" y1="525.459" x2="368.129" y2="335.52" gradientUnits="userSpaceOnUse">
<stop stop-color="#273D7E"/>
<stop offset="0.659341" stop-color="#273D7E"/>
<stop offset="1" stop-color="#223160"/>
</linearGradient>
<linearGradient id="paint8_linear_1286_5700" x1="368.13" y1="525.458" x2="368.13" y2="335.52" gradientUnits="userSpaceOnUse">
<stop stop-color="white"/>
<stop offset="0.659341" stop-color="white"/>
<stop offset="1" stop-color="#C5C5C6"/>
</linearGradient>
<linearGradient id="paint9_linear_1286_5700" x1="368.13" y1="525.458" x2="368.13" y2="335.521" gradientUnits="userSpaceOnUse">
<stop stop-color="#100F0D"/>
<stop offset="0.659341" stop-color="#100F0D"/>
<stop offset="1" stop-color="#100F0D"/>
</linearGradient>
<linearGradient id="paint10_linear_1286_5700" x1="368.132" y1="525.458" x2="368.132" y2="335.521" gradientUnits="userSpaceOnUse">
<stop stop-color="#100F0D"/>
<stop offset="0.659341" stop-color="#100F0D"/>
<stop offset="1" stop-color="#100F0D"/>
</linearGradient>
<linearGradient id="paint11_linear_1286_5700" x1="368.129" y1="525.458" x2="368.129" y2="335.521" gradientUnits="userSpaceOnUse">
<stop stop-color="#100F0D"/>
<stop offset="0.659341" stop-color="#100F0D"/>
<stop offset="1" stop-color="#100F0D"/>
</linearGradient>
<linearGradient id="paint12_linear_1286_5700" x1="368.13" y1="525.458" x2="368.13" y2="335.521" gradientUnits="userSpaceOnUse">
<stop stop-color="#1E1C1B"/>
<stop offset="0.659341" stop-color="#1E1C1B"/>
<stop offset="1" stop-color="#1A1818"/>
</linearGradient>
<linearGradient id="paint13_linear_1286_5700" x1="368.12" y1="525.459" x2="368.12" y2="335.521" gradientUnits="userSpaceOnUse">
<stop stop-color="#100F0D"/>
<stop offset="0.659341" stop-color="#100F0D"/>
<stop offset="1" stop-color="#100F0D"/>
</linearGradient>
<linearGradient id="paint14_linear_1286_5700" x1="368.13" y1="525.458" x2="368.13" y2="335.521" gradientUnits="userSpaceOnUse">
<stop stop-color="#100F0D"/>
<stop offset="0.659341" stop-color="#100F0D"/>
<stop offset="1" stop-color="#100F0D"/>
</linearGradient>
<linearGradient id="paint15_linear_1286_5700" x1="368.135" y1="525.459" x2="368.135" y2="335.521" gradientUnits="userSpaceOnUse">
<stop stop-color="#1E1C1B"/>
<stop offset="0.659341" stop-color="#1E1C1B"/>
<stop offset="1" stop-color="#1A1818"/>
</linearGradient>
<linearGradient id="paint16_linear_1286_5700" x1="368.13" y1="525.458" x2="368.13" y2="335.521" gradientUnits="userSpaceOnUse">
<stop stop-color="#100F0D"/>
<stop offset="0.659341" stop-color="#100F0D"/>
<stop offset="1" stop-color="#100F0D"/>
</linearGradient>
<linearGradient id="paint17_linear_1286_5700" x1="368.129" y1="525.457" x2="368.129" y2="335.521" gradientUnits="userSpaceOnUse">
<stop stop-color="#1E1C1B"/>
<stop offset="0.659341" stop-color="#1E1C1B"/>
<stop offset="1" stop-color="#1A1818"/>
</linearGradient>
<linearGradient id="paint18_linear_1286_5700" x1="368.131" y1="525.458" x2="368.131" y2="335.521" gradientUnits="userSpaceOnUse">
<stop stop-color="#7FA6DB"/>
<stop offset="0.659341" stop-color="#7FA6DB"/>
<stop offset="1" stop-color="#5D7EAB"/>
</linearGradient>
<linearGradient id="paint19_linear_1286_5700" x1="368.13" y1="525.457" x2="368.13" y2="335.52" gradientUnits="userSpaceOnUse">
<stop stop-color="#7FA6DB"/>
<stop offset="0.659341" stop-color="#7FA6DB"/>
<stop offset="1" stop-color="#5D7EAB"/>
</linearGradient>
</defs>
</svg>
