<svg width="332" height="257" viewBox="0 0 332 257" fill="none" xmlns="http://www.w3.org/2000/svg">
<g clip-path="url(#clip0_131_1315)">
<path d="M0 226.022H332V225.85H0V226.022Z" fill="#E7E8E5"/>
<path d="M276.741 236.952H298.734V237.124H276.741V236.952Z" fill="#E7E8E5"/>
<path d="M214.158 238.996H219.93V238.823H214.158V238.996Z" fill="#E7E8E5"/>
<path d="M263.333 230.547H276.076V230.719H263.333V230.547Z" fill="#E7E8E5"/>
<path d="M34.833 231.705H63.5134V231.878H34.833V231.705Z" fill="#E7E8E5"/>
<path d="M69.4248 231.705H73.6299V231.878H69.4248V231.705Z" fill="#E7E8E5"/>
<path d="M87.2969 234.618H149.498V234.79H87.2969V234.618Z" fill="#E7E8E5"/>
<path d="M29.1594 0.173035C27.1607 0.173035 25.5351 1.86153 25.5351 3.93692V191.152C25.5351 193.227 27.1607 194.916 29.1594 194.916H157.377C159.375 194.916 161 193.227 161 191.152V3.93692C161 1.86153 159.375 0.173035 157.377 0.173035H29.1594ZM157.377 195.088H29.1594C27.0694 195.088 25.3691 193.323 25.3691 191.152V3.93692C25.3691 1.76703 27.0694 0.000610352 29.1594 0.000610352H157.377C159.466 0.000610352 161.166 1.76703 161.166 3.93692V191.152C161.166 193.323 159.466 195.088 157.377 195.088Z" fill="#E7E8E5"/>
<path d="M172.781 0.173035C170.783 0.173035 169.157 1.86153 169.157 3.93692V191.152C169.157 193.227 170.783 194.916 172.781 194.916H300.998C302.996 194.916 304.622 193.227 304.622 191.152V3.93692C304.622 1.86153 302.996 0.173035 300.998 0.173035H172.781ZM300.998 195.088H172.781C170.691 195.088 168.991 193.323 168.991 191.152V3.93692C168.991 1.76703 170.691 0.000610352 172.781 0.000610352H300.998C303.088 0.000610352 304.788 1.76703 304.788 3.93692V191.152C304.788 193.323 303.088 195.088 300.998 195.088Z" fill="#E7E8E5"/>
<path d="M219.963 118.335H274.768V33.1782H219.963V118.335Z" fill="#E2E2E0"/>
<path d="M218.3 118.335H273.105V33.1782H218.3V118.335Z" fill="#F3F2F1"/>
<path d="M225.344 111.019H266.062V40.4949H225.344V111.019Z" fill="white"/>
<path d="M225.344 111.019H226.269V40.4949H225.344V111.019Z" fill="#E2E2E0"/>
<path d="M142.641 225.851L165.882 225.85L165.879 147.988L142.639 147.989L142.641 225.851Z" fill="#E2E2E0"/>
<path d="M147.057 225.851H142.642L142.642 214.804H151.685L147.057 225.851Z" fill="#EDEDEB"/>
<path d="M266.831 225.849L290.071 225.848L290.069 147.986L266.828 147.987L266.831 225.849Z" fill="#E2E2E0"/>
<path d="M142.641 224.231L270.682 224.229L270.68 147.987L142.639 147.989L142.641 224.231Z" fill="#EDEDEB"/>
<path d="M146.064 152.628V170.152L223.843 170.15L223.843 152.627L146.064 152.628Z" fill="#E2E2E0"/>
<path d="M226.805 152.628L226.805 170.151L267.256 170.15L267.256 152.626L226.805 152.628Z" fill="#E2E2E0"/>
<path d="M243.029 154.746H251.032C254.508 154.746 257.831 153.883 260.222 152.361L233.839 152.361C236.23 153.883 239.553 154.746 243.029 154.746Z" fill="#EDEDEB"/>
<path d="M161.879 154.747H207.209C210.686 154.747 214.008 153.884 216.399 152.362L152.688 152.363C155.08 153.885 158.402 154.747 161.879 154.747Z" fill="#EDEDEB"/>
<path d="M146.064 175.172L146.065 192.696L223.843 192.695L223.843 175.171L146.064 175.172Z" fill="#E2E2E0"/>
<path d="M226.806 175.171L226.806 192.695L267.257 192.694L267.257 175.17L226.806 175.171Z" fill="#E2E2E0"/>
<path d="M243.03 177.29L251.033 177.289C254.51 177.289 257.832 176.427 260.223 174.904L233.84 174.906C236.231 176.428 239.554 177.29 243.03 177.29Z" fill="#EDEDEB"/>
<path d="M161.88 177.291H207.21C210.687 177.291 214.009 176.428 216.4 174.905L152.689 174.906C155.081 176.429 158.404 177.291 161.88 177.291Z" fill="#EDEDEB"/>
<path d="M146.065 197.717L146.066 215.24L223.844 215.239L223.844 197.715L146.065 197.717Z" fill="#E2E2E0"/>
<path d="M226.807 197.716V215.24L267.258 215.238L267.257 197.714L226.807 197.716Z" fill="#E2E2E0"/>
<path d="M243.031 199.834H251.034C254.51 199.834 257.832 198.971 260.224 197.449L233.841 197.45C236.231 198.972 239.555 199.834 243.031 199.834Z" fill="#EDEDEB"/>
<path d="M161.881 199.835H207.211C210.688 199.835 214.011 198.972 216.401 197.45L152.69 197.451C155.081 198.973 158.405 199.835 161.881 199.835Z" fill="#EDEDEB"/>
<path d="M266.268 225.849L270.683 225.849L270.682 214.801L261.64 214.802L266.268 225.849Z" fill="#EDEDEB"/>
<path d="M278.366 134.128C278.366 134.128 277.692 142.038 251.845 142.04C225.998 142.04 225.323 134.129 225.323 134.129L278.366 134.128Z" fill="#FAFAF9"/>
<path d="M278.366 140.076C278.366 140.076 277.692 147.986 251.845 147.987C225.998 147.988 225.323 140.077 225.323 140.077L278.366 140.076Z" fill="#E7E8E5"/>
<path d="M97.3389 225.849H123.908L116.037 154.856H97.3389V225.849Z" fill="#E2E2E0"/>
<path d="M52.4863 225.85H111.585L117.822 142.757H58.7235L52.4863 225.85Z" fill="#DADBD8"/>
<path d="M48.2363 225.85H109.734L115.971 142.757H54.4733L48.2363 225.85Z" fill="#F3F2F1"/>
<path d="M103.921 219.301L109.175 149.305H60.2852L55.0312 219.301H103.921Z" fill="white"/>
<path d="M41.3174 128.311H191.909V14.3023H41.3174V128.311Z" fill="#E7E8E5"/>
<path d="M46.4727 122.279H186.754V20.3348H46.4727V122.279Z" fill="#FAFAF9"/>
<path d="M76.6607 122.279H61.9365L75.8008 20.3348H90.525L76.6607 122.279Z" fill="white"/>
<path d="M113.039 122.279H98.3145L112.179 20.3348H126.904L113.039 122.279Z" fill="white"/>
<path d="M159.937 122.279H152.574L166.439 20.3348H173.801L159.937 122.279Z" fill="white"/>
<path d="M125.987 122.279H118.625L132.49 20.3348H139.852L125.987 122.279Z" fill="white"/>
<path d="M93.4993 122.279H86.5605V20.3348H93.4993V122.279Z" fill="#E7E8E5"/>
<path d="M93.499 122.279H95.0455V20.3348H93.499V122.279Z" fill="#DADBD8"/>
<path d="M191.908 128.311H193.018V14.3023H191.908V128.311Z" fill="#DADBD8"/>
<path d="M294.742 249.19C294.742 253.503 237.103 257 166 257C94.8977 257 37.2578 253.503 37.2578 249.19C37.2578 244.877 94.8977 241.38 166 241.38C237.103 241.38 294.742 244.877 294.742 249.19Z" fill="#F3F2F1"/>
<path d="M196.93 229.236L205.346 224.187L210.485 234.875L203.459 239.105L196.93 229.236Z" fill="#F9A8B3"/>
<path d="M208.225 230.176L207.082 227.798L207.087 227.795L208.229 230.174L208.225 230.176Z" fill="#C3C5C2"/>
<path d="M200.589 234.767L199.171 232.622L207.082 227.798L208.225 230.176L200.589 234.767Z" fill="#D8898C"/>
<path d="M199.956 194.778C205.919 180.43 215.74 163.761 211.715 148.374L184.919 143.973C184.919 143.973 179.378 178.361 180.477 192.466C181.618 207.132 198.283 233.164 198.283 233.164L207.88 227.311C207.88 227.311 203.707 205.059 199.956 194.778Z" fill="#406FBF"/>
<path d="M198.282 233.164C198.282 233.164 186.312 214.466 181.967 199.835C181.727 199.027 181.51 198.229 181.32 197.45C180.912 195.778 180.626 194.181 180.495 192.696C180.489 192.619 180.483 192.542 180.477 192.466C180.377 191.191 180.332 189.752 180.332 188.187C180.332 185.944 180.425 183.442 180.585 180.803L201.652 177.487C201.044 180.716 201.049 184.887 201.917 190.24C201.234 191.775 200.574 193.289 199.955 194.778C203.707 205.059 207.879 227.311 207.879 227.311L207.081 227.798L199.17 232.622H199.17L198.282 233.164Z" fill="#2251AA"/>
<path d="M208.848 227.196L197.883 233.919L194.394 229.208L207.314 222.102L208.848 227.196Z" fill="#406FBF"/>
<path d="M201.918 190.246C201.917 190.244 201.917 190.242 201.917 190.24C203.195 187.363 204.55 184.413 205.851 181.415C205.851 181.417 205.851 181.417 205.851 181.419C204.55 184.418 203.195 187.368 201.918 190.246Z" fill="#ACAFAD"/>
<path d="M201.917 190.24C201.049 184.887 201.044 180.716 201.653 177.487L205.386 176.9C205.547 178.43 205.703 179.942 205.851 181.415C204.55 184.413 203.195 187.363 201.917 190.24Z" fill="#24427C"/>
<path d="M210.211 232.341C210.047 232.121 209.699 232.143 209.567 232.377C208.186 234.837 204.205 237.201 202.668 238.048C202.292 238.254 202.04 238.598 201.917 238.989C201.166 241.391 198.194 244.976 198.194 244.976C198.194 244.976 198.358 245.774 198.736 246.575C199.056 247.252 199.889 247.457 200.452 246.982L212.683 236.661C213.124 236.288 213.154 235.599 212.743 235.191C212.049 234.5 211.023 233.424 210.211 232.341Z" fill="#17282F"/>
<path d="M212.737 234.106L222.456 234.203L221.573 246.12L213.452 246.053L212.737 234.106Z" fill="#F9A8B3"/>
<path d="M222.423 244.289C222.451 244.01 222.19 243.799 221.937 243.896C219.289 244.904 214.824 244.133 213.144 243.784C212.734 243.698 212.321 243.8 211.971 244.024C209.818 245.397 206.009 246.235 206.009 246.235C206.009 246.235 205.62 246.913 205.355 247.743C205.116 248.494 205.655 249.272 206.417 249.271L221.398 249.263C221.936 249.263 222.367 248.799 222.344 248.242C222.303 247.254 222.279 245.701 222.423 244.289Z" fill="#17282F"/>
<path d="M221.965 240.88H221.961L222.157 238.231H222.161L221.965 240.88Z" fill="#C3C5C2"/>
<path d="M221.961 240.88L213.138 240.801L212.983 238.205L222.157 238.231L221.961 240.88Z" fill="#D8898C"/>
<path d="M228.606 193.958C231.635 178.968 237.089 159.482 233.247 151.747L201.874 146.701C201.874 146.701 205.776 177.71 206.806 192.155C207.875 207.175 212.105 238.203 212.105 238.203L222.621 238.232C222.621 238.232 229.942 211.836 228.606 193.958Z" fill="#406FBF"/>
<path d="M222.621 238.232L222.156 238.231L212.983 238.205L212.105 238.203C212.105 238.203 212.06 237.87 211.977 237.257C211.878 236.52 211.726 235.381 211.534 233.927C210.573 226.648 208.627 211.508 207.475 199.833C207.395 199.021 207.319 198.225 207.247 197.45C207.07 195.54 206.92 193.757 206.806 192.155C206.513 188.045 205.987 182.596 205.386 176.9L207.72 176.533C209.786 176.208 211.146 174.315 211.146 172.032C211.146 171.583 211.093 171.121 210.984 170.651L206.86 153.011C212.068 153.442 217.38 153.575 221.965 153.575C227.42 153.575 231.848 153.386 233.847 153.283C234.352 154.953 234.569 156.985 234.569 159.277C234.57 168.729 230.895 182.627 228.606 193.958C228.717 195.451 228.769 197.003 228.769 198.594C228.77 207.665 227.111 218.005 225.517 225.85C225.506 225.907 225.494 225.965 225.482 226.022C224.02 233.191 222.621 238.232 222.621 238.232Z" fill="#2251AA"/>
<path d="M223.769 238.643H211.116L210.921 233.171L224.854 233.406L223.769 238.643Z" fill="#406FBF"/>
<path d="M210.158 99.3643L209.357 100.031L208.613 100.635C208.118 101.03 207.616 101.404 207.116 101.78C206.119 102.534 205.091 103.234 204.058 103.932C201.976 105.302 199.841 106.61 197.585 107.769C195.339 108.947 192.992 110.012 190.484 110.888C187.985 111.783 185.303 112.47 182.349 112.765L181.807 112.82C180.38 112.962 179.021 112.512 177.966 111.673C175.77 109.918 174.418 107.771 173.532 105.808C173.074 104.819 172.728 103.832 172.467 102.87C172.203 101.908 171.978 100.966 171.831 100.036C171.687 99.1036 171.583 98.1876 171.512 97.2841C171.448 96.3792 171.438 95.4832 171.44 94.5983C171.448 93.7127 171.504 92.8326 171.578 91.9587L171.729 90.6455L171.95 89.2687C172.264 87.3147 174.043 85.9946 175.925 86.3202C177.127 86.5291 178.08 87.3596 178.53 88.4418L178.805 89.1198C178.908 89.375 179.029 89.7653 179.146 90.095L179.493 91.1289C179.719 91.8173 179.969 92.4967 180.212 93.1616C180.707 94.4907 181.226 95.7667 181.802 96.9123C182.35 98.0614 182.993 99.0781 183.587 99.8168C184.181 100.585 184.791 100.929 185.068 100.992L180.685 99.9009C182.264 99.5319 184.002 98.8753 185.772 98.0718C186.655 97.6731 187.547 97.2103 188.436 96.7275C189.332 96.2598 190.228 95.7446 191.12 95.2122C192.899 94.1334 194.689 92.9905 196.446 91.7752C197.33 91.1772 198.197 90.5454 199.067 89.9295L200.355 88.9908L201.545 88.1093L201.814 87.91C204.925 85.6077 209.245 86.3602 211.461 89.5922C213.597 92.7057 212.986 96.9958 210.158 99.3643Z" fill="#F9A8B3"/>
<path d="M178.515 88.9682L175.084 91.2925C170.881 92.2506 170.63 86.423 170.63 86.423L169.42 83.6717C169.009 82.7385 169.406 81.5743 170.356 80.9197L172.742 79.2754C173.83 78.5257 175.243 78.7105 175.875 79.6844L177.294 81.8743C177.707 82.5116 177.961 83.2448 178.036 84.009L178.515 88.9682Z" fill="#F9A8B3"/>
<path d="M209.931 84.876C203.357 84.4683 189.847 93.2748 189.847 93.2748C188.291 98.4209 191.003 108.176 194.962 110.588C194.962 110.588 205.02 106.1 209.754 101.736C215.475 96.4613 223.228 85.6988 209.931 84.876Z" fill="#17282F"/>
<path d="M210.54 84.887C218.59 85.3036 229.154 87.1086 237.186 89.6247C242.198 91.1959 245.322 95.0901 243.076 105.892C238.52 127.803 238.894 145.705 234.999 153.219C234.999 153.219 189.391 156.146 183.292 145.218C184.528 118.166 197.012 97.549 202.579 89.0253C204.359 86.2995 207.373 84.7235 210.54 84.887Z" fill="#17282F"/>
<path d="M213.123 87.8823C214.301 87.0064 215.277 87.7837 216.006 86.298C216.395 85.2062 216.413 84.0012 215.981 82.6045L229.153 77.7467C228.221 82.3541 227.494 85.9938 229.2 88.1575C229.26 91.7138 221.353 94.9617 214.67 93.6429C208.788 92.4821 211.429 89.1431 213.123 87.8823Z" fill="#F9A8B3"/>
<path d="M216.243 85.3652H216.241C216.289 85.0514 216.309 84.7279 216.298 84.3934C216.299 84.3941 216.298 84.3941 216.299 84.3941C216.31 84.7286 216.29 85.0521 216.243 85.3652Z" fill="#C3C5C2"/>
<path d="M216.161 85.7808C216.16 85.7808 216.16 85.7808 216.16 85.7808C216.193 85.6442 216.22 85.5056 216.241 85.3649H216.242C216.221 85.5056 216.193 85.6442 216.161 85.7808Z" fill="#111D23"/>
<path d="M218.175 86.2686C217.394 86.2686 216.702 86.1099 216.16 85.7809C216.193 85.6444 216.22 85.5057 216.242 85.365C216.29 85.0519 216.309 84.7284 216.298 84.3939C217.201 84.825 218.289 85.0608 219.577 85.0608C220.67 85.0608 221.907 84.8912 223.298 84.5277C221.56 85.663 219.699 86.2686 218.175 86.2686Z" fill="#D8898C"/>
<path d="M215.135 70.0601C214.609 64.7581 219.585 58.0477 223.743 60.3611C227.901 62.6751 215.135 70.0601 215.135 70.0601Z" fill="#17282F"/>
<path d="M232.669 73.0865C230.034 79.1279 228.119 83.1718 223.705 84.4174C214.934 86.8928 212.047 81.8875 212.895 75.1316C213.658 69.0516 217.839 60.1934 224.564 60.0955C231.189 59.9989 235.305 67.0445 232.669 73.0865Z" fill="#F9A8B3"/>
<path d="M231.149 77.9277C228.141 77.4753 225.942 71.8347 229.088 68.8847C232.234 65.934 231.149 63.0999 228.865 62.2605C226.582 61.4218 222.433 62.0295 221.486 59.9182C220.539 57.8063 226.86 56.2737 230.536 58.7029C234.212 61.1328 234.016 59.6575 234.016 59.6575C234.016 59.6575 234.783 60.9011 233.328 61.1618C236.216 63.1579 239.419 67.9591 236.439 69.9255C240.198 72.1237 234.378 77.3401 231.149 77.9277Z" fill="#17282F"/>
<path d="M235.512 69.5928C237.516 70.2722 238.37 68.6962 238.37 68.6962C238.37 68.6962 239.002 71.2647 235.512 69.5928Z" fill="#17282F"/>
<path d="M220.776 75.9931C221.043 75.8737 221.315 75.7241 221.588 75.5372C221.661 75.4868 221.676 75.3847 221.621 75.3096C221.566 75.2351 221.464 75.2144 221.387 75.2654C219.395 76.6331 217.419 75.8544 217.4 75.8469C217.313 75.811 217.217 75.8503 217.186 75.9331C217.154 76.0165 217.199 76.1131 217.285 76.1476C217.361 76.1786 218.952 76.8069 220.776 75.9931Z" fill="#17282F"/>
<path d="M226.404 71.6538C225.221 71.6538 224.312 71.2351 224.312 71.2351C224.312 71.2351 224.58 71.1738 224.953 71.1738C225.402 71.1738 226.002 71.2627 226.475 71.6531C226.451 71.6538 226.428 71.6538 226.404 71.6538Z" fill="#D8898C"/>
<path d="M226.058 72.6528C224.982 72.4066 224.251 71.7776 224.251 71.7776C224.251 71.7776 224.252 71.7776 224.253 71.7776C224.308 71.7776 225.477 71.7879 226.058 72.6528Z" fill="#D8898C"/>
<path d="M232.304 79.6278C231.036 80.83 229.35 81.3053 227.938 81.2066C225.815 81.0576 226.091 79.3216 227.258 77.6186C228.308 76.0861 230.03 73.8962 231.884 74.8839C233.71 75.8578 233.753 78.2532 232.304 79.6278Z" fill="#F9A8B3"/>
<path d="M223.08 71.0396C222.896 71.5431 222.489 71.8479 222.173 71.719C221.857 71.5907 221.75 71.0775 221.934 70.5733C222.119 70.0698 222.526 69.7656 222.843 69.8939C223.159 70.0229 223.266 70.5354 223.08 71.0396Z" fill="#17282F"/>
<path d="M217.469 68.7703C217.284 69.2745 216.878 69.5794 216.561 69.4504C216.245 69.3214 216.138 68.8089 216.323 68.3048C216.508 67.8006 216.914 67.4964 217.231 67.6254C217.547 67.7537 217.654 68.2668 217.469 68.7703Z" fill="#17282F"/>
<path d="M219.221 69.593L217.808 74.0059C217.808 74.0059 216.337 74.5363 214.992 73.0333C216.399 70.7648 219.221 69.593 219.221 69.593Z" fill="#F46878"/>
<path d="M225.659 68.1052L225.813 68.1162C225.978 68.0838 226.085 67.9176 226.053 67.7451C225.729 66.0167 224.434 65.4421 224.378 65.4187C224.222 65.3518 224.045 65.4297 223.982 65.5918C223.92 65.7539 223.994 65.9387 224.149 66.0063C224.192 66.0249 225.198 66.4843 225.456 67.8631C225.478 67.9796 225.558 68.07 225.659 68.1052Z" fill="#17282F"/>
<path d="M215.363 66.4142C215.458 66.4404 215.564 66.4183 215.643 66.3452C216.644 65.4182 217.709 65.6989 217.754 65.7114C217.916 65.7562 218.082 65.6569 218.125 65.4879C218.167 65.3196 218.072 65.1458 217.91 65.0989C217.851 65.0837 216.49 64.7071 215.236 65.8693C215.111 65.9852 215.1 66.1859 215.212 66.3176L215.363 66.4142Z" fill="#17282F"/>
<path d="M145.045 106.245L142.161 114.415C141.637 115.901 140.472 116.915 139.032 117.142L100.743 123.167C98.2722 123.555 96.8108 126.189 97.4794 129.048L110.886 186.401C111.554 189.261 114.099 191.264 116.57 190.876L207.72 176.533C210.191 176.144 211.652 173.511 210.984 170.651L194.83 101.545C194.162 98.685 191.617 96.6821 189.146 97.0711L148.173 103.518C146.734 103.745 145.569 104.759 145.045 106.245Z" fill="#406FBF"/>
<path d="M115.951 190.924C113.687 190.923 111.498 189.022 110.886 186.401L107.483 171.844L102.214 149.306L97.4794 129.048C97.3698 128.579 97.3174 128.116 97.3174 127.668C97.3174 125.385 98.6773 123.492 100.743 123.167L127.778 118.913V132.996H174.765V99.334L189.146 97.071C189.352 97.0386 189.559 97.0227 189.765 97.0227C192.029 97.0227 194.218 98.9243 194.83 101.545L210.984 170.651C211.093 171.12 211.146 171.583 211.146 172.031C211.146 174.314 209.786 176.208 207.72 176.533L205.385 176.9L201.652 177.487L180.585 180.803L146.064 186.234L142.64 186.773L116.57 190.876C116.364 190.908 116.156 190.924 115.951 190.924Z" fill="#2D5BB2"/>
<path d="M125.397 22.3898C126.304 22.3898 127.201 22.4402 128.084 22.536C133.957 14.1055 143.501 8.61662 154.284 8.61662C167.982 8.61662 179.681 17.4707 184.39 29.9658C194.868 31.8212 202.845 41.2919 202.845 52.7041C202.845 65.4476 192.9 75.7783 180.632 75.7783H125.397C111.204 75.7783 99.6992 63.8267 99.6992 49.0837C99.6992 34.3414 111.204 22.3898 125.397 22.3898Z" fill="#406FBF"/>
<path d="M127.778 66.4443V132.996H174.766V80.9307L160.82 66.4443H127.778Z" fill="#406FBF"/>
<path d="M174.766 132.996H127.778V66.4443H160.82L174.766 80.9307L160.82 66.4443V80.9307H174.766V132.996Z" fill="#A4C3E9"/>
<path d="M174.765 80.9307H160.819V66.4443L174.765 80.9307Z" fill="#759ED9"/>
<path d="M126.063 191.839L125.964 191.152L129.292 190.629L129.392 191.315L126.063 191.839Z" fill="#406FBF"/>
<path d="M133.123 190.728L133.022 190.042L144.648 188.213L144.748 188.899L133.123 190.728Z" fill="#406FBF"/>
<path d="M161.802 112.782L157.467 120.297C156.679 121.664 155.358 122.608 153.918 122.835L115.629 128.859C113.158 129.248 111.245 131.678 111.356 134.286L113.581 186.592C113.691 189.201 115.784 190.999 118.255 190.61L209.406 176.268C211.876 175.879 213.789 173.45 213.679 170.842L210.998 107.816C210.887 105.208 208.794 103.409 206.323 103.797L165.351 110.245C163.911 110.471 162.59 111.416 161.802 112.782Z" fill="#406FBF"/>
<path d="M163.136 56.7925C162.924 56.7925 162.714 56.709 162.553 56.5421C162.231 56.2076 162.231 55.6655 162.553 55.3309C168.772 48.8696 168.772 38.3567 162.553 31.8953C159.539 28.7653 155.533 27.0417 151.272 27.0417C147.011 27.0417 143.004 28.7653 139.991 31.8953C136.978 35.0253 135.319 39.1864 135.319 43.6131C135.319 48.0391 136.978 52.201 139.991 55.3309C140.313 55.6655 140.313 56.2076 139.991 56.5421C139.67 56.8759 139.147 56.8759 138.826 56.5421C135.501 53.0886 133.67 48.4971 133.67 43.6131C133.67 38.7292 135.501 34.1376 138.826 30.6842C142.15 27.2307 146.57 25.3291 151.272 25.3291C155.974 25.3291 160.394 27.2307 163.719 30.6842C170.581 37.8132 170.581 49.4131 163.719 56.5421C163.557 56.709 163.347 56.7925 163.136 56.7925Z" fill="white"/>
<path d="M158.333 61.9182V42.832C158.333 41.1118 156.991 39.7179 155.335 39.7179H147.21C145.554 39.7179 144.212 41.1118 144.212 42.832V61.9182H141.156L151.272 70.9702L161.389 61.9182H158.333Z" fill="white"/>
<path d="M240.235 109.332L239.832 110.279L239.45 111.144C239.195 111.713 238.922 112.266 238.654 112.823C238.12 113.934 237.535 115.012 236.948 116.091C235.749 118.235 234.473 120.347 233.04 122.391C232.323 123.415 231.589 124.431 230.808 125.433C230.012 126.425 229.195 127.407 228.316 128.37C226.576 130.304 224.607 132.143 222.279 133.803L221.821 134.13C221.589 134.296 221.326 134.435 221.075 134.537C218.314 135.637 216.016 135.828 213.81 135.961C211.62 136.066 209.551 135.91 207.534 135.7C205.519 135.453 203.556 135.114 201.627 134.667C199.683 134.207 197.833 133.703 195.884 132.989C194.065 132.324 193.11 130.253 193.751 128.364C194.221 126.978 195.419 126.076 196.742 125.956L196.885 125.944L202.269 125.465C204.058 125.3 205.825 125.12 207.539 124.882C208.395 124.762 209.237 124.647 210.059 124.5C210.876 124.346 211.671 124.175 212.429 124.006C213.914 123.655 215.326 123.128 215.994 122.678L214.791 123.412C215.996 122.293 217.194 120.883 218.364 119.351C218.947 118.586 219.51 117.767 220.063 116.935C220.628 116.11 221.174 115.248 221.709 114.375C222.767 112.615 223.814 110.806 224.798 108.947C225.301 108.023 225.774 107.08 226.259 106.149L227.606 103.447L227.769 103.122C229.525 99.5989 233.699 98.2229 237.091 100.048C240.349 101.801 241.691 105.891 240.235 109.332Z" fill="#F9A8B3"/>
<path d="M242.35 97.1407C245.543 109.059 237.435 120.907 237.435 120.907C233.136 122.185 221.817 117.603 219.415 113.217C219.415 113.217 223.361 101.948 228.052 95.9571C232.396 90.4103 240.478 90.1565 242.35 97.1407Z" fill="#17282F"/>
<path d="M198.08 126.228L198.713 130.432C197.827 134.807 192.609 132.652 192.609 132.652L189.697 132.668C188.709 132.674 187.85 131.821 187.666 130.651L187.202 127.716C186.99 126.379 187.733 125.116 188.848 124.918L191.352 124.472C192.081 124.343 192.83 124.403 193.531 124.646L198.08 126.228Z" fill="#F9A8B3"/>
</g>
<defs>
<clipPath id="clip0_131_1315">
<rect width="332" height="257" fill="white"/>
</clipPath>
</defs>
</svg>
