<svg width="750" height="600" viewBox="0 0 750 600" fill="none" xmlns="http://www.w3.org/2000/svg">
<path d="M584.551 551.583H574.757L557.253 385.759H573.574L584.551 551.583Z" fill="#1E1C1B"/>
<path d="M420.754 551.583H411.016L425.65 385.759H441.974L420.754 551.583Z" fill="#1E1C1B"/>
<path d="M419.797 294.684C409.497 324.628 385.406 362.342 439.61 394.538C449.573 400.504 525.561 397.185 539.015 388.573C552.185 380.073 563.724 353.618 550.666 323.053C545.262 310.5 538.338 295.134 538.338 295.134L419.797 294.684Z" fill="#100F0D"/>
<path d="M443.605 49.8312C427.056 72.2338 431.785 138.372 432.291 158.803C432.853 179.18 473.55 161.28 473.55 161.28L476.251 49.5504L443.605 49.8312Z" fill="#2A1412"/>
<path d="M509.52 50.6791C521.735 69.9839 521.396 136.235 520.89 156.668C520.328 177.099 477.211 161.283 477.211 161.283L474.509 49.5527L509.52 50.6791Z" fill="#581C19"/>
<path d="M477.66 202.035L495.335 139.444C495.335 139.444 491.282 107.978 491.282 103.812L474.621 102.969V102.913L474.508 102.969L474.452 102.913V102.969L457.734 103.812C457.734 106.851 456.215 122.389 454.864 132.352C454.414 136.122 442.819 140.006 442.819 140.006L459.029 167.644L477.66 202.035" fill="#DCA296"/>
<path d="M491.618 103.814L475.24 107.137L478.111 199.447L504.395 139.615C504.395 139.615 494.77 134.547 494.321 131.284C493.194 122.276 491.618 106.853 491.618 103.814Z" fill="#E9C3B5"/>
<path d="M450.673 136.536C450.511 136.199 450.318 135.854 450.081 135.505C450.216 135.529 450.35 135.549 450.479 135.549C453.401 135.541 455.153 128.737 456.191 121.377C455.771 125.21 455.31 129.082 454.865 132.353C454.691 133.809 452.859 135.28 450.673 136.536Z" fill="url(#paint0_linear_1286_5593)"/>
<path d="M475.801 103.032L474.961 102.987L474.975 102.438L475.789 102.489L475.801 103.032Z" fill="url(#paint1_linear_1286_5593)"/>
<path d="M457.284 110.411C457.543 106.546 457.621 103.688 457.621 103.306L474.227 102.405H474.339H474.451L474.974 102.437L474.96 102.986L474.62 102.969V102.913L474.508 102.969L474.451 102.913V102.969L457.734 103.812C457.734 104.834 457.562 107.259 457.284 110.411Z" fill="url(#paint2_linear_1286_5593)"/>
<path d="M493.197 121.557C492.367 113.858 491.619 105.902 491.619 103.813L491.282 103.881C491.282 103.857 491.282 103.832 491.282 103.813L475.8 103.031L475.788 102.489L492.464 103.532C492.464 104.875 492.628 114.521 493.197 121.557Z" fill="url(#paint3_linear_1286_5593)"/>
<path d="M453.684 145.353C446.147 145.353 453.325 142.1 450.674 136.533C452.861 135.277 454.693 133.807 454.867 132.351C455.311 129.079 455.773 125.207 456.193 121.374C456.725 117.577 457.07 113.644 457.288 110.41C457.566 107.258 457.737 104.832 457.737 103.811L474.455 102.968V102.912L474.511 102.968L474.624 102.912V102.968L474.963 102.985L475.803 103.029L491.285 103.811C491.285 103.83 491.285 103.855 491.285 103.879L475.244 107.133L476.14 135.971C467.072 140.855 457.241 145.353 453.684 145.353Z" fill="url(#paint4_linear_1286_5593)"/>
<path d="M476.138 135.973L475.242 107.135L491.283 103.881L491.62 103.812C491.62 105.901 492.368 113.858 493.199 121.556C493.299 122.775 493.411 123.913 493.536 124.92C491.554 127.036 484.142 131.655 476.138 135.973Z" fill="url(#paint5_linear_1286_5593)"/>
<path d="M507.734 79.5963C504.812 102.248 486.433 121.58 475.503 121.58C463.312 121.568 447.623 109.167 442.925 80.2092C439.108 56.3995 445.092 36.1052 474.894 36.1052C502.855 36.1052 510.795 55.8547 507.734 79.5963Z" fill="#DCA296"/>
<path d="M507.733 79.5841C509.819 55.7988 502.903 36.2106 475.042 36.1056V121.512L475.502 121.568C486.431 121.568 505.118 109.423 507.733 79.5841Z" fill="#E9C3B5"/>
<path d="M475.631 49.6772C484.57 58.4525 498.771 60.158 502.257 75.4683C503.786 82.2747 506.633 90.0412 497.515 108.291C493.611 116.096 502.284 117.228 502.284 117.228L516.17 70.5606C516.17 70.5606 513.935 48.2188 498.341 38.0194C488.31 31.44 475.041 32.8841 474.504 34.2788C473.986 35.6666 475.631 49.6772 475.631 49.6772Z" fill="#581C19"/>
<path d="M475.411 49.5442C468.428 57.2449 452.522 60.1644 449.18 75.4672C447.963 80.9277 445.549 86.6447 452.539 105.8C458.136 121.135 449.082 119.374 449.082 119.374L435.613 76.7449C435.613 76.7449 435.946 51.1027 452.326 39.4693C462.521 32.2207 475.218 32.1281 475.305 34.0844C475.372 35.5923 475.411 49.5442 475.411 49.5442Z" fill="#2A1412"/>
<path d="M440.061 362.118C437.864 344.162 472.482 317.256 492.012 351.366C500.794 366.677 501.469 490.959 502.988 499.458C505.578 513.645 516.442 550.85 510.757 559.237C502.595 571.282 487.453 568.975 484.358 520.85C480.53 461.636 444.45 397.579 440.061 362.118Z" fill="#DCA296"/>
<path d="M484.899 528.54C485.564 537.648 487.616 549.511 502.453 546.922C508.76 545.822 511.225 540.606 509.034 524.971C512.598 533.482 514.716 540.631 515.07 545.541C515.982 557.529 513.148 566.117 506.842 566.398C503.888 566.534 488.007 564.998 484.899 550.486C483.252 542.807 484.899 528.54 484.899 528.54Z" fill="#100F0D"/>
<path d="M542.445 349.284C535.409 332.511 504.562 310.333 495.333 348.495C491.28 365.662 522.856 487.526 522.294 496.25C521.733 504.919 526.291 551.243 534.113 557.718C545.315 566.947 570.083 561.094 551.396 516.628C527.077 458.708 556.236 382.211 542.445 349.284Z" fill="#E9C3B5"/>
<path d="M552.373 519.211C557.859 541.164 552.126 539.925 543.184 541.914C534.663 543.795 531.25 544.997 524.668 526.62C524.598 536.71 525.628 539.5 526.652 544.291C529.144 556.066 542.464 567.536 551.08 564.573C556.506 562.682 560.247 548.361 558.678 538.96C556.738 527.304 552.373 519.211 552.373 519.211Z" fill="#211E1E"/>
<path d="M644.329 397.523C644.329 400.056 641.571 402.082 638.136 402.082H178.323C174.889 402.082 172.13 400.056 172.13 397.523V309.771C172.13 307.294 174.889 305.21 178.323 305.21H638.136C641.571 305.21 644.329 307.294 644.329 309.771V397.523Z" fill="#7FA6DB"/>
<path d="M497.24 132.325C522.764 147.856 525.853 139.861 536.739 147.134C547.627 154.398 561.548 186.306 561.548 186.306C561.548 186.306 530.963 197.439 529.143 202.892C527.331 208.326 522.476 243.376 522.476 256.078C522.476 265.659 526.426 280.464 526.426 280.464L463.826 279.775L476.036 203.366C476.036 203.366 489.248 174.817 498.327 136.923L497.24 132.325Z" fill="#1E1C1B"/>
<path d="M449.221 130.913C429.763 145.904 420.719 138.562 410.836 147.135C407.26 150.238 391.316 198.383 391.316 198.383C391.316 198.383 418.461 200.154 420.279 205.619C422.104 211.04 432.985 253.676 432.985 260.949C432.985 268.643 428.444 278.417 428.444 278.417L480.832 279.431L479.139 196.771C479.139 196.771 459.443 175.707 450.365 137.825L449.221 130.913Z" fill="#100F0D"/>
<path d="M495.182 127.391C495.182 126.693 508.345 135.209 508.345 135.209L510.815 153.273L498.326 151.665L506.508 161.435L478.117 198.127C478.117 198.127 488.816 156.668 493.122 147.136C497.445 137.618 495.182 127.391 495.182 127.391Z" fill="white"/>
<path d="M454.038 128.623C454.038 127.929 440.875 136.853 440.875 136.853L433.878 149.31L452.543 151.663L446.496 159.986L479.782 199.158C479.782 199.158 461.641 155.865 457.331 146.315C453.017 136.809 454.038 128.623 454.038 128.623Z" fill="white"/>
<path d="M409.467 150.293C391.774 192.22 379.569 223.663 377.101 246.708C374.064 275.008 391.53 267.799 398.085 267.691C422.771 267.278 414.004 244.426 424.005 211.735C425.545 206.087 425.903 196.493 425.903 196.493L409.467 150.293Z" fill="#100F0D"/>
<path d="M411.899 140.086L411.682 139.968H411.667L411.899 140.086ZM411.426 140.374L411.43 139.956H411.426V140.374Z" fill="#CF1E25"/>
<path d="M553.871 165.425C561.721 182.669 569.959 231.187 573.254 241.089C577.857 254.873 553.25 261.09 553.25 261.09C553.25 261.09 521.977 251.994 520.426 251.858C518.874 251.709 525.285 235.392 519.913 230.801C532.558 230.225 546.327 231.851 546.327 231.851L527.786 193.369L553.871 165.425Z" fill="#1E1C1B"/>
<path d="M631.777 562.333H649.846V304.479H631.777V562.333Z" fill="#7FA6DB"/>
<path d="M694.18 281.881C694.18 282.5 692.985 282.976 691.503 282.976H133.786C132.312 282.976 131.12 282.5 131.12 281.881L158.827 268.633C161.572 267.714 162.594 267.514 164.079 267.514L650.416 267.565C651.916 267.565 653.995 267.839 657.65 268.735L694.18 281.881Z" fill="#AECCE5"/>
<path d="M170.554 562.333H349.944V353.282H170.554V562.333Z" fill="#7FA6DB"/>
<path d="M194.009 218.076V247.927H311.556V218.076H194.009Z" fill="#182242"/>
<path d="M300.816 232.726H311.556V218.077H194.009V232.726H284.685H300.816Z" fill="#273D7E"/>
<path d="M295.465 240.466L294.881 240.898H289.057L288.476 240.466V224.425L289.057 223.968H294.881L295.465 224.425V240.466Z" fill="#AECCE5"/>
<path d="M295.465 240.466V224.425L294.881 223.968H291.951V240.898H294.881L295.465 240.466Z" fill="white"/>
<path d="M214.382 240.466L213.415 240.898H203.716L202.746 240.466V224.425L203.716 223.968H213.415L214.382 224.425V240.466Z" fill="#AECCE5"/>
<path d="M214.381 240.466V224.425L213.413 223.968H208.518V240.898H213.413L214.381 240.466Z" fill="white"/>
<path d="M194.009 188.284V218.141H311.556V188.284H194.009Z" fill="#226931"/>
<path d="M300.816 202.938H311.556V188.284H194.009V202.938H284.685H300.816Z" fill="#3E9F3B"/>
<path d="M295.465 211.931L294.881 212.388H289.057L288.476 211.931V195.914L289.057 195.438H294.881L295.465 195.914V211.931Z" fill="#AECCE5"/>
<path d="M295.465 211.931V195.914L294.881 195.438H291.951V212.388H294.881L295.465 211.931Z" fill="white"/>
<path d="M214.382 211.931L213.415 212.388H203.716L202.746 211.931V195.914L203.716 195.438H213.415L214.382 195.914V211.931Z" fill="#AECCE5"/>
<path d="M214.381 211.931V195.914L213.413 195.438H208.518V212.388H213.413L214.381 211.931Z" fill="white"/>
<path d="M194.009 246.252V276.099H311.556V246.252H194.009Z" fill="#6A1317"/>
<path d="M300.816 260.788H311.556V246.158H194.009V260.788H284.685H300.816Z" fill="#A51C21"/>
<path d="M295.465 268.873L294.881 269.33H289.057L288.476 268.873V252.856L289.057 252.399H294.881L295.465 252.856V268.873Z" fill="#AECCE5"/>
<path d="M295.465 268.873V252.856L294.881 252.399H291.951V269.33H294.881L295.465 268.873Z" fill="white"/>
<path d="M214.382 268.873L213.415 269.33H203.716L202.746 268.873V252.856L203.716 252.399H213.415L214.382 252.856V268.873Z" fill="#AECCE5"/>
<path d="M214.381 268.873V252.856L213.413 252.399H208.518V269.33H213.413L214.381 268.873Z" fill="white"/>
<path d="M410.017 268.51L419.065 262.339H531.389L548.671 266.453L410.017 268.51Z" fill="white"/>
<path d="M541.827 223.699C546.929 226.45 563.786 260.699 558.885 264.376C552.731 268.998 519.564 262.607 513.229 256.778C503.613 247.934 491.41 227.97 502.978 231.773L541.827 223.699Z" fill="#100F0D"/>
<path d="M515.073 242.481C515.527 244.538 516.343 245.132 514.147 248.821C511.956 252.512 502.914 258.229 499.826 258.534C496.735 258.842 497.534 257.215 499.146 255.446C500.757 253.663 509.503 246.338 507.88 246.632C506.268 246.933 503.627 250.042 502.171 251.518C500.698 253.006 497.918 257.134 496.161 258.471C494.395 259.805 491.155 259.666 492.462 257.01C493.789 254.364 496.713 249.93 497.73 247.853C498.755 245.794 501.677 242.113 502.115 241.218C502.564 240.329 498.739 242.117 497.561 243.737C496.388 245.364 495.927 246.238 495.047 248.01C494.175 249.774 489.262 257.62 487.349 258.522C485.441 259.404 483.648 259.26 485.246 255.271C486.853 251.286 488.891 246.427 489.919 244.357C490.933 242.293 493.564 238.46 493.564 238.46C493.564 238.46 489.098 242.293 486.907 247.096C485.26 250.697 483.929 257.191 481.869 256.902C479.808 256.622 480.951 249.842 482.124 246.752C483.286 243.656 485.834 238.127 487.295 235.914C488.771 233.694 491.764 230.96 495.453 231.686C499.139 232.403 501.492 232.46 507.099 235.606C510.543 237.534 515.073 242.481 515.073 242.481Z" fill="#DCA296"/>
<path d="M34 401.062V399.811H34.6254V399.185H35.2508V398.56H35.8763V397.934H36.5017V397.309H37.1271V396.684H37.7525V396.058H39.0034V395.433H39.6288V394.807H40.2542V394.182H40.8796V393.556H41.505V392.931H42.1305V392.306H42.7559V391.68H43.3813V391.055H44.0067V390.429H44.6321V389.804H45.2575V389.179H45.883V388.553H46.5084V387.928H47.7592V387.302H48.3846V386.677H49.0101V386.051H49.6355V385.426H50.2609V384.801H50.8863V384.175H51.5117V383.55H52.1372V382.924H52.7626V382.299H53.388V381.674H54.0134V381.048H54.6388V380.423H55.8897V379.797H56.5151V379.172H57.1405V378.546H57.7659V377.921H58.3914V377.296H59.0168V376.67H59.6422V376.045H60.2676V375.419H60.893V374.794H61.5184V374.168H62.1439V373.543H62.7693V372.918H63.3947V372.292H64.6455V371.667H65.271V371.041H65.8964V370.416H66.5218V369.791H67.1472V369.165H67.7726V368.54H68.3981V367.914H69.0235V367.289H69.6489V366.663H70.2743V366.038H70.8997V365.413H71.5252V364.787H72.1506V364.162H73.4014V363.536H74.0268V362.911H74.6523V362.286H75.2777V361.66H75.9031V361.035H76.5285V360.409H77.1539V359.784H77.7793V359.158H78.4048V358.533H79.0302V357.908H79.6556V357.282H80.281V356.657H80.9064V356.031H82.1573V355.406H82.7827V354.78H83.4081V354.155H84.0335V353.53H84.659V352.904H85.2844V352.279H85.9098V351.653H86.5352V351.028H87.1606V350.403H87.7861V349.777H88.4115V349.152H89.0369V348.526H89.6623V347.901H90.9132V347.275H91.5386V346.65H92.164V346.025H92.7894V345.399H93.4148V344.774H94.0402V344.148H94.6657V343.523H95.2911V342.898H95.9165V342.272H96.5419V341.647H97.1673V341.021H97.7928V340.396H99.0436V339.77H99.669V339.145H100.294V338.52H100.92V337.894H101.545V337.269H102.171V336.643H102.796V336.018H103.422V335.392H104.047V334.767H104.672V334.142H105.298V333.516H105.923V332.891H106.549V332.265H107.799V331.64H108.425V331.015H109.05V330.389H109.676V329.764H110.301V329.138H110.927V328.513H111.552V327.887H112.177V327.262H112.803V326.637H113.428V326.011H114.054V325.386H114.679V324.76H115.305V324.135H116.555V323.51H117.181V322.884H117.806V322.259H118.432V321.633H119.057V321.008H119.682V320.382H120.308V319.757H120.933V319.132H121.559V318.506H122.184V317.881H122.81V317.255H123.435V316.63H124.06V316.004H125.311V315.379H125.937V314.754H126.562V314.128H127.187V313.503H127.813V312.877H128.438V312.252H129.064V311.627H129.689V311.001H130.315V310.376H130.94V309.75H131.565V309.125H132.191V308.499H132.816V307.874H134.067V307.249H134.692V306.623H135.318V305.998H135.943V305.372H136.569V304.747H137.194V304.122H137.82V303.496H138.445V302.871H139.07V302.245H139.696V301.62H140.321V300.994H140.947V300.369H141.572V299.744H142.823V299.118H143.448V298.493H144.074V297.867H144.699V297.242H204.739V297.867H348.586V298.493H418.633V299.744H418.007V301.62H417.382V303.496H416.757V304.747H416.131V305.372H177.221V305.998H175.345V306.623H174.094V307.249H173.468V307.874H172.843V309.125H172.218V353.53H170.967V400.436H89.0369V401.062H34ZM649.413 342.272V304.747H631.901V305.372H542.466V304.747H541.84V303.496H541.215V301.62H540.59V300.369H539.964V299.118H635.028V299.744H688.189V300.369H687.563V300.994H686.938V301.62H686.312V302.871H685.687V303.496H685.061V304.122H684.436V304.747H683.811V305.372H683.185V305.998H682.56V306.623H681.934V307.249H681.309V307.874H680.684V308.499H680.058V309.75H679.433V310.376H678.807V311.001H678.182V311.627H677.556V312.252H676.931V312.877H676.306V313.503H675.68V314.128H675.055V314.754H674.429V316.004H673.804V316.63H673.178V317.255H672.553V317.881H671.928V318.506H671.302V319.132H670.677V319.757H670.051V320.382H669.426V321.008H668.801V321.633H668.175V322.884H667.55V323.51H666.924V324.135H666.299V324.76H665.673V325.386H665.048V326.011H664.423V326.637H663.797V327.262H663.172V327.887H662.546V328.513H661.921V329.764H661.296V330.389H660.67V331.015H660.045V331.64H659.419V332.265H658.794V332.891H658.168V333.516H657.543V334.142H656.918V334.767H656.292V336.018H655.667V336.643H655.041V337.269H654.416V337.894H653.79V338.52H653.165V339.145H652.54V339.77H651.914V340.396H651.289V341.021H650.663V341.647H650.038V342.272" fill="url(#paint6_linear_1286_5593)"/>
<path d="M542.843 305.209H415.873C416.714 303.041 417.539 300.907 418.318 298.799L540.221 299.332C540.947 300.958 541.844 302.964 542.843 305.209Z" fill="url(#paint7_linear_1286_5593)"/>
<path d="M349.944 399.029V353.281H172.129V309.77C172.129 307.293 174.888 305.209 178.322 305.209H415.872H542.842H631.776V361.749L599.185 397.69L349.944 399.029Z" fill="url(#paint8_linear_1286_5593)"/>
<path d="M631.776 361.749V304.479H649.845V341.816L631.776 361.749Z" fill="url(#paint9_linear_1286_5593)"/>
<path d="M170.554 399.999V353.281H349.944V399.029L170.554 399.999Z" fill="url(#paint10_linear_1286_5593)"/>
<path d="M695 305.092C695 306.848 693.837 308.255 692.404 308.255H132.289C130.857 308.255 129.685 306.848 129.685 305.092V284.514C129.685 282.765 130.857 281.358 132.289 281.358H692.404C693.837 281.358 695 282.765 695 284.514V305.092Z" fill="#7FA6DB"/>
<path d="M542.63 276.709H399.86V265.735H542.63V276.709Z" fill="#7FA6DB"/>
<path d="M403.094 230.659C397.991 233.406 374.591 260.663 379.983 263.575C395.946 272.225 414.374 264.176 433.351 263.157C446.4 262.456 454.505 228.09 442.931 231.891L403.094 230.659Z" fill="#100F0D"/>
<path d="M433.629 243.776C433.177 245.82 431.624 247.196 433.817 250.885C436.013 254.576 445.155 259.428 448.244 259.736C451.334 260.042 449.187 258.229 447.574 256.452C445.964 254.676 438.987 247.64 440.609 247.926C442.221 248.234 444.864 251.337 446.323 252.817C447.794 254.3 450.721 258.202 452.472 259.548C454.241 260.867 457.48 260.735 456.171 258.077C454.849 255.431 449.99 251.498 448.974 249.421C447.943 247.364 445.028 243.68 444.584 242.781C444.141 241.9 447.066 244.257 448.244 245.889C449.414 247.508 450.821 248.54 451.708 250.311C452.57 252.079 457.295 258.842 459.203 259.736C461.118 260.623 463.053 260.83 461.456 256.834C459.85 252.856 456.965 249.685 455.937 247.621C454.921 245.552 450.902 240.36 450.902 240.36C450.902 240.36 456.242 244.357 458.439 249.16C460.082 252.761 462.772 258.759 464.834 258.471C466.896 258.185 464.61 253.013 463.439 249.93C462.271 246.82 462.078 244.643 460.359 242.618C457.089 238.777 452.702 232.855 449.013 233.573C445.332 234.299 445.214 234.031 439.605 237.177C436.162 239.097 433.629 243.776 433.629 243.776" fill="#DCA296"/>
<path d="M628.224 248.424C628.224 251.463 625.649 253.92 622.473 253.92H488.308C485.137 253.92 482.567 251.463 482.567 248.424V148.662C482.567 145.623 485.137 143.158 488.308 143.158H622.473C625.649 143.158 628.224 145.623 628.224 148.662V248.424Z" fill="#AECCE5"/>
<path d="M547.88 210.115L536.778 277.565H577.998L563.728 210.115H547.88Z" fill="#7FA6DB"/>
<defs>
<linearGradient id="paint0_linear_1286_5593" x1="477.661" y1="145.23" x2="463.386" y2="97.3753" gradientUnits="userSpaceOnUse">
<stop stop-color="#2A1513"/>
<stop offset="0.642857" stop-color="#231311"/>
<stop offset="1" stop-color="#231311"/>
</linearGradient>
<linearGradient id="paint1_linear_1286_5593" x1="477.661" y1="145.228" x2="463.386" y2="97.3749" gradientUnits="userSpaceOnUse">
<stop stop-color="white"/>
<stop offset="0.642857" stop-color="#C4BDB4"/>
<stop offset="1" stop-color="#C4BDB4"/>
</linearGradient>
<linearGradient id="paint2_linear_1286_5593" x1="477.66" y1="145.228" x2="463.384" y2="97.3739" gradientUnits="userSpaceOnUse">
<stop stop-color="#2A1513"/>
<stop offset="0.642857" stop-color="#231311"/>
<stop offset="1" stop-color="#231311"/>
</linearGradient>
<linearGradient id="paint3_linear_1286_5593" x1="477.66" y1="145.229" x2="463.384" y2="97.3744" gradientUnits="userSpaceOnUse">
<stop stop-color="#581C19"/>
<stop offset="0.642857" stop-color="#411816"/>
<stop offset="1" stop-color="#411816"/>
</linearGradient>
<linearGradient id="paint4_linear_1286_5593" x1="477.663" y1="145.227" x2="463.388" y2="97.3725" gradientUnits="userSpaceOnUse">
<stop stop-color="#DCA296"/>
<stop offset="0.642857" stop-color="#A8786B"/>
<stop offset="1" stop-color="#A8786B"/>
</linearGradient>
<linearGradient id="paint5_linear_1286_5593" x1="477.661" y1="145.228" x2="463.386" y2="97.3739" gradientUnits="userSpaceOnUse">
<stop stop-color="#E9C3B5"/>
<stop offset="0.642857" stop-color="#B0917F"/>
<stop offset="1" stop-color="#B0917F"/>
</linearGradient>
<linearGradient id="paint6_linear_1286_5593" x1="360.9" y1="523.881" x2="360.9" y2="314.296" gradientUnits="userSpaceOnUse">
<stop stop-color="white"/>
<stop offset="0.697802" stop-color="white"/>
<stop offset="0.956044" stop-color="#C5C5C6"/>
<stop offset="1" stop-color="#C5C5C6"/>
</linearGradient>
<linearGradient id="paint7_linear_1286_5593" x1="360.901" y1="523.882" x2="360.901" y2="314.297" gradientUnits="userSpaceOnUse">
<stop stop-color="#100F0D"/>
<stop offset="0.697802" stop-color="#100F0D"/>
<stop offset="0.956044" stop-color="#100F0D"/>
<stop offset="1" stop-color="#100F0D"/>
</linearGradient>
<linearGradient id="paint8_linear_1286_5593" x1="360.9" y1="523.882" x2="360.9" y2="314.297" gradientUnits="userSpaceOnUse">
<stop stop-color="#7FA6DB"/>
<stop offset="0.697802" stop-color="#7FA6DB"/>
<stop offset="0.956044" stop-color="#5D7EAB"/>
<stop offset="1" stop-color="#5D7EAB"/>
</linearGradient>
<linearGradient id="paint9_linear_1286_5593" x1="360.901" y1="523.882" x2="360.901" y2="314.297" gradientUnits="userSpaceOnUse">
<stop stop-color="#7FA6DB"/>
<stop offset="0.697802" stop-color="#7FA6DB"/>
<stop offset="0.956044" stop-color="#5D7EAB"/>
<stop offset="1" stop-color="#5D7EAB"/>
</linearGradient>
<linearGradient id="paint10_linear_1286_5593" x1="360.9" y1="523.881" x2="360.9" y2="314.297" gradientUnits="userSpaceOnUse">
<stop stop-color="#7FA6DB"/>
<stop offset="0.697802" stop-color="#7FA6DB"/>
<stop offset="0.956044" stop-color="#5D7EAB"/>
<stop offset="1" stop-color="#5D7EAB"/>
</linearGradient>
</defs>
</svg>
