<svg xmlns="http://www.w3.org/2000/svg" xmlns:xlink="http://www.w3.org/1999/xlink" width="160" height="156" viewBox="0 0 192 143" fill="none" xmlns:v="https://vecta.io/nano"><style><![CDATA[.B{fill:#f37a50}.C{fill:#fff}.D{fill:#de623c}.E{fill:#2c2858}.F{fill:#e62552}.G{fill:#000}.H{fill:#201d40}.I{fill:#95a6db}.J{fill:#768fdb}.K{fill:#3f964f}.L{fill:#e3eaff}.M{fill:#0e6a41}.N{fill:#ff4f78}]]></style><path d="M192 143H0V0h192v143z" class="C"/><path d="M29.123 138.788C16.066 124.652-1.781 110.055 5.217 88.006 9.82 73.503 21.106 69.46 30.486 60.517c4.63-4.414 1.718-10.838 1.632-17.214-.196-16.328 18.13-28.998 34.979-28.734 18.25.286 26.15 18.53 41.459 19.508 6.011.092 11.394-3.416 16.713-6.203 15.759-8.256 40.766-2.991 42.029 16.976.327 10.783-12.016 28.132.351 33.803 9.856 4.52 19.813 6.185 21.59 22.352 2.325 21.16-9.966 32.774-25.982 38.22l-134.135-.437z" class="L"/><path d="M37.662 58.319h18.17c2.249 0 4.072 1.813 4.072 4.049v8.422c0 2.237-1.823 4.05-4.072 4.05h-.135l1.458 4.858c.064.213-.184.384-.362.249l-6.732-5.106H37.662c-2.249 0-4.072-1.813-4.072-4.05v-8.422c0-2.236 1.823-4.049 4.072-4.049z" class="C"/><g class="L"><use xlink:href="#B"/><use xlink:href="#B" y="6.121"/></g><path d="M148.861 35.585h-19.815a4.43 4.43 0 0 0-4.442 4.417v9.184a4.43 4.43 0 0 0 4.442 4.416h.146l-1.59 5.298c-.07.233.2.419.395.271l7.343-5.569h13.521a4.43 4.43 0 0 0 4.441-4.416v-9.184a4.43 4.43 0 0 0-4.441-4.417z" class="C"/><path d="M148.694 43.348h-19.952c-.989 0-1.792-.798-1.792-1.782v-.445c0-.984.803-1.782 1.792-1.782h19.952c.99 0 1.792.798 1.792 1.782v.445c0 .984-.802 1.782-1.792 1.782zm-9.739 6.06h-9.343a2.01 2.01 0 0 1-2.016-2.004 2.01 2.01 0 0 1 2.016-2.005h9.343a2.01 2.01 0 0 1 2.016 2.005 2.01 2.01 0 0 1-2.016 2.004z" class="L"/><g class="C"><path d="M18.91 114.708a1.65 1.65 0 0 1-1.703-1.692c0-.798.684-1.561 1.703-1.561.885 0 1.569.763 1.569 1.561 0 .912-.651 1.692-1.569 1.692zm-2.287-11.07c.751-.564 1.652-.846 2.704-.846 2.27 0 3.472 1.228 3.472 2.954 0 .995-.484 2.008-1.469 3.02-1.252 1.312-2.153 1.959-2.721 1.959-.551 0-.951-.431-.951-.946 0-.465.434-.929 1.185-1.61.05-.05.1-.1.134-.116.851-.78 1.118-1.211 1.118-1.743 0-.664-.451-1.029-1.102-1.029-.3 0-.651.067-1.068.199s-.718.2-.901.2c-.468 0-1.001-.399-1.001-1.063 0-.348.2-.68.601-.979zm137.871-29.962c-.67 0-1.12-.503-1.12-1.114 0-.523.45-1.025 1.12-1.025a1.05 1.05 0 0 1 1.032 1.025c0 .601-.428 1.114-1.032 1.114zm-1.503-7.281c.493-.371 1.086-.557 1.778-.557 1.493 0 2.283.808 2.283 1.943 0 .655-.319 1.321-.966 1.986-.823.862-1.417 1.288-1.79 1.288-.362 0-.625-.284-.625-.622 0-.306.285-.611.78-1.059a.45.45 0 0 1 .087-.076c.56-.513.735-.797.735-1.146 0-.436-.295-.677-.724-.677-.197 0-.428.044-.703.131s-.472.131-.592.131c-.308 0-.659-.262-.659-.698 0-.229.132-.448.396-.644zm32.834 40.338h-20.842c-.368 0-.667-.297-.667-.664V88.232c0-.367.299-.663.667-.663s.667.297.667.663v17.174h20.175c.368 0 .667.297.667.663s-.299.664-.667.664zm-19.265-4.36c-.167 0-.334-.062-.464-.187a.66.66 0 0 1-.016-.938l6.736-6.927a.67.67 0 0 1 .843-.096l3.186 2.054 3.358-3.88a.67.67 0 0 1 .941-.07.66.66 0 0 1 .07.935l-3.738 4.32a.67.67 0 0 1-.868.124l-3.214-2.073-6.354 6.536a.67.67 0 0 1-.48.202z"/><path d="M181.229 95.243l-.95-1.915-2.046-.649 4.554-2.249-1.558 4.813zM45.807 35.125a2.92 2.92 0 0 0-2.925 2.908c0 1.604 1.312 2.909 2.925 2.909s2.925-1.305 2.925-2.909a2.92 2.92 0 0 0-2.925-2.908zm0 6.923c-2.226 0-4.037-1.801-4.037-4.015s1.811-4.014 4.037-4.014 4.037 1.801 4.037 4.014-1.811 4.015-4.037 4.015z"/></g><path d="M168.975 68.926a2.14 2.14 0 0 0-2.143 2.13 2.14 2.14 0 1 0 4.286 0 2.14 2.14 0 0 0-2.143-2.13zm0 5.071c-1.632 0-2.957-1.319-2.957-2.94s1.325-2.94 2.957-2.94 2.957 1.319 2.957 2.94-1.327 2.94-2.957 2.94z" class="L"/><path d="M13.733 85.562a1.92 1.92 0 0 0-1.924 1.913 1.924 1.924 0 1 0 3.848 0 1.92 1.92 0 0 0-1.924-1.913zm0 4.553c-1.464 0-2.655-1.185-2.655-2.641a2.65 2.65 0 1 1 5.31 0c0 1.456-1.191 2.641-2.655 2.641zm142.33-59.777a1.444 1.444 0 1 1-2.888 0 1.444 1.444 0 1 1 2.888 0z" class="C"/><path d="M29.448 56.931c0 1.56-1.272 2.824-2.84 2.824s-2.84-1.264-2.84-2.824 1.272-2.824 2.84-2.824 2.84 1.265 2.84 2.824zM164.696 24.77a2.135 2.135 0 1 1-4.271 0 2.135 2.135 0 1 1 4.271 0zm10.449 50.98a1.82 1.82 0 0 1-1.824 1.813c-1.005 0-1.821-.811-1.821-1.813s.816-1.812 1.821-1.812a1.82 1.82 0 0 1 1.824 1.812z" class="L"/><path d="M159.368 35.749c0 1.248-1.018 2.259-2.273 2.259s-2.272-1.011-2.272-2.259 1.017-2.259 2.272-2.259 2.273 1.011 2.273 2.259zm-104.51-4.104a2.305 2.305 0 1 1-4.61 0 2.305 2.305 0 1 1 4.61 0z" class="C"/><path d="M163.861 140.026H27.428c-.445 0-.806-.359-.806-.801s.361-.802.806-.802h136.433c.445 0 .806.359.806.802s-.361.801-.806.801z" class="H"/><g class="B"><path d="M72.559 69.852h.003l2.094.008.474 4.918-2.444 1.283-2.607-1.269.421-4.932 2.059-.008z"/><path d="M66.805 67.681c1.289 3.203 4.384 4.983 6.914 3.976s3.535-4.419 2.246-7.62-4.384-4.983-6.914-3.976-3.535 4.419-2.246 7.621z"/></g><path d="M74.865 65.087c.15.214.445.267.659.118a.47.47 0 0 0 .119-.656c-.15-.214-.444-.267-.659-.118a.47.47 0 0 0-.119.656zm-3.548 1.441c.162.231.481.288.714.127a.51.51 0 0 0 .128-.71c-.162-.231-.481-.288-.714-.127a.51.51 0 0 0-.128.71z" class="G"/><path d="M74.147 65.839l1.441 1.108s.009.767-.894 1.1c.326-.295.613-.686.273-1.139l-.82-1.07z" class="D"/><g class="H"><path d="M70.383 66.221c-.018 0-.037-.002-.055-.006-.127-.03-.205-.157-.175-.283.083-.345.43-.998 1.151-1.002.132.001.237.104.238.234s-.105.235-.235.236c-.534.002-.692.633-.693.64-.026.108-.123.181-.23.181zm3.986-2.13c-.034 0-.068-.009-.099-.027-.094-.054-.125-.174-.07-.268.009-.014.216-.359.607-.431.267-.049.544.038.821.259.085.067.099.191.031.275a.2.2 0 0 1-.277.031c-.184-.147-.354-.207-.503-.179-.213.039-.338.242-.339.244-.037.062-.103.097-.17.097zm-9.324 1.199c-1.09-3.086 1.565-4.86 1.565-4.86s-.712-.064-.797-1.058c.533.165 1.131.154 1.656-.036 3.54-1.274 5.977-1.257 5.977.249 0 .536 2.338.169 2.141 3.774.014-.255-.821-1.737-1.611-1.885s-.076.901-1.726 1.126c-1.665.227-2.888-.174-3.905.759-.796.814-.993 4.956-.872 5.205-.277-.571-1.95-1.918-2.429-3.275z"/><path d="M76.453 65.839s.15 1.879-.122 2.46c-.283-.754-.892.045-1.464.12-1.382.182-3.875-.277-4.122 1.785-1.689.531-3.271-3.063-3.271-3.063-.097 4.016 2.858 6.296 7.111 5.628 2.802-.441 3.062-4.319 1.868-6.93z"/></g><path d="M73.541 69.69a3.61 3.61 0 0 1-.853-.332c-.077-.041-.106-.136-.065-.212s.137-.105.213-.064c.654.347 1.241.447 1.743.294.621-.188.905-.709.908-.713.04-.076.136-.106.213-.066s.106.134.066.211a1.93 1.93 0 0 1-1.089.867c-.35.108-.731.113-1.136.017z" class="D"/><path d="M67.434 67.168c.711.397 1.023 1.188.696 1.767s-1.168.727-1.88.329-1.023-1.188-.696-1.767 1.169-.726 1.88-.329z" class="B"/><path d="M67.326 68.902c.022-.016.041-.036.054-.061.196-.36.163-.727-.086-.982-.255-.26-.667-.335-.979-.178-.088.044-.123.151-.079.238s.152.122.24.078c.171-.086.418-.038.563.109.139.142.148.343.027.566-.047.086-.014.194.072.24a.18.18 0 0 0 .187-.011z" class="D"/><path d="M74.982 135.53c.446-1.204 1.398-1.337 1.398-1.337 1.852 2.54 6.399.981 6.248 4.417-6.915-.044-9.788 0-9.788 0 .009-.789.146-2.662.305-3.396l.361.066 1.476.25zm-10.346.066c.446-1.203 1.398-1.337 1.398-1.337 1.852 2.54 6.399.982 6.248 4.417-6.915-.044-9.789 0-9.789 0 .009-.789.146-2.662.305-3.395l.36.066 1.477.249z" class="G"/><path d="M79.582 95.412s1.122 16.281.667 19.9-2.071 8.261-1.888 20.232c-2.254.562-5.52 0-5.52 0s-.485-13.537 1.898-19.583c-.969-5.874-4.078-19.327-4.078-19.327l8.921-1.223z" class="H"/><path d="M75.314 95.856s-2.267 18.279-3.376 21.746-3.274 6.398-5.283 18.192h-4.474s.313-14.961 3.921-18.363c.122-5.956-.583-21.457-.583-21.457l9.796-.118z" class="E"/><path d="M64.864 75.112s3.937-1.37 5.25-.741c4.08 1.953 5.015 0 5.015 0 1.304.112 5.239.741 5.239.741 0 4.37.293 8.755.214 12.062-.057 2.879.495 10.716.495 10.716s-4.341 1.131-8.447 1.161c-4.107-.027-8.286-1.115-8.286-1.115l.402-10.887c-.059-3.307.118-7.578.118-11.937z" class="F"/><path d="M87.368 81.608c-1.625-3.855-6.448-6.308-6.999-6.495l-1.119 4.95c2.317 1.362 3.999 2.836 3.999 2.836-.286 1.379-.238 2.73-1.04 4.473 0 0 .697-.956 1.556-.39.836.55 2.373-.573 2.373-.573s2.471-1.856 1.23-4.8z" fill="#c4204a"/><path d="M86.462 91.351c.028.009.057.014.085.016h.092a.44.44 0 0 0 .374-.305l4.333-13.889a.39.39 0 0 0 .017-.084c.002-.019.001-.037.001-.054 0-.011.001-.022 0-.034s-.004-.019-.006-.029c-.026-.157-.137-.295-.301-.347a.45.45 0 0 0-.082-.017c-.032-.004-.063-.004-.094 0H79.973l-4.371 14.758H86.47l-.008-.016z" class="I"/><path d="M80.072 76.626a.44.44 0 0 0-.551.288l-4.305 13.854-.01.033c-.071.23.058.473.288.546l.001.001a.44.44 0 0 0 .551-.288l4.317-13.886c.072-.231-.058-.476-.29-.548z" class="J"/><path d="M88.313 85.437a.43.43 0 0 1 .13-.056c-.004-.007-.009-.014-.014-.02-.271-.407-.253-.894.04-1.088.048-.031.101-.052.157-.065-.076-.301-.008-.589.202-.727a.5.5 0 0 1 .281-.078c-.096-.296-.019-.607.215-.761.294-.194.72-.069.951.279s.181.786-.112.979c-.075.049-.157.077-.244.087.196.379.156.794-.109.968-.048.032-.101.053-.157.066.077.301.008.588-.201.726a.49.49 0 0 1-.26.079c.097.259.036.538-.17.674-.248.163-.608.058-.803-.236s-.153-.663.095-.827zm-13.41-.878l.995-.573s.275-1.402 1.872-1.436l-.447 1.436s.786.606 2.65-.432c1.822-.407 1.043.914 1.647 1.009.891.14-.649 1.881-2.469 2.147-2.354.345-2.633-.134-2.633-.134l-1.332.463-.283-2.48z" class="B"/><path d="M65.704 86.058c3.323-.231 8.992-1.863 8.992-1.863.907 1.384.657 3.221.657 3.221-5.161 4.499-12.927 5.953-15.311 4.87-2.176-.988-.64-14.157 4.823-17.174 1.873 3.151.84 10.945.84 10.945z" fill="#8a284c"/><path d="M119.261 134.309c-1.852 2.455-6.399.948-6.249 4.27h9.789c-.008-.763-.145-2.574-.305-3.283l-3.235-.987zm10.345.063c-1.851 2.456-6.398.949-6.248 4.271h9.789c-.009-.763-.146-2.574-.305-3.283l-3.236-.988z" class="G"/><path d="M116.06 96.816s-1.122 15.74-.665 19.24 2.071 7.985 1.888 19.559c2.254.543 5.519 0 5.519 0s.485-13.087-1.898-18.933c.969-5.678 4.078-18.683 4.078-18.683l-8.922-1.183z" class="H"/><path d="M120.327 97.247s2.268 17.671 3.377 21.022 3.274 6.185 5.282 17.588c2.318.111 5.078-.456 5.078-.456s-.916-14.007-4.524-17.296c-.122-5.758.584-20.744.584-20.744l-9.797-.114z" class="E"/><path d="M129.561 68.338c-1.229 3.053-4.18 4.75-6.592 3.79s-3.371-4.212-2.142-7.265 4.181-4.75 6.591-3.791 3.371 4.213 2.143 7.266z" class="B"/><path d="M121.875 65.865c-.142.203-.423.254-.628.112s-.256-.422-.113-.625.423-.254.628-.112.256.421.113.625zm3.384 1.373a.49.49 0 0 1-.68.121c-.222-.153-.276-.456-.122-.677a.49.49 0 0 1 .68-.121c.222.153.277.456.122.677z" class="G"/><path d="M122.562 66.582l-1.374 1.056s-.008.732.853 1.049c-.311-.281-.585-.654-.261-1.085l.782-1.02z" class="D"/><g class="G"><path d="M126.149 66.945c-.101 0-.193-.069-.218-.172-.007-.024-.158-.608-.661-.61-.124-.001-.225-.101-.224-.225s.102-.224.226-.223c.687.004 1.019.626 1.098.955.028.12-.046.241-.167.27-.018.004-.036.006-.054.006zm-3.8-2.03a.19.19 0 0 1-.162-.091c-.003-.006-.125-.199-.325-.235-.143-.025-.303.033-.478.172a.19.19 0 0 1-.264-.029c-.065-.081-.052-.198.029-.263.265-.21.528-.293.782-.246.374.068.572.397.579.411.053.089.023.203-.066.256-.031.017-.063.025-.095.025z"/><path d="M128.703 68.656c-.888-2.841.235-4.35.235-4.35-.762-.152-1.059.11-1.059.11-.417-.85-.094-1.458-.094-1.458-1.577-.611-2.362.404-3.785.746-1.948.468-4.355-.304-4.58-2.669-.033-.342.346-.564.633-.372.268.177.621.32 1.062.308 0 0-.408-.458-.429-1.092-.012-.349.4-.538.67-.314.404.335 1.157.651 2.497.403.892-.167 2.932-1.587 4.204-1.31 1.04.227 1.864 1.107 2.219 2.365 0 0 2.556.264 2.812 3.06.252 2.747-2.949 4.855-2.949 4.855l-1.436-.283z"/></g><path d="M128.354 68.183c-.677.381-.97 1.137-.658 1.687s1.118.688 1.794.306.971-1.136.657-1.687-1.116-.688-1.793-.307z" class="B"/><path d="M128.464 69.835c-.021-.015-.039-.034-.052-.058-.188-.343-.159-.692.078-.936.242-.249.635-.322.933-.174.084.042.118.144.076.227a.17.17 0 0 1-.228.075.49.49 0 0 0-.537.106c-.131.135-.14.327-.023.539a.17.17 0 0 1-.247.22z" class="D"/><path d="M121.328 69.663c-.067-.108.027-.242.152-.215.316.066.838.165 1.341.209s1.036.04 1.359.03c.127-.004.196.145.112.239-.26.29-.781.719-1.552.65s-1.208-.582-1.412-.913z" class="C"/><path d="M118.081 73.664s.116-.311-9.836-.231l-2.668 3.135c2.762 2.201 12.009 2.593 12.009 2.593l.495-5.497z" class="H"/><path d="M121.698 73.409l3.138-.292 3.037.842-3.421 3.501-2.754-4.051z" class="I"/><path d="M122.786 75.016c1.279 1.044 1.54 1.765 4.257.37l.408-4.154-4.423-.347-.242 4.131z" class="B"/><path d="M128.679 75.632l-.931-.366.125-1.306-2.58 2.06-.729.115-.696-.242-2.17-2.483-.111 1.307-.821.164-2.96.476-.352 16.334-1.168 5.557c3.928 1.299 8.319 1.623 12.637 1.031l-.146-5.578 3.068-15.963-3.166-1.105z" class="I"/><g class="E"><path d="M123.997 77.785l-1.853 12.471 1.026 1.419 1.339-1.023.455-12.763-.967-.104z"/><path d="M123.886 76.313l.678-.178.69.3-.292 1.479-.972-.087-.104-1.514zm-2.231-2.799l-.465 15.064-2.006 9.7s-3.172-.317-5.12-2.161l2.498-7.302.853-15.261 4.24-.04z"/></g><path d="M121.654 73.513l-.463 14.863-2.307-11.391 2.77-3.472z" fill="#494c7f"/><path d="M128.11 74.476l-4.118 24.423s5.465.668 7.712-.801l-1.219-8.029 1.49-13.63-3.865-1.963z" class="E"/><path d="M128.111 74.476l-2.407 14.315 4.31-10.8-1.903-3.515z" fill="#494c7f"/><path d="M100.897 60.114c.218.761.284 1.584 1.256 1.994l-.036 4.603 2.351-2.64c-.134-.836-.243-2.417-.114-3.315l.117-.699c.101-.567.269-1.148-.079-1.832-1.342-2.644-.891-3.514-1.076-3.643-.3-.132-1.006.4-.607 1.7.387 1.257.291 1.874.291 1.874s-1.015-.19-1.374.162c-.164.161-.985.903-.729 1.795z" class="B"/><path d="M101.443 63.679c1.371-.455 2.093-.659 3.159-.659 2.521 7.468 4.317 10.282 3.568 12.427-.625 1.787-2.602 1.644-3.568.305-1.275-1.767-2.404-8.479-3.159-12.072zm30.532 12.76l7.94 12.352 9.431 5.294-2.906 2.878-9.462-4.124-6.494-9.11 1.491-7.291z" class="H"/><g class="C"><path d="M124.564 76.135s-1.168 1.173-2.242 1.473l-1.27-3.339.646-.859 2.866 2.726z"/><path d="M124.565 76.134s.666 1.138 1.943 1.846l1.848-3.052-.482-.97-3.309 2.175z"/></g><g class="I"><path d="M133.207 111.3H63.873c-1.63 0-2.951-.884-2.951-1.974s1.321-1.974 2.951-1.974h69.334c1.63 0 2.952.883 2.952 1.974s-1.322 1.974-2.952 1.974z"/><path d="M89.859 139.118a.93.93 0 0 1-.784-1.438l18.307-27.895 1.567 1.017-18.306 27.894c-.173.263-.467.422-.784.422z"/><path d="M107.222 139.118a.93.93 0 0 0 .783-1.438l-18.306-27.895-1.568 1.017 18.307 27.894c.172.263.467.422.784.422z"/></g><path d="M135.966 138.676c-.494 0-.896-.399-.896-.891v-15.789h1.793v15.789c0 .492-.401.891-.897.891zm6.29 0c-.495 0-.896-.399-.896-.891v-15.789h1.792v15.789c0 .492-.401.891-.896.891zm8.253 0c-.494 0-.897-.399-.897-.891v-15.789h1.793v15.789c0 .492-.401.891-.896.891zm6.288 0c-.494 0-.896-.399-.896-.891v-15.789h1.793v15.789c0 .492-.401.891-.897.891z" class="J"/><g class="I"><path d="M146.881 98.563v18.79c0 .214-.174.387-.389.387h-11.716c-1.182 0-2.141.953-2.141 2.128s.959 2.128 2.141 2.128h12.105 2.141c1.182 0 2.14-.952 2.14-2.128v-2.128-19.177c0-1.175-.958-2.128-2.14-2.128s-2.141.953-2.141 2.128z"/><path d="M158.286 118.085h-9.264v-21.65h9.264v21.65z"/></g><path d="M156.144 98.563v18.79c0 .214-.173.387-.389.387h-11.716c-1.182 0-2.141.953-2.141 2.128s.959 2.128 2.141 2.128h12.105 2.141c1.181 0 2.14-.952 2.14-2.128v-2.128-19.177c0-1.175-.959-2.128-2.14-2.128s-2.141.953-2.141 2.128zm-95.908 40.113c.495 0 .896-.399.896-.891v-15.789H59.34v15.789c0 .492.401.891.896.891zm-6.289 0c.495 0 .896-.399.896-.891v-15.789h-1.792v15.789c0 .492.401.891.896.891zm-8.253 0c.495 0 .896-.399.896-.891v-15.789h-1.793v15.789c0 .492.401.891.896.891zm-6.289 0c.495 0 .896-.399.896-.891v-15.789h-1.792v15.789c0 .492.401.891.896.891z" class="J"/><g class="I"><path d="M49.322 98.563v18.79c0 .214.174.387.389.387h11.716c1.182 0 2.14.953 2.14 2.128s-.958 2.128-2.14 2.128H49.322h-2.14c-1.182 0-2.14-.952-2.14-2.128v-2.128-19.177c0-1.175.958-2.128 2.14-2.128h0c1.182 0 2.14.953 2.14 2.128z"/><path d="M37.918 118.085h9.264V96.436h-9.263v21.649z"/></g><path d="M40.059 98.563v18.79c0 .214.174.387.389.387h11.716c1.182 0 2.14.953 2.14 2.128s-.958 2.128-2.14 2.128H40.059h-2.14c-1.182 0-2.14-.952-2.14-2.128v-2.128-19.177c0-1.175.958-2.128 2.14-2.128s2.14.953 2.14 2.128z" class="J"/><path d="M142.113 91.383c-1.976-.709-5.03-2.259-3.001-5.092s1.977-1.597 1.248-5.038 1.729-6.148 4.076-5.463 2.945 2.572 5.82 2.095 5.266 2.197 4.184 4.516-1.545 3.435-.533 4.719 5.573 2.666 3.67 5.741-2.774 2.887-2.113 4.462-.863 3.371-3.507 3.126-5.037-1.24-6.007-4.175-3.837-4.892-3.837-4.892z" class="E"/><path d="M135.12 136.082l-1.562.464-1.177-1.196c.057-.083.003-.884-.18-1.737l2.919-.481c.116.883 0 2.057 0 2.95z" class="B"/><path d="M133.57 136.267c-.372-.97-1.166-1.078-1.166-1.078-1.543 2.047-5.333.791-5.208 3.559h8.158c-.007-.636-.121-2.144-.255-2.735l-.299.053-1.23.201z" class="F"/><path d="M124.732 136.371l-1.627.11-.936-.99c.074-.068.25-1.295.262-2.167l2.741.121c-.082.888-.243 2.055-.44 2.926z" class="B"/><path d="M123.281 136.267c-.372-.97-1.165-1.077-1.165-1.077-1.544 2.046-5.334.79-5.208 3.558h8.158c-.007-.636-.121-2.144-.255-2.735l-.3.053-1.23.201z" class="F"/><path d="M141.179 109.33c-4.44.594-16.947 5.203-17.645 6.037-1.44 1.722-.681 11.093-1.365 18.826l3.636.213c1.742-6.297 1.603-9.015 2.39-16.238 0 0 14.289 1.064 19.453-2.402 5.324-3.572-2.879-7.283-6.469-6.436z" class="M"/><g class="D"><path d="M135.392 100.149c1.05.178 1.454 1.016 1.707 2.557-3.998 2.342-9.936 2.508-9.936 2.508l-1.893-.931s4.762-1.705 10.122-4.134z"/><path d="M146.323 95.744c-1.75 2.528-8.451 7.963-9.561 8.133l-1.343-3.739 7.734-8.286c2.057-2.16 6.034-.23 3.17 3.892z"/></g><path d="M138.953 95.339c1.403-1.503 3.23-4.895 5.607-4.654s2.55 2.75 1.833 4.101-3.191 4.68-3.191 4.68l-4.249-4.126z" class="N"/><path d="M139.383 101.697c1.008.346 1.583 3.502 1.3 3.743-4.32 1.701-13.309-.138-13.309-.138l-.478-1.619s6.807-.415 12.487-1.986z" class="B"/><path d="M153.598 111.983l-1.825-9.249c-1.014-5.895 1.969-10.038-3.145-12.863l-3.725.597c-3.013 3.152-4.868 6.012-5.027 7.989-.218 2.549 2.325 3.933 2.325 3.933l-1.024 6.94s-.239.566 3.962 1.356a146.62 146.62 0 0 0 8.459 1.297z" class="F"/><path d="M150.536 96.462c-1.75 2.557-9.225 9.055-10.348 9.113l-.804-3.878 7.981-9.172c2.058-2.184 6.035-.232 3.171 3.937z" class="B"/><path d="M143.389 96.48c1.306-1.888 3.939-5.372 6.316-5.131s2.549 2.75 1.833 4.1-3.191 4.679-3.191 4.679l-4.958-3.648z" class="N"/><path d="M126.897 103.683c-1.374-.336-4.362-1.335-5.565 1.794.301.575 1.408-.843 1.883-.974.755-.209 1.402.185 1.972.728.819.778 2.188.07 2.188.07l-.478-1.618z" class="B"/><g class="N"><path d="M125.827 107.319h-12.91v-1.724h14.644a1.73 1.73 0 0 1-1.734 1.724z"/><path d="M106.28 96.491l6.638 10.828 1.534-.802-7.445-12.354a1.72 1.72 0 0 0-.727 2.328z"/></g><g class="B"><path d="M150.335 85.042c-.628 2.607-2.805 4.323-4.865 3.833s-3.22-3.002-2.592-5.608 2.806-4.322 4.865-3.832 3.22 3.001 2.592 5.608z"/><path d="M149.338 86.415l-3.422 2.109-.455 1.991c-.313 1.007.885 1.447 1.898.82s1.271-1.465 1.271-1.465l.708-3.456z"/></g><path d="M142.642 82.271c.973.083 3.079-.084 3.848-.99.548 1.839 2.876 3.59 4.802 4.411.077-1.887.063-5.359-3.339-6.801-2.673-1.133-5.311 3.38-5.311 3.38z" class="E"/><path d="M143.842 83.952a.37.37 0 0 1-.493.165c-.182-.09-.257-.31-.166-.491a.37.37 0 0 1 .494-.164c.182.09.256.31.165.491zm2.893.709a.4.4 0 0 1-.534.178c-.196-.097-.278-.335-.178-.531a.4.4 0 0 1 .534-.178c.196.098.276.335.178.531z" class="G"/><path d="M147.176 84.333c-.027-.014-.05-.036-.063-.065-.2-.428-.74-.512-.745-.513-.076-.011-.129-.081-.118-.157s.081-.127.157-.117c.029.004.693.104.957.67.032.069.002.151-.068.183-.038.018-.084.017-.12-.002zm-4.136-.912c-.014-.006-.026-.016-.037-.026-.054-.054-.054-.141 0-.195a.98.98 0 0 1 .967-.235c.072.024.111.103.086.175s-.104.11-.176.085c-.017-.005-.383-.121-.681.172-.044.042-.107.051-.159.025z" class="E"/><path d="M144.08 84.748c-.202.207-.38.42-.573.541-.064.041-.086.126-.048.193.156.275.611.501.89.619.042.017.074-.036.042-.065-.282-.246-.403-.426-.454-.526a.17.17 0 0 1 0-.157l.251-.536c.027-.066-.058-.121-.108-.069z" class="D"/><path d="M149.344 85.059c-.5.387-.648 1.03-.33 1.438s.983.423 1.483.037.648-1.031.329-1.439-.982-.423-1.482-.036z" class="B"/><path d="M149.629 86.379c-.019-.009-.035-.023-.049-.041-.192-.255-.21-.54-.048-.764a.67.67 0 0 1 .731-.25c.073.024.112.102.088.175s-.101.112-.175.087c-.141-.046-.326.019-.419.149s-.075.28.044.438c.046.061.034.147-.027.193a.14.14 0 0 1-.145.014z" class="D"/><path d="M146.147 110.135c-4.44.594-16.966 4.631-17.664 5.464-1.439 1.723 1.766 9.098 2.791 18.593h4.286c-.045-6.765.499-12.989-1.595-15.194 0 0 12.006-.797 17.992-.797 3.052 0 4.74-10.251-5.81-8.066z" class="K"/><path d="M143.892 86.942c-.059-.079.005-.191.104-.179a9.58 9.58 0 0 0 1.062.072 9.69 9.69 0 0 0 1.063-.069c.1-.011.163.099.103.179-.182.245-.559.615-1.166.614s-.984-.372-1.166-.616z" class="C"/><g class="B"><path d="M58.633 102.845c-.848.561-.613 3.618-.293 3.773 4.409.536 11.855-3.095 11.855-3.095l.292-1.625s-6.219 1.035-11.854.947z"/><path d="M48.947 97.545c1.576 2.505 8.475 8.986 9.545 9.082l.912-3.673L52.12 93.9c-1.884-2.162-5.754-.443-3.173 3.644z"/></g><path d="M52.717 84.154c.19-2.566-.557-4.833-2.614-5.987-2.085-1.17-4.698-.022-4.698-.022s-2.211-.782-4.215 1.413-.488 4.126-1.308 5.727c-.486.948-2.954 1.144-2.317 4.231.184.891 1.261 1.49 2.174 1.549 1.603.105 3.096-.511 3.746.105 2.141 2.031 6.886 1.296 7.551-.561.206-.576 4.474.538 4.049-3.384-.216-1.988-2.536-.779-2.366-3.071z" class="E"/><path d="M48.805 92.448l-3.389-.622-1.271 1.681 2.701 5.505 3.972-3.352-2.014-3.212z" class="B"/><g class="K"><path d="M53.198 105.723c-.058-1.048 1.645-5.35.749-7.515-.653-1.742-1.743-4.666-3.079-5.154-.63-.23-1.278-.39-2.063-.606 0 0 .443 2.195-.48 2.269-1.777.141-2.909-2.891-2.909-2.891-.958-.091-5.351 1.344-5.349 1.703.01 2.809 2.306 6.909 3.057 9.947.296 3.281-.856 7.207-.86 7.58 0 0 7.068 1.976 11.258-.318.088-.319-.243-3.569-.323-5.015z"/><path d="M43.327 107.685s-1.56 3.914-1.941 6.378 1.767 4.045 1.767 4.045h17.858s1.912-3.082 1.361-5.212-1.817-2.466-1.817-2.466l-17.228-2.745z"/></g><g class="D"><path d="M61.251 110.32c-2.28-.319-8.897 2.236-11.718 7.788h7.893l3.825-7.788z"/><path d="M58.75 112.364a6.29 6.29 0 0 0 .798-1.129c.665-1.165 2.269-1.362 3.175-.369 3.291 3.608 10.307 11.832 11.871 12.856.442.289 3.021 1.765 5.472 1.474 0 0 1.21.457.404 1.413-.415.492-6.645 1-6.645 1l-.485-1.819c-3.626-2.668-8.141-2.477-11.969-7.355-2.108-2.687-2.621-6.071-2.621-6.071z"/></g><path d="M75.087 128.659l2.507 1.617.344-.408-2.033-1.886c1.155-.906 3.831-.15 3.831-.15.876-.563 2.584-2.388 2.761-3.366-.562-.695-2.43.735-2.43.735.068.309-.522 1.383-.992 1.566-2.041.438-4.076-.139-5.736-.977 0 0-1.387 2.09 1.747 2.869z" class="F"/><path d="M58.713 112.854c-.456.123-.797.502-.863.968-.179 1.259-1.101 3.809.147 6.48 3.063 6.556 4.871 10.876 5.192 12.568-.8 1.49 2.39 5.559 2.437 5.826l2.296-.715-1.792-2.711c-1.129-1.817-1.314-4.047-1.498-5.775-.784-7.378.564-12.036-4.805-16.364-.318-.256-.72-.383-1.114-.277z" class="B"/><path d="M62.045 135.991l.226 2.963.535.025.275-2.752c1.425.364 2.443 2.938 2.443 2.938.981.351 3.477.595 4.366.142.216-.866-2.061-1.476-2.061-1.476-.206.243-1.422.426-1.854.166-1.588-1.348-2.451-3.306-2.787-5.127 0 0-2.422.171-1.144 3.121z" class="F"/><g class="B"><path d="M47.949 89.696l-2.752-.41.219 2.54s.527 1.15 1.138 1.228l2.251-.606-.856-2.752z"/><path d="M42.651 86.024c.71 2.95 3.175 4.891 5.506 4.337s3.643-3.396 2.933-6.346-3.175-4.891-5.505-4.337-3.643 3.396-2.933 6.346z"/></g><path d="M49.997 84.79a.42.42 0 0 0 .559.186c.206-.102.29-.35.187-.555a.42.42 0 0 0-.559-.187c-.206.102-.29.351-.187.556zm-3.273.803c.111.222.382.312.605.202s.314-.38.203-.601a.45.45 0 0 0-.605-.202c-.223.11-.314.38-.203.601z" class="G"/><path d="M46.226 85.221c.031-.015.057-.04.072-.074.226-.485.837-.579.843-.581.086-.012.145-.091.133-.177s-.091-.144-.177-.132c-.032.005-.785.117-1.083.759-.036.078-.002.17.076.207.045.021.095.019.136-.002zm4.68-1.032c.015-.007.029-.017.042-.03.061-.061.06-.16-.001-.22-.479-.471-1.068-.275-1.093-.267-.082.028-.125.117-.097.198s.117.124.199.097a.79.79 0 0 1 .771.193c.049.048.122.058.18.029z" class="E"/><path d="M49.729 85.691c.229.234.429.475.648.612.074.046.097.143.054.219-.176.31-.691.566-1.007.7-.046.019-.084-.041-.046-.074.319-.277.456-.482.513-.594.029-.056.028-.121-.001-.178l-.283-.606c-.03-.075.066-.137.122-.079z" class="D"/><path d="M43.773 86.043c.566.438.733 1.167.372 1.627s-1.112.48-1.678.041-.733-1.167-.373-1.627 1.112-.479 1.678-.041z" class="B"/><path d="M43.45 87.536c.021-.01.04-.026.055-.046.218-.287.238-.611.055-.864a.76.76 0 0 0-.828-.282c-.082.027-.127.115-.1.197s.116.127.198.099c.16-.052.369.022.475.168s.084.317-.051.495c-.052.069-.038.167.031.218.049.037.113.041.164.015z" class="D"/><path d="M47.153 88.043c-.066-.088.005-.211.115-.198.278.033.738.078 1.178.078s.899-.045 1.178-.078c.109-.013.18.11.115.198-.202.271-.619.681-1.292.681s-1.09-.41-1.292-.681z" class="C"/><path d="M42.594 85.763c2.781-.37 6.673-3.187 6.992-4.634-.538-1.737-3.404-2.61-5.023-1.805s-3.148 4.253-1.969 6.439z" class="E"/><path d="M68.613 106.675a.7.7 0 0 1-.452-.884l4.293-13.076c.121-.368.519-.569.889-.449a.7.7 0 0 1 .452.884l-4.293 13.077c-.121.367-.519.568-.889.448z" class="C"/><g class="B"><path d="M70.893 101.989l.875-2.664s.758 1.532 0 2.987-1.48 1.521-1.48 1.521l.605-1.844zm-1.249-.713c-.221-.517-.742-1.811-.221-1.805s.606.634.606.634l-.384 1.171zm-43.007-7.787c1.181-1.184.406-2.399.406-2.399.648-.138 4.066 5.01 5.54 8.282 2.571-2.576 7.101-6.055 8.325-6.258 0 0 1.653-.442 2.246 1.545.53 1.772-1.537 3.029-1.537 3.029s-8.842 6.207-10.149 5.655c-2.035-.858-3.876-8.246-4.831-9.854z"/><path d="M24.79 93.342c.722.044 1.614-.311 1.892.333l1.424-.69.086-.854c-1.224-1.949-4.206-2.502-4.501-2.528-.767-.066-1.123-.145-1.183-.044s-.248.781.865.914c1.397.167.47 1.277-2.365.22-.71-.265-2.045.079-1.562.594.532.568 2.062 1.856 5.344 2.055z"/></g><path d="M101.934 53.647a5.61 5.61 0 0 1-.32 1.867c-1.046 2.984-4.535 5.176-8.681 5.176s-7.635-2.192-8.68-5.176c-.209-.595-.321-1.22-.321-1.867h18.001z" class="K"/><path d="M101.934 53.646a5.61 5.61 0 0 1-.32 1.867h-17.36c-.209-.595-.321-1.22-.321-1.867h18.001z" class="M"/><path d="M111.783 23.455c0-10.341-8.424-18.727-18.822-18.741-10.254-.014-18.689 8.203-18.873 18.397-.08 4.459 1.406 8.57 3.949 11.825 3.216 4.119 5.001 9.165 5.001 14.38v.093h19.791v-.093c0-5.222 1.799-10.267 5.016-14.397a18.59 18.59 0 0 0 3.938-11.465z" fill="#ffe91d"/><path d="M93.139 23.616a13.57 13.57 0 0 0-1.317 3.027c-.555 1.873-.631 3.668-.202 4.8.31.818.836 1.243 1.609 1.301.798.06 1.3-.266 1.581-1.024.639-1.726-.137-5.251-1.671-8.105zm2.645 23.672c-.052 0-.106-.008-.159-.027a.48.48 0 0 1-.296-.61 167.44 167.44 0 0 0 3.86-12.914c2.863-11.493 1.389-13.361.624-13.63-2.253-.793-4.047.38-5.155 1.504-.325.33-.637.703-.931 1.109.481.828.914 1.742 1.279 2.708.998 2.651 1.263 5.128.709 6.624-.427 1.155-1.336 1.74-2.557 1.649-1.152-.087-1.996-.75-2.439-1.919-.508-1.341-.442-3.312.18-5.409.392-1.324.98-2.598 1.692-3.695-.665-1.045-1.435-1.945-2.27-2.55-1.24-.899-2.405-.938-3.462-.116-2.183 1.696-2.267 6.799-.242 14.756a105.07 105.07 0 0 0 3.874 11.863.48.48 0 0 1-.266.623c-.247.099-.527-.019-.627-.265-.023-.057-2.335-5.781-3.913-11.978-2.158-8.477-1.963-13.778.58-15.755 1.396-1.086 3.039-1.052 4.624.097.794.575 1.579 1.438 2.291 2.494.253-.326.517-.63.789-.907 1.845-1.87 4.034-2.487 6.165-1.737 1.327.468 1.871 2.243 1.664 5.429-.152 2.35-.716 5.493-1.675 9.341-1.626 6.526-3.861 12.929-3.883 12.994-.069.198-.257.322-.455.322z" class="C"/><path d="M101.16 54.259H84.706c-1.961 0-3.551-1.581-3.551-3.531v-.149c0-1.95 1.59-3.531 3.551-3.531h16.454c1.961 0 3.552 1.582 3.552 3.531v.149c0 1.95-1.591 3.531-3.552 3.531z" class="K"/><path d="M124.955 24.226h-6.162c-.878 0-1.589-.707-1.589-1.579s.711-1.579 1.589-1.579h6.162c.878 0 1.589.707 1.589 1.579s-.711 1.579-1.589 1.579zm-57.881.001h-6.163c-.877 0-1.588-.707-1.588-1.579s.711-1.579 1.588-1.579h6.163c.877 0 1.588.707 1.588 1.579s-.711 1.579-1.588 1.579zm3.918-12.966l-4.904-3.71c-.698-.528-.833-1.519-.302-2.213s1.528-.828 2.226-.3l4.905 3.71c.698.528.834 1.519.302 2.213s-1.528.828-2.226.3zm43.57 0l4.905-3.71c.698-.528.833-1.519.301-2.213s-1.527-.828-2.225-.3l-4.905 3.71c-.698.528-.833 1.519-.302 2.213s1.528.828 2.226.3zm-43.57 24.73l-4.904 3.711c-.698.528-.833 1.519-.302 2.213s1.528.829 2.226.3l4.905-3.71c.698-.528.833-1.519.302-2.214s-1.528-.829-2.226-.3zm43.57 0l4.904 3.711a1.57 1.57 0 0 1 .302 2.213c-.531.694-1.527.828-2.226.3l-4.904-3.711c-.698-.528-.833-1.519-.302-2.213s1.528-.828 2.226-.3z" fill="#ffe91d"/><g class="K"><path d="M97.021 100.711s-1.417-2.659-1.984-5.479c-.493-2.41-.47-5.287-.409-6.825.014-.35.475-.469.659-.17.892 1.45 2.505 4.364 2.868 6.997.259 1.817.426 3.645.501 5.479l-1.634-.002z"/><path d="M98.504 100.71s.945-3.25 1.984-5.418c.756-1.577 2.475-3.464 3.358-4.377.167-.173.458-.024.414.212-.227 1.202-.751 3.571-1.608 5.19-1.19 2.249-3.173 4.394-3.173 4.394h-.975z"/></g><path d="M93.644 97.827a.33.33 0 0 1 .4-.461c.715.24 1.376.62 1.945 1.12 1.057.955 1.254 2.044 1.254 2.044l-.364.121s-1.97-.356-3.234-2.824zm7.397-7.6c-.025-.337-.459-.459-.657-.185-.738 1.021-1.976 3.033-2.382 5.499-.507 3.077.083 5.172.083 5.172h.418s1.538-2.899 2.138-4.862c.565-1.853.493-4.314.399-5.623zM99.48 100.71s.885-2.93 3.912-4.045c.176-.065.346.111.275.284-.399.968-1.537 3.28-3.458 3.761h-.728z" class="M"/><path d="M102.158 100.215h-7.007l.9 7.138h5.208l.899-7.138z" class="J"/><path d="M94.624 105.796v1.025h.28c.137 0 .247.11.247.245v.042c0 .135-.11.245-.247.245H82.949c-.158 0-.287-.128-.287-.285v-1.476c0-.157.128-.285.287-.285h11.956c.137 0 .247.109.247.245s-.11.244-.247.244h-.28z" class="F"/><path d="M94.66 106.821H84.203c-.116 0-.21-.093-.21-.208v-.608c0-.115.094-.208.21-.208H94.66v1.024z" class="C"/><path d="M81.605 103.585v1.133h-.281c-.137 0-.247.122-.247.272v.046c0 .149.11.271.247.271H93.28c.158 0 .287-.142.287-.316v-1.633c0-.174-.129-.316-.287-.316H81.325c-.137 0-.247.122-.247.272s.11.271.247.271h.281z" class="K"/><path d="M81.569 104.718h10.446a.22.22 0 0 0 .22-.219v-.695a.22.22 0 0 0-.22-.219H81.569v1.133z" class="C"/><path d="M93.391 101.992H82.489c-.241 0-.436-.194-.436-.434v-.971c0-.239.195-.434.436-.434h10.902c.241 0 .436.195.436.434v.971c0 .24-.196.434-.436.434z" class="F"/><path d="M94.267 103.042H83.151a.33.33 0 0 1-.329-.327v-.396c0-.181.147-.327.329-.327h11.116c.182 0 .329.146.329.327v.396a.33.33 0 0 1-.329.327z" class="J"/><defs ><path id="B" d="M55.824 65.391H38.379a2.01 2.01 0 0 1-2.016-2.004 2.01 2.01 0 0 1 2.016-2.004h17.445a2.01 2.01 0 0 1 2.016 2.004 2.01 2.01 0 0 1-2.016 2.004z"/></defs></svg>