<svg width="17" height="17" viewBox="0 0 17 17" fill="none" xmlns="http://www.w3.org/2000/svg">
<path d="M14.875 7.08337C14.875 12.0417 8.5 16.2917 8.5 16.2917C8.5 16.2917 2.125 12.0417 2.125 7.08337C2.125 5.39262 2.79665 3.77111 3.99219 2.57557C5.18774 1.38002 6.80924 0.708374 8.5 0.708374C10.1908 0.708374 11.8123 1.38002 13.0078 2.57557C14.2033 3.77111 14.875 5.39262 14.875 7.08337Z" stroke="#4F4F4F" stroke-linecap="round" stroke-linejoin="round"/>
<path d="M8.5 9.20837C9.6736 9.20837 10.625 8.25698 10.625 7.08337C10.625 5.90977 9.6736 4.95837 8.5 4.95837C7.32639 4.95837 6.375 5.90977 6.375 7.08337C6.375 8.25698 7.32639 9.20837 8.5 9.20837Z" stroke="#4F4F4F" stroke-linecap="round" stroke-linejoin="round"/>
</svg>
