<svg xmlns="http://www.w3.org/2000/svg" xmlns:xlink="http://www.w3.org/1999/xlink" width="400" height="340" viewBox="0 0 512 340" fill="none" xmlns:v="https://vecta.io/nano"><path d="M511.998 340H0V0h511.998v340z" fill="#fff"/><path d="M364.178 86.997c0 9.977-8.119 18.064-18.135 18.064s-18.135-8.087-18.135-18.064 8.119-18.064 18.135-18.064 18.135 8.087 18.135 18.064zm45.074-.002c0 9.976-8.12 18.064-18.135 18.064s-18.136-8.088-18.136-18.064 8.12-18.064 18.136-18.064 18.135 8.088 18.135 18.064zm45.069.592c0 9.977-8.119 18.064-18.134 18.064s-18.136-8.088-18.136-18.064 8.119-18.064 18.136-18.064 18.134 8.088 18.134 18.064z" fill="#91b3fa"/><path d="M356.819 83.177c.564 1.36.874 2.847.874 4.41 0 6.409-5.215 11.603-11.649 11.603s-11.649-5.195-11.649-11.603 5.217-11.604 11.649-11.604c.199 0 .394.004.586.015v-2.942l-.586-.013c-8.063 0-14.599 6.513-14.599 14.544s6.536 14.541 14.599 14.541 14.6-6.51 14.6-14.541c0-1.977-.398-3.863-1.115-5.583l-2.71 1.172z" fill="url(#A)"/><path d="M397.124 97.404c-1.797 1.13-3.925 1.786-6.206 1.786-6.434 0-11.65-5.196-11.65-11.602s5.216-11.604 11.65-11.604c.198 0 .394.005.587.015v-2.94c-.193-.01-.389-.015-.587-.015-8.062 0-14.599 6.511-14.599 14.544s6.537 14.542 14.599 14.542c2.815 0 5.441-.794 7.671-2.168l-1.465-2.558z" fill="url(#B)"/><path d="M445.906 94.111c-2.096 3.066-5.628 5.079-9.635 5.079-6.433 0-11.647-5.195-11.647-11.603s5.214-11.603 11.647-11.603a12.35 12.35 0 0 1 .589.015v-2.941a15.1 15.1 0 0 0-.589-.013c-8.063 0-14.598 6.511-14.598 14.542s6.535 14.542 14.598 14.542a14.6 14.6 0 0 0 12.025-6.294l-2.39-1.724z" fill="url(#C)"/><path d="M360.818 119.404h-29.55c-1.856 0-3.36-1.498-3.36-3.347s1.504-3.345 3.36-3.345h29.55c1.857 0 3.36 1.498 3.36 3.345s-1.503 3.347-3.36 3.347z" fill="url(#D)"/><path d="M405.892 119.402h-29.551c-1.856 0-3.36-1.497-3.36-3.345s1.504-3.346 3.36-3.346h29.551c1.856 0 3.36 1.498 3.36 3.346s-1.504 3.345-3.36 3.345z" fill="url(#E)"/><path d="M450.962 119.403h-29.553c-1.853 0-3.358-1.498-3.358-3.346s1.505-3.345 3.358-3.345h29.553c1.854 0 3.359 1.498 3.359 3.345s-1.505 3.346-3.359 3.346z" fill="url(#F)"/><path d="M360.818 149.513h-29.55c-1.856 0-3.36-1.497-3.36-3.345v-19.702c0-1.847 1.504-3.345 3.36-3.345h29.55c1.857 0 3.36 1.498 3.36 3.345v19.702c0 1.848-1.503 3.345-3.36 3.345z" fill="url(#G)"/><path d="M405.892 149.512h-29.551c-1.856 0-3.36-1.497-3.36-3.345v-19.702c0-1.847 1.504-3.345 3.36-3.345h29.551c1.856 0 3.36 1.498 3.36 3.345v19.702c0 1.848-1.504 3.345-3.36 3.345z" fill="url(#E)"/><path d="M450.963 149.513h-29.554c-1.853 0-3.358-1.498-3.358-3.346v-19.701c0-1.848 1.505-3.346 3.358-3.346h29.554c1.853 0 3.358 1.498 3.358 3.346v19.701c0 1.848-1.505 3.346-3.358 3.346z" fill="url(#F)"/><path d="M172.475 274.633c-6.011 0-12.87-.327-20.109-1.277l-.985-1.21c7.323 1.375 15.227 2.108 23.778 2.108 6.225.002 12.771-.389 19.689-1.207 0 0-9.131 1.586-22.373 1.586z" fill="#bdd0fb"/><path d="M57.746 241.491h-6.832v-49.978h6.832v49.978zm11.416 0H62.33V208.69h6.832v32.801zm11.416 0h-6.832v-75.252h6.832v75.252zm11.415 0h-6.832v-18.078h6.832v18.078zm11.416 0h-6.832V176.3h6.832v65.191zm11.415 0h-6.832v-53.904h6.832v53.904zm11.416 0h-6.832v-41.635h6.832v41.635zm11.416 0h-6.832v-90.466h6.832v90.466zm11.415 0h-6.832v-80.896h6.832v80.896zm11.416 0h-6.832v-66.419h6.832v66.419zm11.415 0h-6.832V225.09h6.832v16.401z" fill="#7d97f4"/><path d="M191.376 79.253h143.849c7.937 0 14.482 6.195 14.884 14.09l10.617 207.741c.317 6.178-4.565 11.389-10.776 11.5l-164.868 2.986c-5.834.105-10.621-4.576-10.621-10.389V96.103c0-9.306 7.573-16.85 16.915-16.85z" fill="url(#H)"/><path d="M209.177 312.038h-.006l-18.447-.237c-6.168-.081-11.187-5.144-11.187-11.288v-27.746c0-.217.176-.392.394-.392s.394.175.394.392v27.746c0 5.716 4.669 10.428 10.409 10.503l18.448.237c.217.002.393.181.389.397s-.178.388-.394.388z" fill="url(#I)"/><path d="M179.931 264.565c-.218 0-.394-.175-.394-.391v-4.494c0-.217.176-.392.394-.392s.394.175.394.392v4.494c0 .216-.177.391-.394.391z" fill="url(#J)"/><path d="M191.817 77.571c19.643 2.653 87.193 10.859 143.044 6.59 2.546-.195 4.755 1.726 4.893 4.267l11.132 208.666c.155 2.86-2.041 5.308-4.913 5.477-23.487 1.385-120.224 6.736-154.728 3.137-2.1-.219-3.694-1.981-3.706-4.085l-1.295-219.171c-.017-2.977 2.611-5.282 5.573-4.881z" fill="url(#K)"/><path d="M193.923 82.982c18.904 2.552 83.912 10.45 137.658 6.341 2.452-.187 4.577 1.663 4.709 4.107l10.713 200.81a5.02 5.02 0 0 1-4.726 5.271c-22.605 1.331-115.699 6.482-148.905 3.019-2.021-.211-3.555-1.906-3.567-3.93L188.56 87.679c-.017-2.864 2.512-5.083 5.363-4.697z" fill="#bdd0fb"/><path d="M206.059 103.162l2.008 43.052a2.74 2.74 0 0 0 2.666 2.61c8.004.225 32.946.831 47.03.1 1.593-.083 2.852-1.367 2.906-2.955.269-8.074.857-31.572-.991-41.395-.298-1.589-1.667-2.751-3.287-2.807l-47.311-1.648c-1.706-.06-3.1 1.345-3.021 3.043z" fill="url(#L)"/><path d="M242.574 118.553c0 5.112-4.16 9.256-9.29 9.256s-9.293-4.144-9.293-9.256 4.16-9.254 9.293-9.254 9.29 4.144 9.29 9.254z" fill="url(#M)"/><path d="M219.171 145.726h29.599c1.814 0 2.902-1.997 1.926-3.52-2.516-3.918-7.776-9.676-16.887-9.416-8.779.251-13.984 5.451-16.599 9.18a2.39 2.39 0 0 0 1.961 3.756z" fill="url(#N)"/><path d="M325.283 106.911a.8.8 0 0 0 .805-.825l-.038-1.24c-.012-.453-.395-.83-.852-.839l-53.596-.952c-.455-.008-.703.336-.552.763l.819 2.314c.151.428.646.779 1.101.779h52.313z" fill="url(#O)"/><path d="M271.602 111.081c-.455-.008-.703.334-.552.763l.819 2.314c.151.428.646.777 1.101.777h52.313a.8.8 0 0 0 .805-.823l-.038-1.24c-.012-.453-.395-.833-.852-.839l-53.596-.952z" fill="url(#P)"/><path d="M271.602 119.223c-.455-.009-.703.336-.552.762l.819 2.316c.151.427.646.777 1.101.777h52.313a.8.8 0 0 0 .805-.824l-.038-1.241c-.012-.453-.395-.83-.852-.838l-53.596-.952z" fill="url(#Q)"/><path d="M330.322 162.345c.455 0 .805-.37.774-.823l-.083-1.243c-.029-.453-.426-.826-.881-.829l-123.259-.968c-.455-.004-.596.284-.312.638l2.062 2.58c.284.355.888.645 1.343.645h120.356z" fill="url(#R)"/><path d="M206.873 166.508c-.455-.004-.596.284-.312.638l2.062 2.58a1.96 1.96 0 0 0 1.343.645h120.356c.455 0 .805-.371.774-.823l-.083-1.244c-.029-.452-.426-.825-.881-.828l-123.259-.968z" fill="url(#S)"/><path d="M207.181 179.915c2.923-.223 8.395-.327 11.409-.368a2.73 2.73 0 0 1 2.695 2.079c.582 2.401 1.382 6.57 1.281 10.987a2.42 2.42 0 0 1-2.445 2.364l-11.117-.119c-1.368-.015-2.502-1.056-2.63-2.411l-.977-10.418a1.94 1.94 0 0 1 1.784-2.114z" fill="url(#T)"/><path d="M226.883 184.157c-.455-.019-.771.332-.705.781l.525 3.475c.066.449.495.816.95.816h28.715c.455 0 .821-.371.817-.825l-.027-2.163c-.006-.453-.382-.84-.837-.859l-29.438-1.225z" fill="url(#U)"/><path d="M267.744 179.915c2.923-.223 8.395-.327 11.407-.368 1.276-.018 2.397.843 2.695 2.079.582 2.401 1.384 6.57 1.283 10.987a2.42 2.42 0 0 1-2.445 2.364l-11.117-.119c-1.368-.015-2.504-1.056-2.63-2.411l-.978-10.418a1.94 1.94 0 0 1 1.785-2.114z" fill="url(#V)"/><path d="M287.444 184.157c-.453-.019-.772.332-.703.781l.523 3.475c.068.449.497.816.952.816h28.715c.455 0 .821-.371.817-.825l-.027-2.163c-.006-.453-.382-.84-.838-.859l-29.439-1.225z" fill="url(#W)"/><path d="M210.929 208.849a1.46 1.46 0 0 0-1.019.492 1.08 1.08 0 0 0-.261.814l.9 8.574c.097.921.974 1.624 2.039 1.634l10.259.097h.021c.993 0 1.816-.696 1.839-1.562.099-3.909.147-7.573-.36-9.437-.228-.837-1.101-1.42-2.102-1.422-1.872.022-5.232.307-7.933.538l-3.383.272zm11.937 12.396h-.027l-10.259-.099c-1.464-.012-2.675-1.018-2.813-2.334l-.902-8.575c-.054-.502.103-.999.44-1.401.379-.447.952-.729 1.571-.771l3.369-.272 7.99-.539c1.38-.007 2.548.805 2.873 2 .534 1.968.486 5.694.385 9.663-.033 1.29-1.208 2.328-2.627 2.328z" fill="#fff"/><path d="M212.034 209.733l9.059-.647c.941-.013 1.766.554 1.988 1.368.428 1.578.372 4.725.298 7.63-.023.87-.826 1.564-1.804 1.556l-8.198-.078c-1.008-.011-1.846-.695-1.939-1.587l-.72-6.851c-.074-.709.515-1.336 1.316-1.391z" fill="url(#X)"/><path d="M231.877 215.552c.296 1.123 1.32 1.902 2.484 1.891l94.912-.805c1.073-.011 1.932-.893 1.909-1.962a1.92 1.92 0 0 0-1.915-1.875l-94.916-.433a2.54 2.54 0 0 0-2.474 3.184z" fill="url(#Y)"/><path d="M212.471 211.078a1.58 1.58 0 0 1 2.172.587l2.023 3.615a.51.51 0 0 0 .902-.039l5.019-11.13c.25-.555 1.079-.367 1.071.241-.052 3.404-.958 9.875-6.419 15.292 0 0-3.01-1.166-5.432-6.466a1.64 1.64 0 0 1 .664-2.1z" fill="url(#Z)"/><path d="M210.929 230.749c-.407.027-.777.206-1.019.492a1.08 1.08 0 0 0-.261.814l.9 8.575c.097.921.974 1.621 2.039 1.634l10.259.096h.021c.993 0 1.816-.696 1.839-1.564.099-3.906.147-7.57-.36-9.437-.228-.835-1.113-1.436-2.102-1.42-1.872.023-5.232.307-7.933.538l-3.383.272zm11.937 12.397h-.027l-10.259-.099c-1.464-.015-2.675-1.018-2.813-2.335l-.902-8.574c-.054-.503.103-1.002.44-1.401.379-.448.952-.73 1.571-.771l3.369-.272 7.99-.54h.041c1.349 0 2.509.818 2.832 2.001.534 1.968.486 5.693.385 9.662-.033 1.29-1.208 2.329-2.627 2.329z" fill="#fff"/><path d="M212.034 231.633l9.059-.647c.941-.013 1.766.554 1.988 1.366.428 1.58.372 4.727.298 7.632-.023.87-.826 1.564-1.804 1.554l-8.198-.078c-1.008-.009-1.846-.695-1.939-1.585l-.72-6.851c-.074-.709.515-1.338 1.316-1.391z" fill="url(#a)"/><path d="M231.877 237.452c.296 1.123 1.32 1.9 2.484 1.89l94.912-.806a1.92 1.92 0 0 0 1.909-1.96c-.023-1.04-.873-1.871-1.915-1.877l-94.916-.431a2.54 2.54 0 0 0-2.474 3.184z" fill="url(#b)"/><path d="M212.471 232.978c.761-.447 1.741-.181 2.172.587l2.023 3.613c.203.362.732.34.902-.037l5.019-11.13c.25-.556 1.079-.369 1.071.241-.052 3.404-.958 9.875-6.419 15.29 0 0-3.01-1.164-5.432-6.464a1.64 1.64 0 0 1 .664-2.1z" fill="url(#c)"/><path d="M210.929 252.647c-.407.029-.777.208-1.019.494a1.08 1.08 0 0 0-.261.814l.9 8.574c.097.921.974 1.624 2.039 1.632l10.259.099h.021c.993 0 1.816-.698 1.839-1.564.099-3.909.147-7.57-.36-9.437-.228-.835-1.113-1.441-2.102-1.422-1.872.025-5.232.309-7.933.538l-3.383.272zm11.937 12.398h-.027l-10.259-.098c-1.464-.015-2.675-1.018-2.813-2.335l-.902-8.574c-.054-.503.103-1.002.443-1.402.376-.447.949-.729 1.568-.772l3.369-.27 7.99-.54.041-.002c1.349 0 2.509.82 2.832 2.003.534 1.968.486 5.693.385 9.662-.033 1.29-1.208 2.328-2.627 2.328z" fill="#fff"/><path d="M212.034 253.533l9.059-.649c.941-.01 1.766.556 1.988 1.368.428 1.581.372 4.727.298 7.633-.023.869-.826 1.564-1.804 1.553l-8.198-.078c-1.008-.008-1.846-.694-1.939-1.585l-.72-6.851c-.074-.709.515-1.337 1.316-1.391z" fill="url(#d)"/><path d="M231.877 259.352c.296 1.121 1.32 1.9 2.484 1.89l94.912-.806a1.92 1.92 0 0 0 1.909-1.96c-.023-1.04-.873-1.873-1.915-1.877l-94.916-.431a2.54 2.54 0 0 0-2.474 3.184z" fill="url(#e)"/><path d="M212.471 254.876a1.58 1.58 0 0 1 2.172.59l2.023 3.612c.203.363.732.34.902-.039l5.019-11.127c.25-.557 1.079-.369 1.071.239-.052 3.406-.958 9.876-6.419 15.291 0 0-3.01-1.164-5.432-6.466-.35-.764-.065-1.673.664-2.1z" fill="url(#f)"/><path d="M210.929 274.547c-.407.029-.777.208-1.019.495-.199.235-.292.523-.261.814l.9 8.574c.097.921.974 1.621 2.039 1.632l10.259.099h.021c.993 0 1.816-.699 1.839-1.564.099-3.909.147-7.571-.36-9.438-.228-.836-1.113-1.442-2.102-1.422-1.872.025-5.232.309-7.933.538l-3.383.272zm11.937 12.399h-.027l-10.259-.099c-1.464-.015-2.675-1.018-2.813-2.337l-.902-8.572c-.054-.503.103-1.001.443-1.401.376-.449.949-.73 1.568-.773l3.369-.27 7.99-.54.041-.002c1.349 0 2.509.818 2.832 2.003.534 1.968.486 5.694.385 9.662-.033 1.288-1.208 2.329-2.627 2.329z" fill="#fff"/><path d="M212.034 275.433l9.059-.649c.941-.01 1.766.556 1.988 1.368.428 1.579.372 4.727.298 7.631-.023.871-.826 1.566-1.804 1.555l-8.198-.078c-1.008-.01-1.846-.694-1.939-1.587l-.72-6.849c-.074-.709.515-1.337 1.316-1.391z" fill="url(#g)"/><path d="M231.877 281.252c.296 1.121 1.32 1.9 2.484 1.89l94.912-.806c1.073-.008 1.932-.892 1.909-1.96-.023-1.04-.873-1.873-1.915-1.877l-94.916-.431a2.54 2.54 0 0 0-2.474 3.184z" fill="url(#h)"/><path d="M212.471 276.776a1.58 1.58 0 0 1 2.172.59l2.023 3.612c.203.363.732.338.902-.039l5.019-11.13c.25-.554 1.079-.366 1.071.242-.052 3.404-.958 9.874-6.419 15.291 0 0-3.01-1.164-5.432-6.466-.35-.764-.065-1.673.664-2.1z" fill="url(#i)"/><path d="M265.044 62.96c-2.249 0-4.069-1.815-4.069-4.053s1.82-4.055 4.069-4.055 4.069 1.815 4.069 4.055-1.822 4.053-4.069 4.053zm7.178-12.03c-5.196-3.602-9.714-3.53-12.896-2.596-2.9.853-4.781 3.643-4.505 6.645l1.371 14.91 16.322 1.445s9.897-13.345-.292-20.404z" fill="url(#j)"/><path d="M257.394 58.964c-.2 0-.372-.152-.391-.356l-.165-1.803c-.263-2.86 1.543-5.52 4.292-6.33 1.949-.573 3.956-.653 5.966-.243.214.043.35.251.307.464s-.251.346-.466.305c-1.882-.383-3.761-.307-5.583.229-2.392.703-3.962 3.017-3.732 5.504l.165 1.803a.39.39 0 0 1-.355.427l-.038.002zm.429 4.653c-.201 0-.373-.152-.391-.356l-.22-2.374c-.018-.216.141-.408.358-.427a.39.39 0 0 1 .428.355l.218 2.376a.39.39 0 0 1-.356.424l-.037.002z" fill="url(#k)"/><path d="M233.917 79.527V72.03c0-2.588 2.153-4.661 4.75-4.573l51.895 1.77a4.46 4.46 0 0 1 4.307 4.181l.434 7.204-61.386-1.086z" fill="url(#l)"/><path d="M253.268 70.283h-2.232c-.218 0-.393-.175-.393-.394a.39.39 0 0 1 .393-.392h2.232c.217 0 .393.175.393.392s-.176.394-.393.394z" fill="url(#m)"/><path d="M236.726 77.174c-.217 0-.393-.175-.393-.394v-3.031c0-2.345 1.914-4.251 4.266-4.251h8.204c.219 0 .395.175.395.392s-.176.394-.395.394h-8.204c-1.918 0-3.48 1.554-3.48 3.466v3.031c0 .219-.176.394-.393.394z" fill="url(#n)"/><path d="M217.657 76.785l90.747-.004c3.264 0 6.053 2.341 6.609 5.543l.077.441c.61 3.509-2.102 6.718-5.674 6.718h-93.104c-2.139 0-3.843-1.782-3.74-3.911l.201-4.15a4.88 4.88 0 0 1 4.884-4.636z" fill="url(#o)"/><path d="M394.142 317.27h-3.429v-36.945h3.429v36.945z" fill="url(#p)"/><path d="M407.444 317.98h-30.039v-1.331c0-.492.4-.892.898-.892h28.176c.532 0 .965.431.965.962v1.261z" fill="url(#q)"/><path d="M411.901 279.041c0 2.022-1.66 3.674-3.689 3.674h-30.39c-2.026 0-3.689-1.652-3.689-3.674v-3.322c0-2.019 1.663-3.674 3.689-3.674h30.39c2.029 0 3.689 1.655 3.689 3.674v3.322z" fill="url(#r)"/><path d="M367.107 255.69s-5.097.787-10.827 4.604a2.83 2.83 0 0 0-1.259 2.718c.686 5.413 3.505 22.936 12.808 40.049.491.903.631 1.952.416 2.955l-1.617 7.493-2.996 2.798h7.718l5.139-13.855-2.194-.693a4.14 4.14 0 0 1-2.905-3.878l-.259-14.861c.219-6.623-4.077-11.191-4.077-11.191l12.328-.598-12.275-15.541z" fill="url(#s)"/><path d="M360.616 317.659c-.701.917 7.568 2.126 11.746.121 0 0 5.793-10.037 5.793-15.205 0 0-.462-1.053-3.86-.816 0 0-1.947 11.886-4 13.217s-5.744.136-5.744.136-2.896 1.195-3.935 2.547z" fill="url(#t)"/><path d="M377.821 272.046c-.067-.111-13.272-1.581-13.272-1.581s.431 4-.918 9.506-20.745 29.365-20.745 29.365l2.032 6.421c-6.286 2.182-12.47 2.531-18.554 1.113l12.602-7.534s11.794-40.033 19.016-47.175l13.24-4.562 6.599 14.447z" fill="url(#u)"/><path d="M407.446 248.752s7.611 11.276 8.233 16.417-2.084 7.232-10.067 7.579-29.303.337-29.303.337l-18.192-15.487 16.705-6.044c3.446-1.333 32.624-2.802 32.624-2.802z" fill="url(#v)"/><path d="M344.151 313.595s2.189 2.113.71 4.462c0 0-17.341 3.062-22.049 1.673 0 0 .978-2.223 6.28-4.754l-.392.299c-.496.379-.203 1.168.42 1.133 3.492-.2 10.724-.836 15.031-2.813z" fill="url(#w)"/><path d="M391.534 182.505c1.15.357 5.294 1.839 4.76 4.494-.074.352.261.65.608.557 1.786-.479 5.731-1.083 8.179 1.97 2.157 2.695.544 5.238-.771 6.634a.49.49 0 0 0 .411.827c3.283-.413 10.417-.512 11.585 6.145 1.088 6.21-3.25 7.959-5.823 8.453-.435.083-.537.654-.161.891 1.28.81 2.769 2.487 2.169 5.794-.943 5.184-11.145 4.76-12.341 4.692a.49.49 0 0 1-.212-.064l-16.343-9.285c-.128-.072-.217-.198-.243-.342l-3.298-18.981c-.026-.153.023-.31.13-.422l8.189-11.72c-1.87-1.014 2.982.302 3.161.357z" fill="url(#x)"/><path d="M386.331 244.349s-8.862-8.405-13.225-13.973a11.79 11.79 0 0 1-2.007-10.63c1.995-6.683 5.53-13.604 5.853-14.683.496-1.651 10.432-1.582 10.432-1.582s19.553 12.64 27.235 34.052l-8.628 2.674s-5.103-8.53-10.149-13.954c0 0 8.727 11.486 9.035 16.186l-18.546 1.91z" fill="url(#y)"/><path d="M375.754 195.834l2.898 9.085c.202.177 5.688.472 8.27-1.286l-4.928-11.162-6.24 3.363z" fill="url(#z)"/><path d="M374.939 177.019s-4.001 3.122-5.301 10.456 1.811 9.718 4.804 9.351 7.288-1.595 10.703-7.028-4.947-16.619-10.206-12.779z" fill="url(#AA)"/><path d="M381.135 187.153s.816-10.436-7.683-8.26l-1.617 1.926s-4.545-4.436-.129-8.332 10.952-3.431 14.984 2.828 5.654 10.739 2.936 14.99-5.219.94-5.219.94 1.132-3.595-.113-5.017-2.554 1.054-2.554 1.054l-.605-.129z" fill="url(#AB)"/><path d="M381.338 189.957s.388-5.368 3.218-4.037-.635 5.033-2.04 6.308l-1.178-2.271z" fill="url(#AC)"/><path d="M368.28 244.973l6.51-6.251 9.005 3.789s8.967 1.385 14.097 0l5.132-1.383 11.597-3.595 1.82 5.126c.463 1.301-.003 2.747-1.132 3.547-1.005.709-2.178 1.49-2.93 1.817-1.526.666-37.642-.461-37.642-.461l-6.457-2.589z" fill="url(#AD)"/><path d="M98.556 274.757c-.985 1.451-4.898 34.311-5.511 46.448a1.44 1.44 0 0 0 1.443 1.506c.711 0 1.317-.517 1.427-1.217l7.158-45.692-4.516-1.045z" fill="url(#AE)"/><path d="M130.021 274.757c.984 1.451 4.898 34.311 5.51 46.448a1.44 1.44 0 0 1-1.442 1.506c-.712 0-1.317-.517-1.427-1.217l-7.158-45.692 4.517-1.045z" fill="url(#AF)"/><path d="M92.636 272.192l-.003.358c-.024 2.578 2.206 4.692 4.998 4.74l33.086.56c2.752.048 5.046-1.933 5.179-4.471l.017-.328c.14-2.648-2.117-4.877-4.987-4.929l-33.1-.591c-2.833-.05-5.165 2.044-5.19 4.661z" fill="url(#AG)"/><path d="M169.961 195.216l-.862-1.396c-.496-.804-1.332-1.339-2.272-1.455l-9.174-1.133s-.407-1.026 1.279-2.241.689-3.193.689-3.193l-5.516 4.68c-1.865 1.623-2.574 3.807-2.839 5.38l-1.468 3.207c.819.961 2.086 1.723 4.012 1.48l.334-2.454c5.516.18 10.764-.892 15.817-2.875z" fill="url(#AH)"/><path d="M149.798 199.065l-5.45 11.9a5.24 5.24 0 0 1-6.571 2.724l-11.169-9.888-.248 19.851 11.641 2.322c6.515 1.301 12.779-3.146 13.671-9.705l2.138-15.724c-1.926.244-3.192-.518-4.012-1.48z" fill="url(#AI)"/><path d="M157.003 320.012c-5.881 0-8.484-.503-9.648-.96.227.96 1.087 1.72 2.174 1.72h20.807a1.01 1.01 0 0 0 .976-1.273c-2.372.19-7.41.513-14.309.513z" fill="url(#AJ)"/><path d="M171.312 319.499a.99.99 0 0 0-.171-.352c-1.584-2.016-4.768-5.181-9.1-5.121-6.344.089-8.557.775-13.487.039l-1.163 3.841c-.119.392-.121.781-.036 1.146 1.164.457 3.766.96 9.648.96 6.899 0 11.937-.323 14.309-.513z" fill="url(#AK)"/><path d="M149.982 309.925l-1.428 4.839s3.163 1.434 5.945.282l.547-4.191-5.064-.93z" fill="url(#AL)"/><path d="M193.108 316.967c-4.585 3.668-6.929 4.902-8.122 5.273.778.606 1.924.657 2.771-.021l16.22-12.982c.547-.437.474-1.232-.036-1.597-1.73 1.628-5.455 5.022-10.833 9.327z" fill="url(#AM)"/><path d="M203.941 307.64a1 1 0 0 0-.354-.167c-2.497-.575-6.96-1.044-10.298 1.705-4.891 4.028-6.186 5.94-10.49 8.446l1.496 3.705c.153.377.396.682.69.911 1.194-.371 3.537-1.606 8.122-5.273 5.378-4.305 9.104-7.699 10.834-9.327z" fill="url(#AN)"/><path d="M119.438 254.816s35.214 2.865 42.437 6.252-5.895 50.862-5.895 50.862-1.966.942-6.342-.412c0 0 4.487-35.034 1.148-42.632l-38.127-6.21 6.779-7.86z" fill="url(#AO)"/><path d="M179.301 310.954c.327.297 3.499 6.67 3.499 6.67s3.531-.762 4.251-2.988l-3.178-5.751-4.572 2.069z" fill="url(#AP)"/><path d="M98.23 254.524s-1.148 2.751-1.101 6.404c.065 5.055 4.144 9.158 9.213 9.409l41.628 1.892c.879.039 1.623.645 1.843 1.494.978 3.769 5.76 15.343 29.132 38.438.622.614 1.591.719 2.332.254l3.327-2.094c.349-.22.46-.676.252-1.032l-24.238-41.227a9.38 9.38 0 0 0-5.7-4.212l-35.48-9.033-21.208-.293z" fill="url(#AQ)"/><path d="M98.117 254.402s-.412-20.552 3.712-39.893a31.21 31.21 0 0 1 11.245-18.056l1.926-1.511 9.648 3.904 6.261 9.469a22.19 22.19 0 0 1 1.05 17.472c-3.443 9.569-8.55 24.045-9.723 28.916 0 0-15.979 2.102-24.119-.301z" fill="url(#AR)"/><path d="M121.633 179.626l-7.537 17.418s2.412 5.405 10.853 3.303l3.015-12.012-6.331-8.709z" fill="url(#AS)"/><path d="M146.656 238.185c0-.3 9.648-32.432 9.648-32.432l10.552-1.802-12.662 35.135-7.538-.901z" fill="url(#AT)"/><path d="M146.054 239.086c.603.602 6.632.601 6.632.601l12.663-36.637-9.949 2.102-9.346 33.934z" fill="url(#AU)"/><path d="M136.57 171.682c.091.244.29 17.403.29 17.403l-9.839-.094-2.615-16.236s10.643-5.145 12.164-1.073z" fill="url(#AV)" fill-opacity=".98"/><path d="M127.292 175.877l.705 8.654a1.22 1.22 0 0 0 .071.322c.238.639 1.218 2.778 3.354 1.646 1.938-1.027 3.722-1.935 5.116-1.819.626.053 1.108.569 1.116 1.194.017 1.56-.008 5.074-.497 8.123-.1.619-.662 1.054-1.29 1.01-1.891-.134-5.872-.527-9-1.59-.424-.144-.735-.502-.811-.942-.371-2.143-1.523-8.653-2.126-10.417-.565-1.656-2.879-2.224-3.867-2.393-.325-.055-.609-.239-.793-.51-.649-.961-1.757-3.268 1.104-4.927.598-.348.788-1.112.421-1.698-.73-1.166-1.341-3.053.809-4.628 2.186-1.601 4.271-.706 5.474.128a1.22 1.22 0 0 0 1.555-.148c.241-.235.587-.37 1.08-.194.663.237 1.383-.177 1.551-.859.322-1.309 1.228-2.833 3.684-2.939 4.359-.188 5.842 4.349 5.323 7.307s-5.256 2.894-7.817 2.011c-1.948-.672-3.944.901-4.788 1.694-.268.251-.403.61-.374.975z" fill="url(#AW)"/><path d="M124.218 185.206s.682-5.192-1.349-5.99-4.528.381-3.192 3.748c1.663 4.188 4.541 2.242 4.541 2.242z" fill="url(#AX)"/><path d="M150.12 228.898c-21.419 14.756-30.521-18.906-30.747-19.091-13.869-11.412-13.207 9.303-11.457 11.712 17.718 27.511 38.289 19.52 44.643 11.076-1.513-1.267-2.179-2.586-2.439-3.697z" fill="url(#AY)"/><path d="M130.329 229.389c-.143 0-.288-.05-.406-.149-5.335-4.469-8.765-11.91-10.704-17.366a.63.63 0 0 1 .385-.804c.329-.116.69.056.807.383 1.544 4.346 4.939 12.31 10.325 16.825.267.223.302.62.077.886-.125.148-.304.225-.484.225z" fill="url(#AZ)"/><path d="M126.058 238.998a.64.64 0 0 1-.244-.05c-6.833-2.85-13.136-8.7-18.731-17.389a.63.63 0 0 1 .19-.87c.294-.187.685-.103.874.19 5.454 8.469 11.563 14.158 18.156 16.909a.63.63 0 0 1-.245 1.21z" fill="url(#Aa)"/><path d="M161.924 217.633s-.194.732-2.304 3.736-4.523 5.104-3.317 1.502-.301-4.805-1.736-.882-2.786 5.685-2.786 5.685l-1.662 1.224c.26 1.111.926 2.43 2.44 3.697l1.333-1.016s6.934-3.604 7.537-7.208.495-6.738.495-6.738z" fill="url(#Ab)"/><g fill="#7d97f4"><path d="M161.51 249.001c-.156.645-15.069 56.358-18.851 70.483-.435 1.628.782 3.227 2.454 3.227 1.166 0 2.183-.801 2.465-1.941l16.555-66.86-2.623-4.909zm8.167-.162c.156.645 15.069 56.483 18.85 70.637.436 1.632-.781 3.235-2.453 3.235-1.167 0-2.183-.803-2.466-1.945l-16.555-67.007 2.624-4.92z"/><path d="M170.298 247.18h-9.288v7.431c0 1.067.858 1.932 1.918 1.932h1.274v16.689c0 .808.65 1.463 1.452 1.463s1.452-.655 1.452-1.463v-16.689h.646c1.406 0 2.546-1.149 2.546-2.565v-6.798zm195.901 1.821c-.158.646-15.072 56.358-18.853 70.483-.434 1.628.783 3.227 2.453 3.227 1.168 0 2.184-.801 2.467-1.941l16.556-66.86-2.623-4.909zm8.164.001c.157.645 15.07 56.357 18.852 70.482.434 1.628-.783 3.227-2.456 3.227-1.164 0-2.181-.801-2.464-1.941l-16.555-66.86 2.623-4.908z"/><path d="M374.986 247.18h-9.29v7.431c0 1.067.861 1.932 1.919 1.932h1.274v16.689c0 .808.649 1.463 1.452 1.463a1.46 1.46 0 0 0 1.452-1.463v-16.689h.646c1.408 0 2.547-1.149 2.547-2.565v-6.798z"/></g><path d="M137.489 245.395H398.29c.728 0 1.359.495 1.541 1.202l.723 2.829a1.6 1.6 0 0 1-1.546 2.003l-262.158-.309c-1.031-.007-1.783-.985-1.532-1.995l.63-2.518c.178-.713.813-1.212 1.541-1.212z" fill="url(#Ac)"/><path d="M106.043 198.795l-.783-.989c-.218-.276-.171-.676.107-.894a.64.64 0 0 1 .897.106l.005.006.771.997a.63.63 0 0 1-.115.883c-.275.211-.668.162-.882-.109zm-2.537-3.422l-.691-1.054a.66.66 0 0 1 .193-.914c.306-.199.717-.113.917.192l.004.006.679 1.062a.65.65 0 0 1-.2.902.66.66 0 0 1-.902-.194zm-2.224-3.631l-.597-1.11c-.179-.333-.053-.747.281-.926a.69.69 0 0 1 .93.28l.003.007.584 1.116c.174.332.045.741-.288.913a.68.68 0 0 1-.913-.28zm-1.903-3.809l-.501-1.156c-.156-.358.01-.775.371-.93a.71.71 0 0 1 .934.369l.003.008.488 1.161a.7.7 0 0 1-.377.916c-.356.149-.765-.016-.917-.368zm-1.579-3.952l-.406-1.192a.73.73 0 0 1 .46-.927c.384-.13.801.075.931.457l.003.008.392 1.197c.124.381-.084.789-.466.913a.73.73 0 0 1-.914-.456zm-1.256-4.066l-.31-1.22c-.103-.404.143-.815.548-.917a.76.76 0 0 1 .921.546l.002.008.297 1.224c.097.401-.15.805-.553.902a.75.75 0 0 1-.904-.543zm-.939-4.15l-.218-1.24a.78.78 0 0 1 .635-.901c.425-.073.83.21.904.633l.001.009.204 1.243a.77.77 0 0 1-.64.885c-.419.068-.815-.213-.888-.629zm-.625-4.207l-.126-1.253c-.044-.44.278-.834.721-.878s.837.277.882.718l.001.009.112 1.254c.039.437-.285.824-.724.863a.8.8 0 0 1-.865-.713zm-.32-4.242l-.037-1.258c-.014-.456.346-.836.804-.85a.83.83 0 0 1 .853.801v.009l.023 1.259a.822.822 0 1 1-1.643.039zm-.023-4.254l.05-1.258a.853.853 0 1 1 1.704.067v.009l-.064 1.258c-.024.464-.421.822-.887.798a.84.84 0 0 1-.802-.874zm.27-4.246l.135-1.251c.052-.479.484-.826.965-.775s.83.482.778.961l-.001.01-.149 1.25a.87.87 0 0 1-.966.757c-.477-.057-.812-.481-.762-.952zm.556-4.219l.219-1.241a.9.9 0 0 1 1.042-.728c.489.086.816.551.73 1.038l-.002.01-.232 1.239c-.091.482-.557.801-1.042.71a.89.89 0 0 1-.716-1.028zm.847-4.173l.304-1.223c.121-.487.616-.784 1.105-.663a.91.91 0 0 1 .666 1.101l-.001.005-.312 1.22a.91.91 0 0 1-1.104.654c-.484-.122-.778-.612-.658-1.094zm1.126-4.108l.386-1.199c.156-.484.676-.751 1.162-.596a.92.92 0 0 1 .599 1.158l-.002.005-.393 1.197a.92.92 0 0 1-1.161.587c-.482-.157-.745-.672-.591-1.152zm1.4-4.024l.466-1.171a.94.94 0 0 1 1.217-.523c.481.19.716.733.525 1.212l-.002.005-.473 1.168c-.193.476-.737.706-1.214.514a.93.93 0 0 1-.518-1.205zm1.674-3.922l.547-1.138a.95.95 0 0 1 1.266-.444c.472.226.672.79.446 1.261l-.003.005-.553 1.134a.95.95 0 0 1-1.264.436.94.94 0 0 1-.439-1.254zm1.944-3.8l.626-1.096c.263-.46.85-.621 1.311-.359s.623.846.361 1.306l-.003.005-.632 1.092a.96.96 0 0 1-1.308.35c-.457-.262-.615-.843-.355-1.298zm2.213-3.655l.703-1.047c.299-.445.904-.565 1.351-.266a.97.97 0 0 1 .268 1.346l-.003.004-.709 1.042c-.301.441-.904.557-1.348.258s-.558-.896-.262-1.337zm2.471-3.483l.774-.995a.99.99 0 0 1 1.384-.175.98.98 0 0 1 .175 1.378l-.003.004-.78.991c-.335.425-.953.499-1.38.165s-.501-.943-.17-1.368zm2.695-3.307l.837-.944a1 1 0 0 1 1.41-.087c.413.363.452.994.087 1.404l-.004.006-.842.937a1 1 0 0 1-1.405.079.99.99 0 0 1-.083-1.395zm2.904-3.128l.895-.89c.395-.392 1.035-.392 1.43.004s.393 1.03-.003 1.424l-.004.004-.9.884c-.397.387-1.034.383-1.425-.011a1 1 0 0 1 .007-1.415zm3.093-2.941l.948-.832a1.03 1.03 0 0 1 1.445.09 1.02 1.02 0 0 1-.091 1.441l-.005.002-.953.828c-.425.367-1.069.324-1.439-.099s-.325-1.061.095-1.43zm3.266-2.747l.997-.775a1.04 1.04 0 0 1 1.454.18 1.03 1.03 0 0 1-.18 1.448l-.005.005-1.001.768c-.451.346-1.099.264-1.447-.187s-.265-1.09.182-1.439zm3.422-2.549l1.04-.715a1.05 1.05 0 0 1 1.458.264c.329.474.21 1.125-.266 1.453l-.005.004-1.044.709c-.477.325-1.127.202-1.452-.272a1.04 1.04 0 0 1 .269-1.443zm3.562-2.348l1.078-.658a1.06 1.06 0 0 1 1.458.351c.306.496.149 1.147-.351 1.452l-.006.002-1.082.652a1.06 1.06 0 0 1-1.451-.357 1.05 1.05 0 0 1 .354-1.442zm3.685-2.15l1.114-.595c.521-.278 1.17-.085 1.45.435s.084 1.166-.437 1.444h-.002l-1.115.594a1.07 1.07 0 0 1-1.447-.437 1.06 1.06 0 0 1 .437-1.441zm3.801-1.941l1.144-.536a1.08 1.08 0 0 1 1.428.514c.252.535.021 1.172-.515 1.421l-.001.002-1.145.534c-.536.249-1.175.021-1.426-.515s-.021-1.168.515-1.42zm3.895-1.737l1.17-.476a1.08 1.08 0 0 1 1.403.585c.224.548-.039 1.175-.589 1.399h-.001l-1.171.474c-.55.223-1.177-.039-1.401-.587a1.07 1.07 0 0 1 .589-1.395zm3.979-1.537l1.192-.419a1.08 1.08 0 0 1 1.374.66 1.07 1.07 0 0 1-.66 1.368h-.001l-1.193.416c-.561.196-1.176-.099-1.372-.659a1.07 1.07 0 0 1 .66-1.366zm4.048-1.337l1.212-.359c.573-.169 1.174.157 1.344.725a1.08 1.08 0 0 1-.729 1.34h-.002l-1.212.356a1.08 1.08 0 0 1-1.342-.727 1.07 1.07 0 0 1 .729-1.335zm4.111-1.14l1.229-.299c.582-.14 1.168.215 1.31.794a1.08 1.08 0 0 1-.795 1.304h-.001l-1.231.299c-.581.14-1.166-.217-1.308-.794a1.08 1.08 0 0 1 .796-1.304zm4.162-.938l1.241-.239c.589-.115 1.159.27 1.273.855s-.271 1.156-.86 1.27h-.001l-1.241.237c-.589.113-1.158-.27-1.271-.858a1.08 1.08 0 0 1 .859-1.265zm4.2-.737l1.251-.181a1.09 1.09 0 0 1 1.233.919c.086.594-.326 1.144-.921 1.228h-.002l-1.251.18a1.09 1.09 0 0 1-1.232-.919 1.08 1.08 0 0 1 .922-1.226zm4.232-.538l1.258-.12a1.09 1.09 0 0 1 1.191.979 1.09 1.09 0 0 1-.982 1.185h-.002l-1.258.12a1.09 1.09 0 0 1-1.189-.979 1.09 1.09 0 0 1 .982-1.185zm4.253-.334l1.264-.06c.603-.029 1.116.435 1.145 1.036a1.09 1.09 0 0 1-1.041 1.139h-.001l-1.265.06c-.603.027-1.114-.437-1.143-1.038a1.09 1.09 0 0 1 1.041-1.138zm4.263-.13h1.272c.606.002 1.096.49 1.096 1.094s-.492 1.093-1.098 1.093h-.001-.01l-1.257-.005h-.005c-.605 0-1.095-.49-1.094-1.094a1.09 1.09 0 0 1 1.097-1.088zm4.264.07l1.263.058c.607.027 1.076.538 1.049 1.142s-.542 1.074-1.148 1.044h-.001l-1.263-.057c-.606-.029-1.075-.54-1.047-1.144s.541-1.072 1.147-1.043zm4.253.256l1.259.111c.607.053 1.055.585 1.001 1.189a1.1 1.1 0 0 1-1.194.997h-.001l-1.259-.111a1.1 1.1 0 0 1-.999-1.191 1.1 1.1 0 0 1 1.193-.995zm4.237.435l1.254.163a1.1 1.1 0 0 1 .952 1.235c-.078.601-.633 1.026-1.237.948h-.002l-1.253-.165a1.1 1.1 0 0 1-.951-1.233c.08-.604.633-1.026 1.237-.948zm4.215.608l1.245.214c.603.103 1.008.674.904 1.273a1.11 1.11 0 0 1-1.278.901h-.002l-1.245-.214c-.602-.105-1.006-.676-.902-1.276s.675-1.001 1.278-.898zm4.184.776l1.237.262c.599.126.982.713.855 1.311a1.11 1.11 0 0 1-1.316.851h-.002l-1.236-.264c-.599-.126-.981-.713-.853-1.311a1.11 1.11 0 0 1 1.315-.849zm4.151.936l1.226.307a1.11 1.11 0 0 1 .806 1.346 1.11 1.11 0 0 1-1.35.803h-.002l-1.225-.309c-.595-.15-.955-.752-.805-1.345a1.11 1.11 0 0 1 1.35-.802zm4.111 1.088l1.214.352a1.11 1.11 0 0 1 .759 1.377c-.172.589-.791.927-1.383.756h-.001l-1.213-.355c-.591-.171-.93-.787-.757-1.376s.791-.925 1.381-.754zm4.068 1.236l1.2.394c.586.193.905.822.711 1.407s-.825.901-1.411.707h-.002l-1.2-.396a1.11 1.11 0 0 1-.708-1.405c.194-.583.824-.901 1.41-.707zm4.022 1.375l1.185.436c.579.215.875.856.66 1.433a1.12 1.12 0 0 1-1.434.657l-1.187-.433c-.579-.212-.877-.853-.664-1.432a1.12 1.12 0 0 1 1.436-.661h.004zm3.967 1.516l1.169.474c.569.233.842.878.608 1.445a1.11 1.11 0 0 1-1.446.608l-1.169-.472c-.571-.229-.846-.876-.614-1.445s.879-.84 1.45-.612l.002.002zm3.914 1.643l1.154.511a1.1 1.1 0 0 1 .561 1.455c-.248.554-.9.805-1.456.558l-1.157-.509a1.1 1.1 0 0 1-.564-1.455 1.11 1.11 0 0 1 1.46-.562l.002.002zm3.86 1.761l1.14.548c.546.264.776.917.511 1.463a1.1 1.1 0 0 1-1.465.511l-1.14-.544c-.548-.261-.779-.917-.517-1.463s.921-.777 1.469-.515h.002zm3.806 1.879l1.122.582c.535.276.744.933.467 1.467a1.09 1.09 0 0 1-1.471.465l-1.125-.577a1.09 1.09 0 0 1-.472-1.469c.277-.536.937-.746 1.475-.47l.004.002zm3.747 1.989l1.106.612a1.08 1.08 0 0 1 .422 1.473 1.09 1.09 0 0 1-1.477.421l-1.106-.61a1.08 1.08 0 0 1-.427-1.474 1.09 1.09 0 0 1 1.479-.424l.003.002zm3.69 2.092l1.088.645c.513.303.683.962.379 1.475a1.08 1.08 0 0 1-1.479.377l-1.09-.641c-.515-.303-.687-.964-.383-1.477s.968-.682 1.483-.381l.002.002zm3.629 2.192l1.072.674c.502.315.651.977.335 1.475a1.07 1.07 0 0 1-1.479.336l-1.074-.669a1.07 1.07 0 0 1-.339-1.478 1.08 1.08 0 0 1 1.483-.338h.002zm3.568 2.289l1.053.701a1.06 1.06 0 0 1 .294 1.475c-.327.489-.989.623-1.479.295l-1.055-.696c-.493-.326-.625-.987-.298-1.478s.991-.624 1.483-.299l.002.002zm3.505 2.378l1.034.726c.478.338.594.997.255 1.475a1.06 1.06 0 0 1-1.477.258l-1.035-.724c-.482-.336-.6-.997-.26-1.477s.999-.596 1.481-.26l.002.002zm3.442 2.459l1.016.745a1.05 1.05 0 0 1 .224 1.472c-.346.468-1.006.571-1.475.224l-1.018-.744a1.05 1.05 0 0 1-.228-1.473 1.06 1.06 0 0 1 1.479-.227l.002.003zm3.389 2.524l1.003.764c.461.351.548 1.008.196 1.466a1.05 1.05 0 0 1-1.47.197l-1.006-.762c-.461-.35-.552-1.008-.2-1.467a1.06 1.06 0 0 1 1.475-.2l.002.002zm3.343 2.574l.993.778a1.04 1.04 0 0 1 .173 1.461c-.358.452-1.011.532-1.464.176l-.995-.775a1.04 1.04 0 0 1-.178-1.463 1.05 1.05 0 0 1 1.468-.18l.003.003zm3.305 2.616l.985.79a1.03 1.03 0 0 1 .159 1.453 1.04 1.04 0 0 1-1.458.159l-.987-.786c-.449-.359-.521-1.01-.162-1.457a1.04 1.04 0 0 1 1.461-.161l.002.002zm3.281 2.645l.979.796c.443.359.509 1.006.149 1.446s-1.01.507-1.45.148l-.983-.793c-.443-.358-.511-1.007-.151-1.448s1.012-.51 1.454-.151l.002.002zm3.265 2.661l.976.799a1.02 1.02 0 0 1 .141 1.438c-.36.436-1.003.501-1.442.143l-.978-.797a1.02 1.02 0 0 1-.147-1.44 1.03 1.03 0 0 1 1.446-.145l.004.002zm3.254 2.665l.978.799a1.01 1.01 0 0 1 .141 1.429 1.02 1.02 0 0 1-1.434.143l-.978-.797a1.01 1.01 0 0 1-.145-1.431c.356-.436.999-.5 1.436-.145l.002.002zm3.257 2.658l.981.795c.434.353.499.988.145 1.421s-.989.499-1.423.147l-.983-.793a1.01 1.01 0 0 1-.151-1.422 1.02 1.02 0 0 1 1.429-.15l.002.002zm3.269 2.639l.985.788a1 1 0 0 1 .157 1.411 1.01 1.01 0 0 1-1.415.157l-.988-.785c-.435-.347-.507-.979-.16-1.413a1.01 1.01 0 0 1 1.419-.159l.002.001zm3.287 2.608l.995.777c.435.34.511.967.17 1.4a1 1 0 0 1-1.403.172l-.997-.774c-.436-.34-.515-.968-.173-1.403s.97-.513 1.406-.174l.002.002zm3.319 2.566l1.005.761v.001c.439.331.523.953.19 1.389s-.953.522-1.392.191l-1.009-.761a.99.99 0 0 1-.195-1.391 1 1 0 0 1 1.397-.194l.002.002.002.002zm3.353 2.507l1.022.743c.44.321.535.937.215 1.377a.99.99 0 0 1-1.38.215l-1.024-.74c-.443-.32-.54-.937-.219-1.378s.941-.539 1.384-.219l.002.002zm3.403 2.439l1.036.72c.447.31.555.92.244 1.363a.98.98 0 0 1-1.365.245l-1.039-.717a.98.98 0 0 1-.248-1.365c.311-.446.923-.556 1.37-.248l.002.002zm3.457 2.358l1.055.694a.97.97 0 0 1 .275 1.347c-.298.448-.9.573-1.349.277l-1.057-.69c-.453-.295-.579-.899-.283-1.35a.98.98 0 0 1 1.355-.28l.004.002zm3.511 2.268l1.073.666c.451.28.59.871.309 1.32s-.869.585-1.32.31l-1.078-.658a.96.96 0 0 1-.319-1.324.97.97 0 0 1 1.331-.317l.004.003zm3.574 2.164l1.095.63a.94.94 0 0 1 .345 1.29.95.95 0 0 1-1.289.348l-1.098-.623c-.457-.26-.617-.839-.356-1.294s.842-.614 1.299-.355l.004.004zm3.643 2.041l1.118.591a.93.93 0 0 1 .386 1.258c-.242.452-.804.625-1.257.388l-1.122-.584a.93.93 0 0 1-.395-1.261.94.94 0 0 1 1.266-.395l.004.003zm3.715 1.904l1.14.547c.457.219.649.767.428 1.223a.92.92 0 0 1-1.223.43l-1.141-.539a.92.92 0 0 1-.441-1.226c.219-.46.77-.656 1.231-.438l.006.003zm3.788 1.75l1.161.496a.9.9 0 0 1 .476 1.185.91.91 0 0 1-1.184.476l-1.164-.489c-.464-.195-.681-.726-.486-1.188a.91.91 0 0 1 1.191-.483l.006.003zm3.858 1.577l1.183.441c.462.172.696.684.522 1.143a.89.89 0 0 1-1.142.522l-1.185-.433a.89.89 0 0 1-.532-1.145c.17-.463.685-.7 1.148-.53l.006.002zm3.928 1.387l1.202.38a.87.87 0 0 1 .571 1.098.88.88 0 0 1-1.096.571l-1.206-.373c-.464-.143-.724-.636-.579-1.099a.88.88 0 0 1 1.102-.579l.006.002zm3.993 1.18l1.223.315c.461.119.738.588.621 1.048s-.588.734-1.047.619l-1.227-.306c-.463-.117-.747-.586-.629-1.049a.87.87 0 0 1 1.053-.628l.006.001zm4.048.953l1.242.239a.85.85 0 0 1 .672.992.85.85 0 0 1-.991.671l-1.241-.231a.85.85 0 0 1-.683-.992c.085-.462.532-.766.995-.68l.006.001zm4.101.696l1.253.16a.83.83 0 0 1 .722.931c-.058.454-.473.776-.928.721l-1.256-.151a.84.84 0 0 1-.732-.931c.055-.459.473-.786.935-.73h.006zm4.136.433l1.262.079a.82.82 0 0 1 .769.867.82.82 0 0 1-.867.766l-1.262-.07c-.455-.025-.802-.413-.777-.866s.413-.801.868-.776h.007zm4.155.162l1.264-.005c.447-.003.809.356.811.8s-.354.803-.799.808l-1.264.014a.81.81 0 0 1-.819-.799.81.81 0 0 1 .801-.818h.006zm4.154-.118l1.261-.094c.437-.032.816.294.85.73a.79.79 0 0 1-.727.846l-1.258.102c-.442.035-.827-.29-.861-.728s.291-.82.729-.856h.006zm4.138-.412l1.251-.185a.78.78 0 0 1 .886.654.78.78 0 0 1-.653.881l-1.248.193c-.426.066-.829-.225-.895-.651a.78.78 0 0 1 .653-.891l.006-.001zm4.089-.715l1.233-.28a.77.77 0 0 1 .918.573c.092.409-.163.815-.572.911l-1.229.289a.77.77 0 0 1-.927-.57.77.77 0 0 1 .575-.922l.002-.001zm4.021-1.034l1.206-.38a.75.75 0 0 1 .942.487.75.75 0 0 1-.484.938l-1.202.388a.76.76 0 0 1-.953-.484c-.128-.395.089-.819.486-.948l.005-.001zm3.916-1.363l1.167-.482c.375-.154.807.023.96.397a.73.73 0 0 1-.392.955l-1.163.492c-.377.159-.814-.016-.972-.391a.74.74 0 0 1 .393-.969l.007-.002zm3.777-1.695l1.119-.585c.351-.182.781-.048.962.299a.71.71 0 0 1-.292.954l-1.113.597a.72.72 0 0 1-.973-.291c-.189-.348-.058-.782.29-.97l.007-.004zm3.605-2.038l1.057-.689a.69.69 0 0 1 .953.199.69.69 0 0 1-.192.946l-1.05.7a.7.7 0 0 1-.965-.19.69.69 0 0 1 .192-.962l.005-.004zm3.382-2.377l.98-.797c.285-.232.705-.19.935.093a.66.66 0 0 1-.088.928l-.969.808a.67.67 0 0 1-.946-.084c-.237-.284-.201-.706.086-.943l.002-.005zm3.1-2.733l.884-.901a.64.64 0 0 1 .906-.01c.253.245.26.646.018.899l-.874.911a.65.65 0 0 1-.918.02c-.257-.246-.269-.656-.021-.914l.005-.005zm2.782-3.059l.782-.991a.62.62 0 0 1 .869-.103c.266.208.315.592.108.86l-.771.998c-.211.273-.603.325-.876.115a.62.62 0 0 1-.117-.874l.005-.005zm2.442-3.34l.671-1.067a.6.6 0 0 1 .822-.186c.277.173.36.536.192.812l-.66 1.074a.61.61 0 0 1-.831.198.6.6 0 0 1-.199-.826l.005-.005zm2.081-3.58l.557-1.13a.572.572 0 1 1 1.03.496l-.543 1.137c-.139.287-.485.409-.773.272s-.41-.481-.273-.769l.002-.006zm1.69-3.778l.431-1.183a.55.55 0 0 1 .703-.327c.284.103.431.413.331.695l-.419 1.188a.56.56 0 0 1-.711.339.55.55 0 0 1-.338-.706l.003-.006zm1.27-3.937l.299-1.224c.067-.281.352-.453.633-.385s.453.348.39.627l-.288 1.227a.531.531 0 1 1-1.034-.239v-.006zm.816-4.055l.155-1.25a.502.502 0 1 1 .997.115l-.138 1.251a.51.51 0 1 1-1.014-.111v-.005zm.324-4.121l-.007-1.259a.48.48 0 0 1 .477-.479c.265-.001.478.209.48.47l.021 1.259c.005.267-.211.487-.48.491s-.487-.209-.491-.477v-.005zm-.208-4.127l-.173-1.247c-.035-.248.138-.478.389-.512s.477.137.514.382l.185 1.245a.46.46 0 0 1-.388.525c-.253.037-.489-.136-.527-.388v-.005zm-.77-4.059l-.348-1.211a.43.43 0 0 1 .297-.532c.229-.065.467.065.534.291l.362 1.206c.07.231-.063.475-.296.545a.44.44 0 0 1-.546-.294l-.003-.005z" fill="#7d97f4"/><defs><linearGradient id="A" x1="410.677" y1="-1.968" x2="374.383" y2="62.954" xlink:href="#Ad"><stop stop-color="#fe7062"/><stop offset="1" stop-color="#ff928e"/></linearGradient><linearGradient id="B" x1="483.058" y1="7.799" x2="420.31" y2="105.22" xlink:href="#Ad"><stop stop-color="#fe7062"/><stop offset="1" stop-color="#ff928e"/></linearGradient><linearGradient id="C" x1="603.703" y1="-49.674" x2="561.895" y2="45.792" xlink:href="#Ad"><stop stop-color="#fe7062"/><stop offset="1" stop-color="#ff928e"/></linearGradient><linearGradient id="D" x1="517.953" y1="154.827" x2="35.015" y2="154.827" xlink:href="#Ad"><stop stop-color="#abc4fb"/><stop offset="1" stop-color="#b1c9fb"/></linearGradient><linearGradient id="E" x1="582.059" y1="131.908" x2="39.349" y2="131.908" xlink:href="#Ad"><stop stop-color="#abc4fb"/><stop offset="1" stop-color="#b1c9fb"/></linearGradient><linearGradient id="F" x1="646.159" y1="108.992" x2="43.682" y2="108.992" xlink:href="#Ad"><stop stop-color="#abc4fb"/><stop offset="1" stop-color="#b1c9fb"/></linearGradient><linearGradient id="G" x1="517.953" y1="154.826" x2="35.015" y2="154.826" xlink:href="#Ad"><stop stop-color="#abc4fb"/><stop offset="1" stop-color="#b1c9fb"/></linearGradient><linearGradient id="H" x1="379.714" y1="65.728" x2="136.964" y2="385.823" xlink:href="#Ad"><stop stop-color="#09005d"/><stop offset="1" stop-color="#1a0f91"/></linearGradient><linearGradient id="I" x1="179.537" y1="292.206" x2="209.571" y2="292.206" xlink:href="#Ad"><stop stop-color="#dae3fe"/><stop offset="1" stop-color="#e9effd"/></linearGradient><linearGradient id="J" x1="179.537" y1="261.928" x2="180.325" y2="261.928" xlink:href="#Ad"><stop stop-color="#dae3fe"/><stop offset="1" stop-color="#e9effd"/></linearGradient><linearGradient id="K" x1="161.697" y1="356.952" x2="335.354" y2="99.744" xlink:href="#Ad"><stop stop-color="#4042e2"/><stop offset="1" stop-color="#4f52ff"/></linearGradient><linearGradient id="L" x1="206.056" y1="124.696" x2="260.974" y2="124.696" xlink:href="#Ad"><stop stop-color="#dae3fe"/><stop offset="1" stop-color="#e9effd"/></linearGradient><linearGradient id="M" x1="244.411" y1="102.049" x2="174.685" y2="206.263" xlink:href="#Ad"><stop stop-color="#fe7062"/><stop offset="1" stop-color="#ff928e"/></linearGradient><linearGradient id="N" x1="256.385" y1="110.059" x2="186.658" y2="214.273" xlink:href="#Ad"><stop stop-color="#fe7062"/><stop offset="1" stop-color="#ff928e"/></linearGradient><linearGradient id="O" x1="271.007" y1="104.982" x2="326.088" y2="104.982" xlink:href="#Ad"><stop stop-color="#dae3fe"/><stop offset="1" stop-color="#e9effd"/></linearGradient><linearGradient id="P" x1="271.007" y1="113.008" x2="326.088" y2="113.008" xlink:href="#Ad"><stop stop-color="#dae3fe"/><stop offset="1" stop-color="#e9effd"/></linearGradient><linearGradient id="Q" x1="271.007" y1="121.151" x2="326.088" y2="121.151" xlink:href="#Ad"><stop stop-color="#dae3fe"/><stop offset="1" stop-color="#e9effd"/></linearGradient><linearGradient id="R" x1="206.414" y1="160.413" x2="331.098" y2="160.413" xlink:href="#Ad"><stop stop-color="#dae3fe"/><stop offset="1" stop-color="#e9effd"/></linearGradient><linearGradient id="S" x1="206.414" y1="168.439" x2="331.098" y2="168.439" xlink:href="#Ad"><stop stop-color="#dae3fe"/><stop offset="1" stop-color="#e9effd"/></linearGradient><linearGradient id="T" x1="205.389" y1="187.262" x2="222.575" y2="187.262" xlink:href="#Ad"><stop stop-color="#dae3fe"/><stop offset="1" stop-color="#e9effd"/></linearGradient><linearGradient id="U" x1="226.169" y1="186.692" x2="257.185" y2="186.692" xlink:href="#Ad"><stop stop-color="#dae3fe"/><stop offset="1" stop-color="#e9effd"/></linearGradient><linearGradient id="V" x1="265.95" y1="187.262" x2="283.137" y2="187.262" xlink:href="#Ad"><stop stop-color="#dae3fe"/><stop offset="1" stop-color="#e9effd"/></linearGradient><linearGradient id="W" x1="286.732" y1="186.692" x2="317.748" y2="186.692" xlink:href="#Ad"><stop stop-color="#dae3fe"/><stop offset="1" stop-color="#e9effd"/></linearGradient><linearGradient id="X" x1="210.71" y1="214.363" x2="223.429" y2="214.363" xlink:href="#Ad"><stop stop-color="#dae3fe"/><stop offset="1" stop-color="#e9effd"/></linearGradient><linearGradient id="Y" x1="231.79" y1="214.905" x2="331.182" y2="214.905" xlink:href="#Ad"><stop stop-color="#dae3fe"/><stop offset="1" stop-color="#e9effd"/></linearGradient><linearGradient id="Z" x1="242.591" y1="168.708" x2="190.514" y2="257.939" xlink:href="#Ad"><stop stop-color="#fe7062"/><stop offset="1" stop-color="#ff928e"/></linearGradient><linearGradient id="a" x1="210.71" y1="236.263" x2="223.429" y2="236.263" xlink:href="#Ad"><stop stop-color="#dae3fe"/><stop offset="1" stop-color="#e9effd"/></linearGradient><linearGradient id="b" x1="231.79" y1="236.805" x2="331.182" y2="236.805" xlink:href="#Ad"><stop stop-color="#dae3fe"/><stop offset="1" stop-color="#e9effd"/></linearGradient><linearGradient id="c" x1="252.179" y1="174.305" x2="200.102" y2="263.536" xlink:href="#Ad"><stop stop-color="#fe7062"/><stop offset="1" stop-color="#ff928e"/></linearGradient><linearGradient id="d" x1="210.71" y1="258.161" x2="223.429" y2="258.161" xlink:href="#Ad"><stop stop-color="#dae3fe"/><stop offset="1" stop-color="#e9effd"/></linearGradient><linearGradient id="e" x1="231.79" y1="258.705" x2="331.182" y2="258.705" xlink:href="#Ad"><stop stop-color="#dae3fe"/><stop offset="1" stop-color="#e9effd"/></linearGradient><linearGradient id="f" x1="260.243" y1="196.258" x2="191.676" y2="292.234" xlink:href="#Ad"><stop stop-color="#fe7062"/><stop offset="1" stop-color="#ff928e"/></linearGradient><linearGradient id="g" x1="210.71" y1="280.061" x2="223.429" y2="280.061" xlink:href="#Ad"><stop stop-color="#dae3fe"/><stop offset="1" stop-color="#e9effd"/></linearGradient><linearGradient id="h" x1="231.79" y1="280.605" x2="331.182" y2="280.605" xlink:href="#Ad"><stop stop-color="#dae3fe"/><stop offset="1" stop-color="#e9effd"/></linearGradient><linearGradient id="i" x1="271.36" y1="185.498" x2="219.283" y2="274.729" xlink:href="#Ad"><stop stop-color="#fe7062"/><stop offset="1" stop-color="#ff928e"/></linearGradient><linearGradient id="j" x1="288.271" y1="29.541" x2="222.434" y2="116.488" xlink:href="#Ad"><stop stop-color="#09005d"/><stop offset="1" stop-color="#1a0f91"/></linearGradient><linearGradient id="k" x1="256.813" y1="56.797" x2="267.412" y2="56.797" xlink:href="#Ad"><stop stop-color="#dae3fe"/><stop offset="1" stop-color="#e9effd"/></linearGradient><linearGradient id="l" x1="295.529" y1="35.036" x2="229.691" y2="121.984" xlink:href="#Ad"><stop stop-color="#09005d"/><stop offset="1" stop-color="#1a0f91"/></linearGradient><linearGradient id="m" x1="250.643" y1="69.892" x2="253.662" y2="69.892" xlink:href="#Ad"><stop stop-color="#dae3fe"/><stop offset="1" stop-color="#e9effd"/></linearGradient><linearGradient id="n" x1="236.333" y1="73.337" x2="249.198" y2="73.337" xlink:href="#Ad"><stop stop-color="#dae3fe"/><stop offset="1" stop-color="#e9effd"/></linearGradient><linearGradient id="o" x1="287.19" y1="40.341" x2="241.779" y2="124.051" xlink:href="#Ad"><stop stop-color="#4042e2"/><stop offset="1" stop-color="#4f52ff"/></linearGradient><linearGradient id="p" x1="455.57" y1="311.446" x2="464.168" y2="257.146" xlink:href="#Ad"><stop stop-color="#4042e2"/><stop offset="1" stop-color="#4f52ff"/></linearGradient><linearGradient id="q" x1="474.442" y1="310.891" x2="483.577" y2="253.201" xlink:href="#Ad"><stop stop-color="#4042e2"/><stop offset="1" stop-color="#4f52ff"/></linearGradient><linearGradient id="r" x1="472.731" y1="309.626" x2="481.718" y2="252.879" xlink:href="#Ad"><stop stop-color="#4042e2"/><stop offset="1" stop-color="#4f52ff"/></linearGradient><linearGradient id="s" x1="418.952" y1="293.88" x2="422.802" y2="317.532" xlink:href="#Ad"><stop stop-color="#ff928e"/><stop offset="1" stop-color="#feb3b1"/></linearGradient><linearGradient id="t" x1="414.852" y1="297.19" x2="410.861" y2="358.629" xlink:href="#Ad"><stop stop-color="#09005d"/><stop offset="1" stop-color="#1a0f91"/></linearGradient><linearGradient id="u" x1="380.538" y1="295.093" x2="415.797" y2="262.169" xlink:href="#Ad"><stop stop-color="#ff928e"/><stop offset="1" stop-color="#feb3b1"/></linearGradient><linearGradient id="v" x1="441.561" y1="242.494" x2="512.643" y2="242.494" xlink:href="#Ad"><stop stop-color="#09005d"/><stop offset="1" stop-color="#1a0f91"/></linearGradient><linearGradient id="w" x1="343.45" y1="298.597" x2="339.805" y2="354.712" xlink:href="#Ad"><stop stop-color="#09005d"/><stop offset="1" stop-color="#1a0f91"/></linearGradient><linearGradient id="x" x1="512.502" y1="150.051" x2="488.255" y2="173.864" xlink:href="#Ad"><stop stop-color="#09005d"/><stop offset="1" stop-color="#1a0f91"/></linearGradient><linearGradient id="y" x1="482.355" y1="206.178" x2="470.236" y2="260.927" xlink:href="#Ad"><stop stop-color="#fe7062"/><stop offset="1" stop-color="#ff928e"/></linearGradient><linearGradient id="z" x1="434.604" y1="169.298" x2="440.417" y2="188.542" xlink:href="#Ad"><stop stop-color="#ff928e"/><stop offset="1" stop-color="#feb3b1"/></linearGradient><linearGradient id="AA" x1="422.627" y1="160.423" x2="440.276" y2="169.915" xlink:href="#Ad"><stop stop-color="#ff928e"/><stop offset="1" stop-color="#feb3b1"/></linearGradient><linearGradient id="AB" x1="452.963" y1="136.101" x2="436.837" y2="163.643" xlink:href="#Ad"><stop stop-color="#09005d"/><stop offset="1" stop-color="#1a0f91"/></linearGradient><linearGradient id="AC" x1="423.122" y1="159.103" x2="440.757" y2="168.587" xlink:href="#Ad"><stop stop-color="#ff928e"/><stop offset="1" stop-color="#feb3b1"/></linearGradient><linearGradient id="AD" x1="521.969" y1="214.45" x2="468.986" y2="223.685" xlink:href="#Ad"><stop stop-color="#ff928e"/><stop offset="1" stop-color="#feb3b1"/></linearGradient><linearGradient id="AE" x1="110.391" y1="268.52" x2="76.645" y2="345.192" xlink:href="#Ad"><stop stop-color="#4042e2"/><stop offset="1" stop-color="#4f52ff"/></linearGradient><linearGradient id="AF" x1="138.428" y1="280.858" x2="104.682" y2="357.531" xlink:href="#Ad"><stop stop-color="#4042e2"/><stop offset="1" stop-color="#4f52ff"/></linearGradient><linearGradient id="AG" x1="113.603" y1="279.703" x2="116.887" y2="244.876" xlink:href="#Ad"><stop stop-color="#fe7062"/><stop offset="1" stop-color="#ff928e"/></linearGradient><linearGradient id="AH" x1="160.118" y1="198.323" x2="164.266" y2="219.061" xlink:href="#Ad"><stop stop-color="#ff928e"/><stop offset="1" stop-color="#feb3b1"/></linearGradient><linearGradient id="AI" x1="153.278" y1="192.905" x2="131.265" y2="221.739" xlink:href="#Ad"><stop stop-color="#4042e2"/><stop offset="1" stop-color="#4f52ff"/></linearGradient><linearGradient id="AJ" x1="147.355" y1="319.911" x2="171.347" y2="319.911" xlink:href="#Ad"><stop stop-color="#fe7062"/><stop offset="1" stop-color="#ff928e"/></linearGradient><linearGradient id="AK" x1="165.84" y1="273.958" x2="159.335" y2="319.079" xlink:href="#Ad"><stop stop-color="#020039"/><stop offset="1" stop-color="#090056"/></linearGradient><linearGradient id="AL" x1="148.554" y1="312.709" x2="155.045" y2="312.709" xlink:href="#Ad"><stop stop-color="#ff928e"/><stop offset="1" stop-color="#feb3b1"/></linearGradient><linearGradient id="AM" x1="184.986" y1="315.176" x2="204.356" y2="315.176" xlink:href="#Ad"><stop stop-color="#fe7062"/><stop offset="1" stop-color="#ff928e"/></linearGradient><linearGradient id="AN" x1="198.309" y1="278.639" x2="191.804" y2="323.76" xlink:href="#Ad"><stop stop-color="#020039"/><stop offset="1" stop-color="#090056"/></linearGradient><linearGradient id="AO" x1="138.353" y1="184.218" x2="138.353" y2="226.666" xlink:href="#Ad"><stop stop-color="#020039"/><stop offset="1" stop-color="#090056"/></linearGradient><linearGradient id="AP" x1="179.301" y1="313.253" x2="187.051" y2="313.253" xlink:href="#Ad"><stop stop-color="#ff928e"/><stop offset="1" stop-color="#feb3b1"/></linearGradient><linearGradient id="AQ" x1="88.825" y1="394.52" x2="139.799" y2="285.154" xlink:href="#Ad"><stop stop-color="#09005d"/><stop offset="1" stop-color="#1a0f91"/></linearGradient><linearGradient id="AR" x1="129.616" y1="203.624" x2="79.343" y2="288.162" xlink:href="#Ad"><stop stop-color="#4042e2"/><stop offset="1" stop-color="#4f52ff"/></linearGradient><linearGradient id="AS" x1="122.901" y1="187.945" x2="115.507" y2="211.658" xlink:href="#Ad"><stop stop-color="#ff928e"/><stop offset="1" stop-color="#feb3b1"/></linearGradient><linearGradient id="AT" x1="146.656" y1="221.519" x2="166.856" y2="221.519" xlink:href="#Ad"><stop stop-color="#4042e2"/><stop offset="1" stop-color="#4f52ff"/></linearGradient><linearGradient id="AU" x1="145.184" y1="228.533" x2="105.566" y2="256.085" xlink:href="#Ad"><stop stop-color="#fe7062"/><stop offset="1" stop-color="#ff928e"/></linearGradient><linearGradient id="AV" x1="132.974" y1="173.136" x2="123.635" y2="204.432" xlink:href="#Ad"><stop stop-color="#ff928e"/><stop offset="1" stop-color="#feb3b1"/></linearGradient><linearGradient id="AW" x1="121.027" y1="184.267" x2="143.133" y2="176.01" xlink:href="#Ad"><stop stop-color="#09005d"/><stop offset="1" stop-color="#1a0f91"/></linearGradient><linearGradient id="AX" x1="113.064" y1="202.522" x2="122.19" y2="181.805" xlink:href="#Ad"><stop stop-color="#ff928e"/><stop offset="1" stop-color="#feb3b1"/></linearGradient><linearGradient id="AY" x1="137.844" y1="208.517" x2="87.571" y2="293.055" xlink:href="#Ad"><stop stop-color="#4042e2"/><stop offset="1" stop-color="#4f52ff"/></linearGradient><linearGradient id="AZ" x1="119.183" y1="220.211" x2="130.962" y2="220.211" xlink:href="#Ad"><stop stop-color="#09005d"/><stop offset="1" stop-color="#1a0f91"/></linearGradient><linearGradient id="Aa" x1="106.982" y1="229.793" x2="126.691" y2="229.793" xlink:href="#Ad"><stop stop-color="#09005d"/><stop offset="1" stop-color="#1a0f91"/></linearGradient><linearGradient id="Ab" x1="135.734" y1="241.332" x2="161.306" y2="220.628" xlink:href="#Ad"><stop stop-color="#ff928e"/><stop offset="1" stop-color="#feb3b1"/></linearGradient><linearGradient id="Ac" x1="320.237" y1="218.689" x2="295.415" y2="402.946" xlink:href="#Ad"><stop stop-color="#4042e2"/><stop offset="1" stop-color="#4f52ff"/></linearGradient><linearGradient id="Ad" gradientUnits="userSpaceOnUse"/></defs></svg>