<svg width="35" height="35" viewBox="0 0 35 35" fill="none" xmlns="http://www.w3.org/2000/svg">
<path fill-rule="evenodd" clip-rule="evenodd" d="M35 17.5C35 27.1651 27.165 35 17.5 35C7.83504 35 0 27.1651 0 17.5C0 7.83513 7.83504 4.91299e-07 17.5 4.91299e-07C27.165 4.91299e-07 35 7.83513 35 17.5" fill="#4267B2"/>
<path fill-rule="evenodd" clip-rule="evenodd" d="M14.219 30.7048H18.9931V19.6918H22.5195L23.2248 15.2429H18.9931V11.8799C18.9931 10.6315 20.1867 9.92636 21.3259 9.92636H23.3875V6.23723L19.6983 6.07457C16.172 5.85743 14.219 8.62428 14.219 11.9336V15.2429H10.2043V19.6918H14.219V30.7048Z" fill="white"/>
</svg>
