<svg width="35" height="35" viewBox="0 0 35 35" fill="none" xmlns="http://www.w3.org/2000/svg">
<path fill-rule="evenodd" clip-rule="evenodd" d="M35 17.5002C35 27.1651 27.1653 35 17.4995 35C7.83474 35 0 27.1651 0 17.5002C0 7.83526 7.83474 0 17.4995 0C27.1653 0 35 7.83526 35 17.5002Z" fill="#1DA1F2"/>
<path fill-rule="evenodd" clip-rule="evenodd" d="M17.6936 14.3897C16.8316 9.84854 22.2926 7.14697 25.511 10.4235C25.511 10.4235 26.9485 10.021 28.2135 9.21634C28.2135 9.21634 27.7536 10.7683 26.2013 11.7455C26.2013 11.7455 27.9253 11.5157 28.6734 11.0558C28.6734 11.0558 27.9252 12.6079 26.5464 13.1826C27.2937 23.5869 16.0843 29.91 7.00195 24.7366C7.00195 24.7366 11.4862 24.9665 13.3828 22.7821C13.3828 22.7821 10.6233 23.0121 9.24363 19.678C9.24363 19.678 10.2791 20.0806 11.3137 19.5631C11.3137 19.5631 8.09433 19.0457 7.807 15.1945C7.807 15.1945 8.84156 15.9992 9.99086 15.7119C9.99086 15.7119 6.4273 13.5849 8.43858 9.73361C8.43858 9.73361 12.2335 14.5622 17.6936 14.3897Z" fill="white"/>
</svg>
