<svg width="35" height="35" viewBox="0 0 35 35" fill="none" xmlns="http://www.w3.org/2000/svg">
<path fill-rule="evenodd" clip-rule="evenodd" d="M35 17.5C35 27.1649 27.1653 35 17.4995 35C7.83474 35 0 27.1649 0 17.5C0 7.83493 7.83474 0 17.4995 0C27.1653 0 35 7.83493 35 17.5Z" fill="#11AB2A"/>
<path fill-rule="evenodd" clip-rule="evenodd" d="M10.5313 26.0979L12.1051 25.817L13.0594 25.648C14.4084 26.3789 15.8702 26.7727 17.499 26.7727C22.6131 26.7727 26.7719 22.6135 26.7719 17.5001C26.7719 12.3862 22.6131 8.22766 17.499 8.22766C12.3859 8.22766 8.22707 12.3862 8.22707 17.5001C8.22707 19.3548 8.78958 21.0405 9.68797 22.5014L9.57601 23.3443L9.35119 25.0301L9.18234 26.3228L10.5313 26.0979ZM17.499 6.42936C23.6253 6.42936 28.5705 11.3746 28.5705 17.5001C28.5705 23.6253 23.6253 28.5706 17.499 28.5706C15.8133 28.5706 14.2404 28.2335 12.8355 27.5588L6.935 28.5706L7.72144 22.7264L7.66545 22.6135C6.87812 21.0966 6.42847 19.3548 6.42847 17.5001C6.42847 11.3746 11.3737 6.42936 17.499 6.42936ZM13.566 12.4424C14.1836 12.049 14.5772 12.33 14.8021 12.9481L15.3646 14.4092C15.3646 14.4092 15.7573 15.196 14.7452 15.9827C14.5772 16.0951 14.5772 16.0951 14.6332 16.3762C14.858 17.0503 15.7573 19.0738 18.6241 20.6468C18.9049 20.8156 18.9609 20.8156 19.2417 20.5907C19.4665 20.3658 19.7473 20.0848 19.9721 19.8599C20.4778 19.4108 20.7586 19.2419 21.2082 19.5789C21.5459 19.8038 21.8827 20.0848 22.2204 20.3097C22.5572 20.5907 23.1197 20.9277 22.5572 21.6025L22.0515 22.2205C21.3211 23.1194 20.7026 23.1755 19.7473 22.9513C16.0941 21.9955 13.3971 19.4108 12.217 15.7579C11.8243 14.353 12.3859 13.1728 13.566 12.4424Z" fill="white"/>
</svg>
