<svg width="35" height="35" viewBox="0 0 35 35" fill="none" xmlns="http://www.w3.org/2000/svg">
<path fill-rule="evenodd" clip-rule="evenodd" d="M35 17.4999C35 27.1649 27.1655 35 17.4994 35C7.83453 35 0 27.1649 0 17.4999C0 7.83488 7.83453 0 17.4994 0C27.1655 0 35 7.83488 35 17.4999Z" fill="#0072B1"/>
<path fill-rule="evenodd" clip-rule="evenodd" d="M14.0442 13.9869H17.9363V15.8358C18.7637 14.6195 20.1257 13.8409 21.6828 13.8409H22.7533C25.2353 13.8409 27.2295 15.8844 27.2295 18.317V20.3118V22.6957V27.2208H23.3374V27.1725V26.0043V20.0689C23.2892 18.5606 22.2668 17.3924 20.7591 17.3924C19.2502 17.3924 17.9857 18.5606 17.9363 20.0689V25.226V27.2208H14.0442V13.9869ZM9.71371 7.27259C11.0275 7.27259 12.0981 8.34305 12.0981 9.65664C12.0981 10.9704 11.0275 12.0407 9.71371 12.0407C8.39987 12.0407 7.37866 10.9704 7.37866 9.65664C7.37866 8.34305 8.39987 7.27259 9.71371 7.27259ZM7.76764 13.9869H11.7092V27.2208H7.76764V13.9869Z" fill="white"/>
</svg>
