<svg xmlns="http://www.w3.org/2000/svg" width="160" height="156" fill="none" xmlns:v="https://vecta.io/nano"><style><![CDATA[.B{fill:#435b6e}.C{fill:#2e414c}.D{fill:#ebceb1}.E{fill:#d1d9db}.F{fill:#3c6794}.G{fill:#22323a}]]></style><path d="M0 156h160V0H0v156z" fill="#fff"/><path d="M107.616 146.98c-11.707 0-23.404-.381-35.107-.763l-35.145-.762-2.058.004c-4.731.02-9.537.322-14.264.526-1.719.074-3.748.293-5.704.293-1.311 0-2.589-.098-3.721-.404-1.782-.481-1.65-2.16-.293-3.03 2.477-1.588 6.208-1.768 9.026-1.948l22.104-1.558 44.144-3.99 7.096-.777c7.817-.879 15.636-1.43 23.469-1.967 3.102-.213 6.216-.37 9.327-.37 2.466 0 4.931.099 7.388.346 4.778.482 10.548 1.449 14.237 5.06 2.071 2.024 1.189 4.583-1.854 6.307-3.215 1.822-7.297 1.875-10.852 2.13-9.275.664-18.537.903-27.792.903h0zm-23.351-6.477c-.867 0-1.733.011-2.599.037-.518.017-6.18.16-5.647 1.106.448.798 3.259.999 4.221.999l.107-.001c1.375-.027 2.759-.065 4.111-.284.694-.112 1.379-.271 2.031-.499.159-.056.441-.151.7-.272.281-.131.536-.291.581-.458.049-.183-.106-.368-.296-.471-.277-.149-.737-.185-1.205-.185-.216 0-.434.008-.636.015a12.75 12.75 0 0 1-.542.015h-.034l-.793-.002" fill="#ebebeb"/><path d="M110.424 61.747l.369-2.838 1.244.12.186 2.005.611-.211-.618 2.387-1.308.046-.484-1.509" class="D"/><g class="E"><path d="M118.025 79.449c1.876.163 4.025.078 5.269-1.3 1.011-1.121 1.097-2.791.763-4.248-.039-.169-.093-.351-.239-.448-.136-.089-.313-.08-.476-.068l-5.008.377c-.936.07-2.811.579-3.321-.134-.574-.803-.578-2.791-.775-3.741l-1.537-7.412-2.587.222.076 6.824.054 4.88c.048 4.328 4.147 4.732 7.781 5.048z"/><path d="M128.944 74.552c1.53 1.135 2.182 3.17 2.561 5.054 1.561 7.757.765 15.758-.057 23.622-.092.88-.309 1.26-1.179.882-5.46-2.372-10.83-5.436-16.795-5.808 1.495-4.937 1.654-10.156 2.667-15.208.294-1.466.664-2.929 1.308-4.284.839-1.767 2.179-3.678 3.664-4.995 1.397-1.24 3.618-.691 5.296-.276.695.172 1.399.347 2.025.687.18.098.35.207.51.325"/></g><path d="M56.232 78.099l1.519.418 1.216-.67.276.174-.212.337 1.172-.28.878.407.213 1.233-.642 1.141-1.298.084-1.382-.656-2.106-.485.365-1.704" class="D"/><path d="M56.919 77.324l-15.224-3.638c-.525-.125-1.154-.69-1.609-.962l-3.246-1.942c-.74-.443-2.038-1.577-2.936-1.576-1.462.001-2.236 2.128-2.246 3.27-.033 3.505 3.325 5.007 5.829 6.886l2.414 1.218 16.904.329.114-3.584" class="E"/><path d="M38.497 59.287c-1.941.631-4.011-.75-5.884.163-1.217.593-2.045 2.087-2.244 3.596-.093.703-.063 1.438.197 2.053.169.399.428.734.718 1.016.389.378.841.661 1.325.845-.187.505-.414.994-.676 1.459l2.867.526.371-1.904a4.08 4.08 0 0 0 .791-.331c1.545-.854 2.671-2.761 2.786-4.719.054-.917-.096-1.817-.251-2.702" class="D"/><path d="M28.673 63.33l-.232-.417c-.86-1.731-1.322-3.764-.049-5.432 1.296-1.699 3.95-2.442 5.979-1.939 1.118.277 2.299.651 3.395.3.328-.105.645-.284.832-.567.172-.263.217-.591.395-.85.417-.606 1.553-.463 1.797.227.072.202.076.428.184.614.239.413.824.43 1.306.492.155.02.321.057.42.175.179.215.009.554-.238.692-.34.19-.934.137-1.15.509-.156.27.083.786.043 1.097-.14 1.088-1.104 2.077-2.121 2.448-.975.355-1.848-.03-2.822-.274-.276-.069-.569-.237-.84-.273-.341-.046-.676.117-1.002.187-.406.088-.829.038-1.244.005s-.847-.047-1.232.106-.712.517-.689.922c.028.491.535.872.526 1.364-.008.426-.397.744-.563 1.138-.129.305-.132.675-.367.912-.104.106-.245.174-.34.287-.124.149-.162.367-.327.471-.183.115-.439.024-.58-.138s-.198-.374-.268-.575c-.187-.54-.522-.998-.814-1.481" fill="#333"/><path d="M32.337 68.21c-.432-.043-.896-.08-1.275.123-.341.182-.545.524-.729.852-4.846 8.621-6.946 18.612-5.956 28.338a90.2 90.2 0 0 1 17.525-1.335l-1.605-11.342c-.395-2.789-.79-5.582-1.446-8.326-.575-2.405-1.349-4.767-2.312-7.057-.609-1.447-2.827-1.115-4.203-1.252" class="E"/><path d="M44.894 140.403l1.127 1.027c.726.661.56 1.861-.351 2.247-.536.23-1.292.194-2.338-.503l-2.401-2.663.39-.86 3.467-.512.105 1.264" fill="#1a1a1a"/><path d="M42.537 95.289l5.582 22.237-1.644 21.756-5.508.464-1.271-19.623S27.613 98.621 28.304 98.155s14.233-2.866 14.233-2.866" class="F"/><path d="M27.812 140.403l1.129 1.023c.727.661.564 1.861-.346 2.25-.536.229-1.292.195-2.339-.501l-2.406-2.657v-1.237l.91-.782 2.649.478.403 1.426z" fill="#1a1a1a"/><g class="F"><path d="M38.723 96.696l-1.732 22.83-8.125 20.098-5.713-1.116 5.004-19.047s-4.685-24.088-3.88-24.323 14.445 1.558 14.445 1.558z"/><path d="M23.85 95.814l2.163-5.104 7.535-2.437-1.437-9.306 7.518-1.186 1.302 13.094 1.843 5.36-18.168 3.236-.757-3.657"/><path d="M32.518 74.907c.012-1.439-.064-3.077-1.191-4.007-.253-.209-.566-.373-.898-.371-.678.004-1.139.65-1.477 1.223-.111-.855-.176-1.8.338-2.501.654-.893 2.075-1.002 3.035-.431s1.501 1.648 1.705 2.727.122 2.186.121 3.283c-.002 1.599.17 3.194.342 4.784-.657-.043-1.297.088-1.937.115-.391-1.405-.051-3.343-.038-4.823m5.081-1.489c-.163-1.386-.507-2.916-1.688-3.704-.293-.195-.671-.41-.653-.755.01-.202.168-.372.347-.474.599-.34 1.409-.049 1.848.474s.597 1.213.728 1.877a51.75 51.75 0 0 1 .941 8.013c.016.404-.994.178-1.164-.004-.278-.298-.123-.999-.125-1.358-.006-1.36-.076-2.717-.235-4.069"/></g><path d="M125.421 135.517l-.228 1.487.518 2.829 1.704-.158.321-4.189-.251-.671-2.064.702m-8.013 4.09l-2.67 1.908.333 1.426 4.888-1.136-.397-2.06-2.154-.138z" fill="#514943"/><g class="F"><path d="M112.147 102.105l.088 19.572 4.474 18.368h3.642l-.227-21.306 2.191-16.104-1.605-3.186-8.094.896-.469 1.76"/><path d="M121.379 116.508l3.815 18.684 3.317-.377.908-14.591 1.705-15.959-1.719-4.668h-9.261l1.235 16.911"/></g><path d="M130.205 67.898c-.346-3.192-4.508-5.15-6.285-1.897-.534.978-.96 2.044-.984 3.153s.41 2.269 1.316 2.916l.016.01-.298.805c-.022.058-.043.122-.02.179.026.065.098.096.164.12l.967.357c.159.059.326.119.495.102.372-.038.607-.421.701-.779l.059-.261c2.115-.257 4.094-2.618 3.869-4.704" fill="#eacdb0"/><path d="M112.973 33.189c.335-.96 1.405-1.473 2.39-1.146s1.51 1.37 1.175 2.33-1.405 1.473-2.39 1.146-1.51-1.37-1.175-2.33h0zm-3.267-1.085c-.951 2.719.54 5.675 3.329 6.601s5.82-.527 6.77-3.246-.54-5.675-3.329-6.601-5.82.527-6.77 3.246" fill="#d1b337"/><path d="M102.858 28.674c2.535-5.633 8.89-8.679 15.013-7.199l-2.96 8.471c-1.325-.052-2.598.558-3.365 1.614l-8.688-2.886zm-.723 2.069l8.688 2.886c-.053 1.292.573 2.533 1.655 3.281l-2.96 8.471c-5.777-2.472-8.902-8.668-7.383-14.638zm12.014 4.775c-.985-.327-1.511-1.37-1.176-2.33s1.406-1.473 2.39-1.146 1.51 1.37 1.175 2.33-1.405 1.473-2.389 1.146h0zm.451 2.097c1.326.052 2.598-.558 3.365-1.614l8.689 2.886c-2.536 5.633-8.89 8.679-15.014 7.199l2.96-8.471zm12.777-.797l-8.689-2.886c.054-1.293-.572-2.533-1.655-3.281l2.96-8.471c5.778 2.472 8.903 8.668 7.384 14.638zm-29.206-5.742a15.88 15.88 0 0 0-.223 3.239l-2.763.927.902 4.449 2.921-.168a16.29 16.29 0 0 0 1.469 2.911l-1.92 2.153 3.063 3.413 2.44-1.568c.848.682 1.773 1.288 2.768 1.805l-.559 2.799 4.403 1.462 1.31-2.549c1.112.183 2.224.253 3.323.218l.951 2.694 4.563-.88-.173-2.848a17.09 17.09 0 0 0 2.986-1.432l2.209 1.872 3.5-2.986-1.608-2.379c.699-.827 1.321-1.728 1.851-2.698l2.871.544 1.5-4.293-2.615-1.278a15.83 15.83 0 0 0 .224-3.239l2.763-.927-.903-4.449-2.92.168a16.42 16.42 0 0 0-1.469-2.911l1.92-2.153-3.063-3.413-2.44 1.568c-.848-.681-1.773-1.288-2.768-1.805l.558-2.799-4.402-1.463-1.311 2.549a17.12 17.12 0 0 0-3.322-.218l-.951-2.695-4.563.88.173 2.848c-1.042.38-2.042.86-2.987 1.432l-2.208-1.872-3.5 2.986 1.608 2.379c-.699.827-1.321 1.729-1.852 2.698l-2.871-.544-1.5 4.293 2.614 1.278" fill="#efd154"/><path d="M100.993 29.21c-2.585 7.399 1.485 15.469 9.074 17.99s15.866-1.448 18.451-8.847-1.486-15.469-9.074-17.99-15.866 1.448-18.451 8.847zm-.606-.201c2.699-7.725 11.341-11.868 19.263-9.236s12.172 11.057 9.473 18.781-11.34 11.868-19.262 9.236-12.173-11.057-9.474-18.781" fill="#c1b23f"/><path d="M101.872 32.098c-.766 5.53 2.305 10.998 7.646 13.283l1.046-2.992a44.7 44.7 0 0 0 1.849 1.485l-.773 2.211c1.482.358 2.976.449 4.427.305 1.707 1.063 3.346 1.937 4.825 2.647l-.246.097.173 2.848-4.563.88-.951-2.694c-1.099.035-2.211-.035-3.323-.218l-1.31 2.549-4.403-1.462.559-2.799c-.995-.517-1.92-1.123-2.768-1.805l-2.44 1.568-3.063-3.413 1.92-2.153a16.29 16.29 0 0 1-1.469-2.911l-2.921.168-.902-4.449 2.763-.927a15.88 15.88 0 0 1 .223-3.239l-2.614-1.278 1.5-4.292 1.951.37c.793 2.252 1.764 4.321 2.864 6.222" fill="#d1b337"/><path d="M100.744 29.998c-2.043 7.175 2.003 14.77 9.323 17.202 2.677.889 5.44.97 8.008.378l.805.44a15.46 15.46 0 0 1-9.019-.228c-7.874-2.615-12.119-10.953-9.522-18.638l.405.846z" fill="#ada03b"/><path d="M122.105 18.981c.016.053.553-2.232.553-2.232l-3.526-1.15s2.315 1.201 2.973 3.382" fill="#faeb7d"/><path d="M81.313 68.452l7.664 1.124c.075.428.244.843.51 1.216l-3.484 6.863a1.36 1.36 0 0 1-2.084.412c-1.889-1.62-3.289-3.816-3.879-6.394-.141-.616-.231-1.232-.272-1.843-.056-.833.697-1.503 1.544-1.378zm6.978 10.424l3.444-6.786c.715.072 1.452-.095 2.074-.507l5.99 4.782a1.29 1.29 0 0 1-.006 2.035c-1.429 1.127-3.139 1.958-5.055 2.374-1.898.413-3.791.374-5.562-.042-.837-.197-1.268-1.104-.886-1.857zm6.874-9.494c.035-.32.018-.644-.051-.961l6.467-4.208c.716-.466 1.699-.168 2.001.618.199.519.364 1.057.492 1.613.583 2.549.288 5.088-.689 7.32-.354.808-1.397 1.066-2.094.509l-6.126-4.891h0zm-2.967-2.151c1.035.076 1.811.956 1.734 1.965s-.98 1.766-2.016 1.691-1.812-.956-1.734-1.965.98-1.766 2.016-1.69zm7.872-5.09l-6.517 4.241c-.267-.142-.552-.244-.843-.304l-1.7-7.425c-.191-.832.471-1.618 1.345-1.598a12.5 12.5 0 0 1 7.865 3.017 1.29 1.29 0 0 1-.151 2.069zm-9.903 4.49l-.225.183c-.103.093-.198.191-.286.293l-9.428-1.384c.945-3.177 3.217-5.895 6.327-7.407.781-.38 1.722.059 1.912.89l1.7 7.425h0zm-19.701 4.296l-1.993.975.393 2.203.605 2.157 2.23.056c2.536.063 4.012 2.82 2.617 4.885l-1.232 1.824c.918 1.185 1.956 2.283 3.103 3.282l1.962-1.04c2.229-1.181 4.921.486 4.772 2.955l-.131 2.173c1.415.588 2.876 1.036 4.366 1.343l1.169-1.863c1.325-2.11 4.511-1.978 5.648.233l1 1.944 2.259-.383 2.212-.59.057-2.174c.065-2.473 2.892-3.912 5.011-2.552l1.871 1.201a23.32 23.32 0 0 0 3.366-3.025l-1.067-1.913c-1.211-2.173.499-4.798 3.031-4.653l2.229.128a22.48 22.48 0 0 0 1.377-4.257l-1.91-1.14c-2.164-1.291-2.029-4.398.239-5.507l1.993-.975-.392-2.203-.606-2.157-2.229-.056c-2.536-.064-4.013-2.82-2.618-4.885l1.232-1.824a23.19 23.19 0 0 0-3.102-3.282l-1.962 1.04c-2.229 1.181-4.921-.486-4.772-2.955l.131-2.173a24 24 0 0 0-4.366-1.343l-1.169 1.863c-1.325 2.11-4.511 1.978-5.648-.233l-1-1.944-2.259.383-2.212.59-.057 2.174c-.065 2.473-2.892 3.912-5.011 2.552L77.73 50.56a23.35 23.35 0 0 0-3.366 3.026l1.067 1.913c1.212 2.173-.498 4.798-3.031 4.653l-2.229-.128a22.55 22.55 0 0 0-1.377 4.257l1.911 1.14c2.164 1.291 2.029 4.398-.239 5.507" fill="#659993"/><path d="M92.068 84.388c-.394 0-.79-.014-1.189-.044-3.69-.27-6.991-1.769-9.512-4.053.399.046.746.11 1.136.261.258.1.999.106 1.057.182h0l-1.435-4.095c2.113 2.63 5.308 4.418 8.986 4.688a13.08 13.08 0 0 0 .954.035c6.533 0 12.078-4.929 12.575-11.383.521-6.765-4.7-12.683-11.639-13.191a13.03 13.03 0 0 0-.954-.035c-6.533 0-12.077 4.929-12.575 11.383-.021.279-.033.556-.035.832l-1.971-5.626c2.347-5.686 8.07-9.614 14.579-9.614.394 0 .79.014 1.189.044 8.645.633 15.149 8.005 14.5 16.434-.315 4.088-2.256 7.685-5.157 10.234a.5.5 0 0 0-.122-.015c-.112 0-.224.041-.321.138l-.137.137-.895-1.494-3.566 1.994 1.072 1.79a15.94 15.94 0 0 1-6.541 1.398h0zm-12.139-9.028c-.223 0-.242-.1-.44-.377-.409-.572-.746-1.186-1.01-1.833-.25-.61-.523-1.32-.553-1.98-.023-.503.344-.744.763-.902.18-.052.359-.109.537-.17a.55.55 0 0 0 .244-.158c.139 1.9.727 3.696 1.667 5.275l-1.024.131a1.56 1.56 0 0 1-.183.014" fill="#5a8883"/><path d="M81.821 38.66c-3.299 1.987-7.635 1.004-9.683-2.229-2.034-3.228-1.015-7.448 2.293-9.433 3.298-2 7.635-1.004 9.675 2.217 2.053 3.229 1.021 7.457-2.285 9.445h0zm11.853-3.763a14.08 14.08 0 0 0 .137-1.74l-2.977-.999-.549-2.996 2.436-1.945a15.15 15.15 0 0 0-1.71-3.12l-3.013.902-2.254-2.107.798-2.974c-.981-.608-2.041-1.118-3.166-1.505l-1.908 2.449-3.091-.437-1.129-2.873a15.98 15.98 0 0 0-3.578.607l-.066 3.073-2.763 1.422-2.644-1.67c-.934.745-1.783 1.595-2.524 2.54l1.795 2.52-1.372 2.733-3.146.167c-.158.586-.286 1.191-.374 1.812a16.12 16.12 0 0 0-.136 1.688l2.977 1.008.539 2.998-2.449 1.938c.447 1.107 1.019 2.162 1.707 3.133l3.016-.892 2.247 2.113-.811 2.973c1.012.629 2.102 1.157 3.263 1.553l1.901-2.457 3.093.424 1.135 2.87a16.15 16.15 0 0 0 3.577-.621l.057-3.073 2.757-1.434 2.648 1.663a15.42 15.42 0 0 0 2.519-2.548l-1.809-2.514 1.363-2.743 3.149-.171c.15-.577.273-1.166.355-1.766z" fill="#8c314c"/><path d="M83.006 40.53c-4.359 2.627-10.084 1.309-12.778-2.942-2.702-4.26-1.349-9.836 3.01-12.466s10.091-1.304 12.785 2.949 1.345 9.833-3.017 12.459h0zm3.876-12.976c-2.987-4.715-9.338-6.181-14.174-3.269s-6.332 9.099-3.337 13.821c2.986 4.713 9.334 6.173 14.166 3.261s6.334-9.101 3.345-13.813" fill="#fff"/><path d="M70.387 42.659l.09.084-.754 2.956-.057.017c1.012.629 2.102 1.157 3.263 1.553l-.02-.054 1.921-2.403 3.093.424 1.174 2.823-.04.047c1.229-.073 2.428-.285 3.577-.621l-.047-.03.104-3.044 2.757-1.434 2.654 1.611-.006.051a15.42 15.42 0 0 0 2.519-2.548l-.056.005-1.753-2.519 1.363-2.743 3.116-.215.033.044c.15-.577.273-1.166.355-1.766.084-.583.126-1.165.137-1.74l-.04.037-.833-.294c-7.154 7.141-15.864 9.312-22.55 9.758" fill="#782441"/><path d="M83.536 41.367c1.659-.999 2.925-2.384 3.752-3.962l-1.961 1.138c-.638.764-1.413 1.441-2.321 1.987a9.44 9.44 0 0 1-6.386 1.228l-2.198.433c2.9 1.088 6.27.891 9.115-.824z" fill="#bb899a"/><path d="M73.825 20.596l.126-2.478s1.605-.515 2.762-.513c0 0-1.935.353-2.888 2.991z" fill="#a63f65"/><path d="M80.239 142.646c-.961 0-3.772-.202-4.221-1-.532-.946 5.129-1.089 5.648-1.106l2.599-.037.793.003h.034l.542-.016.636-.015c.468 0 .928.036 1.205.185.19.103.345.288.296.471-.045.167-.3.327-.581.458-.26.121-.541.217-.7.272-.652.228-1.337.387-2.031.499-1.353.219-2.736.258-4.111.284l-.107.002" fill="#cacaca"/><path d="M83.014 138.056c0 2.459-2.045 4.453-4.567 4.453s-4.567-1.994-4.567-4.453 2.045-4.453 4.567-4.453 4.567 1.993 4.567 4.453z" class="B"/><path d="M76.686 140.707l-1.475-2.811 1.76-2.652 3.235.16 1.475 2.812-1.76 2.651-3.235-.16" class="C"/><path d="M80.119 138.056c0 .9-.749 1.631-1.673 1.631s-1.673-.731-1.673-1.631.749-1.631 1.673-1.631 1.673.73 1.673 1.631z" class="G"/><path d="M85.468 124.088l4.822-8.966 4.011 2.393-5.951 8.292-1.586-.242a.6.6 0 0 1-.394-.239l-.901-1.238" class="C"/><path d="M86.144 122.732l4.082 1.357c.598.187.969-.716.348-.905l-4.226-1.37c-.566-.195-.75.725-.203.918zm-.787 1.483l3.8 1.318c.555.182.867-.616.291-.8l-3.925-1.334c-.527-.189-.677.629-.167.816m2.54-4.804l4.751 1.303c.704.177 1.31-1.089.57-1.265l-4.968-1.302c-.657-.189-.982 1.077-.353 1.264m-.855 1.632l4.408 1.393c.648.192 1.093-.838.418-1.032L87.29 120c-.611-.201-.838.844-.249 1.043z" class="B"/><path d="M88.315 125.775l-.217-.006.287-.492.23.077-.3.421zm.816-1.145l-.309-.1.437-.748.388.124-.516.724h0zm1.104-1.549l-.48-.149.5-.855.571.173-.591.831" fill="#4d5d67"/><path d="M89.647 123.906l-.388-.125.496-.849.48.148-.588.826" fill="#5f7384"/><path d="M91.503 121.3l-.679-.199.435-.745.772.201-.529.743zm1.376-1.933l-.911-.224.577-.987.704.693-.369.518z" fill="#4d5d67"/><g fill="#5f7384"><path d="M88.615 125.354l-.23-.078.436-.746.309.1-.515.724m3.417-4.797l-.772-.201.708-1.213.911.224-.847 1.19"/><path d="M90.826 122.25l-.571-.174.569-.975.679.199-.677.95"/></g><path d="M97.653 116.42c.061-1.533-1.16-3.19-2.712-4.115s-3.62-1.233-4.992-.482c-2.081 1.137-2.021 4.242 1.364 6.262s6.247.659 6.34-1.665" fill="#5c7789"/><path d="M91.923 117.115c-3.385-2.02-3.636-4.82-1.704-5.721 1.274-.594 3.285-.195 4.836.731s2.83 2.49 2.867 3.866c.056 2.088-2.615 3.143-6 1.124z" class="B"/><path d="M92.519 111.771l2.418.781 1.694 1.816-.492 1.889-3.555-.609-1.774-2.815 1.708-1.062" class="C"/><path d="M93.499 114.605c-.902-.538-1.248-1.352-.838-1.754.353-.345 1.16-.26 1.846.149s1.131 1.072.976 1.535c-.181.539-1.081.608-1.983.07z" class="G"/><path d="M103.214 90.677L97.537 81.2l3.566-1.994 5.677 9.477-.866 1.684c-.144.281-.447.451-.769.431l-1.931-.121" class="C"/><path d="M99.508 84.754l3.461-3.321c.475-.475-.358-1.347-.834-.871l-3.46 3.321c-.493.454.34 1.324.833.871zm1.223 2.078l3.46-3.321c.475-.475-.357-1.347-.833-.871l-3.46 3.321c-.493.454.34 1.324.833.871zm1.222 2.077l3.46-3.321c.475-.475-.357-1.347-.833-.871l-3.461 3.321c-.493.454.341 1.324.834.871m1.222 2.078l3.46-3.321c.475-.475-.357-1.347-.833-.871l-3.46 3.321c-.493.454.34 1.324.833.871z" class="B"/><path d="M105.834 90.556l-.023-.036c.04-.046.074-.098.103-.153l.193-.376.003.006-.276.56" fill="#fff"/><path d="M105.811 90.52l-.802-1.258.508-.492.591 1.221-.194.376c-.028.056-.063.107-.103.153h0zm-1.463-2.295l-.625-.98.72-.698.521 1.078-.616.6h0zm-1.286-2.016l-.625-.98.931-.903.521 1.077-.827.806h0zm-1.286-2.016l-.625-.98 1.143-1.109.521 1.077-1.039 1.012h0zm-1.285-2.016l-.565-.886 1.471-1.042.342.709-1.248 1.219z" fill="#3e505a"/><path d="M101.151 83.212l-.661-1.036 1.249-1.219.554 1.146-1.142 1.109zm1.286 2.017l-.661-1.036 1.039-1.012.553 1.146-.931.903zm1.285 2.016l-.66-1.036.827-.806.554 1.145-.721.697m1.287 2.017l-.661-1.037.616-.6.553 1.144-.508.492" fill="#526879"/><path d="M102.034 75.241c-1.39-.62-3.551-.162-5.203.855s-2.994 2.717-3 4.197c-.009 2.244 2.9 3.339 6.504 1.119s3.807-5.231 1.699-6.171" fill="#5c7789"/><path d="M99.747 80.52c-3.604 2.22-6.328 1.406-6.176-.621.101-1.336 1.499-2.951 3.151-3.968s3.757-1.56 5.052-1.084c1.965.722 1.577 3.453-2.027 5.673" class="B"/><path d="M95.287 78.332l1.962-1.83 2.55-.814 1.5 1.129-2.383 2.891-3.517.514-.112-1.889" class="C"/><path d="M98.416 78.522c-.96.591-1.892.594-2.055.087-.14-.437.352-1.113 1.082-1.563s1.572-.595 1.922-.288c.407.357.011 1.172-.95 1.764" class="G"/><path d="M79.128 69.913l1.842 5.306c.21.605.883.929 1.503.725l.685-.226a1.15 1.15 0 0 0 .743-1.466l-1.842-5.306c-.21-.605-.883-.929-1.503-.724l-.685.226a1.15 1.15 0 0 0-.743 1.466z" class="C"/><path d="M80.169 73.479l3.925-.03c.37.001.407.564.033.564a200.57 200.57 0 0 0-3.925.03c-.371.007-.407-.557-.033-.564zm-.584-1.68l3.925-.03c.371.001.407.564.033.564a200.55 200.55 0 0 0-3.924.03c-.371.006-.407-.557-.033-.564zm-.339-1.527l3.925-.03c.37.001.407.564.033.564a201.35 201.35 0 0 0-3.925.03c-.371.006-.407-.557-.033-.564z" class="B"/><path d="M79.569 68.83l2.197-.27c.541-.058 1.357-.297 1.892-.017.511.268.773 1.026 1.008 1.509.326.67.608 1.359.843 2.061a17.66 17.66 0 0 1 .517 1.918c.108.506.192 1.009-.24 1.355-.938.751-2.607.65-3.769.635-.692-.009-.799-1.088-.102-1.079.967.013 1.921.014 2.835-.273.343-.108.3-.118.226-.483l-.196-.818-.448-1.41-.572-1.371c-.114-.243-.233-.531-.38-.755-.206-.312-.21-.276-.532-.293-.475-.025-1.003.099-1.47.153l-1.708.216c-.681.093-.779-.986-.102-1.079" fill="#afbdc6"/><path d="M77.015 69.496l1.559-.358.239-.075c.683-.202 1.1.797.412 1.035l-.537.17c-.419.158-.786.399-.763.902.03.66.303 1.37.553 1.98a8.98 8.98 0 0 0 1.01 1.833c.242.338.216.412.623.363l1.087-.139c.369-.047.581.22.604.504.128.217.12.498-.152.676-.807.528-1.906 1.047-2.809.343-.464-.362-.645-1.007-.871-1.516l-.812-1.833c-.382-.863-1.253-2.112-.994-3.092.112-.425.432-.676.85-.792" class="C"/><path d="M87.38 72.83c1.505-.154 2.969-.419 4.451-.716l2.93-.669 2.848-.888c.717-.199 2.96-1.038 3.42-.13.278.549-.294 1.217-.628 1.607l-1.545 1.705c-1.59 1.619-3.394 3.037-5.355 4.206-1.551.925-3.224 1.701-4.997 2.07l-.617.111c-.087.013-.179.024-.259-.011-.117-.052-.168-.185-.207-.304a48.88 48.88 0 0 1-1.524-5.919c-.049-.255-.093-.534.034-.763.204-.371 1.082-.261 1.45-.298" fill="#afbdc6"/><path d="M77.253 69.638c-.298.036-.474.332-.37.624l1.903 5.361a.54.54 0 0 0 .572.357l2.417-.342 1.785 5.095h0c-.057-.076-.799-.082-1.057-.182-.459-.179-.859-.236-1.353-.284-3.15-.307-6.496-.401-9.181 1.502-4.319 3.061-8.563 6.234-12.808 9.391l-12.773 9.792-.252.2-6.192 5.002-3.223 2.598c-1.159.926-1.877 1.894-3.512 1.396-1.46-.444-2.918-1.454-3.876-2.603a7.51 7.51 0 0 1-1.566-3.235c-.28-1.282-.787-2.877.565-3.716.593-.368 1.179-.734 1.745-1.141l26.197-17.558 1.83-1.279c2.258-1.572 6.008-4.391 8.212-6.035 4.296-3.204 4.795-5.57 7.268-9.461.998-1.571 1.932-3.18 2.821-4.812l3.17 9.048-2.321.281" class="B"/><g fill="#c1d0db"><path d="M83.945 55.961c3.25-.599 11.243 3.285 13.346 4.141s.734 2.471.734 2.471l-1.129.176-3.045.53-2.216.434-1.106.226c-.294.063-.564.21-.856.298-.324.098-.649.196-.964.321-.6.238-1.251.571-1.737.995-.171.149-.435.536-.342.789l5.121 13.887c.061.165-.062.339-.241.342l-7.949.164c.001 0 .367-.276.277-1.252-.062-.668-.199-1.329-.358-1.981-.166-.681-.369-1.352-.576-2.022l2.011-.285c.618-.087.966-.717.729-1.319l-1.82-4.625a.54.54 0 0 0-.556-.342l-2.345.284c-1.155-3.36-2.482-6.663-3.974-9.894l-.543 1.009-.143-.407c1.264-1.539 4.433-3.343 7.683-3.941"/><path d="M82.903 75.48l.576 2.022c.159.652.296 1.313.358 1.981.09.976-.276 1.252-.277 1.252l-1.785-5.095 1.128-.16zm-1.981-6.286l-1.348.163-3.17-9.048.543-1.009a105.01 105.01 0 0 1 3.974 9.894"/></g><path d="M59.89 91.123l-.233.173-13.606 10.43-.268.214-6.596 5.328-3.433 2.767c-1.234.986-1.999 2.017-3.741 1.487-1.555-.473-3.108-1.549-4.129-2.773-.838-1.005-1.393-2.181-1.668-3.446-.298-1.365-.838-3.065.602-3.957l1.859-1.216L53.94 83.249l5.95 7.874" fill="#e29530"/><path d="M30.887 103.333c-1.031.741-1.251 2.157-.492 3.162a2.36 2.36 0 0 0 3.243.48c1.031-.741 1.251-2.157.492-3.163a2.36 2.36 0 0 0-3.243-.479" fill="#fff"/><path d="M60.13 87.978c-.318 0-.632-.142-.835-.411l-1.812-2.398c-.34-.449-.242-1.081.219-1.412 2.947-2.117 12.726-9.175 13.327-10.075.532-.797 1.097-1.572 1.657-2.35.32-.445 1.37-2.477 1.87-2.616.054-.015.107-.022.159-.022 1.016 0 1.509 2.792 1.748 3.47l1.448 4.254c.147.444-.177.901-.655.925-1.056.054-2.775.271-4.051 1.075-1.646 1.037-9.778 7.295-12.433 9.344-.191.147-.417.218-.642.218z" fill="#526879"/><path d="M31.012 103.469a2.12 2.12 0 0 0-.468 3.009c.722.956 2.106 1.16 3.086.456a2.12 2.12 0 0 0 .468-3.009 2.25 2.25 0 0 0-3.086-.456zm-.155-.204c1.095-.787 2.643-.558 3.451.51a2.37 2.37 0 0 1-.523 3.364c-1.095.787-2.644.558-3.451-.51a2.37 2.37 0 0 1 .523-3.364z" class="B"/><path d="M46.951 92.219l1.283 1.009 1.45-.157.192.278-.346.239 1.244.2.673.742-.314 1.269-1.097.839-1.282-.439-1.052-1.182-1.819-1.308 1.068-1.491" class="D"/><path d="M48.314 91.948L36.706 80.693c-.401-.388-.651-1.224-.907-1.707l-1.83-3.443c-.417-.785-.952-2.482-1.755-2.953-1.309-.768-3.177.729-3.818 1.745-1.967 3.118.207 6.226 1.407 9.223l1.486 2.359 14.94 9.178 2.084-3.146" class="E"/><g class="F"><path d="M26.632 60.102c.05 1.395.643 2.726 1.451 3.855.417-.099.802-.304 1.18-.51 1.698-.927 3.373-1.937 4.791-3.264s2.577-3.129 3.137-4.613c-1.208-.907-3.093-1.355-4.651-1.264-2.843.166-6.017 2.736-5.908 5.796"/><path d="M39.007 52.055c.532-.2 1.184-.349 1.63-.004.529.41.409 1.218.17 1.833-.805 2.072-2.424 3.833-4.449 4.838-.878.436-2.537.8-2.936-.466-.213-.676.296-1.954.608-2.591.852-1.741 3.231-2.953 4.977-3.61m89.042 32.539l-1.419.007.15-2.225.378-3.317a12.29 12.29 0 0 1 2.177-4.819 1.72 1.72 0 0 0-2.202-.208c-.473.354-.709.926-.905 1.476a26.78 26.78 0 0 0-1.416 6.298c-.083.822-.286 1.91-.205 2.806l-4.83.025.185-2.751.378-3.318a12.21 12.21 0 0 1 1.119-3.13c.483-.931.978-2.092 1.895-2.628a6.33 6.33 0 0 0-2.351.352c-.88.31-1.299 1.031-1.593 1.855-.725 2.035-1.2 4.154-1.416 6.298-.098.974-.367 2.322-.128 3.282l.011.049-1.238.006-4.023 15.693h17.065l-1.632-15.751"/></g><path d="M102.434 85.868l-2.696-1.13.462-1.132 2.028.38-.04-.631 2.183 1.238-.315 1.238-1.622.038z" class="D"/><path d="M129.154 77.968a2.65 2.65 0 0 0-.708-.249c-1.105-.23-2.278.062-3.276.586-1.58.829-2.903 2.148-4.377 3.145l-5.057 3.422-11.956-.937-.495 2.486 14.208 3.816 6.519-4.688c2.017-1.324 4.469-2.345 5.749-4.458.723-1.193.521-2.523-.607-3.123z" class="E"/><path d="M122.681 65.179c-.397-.613-.698-1.339-1.144-1.845-.541-.614-1.464-.933-1.733-1.698-.328-.932.258-1.998 1.141-2.38.532-.23 1.13-.273 1.712-.243.288.015.58.049.847.157.501.202.876.675.951 1.199.054.375-.034.774.117 1.124.501 1.163 1.922 1.323 3.001 1.595 1.102.278 2.125.324 3.075 1.03 1.474 1.095 2 3.177 1.4 4.886s-2.196 2.998-3.988 3.456c-1.007.257-.164-.486.089-.724.504-.475.938-1.061 1.168-1.71.298-.841.207-1.856-.411-2.512-.545-.579-1.38-.787-2.169-.95-.497-.103-1.043-.275-1.553-.269-.357.005-.65.093-1.015.025-.692-.128-1.129-.59-1.488-1.142" fill="#534741"/><g class="F"><path d="M132.661 73.343c.339.328.784.658 1.248.549.315-.074.552-.346.658-.645s.101-.624.077-.939c-.151-1.945-1.014-3.83-2.4-5.236-.265-.269-.601-.539-.981-.494-.529.062-.882.758-1.099 1.173-.169.324.477.749.632 1.09.187.414.238.891.115 1.33-.105.371-.136.695.053 1.059.404.779 1.067 1.504 1.697 2.115"/><path d="M127.349 64.352c.602.575 1.188 1.17 1.693 1.828.976 1.272 1.456 2.713 2.193 4.102.394.742.876.198 1.352-.281.483-.486.857-1.076 1.075-1.718.376-1.102.292-2.345-.228-3.39-.426-.856-1.116-1.557-1.795-2.241-.897-.905-2.388-1.325-3.677-1.301-.6.011-2.219.234-2.474.904-.231.609 1.457 1.709 1.861 2.096"/></g></svg>