<svg xmlns="http://www.w3.org/2000/svg" xmlns:xlink="http://www.w3.org/1999/xlink" width="160" height="156" viewBox="0 0 211 155" fill="none" xmlns:v="https://vecta.io/nano"><style><![CDATA[.B{fill:#1d2a30}.C{fill:#4870c0}.D{fill:#f47272}.E{fill:#eee}.F{fill:#fff}.G{fill:#100f0d}.H{fill:#ce6858}.I{fill:#f8f8f9}.J{fill:#a1bce6}.K{fill:#e9e9e8}.L{fill:#ebf3fb}.M{fill:#8e989b}.N{fill:#16191b}.O{fill:#f4f4f4}.P{fill:#e3e3e2}.Q{fill:#fcfdfd}.R{fill:#d4e1f5}.S{fill:#e4eef9}.T{fill:#395eb4}]]></style><g clip-path="url(#A)"><g class="E"><path d="M175.881 144.399h13.977v.105h-13.977v-.105zm-39.775 1.14h3.669v.106h-3.669v-.106zm31.253-5.043h8.099v.105h-8.099v-.105zm-145.221.706h18.227v.105H22.138v-.105zm21.985 0h2.673v.105h-2.673v-.105zm11.358 1.775h39.531v.105H55.481v-.105zM18.532.104c-1.27 0-2.303 1.029-2.303 2.294v114.09c0 1.266 1.033 2.295 2.303 2.295h81.488a2.3 2.3 0 0 0 2.302-2.295V2.398A2.3 2.3 0 0 0 100.02.104H18.532zm81.488 118.784H18.532c-1.328 0-2.409-1.076-2.409-2.4V2.398c0-1.323 1.081-2.399 2.409-2.399h81.488c1.327 0 2.408 1.076 2.408 2.399v114.09c0 1.324-1.081 2.4-2.408 2.4zM109.81.104c-1.27 0-2.303 1.029-2.303 2.294v114.09c0 1.266 1.033 2.295 2.303 2.295h81.487c1.27 0 2.304-1.029 2.304-2.295V2.398c0-1.265-1.034-2.294-2.304-2.294H109.81zm81.487 118.784H109.81c-1.328 0-2.409-1.076-2.409-2.4V2.398c0-1.323 1.081-2.399 2.409-2.399h81.487c1.329 0 2.409 1.076 2.409 2.399v114.09c0 1.324-1.08 2.4-2.409 2.4zM211 137.739H0v-.105h211v.105z"/></g><path d="M69.288 138.124h-1.626a.5.5 0 0 1-.5-.499V99.641h2.627v37.984a.5.5 0 0 1-.501.499z" class="O"/><g class="K"><path d="M148.482 99.641h-22.769V96.22h22.769v3.421zm-62.919 38.483h-1.626a.5.5 0 0 1-.501-.499V99.641h2.627v37.984a.5.5 0 0 1-.501.499z"/><path d="M146.463 138.124h-1.626a.5.5 0 0 1-.5-.499V99.641h2.627v37.984a.5.5 0 0 1-.501.499z"/></g><path d="M132.207 99.641H65.643V96.22h66.564v3.421z" class="I"/><path d="M130.188 138.124h-1.626a.5.5 0 0 1-.5-.499V99.641h2.626v37.984a.5.5 0 0 1-.5.499z" class="O"/><path d="M171.444 137.593h1.113v-69.47h-1.113v69.47z" class="E"/><path d="M184.492 60.934c0 3.546-2.527 6.639-6.277 8.288h-12.428c-3.75-1.649-6.277-4.742-6.277-8.288s2.527-6.638 6.277-8.287h12.428c3.75 1.649 6.277 4.741 6.277 8.287z" class="O"/><g class="P"><path d="M165.947 68.95c-3.211-1.503-6.12-4.236-6.12-8.015 0-3.772 2.912-6.514 6.12-8.015.369-.172.047-.716-.319-.544-3.412 1.597-6.434 4.568-6.434 8.56s3.021 6.963 6.434 8.559c.366.172.688-.372.319-.544zm2.723-16.526c-4.404 4.189-4.404 12.831 0 17.02.295.28.743-.165.447-.446-4.155-3.952-4.156-12.176 0-16.129.296-.281-.152-.726-.447-.445zm3.015.223v16.575c0 .405.633.406.633 0V52.647c0-.406-.633-.407-.633 0zm3.2.223c4.155 3.952 4.156 12.176 0 16.129-.296.281.153.726.447.446 4.404-4.189 4.404-12.832 0-17.02-.294-.28-.743.165-.447.446zm3.171.049c3.211 1.503 6.12 4.236 6.12 8.015 0 3.772-2.912 6.514-6.12 8.015-.369.172-.047.716.319.544 3.412-1.596 6.434-4.568 6.434-8.559s-3.021-6.962-6.434-8.56c-.366-.171-.688.372-.319.544z"/></g><g class="E"><path d="M164.173 138.124h15.656c0-1.052-.856-1.904-1.911-1.904h-11.834c-1.056 0-1.911.852-1.911 1.904zm-115.988-30.88c.035.05-.23.338.709.313 2.314-.059 6.385-.487 7.777-2.68 1.987-3.13-3.041-2.519-2.661-4.197s5.892-.697 6.791-3.117-3.012-1.698-2.911-2.919 4.344.069 5.54-2.514-2.328-1.008-1.812-2.08 4.814-5.676 2.891-6.51-5.932 3.941-7.321 4.516c-.63.261-1.102-.496-1.596-1.253-.595-.913-1.221-1.826-2.188-.953-1.769 1.597-.096 8.158-2.22 9.128-.858.393-1.037-.147-1.341-.686-.256-.454-.6-.909-1.513-.805-2.713.306-2.98 9.68-.144 13.756z"/></g><path d="M56.888 94.535c-.903-.036-1.586.064-2.013.159.946-1.069 1.596-1.597 1.62-1.616.073-.058.086-.164.028-.237s-.165-.085-.238-.028c-.018.014-1.516 1.213-3.302 3.698-.18-4.376 2.089-7.902 2.113-7.938.038-.059.022-.137-.037-.175s-.138-.022-.176.037c-.025.038-2.447 3.8-2.135 8.408l-.874 1.334c-.85 1.382-1.783 3.173-2.617 5.367-.298-.737-.947-2.694-.704-5.284.007-.07-.045-.132-.115-.138s-.132.045-.139.114c-.281 2.997.614 5.181.826 5.649-1.122 3.049-2.042 6.859-2.293 11.449-.005.094.067.173.16.178h.022a.17.17 0 0 0 .157-.159c.333-6.078 1.841-10.811 3.55-14.324.363-.327 1.42-1.151 2.877-1.195.067-.008.125-.061.123-.131s-.061-.125-.131-.122c-1.153.038-2.053.519-2.601.91 1.241-2.435 2.557-4.24 3.594-5.458.297-.092 1.101-.294 2.297-.246.07 0 .13-.051.132-.121s-.051-.129-.122-.132z" class="P"/><g class="K"><path d="M41.885 108.791c-2.612.049-7.073-2.367-8.824-4.717-1.777-2.385 3.222-.905 2.709-2.778s-6.677-.489-7.814-3.171 3.309-2.065 3.133-3.437-4.783-1.093-6.262-3.944 2.573-1.253 1.938-2.435-5.715-6.155-3.59-7.192 6.887 4.143 8.482 4.722c.702.255 1.167-.296 1.645-.846.608-.7 1.236-1.401 2.399-.442 2.076 1.712.522 9.191 2.965 10.178.896.362 1.163-.285 1.454-.931.3-.667.624-1.333 1.688-.895 3.668 1.513 1.139 15.868.078 15.888z"/><path d="M41.805 108.792c-2.622 0-7.01-2.391-8.744-4.718-.271-.363-.384-.637-.384-.846.002-1.099 3.133-.432 3.13-1.681 0-.076-.012-.16-.037-.251-.513-1.872-6.676-.489-7.814-3.171-.129-.304-.186-.565-.186-.792-.003-1.737 3.324-1.443 3.324-2.566a.6.6 0 0 0-.005-.078c-.176-1.371-4.783-1.093-6.262-3.944-.231-.445-.327-.782-.327-1.038 0-1.26 2.33-.554 2.333-1.177 0-.06-.021-.132-.068-.22-.528-.98-4.109-4.566-4.106-6.355.001-.368.154-.661.517-.838a1.44 1.44 0 0 1 .638-.137c2.324 0 6.394 4.333 7.845 4.859.122.044.236.064.345.064.519 0 .905-.455 1.3-.91s.799-.91 1.352-.91c.298 0 .64.132 1.047.468 2.076 1.712.522 9.191 2.965 10.178a1.26 1.26 0 0 0 .466.104c.538 0 .755-.518.988-1.035s.48-1.035 1.077-1.035c.172 0 .373.043.61.141 1.374.567 1.878 2.937 1.916 5.68-.096-.079-.186-.187-.284-.294-.191-.209-.414-.418-.775-.418a1.27 1.27 0 0 0-.432.085c-1.465.531-.869 4.834.786 7.735-.373 1.823-.818 3.094-1.133 3.1l-.08.001z"/></g><path d="M41.022 105.669c.038-.014.072-.038.092-.076.061-.115 1.492-2.874 1.171-6.973-.008-.095-.089-.166-.188-.16s-.168.091-.16.187c.271 3.461-.766 5.995-1.057 6.628-1.169-3.162-2.57-5.974-3.977-8.381.462-5.586-2.412-10.159-2.441-10.205-.052-.081-.159-.105-.241-.053s-.105.159-.054.24c.028.044 2.667 4.249 2.421 9.48-3.347-5.584-6.615-8.829-6.68-8.892-.092-.089-.239-.089-.329.003s-.089.238.003.328c.055.053 2.378 2.365 5.097 6.419-1.593-.59-3.322-.897-4.937-.866-.096.002-.173.082-.171.178s.079.17.174.17h.003c1.73-.031 3.592.33 5.266 1.021.935 1.428 1.906 3.06 2.842 4.868-.898-.605-2.642-1.441-4.872-.855-.093.024-.149.119-.124.212s.12.15.213.124c2.829-.744 4.823.94 5.15 1.24 2.561 5.137 4.77 11.63 5.062 19.072.005.125.108.223.233.223h.009c.129-.005.229-.113.224-.241-.198-5.036-1.269-9.638-2.729-13.692z" class="I"/><path d="M49.65 138.124c2.023-5.743 3.353-14.041 3.353-17.679 0-3.074-.955-5.833-2.471-7.765H40.169c-1.516 1.932-2.471 4.691-2.471 7.765 0 3.638 1.33 11.936 3.353 17.679h8.599z" class="K"/><path d="M44.429 107.511c.033.029-.103.272.544.099 1.593-.425 4.342-1.396 4.94-3.145.854-2.499-2.528-1.242-2.545-2.467s3.966-1.46 4.185-3.286-2.371-.677-2.505-1.54 3.021-.673 3.418-2.66c.236-1.181-.437-1.069-.985-.957-.374.077-.69.153-.618-.183.179-.828 2.387-4.731.915-4.99s-3.452 3.714-4.318 4.343c-.391.284-.843-.157-1.309-.598-.567-.536-1.156-1.072-1.682-.303-.959 1.4 1.297 5.668-.012 6.692-.515.403-.732.088-1.02-.227-.257-.282-.572-.563-1.207-.333-1.828.662-.447 7.201 2.199 9.555z" class="I"/><path d="M48.336 97.262c-.632.125-1.087.307-1.368.444.476-.898.839-1.371.852-1.388a.12.12 0 0 0-.021-.169c-.052-.041-.128-.031-.17.02-.01.013-.847 1.092-1.669 3.11-.856-3.002.127-5.822.138-5.851.017-.047-.008-.099-.055-.116s-.099.008-.116.055c-.011.031-1.061 3.039-.075 6.18l-.383 1.069c-.358 1.099-.705 2.495-.917 4.153-.329-.461-1.106-1.71-1.371-3.544-.007-.05-.053-.084-.103-.076s-.084.052-.077.102c.306 2.123 1.291 3.488 1.516 3.777-.268 2.298-.268 5.09.324 8.313a.12.12 0 0 0 .141.096l.015-.003c.057-.018.093-.076.082-.137-.785-4.266-.53-7.796.066-10.513.197-.287.791-1.032 1.794-1.305.045-.016.076-.063.063-.111s-.063-.076-.111-.063c-.792.218-1.336.701-1.65 1.062.453-1.893 1.064-3.361 1.578-4.377.19-.112.714-.386 1.551-.551.048-.012.081-.057.071-.106s-.057-.081-.107-.071z" class="P"/><path d="M100.094 138.124H72.721v-36.28h27.373v36.28z" class="I"/><path d="M105.316 138.124h-5.222v-36.28h5.222v36.28z" class="K"/><path d="M98.318 113.346h-23.68v-8.81h23.68v8.81z" class="Q"/><path d="M83.391 104.536l.103 1.174c.034.387.36.685.75.685h4.468c.391 0 .716-.298.75-.685l.103-1.174h-6.175z" class="E"/><path d="M98.318 123.119h-23.68v-8.81h23.68v8.81z" class="Q"/><use xlink:href="#B" class="E"/><path d="M98.318 132.892h-23.68v-8.811h23.68v8.811z" class="Q"/><path d="M83.391 124.081l.103 1.175a.75.75 0 0 0 .75.684h4.468a.75.75 0 0 0 .75-.684l.103-1.175h-6.175z" class="E"/><path d="M185.286 150.24c0 2.629-36.633 4.76-81.821 4.76s-81.821-2.131-81.821-4.76 36.633-4.759 81.821-4.759 81.821 2.131 81.821 4.759z" class="I"/><path d="M160.644 95.234H52.371c-.904 0-1.637-.73-1.637-1.631V14.875c0-.9.733-1.631 1.637-1.631h108.273c.904 0 1.637.731 1.637 1.631v78.729c0 .901-.733 1.631-1.637 1.631z" class="C"/><path d="M146.192 95.234H72.469v-81.99H52.821c-1.153 0-2.087.931-2.087 2.079v45.763-46.212c0-.9.733-1.631 1.637-1.631h108.273c.904 0 1.637.731 1.637 1.631v33.252a5.11 5.11 0 0 0-1.077-.113c-1.156 0-2.103.383-2.126.764-.008.13-.002.259.011.391-2.453 1.145-3.891 4.566-4.15 7.021-.203 1.917.957 3.194 2.535 3.767-.069.559-.093 1.163-.235 1.667-.471.141-.842.338-1.124.532-1.003 0-1.977.108-2.857.353a6.85 6.85 0 0 0-3.091-1.277l-.155-1.765a.73.73 0 0 0-.715-.655h-.422-7.336a.59.59 0 0 0-.6.655l.956 10.88a.73.73 0 0 0 .714.654h.422 5.585l-.091.939c-1.646.15-3.124.877-4.229 1.977l.005.005c-1.247 1.24-2.019 2.954-2.019 4.848h6.158c0 .054.007.106.019.156l-.049 1.925a16.37 16.37 0 0 1-.28 1.9c-1.488.222-2.819.919-3.834 1.93l.005.005c-1.247 1.24-2.019 2.954-2.019 4.847h4.251c-.272 1.634-.429 3.533-.341 5.701zm-36.974-5.979h28.208V74.519h-1.712l-4.131 3.821-4.13 4.194-4.131-4.457-4.131 6.722-4.131-5.699-3.931 3.706-1.911 6.451zm-12.254 0h3.422V78.339h-3.422v10.916zm-8.262 0h3.422v-11.18h-3.422v11.18zm-8.262 0h3.423V79.098H80.44v10.157zm29.043-19.102c0 .305.248.553.555.553h13.82c.307 0 .555-.248.555-.553s-.248-.552-.555-.552h-13.82c-.307 0-.555.247-.555.552zm-33.174 0c0 .305.249.553.555.553h10.054c.306 0 .555-.248.555-.553s-.248-.552-.555-.552H76.864c-.306 0-.555.247-.555.552zm33.174-1.992c0 .305.248.552.555.552h12.408c.306 0 .554-.247.554-.552s-.248-.553-.554-.553h-12.408c-.307 0-.555.248-.555.553zm-33.174 0c0 .305.249.552.555.552h14.56c.306 0 .555-.247.555-.552s-.248-.553-.555-.553h-14.56c-.306 0-.555.248-.555.553zm33.174-1.993c0 .305.248.553.555.553h17.166c.306 0 .554-.248.554-.553s-.248-.552-.554-.552h-17.166c-.307 0-.555.247-.555.552zm-33.174 0c0 .305.249.553.555.553h17.166c.306 0 .554-.248.554-.553s-.248-.552-.554-.552H76.864c-.306 0-.555.247-.555.552zm71.444-40.598c-.51 0-.925.412-.925.921v24.107c0 .509.415.921.925.921h7.553c.511 0 .925-.413.925-.921V26.491c0-.509-.414-.921-.925-.921h-7.553zm-11.753 0c-.511 0-.925.412-.925.921v24.107c0 .509.414.921.925.921h7.553c.511 0 .925-.413.925-.921V26.491c0-.509-.414-.921-.925-.921H136zm-11.753 0c-.511 0-.925.412-.925.921v24.107c0 .509.414.921.925.921h7.552c.512 0 .925-.413.925-.921V26.491c0-.509-.413-.921-.925-.921h-7.552zm-11.753 0c-.511 0-.925.412-.925.921v24.107c0 .509.414.921.925.921h7.552c.511 0 .925-.413.925-.921V26.491c0-.509-.414-.921-.925-.921h-7.552zm-11.753 0c-.511 0-.925.412-.925.921v24.107c0 .509.414.921.925.921h7.552c.511 0 .925-.413.925-.921V26.491c0-.509-.414-.921-.925-.921h-7.552zm-11.753 0c-.511 0-.925.412-.925.921v24.107c0 .509.414.921.925.921h7.552c.511 0 .925-.413.925-.921V26.491c0-.509-.414-.921-.925-.921h-7.552zm-11.753 0c-.511 0-.925.412-.925.921v24.107c0 .509.414.921.925.921h7.553c.511 0 .925-.413.925-.921V26.491c0-.509-.414-.921-.925-.921h-7.553zM51.487 94.976c-.454-.29-.754-.797-.754-1.373V77.812v15.343a2.07 2.07 0 0 0 .755 1.6l-.001.221zm110.794-12.291v-.78.78zm0-19.416l-.36-.124c-.027-.388-.222-.944-1.029-1.322-.044-.447-.011-.997.156-1.669.465-.019.867-.151 1.233-.378v3.493z" fill="#b4caec"/><path d="M72.469 95.234h-.961l.378-10.511c.006-.184-.057-.354-.166-.482.463-1.813 1.574-7.616-.669-15.279l-.02-.069h0c-.003-.009-.005-.018-.008-.027l-1.46-4.877h0l-1.245-4.154a2.24 2.24 0 0 0-1.612-1.535c-1.01-.248-2.556-.515-4.366-.616-.252-.615-1.042-1.113-2.141-1.317a9.89 9.89 0 0 0-.055-.407c.635-.263 1.201-.632 1.647-1.102h7.538a.65.65 0 0 0 .65-.646v-3.235a.65.65 0 0 0-.65-.647h-6.787a13.41 13.41 0 0 0-.752-2.252 3.19 3.19 0 0 0 3.014-3.179c0-1.759-1.432-3.184-3.197-3.184-1.455 0-2.682.967-3.07 2.291a4.76 4.76 0 0 0-2.23-.696c-.086-.004-.173-.007-.258-.007-2.641 0-4.845 2.063-4.981 4.719a4.96 4.96 0 0 0 .413 2.247c.691 1.625 1.172 2.803 1.753 3.717v.226a.65.65 0 0 0 .649.646h.012c.432.471.946.862 1.618 1.219.111.372.193.718.249 1.038-.629.453-.75.97-.757 1.277-.962.272-1.907.63-2.808 1.094-.237.122-.427.308-.552.53-.237.074-.45.236-.582.473l-.329.596V15.323c0-1.148.934-2.079 2.087-2.079h19.649v81.99zm-18.587-62.43a.65.65 0 0 0-.649.647v3.234a.65.65 0 0 0 .649.647h15.447a.65.65 0 0 0 .65-.647v-3.234a.65.65 0 0 0-.65-.647H53.882zm-2.394 61.951a2.07 2.07 0 0 1-.755-1.6V77.812c.663.129 1.336.225 1.981.297l.439 6.141c-.187.154-.325.374-.381.633-.967 4.457-1.263 7.661-1.283 9.873zm.87-21.63l-.833-.429.702-1.403.131 1.832z" fill="#ccdcf3"/><path d="M160.194 13.244H52.821c-1.153 0-2.087.931-2.087 2.079v5.423h111.548v-5.423c0-1.148-.934-2.079-2.087-2.079z" class="B"/><g class="F"><use xlink:href="#C"/><path d="M54.377 17.359c-.201 0-.365-.163-.365-.364s.163-.363.365-.363h2.876c.201 0 .365.163.365.363s-.163.364-.365.364h-2.876zm0 1.453c-.201 0-.365-.162-.365-.363s.163-.363.365-.363h2.876c.201 0 .365.163.365.363s-.163.363-.365.363h-2.876z"/></g><use xlink:href="#D" class="L"/><path d="M96.54 51.519h-7.553c-.511 0-.925-.413-.925-.921V26.491c0-.509.414-.921.925-.921h7.553c.511 0 .925.412.925.921v24.107c0 .509-.414.921-.925.921z" class="R"/><use xlink:href="#E" class="L"/><path d="M120.046 51.519h-7.552c-.511 0-.925-.413-.925-.921V26.491c0-.509.414-.921.925-.921h7.552c.511 0 .925.412.925.921v24.107c0 .509-.414.921-.925.921z" class="R"/><use xlink:href="#F" class="L"/><path d="M143.553 51.519H136c-.511 0-.925-.413-.925-.921V26.491c0-.509.414-.921.925-.921h7.553c.511 0 .925.412.925.921v24.107c0 .509-.414.921-.925.921z" class="R"/><path d="M155.306 51.519h-7.553c-.51 0-.925-.413-.925-.921V26.491c0-.509.415-.921.925-.921h7.553c.511 0 .925.412.925.921v24.107c0 .509-.414.921-.925.921z" class="L"/><g class="G"><path d="M100.832 67.43h-.335v.43h-.464v-.43h-1.108v-.319l.97-1.3h.499l-.899 1.232h.552v-.383h.45v.383h.335v.386z"/><path d="M102.314 66.754a.57.57 0 0 1 .207.463.64.64 0 0 1-.094.341c-.063.103-.158.184-.286.246s-.287.092-.475.092a1.61 1.61 0 0 1-.427-.057 1.08 1.08 0 0 1-.357-.162l.188-.363a.89.89 0 0 0 .27.137c.102.032.207.048.314.048.12 0 .214-.023.282-.07s.103-.113.103-.197-.035-.154-.107-.199-.195-.067-.371-.067h-.527l.106-1.153h1.255v.38h-.858l-.033.389h.168c.29 0 .504.058.642.172z"/><path d="M104.714 67.561c.039-.055.058-.136.058-.241a.42.42 0 0 0-.058-.242.18.18 0 0 0-.157-.084c-.065 0-.116.028-.156.082s-.058.136-.058.243.019.188.058.243.091.082.156.082a.18.18 0 0 0 .157-.083zm-.42.255c-.077-.046-.137-.112-.181-.198s-.064-.185-.064-.298a.66.66 0 0 1 .064-.299c.044-.086.104-.152.181-.197s.165-.069.263-.069a.48.48 0 0 1 .369.154c.095.103.142.24.142.412a.58.58 0 0 1-.142.411.48.48 0 0 1-.369.153c-.098 0-.186-.023-.263-.069zm.093-2.003h.349l-1.404 2.049h-.35l1.405-2.049zm-1.068.784c.038-.054.057-.135.057-.243s-.019-.188-.057-.243-.091-.082-.158-.082-.116.028-.155.083-.059.136-.059.242.019.186.059.242.091.083.155.083.119-.027.158-.082zm-.526.169c-.095-.103-.143-.24-.143-.411a.58.58 0 0 1 .143-.411.48.48 0 0 1 .368-.153c.151 0 .274.051.368.153s.141.24.141.411-.047.309-.141.411-.217.153-.368.153a.48.48 0 0 1-.368-.153zm29.722.694c.064-.055.095-.129.095-.222a.28.28 0 0 0-.095-.224c-.064-.056-.149-.084-.254-.084s-.19.029-.256.086a.28.28 0 0 0-.1.222.28.28 0 0 0 .097.219c.065.057.153.085.264.085.103 0 .185-.027.249-.082zm.207-.805a.62.62 0 0 1 .255.224.6.6 0 0 1 .094.335.64.64 0 0 1-.102.36c-.069.103-.162.183-.281.239a.92.92 0 0 1-.395.083c-.288 0-.514-.088-.676-.263s-.244-.427-.244-.752c0-.232.044-.431.133-.597a.9.9 0 0 1 .368-.377 1.13 1.13 0 0 1 .548-.129 1.34 1.34 0 0 1 .316.037.86.86 0 0 1 .257.104l-.176.349c-.102-.069-.231-.103-.385-.103a.56.56 0 0 0-.414.152c-.103.102-.157.249-.165.442.121-.121.291-.181.508-.181a.81.81 0 0 1 .359.079z"/><path d="M134.591 66.754c.138.115.208.269.208.463 0 .125-.032.238-.094.341s-.158.184-.287.246-.287.092-.474.092c-.145 0-.288-.019-.428-.057a1.11 1.11 0 0 1-.357-.162l.188-.363c.078.059.169.104.271.137s.206.048.314.048c.119 0 .213-.023.282-.07s.103-.113.103-.197a.22.22 0 0 0-.108-.199c-.071-.045-.195-.067-.371-.067h-.526l.105-1.153h1.255v.38h-.858l-.032.389h.168c.289 0 .503.058.641.172z"/><path d="M136.992 67.561c.039-.055.058-.136.058-.241a.42.42 0 0 0-.058-.242.18.18 0 0 0-.157-.084c-.064 0-.117.028-.156.082s-.058.136-.058.243.019.188.058.243.092.082.156.082a.18.18 0 0 0 .157-.083zm-.42.255c-.077-.046-.137-.112-.18-.198s-.065-.185-.065-.298a.66.66 0 0 1 .065-.299c.043-.086.103-.152.18-.197a.51.51 0 0 1 .263-.069.48.48 0 0 1 .369.154c.095.103.142.24.142.412a.58.58 0 0 1-.142.411.48.48 0 0 1-.369.153c-.098 0-.185-.023-.263-.069zm.093-2.003h.349l-1.404 2.049h-.35l1.405-2.049zm-1.068.784c.038-.054.057-.135.057-.243s-.019-.188-.057-.243-.091-.082-.157-.082-.117.028-.157.083-.058.136-.058.242.02.186.058.242.092.083.157.083.118-.027.157-.082zm-.526.169c-.096-.103-.142-.24-.142-.411s.046-.309.142-.411a.48.48 0 0 1 .369-.153c.15 0 .273.051.367.153s.141.24.141.411-.047.309-.141.411-.217.153-.367.153a.48.48 0 0 1-.369-.153z"/></g><g class="F"><path d="M138.643 17.829a.17.17 0 0 0 .053-.126c0-.049-.018-.089-.055-.12s-.088-.059-.157-.082v.403c.071-.015.124-.041.159-.076zm-.614-.911a.44.44 0 0 0 .161.079v-.415c-.074.018-.129.045-.164.083a.19.19 0 0 0-.053.133.15.15 0 0 0 .056.12zm.964 1.161c-.118.114-.287.185-.509.212v.328h-.294V18.3a1.62 1.62 0 0 1-.414-.076 1.02 1.02 0 0 1-.317-.158l.162-.357c.074.055.161.101.261.137s.203.061.308.071v-.489a2.2 2.2 0 0 1-.352-.111.62.62 0 0 1-.241-.18.48.48 0 0 1-.097-.315.56.56 0 0 1 .178-.417c.119-.116.289-.187.512-.212v-.325h.294v.32c.241.019.44.079.597.178l-.147.36a1.16 1.16 0 0 0-.45-.152v.497c.138.032.253.067.349.107s.175.099.239.178a.48.48 0 0 1 .097.312c0 .16-.059.297-.176.411zm1.138-1.86v2.049h-.476V16.6h-.412v-.381h.888zm1.894 1.663v.386h-1.554v-.307l.793-.746c.085-.08.141-.148.171-.206a.38.38 0 0 0 .044-.171c0-.082-.028-.145-.084-.189s-.138-.066-.245-.066c-.091 0-.172.017-.244.051a.47.47 0 0 0-.182.153l-.347-.222a.81.81 0 0 1 .332-.28 1.11 1.11 0 0 1 .485-.101 1 1 0 0 1 .401.075.62.62 0 0 1 .267.211.54.54 0 0 1 .096.32.71.71 0 0 1-.071.313c-.047.098-.138.209-.273.334l-.473.445h.884z"/><path d="M142.319 18.21c-.055-.055-.083-.123-.083-.205s.028-.151.083-.203.122-.078.202-.078.148.026.203.078.082.119.082.203-.027.151-.082.205-.122.082-.203.082a.27.27 0 0 1-.202-.082zm1.841-.469c.071-.107.107-.273.107-.498s-.036-.39-.107-.498-.17-.16-.296-.16a.33.33 0 0 0-.292.16c-.071.107-.107.273-.107.498s.035.39.107.498.169.161.292.161a.34.34 0 0 0 .296-.161zm-.751.436a.84.84 0 0 1-.313-.364c-.076-.159-.114-.348-.114-.569s.038-.41.114-.569a.85.85 0 0 1 .313-.364c.133-.084.285-.126.455-.126s.322.042.455.126a.84.84 0 0 1 .313.364 1.31 1.31 0 0 1 .114.569 1.31 1.31 0 0 1-.114.569c-.076.159-.179.281-.313.364s-.285.126-.455.126-.322-.042-.455-.126zm2.582-1.113a.28.28 0 0 0 .098-.221c0-.09-.031-.163-.095-.219s-.152-.085-.263-.085a.37.37 0 0 0-.249.082.28.28 0 0 0-.095.222c0 .093.032.169.095.224s.149.083.254.083.189-.029.255-.086zm.386-.618c.163.175.244.426.244.754a1.27 1.27 0 0 1-.13.597c-.088.166-.211.292-.37.377s-.341.129-.549.129c-.11 0-.214-.012-.314-.036a.85.85 0 0 1-.256-.104l.177-.348c.099.068.227.103.384.103.175 0 .313-.051.414-.154s.157-.25.165-.443c-.123.123-.294.184-.511.184a.81.81 0 0 1-.359-.079c-.107-.053-.193-.127-.255-.224s-.094-.208-.094-.335a.64.64 0 0 1 .102-.36.68.68 0 0 1 .281-.238c.118-.056.251-.084.395-.084.288 0 .514.088.676.262zm1.094.155c-.058.046-.086.109-.086.189a.22.22 0 0 0 .085.184c.057.045.134.068.232.068s.177-.023.235-.068a.22.22 0 0 0 .088-.184c0-.078-.029-.143-.088-.189a.37.37 0 0 0-.235-.069c-.096 0-.173.023-.231.069zm.514 1.273c.07-.054.105-.126.105-.215s-.035-.161-.105-.213-.163-.079-.283-.079-.21.027-.279.079-.103.124-.103.213.034.164.103.216a.45.45 0 0 0 .279.079.45.45 0 0 0 .283-.08zm.506-.485c.054.082.081.176.081.284a.53.53 0 0 1-.109.332.69.69 0 0 1-.306.219 1.23 1.23 0 0 1-.455.077 1.24 1.24 0 0 1-.454-.077c-.13-.051-.231-.124-.302-.219a.54.54 0 0 1-.108-.332c0-.107.027-.202.081-.284s.131-.148.23-.199a.51.51 0 0 1-.176-.177c-.041-.072-.061-.153-.061-.245a.5.5 0 0 1 .099-.31.64.64 0 0 1 .28-.203c.119-.048.256-.072.411-.072s.295.024.415.072a.63.63 0 0 1 .281.203c.067.088.1.191.1.31 0 .092-.02.173-.062.245a.49.49 0 0 1-.179.177.58.58 0 0 1 .234.199zm.395.821c-.055-.055-.083-.123-.083-.205s.028-.151.083-.203.122-.078.203-.078.147.026.203.078.082.119.082.203-.027.151-.082.205a.28.28 0 0 1-.203.082c-.08 0-.148-.027-.203-.082zm2.049-1.048a.57.57 0 0 1 .207.462c0 .125-.031.239-.094.341s-.158.184-.286.246-.287.092-.475.092a1.63 1.63 0 0 1-.427-.057 1.1 1.1 0 0 1-.357-.163l.188-.363a.9.9 0 0 0 .27.136c.102.032.207.048.315.048.119 0 .213-.023.282-.07s.102-.112.102-.196-.035-.154-.107-.199-.195-.068-.371-.068h-.527l.106-1.153h1.255v.381h-.858l-.032.389h.167c.29 0 .504.058.642.173z"/><path d="M152.513 17.741c.071-.107.107-.273.107-.498s-.036-.39-.107-.498-.17-.16-.295-.16-.221.053-.293.16-.107.273-.107.498.035.39.107.498.169.161.293.161.223-.053.295-.161zm-.751.436c-.133-.084-.237-.205-.313-.364s-.113-.348-.113-.569.038-.41.113-.569.18-.28.313-.364.285-.126.456-.126.321.042.455.126.237.206.313.364.113.349.113.569-.038.41-.113.569-.18.281-.313.364-.285.126-.455.126-.322-.042-.456-.126z"/><path d="M154.107 16.219v2.049h-.476V16.6h-.411v-.381h.887zm.426 1.991a.28.28 0 0 1-.082-.205c0-.084.028-.151.082-.203s.123-.078.203-.078.148.026.203.078.082.119.082.203-.027.151-.082.205a.28.28 0 0 1-.203.082c-.08 0-.148-.027-.203-.082zm1.841-.469c.072-.107.107-.273.107-.498s-.035-.39-.107-.498-.17-.16-.295-.16-.221.053-.293.16-.107.273-.107.498.036.39.107.498.17.161.293.161.223-.053.295-.161zm-.751.436a.85.85 0 0 1-.313-.364c-.076-.159-.113-.348-.113-.569s.038-.41.113-.569.18-.28.313-.364.285-.126.456-.126.322.042.455.126a.84.84 0 0 1 .313.364c.075.159.113.349.113.569s-.038.41-.113.569a.83.83 0 0 1-.313.364c-.134.083-.285.126-.455.126a.84.84 0 0 1-.456-.126zm2.746-.436c.071-.107.107-.273.107-.498s-.036-.39-.107-.498-.17-.16-.295-.16-.221.053-.293.16-.107.273-.107.498.035.39.107.498.169.161.293.161.223-.053.295-.161zm-.751.436a.85.85 0 0 1-.313-.364c-.076-.159-.113-.348-.113-.569s.038-.41.113-.569.18-.28.313-.364.285-.126.456-.126.322.042.455.126.237.206.313.364.113.349.113.569-.038.41-.113.569-.18.281-.313.364-.285.126-.455.126-.323-.042-.456-.126z"/></g><g class="G"><path d="M80.13 54.764v2.048h-.476v-1.668h-.411v-.38h.888zm1.398 1.659c.206 0 .37-.057.492-.171s.184-.269.184-.464-.061-.35-.184-.464-.286-.172-.492-.172h-.435v1.27h.435zm-.911-1.659h.935c.223 0 .42.042.592.127a.96.96 0 0 1 .4.358c.095.154.142.333.142.539a1 1 0 0 1-.142.538c-.095.154-.228.274-.4.358s-.369.127-.592.127h-.935v-2.048zm10.771 0v2.048h-.476v-1.668H90.5v-.38h.888zm3.596 0l-.673 2.048H93.8l-.452-1.388-.467 1.388h-.508l-.676-2.048h.493l.464 1.44.485-1.44h.441l.47 1.451.479-1.451h.455zm8.462 0v2.048h-.476v-1.668h-.411v-.38h.887zm2.359 2.049l-.003-1.23-.605 1.013h-.215l-.602-.986v1.203h-.446v-2.048h.393l.77 1.273.758-1.273h.391l.006 2.048h-.447z"/></g><path d="M118.402 58.185h-4.264c-.932 0-1.688-.753-1.688-1.681v-1.32c0-.928.756-1.681 1.688-1.681h4.264c.932 0 1.688.753 1.688 1.681v1.32c0 .929-.756 1.681-1.688 1.681z" class="C"/><g class="F"><path d="M115.487 55.798c.096.105.144.234.144.388a.62.62 0 0 1-.094.329c-.063.1-.158.181-.287.241a1.11 1.11 0 0 1-.471.091c-.146 0-.288-.019-.428-.057a1.09 1.09 0 0 1-.357-.163l.185-.363c.079.058.169.104.272.136a1.05 1.05 0 0 0 .316.048c.119 0 .213-.023.282-.069a.22.22 0 0 0 .103-.195c0-.168-.129-.251-.385-.251h-.218v-.313l.423-.477h-.875v-.38h1.44v.307l-.465.527c.181.029.319.096.415.2zm2.365 1.015l-.003-1.23-.605 1.013h-.215l-.602-.986v1.203h-.447v-2.048h.394l.77 1.273.758-1.273h.391l.006 2.048h-.447z"/></g><g class="G"><path d="M126.941 56.411a.28.28 0 0 0 .095-.222c0-.093-.032-.168-.095-.224a.37.37 0 0 0-.254-.083c-.105 0-.19.029-.256.086a.28.28 0 0 0-.1.221c0 .089.032.163.097.219s.153.085.264.085a.37.37 0 0 0 .249-.082zm.207-.805a.63.63 0 0 1 .256.224c.062.097.093.208.093.335a.64.64 0 0 1-.102.36c-.069.103-.163.183-.281.238s-.25.084-.395.084c-.288 0-.514-.088-.676-.264s-.244-.427-.244-.752c0-.232.044-.431.133-.597a.89.89 0 0 1 .368-.378 1.13 1.13 0 0 1 .548-.129 1.36 1.36 0 0 1 .316.036c.101.024.187.059.257.104l-.176.348a.68.68 0 0 0-.385-.102.56.56 0 0 0-.414.152c-.103.102-.157.249-.165.442.122-.121.291-.182.508-.182a.81.81 0 0 1 .359.079zm2.524 1.207l-.003-1.23-.605 1.013h-.215l-.602-.986v1.203h-.447v-2.048h.394l.77 1.273.757-1.273h.391l.006 2.048h-.446zm9.443-2.049v2.048h-.476v-1.668h-.411v-.38h.887zm1.475 1.323v.726h-.476v-.732l-.797-1.316h.506l.549.91.55-.91h.467l-.799 1.322zm10.581-.289c.096.105.144.234.144.388a.61.61 0 0 1-.094.329.65.65 0 0 1-.286.241c-.128.061-.286.091-.472.091a1.62 1.62 0 0 1-.427-.057 1.09 1.09 0 0 1-.357-.163l.185-.363a.9.9 0 0 0 .272.136c.102.032.207.048.315.048.12 0 .214-.023.282-.069a.22.22 0 0 0 .103-.195c0-.168-.128-.251-.385-.251h-.217v-.313l.423-.477h-.876v-.38h1.44v.307l-.464.527a.69.69 0 0 1 .414.2zm1.451.289v.726h-.476v-.732l-.796-1.316h.505l.55.91.549-.91h.467l-.799 1.322z"/></g><path d="M75.135 43.91c-.048-.319.173-.617.494-.666l11.1-1.658 11.834-4.89 11.892-1.579 11.669 4.068 11.654-5.03h11.78l11.105-3.687c.308-.102.641.064.743.37s-.063.638-.371.741l-11.286 3.747h-11.727l-11.852 5.115-11.838-4.127-11.537 1.532-11.82 4.887-11.172 1.669c-.321.048-.62-.172-.668-.492z" class="C"/><path d="M86.721 46.481l-11.504-9.357c-.251-.205-.289-.573-.084-.823a.59.59 0 0 1 .827-.083l11.092 9.022 11.437-1.899 11.701-4.273 11.804-5.674 11.866-3.152 11.73 1.558 11.066-3.858a.59.59 0 0 1 .749.359h0c.107.305-.054.639-.36.746l-11.332 3.95-11.776-1.564-11.586 3.078-11.703 5.634-11.912 4.343-12.016 1.994z" class="B"/><path d="M64.802 27.373c0 1.759-1.431 3.185-3.197 3.185s-3.197-1.426-3.197-3.185a3.19 3.19 0 0 1 3.197-3.184c1.766 0 3.197 1.426 3.197 3.184z" class="C"/><path d="M69.329 37.332H53.882a.65.65 0 0 1-.65-.647v-3.234a.65.65 0 0 1 .65-.647h15.447a.65.65 0 0 1 .649.647v3.234a.65.65 0 0 1-.649.647zm-.856-1.241l-.127-.74.54-.524-.746-.108-.334-.673-.333.673-.746.108.54.524-.128.74.667-.35.668.35zm-3.1 0l-.127-.74.54-.524-.746-.108-.334-.673-.333.673-.746.108.54.524-.127.74.667-.35.667.35z" fill="#e8f0fa"/><g class="C"><use xlink:href="#G"/><use xlink:href="#H"/><path d="M61.605 35.741l-.667.35.128-.74-.54-.524.746-.108.334-.673.334.673.746.108-.54.524.127.74-.667-.35z"/></g><g fill="#fdffff"><use xlink:href="#I"/><use xlink:href="#J"/></g><path d="M64.802 44.9c0 1.759-1.431 3.184-3.197 3.184a3.19 3.19 0 0 1-3.197-3.184 3.19 3.19 0 0 1 3.197-3.184c1.766 0 3.197 1.426 3.197 3.184z" class="B"/><path d="M61.789 48.079c-.727-1.662-1.821-3.212-3.253-4.072.388-1.324 1.615-2.291 3.07-2.291 1.766 0 3.197 1.426 3.197 3.184a3.19 3.19 0 0 1-3.014 3.179z" fill="#bdc1c2"/><path d="M69.329 54.858h-7.538c.728-.768 1.135-1.806.998-3.1a11.4 11.4 0 0 0-.248-1.429h6.788a.65.65 0 0 1 .649.647v3.235a.65.65 0 0 1-.649.647zm-.856-1.241l-.127-.74.54-.524-.746-.108-.334-.673-.333.673-.746.108.54.524-.128.74.667-.35.668.35zm-3.1 0l-.127-.74.54-.524-.746-.108-.334-.673-.333.673-.746.108.54.524-.127.74.667-.35.667.35zm-11.478 1.241h-.012a.65.65 0 0 1-.65-.647v-.226a6.15 6.15 0 0 0 .662.872z" fill="#e8f0fa"/><g class="C"><path d="M55.406 53.268l-.667.35.127-.74-.54-.524.746-.108.334-.673.334.673.746.108-.54.524.127.74-.667-.35zm3.099 0l-.667.35.127-.74-.54-.524.746-.108.333-.673.334.673.746.108-.54.524.127.74-.668-.35z"/></g><g fill="#fdffff"><path d="M65.373 53.617l-.667-.35-.667.35.127-.74-.54-.524.746-.108.333-.673.334.673.746.108-.54.524.127.74zm3.101 0l-.668-.35-.667.35.128-.74-.54-.524.746-.108.333-.673.334.673.746.108-.54.524.127.74z"/></g><g class="C"><path d="M64.802 62.426a3.197 3.197 0 1 1-6.394 0 3.19 3.19 0 0 1 3.197-3.185c1.766 0 3.197 1.426 3.197 3.185zm-9.396 8.369l-.667.349.127-.74-.54-.525.746-.108.334-.673.334.673.746.108-.54.525.127.74-.667-.349zm3.099 0l-.667.349.127-.74-.54-.525.746-.108.333-.673.334.673.746.108-.54.525.127.74-.668-.349zm3.1 0l-.667.349.128-.74-.54-.525.746-.108.334-.673.334.673.746.108-.54.525.127.74-.667-.349zm3.101 0l-.667.349.127-.74-.54-.525.746-.108.333-.673.334.673.746.108-.54.525.127.74-.667-.349z"/></g><path d="M64.802 79.952a3.19 3.19 0 1 1-6.394 0c0-1.758 1.431-3.184 3.197-3.184s3.197 1.426 3.197 3.184z" class="B"/><g class="C"><path d="M55.406 88.321l-.667.35.127-.74-.54-.524.746-.108.334-.674.334.674.746.108-.54.524.127.74-.667-.35zm3.099 0l-.667.35.127-.74-.54-.524.746-.108.333-.674.334.674.746.108-.54.524.127.74-.668-.35zm3.1 0l-.667.35.128-.74-.54-.524.746-.108.334-.674v1.696zm18.127.934h-3.423v-6.451h3.423v6.451zm8.262 0h-3.423v-8.916h3.423v8.916zm8.261 0h-3.422V75.811h3.422v13.444z"/></g><g class="B"><path d="M80.44 89.255h3.423V79.098H80.44v10.157zm8.262 0h3.422v-11.18h-3.422v11.18zm8.262 0h3.422V78.34h-3.422v10.916z"/></g><g fill="#a5adad"><path d="M80.44 89.255h3.423V79.098H80.44v10.157zm8.262 0h3.422v-11.18h-3.422v11.18zm8.262 0h3.422V78.34h-3.422v10.916z"/></g><g class="C"><path d="M104.518 89.255h-3.423V74.519h3.423v14.737zm32.908 0h-28.208l1.91-6.451 3.932-3.706 4.131 5.699 4.13-6.722 4.131 4.458 4.131-4.194 4.131-3.821h1.712v14.737z"/></g><path d="M137.426 89.255h-28.208l1.91-4.308 3.932-3.17 4.131 3.02 4.13-3.507 4.131 1.243 4.131-.978 4.131-1.678 1.712-5.359v14.737z" fill="#dbe8f7"/><path d="M149.158 68.007h6.876c0-3.782-3.078-6.849-6.876-6.849s-6.876 3.066-6.876 6.849h6.876z" class="C"/><path d="M153.259 62.509a6.86 6.86 0 0 0-3.092-1.277 6.86 6.86 0 0 1 3.092 1.277z" class="J"/><path d="M150.43 64.228l-.263-2.996c1.147.168 2.202.618 3.092 1.277-1.143.318-2.13.868-2.829 1.719z" class="S"/><path d="M144.296 63.155l4.862 4.843v-6.848c-1.899 0-3.618.767-4.862 2.006z" class="C"/><path d="M152.95 64.722l-.494-.493-3.111 3.091c-.061-.017-.121-.038-.187-.038-.397 0-.719.321-.719.715s.322.716.719.716.718-.32.718-.716c0-.065-.02-.124-.037-.184l3.111-3.09z" class="G"/><path d="M149.158 78.77h6.876c0-3.782-3.078-6.849-6.876-6.849s-6.876 3.067-6.876 6.849h6.876z" class="C"/><path d="M142.282 78.77c0-1.894.772-3.608 2.019-4.848-1.247 1.24-2.019 2.954-2.019 4.848z" class="J"/><path d="M148.44 78.77h-6.158c0-1.894.772-3.608 2.019-4.848l4.14 4.123.013.575a.7.7 0 0 0-.014.139z" class="S"/><path d="M144.296 73.918l4.862 4.843v-6.848c-1.899 0-3.618.767-4.862 2.006z" class="C"/><path d="M148.44 78.046l-4.144-4.129c1.104-1.1 2.583-1.828 4.229-1.977-.163 1.955-.144 3.665-.109 5.147l.014.539.01.419z" class="J"/><path d="M149.508 78.148v-3.981h-.7v3.981c-.216.123-.369.346-.369.612a.72.72 0 0 0 .719.716c.397 0 .718-.321.718-.716 0-.266-.152-.489-.368-.612z" class="G"/><path d="M149.158 89.533h6.876c0-3.782-3.078-6.848-6.876-6.848s-6.876 3.066-6.876 6.848h6.876z" class="C"/><path d="M142.282 89.533c0-1.894.772-3.608 2.019-4.847-1.247 1.239-2.019 2.954-2.019 4.847z" class="J"/><path d="M146.533 89.533h-4.251c0-1.894.772-3.608 2.019-4.847l2.123 2.115-.259.303.823.273-.455 2.156z" class="S"/><path d="M144.296 84.68l4.862 4.843v-6.849a6.87 6.87 0 0 0-4.862 2.006z" class="C"/><path d="M146.424 86.8l-2.128-2.12a6.87 6.87 0 0 1 3.833-1.93c-.471 2.228-1.289 3.51-1.705 4.049z" class="J"/><path d="M152.95 86.248l-.494-.493-3.111 3.091c-.061-.016-.121-.037-.187-.037-.397 0-.719.32-.719.715a.72.72 0 0 0 .719.716c.397 0 .718-.321.718-.716 0-.065-.02-.124-.037-.184l3.111-3.091z" class="G"/><path d="M158.508 20.136l-4.621.05c-.635.007-1.144.525-1.137 1.158l.042 3.851a1.15 1.15 0 0 0 1.159 1.133l1.336-.01.578.89a.49.49 0 0 0 .827-.014l.55-.913 1.329-.01c.637-.005 1.148-.524 1.141-1.158l-.042-3.843c-.006-.633-.527-1.14-1.162-1.133z" class="C"/><g class="F"><path d="M154.804 23.842c.046-.04.069-.094.069-.163s-.023-.123-.069-.164-.109-.061-.187-.061-.138.021-.187.064-.073.096-.073.161.023.119.071.161.112.062.194.062c.074 0 .135-.02.182-.06zm.151-.589a.45.45 0 0 1 .187.164.44.44 0 0 1 .069.245.47.47 0 0 1-.075.264.48.48 0 0 1-.206.174.67.67 0 0 1-.289.061c-.211 0-.376-.064-.495-.193s-.179-.312-.179-.551a.93.93 0 0 1 .097-.438c.064-.122.155-.213.27-.276s.249-.095.402-.095a.97.97 0 0 1 .231.027.61.61 0 0 1 .188.076l-.129.255c-.074-.05-.168-.075-.282-.075-.128 0-.229.037-.303.112a.47.47 0 0 0-.121.323c.089-.089.213-.133.373-.133a.58.58 0 0 1 .262.058zm1.245.497c.052-.078.078-.2.078-.364s-.026-.286-.078-.365-.125-.117-.217-.117-.162.039-.214.117-.078.2-.078.365.026.286.078.364.124.118.214.118a.25.25 0 0 0 .217-.118zm-.55.32c-.097-.062-.174-.151-.229-.267s-.083-.255-.083-.417a.97.97 0 0 1 .083-.417.62.62 0 0 1 .229-.266c.098-.061.209-.092.333-.092a.62.62 0 0 1 .334.092c.098.061.174.15.229.266a.97.97 0 0 1 .083.417c0 .161-.028.3-.083.417a.61.61 0 0 1-.229.267.62.62 0 0 1-.334.092c-.125 0-.235-.03-.333-.092zm2.635-.154c.029-.041.043-.1.043-.177s-.014-.136-.043-.177-.066-.061-.114-.061-.086.02-.114.06-.043.099-.043.178.014.138.043.178.066.06.114.06a.13.13 0 0 0 .114-.061zm-.307.187c-.057-.034-.101-.082-.133-.145a.49.49 0 0 1-.047-.219.49.49 0 0 1 .047-.219.34.34 0 0 1 .133-.145.37.37 0 0 1 .193-.05.35.35 0 0 1 .27.113c.07.076.104.175.104.301s-.035.227-.104.301-.16.113-.27.113c-.072 0-.137-.017-.193-.05zm.067-1.467h.257l-1.029 1.501h-.256l1.028-1.501zm-.782.575c.028-.04.042-.1.042-.178a.31.31 0 0 0-.042-.178c-.028-.04-.066-.06-.115-.06s-.085.02-.114.061-.043.1-.043.177.014.136.043.177.067.061.114.061.087-.02.115-.06zm-.385.123c-.069-.075-.105-.175-.105-.301s.036-.227.105-.301a.35.35 0 0 1 .27-.113c.111 0 .2.037.269.113a.43.43 0 0 1 .104.301c0 .125-.035.226-.104.301s-.158.112-.269.112a.35.35 0 0 1-.27-.112z"/></g><path d="M153.966 40.273l4.621-.05c.635-.007 1.144-.525 1.137-1.158l-.042-3.851c-.006-.631-.525-1.138-1.158-1.133l-1.337.01-.578-.89a.49.49 0 0 0-.827.014l-.55.913-1.329.01a1.15 1.15 0 0 0-1.141 1.158l.042 3.843c.007.633.527 1.14 1.162 1.133z" class="B"/><g class="F"><path d="M154.999 37.407c.101.084.151.197.151.339 0 .091-.022.174-.068.249a.48.48 0 0 1-.21.18.8.8 0 0 1-.347.067 1.2 1.2 0 0 1-.314-.042c-.102-.028-.189-.067-.261-.119l.138-.266c.057.043.123.076.198.1s.151.035.23.035a.36.36 0 0 0 .206-.051c.051-.034.076-.082.076-.144s-.026-.113-.079-.145-.143-.05-.272-.05h-.385l.077-.844h.919v.278h-.628l-.024.285h.123c.212 0 .369.042.47.127z"/><path d="M156.155 37.831c.052-.079.078-.2.078-.364s-.026-.286-.078-.364-.124-.118-.216-.118-.162.039-.214.118-.079.2-.079.364.026.285.079.364.123.118.214.118.163-.04.216-.118zm-.55.319a.62.62 0 0 1-.229-.267.97.97 0 0 1-.083-.417c0-.162.028-.301.083-.417a.62.62 0 0 1 .563-.359.61.61 0 0 1 .562.359.97.97 0 0 1 .083.417.97.97 0 0 1-.083.417.62.62 0 0 1-.229.267c-.098.062-.208.092-.333.092a.61.61 0 0 1-.334-.092zm2.635-.153c.027-.04.042-.1.042-.177a.32.32 0 0 0-.042-.176c-.028-.04-.067-.061-.115-.061s-.086.02-.115.06-.043.099-.043.177a.31.31 0 0 0 .043.178c.029.04.067.06.115.06s.087-.02.115-.061zm-.308.187a.34.34 0 0 1-.133-.145.49.49 0 0 1-.047-.219.49.49 0 0 1 .047-.218.34.34 0 0 1 .133-.145.37.37 0 0 1 .193-.05c.11 0 .2.037.269.113s.105.175.105.3-.035.227-.105.301-.159.113-.269.113a.37.37 0 0 1-.193-.051zm.067-1.467h.257l-1.029 1.5h-.256l1.028-1.5zm-.782.574c.028-.04.042-.099.042-.178s-.014-.138-.042-.178-.066-.06-.115-.06-.085.021-.114.061-.043.1-.043.177.014.136.043.177.067.061.114.061.087-.02.115-.06zm-.385.124c-.069-.075-.104-.176-.104-.301s.035-.226.104-.301a.35.35 0 0 1 .27-.113c.11 0 .2.037.269.113s.104.175.104.301-.035.226-.104.301a.35.35 0 0 1-.269.112.35.35 0 0 1-.27-.112z"/></g><g class="B"><path d="M110.037 66.72c-.306 0-.555-.248-.555-.553s.249-.552.555-.552h17.166c.307 0 .555.247.555.552s-.248.553-.555.553h-17.166zm0 3.986c-.306 0-.555-.248-.555-.553s.249-.552.555-.552h13.82c.307 0 .555.247.555.552s-.248.553-.555.553h-13.82zm0-1.993c-.306 0-.555-.247-.555-.552s.249-.553.555-.553h12.408c.307 0 .555.248.555.553s-.248.552-.555.552h-12.408z"/></g><g class="M"><path d="M127.203 66.72h-17.166c-.306 0-.555-.248-.555-.553s.249-.552.555-.552h17.166c.307 0 .555.247.555.552s-.248.553-.555.553zm-3.346 3.986h-13.82c-.306 0-.555-.248-.555-.553s.249-.552.555-.552h13.82c.307 0 .555.247.555.552s-.248.553-.555.553zm-1.412-1.993h-12.408c-.306 0-.555-.247-.555-.552s.249-.553.555-.553h12.408c.307 0 .555.248.555.553s-.248.552-.555.552z"/></g><g class="B"><path d="M76.864 66.72c-.306 0-.555-.248-.555-.553s.249-.552.555-.552H94.03c.306 0 .554.247.554.552s-.248.553-.554.553H76.864zm0 3.986c-.306 0-.555-.248-.555-.553s.249-.552.555-.552h10.054c.306 0 .555.247.555.552s-.249.553-.555.553H76.864zm0-1.993c-.306 0-.555-.247-.555-.552s.249-.553.555-.553h14.56c.306 0 .555.248.555.553s-.248.552-.555.552h-14.56z"/></g><g class="M"><path d="M94.031 66.72H76.864c-.306 0-.555-.248-.555-.553s.249-.552.555-.552H94.03c.306 0 .554.247.554.552s-.248.553-.554.553zm-7.112 3.986H76.864c-.306 0-.555-.248-.555-.553s.249-.552.555-.552h10.054c.306 0 .555.247.555.552s-.249.553-.555.553zm4.506-1.993h-14.56c-.306 0-.555-.247-.555-.552s.249-.553.555-.553h14.56c.306 0 .555.248.555.553s-.248.552-.555.552z"/></g><g class="C"><path d="M149.946 71.002h-7.336a.73.73 0 0 1-.715-.654l-.956-10.88a.59.59 0 0 1 .6-.655h7.337a.73.73 0 0 1 .714.655l.956 10.88a.59.59 0 0 1-.6.654z"/><path d="M150.368 71.002h-7.337a.73.73 0 0 1-.714-.654l-.956-10.88a.59.59 0 0 1 .6-.655h7.336a.73.73 0 0 1 .715.655l.956 10.88a.59.59 0 0 1-.6.654z"/></g><path d="M148.616 71.002h-5.585a.73.73 0 0 1-.714-.654l-.956-10.88-.003-.059a.59.59 0 0 1 .603-.596h7.336a.73.73 0 0 1 .715.655l.418 4.761a4.38 4.38 0 0 0-.375.532l-.465-5.293c-.011-.129-.126-.234-.256-.234h-7.337c-.129 0-.225.105-.214.234l.956 10.88a.26.26 0 0 0 .252.234h5.674l-.049.42z" fill="#263e7f"/><path d="M142.991 70.581c-.128-.001-.241-.106-.252-.234l-.956-10.88c-.011-.13.085-.235.215-.235h7.336c.13 0 .245.105.256.235l.465 5.293h0l-.452-5.147-1.416 2.279c-.08-.059-.178-.095-.281-.095h-3.799c-.243 0-.422.196-.401.437l.196 2.234a.49.49 0 0 0 .478.437h1.935l-.484.78h-1.383c-.242 0-.422.196-.4.437l.187 2.133-1.404 2.261c.044.038.1.063.16.064z" fill="#a4b1d2"/><path d="M148.664 70.581h-5.67c-.063-.001-.119-.025-.164-.064l1.404-2.261.009.101a.49.49 0 0 0 .478.437h3.799c.243 0 .422-.196.401-.437l-.197-2.234a.49.49 0 0 0-.477-.437h-2.417l.485-.78h1.864c.242 0 .421-.195.4-.437l-.196-2.234c-.012-.139-.088-.262-.196-.343l1.415-2.279.452 5.147a4.84 4.84 0 0 0-.526 1.277c-.422 1.633-.693 3.146-.864 4.544z" fill="#c2cadf"/><path d="M146.315 64.907h-1.936a.49.49 0 0 1-.477-.437l-.196-2.234c-.021-.241.158-.437.4-.437h3.8a.48.48 0 0 1 .281.095l-1.005 1.617c-.012-.068-.074-.121-.144-.121h-2.533a.12.12 0 0 0-.123.121c.007.085.072.145.146.145h2.534c.011 0 .022-.001.033-.004l-.78 1.255zm-1.975-1.876c.007.086.072.145.146.145h2.016c.07 0 .122-.053.122-.121-.007-.085-.072-.145-.146-.145h-2.016a.12.12 0 0 0-.122.121zm-.042-.48c.007.085.072.145.146.145h3.051a.12.12 0 0 0 .123-.121c-.007-.086-.072-.145-.146-.145h-3.051a.12.12 0 0 0-.123.121z" fill="#f9fafc"/><path d="M148.179 64.907h-1.864l.78-1.255a.12.12 0 0 0 .09-.117l-.002-.024 1.004-1.617c.108.08.184.204.196.343l.196 2.234c.022.242-.157.437-.4.437z" fill="#fbfbfd"/><path d="M144.235 68.256l-.187-2.133c-.022-.241.158-.437.4-.437h1.383l-.427.688h-.636c-.071 0-.123.053-.123.121.007.085.072.145.146.145h.448l-.133.214h-.296a.12.12 0 0 0-.123.121c.007.085.072.145.146.145h.108l-.706 1.136z" fill="#f9fafc"/><path d="M148.521 68.794h-3.8a.49.49 0 0 1-.477-.437l-.009-.101.706-1.136h1.908a.12.12 0 0 0 .122-.121c-.007-.085-.072-.145-.146-.145h-1.719l.133-.214h2.604c.07 0 .122-.053.122-.121-.007-.085-.072-.145-.146-.145h-2.415l.427-.688h2.417a.49.49 0 0 1 .477.437l.197 2.234c.021.242-.159.437-.401.437z" fill="#fbfbfd"/><g class="B"><path d="M144.445 62.696a.15.15 0 0 1-.146-.133.12.12 0 0 1 .122-.133h3.052c.074 0 .139.059.145.133a.12.12 0 0 1-.122.133h-3.051zm.083.959c-.073 0-.138-.059-.145-.133a.12.12 0 0 1 .122-.133h2.534c.074 0 .139.059.145.133a.12.12 0 0 1-.122.133h-2.534z"/><path d="M144.486 63.176c-.073 0-.138-.059-.145-.133a.12.12 0 0 1 .122-.133h2.016c.073 0 .139.06.145.133a.12.12 0 0 1-.122.133h-2.016z"/></g><g class="M"><path d="M147.495 62.696h-3.051c-.074 0-.139-.06-.145-.133-.001-.08.052-.133.122-.133h3.051c.074 0 .139.059.145.133.001.08-.052.133-.122.133zm-.433.959h-2.534c-.073 0-.138-.059-.145-.133 0-.08.052-.133.122-.133h2.534c.074 0 .139.059.145.133 0 .069-.036.115-.089.129-.01.003-.021.004-.033.004z"/><path d="M146.502 63.176h-2.015c-.074 0-.139-.059-.145-.133-.001-.08.052-.133.121-.133h2.016c.074 0 .139.06.145.133.001.08-.052.133-.122.133z"/></g><g class="B"><path d="M144.79 66.64c-.074 0-.139-.06-.145-.133a.12.12 0 0 1 .122-.133h3.052a.15.15 0 0 1 .145.133.12.12 0 0 1-.122.133h-3.052zm.043.48c-.074 0-.139-.06-.145-.133a.12.12 0 0 1 .122-.133h2.015a.15.15 0 0 1 .146.133.12.12 0 0 1-.122.133h-2.016z"/></g><g class="M"><path d="M147.843 66.64h-3.052c-.074 0-.139-.06-.145-.133 0-.08.052-.133.122-.133h3.051a.15.15 0 0 1 .146.133c0 .08-.052.133-.122.133zm-.995.48h-2.015a.15.15 0 0 1-.146-.133c0-.08.052-.133.122-.133h2.015c.074 0 .14.059.146.133 0 .08-.052.133-.122.133z"/></g><path d="M156.506 52.244c.069-.243-.003-.477-.163-.522s-.345.115-.414.358.003.477.162.523.345-.115.415-.358z" class="B"/><path d="M156.186 52.612l-1.864 1.19s.37.673 1.287.755l.577-1.944z" fill="#f03e4c"/><path d="M164.853 54.884c-1.251 2.939-1.717 4.213-3.787 5.219-2.885.751-6.472-.659-6.127-3.914.309-2.929 2.297-7.233 5.683-7.406a4.37 4.37 0 0 1 4.593 4.131c.034.675-.09 1.35-.362 1.97z" class="D"/><path d="M157.098 51.793c-.047-.015-.085-.051-.101-.098a1.17 1.17 0 0 0-.725-.787c-.077-.023-.121-.104-.1-.181s.105-.123.184-.103a1.47 1.47 0 0 1 .927.983c.028.075-.01.158-.086.185l-.007.003-.092-.001z" class="B"/><path d="M157.475 59.95c-1.253-.454-2.242-1.349-2.495-2.66.579 1.274 1.762 1.476 2.455 1.476.166 0 .303-.012.398-.023-.212.315-.301.745-.358 1.207z" fill="#cd5a58"/><path d="M161.877 63.598s-1.855-.905-.518-4.427c0 0-1.481-1.464-3.02-.842s-.248 3.864-2.06 4.365c0 0 .946 1.305 5.598.904z" class="D"/><path d="M156.427 51.771s-.267-.046-.451-.343c0 0 .027.333.383.459l.068-.116z" class="B"/><path d="M155.396 62.84s1.107-1.717 4.088-1.376 2.393 2.135 2.393 2.135l-6.481-.759z" class="C"/><path d="M161.921 63.146c-1.746-.581-3.832-.989-5.798-.989.52-.364 1.363-.738 2.598-.738.239 0 .493.014.763.045 2.016.231 2.399 1.127 2.437 1.682z" fill="#799bd7"/><path d="M157.796 54.085s.01-1.164.863-2.427.37-2.08.419-2.88 4.162-1.606 5.745 1.126c0 0 2.848 2.452.844 5.394s-2.814 5.189-5.24 4.819-1.048-4.368-2.631-6.032z" class="B"/><path d="M165.51 55.531l.157-.233c.522-.767.715-1.501.714-2.167.001.666-.192 1.4-.714 2.167l-.157.233z" fill="#8d8e8d"/><path d="M164.823 49.904zm-.005-.008l-.174-.271.174.271zm-.177-.275zm-.006-.008z" fill="#969796"/><path d="M164.05 57.505c-.196 0-.401-.067-.613-.232-1.314-1.024.479-2.754.479-2.754s-.748.276-1.528.276c-.742 0-1.514-.249-1.703-1.219-.389-1.991 2.052-2.59 2.052-2.59s-1.663-1.547-1.034-2.944c1.056.101 2.194.535 2.932 1.57l.183.284c.005.008 1.562 1.348 1.564 3.236 0 .666-.192 1.4-.715 2.167l-.157.232-1.255 1.95a.9.9 0 0 1-.205.024z" class="N"/><path d="M164.823 49.904c-.18-.312-.397-.571-.633-.796a3.43 3.43 0 0 0-1.876 3.053c0 2.831 2.519 3.366 3.165 3.419l.188-.282c2.004-2.942-.844-5.394-.844-5.394z" class="C"/><path d="M158.002 53.162a2.45 2.45 0 0 0-1 1.596c-.135.855.66 1.19 1.417.875.687-.284 1.576-1.072 1.364-1.895s-1.124-1.032-1.781-.576z" class="D"/><path d="M163.772 51.21s-2.187-2.423-.355-3.828c1.477-1.133 2.614 1.734 2.614 1.734s-.241-3.205 2.028-2.837c2.288.371.896 3.152.896 3.152s2.005-1.261 2.849.105-1.613 2.265-1.613 2.265 2.773 1.628 1.455 2.755-2.585-.22-2.585-.22.791 2.187-.686 2.532c-1.338.312-1.741-1.711-1.741-1.711s-1.002 2.417-2.215 1.471.053-2.544.053-2.544-2.236.968-2.595-.871 1.895-2.005 1.895-2.005z" class="B"/><path d="M167.584 70.536s4.014 8.591 2.081 9.369-7.829 2.102-7.829 2.102l-2.838 1.022-1.644-1.065.416-2.755 4.153.903 4.982-2.222-2.353-5.22 3.032-2.133z" class="D"/><path d="M165.669 65.926c.134-.149.379-.106.458.077.921 2.121 5.245 12.314 4.039 13.797-.898 1.103-5.24 1.681-5.24 1.681l-.923-2.469 2.633-1.208-2.962-6.724s-.314-2.572 1.995-5.154z" class="C"/><path d="M165.252 74.665l-.955-2.169 1.631-5.454c.098 1.129.046 3.347-.676 7.623z" class="T"/><path d="M164.287 139.504l2.263 7.663 2.297-.133-.486-8.319-4.074.789z" class="D"/><path d="M152.382 82.77s-2.792 5.591-.108 15.871 13.424 46.096 13.424 46.096l3.024-.362s.191-12.852-4.064-23.223c0 0-2.042-17.632-1.047-21.777.695-2.898 1.118-5.319-.082-9.708-.678-2.48-1.332-4.26-1.938-5.46-.79-1.567-.556-2.17-.556-2.17l-8.653.731z" class="B"/><path d="M165.698 144.738l.131-.016-.131.016zm2.995-.359l.03-.003-.03.003z" fill="#7a7b7c"/><path d="M165.829 144.722l2.864-.343-2.864.343z" fill="#7c3635"/><path d="M165.698 144.738l-.38-1.268 3.392-.459.013 1.365-.03.003-2.864.343-.131.016z" fill="#151717"/><path d="M155.955 111.743l-.289-1.001c.014-3.647.183-7.217.714-8.872.586-1.831 1.868-3.624 2.52-6.282.033 3.094-.347 8.964-2.945 16.155z" class="N"/><g class="B"><path d="M166.492 146.947l2.73-.38c.118-.014.232.055.271.167l1.302 2.486c.08.22-.034.462-.255.542l-.088.021-3.57.349c-1.669.202-1.222.35-3.181.614-1.18.158-1.56-1.155-1.066-1.281 2.259-.564 2.414-1.283 3.2-2.208a1.02 1.02 0 0 1 .657-.31zm-1.46-2.766l4.193-.524-.065 1.244-3.697.455-.431-1.175z"/></g><path d="M152.697 140.023l.988 7.635h2.321l.598-7.496-3.907-.139z" class="D"/><path d="M148.69 81.912s-.034.664-.562 2.002c-.943 2.392-2.537 6.938-1.747 13.702 1.232 10.551 6.898 47.502 6.898 47.502h3.05s2.088-12.557-.377-23.618c0 0-.874-15.571.428-19.631.906-2.826 3.468-5.562 2.811-11.533s-2.247-8.016-2.247-8.016l-8.254-.409z" class="B"/><path d="M156.328 145.119h-.119.119v-.001.001z" fill="#7a7b7c"/><path d="M156.328 145.119h-3.05l-.21-1.374h3.455l-.195 1.373v.001z" fill="#151717"/><g class="B"><path d="M153.634 147.419l2.716.058c.118.002.219.085.243.2l.52 2.553a.42.42 0 0 1-.324.496l-.089.009-3.543-.144c-1.662-.029-1.244.176-3.198.168-1.177-.006-1.368-1.342-.868-1.399 2.289-.245 2.961-.927 3.857-1.726a1.02 1.02 0 0 1 .686-.215zm-.937-2.944h4.229l-.236 1.224h-3.73l-.263-1.224z"/></g><path d="M163.624 87.208c-4.327-5.937 3.218-19.125 2.334-21.592s-14.624-6.57-16.43.421-.847 11.776-1.118 14.814c-.4 4.466-2.246 6.252-2.246 6.252s9.547 3.573 17.46.105z" class="C"/><path d="M148.43 77.627l-.013-.539.013.539z" fill="#7a95d4"/><path d="M148.43 77.627l-.014-.539c-.037-1.6-.052-3.467.156-5.62l1.575-3.542 1.847-1.524.416-.263s1.13 5.586-3.98 11.487z" class="T"/><path d="M140.602 70.585s1.431 7.438 3.065 8.729 7.278-7.906 7.278-7.906l-2.79-1.662-3.869 5.181-2.284-5.333.452-2.845-.744-1.744c-.245-.436-.884-.409-1.09.047l-.844 1.861c-.177.39-.195.832-.05 1.234l.876 2.44z" class="D"/><path d="M144.283 74.455l-1.336-3.223-1.783 2.629s.886 6.274 3.154 5.69c2.166-.558 7.064-7.897 8.124-10.728s-.375-5.588-.375-5.588-1.735-.449-3.967 4.766c-1.918 4.481-3.817 6.453-3.817 6.453z" class="C"/><path d="M52.582 60.202c-.48-.404-1.215-.259-1.519.289-1.713 3.074-6.635 12.363-5.067 14.948 1.887 3.113 10.85 2.863 10.85 2.863l.433-2.641-5.751-2.964 2.312-4.719c.83-1.842 2.066-4.982-1.256-7.776z" class="B"/><path d="M52.358 73.126l-.833-.429.702-1.403h0l-.702 1.403.833.429z" fill="#71809d"/><path d="M52.714 78.108l-1.179-.156c-2.847-2.796-.032-16.379-.009-16.487l.702 9.828-.702 1.404.833.429.356 4.982z" class="N"/><path d="M61.002 47.257c-.079-.277.004-.544.186-.596s.394.131.474.408-.004.544-.186.596-.394-.131-.474-.408z" class="B"/><path d="M61.367 47.678l2.126 1.358s-.422.767-1.468.86l-.658-2.218z" fill="#b93c36"/><path d="M51.48 50.27c1.427 3.353 1.959 4.807 4.32 5.954 3.291.857 7.383-.752 6.989-4.465-.352-3.341-2.621-8.251-6.483-8.449-2.753-.14-5.099 1.971-5.239 4.713a4.96 4.96 0 0 0 .413 2.247z" class="H"/><path d="M60.327 46.743c.054-.017.097-.058.115-.111.114-.414.422-.749.827-.898.089-.026.139-.118.114-.207s-.119-.141-.21-.118c-.514.181-.908.599-1.057 1.121-.032.085.012.18.098.211l.008.003.105-.001z" class="B"/><path d="M60.143 55.953c-.078-.487-.202-.93-.444-1.263l.242.007c.791 0 2.14-.231 2.8-1.684-.271 1.408-1.288 2.396-2.599 2.939z" fill="#a25245"/><path d="M54.583 60.923s2.362-1.152.66-5.637c0 0 1.886-1.864 3.847-1.074s.315 4.922 2.623 5.56c0 0-1.205 1.662-7.129 1.151z" class="H"/><path d="M55.031 58.664s-.428-1.528 2.195-2.168 4.803.146 5.152 1.291-7.347.877-7.347.877z" class="B"/><path d="M55.005 58.393c.011-.468.285-1.424 2.22-1.896a7.81 7.81 0 0 1 1.844-.23c1.674 0 2.939.606 3.271 1.416l-1.499-.042c-1.851 0-3.876.197-5.837.752z" fill="#45555c"/><path d="M60.328 49.446s.861-.712 0-1.499-2.12-1.458-1.75-2.543-1.315-1.836-1.315-1.836 1.65-1.072.682-1.929c-.996-.882-1.407.75-3.731 1.665-2.675 1.053-5.668 3.588-3.838 6.911s3.444 6.109 5.632 5.574 3.228-4.752 3.228-4.752l1.092-1.59z" class="B"/><g class="H"><path d="M59.725 48.305c.608.432 1.019 1.087 1.141 1.821.154.975-.752 1.357-1.616.998-.784-.325-1.798-1.223-1.557-2.162s1.282-1.177 2.032-.657zm5.149 93.56l.83 5.607 3.386-.123.255-5.803-4.471.319z"/></g><path d="M68.904 146.949l-3.338.07a.31.31 0 0 0-.299.247l-.639 3.138c-.059.278.119.55.398.609l.109.011 4.355-.177c2.042-.037 1.529.216 3.93.206 1.447-.007 1.682-1.649 1.067-1.719-2.814-.301-3.639-1.14-4.741-2.121-.239-.188-.539-.282-.843-.264z" class="B"/><path d="M48.366 141.865l-.219 4.969 3.516.458 1.174-5.746-4.471.319z" class="H"/><path d="M51.458 146.393l-3.332-.208a.31.31 0 0 0-.318.221l-.901 3.073c-.082.272.073.559.346.64l.108.02 4.354.187c2.038.134 1.505.344 3.899.535 1.442.113 1.815-1.504 1.208-1.625-2.779-.535-3.531-1.44-4.546-2.509a1.24 1.24 0 0 0-.818-.334z" class="B"/><path d="M56.426 75.799l2.069.495 3.504-.881.566 1.54.435 2.16-2.786.475-2.29-1.374-2.921-.059 1.422-2.356z" class="H"/><path d="M51.475 60.763l1.71 23.931 18.367.143s2.241-6.609-.528-15.972l-2.705-9.031a2.24 2.24 0 0 0-1.612-1.535c-2.723-.67-9.343-1.47-14.51 1.188a1.33 1.33 0 0 0-.721 1.275z" class="B"/><path d="M52.772 84.882c-1.029 4.743-1.298 8.066-1.284 10.286.005.785.045 1.432.1 1.955.165 1.573.224 3.157.125 4.736l-.025.407c-.283 4.555-.332 9.209-.324 12.277v.065a18.7 18.7 0 0 1-.939 5.913c-.097.296-.192.6-.283.91-2.595 8.865-2.373 23.015-2.373 23.015l5.035.283 13.857-60.716h-12.86c-.494 0-.919.362-1.029.868z" class="C"/><path d="M60.416 111.376l.466-2.044h0l-.466 2.044z" fill="#cecdcc"/><path d="M60.416 111.376c-1.845-6.175-2.52-12.457-2.766-16.021.151.702.329 1.288.51 1.771.077.204.154.39.229.56.569 1.268.971 2.608 1.152 3.997l.026.197c.336 2.519.815 5.096 1.315 7.452l-.466 2.044z" class="T"/><path d="M47.322 143.472l.074 1.477 5.731.234.255-1.499-6.059-.212z" class="C"/><path d="M53.127 145.183l-1.026-.042-3.873-.158-.832-.034-.074-1.477 6.06.212-.255 1.499z" fill="#2e53ac"/><g class="C"><path d="M57.83 84.015c-1.175 7.018-.451 11.019.33 13.112.077.204.154.391.229.56.569 1.268.971 2.608 1.152 3.997l.026.196c.726 5.445 2.118 11.157 2.953 14.32l.012.046c.367 1.39.476 2.842.278 4.269a21.62 21.62 0 0 0-.15 1.494c-.554 8.171 2.142 23.066 2.142 23.066l4.929-.452 2.155-59.899c.014-.387-.281-.709-.649-.709H57.83z"/><path d="M64.166 144.322l.421 1.442 5.538-.479.081-1.52-6.04.557z"/></g><path d="M64.587 145.764l-.421-1.442 6.04-.557-.081 1.52-.947.082-3.737.323-.853.074z" fill="#2e53ac"/><g fill="#c7d9f2"><path d="M57.93 86.32h9.304v-1.287H57.93v1.287zm-1.231 0h-3.768l.194-1.287h3.574v1.287zm11.791 0h2.835v-1.287H68.49v1.287z"/></g><path d="M71.052 68.962zm-.005-.018l-.015-.052.015.052zm-.016-.052l-.008-.027.008.027zm-.008-.027l-1.46-4.877v.001l1.46 4.877z" fill="#71809d"/><path d="M71.626 71.201c-4.588-3.371-4.965-8.089-4.965-8.089l.611-1.501 1.291.989.999 1.388 1.461 4.877.008.027.016.052.579 2.257z" class="N"/><path d="M79.784 60.755l.889-1.926-.158-2.996a1.48 1.48 0 0 1 .361-1.05l.514-.593a1.5 1.5 0 0 1 2.267.007l.295.344c.239.279.366.637.357 1.004l-.044 1.692c-.009.356-.147.698-.388.962l-1.424 1.561-.624 2.843-2.045-1.846z" class="H"/><path d="M68.234 58.752L76.9 65.7l3.029-5.837 2.6 1.084s-1.852 10.364-4.222 10.53-8.3-2.63-10.742-5.953c-1.775-2.416-.969-5.183-.397-6.512a.69.69 0 0 1 1.065-.26z" class="B"/></g><defs><clipPath id="A"><path d="M0 0h211v155H0z" class="F"/></clipPath><path id="B" d="M83.391 114.308l.103 1.175a.75.75 0 0 0 .75.684h4.468a.75.75 0 0 0 .75-.684l.103-1.175h-6.175z"/><path id="C" d="M54.377 15.906c-.201 0-.365-.163-.365-.364s.163-.363.365-.363h2.876c.201 0 .365.163.365.363s-.163.364-.365.364h-2.876z"/><path id="D" d="M84.787 51.519h-7.553c-.511 0-.925-.413-.925-.921V26.491c0-.509.414-.921.925-.921h7.553c.511 0 .925.412.925.921v24.107c0 .509-.414.921-.925.921z"/><path id="E" d="M108.293 51.519h-7.552c-.511 0-.925-.413-.925-.921V26.491c0-.509.414-.921.925-.921h7.552c.511 0 .925.412.925.921v24.107c0 .509-.414.921-.925.921z"/><path id="F" d="M131.8 51.519h-7.553c-.51 0-.925-.413-.925-.921V26.491c0-.509.415-.921.925-.921h7.553c.511 0 .925.412.925.921v24.107c0 .509-.414.921-.925.921z"/><path id="G" d="M55.406 35.741l-.667.35.127-.74-.54-.524.746-.108.334-.673.334.673.746.108-.54.524.127.74-.667-.35z"/><path id="H" d="M58.505 35.741l-.667.35.127-.74-.54-.524.746-.108.333-.673.334.673.746.108-.54.524.127.74-.668-.35z"/><path id="I" d="M65.373 36.091l-.667-.35-.667.35.127-.74-.54-.524.746-.108.333-.673.334.673.746.108-.54.524.127.74z"/><path id="J" d="M68.474 36.091l-.668-.35-.667.35.128-.74-.54-.524.746-.108.333-.673.334.673.746.108-.54.524.127.74z"/></defs></svg>