<svg xmlns="http://www.w3.org/2000/svg" xmlns:xlink="http://www.w3.org/1999/xlink" width="160" height="156" viewBox="0 0 213 155" fill="none" xmlns:v="https://vecta.io/nano"><style><![CDATA[.B{fill:#eea886}.C{fill:#323657}.D{fill:#eea987}.E{fill:#5073ab}.F{fill:#1d3b54}.G{fill:#e2d2ca}.H{fill:#eef0f7}.I{fill:#e8734d}.J{fill:#eddad3}.K{fill:#706865}.L{fill:#424773}.M{fill:#292c47}.N{fill:#dfe1e8}.O{fill:#d9c7c1}.P{fill:#c78d71}.Q{fill:#ffbf55}.R{fill:#b5deff}.S{fill:#eb4747}]]></style><path d="M212.998 155H0V0h212.998v155z" fill="#f7f7f7"/><path d="M159.521 32.994c-4.793 0-8.679-4.044-8.679-9.034s3.886-9.034 8.679-9.034 8.68 4.045 8.68 9.034-3.886 9.034-8.68 9.034zm11.296-12.08a12.37 12.37 0 0 0-1.24-3.112l1.262-1.976-1.751-1.823-1.752-1.823-1.898 1.314c-.924-.566-1.927-1.005-2.99-1.291l-.45-2.324h-2.477-2.477l-.449 2.324c-1.063.286-2.067.724-2.99 1.291l-1.899-1.314-1.751 1.823-1.752 1.823 1.263 1.976a12.33 12.33 0 0 0-1.24 3.112l-2.234.468v2.578 2.578l2.234.468c.274 1.107.696 2.151 1.24 3.112l-1.263 1.976 1.752 1.823 1.751 1.823 1.899-1.314c.923.566 1.927 1.005 2.99 1.291l.449 2.324h2.477 2.477l.45-2.324a11.37 11.37 0 0 0 2.99-1.291l1.898 1.314 1.752-1.823 1.751-1.823-1.262-1.976a12.36 12.36 0 0 0 1.24-3.112l2.233-.468V23.96v-2.578l-2.233-.468z" fill="url(#A)"/><path d="M169.018 48.377c-2.198 0-3.979-1.854-3.979-4.142s1.781-4.141 3.979-4.141 3.979 1.854 3.979 4.141-1.781 4.142-3.979 4.142zm5.179-5.538c-.127-.508-.32-.986-.569-1.427l.579-.906-.803-.836-.803-.835-.871.602c-.423-.26-.883-.461-1.37-.592l-.207-1.066h-1.135-1.135l-.207 1.066c-.487.131-.947.332-1.37.592l-.871-.602-.803.835-.802.836.578.906c-.249.44-.442.919-.568 1.427l-1.024.214v1.182 1.182l1.024.215a5.68 5.68 0 0 0 .568 1.426l-.578.906.802.836.803.836.871-.602c.423.259.883.46 1.37.592l.207 1.066h1.135 1.135l.207-1.066c.487-.131.947-.332 1.37-.592l.871.602.803-.836.803-.836-.579-.906a5.72 5.72 0 0 0 .569-1.426l1.023-.215v-1.182-1.182l-1.023-.214z" fill="url(#B)"/><path d="M102.223 124.976h12.185V86.453h-12.185v38.523z" fill="#aebecc"/><path d="M61.059 105.01h94.514c2.955 0 5.352-2.494 5.352-5.57V33.322c0-3.076-2.397-5.57-5.352-5.57H61.059c-2.956 0-5.352 2.494-5.352 5.57V99.44c0 3.076 2.396 5.57 5.352 5.57z" fill="#f0f0f0"/><path d="M59.828 92.902h96.976V19.529H59.828v73.374z" fill="#fff"/><path d="M59.828 28.391h96.976v-8.862H59.828v8.862z" fill="url(#C)"/><path d="M104.922 98.442c0 1.951 1.519 3.533 3.394 3.533s3.394-1.582 3.394-3.533-1.52-3.532-3.394-3.532-3.394 1.582-3.394 3.532z" fill="#757575"/><g class="N"><path d="M89.848 37.32h31.626c.679 0 1.228-.573 1.228-1.279v-.068c0-.706-.549-1.279-1.228-1.279H89.848c-.678 0-1.228.573-1.228 1.279v.068c0 .706.55 1.279 1.228 1.279z"/><use xlink:href="#D"/><use xlink:href="#D" y="4.736"/><path d="M69.815 53.998c-2.651 0-4.808 2.245-4.808 5.005v23.016c0 2.76 2.157 5.005 4.808 5.005h36.351c2.651 0 4.808-2.245 4.808-5.005V59.002c0-2.759-2.157-5.004-4.808-5.004H69.815zm36.351 33.742H69.815c-3.031 0-5.497-2.567-5.497-5.722V59.002c0-3.155 2.466-5.722 5.497-5.722h36.351c3.031 0 5.497 2.567 5.497 5.722v23.016c0 3.155-2.466 5.722-5.497 5.722zM72.69 61.955h30.6c1.341 0 2.428-1.131 2.428-2.527v-.481c0-1.396-1.087-2.527-2.428-2.527h-30.6c-1.341 0-2.428 1.131-2.428 2.527v.481c0 1.396 1.087 2.527 2.428 2.527z"/></g><path d="M135.725 126.429H80.906v-2.908h54.819v2.908z" fill="#f0f0f0"/><path d="M145.898 60.843c0 3.023-1.57 5.665-3.908 7.091a7.73 7.73 0 0 1-1.496.705l-.143.048a7.6 7.6 0 0 1-2.344.368c-1.26 0-2.451-.307-3.507-.854-2.598-1.344-4.384-4.134-4.384-7.359 0-4.536 3.533-8.214 7.891-8.214s7.891 3.678 7.891 8.214z" class="H"/><path d="M136.122 59.976s-.539-3.629 2.348-3.562 2.85 1.861 2.798 3.643-1.158 1.647.09 4.124-1.08 2.477-1.08 2.477l-1.808-2.584-2.348-4.098z" fill="#3c4145"/><path d="M138.155 56.762s-1.956.321-2.033 3.214.527 3.509 2.239 2.906 2.251-3.629 2.29-4.098.141-2.37-2.496-2.022z" class="B"/><g fill="#e55353"><path d="M141.59 66.823c.005.867-.44 1.446-1.096 1.816l-.143.048a7.6 7.6 0 0 1-2.344.368c-1.26 0-2.451-.307-3.507-.854-.238-.494.107-1.195.806-2.271.481-.74.952-1.495 1.758-1.862 1.19-.197 2.449-.209 3.336.313.707.416 1.178 1.171 1.19 2.442z"/><path d="M135.69 65.887l-.9 1.475c.002-.008.062-.231.164-.878l.062-.415a1.07 1.07 0 0 1 .028-.136c.385-.924 1.585-1.611 1.629-1.634l-.983 1.588z"/></g><path d="M141.99 67.934a7.73 7.73 0 0 1-1.496.705l-.143.048-.41-1.12c-.011-.035-.037-.1-.071-.188-.162-.41-.526-1.322-.53-2.035-.003-.46.143-.837.588-.944.175-.042.332-.045.472-.019.496.094.786.558.948.97.002.007.005.014.007.02.135.35.177.656.177.656l.022.091.151.618.285 1.198zm-2.528-6.355c-.17.333-.349 2.401-.349 2.401s-2.392.941-2.147.409c.111-.242.144-.555.146-.825a4.13 4.13 0 0 0-.027-.502l-.011-.086s2.557-1.73 2.388-1.396z" class="B"/><path d="M137.358 58.838s1.003 1.7 1.916 2.37.451 1.206.451 1.206 2.383-5.223.117-5.584-3.655-.389-3.72 3.147c0 0 1.03-1.165 1.236-1.138z" fill="#3c4145"/><path d="M138.449 62.849c-.367.564-1.337.715-1.337.715.002-.213-.015-.399-.027-.502.623.125 1.364-.213 1.364-.213z" fill="#a77860"/><path d="M135.048 65.921h0s-.052.112-.095.562l.353-.553.844-1.183c.216-.244.528-.459.528-.459s-1.254.62-1.63 1.633z" fill="#bd4444"/><path d="M139.808 67.321s1.535-.627 1.99-.663c0 0-.309-2.566-1.817-2.294s-.173 2.957-.173 2.957z" fill="#e55353"/><path d="M137.065 64.068s-1.127 1.804-.746 1.962 2.447-.21 3.325-1.924c0 0-1.313-.701-2.579-.038z" class="B"/><path d="M148.813 36.881c0 5.877-4.574 10.687-10.267 10.687-5.672 0-10.268-4.786-10.268-10.687s4.597-10.687 10.268-10.687 10.267 4.785 10.267 10.687z" class="H"/><path d="M145.233 42.778l-.757 2.828c-1.351.997-2.945 1.662-4.67 1.882l-.923.074-.337.005c-.333 0-.661-.016-.985-.048a9.78 9.78 0 0 1-1.068-.166c-1.556-.328-2.984-1.023-4.197-1.994l-.438-2.937 4.672-1.676.063-.022.098-.035.258-.091.235-.083.608-.212.032-.011.017.001 2.039.159.342.026.106.008.047.012.953.28c1.209.385 3.167 1.115 3.905 1.999z" class="O"/><g class="D"><path d="M139.08 31.575s2.445.429 2.03 4.413-2.572 3.632-2.716 3.626-2.171.048-2.278-4.822c0 0-.031-3.601 2.964-3.216z"/><path d="M140.151 38.458s-.084 1.639.064 1.996-1.962 1.486-3.275.2c0 0 .266-1.792.184-2.425s3.027.229 3.027.229zm1.009-3.597s.271-.295.366.008-.433 1.646-.4 1.707c0 0-.05.116-.114.051s.148-1.765.148-1.765zm-5.016-.107s-.26-.306-.367-.008.284 1.639.333 1.722c0 0 .084.138.15.075s-.116-1.789-.116-1.789z"/></g><path d="M141.316 34.523l-.164.95-.356.483-.033-1.237c-.021-.064-.045-.176-.07-.299l-.111-.505c-.046-.121-2.096-.744-3.921.131 0 0 .016.165.015.348-.001.213-.024.452-.118.488-.175.067-.102 1.252-.102 1.252l-.284-.342-.163-1.33-.056-.511c-.041-.715.028-2.015.923-2.778.603-.269 1.568-.498 3.176.014 0 0 .368.026.472.129 1.001 1.147.792 3.206.792 3.206z" class="I"/><path d="M137.291 39.081s.39.564 1.297.543 1.3-.513 1.3-.513-.429.934-1.304.924-1.293-.953-1.293-.953z" class="P"/><path d="M136.691 40.689s.655 1.187 1.899 1.299c.788.071 1.471-.969 1.791-1.48 0 0-1.766-.787-3.69.181z" class="D"/><g class="J"><path d="M140.154 40.133s-.499.681-1.564 1.411l.662 1.062 1.129-2.097-.227-.375z"/><path d="M136.99 40.292s.636.83 1.599 1.252l-.726 1.094-1.27-1.913.397-.432z"/></g><path d="M138.59 41.543l.567.899s-.596.351-1.15-.022l.583-.876z" class="E"/><path d="M145.889 42.611l-.629 2.356-.361.309-.422.33c-1.352.997-2.945 1.662-4.67 1.882l.574-6.98.947.271c2.607.779 3.928 1.462 4.379 1.721l.182.111zm-9.396 4.743a10.02 10.02 0 0 1-4.197-1.993 10.34 10.34 0 0 1-1.037-.95l-.186-.201-.307-1.346-.001-.002s1.27-.869 5.765-2.117l-.037 6.61z" class="C"/><path d="M138.915 42.541l-.032 5.021-.337.005a10.05 10.05 0 0 1-.984-.048c.197-2.66.53-4.323.682-4.981l.08-.323.602.103-.011.222z" class="E"/><path d="M146.406 43.756a10.6 10.6 0 0 1-1.147 1.211l-.361.309.991-2.665c.241.212.435.937.517 1.145zm-15.147.654l-.186-.201a10.13 10.13 0 0 1-.652-.794c.116-.288.231-.482.345-.554v.002l.493 1.548z" class="C"/><path d="M76.553 25.634H65.034c-.639 0-1.156-.539-1.156-1.204v-.941c0-.665.518-1.204 1.156-1.204h11.519c.639 0 1.156.539 1.156 1.204v.941c0 .665-.518 1.204-1.156 1.204z" fill="#f5f7ff"/><path d="M145.898 80.415c0 4.519-3.517 8.213-7.89 8.213-4.366 0-7.891-3.685-7.891-8.213 0-4.536 3.533-8.213 7.891-8.213s7.89 3.677 7.89 8.213z" class="H"/><g fill="#949494"><path d="M138.007 83.69c-.219 0-.398-.186-.398-.414v-5.722c0-.229.179-.414.398-.414s.398.186.398.414v5.722c0 .228-.178.414-.398.414z"/><path d="M140.756 80.829h-5.497c-.22 0-.398-.185-.398-.414s.178-.414.398-.414h5.497c.22 0 .398.185.398.414s-.178.414-.398.414z"/></g><use xlink:href="#E" class="Q"/><path d="M118.766 59.188l-1.87-1.698c-.154-.139-.169-.382-.036-.541s.367-.176.52-.037l1.323 1.2 1.887-2.19c.136-.158.369-.171.52-.029s.164.384.029.542l-2.373 2.754z" fill="#f3f3f3"/><use xlink:href="#E" y="9.871" class="Q"/><path d="M118.766 69.058l-1.87-1.698c-.154-.139-.169-.382-.036-.541a.36.36 0 0 1 .52-.037l1.323 1.2 1.887-2.19c.136-.158.369-.171.52-.029s.164.384.029.541l-2.373 2.754z" fill="#f3f3f3"/><use xlink:href="#E" y="19.742" class="Q"/><path d="M85.524 128.806s-.376.88-.693 1.23-1.532.972-1.539 2.009c-.007 1.124 2.048.812 2.852.771s.865-.642 1.203-1.278.68-.528.743-1.042-.259-1.662-.259-1.662l-2.307-.028z" fill="#131c24"/><path d="M85.489 128.481l-.059.533s1.264.441 2.459.046l-.066-.728-2.334.149z" fill="#4f4946"/><path d="M100.345 128.806s.376.88.693 1.23 1.532.972 1.539 2.009c.007 1.124-2.048.812-2.852.771s-.865-.642-1.203-1.278-.68-.528-.743-1.042.259-1.662.259-1.662l2.307-.028z" fill="#131c24"/><path d="M100.379 128.481l.059.533s-1.264.441-2.46.046l.067-.728 2.334.149z" fill="#4f4946"/><path d="M99.715 114.294c0 1.386 1.243 14.038 1.243 14.038-.143.462-3.194.405-3.67.175s-1.859-12.77-1.948-14.167-2.075-13.55-2.492-13.504-2.395 13.069-2.728 14.132-1.844 13.659-1.844 13.659c-1.047.6-3.536-.151-3.536-.151l.581-13.324c.088-.578-.004-2.135.238-5.592.217-3.092 1-9.824 1.496-13.47l.051-.374.205-1.481.023-.166a5.29 5.29 0 0 1 .42-.165c3.486-1.216 10.121-1.138 10.121-1.138l.099 1.302.041.337.163 1.356.007.063.535 5.174c-.048.462.994 11.911.994 13.297z" fill="#293e4f"/><path d="M100.211 73.306l-1.713 6.395-.203.759-.003.011a26.11 26.11 0 0 0-.747 4.816c-.071 1.316.163 6.607.163 6.607s-2.592 1.007-6.47.752c0 0-4.171-.102-3.831-2.763.9-7.046.02-9.951-.098-10.658l-.898-6.113 6.114-2.385 2.598.202s3.947 1.012 5.088 2.376z" class="O"/><g class="D"><path d="M93.829 61.686s2.535.446 2.105 4.577-2.668 3.767-2.818 3.761-2.251.05-2.362-5.002c0 0-.032-3.735 3.075-3.336z"/><path d="M94.939 68.827s-.087 1.7.067 2.071-2.036 1.541-3.397.207c0 0 .275-1.858.19-2.515s3.14.237 3.14.237zm1.047-3.732s.281-.306.38.008-.45 1.707-.415 1.77c0 0-.052.121-.118.053s.153-1.831.153-1.831zm-5.202-.111s-.269-.318-.38-.008.294 1.7.345 1.786c0 0 .087.143.156.078s-.121-1.856-.121-1.856z"/></g><path d="M96.148 64.744l-.17.985-.369.502-.034-1.283a3.28 3.28 0 0 1-.072-.31l-.115-.524c-.048-.125-2.173-.771-4.066.136a4.03 4.03 0 0 0 .015.361c0 .221-.024.469-.121.507-.182.069-.106 1.298-.106 1.298l-.295-.355-.169-1.38-.058-.53c-.042-.742.028-2.09.957-2.881.627-.279 2.338-.56 3.294.015l.619.438c1.038 1.19.692 3.021.692 3.021z" class="I"/><path d="M91.974 69.472s.405.585 1.345.563 1.348-.532 1.348-.532-.445.969-1.353.959-1.34-.989-1.34-.989z" class="P"/><path d="M91.352 71.14s.679 1.231 1.969 1.347c.818.073 1.519-1.008 1.851-1.537 0 0-1.825-.813-3.82.19z" class="D"/><g class="J"><path d="M94.943 70.563s-.518.707-1.622 1.463l.687 1.101 1.171-2.183-.235-.381z"/><path d="M91.661 70.728s.66.86 1.659 1.298l-.754 1.134-1.31-1.937.405-.496z"/></g><path d="M93.32 72.026l.588.932s-.618.364-1.193-.023l.604-.909z" class="E"/><path d="M87.266 93.127s3.181 1.221 10.375.071l-.095-1.356s-4.17 1.28-10.153.184l-.127 1.101z" fill="#1a2833"/><path d="M95.178 70.944s-.744 5.791-.642 10.78 1.658 14.343 1.658 14.343 2.775-.283 3.463-1.185c0 0-1.592-9.003-1.547-10.338s2.041-11.369 2.041-11.369-.78-1.082-4.973-2.231zm-3.982.303l-.108 10.478C90.986 86.713 90.355 96 90.355 96s-3.255-.482-3.943-1.385c0 0 1.147-8.736 1.102-10.07s-1.471-11.271-1.471-11.271.493-.732 5.154-2.027z" fill="#385369"/><path d="M93.559 93.772h-1.955v-1.512h1.955v1.512z" fill="#3e5e78"/><path d="M93.044 72.722s-.873 3.101-.949 9.26l.107 7.926.682 1.404.908-1.465-.123-17.017-.625-.108z" class="E"/><path d="M96.688 81.39l1.471-.796c.179-.119 2.338-.452 2.609-.443s.285.235.207.315-2.233.449-2.27.502.182.034.182.034 2.325-.037 2.487.125-.023.316-.118.356c0 0 .212.253-.033.357s-.575.171-.575.171.307.165.105.311-2.665.941-2.665.941-.916-1.823-1.399-1.874z" class="B"/><g fill="#385369"><path d="M101.128 86.025c-1.679.417-5.561-.26-7.04-.599l-1.031-.222h-.001l-1.749-.339h0l-1.082-.196 8.446-1.905c.3 0-.752-4.957-.752-4.957s-1.049-4.151-.504-5.782c0 0 2.067.653 2.735 1.15.373.277.648 2.078.902 3.302l1.156 5.831c.078.68.599 3.3-1.081 3.717z"/><path d="M88.664 72.046s-2.502.89-2.622 1.228c-.506 1.431-.741 2.995-.905 3.621-.2.766-.653 3.056-.769 3.803-.148.952-.433 4.326-.309 4.847.157.657 1.644.609 2.447.479s11.947-2.953 11.947-2.953l-.668-2.349-9.686 1.265-.76.192s1.895-8.094 1.325-10.132z"/></g><path d="M90.144 81.706l-1.272-1.107c-.15-.157-2.189-.965-2.456-1.017s-.313.171-.293.281c.036.194 2.114.919 2.139.98s-.185-.008-.185-.008-2.263-.558-2.455-.436-.042.313.042.374c0 0-.259.2-.042.356a3.58 3.58 0 0 0 .526.295s-.334.092-.167.281 1.357.472 1.357.472 2.323-.531 2.805-.472z" class="B"/><path d="M96.836 83.479l-3.779 1.725h-.001l-1.749-.339 5.528-1.387z" fill="#263947"/><path d="M95.014 61.657s.629-.33.969.102.377 2.784-.039 3.686.066-3.204-.93-3.788z" class="I"/><path d="M71.07 138.19h-1.125V84.966h1.125v53.224z" class="K"/><path d="M72.652 129.405H42.388c-1.865 0-3.377-1.573-3.377-3.514V66.245c0-1.941 1.512-3.514 3.377-3.514h30.263c1.865 0 3.377 1.574 3.377 3.514v59.646c0 1.941-1.512 3.514-3.377 3.514z" fill="#bdafaa"/><path d="M71.676 126.8H43.364c-1.842 0-3.336-1.555-3.336-3.472V67.277c0-1.918 1.494-3.473 3.336-3.473h28.313c1.842 0 3.336 1.555 3.336 3.473v56.051c0 1.917-1.494 3.472-3.336 3.472z" fill="#fff"/><path d="M63.035 64.817H52.005v-2.593h11.031v2.593z" class="K"/><path d="M45.884 104.606c-1.58 0-2.866 1.338-2.866 2.983v13.269c0 1.645 1.286 2.983 2.866 2.983h22.394c1.58 0 2.866-1.338 2.866-2.983v-13.269c0-1.645-1.286-2.983-2.866-2.983H45.884zm22.394 19.676H45.884c-1.814 0-3.29-1.536-3.29-3.424v-13.269c0-1.888 1.476-3.424 3.29-3.424h22.394c1.814 0 3.29 1.536 3.29 3.424v13.269c0 1.888-1.476 3.424-3.29 3.424z" class="R"/><path d="M48.186 92.188c.017.009.02.01 0 0z" class="C"/><g class="R"><path d="M67.633 83.599c-1.779 0-3.225 1.506-3.225 3.357s1.447 3.357 3.225 3.357 3.225-1.506 3.225-3.357-1.447-3.357-3.225-3.357zm0 7.156c-2.012 0-3.649-1.704-3.649-3.799s1.637-3.798 3.649-3.798 3.649 1.704 3.649 3.798-1.637 3.799-3.649 3.799zm0 1.596c-1.779 0-3.225 1.506-3.225 3.357s1.447 3.357 3.225 3.357 3.225-1.506 3.225-3.357-1.447-3.357-3.225-3.357zm0 7.155c-2.012 0-3.649-1.704-3.649-3.798s1.637-3.799 3.649-3.799 3.649 1.704 3.649 3.799-1.637 3.798-3.649 3.798zM51.185 87.125a9.16 9.16 0 0 1-.906-.045 9.04 9.04 0 0 1-.984-.152c-1.395-.295-2.731-.929-3.864-1.835a9.61 9.61 0 0 1-.954-.875l-.172-.186c-.21-.23-.411-.476-.6-.73a10 10 0 0 1-1.973-6.016c0-5.426 4.241-9.84 9.453-9.84v.441c-4.979 0-9.029 4.216-9.029 9.398 0 2.101.651 4.088 1.884 5.746.18.243.373.477.573.698a6.52 6.52 0 0 0 .164.178 9 9 0 0 0 .912.835 8.88 8.88 0 0 0 3.691 1.753 8.63 8.63 0 0 0 .939.145 8.93 8.93 0 0 0 .866.043 9.28 9.28 0 0 0 .297-.005 8.47 8.47 0 0 0 .812-.065 8.81 8.81 0 0 0 4.106-1.654 10.43 10.43 0 0 0 .372-.29c.103-.084.21-.176.317-.273a9.32 9.32 0 0 0 1.009-1.065c1.364-1.689 2.116-3.835 2.116-6.046a9.87 9.87 0 0 0-.097-1.379l.42-.064a10.35 10.35 0 0 1 .101 1.443c0 2.314-.787 4.562-2.216 6.33-.322.399-.678.774-1.056 1.115a8.79 8.79 0 0 1-.332.285c-.123.102-.254.204-.388.303-1.271.938-2.758 1.536-4.3 1.733a9.13 9.13 0 0 1-.85.069l-.31.005z"/><path d="M57.78 82.495a.84.84 0 0 0-.092-.107c-.009-.013-.024-.026-.048-.041l-.009-.005c-1.762-1.014-4.942-1.841-4.942-1.841-.092-.221-.085-.986-.072-1.444.33-.398.629-1.022.796-1.994.053.041.094-.053.094-.053-.029-.055.446-1.263.361-1.536-.048-.154-.147-.136-.224-.092l.035-.22s.188-1.853-.713-2.885c-.093-.093-.425-.116-.425-.116-1.447-.461-2.315-.256-2.858-.013-.806.687-.867 1.856-.83 2.5l.049.455.021.178c-.075-.048-.174-.071-.228.082-.097.268.255 1.475.299 1.55 0 0 .075.124.135.067h0c.167 1.06.467 1.713.781 2.115a20.09 20.09 0 0 1-.162 1.536c-.739.243-4.444 1.269-5.566 2.036-.102.065-.206.239-.31.499a9.23 9.23 0 0 0 .587.715l.168.181c.292.306.603.592.933.855 1.092.874 2.377 1.499 3.777 1.794a8.8 8.8 0 0 0 .961.149l.886.044.303-.006.831-.067c1.553-.198 2.986-.796 4.203-1.693l.381-.297.324-.278c.371-.335.716-.699 1.033-1.09-.174-.443-.337-.783-.48-.978z"/></g><path d="M156.916 103.954h10.95v.676h-10.95v-.676z" class="G"/><path d="M166.398 137.16h-.959v-30.769h.959v30.769z" class="K"/><path d="M151.018 103.762h7.611v.966h-7.611v-.966z" fill="#ccbdb7"/><path d="M153.382 104.63h2.882v-9.111h-2.882v9.111z" fill="#4667a8"/><path d="M129.622 106.391h42.171v-1.75h-42.171v1.75z" fill="#b59074"/><path d="M179.887 94.053s.461 6.732-.803 7.538c-.792.505-3.948 2.207-3.854 2.526s1.782 2.841 1.782 2.841 6.063-4.156 6.259-5.466c.191-1.279-.299-9.857-1.132-10.252-.624-.296-.954-.051-1.741.557-1.103.853-.511 2.257-.511 2.257z" class="C"/><path d="M168.836 95.975l-.534-.206s.666-1.628.957-1.589c.335.046.754.161.754.161l-1.177 1.634z" fill="#ead8cf"/><path d="M168.715 96.256c.068-.053 1.136-2.185 1.136-2.185l2.281.322-1.233 2.526-2.184-.663z" fill="#da9b5b"/><path d="M172.427 132.959l.212 1.567c.024.204 2.098-.121 2.098-.121l.167-1.622s-2.218-.017-2.477.176z" class="L"/><path d="M172.617 134.352s-.657.821-1.293 1.179-1.634.499-2.01.87c-.271.267-.988 1.418 1.652 1.394s3.912.163 4.194-.278-.409-3.257-.409-3.257-.625.234-2.134.092z" class="M"/><path d="M159.14 132.972l.212 1.566c.023.205 2.097-.12 2.097-.12l.168-1.622s-2.218-.016-2.477.176z" class="L"/><g class="M"><path d="M159.33 134.365s-.657.821-1.293 1.178-2.974.652-3.35 1.023c-.271.267-.722 1.343 2.992 1.242 2.638-.071 3.912.163 4.195-.278s-.41-3.257-.41-3.257-.588.25-2.134.092zm19.786-24.938l-9.243 1.607c-1.703.278-10.937 2.67-12.091 3.398-.92.581.482 14.512.809 19.828h3.637l.263-15.945c4.365.114 7.479-1.062 10.657-.56s5.828 1.217 7.848-1.603c0 0 .075-6.109-1.88-6.725z"/><path d="M171.685 134.272l3.544-.227.346-15.73c1.878.049 2.523-.075 4.043-.267l2.862-6.923c-2.508.522-10.544 2.631-11.615 3.307-.92.581.493 14.525.82 19.84z"/></g><g class="B"><path d="M175.645 80.01s-2.764-.795-3.819 1.438-.576 6.467.817 6.866 3.396-.06 3.974-1.451 1.04-3.365.901-4.644-1.139-1.904-1.873-2.21z"/><path d="M173.366 87.868s.03 1.699-.149 2.061 3.848.271 3.848.271-.634-2.04-.274-3.778c.356-1.72-3.425 1.445-3.425 1.445z"/></g><path d="M177.007 85.78s-.215.456-1.259.382-2.418-1.383-2.86-1.5-.47-.379-.47-.379l-.234.433-.453.072s.308-1.312-.364-1.775.303-4.184 3.703-3.286c0 0 2.595.495 2.63 2.003s-.19 3.251-.693 4.05z" fill="#3a3f47"/><path d="M173.004 89.886s.011-.692.313-.758 3.166-.477 3.537-.325l.158.913s-.712.456-4.008.17z" class="G"/><path d="M172.175 83.974c.077-.567.696-1.219 1.051-.335s-.24 2.17-.637 2.101-.519-.996-.414-1.765z" class="B"/><path d="M161.001 98.061c-.015.008-.018.009 0 0z" class="C"/><path d="M176.451 80.415s3.37-.165.589 5.311l-.589-5.311z" fill="#3a3f47"/><g fill="#918783"><path d="M183.961 136.139l-.251.734-10.593-3.416.508-1.487 10.336 4.169z"/><path d="M172.754 132.934h1.204v-11.988h-1.204v11.988z"/></g><path d="M169.805 121.016h7.101v-.706h-7.101v.706z" fill="#5e5854"/><g fill="#918783"><path d="M162.657 136.139l.251.734 10.593-3.416-.466-1.58-10.378 4.262z"/><path d="M170.121 136.794v.854l3.381-4.191-.466-1.58-2.915 4.917z"/></g><path d="M161.668 137.159c0 .569.443 1.031.99 1.031s.989-.462.989-1.031-.442-1.03-.989-1.03-.99.461-.99 1.03zm8.369 0c0 .569.443 1.031.99 1.031s.99-.462.99-1.031-.443-1.03-.99-1.03-.99.461-.99 1.03zm12.934 0c0 .569.443 1.031.99 1.031s.99-.462.99-1.031-.444-1.03-.99-1.03-.99.461-.99 1.03z" fill="#bfb2ac"/><path d="M166.167 120.31h14.285c.7 0 1.269-.592 1.269-1.321v-.035c0-.729-.569-1.32-1.269-1.32h-14.285c-.701 0-1.269.591-1.269 1.32v.035c0 .729.568 1.321 1.269 1.321z" class="G"/><path d="M135.018 137.16h.959v-30.769h-.959v30.769z" class="K"/><path d="M143.645 99.908h22.356c.699 0 1.266-.59 1.266-1.317v-15.64c0-.727-.567-1.317-1.266-1.317h-22.356c-.699 0-1.266.59-1.266 1.317v15.64c0 .727.567 1.317 1.266 1.317z" fill="#5f8be3"/><path d="M143.354 97.044h22.939V82.621h-22.939v14.423z" fill="#f5f7ff"/><path d="M143.354 83.769h22.939v-1.148h-22.939v1.148zm1.632 12.387h1.198c.433 0 .784-.365.784-.816v-9.892c0-.45-.351-.816-.784-.816h-1.198c-.433 0-.784.365-.784.816v9.892c0 .451.351.816.784.816zM161.023 85.7h4.198c.234 0 .424-.197.424-.44v-.187c0-.243-.19-.44-.424-.44h-4.198c-.234 0-.423.197-.423.44v.187c0 .243.189.44.423.44zm.45 10.75h3.298c.482 0 .874-.407.874-.91v-8.216c0-.502-.392-.91-.874-.91h-3.298c-.482 0-.873.408-.873.91v8.216c0 .502.391.91.873.91z" fill="#cecfd6"/><path d="M154.021 98.428c0 .462.359.836.803.836s.802-.374.802-.836-.359-.836-.802-.836-.803.374-.803.836z" fill="#59524f"/><path d="M149.671 104.665v-.325s.439-2.023 3.546-2.023 3.044 2.348 3.044 2.348h-6.59z" fill="#314875"/><path d="M156.299 102.617s-.675-.054-.922-.21-1.727-1.19-2.074-1.025-2.661.903-2.58 1.256.294.318.457.255 1.843-.429 1.991-.367c0 0-1.649.626-1.656 1.083s.345.568.501.741.345.603.77.635 2.499-.718 2.926-.752 1.217.027 1.271-.045-.684-1.571-.684-1.571z" class="B"/><path d="M168.587 90.844l4.417-.959 4.008-.17s3.679.843 5.127 1.524c.138.065.139 3.416.515 4.295l-1.201 2.637-.837 7.548c-.066 1.066.187 10.308.187 10.308s-.361.185-3.096.499-9.57-.114-9.613-.45 1.324-12.522 1.384-13.152c.093-.969-.268-5.444-.268-5.444-.516.721-1.83 3.974-3.199 5.523-.806.91-4.795 1.469-5.547 1.495-1.637.057-4.622.396-4.71.23-.069-.099-.26-2.758-.073-2.823.164-.057 5.709-.389 7.129-1.173.52-.288 2.073-3.813 2.073-3.813s2.517-5.519 3.704-6.074z" class="C"/><g class="G"><path d="M176.485 115.76h6.729c1.345 0 2.436-1.135 2.436-2.536v-11.652c0-1.4-1.091-2.536-2.436-2.536h-6.729c-1.346 0-2.436 1.136-2.436 2.536v11.652c0 1.401 1.09 2.536 2.436 2.536z"/><path d="M176.105 119.644c1.71 0 3.097-.599 4.123-1.777 2.319-2.666 1.902-7.35 1.884-7.549-.035-.369-.352-.639-.706-.602s-.614.366-.579.734c.005.054.374 4.3-1.558 6.517-.782.897-1.817 1.333-3.164 1.333-.357 0-.646.301-.646.672s.289.672.646.672z"/></g><path d="M155.156 88.516c0 1.854-1.443 3.372-3.24 3.372-1.786 0-3.24-1.507-3.24-3.372s1.451-3.373 3.24-3.373 3.24 1.51 3.24 3.373z" class="H"/><path d="M154.026 90.377l-.238.892c-.427.314-.93.524-1.474.594l-.292.023-.106.002c-.104 0-.208-.005-.31-.015-.115-.011-.227-.029-.338-.052a3.17 3.17 0 0 1-1.324-.63l-.138-.927 1.474-.529.02-.007.031-.011.081-.028.075-.027.192-.067h0l.015-.003.643.05.108.008.033.003.316.092c.382.121.999.352 1.232.631z" class="O"/><g class="D"><path d="M152.085 86.842s.771.136.64 1.392-.811 1.146-.857 1.145-.685.015-.719-1.522c0 0-.009-1.136.936-1.015z"/><path d="M152.423 89.014s-.026.517.021.63-.619.469-1.034.063c0 0 .084-.565.058-.765s.955.072.955.072zm.318-1.135s.085-.093.115.003-.136.519-.126.539c0 0-.015.037-.036.016s.047-.557.047-.557zm-1.582-.034s-.082-.097-.116-.003.09.517.105.543c0 0 .026.043.047.024s-.036-.565-.036-.565z"/></g><path d="M152.791 87.772l-.052.3-.113.153-.01-.39a1.44 1.44 0 0 1-.022-.094l-.035-.16c-.014-.038-.661-.234-1.237.042 0 0 .005.052.004.11 0 .068-.007.143-.036.154-.056.021-.033.395-.033.395l-.089-.108-.052-.42-.018-.161c-.012-.226.009-.636.292-.877.19-.084.494-.157 1.002.005 0 0 .116.008.149.041.316.362.25 1.011.25 1.011z" class="I"/><path d="M151.521 89.21s.123.178.409.172.41-.162.41-.162-.135.295-.411.291-.408-.301-.408-.301z" class="P"/><path d="M151.331 89.718s.207.374.599.41c.249.022.464-.306.565-.467 0 0-.557-.248-1.164.057z" class="D"/><g class="J"><path d="M152.424 89.542s-.157.215-.493.445l.208.335.357-.662-.072-.119z"/><path d="M151.425 89.593a1.45 1.45 0 0 0 .505.395l-.23.345-.4-.604.125-.136z"/></g><path d="M151.93 89.987l.179.283s-.188.111-.363-.007l.184-.276z" class="E"/><path d="M154.234 90.324l-.199.743-.114.098-.133.104a3.15 3.15 0 0 1-1.473.594l.18-2.203.3.086c.822.246 1.239.461 1.381.543l.058.035zm-2.966 1.497a3.16 3.16 0 0 1-1.324-.63c-.116-.092-.225-.192-.327-.299l-.059-.064-.097-.425h0s.401-.274 1.819-.668l-.012 2.086z" class="C"/><path d="M152.032 90.302l-.01 1.585-.106.002c-.105 0-.208-.005-.311-.015.063-.839.168-1.364.216-1.572l.025-.102.19.033-.004.07z" class="E"/><path d="M154.398 90.686a3.35 3.35 0 0 1-.362.382l-.114.097a11.09 11.09 0 0 1 .312-.841c.086.059.125.262.164.361zm-4.781.206l-.059-.064-.205-.251c.036-.091.073-.152.108-.175h0l.156.489z" class="C"/><path d="M127.847 131.38s-.422-.718-1.001-.999-1.765.698-1.869 1.242l-1.376 2.088.261.186.734-1.114c-.5 1.251-1.214 2.751-.713 3.504.674 1.012 2.201 2.034 2.604 1.857s.323-3.118.323-3.118c-.435-2.596 1.037-3.646 1.037-3.646z" class="F"/><g fill="#de9673"><path d="M127.847 131.38s-.502 1.003-.759 1.782-.306 2.936-.468 3.085-1.442-.522-1.613-1.329.348-2.418.842-3.265.997-1.272.997-1.272.872.177 1.001.999z"/><path d="M132.786 112.481l-.784 5.365c0 1.035-.271 2.729-.904 3.984s-3.411 9.829-3.652 10.828l-.448 1.942s-1.387-.659-1.387-1.601 1.207-8.721 1.417-10.259 1.96-9.412 1.96-9.412l3.798-.847z"/></g><path d="M128.355 112.198l.241 4.549c-.03.942-.452 3.075-.452 3.64s-.001 12.266.449 13.678-1.263.44-1.263.44-2.984-7.696-2.984-10.907.362-4.811.15-6.851-1.148-4.723-1.148-4.723l5.007.174z" class="B"/><path d="M123.841 94.832s-1.604 2.045-2.026 4.775.499 7.877.827 9.366c.288 1.307.838 5.49.868 5.929 0 0 5.393.635 9.493-.714l.616-8.32c.241-2.479-.936-10.848-.936-10.848l-8.842-.188z" class="S"/><path d="M130.008 137.625c-1.932-1.757-1.415-3.56-1.415-3.56s-.772-.285-1.399-.123-.964 1.72-.713 2.218l.195 2.557.319-.027-.104-1.365c.372 1.318.727 2.972 1.583 3.233 1.15.35 2.979.143 3.188-.264s-1.654-2.669-1.654-2.669z" class="F"/><path d="M131.142 75.714s-.478 2.961-.065 3.956-2.194-1.163-2.194-1.163 1.082-3.263 2.259-2.793zm-.963-8.228s-4.185-.997-4.706 3.657 1.361 5.238.087 8.392 3.112-1.027 3.112-1.027l1.507-11.021z" fill="#754836"/><path d="M129.818 67.418c1.074-.022 3.438.609 3.725 3.579 0 0-.108.795-.311 1.416s.287 2.485.144 2.572-.729.187-.729.187-.68 2.001-1.36 1.963-3.243-.667-4.39-3.214-1.416-6.411 2.921-6.503z" class="B"/><path d="M118.114 104.264s.1-1.791.556-2.069.192.276.192.276l-.312 1.826c-.003.026-.436-.033-.436-.033z" class="F"/><path d="M120.223 100.232a13.68 13.68 0 0 0 .36 1.577c.234.774.449 1.021.356 1.464-.071.335-.435.586-.527.479s-.136-1.409-.654-1.403.154 1.612-.154 1.494-1.496-.795-1.421-1.451.55-1.13.519-2.11c-.027-.889.238-1.261.238-1.261l1.283 1.211z" class="B"/><path d="M119.809 102.294s.69.184.649 2.613l-.781-.136s.014-1.342-.219-2.074c0 0 .04-.475.351-.403z" class="F"/><g class="J"><path d="M122.674 105.455l-6.084-1.796.018 7.799 6.055 3.777.011-9.78z"/><path d="M122.662 115.235l-.762.146-5.889-3.811.073-7.876.506-.035 6.072 11.576z"/></g><g class="S"><path d="M130.396 78.359l1.911.904c.29.211.869 2.653 1.014 2.864s1.544 2.021 1.35 3.489c-.151 1.153-.778 1.764-1.184 2.216s-.78 2.886-.908 3.248.277 5.11.277 5.11-4.758 1.928-9.015-1.358l.85-3.752c0-.573-.55-4.612-2.028-6.993s.261-4.914 1.391-5.215 3.301-1.146 3.301-1.146l3.041.633z"/><path d="M125.205 78.512s-2.382-.153-3.576 1.294-1.13 3.165-1.434 3.911-.999 3.956-1.151 4.477-.3 3.443-.517 5.794-.174 6.742-.174 6.742l2.279-.43.15-6.612c.058-2.427 1.954-6.714 2.671-8.591s3.571-5.407 1.752-6.584zm6.866.614a1.96 1.96 0 0 0 1.547 1.154c.5 1.085.691 1.988.821 2.259s1.938 3.845 2.046 4.636-.065 2.238-1.021 2.622-4.387.429-4.387.429.869-1.837.065-2.787l3.08-.53c.622-.065-2.94-6.971-2.151-7.784z"/></g><path d="M126.366 82.194l4.641 11.281 5.785-2.837-4.279-10.833-6.147 2.389z" class="F"/><g class="B"><path d="M129.028 87.736l-.827.204c-.199.03.047.413.291.425s.536-.629.536-.629z"/><path d="M129.45 90.947s.292-.015.416-.086l.377-.243.127-.068c.128-.054.426-.134.699-.355s1.16-1.1 1.16-1.1l-.587-.921-.453-.733s-1.908.054-2.184.229l-.077.054c-.221.172-.315.396-.421.5-.039.038-.399.447-.377.611.03.228.139.373.276.441 0 0 .078.443.3.64 0 0 .059.411.402.573 0 0 .105.41.342.457z"/></g><path d="M131.143 87.441l3.605-.611s.053-1.032-.089-1.906-.833-2.048-.833-2.048l1.445 1.377s1.188 2.369 1.215 2.923.167 1.409-.535 2.276-4.021.47-4.021.47.277-1.063-.787-2.481z" class="S"/><path d="M130.273 76.663l-.197.698-.166.727c-.143.733-.239 1.592-.071 2.17 0 0-1.52.499-2.65-1.75 0 0 .576-2.371-.049-3.837s3.133 1.993 3.133 1.993z" class="B"/><path d="M133.543 70.997s-1.775 1.184-3.51 1.383-2.7 2.93-2.7 2.93-2.728-4.421-.531-7.138 7.21-.613 6.741 2.825z" fill="#754836"/><path d="M129.316 72.276c0-.348-.358-.882-.919-.422s.131 2.137.585 1.988.334-1.206.334-1.566zm1.176 6.124s.715 2.197-.957 2.185-2.4-1.38-2.878-2.595c0 0 .771-.389 1.129-.446s2.706.855 2.706.855z" class="B"/><path d="M120.459 104.801l-.784.106.001-.381.783.275zm-1.903-.561l-.434.053.003-.18c.004-.046.416.098.431.127z" class="F"/><path d="M128.594 134.065s.219 1.122.493 1.907 1.556 2.514 1.519 2.74-1.455.545-2.083.023-1.206-2.136-1.335-3.131-.062-1.637-.062-1.637.863-.465 1.468.098z" class="B"/><path d="M130.21 76.891l-.198.724c-1.373-.965-2.031-2.111-2.031-2.111.779.776 2.229 1.387 2.229 1.387z" fill="#a77860"/><path d="M66.583 34.616h16.181c1.319 0 2.388 1.113 2.388 2.485v6.808c0 1.372-1.069 2.485-2.388 2.485H66.583c-1.319 0-2.388-1.113-2.388-2.485v-6.808c0-1.372 1.069-2.485 2.388-2.485z" class="N"/><path d="M53.412 93.757c.016.009.019.01 0 0z" class="C"/><path d="M43.445 91.878h15.48c.431 0 .78-.364.78-.812v-.495c0-.449-.349-.813-.78-.813h-15.48c-.431 0-.781.364-.781.813v.495c0 .449.349.813.781.813zm0 3.823h15.48c.431 0 .78-.364.78-.813v-.495c0-.449-.349-.812-.78-.812h-15.48c-.431 0-.781.363-.781.812v.495c0 .449.349.813.781.813zm0 3.823h15.48c.431 0 .78-.364.78-.812v-.495c0-.448-.349-.812-.78-.812h-15.48c-.431 0-.781.364-.781.812v.495c0 .449.349.812.781.812zm26.037-17.939h-3.698c-.803 0-1.454-.678-1.454-1.513V68.174c0-.836.651-1.513 1.454-1.513h3.698c.803 0 1.454.677 1.454 1.513v11.897c0 .836-.651 1.513-1.454 1.513z" class="R"/><path d="M29.727 108.297s.254.433.285.786c.025.28.251.698.349.928s.413 1.276.424 1.548c.005.111-.234.812-.2 1.035s.157.668-.036.698-.412-.335-.412-.335.018.207-.145.286c-.318.153-.486.018-.486.018s-.117.227-.264.258c-.325.067-.484-.069-.484-.069s-.143.128-.367.123c-.287-.006-.408-.264-.408-.264s-.364.077-.469-.1-.087-.364-.131-.524-.011-1.605.461-2.645-.12-2.055-.12-2.055l2.005.312z" class="B"/><path d="M30.187 112.822s.032-1.296-.295-1.571-.365.191-.365.191.045-.462-.314-.524-.373.486-.373.486-.059-.356-.435-.283-.287.528-.287.528-.359-.446-.592-.017c-.394.723-.014 1.578-.014 1.578s.111.195.469.099c0 0 .239.502.775.142 0 0 .548.314.748-.19 0 0 .605.299.683-.439z" fill="#db9c7c"/><path d="M33.951 89.627L31.099 99.75c-.226.855-.772 9.024-.869 9.354s-2.8.779-2.8.779l.358-10.777c.031-.558 2.983-11.971 3.842-12.378.643-.305.983-.053 1.794.574 1.138.879.527 2.325.527 2.325z" class="C"/><path d="M54.976 79.647l-.237-.378 4.879-3.324.237.377-4.879 3.324z" fill="#4da8f2"/><path d="M60.376 77.856s-.047.287-.126.403l-.265.346-.076.118c-.065.121-.171.407-.403.652S58.368 80.4 58.368 80.4l-.775-.685-.805-.376s.451-2.04.642-2.294l.058-.069c.182-.199.398-.268.505-.361.039-.034.454-.345.601-.305.205.055.325.18.372.323 0 0 .397.127.551.369 0 0 .37.105.48.463 0 0 .363.15.38.391z" fill="#efaa88"/><use xlink:href="#F" class="L"/><path d="M32.026 141.553s.677.846 1.332 1.214 1.684.515 2.071.897c.28.275 1.019 1.461-1.702 1.437s-4.032.168-4.323-.287.422-3.356.422-3.356.644.241 2.2.095z" class="M"/><use xlink:href="#F" x="15.314" class="L"/><g class="M"><path d="M47.339 141.553s.677.846 1.332 1.214 3.065.672 3.452 1.053c.28.276.745 1.385-3.083 1.281-2.719-.074-4.031.168-4.323-.287s.422-3.357.422-3.357.607.258 2.2.096zm-13.348-37.507s-2.008 3.321-1.858 6.322-.728 6.28-1.03 9.416c-.336 3.496-1.713 11.772-1.763 13.642s.213 7.842.213 7.842l2.755.065s2.314-14.469 2.913-15.945 3.571-12.002 3.671-13.183-4.902-8.159-4.902-8.159z"/><path d="M44.563 104.496l1.713 10.064c.2 1.838.333 8.892.433 10.04s.933 14.993 1.199 16.733h-3.522s-2.704-10.089-2.704-14.863-2.089-10.377-3.437-13.527-4.435-3.224-5.264-9.068c0 0 10.46-1.233 11.582.621z"/></g><g class="B"><path d="M37.343 76.125s2.695-1.048 3.938 1.088 1.123 6.411-.236 6.937-3.4.251-4.095-1.085-1.323-3.268-1.294-4.559.978-2.007 1.686-2.38z"/><path d="M40.752 84.247s-.112.757.073 1.131-3.492.383-3.492.383-.299-2.029-.864-3.745 4.283 2.231 4.283 2.231z"/></g><path d="M36.469 82.016s.254.436 1.29.267 2.3-1.603 2.733-1.762.437-.422.437-.422l.271.412.46.03s-.419-1.284.213-1.807-.656-4.154-3.979-2.946c0 0-2.552.732-2.459 2.243s.465 3.232 1.036 3.984z" fill="#d88a51"/><path d="M41.044 85.333s-.012-.713-.322-.781-3.427-.38-3.808-.224v.83s.734.47 4.13.175z" class="G"/><path d="M40.859 79.551c-.058-.253-.677-.978-.914-.202s.358 1.818.69 1.729.371-.884.224-1.526z" class="B"/><path d="M46.199 86.413c-2.137-.293-5.155-1.08-5.155-1.08l-4.13-.175s-3.791.869-5.283 1.571c-.142.067-.142 3.52-.531 4.425l1.238 2.718.863 7.779c.068 1.099-1.475 10.307-1.475 10.307s1.653.506 4.472.83 9.862-.117 9.906-.464-1.364-12.904-1.426-13.554c-.096-.998.331-6.302.331-6.302.651-.525 6.366-3.286 7.924-4.725.417-.385 2.178-2.17 2.679-2.786 1.773-2.182 3.226-4.053 3.403-4.456.201-.23-1.926-1.433-2.119-1.5-.169-.059-2.565 3.173-3.488 4.212-.411.464-2.121 1.758-2.121 1.758s-3.752 1.522-5.088 1.442z" class="C"/><path d="M36.575 76.377s-3.437.28-.106 5.639l.106-5.639z" fill="#d88a51"/><path d="M59.855 76.322l.282-.448-.519.07.237.377z" class="N"/><defs><linearGradient id="A" x1="145.992" y1="23.96" x2="173.05" y2="23.96" gradientUnits="userSpaceOnUse"><stop stop-color="#ff9f55"/><stop offset="1" stop-color="#ffd255"/></linearGradient><linearGradient id="B" x1="162.816" y1="44.236" x2="175.22" y2="44.236" gradientUnits="userSpaceOnUse"><stop stop-color="#ff9f55"/><stop offset="1" stop-color="#ffd255"/></linearGradient><linearGradient id="C" x1="59.828" y1="23.96" x2="156.804" y2="23.96" gradientUnits="userSpaceOnUse"><stop stop-color="#ff9f55"/><stop offset="1" stop-color="#ffd255"/></linearGradient><path id="D" d="M89.848 42.057h31.626c.679 0 1.228-.573 1.228-1.279v-.069c0-.706-.549-1.279-1.228-1.279H89.848c-.678 0-1.228.573-1.228 1.279v.069c0 .706.55 1.279 1.228 1.279z"/><path id="E" d="M121.153 61.342h-4.304c-.855 0-1.548-.722-1.548-1.612v-4.479c0-.89.693-1.612 1.548-1.612h4.304c.855 0 1.548.722 1.548 1.612v4.479c0 .89-.693 1.612-1.548 1.612z"/><path id="F" d="M32.221 140.117l-.218 1.614c-.024.211-2.162-.124-2.162-.124l-.173-1.672s2.286-.016 2.553.182z"/></defs></svg>