<svg width="19" height="18" viewBox="0 0 19 18" fill="none" xmlns="http://www.w3.org/2000/svg">
<g clip-path="url(#clip0_248_2490)" filter="url(#filter0_i_248_2490)">
<path d="M17.6781 12.2741C17.6781 12.6592 17.5161 13.0284 17.2278 13.3007C16.9396 13.573 16.5485 13.7259 16.1409 13.7259H2.30578C1.89809 13.7259 1.50709 13.573 1.2188 13.3007C0.930512 13.0284 0.768555 12.6592 0.768555 12.2741V4.28919C0.768555 3.90414 0.930512 3.53487 1.2188 3.2626C1.50709 2.99034 1.89809 2.83738 2.30578 2.83738H5.38024L6.91747 0.659668H11.5292L13.0664 2.83738H16.1409C16.5485 2.83738 16.9396 2.99034 17.2278 3.2626C17.5161 3.53487 17.6781 3.90414 17.6781 4.28919V12.2741Z" stroke="black" stroke-linecap="round" stroke-linejoin="round"/>
<path d="M9.22339 10.8224C10.9214 10.8224 12.2978 9.52237 12.2978 7.91875C12.2978 6.31513 10.9214 5.01514 9.22339 5.01514C7.52541 5.01514 6.14893 6.31513 6.14893 7.91875C6.14893 9.52237 7.52541 10.8224 9.22339 10.8224Z" stroke="black" stroke-linecap="round" stroke-linejoin="round"/>
</g>
<defs>
<filter id="filter0_i_248_2490" x="0" y="0" width="18.4468" height="21.9277" filterUnits="userSpaceOnUse" color-interpolation-filters="sRGB">
<feFlood flood-opacity="0" result="BackgroundImageFix"/>
<feBlend mode="normal" in="SourceGraphic" in2="BackgroundImageFix" result="shape"/>
<feColorMatrix in="SourceAlpha" type="matrix" values="0 0 0 0 0 0 0 0 0 0 0 0 0 0 0 0 0 0 127 0" result="hardAlpha"/>
<feOffset dy="4"/>
<feGaussianBlur stdDeviation="2"/>
<feComposite in2="hardAlpha" operator="arithmetic" k2="-1" k3="1"/>
<feColorMatrix type="matrix" values="0 0 0 0 0 0 0 0 0 0 0 0 0 0 0 0 0 0 0.25 0"/>
<feBlend mode="normal" in2="shape" result="effect1_innerShadow_248_2490"/>
</filter>
<clipPath id="clip0_248_2490">
<rect width="18.4468" height="17.9277" fill="white"/>
</clipPath>
</defs>
</svg>
