<svg width="16" height="16" viewBox="0 0 16 16" fill="none" xmlns="http://www.w3.org/2000/svg">
<circle cx="8" cy="8" r="8" fill="#2CAB00"/>
<path d="M5.49629 7.46074C5.10637 7.06961 4.4732 7.06863 4.08207 7.45855C3.69095 7.84847 3.68997 8.48163 4.07989 8.87276L5.49629 7.46074ZM4.07989 8.87276L6.75772 11.5589L8.17412 10.1469L5.49629 7.46074L4.07989 8.87276Z" fill="white"/>
<path d="M12.7281 6.31331C13.1186 5.92278 13.1186 5.28962 12.7281 4.89909C12.3376 4.50857 11.7044 4.50857 11.3139 4.89909L12.7281 6.31331ZM6.41708 9.7959L5.70997 10.503L7.12419 11.9172L7.83129 11.2101L6.41708 9.7959ZM11.3139 4.89909L6.41708 9.7959L7.83129 11.2101L12.7281 6.31331L11.3139 4.89909Z" fill="white"/>
</svg>
