<svg width="25" height="22" viewBox="0 0 25 22" fill="none" xmlns="http://www.w3.org/2000/svg">
<path d="M22.3037 14.94V17.5889C22.3048 17.8348 22.247 18.0783 22.1339 18.3036C22.0207 18.5289 21.8548 18.7311 21.6468 18.8974C21.4387 19.0636 21.1931 19.1902 20.9257 19.269C20.6582 19.3478 20.3748 19.377 20.0936 19.3549C16.974 19.0597 13.9773 18.1312 11.3445 16.6441C8.89498 15.2885 6.81823 13.4797 5.2617 11.3463C3.54836 9.04276 2.48211 6.42013 2.14934 3.69085C2.12401 3.44668 2.15733 3.20058 2.24717 2.96824C2.33702 2.7359 2.48143 2.52239 2.67121 2.34132C2.86099 2.16025 3.09198 2.01558 3.34947 1.91652C3.60696 1.81746 3.88531 1.76619 4.1668 1.76595H7.2082C7.7002 1.76174 8.17718 1.91348 8.55022 2.1929C8.92327 2.47233 9.16693 2.86036 9.23579 3.28468C9.36416 4.1324 9.60223 4.96475 9.94545 5.76585C10.0819 6.08189 10.1114 6.42536 10.0305 6.75556C9.94966 7.08577 9.76182 7.38886 9.48924 7.62893L8.20172 8.75032C9.64492 10.9609 11.7464 12.7912 14.2845 14.0482L15.572 12.9268C15.8477 12.6894 16.1957 12.5258 16.5748 12.4554C16.9539 12.385 17.3483 12.4107 17.7111 12.5295C18.6309 12.8284 19.5866 13.0357 20.5599 13.1476C21.0524 13.2081 21.5022 13.4241 21.8237 13.7546C22.1452 14.0851 22.316 14.507 22.3037 14.94Z" stroke="white" stroke-width="2" stroke-linecap="round" stroke-linejoin="round"/>
</svg>
