<svg width="24" height="24" viewBox="0 0 24 24" fill="none" xmlns="http://www.w3.org/2000/svg">
<g clip-path="url(#clip0_224_2485)">
<path d="M20 10C20 17 11 23 11 23C11 23 2 17 2 10C2 7.61305 2.94821 5.32387 4.63604 3.63604C6.32387 1.94821 8.61305 1 11 1C13.3869 1 15.6761 1.94821 17.364 3.63604C19.0518 5.32387 20 7.61305 20 10Z" stroke="black" stroke-linecap="round" stroke-linejoin="round"/>
<path d="M11 13C12.6569 13 14 11.6569 14 10C14 8.34315 12.6569 7 11 7C9.34315 7 8 8.34315 8 10C8 11.6569 9.34315 13 11 13Z" stroke="black" stroke-linecap="round" stroke-linejoin="round"/>
</g>
<defs>
<clipPath id="clip0_224_2485">
<rect width="24" height="24" fill="white"/>
</clipPath>
</defs>
</svg>
