<svg width="24" height="24" viewBox="0 0 24 24" fill="none" xmlns="http://www.w3.org/2000/svg">
<path d="M19.8666 12.2083L12.2082 19.8667C11.27 20.8049 9.99757 21.332 8.67075 21.332C7.34393 21.332 6.07145 20.8049 5.13325 19.8667C4.19505 18.9285 3.66797 17.656 3.66797 16.3292C3.66797 15.0024 4.19505 13.7299 5.13325 12.7917L12.7916 5.13335C13.4171 4.50788 14.2654 4.15649 15.1499 4.15649C16.0345 4.15649 16.8828 4.50788 17.5082 5.13335C18.1337 5.75882 18.4851 6.60713 18.4851 7.49168C18.4851 8.37623 18.1337 9.22455 17.5082 9.85002L9.84158 17.5083C9.52885 17.8211 9.10469 17.9968 8.66242 17.9968C8.22014 17.9968 7.79598 17.8211 7.48325 17.5083C7.17051 17.1956 6.99482 16.7715 6.99482 16.3292C6.99482 15.8869 7.17051 15.4627 7.48325 15.15L14.5582 8.08335" stroke="black" stroke-linecap="round" stroke-linejoin="round"/>
</svg>
