<svg width="16" height="16" viewBox="0 0 16 16" fill="none" xmlns="http://www.w3.org/2000/svg">
<path fill-rule="evenodd" clip-rule="evenodd" d="M7.7295 1.39166C7.87721 1.32602 8.04283 1.31665 8.19567 1.36353L8.27088 1.39166L14.2709 4.05751C14.5122 4.16473 14.6651 4.40276 14.6669 4.66205L14.6628 4.74037L14.2812 8.1748C14.0861 9.9303 13.1281 11.507 11.6685 12.4895L11.4979 12.6002L8.35352 14.5654C8.16136 14.6855 7.92327 14.6989 7.72091 14.6054L7.64685 14.5654L4.50251 12.6002C3.00468 11.6641 1.99843 10.1177 1.74508 8.37654L1.7192 8.1748L1.3376 4.74037C1.30844 4.47792 1.4368 4.22578 1.65981 4.09349L1.7295 4.05751L7.7295 1.39166ZM8.00019 2.7304L2.71664 5.07793L3.04438 8.02756C3.19507 9.38382 3.93125 10.6029 5.05373 11.368L5.20917 11.4695L8.00019 13.2139L10.7912 11.4695C11.9484 10.7463 12.7283 9.55475 12.9318 8.21162L12.956 8.02756L13.2837 5.07793L8.00019 2.7304ZM9.47595 5.58823C9.70342 5.29871 10.1225 5.24842 10.412 5.4759C10.6793 5.68587 10.7427 6.05913 10.572 6.34302L10.5244 6.41199L7.85772 9.74529C7.62842 10.0371 7.21018 10.082 6.92533 9.86063L6.8621 9.80481L5.52878 8.47149C5.26843 8.21114 5.26843 7.78904 5.52878 7.52869C5.7691 7.28837 6.14726 7.26988 6.40878 7.47323L6.47159 7.52869L7.27356 8.33065L9.47595 5.58823Z" fill="#4DFE30"/>
</svg>
