<svg width="34" height="34" viewBox="0 0 34 34" fill="none" xmlns="http://www.w3.org/2000/svg">
<path d="M10.396 8.50659V6.73022C10.396 5.75073 11.1929 4.95386 12.1724 4.95386H21.0542C22.0337 4.95386 22.8306 5.75073 22.8306 6.73022V8.50659H26.3833C27.3628 8.50659 28.1597 9.30347 28.1597 10.283V23.6074C28.1597 24.5869 27.3628 25.3837 26.3833 25.3837H6.84326C5.86377 25.3837 5.06689 24.5869 5.06689 23.6074V10.283C5.06689 9.30347 5.86377 8.50659 6.84326 8.50659H10.396ZM21.0542 8.50659V7.61675C21.0542 7.12534 20.6558 6.7269 20.1644 6.7269H13.0589C12.5675 6.7269 12.169 7.12534 12.169 7.61675V8.50659H21.0542ZM10.396 10.283H7.72979C7.23838 10.283 6.83994 10.6814 6.83994 11.1728V22.7208C6.83994 23.2123 7.23838 23.6107 7.72979 23.6107H25.4935C25.9849 23.6107 26.3833 23.2123 26.3833 22.7208V11.1695C26.3833 10.6781 25.9849 10.2796 25.4935 10.2796H10.396V10.283ZM21.0575 15.808H12.1724V16.6978C12.1724 17.1892 11.7739 17.5876 11.2825 17.5876C10.7911 17.5876 10.3927 17.1892 10.3927 16.6978V15.808H6.83994V14.0316H10.3927V13.1417C10.3927 12.6503 10.7911 12.2519 11.2825 12.2519C11.7739 12.2519 12.1724 12.6503 12.1724 13.1417V14.0316H21.0542V13.1417C21.0542 12.6503 21.4526 12.2519 21.9441 12.2519C22.4355 12.2519 22.8339 12.6503 22.8339 13.1417V14.0316H26.3866V15.808H22.8339V16.6978C22.8339 17.1892 22.4355 17.5876 21.9441 17.5876C21.4526 17.5876 21.0542 17.1892 21.0542 16.6978V15.808H21.0575Z" fill="white"/>
</svg>
