<svg width="16" height="15" viewBox="0 0 16 15" fill="none" xmlns="http://www.w3.org/2000/svg">
<path d="M6.86001 2.41251L1.21335 11.25C1.09693 11.439 1.03533 11.6533 1.03467 11.8716C1.03402 12.0898 1.09434 12.3045 1.20963 12.4941C1.32492 12.6837 1.49116 12.8417 1.69182 12.9524C1.89247 13.0631 2.12055 13.1226 2.35335 13.125H13.6467C13.8795 13.1226 14.1076 13.0631 14.3082 12.9524C14.5089 12.8417 14.6751 12.6837 14.7904 12.4941C14.9057 12.3045 14.966 12.0898 14.9654 11.8716C14.9647 11.6533 14.9031 11.439 14.7867 11.25L9.14001 2.41251C9.02117 2.22882 8.85383 2.07696 8.65414 1.97156C8.45446 1.86616 8.22917 1.81079 8.00001 1.81079C7.77086 1.81079 7.54557 1.86616 7.34588 1.97156C7.1462 2.07696 6.97886 2.22882 6.86001 2.41251V2.41251Z" stroke="#FF0000" stroke-width="1.5" stroke-linecap="round" stroke-linejoin="round"/>
<path d="M8 5.625V8.125" stroke="#FF0000" stroke-width="1.5" stroke-linecap="round" stroke-linejoin="round"/>
<path d="M8 10.625H8.00718" stroke="#FF0000" stroke-width="1.5" stroke-linecap="round" stroke-linejoin="round"/>
</svg>
