<svg width="25" height="25" viewBox="0 0 25 25" fill="none" xmlns="http://www.w3.org/2000/svg">
<g clip-path="url(#clip0_248_2503)">
<path d="M10.9375 4.6875C11.1447 4.6875 11.3434 4.60519 11.4899 4.45868C11.6364 4.31216 11.7188 4.11345 11.7188 3.90625C11.7188 3.69905 11.6364 3.50034 11.4899 3.35382C11.3434 3.20731 11.1447 3.125 10.9375 3.125H6.25C6.0428 3.125 5.84409 3.20731 5.69757 3.35382C5.55106 3.50034 5.46875 3.69905 5.46875 3.90625C5.46875 4.11345 5.55106 4.31216 5.69757 4.45868C5.84409 4.60519 6.0428 4.6875 6.25 4.6875H10.9375Z" fill="white"/>
<path d="M16.4062 6.90625V3.78125C16.4104 3.28683 16.3167 2.79647 16.1306 2.3384C15.9444 1.88032 15.6696 1.46358 15.3218 1.11214C14.974 0.760712 14.5601 0.481529 14.104 0.290662C13.6479 0.0997951 13.1585 0.00101291 12.6641 0L4.52344 0C3.53158 0.00206422 2.58094 0.396992 1.87959 1.09834C1.17824 1.79969 0.783314 2.75033 0.78125 3.74219V21.2578C0.783314 22.2497 1.17824 23.2003 1.87959 23.9017C2.58094 24.603 3.53158 24.9979 4.52344 25H12.6641C13.6559 24.9979 14.6066 24.603 15.3079 23.9017C16.0093 23.2003 16.4042 22.2497 16.4062 21.2578V21.2188C17.7971 20.6096 18.9803 19.6083 19.8112 18.3374C20.6421 17.0664 21.0845 15.5809 21.0845 14.0625C21.0845 12.5441 20.6421 11.0586 19.8112 9.78762C18.9803 8.51668 17.7971 7.51541 16.4062 6.90625ZM12.6641 23.4375H4.52344C3.94535 23.4375 3.39094 23.2079 2.98217 22.7991C2.5734 22.3903 2.34375 21.8359 2.34375 21.2578V3.74219C2.34375 3.1641 2.5734 2.60969 2.98217 2.20092C3.39094 1.79215 3.94535 1.5625 4.52344 1.5625H12.6641C13.2422 1.5625 13.7966 1.79215 14.2053 2.20092C14.6141 2.60969 14.8438 3.1641 14.8438 3.74219V6.40625C14.3293 6.30285 13.806 6.25051 13.2812 6.25C11.2315 6.24979 9.26511 7.06162 7.8125 8.50781V7.8125C7.8125 7.6053 7.73019 7.40659 7.58368 7.26007C7.43716 7.11356 7.23845 7.03125 7.03125 7.03125C6.82405 7.03125 6.62534 7.11356 6.47882 7.26007C6.33231 7.40659 6.25 7.6053 6.25 7.8125V20.3125C6.25 20.5197 6.33231 20.7184 6.47882 20.8649C6.62534 21.0114 6.82405 21.0938 7.03125 21.0938C7.23845 21.0938 7.43716 21.0114 7.58368 20.8649C7.73019 20.7184 7.8125 20.5197 7.8125 20.3125V19.6172C9.26511 21.0634 11.2315 21.8752 13.2812 21.875C13.7874 21.8736 14.2923 21.8239 14.7891 21.7266C14.6824 22.211 14.4137 22.6445 14.0273 22.9556C13.641 23.2667 13.1601 23.4367 12.6641 23.4375ZM13.2812 20.3125C12.1638 20.3115 11.067 20.0109 10.1052 19.4421C9.1434 18.8732 8.35167 18.0569 7.8125 17.0781V11.0469C8.34454 10.0811 9.12262 9.27318 10.0678 8.70525C11.0129 8.13733 12.0915 7.82956 13.1941 7.81319C14.2966 7.79682 15.3839 8.07244 16.3455 8.61206C17.3071 9.15168 18.1088 9.9361 18.6693 10.8857C19.2297 11.8353 19.529 12.9163 19.5367 14.0189C19.5444 15.1216 19.2602 16.2066 18.7131 17.1639C18.1659 18.1212 17.3752 18.9168 16.4212 19.4698C15.4672 20.0227 14.3839 20.3135 13.2812 20.3125Z" fill="white"/>
<path d="M23.4376 3.90627H21.4142L21.6486 3.67971C21.7957 3.5326 21.8783 3.33307 21.8783 3.12502C21.8783 2.91697 21.7957 2.71745 21.6486 2.57034C21.5015 2.42322 21.3019 2.34058 21.0939 2.34058C20.8858 2.34058 20.6863 2.42322 20.5392 2.57034L18.9767 4.13284C18.9035 4.20546 18.8454 4.29187 18.8057 4.38707C18.766 4.48227 18.7456 4.58439 18.7456 4.68752C18.7456 4.79066 18.766 4.89277 18.8057 4.98797C18.8454 5.08318 18.9035 5.16958 18.9767 5.24221L20.5392 6.80471C20.6118 6.87794 20.6982 6.93606 20.7934 6.97572C20.8886 7.01538 20.9908 7.0358 21.0939 7.0358C21.197 7.0358 21.2991 7.01538 21.3943 6.97572C21.4895 6.93606 21.5759 6.87794 21.6486 6.80471C21.7218 6.73208 21.7799 6.64568 21.8196 6.55047C21.8592 6.45527 21.8797 6.35316 21.8797 6.25002C21.8797 6.14689 21.8592 6.04477 21.8196 5.94957C21.7799 5.85437 21.7218 5.76796 21.6486 5.69534L21.4142 5.46877H23.4376C23.6448 5.46877 23.8436 5.38646 23.9901 5.23995C24.1366 5.09344 24.2189 4.89472 24.2189 4.68752C24.2189 4.48032 24.1366 4.28161 23.9901 4.1351C23.8436 3.98858 23.6448 3.90627 23.4376 3.90627Z" fill="white"/>
<path d="M16.0833 10.7499V9.83325H11.5V10.7499H12.9583C13.5008 10.7499 13.9587 11.134 14.1312 11.6666H11.5V12.5833H14.1312C14.0457 12.8506 13.8871 13.0822 13.677 13.2463C13.467 13.4105 13.216 13.499 12.9583 13.4999H11.5V14.6063L13.8275 17.1666H15.0058L12.5058 14.4166H12.9583C13.4383 14.4159 13.9034 14.2331 14.2752 13.8992C14.6469 13.5652 14.9026 13.1004 14.9992 12.5833H16.0833V11.6666H14.9992C14.9353 11.333 14.8037 11.0196 14.6142 10.7499H16.0833Z" fill="white"/>
</g>
<defs>
<clipPath id="clip0_248_2503">
<rect width="25" height="25" fill="white"/>
</clipPath>
</defs>
</svg>
