<svg width="27" height="27" viewBox="0 0 27 27" fill="none" xmlns="http://www.w3.org/2000/svg">
<g clip-path="url(#clip0_248_2497)">
<path d="M13.5001 0C7.94828 0 3.43164 4.51846 3.43164 10.0725C3.43164 18.3476 12.4979 26.4275 12.884 26.7675C13.06 26.9225 13.28 27.0001 13.5001 27.0001C13.7202 27.0001 13.9402 26.9226 14.1163 26.7675C14.5022 26.4276 23.5685 18.3477 23.5685 10.0725C23.5685 4.51846 19.0519 0 13.5001 0ZM13.5001 24.7899C11.4956 22.8476 5.29619 16.3327 5.29619 10.0725C5.29619 5.54664 8.97646 1.86455 13.5001 1.86455C18.0237 1.86455 21.704 5.54664 21.704 10.0725C21.704 16.3327 15.5045 22.8475 13.5001 24.7899Z" fill="white"/>
<path d="M13.5001 5.38037C10.9299 5.38037 8.83887 7.48528 8.83887 10.0726C8.83887 12.6599 10.9299 14.7647 13.5001 14.7647C16.0704 14.7647 18.1614 12.6599 18.1614 10.0726C18.1614 7.48528 16.0704 5.38037 13.5001 5.38037ZM13.5001 12.9002C11.958 12.9002 10.7033 11.6317 10.7033 10.0726C10.7033 8.51346 11.958 7.24492 13.5001 7.24492C15.0423 7.24492 16.297 8.51337 16.297 10.0726C16.297 11.6317 15.0423 12.9002 13.5001 12.9002Z" fill="white"/>
</g>
<defs>
<clipPath id="clip0_248_2497">
<rect width="27" height="27" fill="white"/>
</clipPath>
</defs>
</svg>
