<svg width="162" height="137" viewBox="0 0 162 137" fill="none" xmlns="http://www.w3.org/2000/svg">
<path d="M66.583 16.4165H27.4163C23.0901 16.4165 19.583 20.6325 19.583 25.8332V101.166C19.583 106.367 23.0901 110.583 27.4163 110.583H66.583C70.9092 110.583 74.4163 106.367 74.4163 101.166V25.8332C74.4163 20.6325 70.9092 16.4165 66.583 16.4165Z" stroke="black" stroke-width="5" stroke-linecap="round" stroke-linejoin="round"/>
<path d="M47.5 24.25V25" stroke="black" stroke-width="3" stroke-linecap="round" stroke-linejoin="round"/>
<rect x="29" y="90" width="36" height="12" rx="2" stroke="black" stroke-width="2"/>
<ellipse cx="90.5" cy="24" rx="24.5" ry="24" fill="#2CAB00"/>
<path d="M82.4517 22.7543C81.4669 21.7866 79.8677 21.7841 78.8799 22.7488C77.8921 23.7134 77.8897 25.2799 78.8745 26.2477L82.4517 22.7543ZM78.8745 26.2477L87.0753 34.3061L90.6525 30.8127L82.4517 22.7543L78.8745 26.2477Z" fill="white"/>
<path d="M104.599 18.5673C105.586 17.6011 105.586 16.0346 104.599 15.0684C103.613 14.1022 102.014 14.1022 101.028 15.0684L104.599 18.5673ZM86.0311 29.7588L84.2452 31.5083L87.817 35.0072L89.6029 33.2577L86.0311 29.7588ZM101.028 15.0684L86.0311 29.7588L89.6029 33.2577L104.599 18.5673L101.028 15.0684Z" fill="white"/>
</svg>
